<?xml version="1.0" standalone="yes"?>

<svg version="1.1" viewBox="0.0 0.0 960.0 720.0" fill="none" stroke="none" stroke-linecap="square" stroke-miterlimit="10" xmlns="http://www.w3.org/2000/svg" xmlns:xlink="http://www.w3.org/1999/xlink"><clipPath id="p.0"><path d="m0 0l960.0 0l0 720.0l-960.0 0l0 -720.0z" clip-rule="nonzero"></path></clipPath><g clip-path="url(#p.0)"><path fill="#000000" fill-opacity="0.0" d="m0 0l960.0 0l0 720.0l-960.0 0z" fill-rule="nonzero"></path><path fill="#ffffff" d="m17.167978 18.24147l154.51443 0l0 0l231.77165 0l540.80054 0l0 319.2257l0 0l0 136.811l0 91.20734l-540.80054 0l-301.5133 138.41992l69.74164 -138.41992l-154.51443 0l0 -91.20734l0 -136.811l0 0z" fill-rule="nonzero"></path><path stroke="#000000" stroke-width="2.0" stroke-linejoin="round" stroke-linecap="butt" d="m17.167978 18.24147l154.51443 0l0 0l231.77165 0l540.80054 0l0 319.2257l0 0l0 136.811l0 91.20734l-540.80054 0l-301.5133 138.41992l69.74164 -138.41992l-154.51443 0l0 -91.20734l0 -136.811l0 0z" fill-rule="nonzero"></path><path fill="#000000" d="m265.8558 320.66348l0 -57.265625l7.578125 0l0 57.265625l-7.578125 0zm69.171875 0l0 -5.234375q-3.9375 6.171875 -11.59375 6.171875q-4.96875 0 -9.125 -2.734375q-4.15625 -2.734375 -6.453125 -7.640625q-2.28125 -4.90625 -2.28125 -11.265625q0 -6.21875 2.0625 -11.265625q2.078125 -5.0625 6.21875 -7.75q4.140625 -2.703125 9.265625 -2.703125q3.75 0 6.671875 1.578125q2.9375 1.578125 4.765625 4.125l0 -20.546875l7.0 0l0 57.265625l-6.53125 0zm-22.21875 -20.703125q0 7.96875 3.359375 11.921875q3.359375 3.9375 7.921875 3.9375q4.609375 0 7.828125 -3.765625q3.234375 -3.78125 3.234375 -11.515625q0 -8.515625 -3.28125 -12.5q-3.28125 -3.984375 -8.09375 -3.984375q-4.6875 0 -7.828125 3.828125q-3.140625 3.828125 -3.140625 12.078125zm37.179688 -0.046875q0 -11.515625 6.40625 -17.0625q5.359375 -4.609375 13.046875 -4.609375q8.5625 0 13.984375 5.609375q5.4375 5.59375 5.4375 15.484375q0 8.0 -2.40625 12.59375q-2.40625 4.59375 -7.0 7.140625q-4.578125 2.53125 -10.015625 2.53125q-8.703125 0 -14.078125 -5.578125q-5.375 -5.59375 -5.375 -16.109375zm7.234375 0q0 7.96875 3.46875 11.9375q3.484375 3.96875 8.75 3.96875q5.234375 0 8.703125 -3.984375q3.484375 -3.984375 3.484375 -12.15625q0 -7.6875 -3.5 -11.65625q-3.484375 -3.96875 -8.6875 -3.96875q-5.265625 0 -8.75 3.953125q-3.46875 3.9375 -3.46875 11.90625zm39.882812 20.75l0 -41.484375l6.328125 0l0 5.890625q4.5625 -6.828125 13.203125 -6.828125q3.75 0 6.890625 1.34375q3.140625 1.34375 4.703125 3.53125q1.5625 2.1875 2.1875 5.203125q0.390625 1.953125 0.390625 6.828125l0 25.515625l-7.03125 0l0 -25.234375q0 -4.296875 -0.828125 -6.421875q-0.8125 -2.140625 -2.90625 -3.40625q-2.078125 -1.265625 -4.890625 -1.265625q-4.5 0 -7.765625 2.859375q-3.25 2.84375 -3.25 10.8125l0 22.65625l-7.03125 0zm44.054688 -49.6875l0 -8.171875l7.546875 0l0 6.453125q0 5.234375 -1.21875 7.53125q-1.671875 3.171875 -5.234375 4.765625l-1.71875 -2.765625q2.109375 -0.859375 3.140625 -2.71875q1.046875 -1.859375 1.15625 -5.09375l-3.671875 0zm33.554688 43.390625l1.015625 6.21875q-2.96875 0.625 -5.3125 0.625q-3.828125 0 -5.9375 -1.203125q-2.109375 -1.21875 -2.96875 -3.1875q-0.859375 -1.984375 -0.859375 -8.3125l0 -23.859375l-5.15625 0l0 -5.46875l5.15625 0l0 -10.28125l7.0 -4.21875l0 14.5l7.0625 0l0 5.46875l-7.0625 0l0 24.25q0 3.015625 0.359375 3.875q0.375 0.859375 1.21875 1.375q0.84375 0.5 2.40625 0.5q1.171875 0 3.078125 -0.28125zm28.953125 6.296875l0 -57.265625l7.03125 0l0 57.265625l-7.03125 0zm17.960968 -49.1875l0 -8.078125l7.03125 0l0 8.078125l-7.03125 0zm0 49.1875l0 -41.484375l7.03125 0l0 41.484375l-7.03125 0zm17.773438 0l0 -57.265625l7.03125 0l0 32.65625l16.640625 -16.875l9.109375 0l-15.859375 15.390625l17.453125 26.09375l-8.671875 0l-13.703125 -21.21875l-4.96875 4.765625l0 16.453125l-7.03125 0zm68.359375 -13.359375l7.265625 0.890625q-1.71875 6.375 -6.375 9.890625q-4.640625 3.515625 -11.859375 3.515625q-9.109375 0 -14.4375 -5.609375q-5.328125 -5.609375 -5.328125 -15.71875q0 -10.46875 5.390625 -16.25q5.390625 -5.78125 13.984375 -5.78125q8.3125 0 13.578125 5.671875q5.28125 5.65625 5.28125 15.921875q0 0.625 -0.03125 1.875l-30.9375 0q0.390625 6.84375 3.859375 10.484375q3.484375 3.625 8.671875 3.625q3.875 0 6.609375 -2.03125q2.734375 -2.03125 4.328125 -6.484375zm-23.078125 -11.375l23.15625 0q-0.46875 -5.234375 -2.65625 -7.84375q-3.359375 -4.0625 -8.703125 -4.0625q-4.84375 0 -8.15625 3.25q-3.296875 3.234375 -3.640625 8.65625zm61.4375 -24.453125l0 -8.078125l7.03125 0l0 8.078125l-7.03125 0zm0 49.1875l0 -41.484375l7.03125 0l0 41.484375l-7.03125 0zm33.085938 -6.296875l1.015625 6.21875q-2.96875 0.625 -5.3125 0.625q-3.828125 0 -5.9375 -1.203125q-2.109375 -1.21875 -2.96875 -3.1875q-0.859375 -1.984375 -0.859375 -8.3125l0 -23.859375l-5.15625 0l0 -5.46875l5.15625 0l0 -10.28125l7.0 -4.21875l0 14.5l7.0625 0l0 5.46875l-7.0625 0l0 24.25q0 3.015625 0.359375 3.875q0.375 0.859375 1.21875 1.375q0.84375 0.5 2.40625 0.5q1.171875 0 3.078125 -0.28125zm8.8671875 6.296875l0 -8.015625l8.015625 0l0 8.015625l-8.015625 0z" fill-rule="nonzero"></path></g></svg>

