<?xml version="1.0" standalone="yes"?>

<svg version="1.1" viewBox="0.0 0.0 960.0 720.0" fill="none" stroke="none" stroke-linecap="square" stroke-miterlimit="10" xmlns="http://www.w3.org/2000/svg" xmlns:xlink="http://www.w3.org/1999/xlink"><clipPath id="p.0"><path d="m0 0l960.0 0l0 720.0l-960.0 0l0 -720.0z" clip-rule="nonzero"></path></clipPath><g clip-path="url(#p.0)"><path fill="#000000" fill-opacity="0.0" d="m0 0l960.0 0l0 720.0l-960.0 0z" fill-rule="nonzero"></path><path fill="#ffffff" d="m942.4724 701.76117l-154.15747 0l0 0l-231.2362 0l-539.55115 0l0 -337.37796l0 0l0 -144.59056l0 -96.3937l539.55115 0l369.29968 -107.30354l-138.06348 107.30354l154.15747 0l0 96.3937l0 144.59056l0 0z" fill-rule="nonzero"></path><path stroke="#000000" stroke-width="2.0" stroke-linejoin="round" stroke-linecap="butt" d="m942.4724 701.76117l-154.15747 0l0 0l-231.2362 0l-539.55115 0l0 -337.37796l0 0l0 -144.59056l0 -96.3937l539.55115 0l369.29968 -107.30354l-138.06348 107.30354l154.15747 0l0 96.3937l0 144.59056l0 0z" fill-rule="nonzero"></path><path fill="#000000" fill-opacity="0.0" d="m17.52756 376.5328l924.9448 0l0 72.09448l-924.9448 0z" fill-rule="nonzero"></path><path fill="#000000" d="m283.46875 413.83505q0 -22.8125 12.25 -35.71875q12.25 -12.90625 31.625 -12.90625q12.6875 0 22.875 6.0625q10.1875 6.0625 15.53125 16.90625q5.34375 10.84375 5.34375 24.59375q0 13.9375 -5.625 24.9375q-5.625 11.0 -15.9375 16.65625q-10.3125 5.65625 -22.25 5.65625q-12.9375 0 -23.125 -6.25q-10.1875 -6.25 -15.4375 -17.0625q-5.25 -10.8125 -5.25 -22.875zm12.5 0.1875q0 16.5625 8.90625 26.09375q8.90625 9.53125 22.34375 9.53125q13.6875 0 22.53125 -9.625q8.84375 -9.625 8.84375 -27.3125q0 -11.1875 -3.78125 -19.53125q-3.78125 -8.34375 -11.0625 -12.9375q-7.28125 -4.59375 -16.34375 -4.59375q-12.875 0 -22.15625 8.84375q-9.28125 8.84375 -9.28125 29.53125zm89.375 44.4375l0 -91.625l11.25 0l0 52.25l26.625 -27.0l14.5625 0l-25.375 24.625l27.9375 41.75l-13.875 0l-21.9375 -33.9375l-7.9375 7.625l0 26.3125l-11.25 0zm107.25 -8.1875q-6.25 5.3125 -12.03125 7.5q-5.78125 2.1875 -12.40625 2.1875q-10.9375 0 -16.8125 -5.34375q-5.875 -5.34375 -5.875 -13.65625q0 -4.875 2.21875 -8.90625q2.21875 -4.03125 5.8125 -6.46875q3.59375 -2.4375 8.09375 -3.6875q3.3125 -0.875 10.0 -1.6875q13.625 -1.625 20.0625 -3.875q0.0625 -2.3125 0.0625 -2.9375q0 -6.875 -3.1875 -9.6875q-4.3125 -3.8125 -12.8125 -3.8125q-7.9375 0 -11.71875 2.78125q-3.78125 2.78125 -5.59375 9.84375l-11.0 -1.5q1.5 -7.0625 4.9375 -11.40625q3.4375 -4.34375 9.9375 -6.6875q6.5 -2.34375 15.0625 -2.34375q8.5 0 13.8125 2.0q5.3125 2.0 7.8125 5.03125q2.5 3.03125 3.5 7.65625q0.5625 2.875 0.5625 10.375l0 15.0q0 15.6875 0.71875 19.84375q0.71875 4.15625 2.84375 7.96875l-11.75 0q-1.75 -3.5 -2.25 -8.1875zm-0.9375 -25.125q-6.125 2.5 -18.375 4.25q-6.9375 1.0 -9.8125 2.25q-2.875 1.25 -4.4375 3.65625q-1.5625 2.40625 -1.5625 5.34375q0 4.5 3.40625 7.5q3.40625 3.0 9.96875 3.0q6.5 0 11.5625 -2.84375q5.0625 -2.84375 7.4375 -7.78125q1.8125 -3.8125 1.8125 -11.25l0 -4.125zm28.3125 58.875l-1.25 -10.5625q3.6875 1.0 6.4375 1.0q3.75 0 6.0 -1.25q2.25 -1.25 3.6875 -3.5q1.0625 -1.6875 3.4375 -8.375q0.3125 -0.9375 1.0 -2.75l-25.1875 -66.5l12.125 0l13.8125 38.4375q2.6875 7.3125 4.8125 15.375q1.9375 -7.75 4.625 -15.125l14.1875 -38.6875l11.25 0l-25.25 67.5q-4.0625 10.9375 -6.3125 15.0625q-3.0 5.5625 -6.875 8.15625q-3.875 2.59375 -9.25 2.59375q-3.25 0 -7.25 -1.375zm67.6875 -25.5625l0 -12.8125l12.8125 0l0 12.8125l-12.8125 0zm35.5625 0l0 -12.8125l12.8125 0l0 12.8125l-12.8125 0zm35.5625 0l0 -12.8125l12.8125 0l0 12.8125l-12.8125 0z" fill-rule="nonzero"></path></g></svg>

