<?xml version="1.0" standalone="yes"?>

<svg version="1.1" viewBox="0.0 0.0 960.0 720.0" fill="none" stroke="none" stroke-linecap="square" stroke-miterlimit="10" xmlns="http://www.w3.org/2000/svg" xmlns:xlink="http://www.w3.org/1999/xlink"><clipPath id="p.0"><path d="m0 0l960.0 0l0 720.0l-960.0 0l0 -720.0z" clip-rule="nonzero"></path></clipPath><g clip-path="url(#p.0)"><path fill="#000000" fill-opacity="0.0" d="m0 0l960.0 0l0 720.0l-960.0 0z" fill-rule="nonzero"></path><path fill="#efefef" d="m-204.38321 86.30418l114.54228 0l0 109.7602c-57.268066 0 -57.268066 42.230164 -114.54228 21.115082zm9.43689 0l0 -14.229736l113.75997 0l0 110.44874c-4.324211 0 -8.654579 0.7650299 -8.654579 0.7650299l0 -96.98403zm8.870163 -14.229736l0 -13.885464l114.74555 0l0 110.10446c-4.9278717 0 -9.855743 0.57377625 -9.855743 0.57377625l0 -96.79278z" fill-rule="nonzero"></path><path fill="#000000" fill-opacity="0.0" d="m-204.38321 86.30418l114.54228 0l0 109.7602c-57.268066 0 -57.268066 42.230164 -114.54228 21.115082zm9.43689 0l0 -14.229736l113.75997 0l0 110.44874c-4.324211 0 -8.654579 0.7650299 -8.654579 0.7650299m-96.23523 -111.21377l0 -13.885464l114.74555 0l0 110.10446c-4.9278717 0 -9.855743 0.57377625 -9.855743 0.57377625" fill-rule="nonzero"></path><path fill="#000000" fill-opacity="0.0" d="m-204.38321 217.17946c57.274216 21.115082 57.274216 -21.115082 114.54228 -21.115082l0 -12.776169c0 0 4.330368 -0.7650299 8.654579 -0.7650299l0 -13.65596c0 0 4.9278717 -0.57377625 9.855743 -0.57377625l0 -110.10446l-114.74555 0l0 13.885464l-8.870163 0l0 14.229736l-9.43689 0z" fill-rule="nonzero"></path><path stroke="#000000" stroke-width="2.0" stroke-linejoin="round" stroke-linecap="butt" d="m-204.38321 86.30418l114.54228 0l0 109.7602c-57.268066 0 -57.268066 42.230164 -114.54228 21.115082zm9.43689 0l0 -14.229736l113.75997 0l0 110.44874c-4.324211 0 -8.654579 0.7650299 -8.654579 0.7650299m-96.23523 -111.21377l0 -13.885464l114.74555 0l0 110.10446c-4.9278717 0 -9.855743 0.57377625 -9.855743 0.57377625" fill-rule="nonzero"></path><path fill="#efefef" d="m423.66928 0l112.66141 0l0 131.64792l-18.777283 18.777283l-93.884125 0z" fill-rule="nonzero"></path><path fill="#bfbfbf" d="m517.5534 150.4252l3.7554932 -15.02182l15.02179 -3.7554626z" fill-rule="nonzero"></path><path fill="#000000" fill-opacity="0.0" d="m517.5534 150.4252l3.7554932 -15.02182l15.02179 -3.7554626l-18.777283 18.777283l-93.884125 0l0 -150.4252l112.66141 0l0 131.64792" fill-rule="nonzero"></path><path stroke="#000000" stroke-width="2.0" stroke-linejoin="round" stroke-linecap="butt" d="m517.5534 150.4252l3.7554932 -15.02182l15.02179 -3.7554626l-18.777283 18.777283l-93.884125 0l0 -150.4252l112.66141 0l0 131.64792" fill-rule="nonzero"></path><path fill="#000000" fill-opacity="0.0" d="m423.66928 39.165356l112.66141 0l0 72.09448l-112.66141 0z" fill-rule="nonzero"></path><path fill="#000000" d="m434.63086 76.23697l0 -1.96875l11.375 -4.796875l0 2.09375l-9.015625 3.703125l9.015625 3.734375l0 2.09375l-11.375 -4.859375zm14.625 7.515625l0 -17.1875l2.28125 0l0 7.0625l8.921875 0l0 -7.0625l2.28125 0l0 17.1875l-2.28125 0l0 -8.09375l-8.921875 0l0 8.09375l-2.28125 0zm21.628906 0l0 -15.15625l-5.65625 0l0 -2.03125l13.625 0l0 2.03125l-5.6875 0l0 15.15625l-2.28125 0zm10.222656 0l0 -17.1875l3.421875 0l4.0625 12.171875q0.5625 1.703125 0.828125 2.546875q0.296875 -0.9375 0.90625 -2.765625l4.125 -11.953125l3.046875 0l0 17.1875l-2.1875 0l0 -14.375l-4.984375 14.375l-2.0625 0l-4.96875 -14.625l0 14.625l-2.1875 0zm19.976562 0l0 -17.1875l2.265625 0l0 15.15625l8.46875 0l0 2.03125l-10.734375 0zm24.269531 -7.515625l-11.375 4.859375l0 -2.09375l9.015625 -3.734375l-9.015625 -3.703125l0 -2.09375l11.375 4.796875l0 1.96875z" fill-rule="nonzero"></path></g></svg>

