<?xml version="1.0" standalone="yes"?>

<svg version="1.1" viewBox="0.0 0.0 960.0 720.0" fill="none" stroke="none" stroke-linecap="square" stroke-miterlimit="10" xmlns="http://www.w3.org/2000/svg" xmlns:xlink="http://www.w3.org/1999/xlink"><clipPath id="p.0"><path d="m0 0l960.0 0l0 720.0l-960.0 0l0 -720.0z" clip-rule="nonzero"></path></clipPath><g clip-path="url(#p.0)"><path fill="#000000" fill-opacity="0.0" d="m0 0l960.0 0l0 720.0l-960.0 0z" fill-rule="nonzero"></path><path fill="#efefef" d="m826.9475 305.49054l114.5423 0l0 109.76019c-57.268066 0 -57.268066 42.230164 -114.5423 21.115082zm9.43689 0l0 -14.229736l113.75995 0l0 110.44873c-4.3242188 0 -8.654541 0.76504517 -8.654541 0.76504517l0 -96.98404zm8.870178 -14.229736l0 -13.885468l114.745544 0l0 110.10446c-4.9279175 0 -9.855774 0.5737915 -9.855774 0.5737915l0 -96.792786z" fill-rule="nonzero"></path><path fill="#000000" fill-opacity="0.0" d="m826.9475 305.49054l114.5423 0l0 109.76019c-57.268066 0 -57.268066 42.230164 -114.5423 21.115082zm9.43689 0l0 -14.229736l113.75995 0l0 110.44873c-4.3242188 0 -8.654541 0.76504517 -8.654541 0.76504517m-96.23523 -111.213776l0 -13.885468l114.745544 0l0 110.10446c-4.9279175 0 -9.855774 0.5737915 -9.855774 0.5737915" fill-rule="nonzero"></path><path fill="#000000" fill-opacity="0.0" d="m826.9475 436.3658c57.27423 21.115082 57.27423 -21.115082 114.5423 -21.115082l0 -12.776154c0 0 4.3303223 -0.76504517 8.654541 -0.76504517l0 -13.655945c0 0 4.9278564 -0.5737915 9.855774 -0.5737915l0 -110.10446l-114.745544 0l0 13.885468l-8.870178 0l0 14.229736l-9.43689 0z" fill-rule="nonzero"></path><path stroke="#000000" stroke-width="2.0" stroke-linejoin="round" stroke-linecap="butt" d="m826.9475 305.49054l114.5423 0l0 109.76019c-57.268066 0 -57.268066 42.230164 -114.5423 21.115082zm9.43689 0l0 -14.229736l113.75995 0l0 110.44873c-4.3242188 0 -8.654541 0.76504517 -8.654541 0.76504517m-96.23523 -111.213776l0 -13.885468l114.745544 0l0 110.10446c-4.9279175 0 -9.855774 0.5737915 -9.855774 0.5737915" fill-rule="nonzero"></path><path fill="#efefef" d="m423.66928 0l112.66141 0l0 131.64792l-18.777283 18.777283l-93.884125 0z" fill-rule="nonzero"></path><path fill="#bfbfbf" d="m517.5534 150.4252l3.7554932 -15.02182l15.02179 -3.7554626z" fill-rule="nonzero"></path><path fill="#000000" fill-opacity="0.0" d="m517.5534 150.4252l3.7554932 -15.02182l15.02179 -3.7554626l-18.777283 18.777283l-93.884125 0l0 -150.4252l112.66141 0l0 131.64792" fill-rule="nonzero"></path><path stroke="#000000" stroke-width="2.0" stroke-linejoin="round" stroke-linecap="butt" d="m517.5534 150.4252l3.7554932 -15.02182l15.02179 -3.7554626l-18.777283 18.777283l-93.884125 0l0 -150.4252l112.66141 0l0 131.64792" fill-rule="nonzero"></path><path fill="#000000" fill-opacity="0.0" d="m423.66928 39.165356l112.66141 0l0 72.09448l-112.66141 0z" fill-rule="nonzero"></path><path fill="#000000" d="m434.63086 76.23697l0 -1.96875l11.375 -4.796875l0 2.09375l-9.015625 3.703125l9.015625 3.734375l0 2.09375l-11.375 -4.859375zm14.625 7.515625l0 -17.1875l2.28125 0l0 7.0625l8.921875 0l0 -7.0625l2.28125 0l0 17.1875l-2.28125 0l0 -8.09375l-8.921875 0l0 8.09375l-2.28125 0zm21.628906 0l0 -15.15625l-5.65625 0l0 -2.03125l13.625 0l0 2.03125l-5.6875 0l0 15.15625l-2.28125 0zm10.222656 0l0 -17.1875l3.421875 0l4.0625 12.171875q0.5625 1.703125 0.828125 2.546875q0.296875 -0.9375 0.90625 -2.765625l4.125 -11.953125l3.046875 0l0 17.1875l-2.1875 0l0 -14.375l-4.984375 14.375l-2.0625 0l-4.96875 -14.625l0 14.625l-2.1875 0zm19.976562 0l0 -17.1875l2.265625 0l0 15.15625l8.46875 0l0 2.03125l-10.734375 0zm24.269531 -7.515625l-11.375 4.859375l0 -2.09375l9.015625 -3.734375l-9.015625 -3.703125l0 -2.09375l11.375 4.796875l0 1.96875z" fill-rule="nonzero"></path><path fill="#cccccc" d="m568.67194 51.170605l271.7716 0c44.595947 0 80.74805 36.152126 80.74805 80.74803l0 57.677155l23.070862 0l-46.141724 46.14174l-46.141724 -46.14174l23.070862 0l0 -57.677155l0 0c0 -19.112534 -15.493774 -34.606308 -34.606323 -34.606308l-271.7716 0z" fill-rule="nonzero"></path><path stroke="#000000" stroke-width="2.0" stroke-linejoin="round" stroke-linecap="butt" d="m568.67194 51.170605l271.7716 0c44.595947 0 80.74805 36.152126 80.74805 80.74803l0 57.677155l23.070862 0l-46.141724 46.14174l-46.141724 -46.14174l23.070862 0l0 -57.677155l0 0c0 -19.112534 -15.493774 -34.606308 -34.606323 -34.606308l-271.7716 0z" fill-rule="nonzero"></path><path fill="#000000" fill-opacity="0.0" d="m826.9475 331.9895l112.66144 0l0 72.09448l-112.66144 0z" fill-rule="nonzero"></path><path fill="#000000" d="m850.8183 345.63675l7.46875 -10.078125l-6.59375 -9.25l3.046875 0l3.5 4.953125q1.109375 1.546875 1.5625 2.375q0.640625 -1.046875 1.53125 -2.203125l3.890625 -5.125l2.78125 0l-6.796875 9.109375l7.328125 10.21875l-3.171875 0l-4.859375 -6.890625q-0.40625 -0.59375 -0.84375 -1.296875q-0.65625 1.0625 -0.921875 1.453125l-4.859375 6.734375l-3.0625 0zm19.65448 0l0 -19.328125l3.859375 0l4.5625 13.6875q0.640625 1.90625 0.921875 2.859375q0.34375 -1.0625 1.03125 -3.09375l4.625 -13.453125l3.453125 0l0 19.328125l-2.46875 0l0 -16.171875l-5.625 16.171875l-2.296875 0l-5.59375 -16.453125l0 16.453125l-2.46875 0zm22.18927 0l0 -19.328125l7.25 0q2.203125 0 3.546875 0.59375q1.34375 0.578125 2.09375 1.796875q0.765625 1.21875 0.765625 2.546875q0 1.25 -0.671875 2.34375q-0.671875 1.09375 -2.03125 1.765625q1.75 0.515625 2.6875 1.75q0.953125 1.234375 0.953125 2.921875q0 1.359375 -0.578125 2.53125q-0.578125 1.171875 -1.421875 1.8125q-0.84375 0.625 -2.125 0.953125q-1.265625 0.3125 -3.109375 0.3125l-7.359375 0zm2.546875 -11.203125l4.1875 0q1.703125 0 2.4375 -0.234375q0.96875 -0.28125 1.46875 -0.953125q0.5 -0.671875 0.5 -1.6875q0 -0.96875 -0.46875 -1.6875q-0.46875 -0.734375 -1.328125 -1.0q-0.84375 -0.28125 -2.9375 -0.28125l-3.859375 0l0 5.84375zm0 8.921875l4.8125 0q1.25 0 1.75 -0.09375q0.875 -0.15625 1.46875 -0.515625q0.59375 -0.375 0.96875 -1.078125q0.390625 -0.71875 0.390625 -1.640625q0 -1.078125 -0.5625 -1.875q-0.546875 -0.796875 -1.53125 -1.109375q-0.984375 -0.328125 -2.828125 -0.328125l-4.46875 0l0 6.640625zm13.24823 2.609375l5.609375 -19.984375l1.890625 0l-5.59375 19.984375l-1.90625 0z" fill-rule="nonzero"></path><path fill="#000000" d="m843.41235 377.63675l7.46875 -10.078125l-6.59375 -9.25l3.046875 0l3.5 4.953125q1.109375 1.546875 1.5625 2.375q0.640625 -1.046875 1.53125 -2.203125l3.890625 -5.125l2.78125 0l-6.796875 9.109375l7.328125 10.21875l-3.171875 0l-4.859375 -6.890625q-0.40625 -0.59375 -0.84375 -1.296875q-0.65625 1.0625 -0.921875 1.453125l-4.859375 6.734375l-3.0625 0zm19.638855 0l0 -19.328125l2.546875 0l0 17.046875l9.515625 0l0 2.28125l-12.0625 0zm15.356201 0l0 -19.328125l2.5625 0l0 19.328125l-2.5625 0zm7.10907 0l0 -19.328125l13.03125 0l0 2.28125l-10.484375 0l0 5.984375l9.078125 0l0 2.28125l-9.078125 0l0 8.78125l-2.546875 0zm16.282715 0l0 -19.328125l13.03125 0l0 2.28125l-10.484375 0l0 5.984375l9.078125 0l0 2.28125l-9.078125 0l0 8.78125l-2.546875 0zm14.063965 0.328125l5.609375 -19.984375l1.890625 0l-5.59375 19.984375l-1.90625 0z" fill-rule="nonzero"></path><path fill="#000000" d="m866.09955 409.63675l0 -19.328125l7.296875 0q1.921875 0 2.9375 0.1875q1.421875 0.234375 2.375 0.90625q0.96875 0.65625 1.546875 1.859375q0.59375 1.203125 0.59375 2.640625q0 2.46875 -1.5625 4.171875q-1.5625 1.703125 -5.671875 1.703125l-4.953125 0l0 7.859375l-2.5625 0zm2.5625 -10.140625l5.0 0q2.46875 0 3.515625 -0.921875q1.046875 -0.921875 1.046875 -2.59375q0 -1.21875 -0.625 -2.078125q-0.609375 -0.859375 -1.609375 -1.140625q-0.640625 -0.171875 -2.390625 -0.171875l-4.9375 0l0 6.90625zm14.451355 0.734375q0 -4.8125 2.578125 -7.53125q2.578125 -2.734375 6.671875 -2.734375q2.671875 0 4.8125 1.28125q2.15625 1.28125 3.28125 3.578125q1.125 2.28125 1.125 5.171875q0 2.9375 -1.1875 5.265625q-1.171875 2.3125 -3.359375 3.515625q-2.171875 1.1875 -4.6875 1.1875q-2.734375 0 -4.890625 -1.3125q-2.140625 -1.328125 -3.25 -3.609375q-1.09375 -2.28125 -1.09375 -4.8125zm2.625 0.03125q0 3.5 1.875 5.515625q1.890625 2.0 4.71875 2.0q2.890625 0 4.75 -2.03125q1.875 -2.03125 1.875 -5.765625q0 -2.359375 -0.796875 -4.109375q-0.796875 -1.765625 -2.34375 -2.734375q-1.53125 -0.96875 -3.4375 -0.96875q-2.71875 0 -4.6875 1.875q-1.953125 1.859375 -1.953125 6.21875z" fill-rule="nonzero"></path><path fill="#000000" fill-opacity="0.0" d="m583.69293 94.53018l267.1811 0l0 72.09448l-267.1811 0z" fill-rule="nonzero"></path><path fill="#000000" d="m624.198 135.6618l2.453125 0.3125q-0.578125 2.140625 -2.15625 3.328125q-1.5625 1.1875 -4.0 1.1875q-3.0625 0 -4.875 -1.890625q-1.796875 -1.890625 -1.796875 -5.296875q0 -3.546875 1.8125 -5.484375q1.828125 -1.953125 4.734375 -1.953125q2.8125 0 4.578125 1.90625q1.78125 1.90625 1.78125 5.375q0 0.21875 -0.015625 0.640625l-10.4375 0q0.140625 2.296875 1.3125 3.53125q1.171875 1.21875 2.921875 1.21875q1.3125 0 2.234375 -0.671875q0.921875 -0.6875 1.453125 -2.203125zm-7.78125 -3.828125l7.8125 0q-0.15625 -1.765625 -0.890625 -2.65625q-1.140625 -1.359375 -2.953125 -1.359375q-1.625 0 -2.75 1.09375q-1.109375 1.09375 -1.21875 2.921875zm11.44989 8.34375l5.109375 -7.28125l-4.734375 -6.71875l2.96875 0l2.15625 3.28125q0.59375 0.9375 0.96875 1.5625q0.578125 -0.859375 1.0625 -1.53125l2.359375 -3.3125l2.84375 0l-4.84375 6.59375l5.203125 7.40625l-2.90625 0l-2.875 -4.34375l-0.765625 -1.1875l-3.671875 5.53125l-2.875 0zm20.09375 -2.125l0.328125 2.09375q-1.0 0.21875 -1.78125 0.21875q-1.296875 0 -2.015625 -0.40625q-0.703125 -0.421875 -1.0 -1.078125q-0.28125 -0.671875 -0.28125 -2.796875l0 -8.0625l-1.75 0l0 -1.84375l1.75 0l0 -3.46875l2.359375 -1.421875l0 4.890625l2.390625 0l0 1.84375l-2.390625 0l0 8.1875q0 1.015625 0.125 1.3125q0.125 0.28125 0.40625 0.453125q0.28125 0.171875 0.8125 0.171875q0.390625 0 1.046875 -0.09375zm2.1872559 2.125l0 -14.0l2.140625 0l0 2.125q0.8125 -1.5 1.5 -1.96875q0.703125 -0.46875 1.53125 -0.46875q1.203125 0 2.4375 0.765625l-0.8125 2.203125q-0.875 -0.515625 -1.75 -0.515625q-0.765625 0 -1.390625 0.46875q-0.625 0.46875 -0.890625 1.296875q-0.390625 1.265625 -0.390625 2.765625l0 7.328125l-2.375 0zm18.048584 -1.734375q-1.328125 1.125 -2.546875 1.59375q-1.21875 0.453125 -2.609375 0.453125q-2.3125 0 -3.5625 -1.125q-1.234375 -1.125 -1.234375 -2.875q0 -1.03125 0.46875 -1.875q0.46875 -0.859375 1.21875 -1.375q0.765625 -0.515625 1.71875 -0.78125q0.703125 -0.171875 2.109375 -0.34375q2.875 -0.34375 4.234375 -0.828125q0.015625 -0.484375 0.015625 -0.609375q0 -1.453125 -0.671875 -2.046875q-0.90625 -0.8125 -2.703125 -0.8125q-1.671875 0 -2.46875 0.59375q-0.796875 0.578125 -1.1875 2.078125l-2.3125 -0.3125q0.3125 -1.5 1.03125 -2.40625q0.734375 -0.921875 2.09375 -1.40625q1.375 -0.5 3.1875 -0.5q1.796875 0 2.90625 0.421875q1.125 0.421875 1.640625 1.0625q0.53125 0.640625 0.75 1.609375q0.125 0.609375 0.125 2.1875l0 3.171875q0 3.296875 0.140625 4.1875q0.15625 0.875 0.609375 1.671875l-2.484375 0q-0.375 -0.734375 -0.46875 -1.734375zm-0.203125 -5.296875q-1.296875 0.53125 -3.875 0.90625q-1.46875 0.203125 -2.078125 0.46875q-0.59375 0.265625 -0.9375 0.78125q-0.328125 0.5 -0.328125 1.125q0 0.9375 0.71875 1.578125q0.71875 0.625 2.109375 0.625q1.375 0 2.4375 -0.59375q1.0625 -0.609375 1.578125 -1.640625q0.375 -0.8125 0.375 -2.375l0 -0.875zm15.028076 1.90625l2.328125 0.296875q-0.375 2.421875 -1.953125 3.78125q-1.578125 1.359375 -3.875 1.359375q-2.875 0 -4.625 -1.875q-1.734375 -1.875 -1.734375 -5.390625q0 -2.265625 0.75 -3.953125q0.75 -1.703125 2.28125 -2.546875q1.53125 -0.859375 3.34375 -0.859375q2.28125 0 3.71875 1.15625q1.453125 1.140625 1.875 3.265625l-2.3125 0.359375q-0.328125 -1.40625 -1.171875 -2.109375q-0.828125 -0.71875 -2.015625 -0.71875q-1.796875 0 -2.921875 1.28125q-1.109375 1.28125 -1.109375 4.0625q0 2.828125 1.078125 4.109375q1.078125 1.265625 2.8125 1.265625q1.40625 0 2.34375 -0.84375q0.9375 -0.859375 1.1875 -2.640625zm9.375 3.0l0.328125 2.09375q-1.0 0.21875 -1.78125 0.21875q-1.296875 0 -2.015625 -0.40625q-0.703125 -0.421875 -1.0 -1.078125q-0.28125 -0.671875 -0.28125 -2.796875l0 -8.0625l-1.75 0l0 -1.84375l1.75 0l0 -3.46875l2.359375 -1.421875l0 4.890625l2.390625 0l0 1.84375l-2.390625 0l0 8.1875q0 1.015625 0.125 1.3125q0.125 0.28125 0.40625 0.453125q0.28125 0.171875 0.8125 0.171875q0.390625 0 1.046875 -0.09375zm9.62439 2.125l0 -14.0l2.125 0l0 1.96875q0.65625 -1.03125 1.75 -1.65625q1.09375 -0.625 2.484375 -0.625q1.5625 0 2.546875 0.640625q1.0 0.640625 1.421875 1.8125q1.65625 -2.453125 4.3125 -2.453125q2.09375 0 3.203125 1.15625q1.125 1.140625 1.125 3.546875l0 9.609375l-2.359375 0l0 -8.8125q0 -1.4375 -0.234375 -2.0625q-0.21875 -0.625 -0.828125 -1.0q-0.609375 -0.390625 -1.421875 -0.390625q-1.484375 0 -2.46875 0.984375q-0.96875 0.984375 -0.96875 3.140625l0 8.140625l-2.375 0l0 -9.09375q0 -1.578125 -0.578125 -2.375q-0.578125 -0.796875 -1.890625 -0.796875q-1.0 0 -1.859375 0.53125q-0.84375 0.53125 -1.234375 1.546875q-0.375 1.015625 -0.375 2.921875l0 7.265625l-2.375 0zm31.78302 -4.515625l2.453125 0.3125q-0.578125 2.140625 -2.15625 3.328125q-1.5625 1.1875 -4.0 1.1875q-3.0625 0 -4.875 -1.890625q-1.796875 -1.890625 -1.796875 -5.296875q0 -3.546875 1.8125 -5.484375q1.828125 -1.953125 4.734375 -1.953125q2.8125 0 4.578125 1.90625q1.78125 1.90625 1.78125 5.375q0 0.21875 -0.015625 0.640625l-10.4375 0q0.140625 2.296875 1.3125 3.53125q1.171875 1.21875 2.921875 1.21875q1.3125 0 2.234375 -0.671875q0.921875 -0.6875 1.453125 -2.203125zm-7.78125 -3.828125l7.8125 0q-0.15625 -1.765625 -0.890625 -2.65625q-1.140625 -1.359375 -2.953125 -1.359375q-1.625 0 -2.75 1.09375q-1.109375 1.09375 -1.21875 2.921875zm12.074951 4.171875l2.34375 -0.375q0.203125 1.40625 1.109375 2.15625q0.90625 0.75 2.515625 0.75q1.640625 0 2.421875 -0.65625q0.796875 -0.671875 0.796875 -1.5625q0 -0.8125 -0.6875 -1.265625q-0.5 -0.3125 -2.4375 -0.8125q-2.609375 -0.65625 -3.625 -1.125q-1.0 -0.484375 -1.53125 -1.328125q-0.515625 -0.859375 -0.515625 -1.890625q0 -0.9375 0.421875 -1.734375q0.4375 -0.796875 1.1875 -1.328125q0.546875 -0.40625 1.5 -0.6875q0.953125 -0.28125 2.046875 -0.28125q1.65625 0 2.890625 0.46875q1.25 0.46875 1.84375 1.28125q0.59375 0.8125 0.828125 2.171875l-2.328125 0.3125q-0.15625 -1.078125 -0.921875 -1.671875q-0.75 -0.609375 -2.140625 -0.609375q-1.625 0 -2.328125 0.546875q-0.703125 0.53125 -0.703125 1.25q0 0.46875 0.296875 0.828125q0.28125 0.390625 0.90625 0.640625q0.359375 0.125 2.09375 0.609375q2.515625 0.671875 3.515625 1.09375q1.0 0.421875 1.5625 1.25q0.5625 0.8125 0.5625 2.03125q0 1.1875 -0.6875 2.234375q-0.6875 1.046875 -2.0 1.625q-1.296875 0.5625 -2.953125 0.5625q-2.71875 0 -4.15625 -1.125q-1.4375 -1.140625 -1.828125 -3.359375zm13.328125 0l2.34375 -0.375q0.203125 1.40625 1.109375 2.15625q0.90625 0.75 2.515625 0.75q1.640625 0 2.421875 -0.65625q0.796875 -0.671875 0.796875 -1.5625q0 -0.8125 -0.6875 -1.265625q-0.5 -0.3125 -2.4375 -0.8125q-2.609375 -0.65625 -3.625 -1.125q-1.0 -0.484375 -1.53125 -1.328125q-0.515625 -0.859375 -0.515625 -1.890625q0 -0.9375 0.421875 -1.734375q0.4375 -0.796875 1.1875 -1.328125q0.546875 -0.40625 1.5 -0.6875q0.953125 -0.28125 2.046875 -0.28125q1.65625 0 2.890625 0.46875q1.25 0.46875 1.84375 1.28125q0.59375 0.8125 0.828125 2.171875l-2.328125 0.3125q-0.15625 -1.078125 -0.921875 -1.671875q-0.75 -0.609375 -2.140625 -0.609375q-1.625 0 -2.328125 0.546875q-0.703125 0.53125 -0.703125 1.25q0 0.46875 0.296875 0.828125q0.28125 0.390625 0.90625 0.640625q0.359375 0.125 2.09375 0.609375q2.515625 0.671875 3.515625 1.09375q1.0 0.421875 1.5625 1.25q0.5625 0.8125 0.5625 2.03125q0 1.1875 -0.6875 2.234375q-0.6875 1.046875 -2.0 1.625q-1.296875 0.5625 -2.953125 0.5625q-2.71875 0 -4.15625 -1.125q-1.4375 -1.140625 -1.828125 -3.359375zm23.421875 2.4375q-1.328125 1.125 -2.546875 1.59375q-1.21875 0.453125 -2.609375 0.453125q-2.3125 0 -3.5625 -1.125q-1.234375 -1.125 -1.234375 -2.875q0 -1.03125 0.46875 -1.875q0.46875 -0.859375 1.21875 -1.375q0.765625 -0.515625 1.71875 -0.78125q0.703125 -0.171875 2.109375 -0.34375q2.875 -0.34375 4.234375 -0.828125q0.015625 -0.484375 0.015625 -0.609375q0 -1.453125 -0.671875 -2.046875q-0.90625 -0.8125 -2.703125 -0.8125q-1.671875 0 -2.46875 0.59375q-0.796875 0.578125 -1.1875 2.078125l-2.3125 -0.3125q0.3125 -1.5 1.03125 -2.40625q0.734375 -0.921875 2.09375 -1.40625q1.375 -0.5 3.1875 -0.5q1.796875 0 2.90625 0.421875q1.125 0.421875 1.640625 1.0625q0.53125 0.640625 0.75 1.609375q0.125 0.609375 0.125 2.1875l0 3.171875q0 3.296875 0.140625 4.1875q0.15625 0.875 0.609375 1.671875l-2.484375 0q-0.375 -0.734375 -0.46875 -1.734375zm-0.203125 -5.296875q-1.296875 0.53125 -3.875 0.90625q-1.46875 0.203125 -2.078125 0.46875q-0.59375 0.265625 -0.9375 0.78125q-0.328125 0.5 -0.328125 1.125q0 0.9375 0.71875 1.578125q0.71875 0.625 2.109375 0.625q1.375 0 2.4375 -0.59375q1.0625 -0.609375 1.578125 -1.640625q0.375 -0.8125 0.375 -2.375l0 -0.875zm5.44989 8.1875l2.3125 0.34375q0.140625 1.078125 0.796875 1.5625q0.890625 0.65625 2.421875 0.65625q1.640625 0 2.53125 -0.65625q0.90625 -0.65625 1.21875 -1.84375q0.1875 -0.734375 0.171875 -3.046875q-1.5625 1.828125 -3.875 1.828125q-2.890625 0 -4.46875 -2.078125q-1.578125 -2.09375 -1.578125 -5.0q0 -2.0 0.71875 -3.6875q0.734375 -1.703125 2.109375 -2.625q1.375 -0.921875 3.234375 -0.921875q2.46875 0 4.078125 2.0l0 -1.6875l2.1875 0l0 12.09375q0 3.28125 -0.671875 4.640625q-0.65625 1.359375 -2.109375 2.15625q-1.4375 0.796875 -3.546875 0.796875q-2.5 0 -4.046875 -1.140625q-1.53125 -1.125 -1.484375 -3.390625zm1.96875 -8.40625q0 2.75 1.09375 4.015625q1.09375 1.265625 2.734375 1.265625q1.640625 0 2.75 -1.25q1.109375 -1.265625 1.109375 -3.953125q0 -2.578125 -1.140625 -3.875q-1.140625 -1.3125 -2.75 -1.3125q-1.578125 0 -2.6875 1.296875q-1.109375 1.28125 -1.109375 3.8125zm22.871826 2.734375l2.453125 0.3125q-0.578125 2.140625 -2.15625 3.328125q-1.5625 1.1875 -4.0 1.1875q-3.0625 0 -4.875 -1.890625q-1.796875 -1.890625 -1.796875 -5.296875q0 -3.546875 1.8125 -5.484375q1.828125 -1.953125 4.734375 -1.953125q2.8125 0 4.578125 1.90625q1.78125 1.90625 1.78125 5.375q0 0.21875 -0.015625 0.640625l-10.4375 0q0.140625 2.296875 1.3125 3.53125q1.171875 1.21875 2.921875 1.21875q1.3125 0 2.234375 -0.671875q0.921875 -0.6875 1.453125 -2.203125zm-7.78125 -3.828125l7.8125 0q-0.15625 -1.765625 -0.890625 -2.65625q-1.140625 -1.359375 -2.953125 -1.359375q-1.625 0 -2.75 1.09375q-1.109375 1.09375 -1.21875 2.921875zm12.074951 4.171875l2.34375 -0.375q0.203125 1.40625 1.109375 2.15625q0.90625 0.75 2.515625 0.75q1.640625 0 2.421875 -0.65625q0.796875 -0.671875 0.796875 -1.5625q0 -0.8125 -0.6875 -1.265625q-0.5 -0.3125 -2.4375 -0.8125q-2.609375 -0.65625 -3.625 -1.125q-1.0 -0.484375 -1.53125 -1.328125q-0.515625 -0.859375 -0.515625 -1.890625q0 -0.9375 0.421875 -1.734375q0.4375 -0.796875 1.1875 -1.328125q0.546875 -0.40625 1.5 -0.6875q0.953125 -0.28125 2.046875 -0.28125q1.65625 0 2.890625 0.46875q1.25 0.46875 1.84375 1.28125q0.59375 0.8125 0.828125 2.171875l-2.328125 0.3125q-0.15625 -1.078125 -0.921875 -1.671875q-0.75 -0.609375 -2.140625 -0.609375q-1.625 0 -2.328125 0.546875q-0.703125 0.53125 -0.703125 1.25q0 0.46875 0.296875 0.828125q0.28125 0.390625 0.90625 0.640625q0.359375 0.125 2.09375 0.609375q2.515625 0.671875 3.515625 1.09375q1.0 0.421875 1.5625 1.25q0.5625 0.8125 0.5625 2.03125q0 1.1875 -0.6875 2.234375q-0.6875 1.046875 -2.0 1.625q-1.296875 0.5625 -2.953125 0.5625q-2.71875 0 -4.15625 -1.125q-1.4375 -1.140625 -1.828125 -3.359375z" fill-rule="nonzero"></path><path fill="#fff2cc" d="m413.48032 654.0079l0 0c0 -33.29364 29.78189 -60.283447 66.519684 -60.283447c36.737793 0 66.519714 26.989807 66.519714 60.283447c0 33.29364 -29.781921 60.283447 -66.519714 60.283447c-36.737793 0 -66.519684 -26.989807 -66.519684 -60.283447z" fill-rule="nonzero"></path><path fill="#cbc1a3" d="m451.75992 635.97864c0 -3.4680786 3.102295 -6.279541 6.929138 -6.279541c3.8268738 0 6.929138 2.8114624 6.929138 6.279541c0 3.4680786 -3.1022644 6.279541 -6.929138 6.279541c-3.8268433 0 -6.929138 -2.8114624 -6.929138 -6.279541m42.621887 0c0 -3.4680786 3.1022644 -6.279541 6.929138 -6.279541c3.8268433 0 6.929138 2.8114624 6.929138 6.279541c0 3.4680786 -3.102295 6.279541 -6.929138 6.279541c-3.8268738 0 -6.929138 -2.8114624 -6.929138 -6.279541" fill-rule="nonzero"></path><path fill="#000000" fill-opacity="0.0" d="m443.9459 680.2979q36.054108 22.43988 72.02402 0" fill-rule="nonzero"></path><path fill="#000000" fill-opacity="0.0" d="m413.48032 654.0079l0 0c0 -33.29364 29.78189 -60.283447 66.519684 -60.283447c36.737793 0 66.519714 26.989807 66.519714 60.283447c0 33.29364 -29.781921 60.283447 -66.519714 60.283447c-36.737793 0 -66.519684 -26.989807 -66.519684 -60.283447z" fill-rule="nonzero"></path><path stroke="#000000" stroke-width="2.0" stroke-linejoin="round" stroke-linecap="butt" d="m451.75992 635.97864c0 -3.4680786 3.102295 -6.279541 6.929138 -6.279541c3.8268738 0 6.929138 2.8114624 6.929138 6.279541c0 3.4680786 -3.1022644 6.279541 -6.929138 6.279541c-3.8268433 0 -6.929138 -2.8114624 -6.929138 -6.279541m42.621887 0c0 -3.4680786 3.1022644 -6.279541 6.929138 -6.279541c3.8268433 0 6.929138 2.8114624 6.929138 6.279541c0 3.4680786 -3.102295 6.279541 -6.929138 6.279541c-3.8268738 0 -6.929138 -2.8114624 -6.929138 -6.279541" fill-rule="nonzero"></path><path stroke="#000000" stroke-width="2.0" stroke-linejoin="round" stroke-linecap="butt" d="m443.9459 680.2979q36.054108 22.43988 72.02402 0" fill-rule="nonzero"></path><path stroke="#000000" stroke-width="2.0" stroke-linejoin="round" stroke-linecap="butt" d="m413.48032 654.0079l0 0c0 -33.29364 29.78189 -60.283447 66.519684 -60.283447c36.737793 0 66.519714 26.989807 66.519714 60.283447c0 33.29364 -29.781921 60.283447 -66.519714 60.283447c-36.737793 0 -66.519684 -26.989807 -66.519684 -60.283447z" fill-rule="nonzero"></path><path fill="#cccccc" d="m917.51184 500.33597l0 90.66928l0 0c0 50.075256 -40.594055 90.66931 -90.66931 90.66931l-206.37012 0l0 25.905518l-51.810974 -51.811035l51.810974 -51.811035l0 25.905518l206.37012 0l0 0c21.460815 0 38.858276 -17.39746 38.858276 -38.858276l0 -90.66928z" fill-rule="nonzero"></path><path stroke="#000000" stroke-width="2.0" stroke-linejoin="round" stroke-linecap="butt" d="m917.51184 500.33597l0 90.66928l0 0c0 50.075256 -40.594055 90.66931 -90.66931 90.66931l-206.37012 0l0 25.905518l-51.810974 -51.811035l51.810974 -51.811035l0 25.905518l206.37012 0l0 0c21.460815 0 38.858276 -17.39746 38.858276 -38.858276l0 -90.66928z" fill-rule="nonzero"></path><path fill="#000000" fill-opacity="0.0" d="m346.40945 521.62994l267.18112 0l0 72.09448l-267.18112 0z" fill-rule="nonzero"></path><path fill="#000000" d="m371.40195 565.15216l0.328125 2.09375q-1.0 0.21875 -1.78125 0.21875q-1.296875 0 -2.015625 -0.40625q-0.703125 -0.421875 -1.0 -1.078125q-0.28125 -0.671875 -0.28125 -2.796875l0 -8.0625l-1.75 0l0 -1.84375l1.75 0l0 -3.46875l2.359375 -1.421875l0 4.890625l2.390625 0l0 1.84375l-2.390625 0l0 8.1875q0 1.015625 0.125 1.3125q0.125 0.28125 0.40625 0.453125q0.28125 0.171875 0.8125 0.171875q0.390625 0 1.046875 -0.09375zm2.1871948 2.125l0 -14.0l2.140625 0l0 2.125q0.8125 -1.5 1.5 -1.96875q0.703125 -0.46875 1.53125 -0.46875q1.203125 0 2.4375 0.765625l-0.8125 2.203125q-0.875 -0.515625 -1.75 -0.515625q-0.765625 0 -1.390625 0.46875q-0.625 0.46875 -0.890625 1.296875q-0.390625 1.265625 -0.390625 2.765625l0 7.328125l-2.375 0zm18.048615 -1.734375q-1.328125 1.125 -2.546875 1.59375q-1.21875 0.453125 -2.609375 0.453125q-2.3125 0 -3.5625 -1.125q-1.234375 -1.125 -1.234375 -2.875q0 -1.03125 0.46875 -1.875q0.46875 -0.859375 1.21875 -1.375q0.765625 -0.515625 1.71875 -0.78125q0.703125 -0.171875 2.109375 -0.34375q2.875 -0.34375 4.234375 -0.828125q0.015625 -0.484375 0.015625 -0.609375q0 -1.453125 -0.671875 -2.046875q-0.90625 -0.8125 -2.703125 -0.8125q-1.671875 0 -2.46875 0.59375q-0.796875 0.578125 -1.1875 2.078125l-2.3125 -0.3125q0.3125 -1.5 1.03125 -2.40625q0.734375 -0.921875 2.09375 -1.40625q1.375 -0.5 3.1875 -0.5q1.796875 0 2.90625 0.421875q1.125 0.421875 1.640625 1.0625q0.53125 0.640625 0.75 1.609375q0.125 0.609375 0.125 2.1875l0 3.171875q0 3.296875 0.140625 4.1875q0.15625 0.875 0.609375 1.671875l-2.484375 0q-0.375 -0.734375 -0.46875 -1.734375zm-0.203125 -5.296875q-1.296875 0.53125 -3.875 0.90625q-1.46875 0.203125 -2.078125 0.46875q-0.59375 0.265625 -0.9375 0.78125q-0.328125 0.5 -0.328125 1.125q0 0.9375 0.71875 1.578125q0.71875 0.625 2.109375 0.625q1.375 0 2.4375 -0.59375q1.0625 -0.609375 1.578125 -1.640625q0.375 -0.8125 0.375 -2.375l0 -0.875zm5.887451 7.03125l0 -14.0l2.140625 0l0 1.984375q1.53125 -2.296875 4.453125 -2.296875q1.265625 0 2.328125 0.453125q1.0625 0.453125 1.578125 1.1875q0.53125 0.734375 0.75 1.75q0.125 0.671875 0.125 2.3125l0 8.609375l-2.375 0l0 -8.515625q0 -1.453125 -0.28125 -2.171875q-0.265625 -0.71875 -0.984375 -1.140625q-0.703125 -0.4375 -1.640625 -0.4375q-1.515625 0 -2.625 0.96875q-1.09375 0.953125 -1.09375 3.65625l0 7.640625l-2.375 0zm13.871796 -4.171875l2.34375 -0.375q0.203125 1.40625 1.109375 2.15625q0.90625 0.75 2.515625 0.75q1.640625 0 2.421875 -0.65625q0.796875 -0.671875 0.796875 -1.5625q0 -0.8125 -0.6875 -1.265625q-0.5 -0.3125 -2.4375 -0.8125q-2.609375 -0.65625 -3.625 -1.125q-1.0 -0.484375 -1.53125 -1.328125q-0.515625 -0.859375 -0.515625 -1.890625q0 -0.9375 0.421875 -1.734375q0.4375 -0.796875 1.1875 -1.328125q0.546875 -0.40625 1.5 -0.6875q0.953125 -0.28125 2.046875 -0.28125q1.65625 0 2.890625 0.46875q1.25 0.46875 1.84375 1.28125q0.59375 0.8125 0.828125 2.171875l-2.328125 0.3125q-0.15625 -1.078125 -0.921875 -1.671875q-0.75 -0.609375 -2.140625 -0.609375q-1.625 0 -2.328125 0.546875q-0.703125 0.53125 -0.703125 1.25q0 0.46875 0.296875 0.828125q0.28125 0.390625 0.90625 0.640625q0.359375 0.125 2.09375 0.609375q2.515625 0.671875 3.515625 1.09375q1.0 0.421875 1.5625 1.25q0.5625 0.8125 0.5625 2.03125q0 1.1875 -0.6875 2.234375q-0.6875 1.046875 -2.0 1.625q-1.296875 0.5625 -2.953125 0.5625q-2.71875 0 -4.15625 -1.125q-1.4375 -1.140625 -1.828125 -3.359375zm14.234375 4.171875l0 -19.328125l2.359375 0l0 19.328125l-2.359375 0zm15.10968 -1.734375q-1.328125 1.125 -2.546875 1.59375q-1.21875 0.453125 -2.609375 0.453125q-2.3125 0 -3.5625 -1.125q-1.234375 -1.125 -1.234375 -2.875q0 -1.03125 0.46875 -1.875q0.46875 -0.859375 1.21875 -1.375q0.765625 -0.515625 1.71875 -0.78125q0.703125 -0.171875 2.109375 -0.34375q2.875 -0.34375 4.234375 -0.828125q0.015625 -0.484375 0.015625 -0.609375q0 -1.453125 -0.671875 -2.046875q-0.90625 -0.8125 -2.703125 -0.8125q-1.671875 0 -2.46875 0.59375q-0.796875 0.578125 -1.1875 2.078125l-2.3125 -0.3125q0.3125 -1.5 1.03125 -2.40625q0.734375 -0.921875 2.09375 -1.40625q1.375 -0.5 3.1875 -0.5q1.796875 0 2.90625 0.421875q1.125 0.421875 1.640625 1.0625q0.53125 0.640625 0.75 1.609375q0.125 0.609375 0.125 2.1875l0 3.171875q0 3.296875 0.140625 4.1875q0.15625 0.875 0.609375 1.671875l-2.484375 0q-0.375 -0.734375 -0.46875 -1.734375zm-0.203125 -5.296875q-1.296875 0.53125 -3.875 0.90625q-1.46875 0.203125 -2.078125 0.46875q-0.59375 0.265625 -0.9375 0.78125q-0.328125 0.5 -0.328125 1.125q0 0.9375 0.71875 1.578125q0.71875 0.625 2.109375 0.625q1.375 0 2.4375 -0.59375q1.0625 -0.609375 1.578125 -1.640625q0.375 -0.8125 0.375 -2.375l0 -0.875zm11.074921 4.90625l0.328125 2.09375q-1.0 0.21875 -1.78125 0.21875q-1.296875 0 -2.015625 -0.40625q-0.703125 -0.421875 -1.0 -1.078125q-0.28125 -0.671875 -0.28125 -2.796875l0 -8.0625l-1.75 0l0 -1.84375l1.75 0l0 -3.46875l2.359375 -1.421875l0 4.890625l2.390625 0l0 1.84375l-2.390625 0l0 8.1875q0 1.015625 0.125 1.3125q0.125 0.28125 0.40625 0.453125q0.28125 0.171875 0.8125 0.171875q0.390625 0 1.046875 -0.09375zm11.7966 -2.390625l2.453125 0.3125q-0.578125 2.140625 -2.15625 3.328125q-1.5625 1.1875 -4.0 1.1875q-3.0625 0 -4.875 -1.890625q-1.796875 -1.890625 -1.796875 -5.296875q0 -3.546875 1.8125 -5.484375q1.828125 -1.953125 4.734375 -1.953125q2.8125 0 4.578125 1.90625q1.78125 1.90625 1.78125 5.375q0 0.21875 -0.015625 0.640625l-10.4375 0q0.140625 2.296875 1.3125 3.53125q1.171875 1.21875 2.921875 1.21875q1.3125 0 2.234375 -0.671875q0.921875 -0.6875 1.453125 -2.203125zm-7.78125 -3.828125l7.8125 0q-0.15625 -1.765625 -0.890625 -2.65625q-1.140625 -1.359375 -2.953125 -1.359375q-1.625 0 -2.75 1.09375q-1.109375 1.09375 -1.21875 2.921875zm20.434021 8.34375l0 -14.0l2.125 0l0 1.96875q0.65625 -1.03125 1.75 -1.65625q1.09375 -0.625 2.484375 -0.625q1.5625 0 2.546875 0.640625q1.0 0.640625 1.421875 1.8125q1.65625 -2.453125 4.3125 -2.453125q2.09375 0 3.203125 1.15625q1.125 1.140625 1.125 3.546875l0 9.609375l-2.359375 0l0 -8.8125q0 -1.4375 -0.234375 -2.0625q-0.21875 -0.625 -0.828125 -1.0q-0.609375 -0.390625 -1.421875 -0.390625q-1.484375 0 -2.46875 0.984375q-0.96875 0.984375 -0.96875 3.140625l0 8.140625l-2.375 0l0 -9.09375q0 -1.578125 -0.578125 -2.375q-0.578125 -0.796875 -1.890625 -0.796875q-1.0 0 -1.859375 0.53125q-0.84375 0.53125 -1.234375 1.546875q-0.375 1.015625 -0.375 2.921875l0 7.265625l-2.375 0zm31.78299 -4.515625l2.453125 0.3125q-0.578125 2.140625 -2.15625 3.328125q-1.5625 1.1875 -4.0 1.1875q-3.0625 0 -4.875 -1.890625q-1.796875 -1.890625 -1.796875 -5.296875q0 -3.546875 1.8125 -5.484375q1.828125 -1.953125 4.734375 -1.953125q2.8125 0 4.578125 1.90625q1.78125 1.90625 1.78125 5.375q0 0.21875 -0.015625 0.640625l-10.4375 0q0.140625 2.296875 1.3125 3.53125q1.171875 1.21875 2.921875 1.21875q1.3125 0 2.234375 -0.671875q0.921875 -0.6875 1.453125 -2.203125zm-7.78125 -3.828125l7.8125 0q-0.15625 -1.765625 -0.890625 -2.65625q-1.140625 -1.359375 -2.953125 -1.359375q-1.625 0 -2.75 1.09375q-1.109375 1.09375 -1.21875 2.921875zm12.074921 4.171875l2.3437195 -0.375q0.203125 1.40625 1.109375 2.15625q0.90625 0.75 2.515625 0.75q1.640625 0 2.421875 -0.65625q0.796875 -0.671875 0.796875 -1.5625q0 -0.8125 -0.6875 -1.265625q-0.5 -0.3125 -2.4375 -0.8125q-2.609375 -0.65625 -3.625 -1.125q-1.0 -0.484375 -1.53125 -1.328125q-0.515625 -0.859375 -0.515625 -1.890625q0 -0.9375 0.421875 -1.734375q0.4375 -0.796875 1.1875 -1.328125q0.546875 -0.40625 1.5 -0.6875q0.953125 -0.28125 2.046875 -0.28125q1.65625 0 2.890625 0.46875q1.25 0.46875 1.84375 1.28125q0.59375 0.8125 0.828125 2.171875l-2.328125 0.3125q-0.15625 -1.078125 -0.921875 -1.671875q-0.75 -0.609375 -2.140625 -0.609375q-1.625 0 -2.328125 0.546875q-0.703125 0.53125 -0.703125 1.25q0 0.46875 0.296875 0.828125q0.28125 0.390625 0.90625 0.640625q0.359375 0.125 2.09375 0.609375q2.515625 0.671875 3.515625 1.09375q1.0 0.421875 1.5625 1.25q0.5625 0.8125 0.5625 2.03125q0 1.1875 -0.6875 2.234375q-0.6875 1.046875 -2.0 1.625q-1.296875 0.5625 -2.953125 0.5625q-2.71875 0 -4.15625 -1.125q-1.4375 -1.140625 -1.8280945 -3.359375zm13.3280945 0l2.34375 -0.375q0.203125 1.40625 1.109375 2.15625q0.90625 0.75 2.515625 0.75q1.640625 0 2.421875 -0.65625q0.796875 -0.671875 0.796875 -1.5625q0 -0.8125 -0.6875 -1.265625q-0.5 -0.3125 -2.4375 -0.8125q-2.609375 -0.65625 -3.625 -1.125q-1.0 -0.484375 -1.53125 -1.328125q-0.515625 -0.859375 -0.515625 -1.890625q0 -0.9375 0.421875 -1.734375q0.4375 -0.796875 1.1875 -1.328125q0.546875 -0.40625 1.5 -0.6875q0.953125 -0.28125 2.046875 -0.28125q1.65625 0 2.890625 0.46875q1.25 0.46875 1.84375 1.28125q0.59375 0.8125 0.828125 2.171875l-2.328125 0.3125q-0.15625 -1.078125 -0.921875 -1.671875q-0.75 -0.609375 -2.140625 -0.609375q-1.625 0 -2.328125 0.546875q-0.703125 0.53125 -0.703125 1.25q0 0.46875 0.296875 0.828125q0.28125 0.390625 0.90625 0.640625q0.359375 0.125 2.09375 0.609375q2.515625 0.671875 3.515625 1.09375q1.0 0.421875 1.5625 1.25q0.5625 0.8125 0.5625 2.03125q0 1.1875 -0.6875 2.234375q-0.6875 1.046875 -2.0 1.625q-1.296875 0.5625 -2.953125 0.5625q-2.71875 0 -4.15625 -1.125q-1.4375 -1.140625 -1.828125 -3.359375zm23.421875 2.4375q-1.328125 1.125 -2.546875 1.59375q-1.21875 0.453125 -2.609375 0.453125q-2.3125 0 -3.5625 -1.125q-1.234375 -1.125 -1.234375 -2.875q0 -1.03125 0.46875 -1.875q0.46875 -0.859375 1.21875 -1.375q0.765625 -0.515625 1.71875 -0.78125q0.703125 -0.171875 2.109375 -0.34375q2.875 -0.34375 4.234375 -0.828125q0.015625 -0.484375 0.015625 -0.609375q0 -1.453125 -0.671875 -2.046875q-0.90625 -0.8125 -2.703125 -0.8125q-1.671875 0 -2.46875 0.59375q-0.796875 0.578125 -1.1875 2.078125l-2.3125 -0.3125q0.3125 -1.5 1.03125 -2.40625q0.734375 -0.921875 2.09375 -1.40625q1.375 -0.5 3.1875 -0.5q1.796875 0 2.90625 0.421875q1.125 0.421875 1.640625 1.0625q0.53125 0.640625 0.75 1.609375q0.125 0.609375 0.125 2.1875l0 3.171875q0 3.296875 0.140625 4.1875q0.15625 0.875 0.609375 1.671875l-2.484375 0q-0.375 -0.734375 -0.46875 -1.734375zm-0.203125 -5.296875q-1.296875 0.53125 -3.875 0.90625q-1.46875 0.203125 -2.078125 0.46875q-0.59375 0.265625 -0.9375 0.78125q-0.328125 0.5 -0.328125 1.125q0 0.9375 0.71875 1.578125q0.71875 0.625 2.109375 0.625q1.375 0 2.4375 -0.59375q1.0625 -0.609375 1.578125 -1.640625q0.375 -0.8125 0.375 -2.375l0 -0.875zm5.449951 8.1875l2.3125 0.34375q0.140625 1.078125 0.796875 1.5625q0.890625 0.65625 2.421875 0.65625q1.640625 0 2.53125 -0.65625q0.90625 -0.65625 1.21875 -1.84375q0.1875 -0.734375 0.171875 -3.046875q-1.5625 1.828125 -3.875 1.828125q-2.890625 0 -4.46875 -2.078125q-1.578125 -2.09375 -1.578125 -5.0q0 -2.0 0.71875 -3.6875q0.734375 -1.703125 2.109375 -2.625q1.375 -0.921875 3.234375 -0.921875q2.46875 0 4.078125 2.0l0 -1.6875l2.1875 0l0 12.09375q0 3.28125 -0.671875 4.640625q-0.65625 1.359375 -2.109375 2.15625q-1.4375 0.796875 -3.546875 0.796875q-2.5 0 -4.046875 -1.140625q-1.53125 -1.125 -1.484375 -3.390625zm1.96875 -8.40625q0 2.75 1.09375 4.015625q1.09375 1.265625 2.734375 1.265625q1.640625 0 2.75 -1.25q1.109375 -1.265625 1.109375 -3.953125q0 -2.578125 -1.140625 -3.875q-1.140625 -1.3125 -2.75 -1.3125q-1.578125 0 -2.6875 1.296875q-1.109375 1.28125 -1.109375 3.8125zm22.871826 2.734375l2.453125 0.3125q-0.578125 2.140625 -2.15625 3.328125q-1.5625 1.1875 -4.0 1.1875q-3.0625 0 -4.875 -1.890625q-1.796875 -1.890625 -1.796875 -5.296875q0 -3.546875 1.8125 -5.484375q1.828125 -1.953125 4.734375 -1.953125q2.8125 0 4.578125 1.90625q1.78125 1.90625 1.78125 5.375q0 0.21875 -0.015625 0.640625l-10.4375 0q0.140625 2.296875 1.3125 3.53125q1.171875 1.21875 2.921875 1.21875q1.3125 0 2.234375 -0.671875q0.921875 -0.6875 1.453125 -2.203125zm-7.78125 -3.828125l7.8125 0q-0.15625 -1.765625 -0.890625 -2.65625q-1.140625 -1.359375 -2.953125 -1.359375q-1.625 0 -2.75 1.09375q-1.109375 1.09375 -1.21875 2.921875zm12.074951 4.171875l2.34375 -0.375q0.203125 1.40625 1.109375 2.15625q0.90625 0.75 2.515625 0.75q1.640625 0 2.421875 -0.65625q0.796875 -0.671875 0.796875 -1.5625q0 -0.8125 -0.6875 -1.265625q-0.5 -0.3125 -2.4375 -0.8125q-2.609375 -0.65625 -3.625 -1.125q-1.0 -0.484375 -1.53125 -1.328125q-0.515625 -0.859375 -0.515625 -1.890625q0 -0.9375 0.421875 -1.734375q0.4375 -0.796875 1.1875 -1.328125q0.546875 -0.40625 1.5 -0.6875q0.953125 -0.28125 2.046875 -0.28125q1.65625 0 2.890625 0.46875q1.25 0.46875 1.84375 1.28125q0.59375 0.8125 0.828125 2.171875l-2.328125 0.3125q-0.15625 -1.078125 -0.921875 -1.671875q-0.75 -0.609375 -2.140625 -0.609375q-1.625 0 -2.328125 0.546875q-0.703125 0.53125 -0.703125 1.25q0 0.46875 0.296875 0.828125q0.28125 0.390625 0.90625 0.640625q0.359375 0.125 2.09375 0.609375q2.515625 0.671875 3.515625 1.09375q1.0 0.421875 1.5625 1.25q0.5625 0.8125 0.5625 2.03125q0 1.1875 -0.6875 2.234375q-0.6875 1.046875 -2.0 1.625q-1.296875 0.5625 -2.953125 0.5625q-2.71875 0 -4.15625 -1.125q-1.4375 -1.140625 -1.828125 -3.359375z" fill-rule="nonzero"></path></g></svg>

