<?xml version="1.0" encoding="UTF-8" standalone="no"?>
<svg width="259px" height="72px" viewBox="0 0 259 72" version="1.1" xmlns="http://www.w3.org/2000/svg" xmlns:xlink="http://www.w3.org/1999/xlink" xmlns:sketch="http://www.bohemiancoding.com/sketch/ns">
    <!-- Generator: Sketch 3.1.1 (8761) - http://www.bohemiancoding.com/sketch -->
    <title>logo</title>
    <desc>Created with Sketch.</desc>
    <defs></defs>
    <g id="Page-1" stroke="none" stroke-width="1" fill="none" fill-rule="evenodd" sketch:type="MSPage">
        <g id="ng-conf-logo-fullcolor-horizontal-darkbg-+-2015" sketch:type="MSLayerGroup">
            <g id="ng-conf-horizontal" sketch:type="MSShapeGroup">
                <g id="ng-conf-logotype" transform="translate(80.862826, 15.000000)" fill-opacity="0.87" fill="#000000">
                    <path d="M7.16869026,8 C7.16869026,8 0,9.5889043 0,11.5253814 L0,32.9259361 C0,33.273509 2.52418671,33.5714286 2.52418671,33.5714286 C2.52418671,33.5714286 5.04837342,33.273509 5.04837342,32.9259361 L5.04837342,13.4618585 C5.04837342,12.9156727 7.16869026,12.4191401 7.16869026,12.4191401 C7.16869026,12.4191401 9.2890071,12.9156727 9.2890071,13.5115118 L9.2890071,32.9259361 C9.2890071,33.273509 11.8131938,33.5714286 11.8131938,33.5714286 C11.8131938,33.5714286 14.3373805,33.273509 14.3373805,32.9259361 L14.3373805,11.5253814 C14.3373805,9.5889043 7.16869026,8 7.16869026,8 L7.16869026,8 Z" id="n"></path>
                    <path d="M28.4748455,26.5924309 L28.4748455,23.8361406 C31.2009671,23.3349969 33.119349,22.0320233 33.119349,20.4784779 L33.119349,11.5581202 C33.119349,9.6036598 25.9506587,8 25.9506587,8 C25.9506587,8 18.7819685,9.6036598 18.7819685,11.5581202 L18.7819685,20.4784779 C18.7819685,22.0320233 20.7003504,23.3349969 23.426472,23.8361406 L23.426472,26.5924309 C20.7003504,27.0935746 18.7819685,28.3965481 18.7819685,29.8999791 L18.7819685,38.8203369 C18.7819685,40.8249116 25.9506587,42.4285714 25.9506587,42.4285714 C25.9506587,42.4285714 33.119349,40.8249116 33.119349,38.8203369 L33.119349,29.8999791 C33.119349,28.3965481 31.2009671,27.0935746 28.4748455,26.5924309 L28.4748455,26.5924309 Z M25.9506587,38.2857143 C25.9506587,38.2857143 23.8000517,37.7662337 23.8000517,37.1428571 L23.8000517,31.948052 C23.8000517,31.3766234 25.9506587,30.8571429 25.9506587,30.8571429 C25.9506587,30.8571429 28.1012658,31.3766234 28.1012658,31.948052 L28.1012658,37.1948051 C28.1012658,37.7662337 25.9506587,38.2857143 25.9506587,38.2857143 L25.9506587,38.2857143 Z M25.9506587,20 C25.9506587,20 23.8000517,19.4805194 23.8000517,18.9090909 L23.8000517,13.6623377 C23.8000517,13.0909091 25.9506587,12.5714286 25.9506587,12.5714286 C25.9506587,12.5714286 28.1012658,13.0909091 28.1012658,13.7142857 L28.1012658,18.9090909 C28.1012658,19.4805194 25.9506587,20 25.9506587,20 L25.9506587,20 Z" id="g"></path>
                    <path d="M44.9025698,19.7142857 L38.0817144,19.7142857 C37.9068207,19.7142857 37.563937,21.8330659 37.563937,21.8330659 C37.563937,21.8330659 37.9068207,24 38.0817144,24 L44.9025698,24 C45.0774636,24 45.4494963,21.8812199 45.4494963,21.8812199 C45.4494963,21.8812199 45.0774636,19.7142857 44.9025698,19.7142857 L44.9025698,19.7142857 Z" id="dash"></path>
                    <path d="M61.707278,25.0431319 C61.707278,25.0431319 59.1830913,25.3447803 59.1830913,25.6464286 L59.1830913,28.5623626 C59.1830913,29.1656593 57.0627745,29.6684066 57.0627745,29.6684066 C57.0627745,29.6684066 54.9424577,29.1656593 54.9424577,28.6126374 L54.9424577,13.5302198 C54.9424577,12.9771978 57.0627745,12.4744505 57.0627745,12.4744505 C57.0627745,12.4744505 59.1830913,12.9771978 59.1830913,13.5804945 L59.1830913,16.4964286 C59.1830913,16.7980769 61.707278,17.0997253 61.707278,17.0997253 C61.707278,17.0997253 64.2314647,16.7980769 64.2314647,16.4964286 L64.2314647,11.5695055 C64.2314647,9.60879121 57.0627745,8 57.0627745,8 C57.0627745,8 49.8940842,9.60879121 49.8940842,11.5695055 L49.8940842,30.5733517 C49.8940842,32.534066 57.0627745,34.1428571 57.0627745,34.1428571 C57.0627745,34.1428571 64.2314647,32.534066 64.2314647,30.5733517 L64.2314647,25.6464286 C64.2314647,25.3447803 61.707278,25.0431319 61.707278,25.0431319 L61.707278,25.0431319 Z" id="c"></path>
                    <path d="M75.7013692,8 C75.7013692,8 68.5326789,9.60879121 68.5326789,11.5695055 L68.5326789,30.5733517 C68.5326789,32.534066 75.7013692,34.1428571 75.7013692,34.1428571 C75.7013692,34.1428571 82.8700594,32.534066 82.8700594,30.5733517 L82.8700594,11.5695055 C82.8700594,9.60879121 75.7013692,8 75.7013692,8 L75.7013692,8 Z M75.7013692,29.4285714 C75.7013692,29.4285714 73.5507621,28.9273183 73.5507621,28.3759399 L73.5507621,13.3383459 C73.5507621,12.7869674 75.7013692,12.2857143 75.7013692,12.2857143 C75.7013692,12.2857143 77.8519762,12.7869674 77.8519762,13.3884712 L77.8519762,28.3759399 C77.8519762,28.9273183 75.7013692,29.4285714 75.7013692,29.4285714 L75.7013692,29.4285714 Z" id="o"></path>
                    <path d="M94.4833376,8 C94.4833376,8 87.3146474,9.5889043 87.3146474,11.5253814 L87.3146474,32.9259361 C87.3146474,33.273509 89.8388341,33.5714286 89.8388341,33.5714286 C89.8388341,33.5714286 92.3630209,33.273509 92.3630209,32.9259361 L92.3630209,13.4618585 C92.3630209,12.9156727 94.4833376,12.4191401 94.4833376,12.4191401 C94.4833376,12.4191401 96.6036544,12.9156727 96.6036544,13.5115118 L96.6036544,32.9259361 C96.6036544,33.273509 99.1278412,33.5714286 99.1278412,33.5714286 C99.1278412,33.5714286 101.652028,33.273509 101.652028,32.9259361 L101.652028,11.5253814 C101.652028,9.5889043 94.4833376,8 94.4833376,8 L94.4833376,8 Z" id="n"></path>
                    <path d="M115.24353,8.56445477 L111.025997,8.56445477 L111.025997,5.5092984 C111.025997,5.5092984 111.979963,4.40743871 113.134763,4.40743871 L115.24353,4.40743871 C115.544782,4.40743871 115.846035,2.20371936 115.846035,2.20371936 C115.846035,2.20371936 115.544782,0 115.24353,0 L113.134763,0 C109.218483,0 106.005124,3.55600169 106.005124,3.55600169 L106.005124,8.56445477 L103.494688,8.56445477 C103.193436,8.56445477 102.942392,10.7681741 102.942392,10.7681741 C102.942392,10.7681741 103.193436,13.021978 103.494688,13.021978 L106.005124,13.021978 L106.005124,33.206044 C106.005124,33.5566357 108.515561,33.8571429 108.515561,33.8571429 C108.515561,33.8571429 111.025997,33.5566357 111.025997,33.206044 L111.025997,13.021978 L115.24353,13.021978 C115.544782,13.021978 115.846035,10.8182587 115.846035,10.8182587 C115.846035,10.8182587 115.544782,8.56445477 115.24353,8.56445477 L115.24353,8.56445477 Z" id="f"></path>
                </g>
                <g id="ng-conf-icon">
                    <path d="M33.0209458,62.2190777 L12.9234091,51.2212886 L9.18151637,20.2689496 L0,13.8631501 L5.19431171,56.7759104 L33.0209458,71.9343404 L33.0209458,62.2190777 L33.0209458,62.2190777 Z" id="Path" fill="#F4B400"></path>
                    <path d="M35.4583005,71.8682434 L35.4583005,62.1528979 L55.4334449,51.2212886 L59.1772704,20.2529627 L68.3587894,13.8471613 L63.1625423,56.7759104 L35.4583005,71.8682434 L35.4583005,71.8682434 Z" id="Path" fill="#0F9D58"></path>
                    <path d="M1.59251806,11.4547582 L10.7250252,17.8263647 L34.2020351,9.57142857 L57.6190036,17.8206743 L66.7515312,11.4490535 L34.2106198,0 L1.59251806,11.4547582 L1.59251806,11.4547582 Z" id="Path" fill="#4285F4"></path>
                    <path d="M52.9603956,49.7142857 L34.1784271,60 L15.3964586,49.8571429 L11.8121134,20.5714286 L34.1784271,12.7142857 L56.5447407,20.5714286 L52.9603956,49.7142857 L52.9603956,49.7142857 Z" id="Path" fill="#DB4437"></path>
                    <path d="M24.4179829,49.4285714 L18.610604,49.4285714 L34.1784271,14.992605 L50.2970293,49.4285714 L44.9142824,49.4285714 L41.4959758,41.5763859 L27.5401002,41.5763859 L24.4179829,49.4285714 L24.4179829,49.4285714 Z M34.1784271,26.0412919 L29.5889779,36.8571429 L39.4886586,36.8571429 L34.1784271,26.0412919 L34.1784271,26.0412919 Z" id="logo-shape" fill="#FFFFFF"></path>
                </g>
            </g>
            <path d="M219.859811,45.3488491 L213.041731,45.3488491 L213.041731,39.0780464 C213.041731,38.6192072 213.769503,38.2368412 214.650491,38.2368412 C217.676493,38.2368412 220.089634,37.0132699 220.089634,35.5220425 L220.089634,25.6187626 C220.089634,24.0892985 214.650491,22.8657273 214.650491,22.8657273 C214.650491,22.8657273 209.211348,24.0892985 209.211348,25.6187626 L209.211348,29.327713 C209.211348,29.5953692 211.126539,29.8247888 211.126539,29.8247888 C211.126539,29.8247888 213.041731,29.5953692 213.041731,29.327713 L213.041731,27.1099901 C213.041731,26.6511509 213.769503,26.2687848 214.650491,26.2687848 C215.569783,26.2687848 216.259252,26.6511509 216.259252,27.0717535 L216.259252,34.030815 C216.259252,34.4896542 215.569783,34.8720202 214.650491,34.8720202 C211.662793,34.8720202 209.211348,36.0955915 209.211348,37.586819 L209.211348,48.7519067 L219.859811,48.7519067 C220.089634,48.7519067 220.281154,48.0254113 220.281154,47.0694962 C220.281154,46.1135812 220.089634,45.3488491 219.859811,45.3488491 Z M230.35506,44.9282465 C230.35506,45.3488491 228.746299,45.7312152 228.746299,45.7312152 C228.746299,45.7312152 227.137538,45.3488491 227.137538,44.9282465 L227.137538,27.0717535 C227.137538,26.6511509 228.746299,26.2687848 228.746299,26.2687848 C228.746299,26.2687848 230.35506,26.6511509 230.35506,27.1099901 L230.35506,44.9282465 Z M234.185442,25.6187626 C234.185442,24.0892985 228.746299,22.8657273 228.746299,22.8657273 C228.746299,22.8657273 223.307156,24.0892985 223.307156,25.6187626 L223.307156,46.419474 C223.307156,47.9107015 228.746299,49.1342727 228.746299,49.1342727 C228.746299,49.1342727 234.185442,47.9107015 234.185442,46.419474 L234.185442,25.6187626 Z M244.412563,23.2480933 L237.36466,23.2480933 C237.134837,23.2480933 236.905014,24.9687404 236.905014,24.9687404 C236.905014,24.9687404 237.134837,26.6511509 237.36466,26.6511509 L240.582181,26.6511509 L240.582181,48.4460139 C240.582181,48.7136701 242.497372,48.9430897 242.497372,48.9430897 C242.497372,48.9430897 244.412563,48.7136701 244.412563,48.4460139 L244.412563,23.2480933 Z M258.240244,23.2480933 L249.200542,23.2480933 L249.200542,37.0132699 L251.766898,37.0132699 C254.026823,37.0132699 254.639685,37.4338726 254.639685,38.0074216 L254.639685,44.9282465 C254.639685,45.3488491 253.030924,45.7312152 253.030924,45.7312152 C253.030924,45.7312152 251.422163,45.3488491 251.422163,44.8900099 L251.422163,42.672287 C251.422163,42.4428674 249.506972,42.2134478 249.506972,42.2134478 C249.506972,42.2134478 247.591781,42.4428674 247.591781,42.672287 L247.591781,46.419474 C247.591781,47.9107015 253.030924,49.1342727 253.030924,49.1342727 C253.030924,49.1342727 258.470067,47.9107015 258.470067,46.419474 L258.470067,36.4779575 C258.470067,34.9867301 256.056926,33.7631588 253.030924,33.7631588 L253.030924,26.6511509 L258.240244,26.6511509 C258.470067,26.6511509 258.661586,25.8864188 258.661586,24.9305038 C258.661586,24.9305038 258.470067,23.2480933 258.240244,23.2480933 Z" id="2015" opacity="0.54" fill="#000000" sketch:type="MSShapeGroup"></path>
        </g>
    </g>
</svg>