<?xml version="1.0" standalone="yes"?>

<svg version="1.1" viewBox="0.0 0.0 960.0 720.0" fill="none" stroke="none" stroke-linecap="square" stroke-miterlimit="10" xmlns="http://www.w3.org/2000/svg" xmlns:xlink="http://www.w3.org/1999/xlink"><clipPath id="p.0"><path d="m0 0l960.0 0l0 720.0l-960.0 0l0 -720.0z" clip-rule="nonzero"></path></clipPath><g clip-path="url(#p.0)"><path fill="#000000" fill-opacity="0.0" d="m0 0l960.0 0l0 720.0l-960.0 0z" fill-rule="nonzero"></path><path fill="#ffffff" d="m942.4724 701.76117l-154.15747 0l0 0l-231.2362 0l-539.55115 0l0 -337.37796l0 0l0 -144.59056l0 -96.3937l539.55115 0l369.29968 -107.30354l-138.06348 107.30354l154.15747 0l0 96.3937l0 144.59056l0 0z" fill-rule="nonzero"></path><path stroke="#000000" stroke-width="2.0" stroke-linejoin="round" stroke-linecap="butt" d="m942.4724 701.76117l-154.15747 0l0 0l-231.2362 0l-539.55115 0l0 -337.37796l0 0l0 -144.59056l0 -96.3937l539.55115 0l369.29968 -107.30354l-138.06348 107.30354l154.15747 0l0 96.3937l0 144.59056l0 0z" fill-rule="nonzero"></path><path fill="#000000" fill-opacity="0.0" d="m17.52756 376.5328l924.9448 0l0 72.09448l-924.9448 0z" fill-rule="nonzero"></path><path fill="#000000" d="m146.5625 381.46005l-24.3125 -91.625l12.4375 0l13.9375 60.0625q2.25 9.4375 3.875 18.75q3.5 -14.6875 4.125 -16.9375l17.4375 -61.875l14.625 0l13.125 46.375q4.9375 17.25 7.125 32.4375q1.75 -8.6875 4.5625 -19.9375l14.375 -58.875l12.1875 0l-25.125 91.625l-11.6875 0l-19.3125 -69.8125q-2.4375 -8.75 -2.875 -10.75q-1.4375 6.3125 -2.6875 10.75l-19.4375 69.8125l-12.375 0zm103.375 0l0 -91.625l11.25 0l0 32.875q7.875 -9.125 19.875 -9.125q7.375 0 12.8125 2.90625q5.4375 2.90625 7.78125 8.03125q2.34375 5.125 2.34375 14.875l0 42.0625l-11.25 0l0 -42.0625q0 -8.4375 -3.65625 -12.28125q-3.65625 -3.84375 -10.34375 -3.84375q-5.0 0 -9.40625 2.59375q-4.40625 2.59375 -6.28125 7.03125q-1.875 4.4375 -1.875 12.25l0 36.3125l-11.25 0zm114.5 -8.1875q-6.25 5.3125 -12.03125 7.5q-5.78125 2.1875 -12.40625 2.1875q-10.9375 0 -16.8125 -5.34375q-5.875 -5.34375 -5.875 -13.65625q0 -4.875 2.21875 -8.90625q2.21875 -4.03125 5.8125 -6.46875q3.59375 -2.4375 8.09375 -3.6875q3.3125 -0.875 10.0 -1.6875q13.625 -1.625 20.0625 -3.875q0.0625 -2.3125 0.0625 -2.9375q0 -6.875 -3.1875 -9.6875q-4.3125 -3.8125 -12.8125 -3.8125q-7.9375 0 -11.71875 2.78125q-3.78125 2.78125 -5.59375 9.84375l-11.0 -1.5q1.5 -7.0625 4.9375 -11.40625q3.4375 -4.34375 9.9375 -6.6875q6.5 -2.34375 15.0625 -2.34375q8.5 0 13.8125 2.0q5.3125 2.0 7.8125 5.03125q2.5 3.03125 3.5 7.65625q0.5625 2.875 0.5625 10.375l0 15.0q0 15.6875 0.71875 19.84375q0.71875 4.15625 2.84375 7.96875l-11.75 0q-1.75 -3.5 -2.25 -8.1875zm-0.9375 -25.125q-6.125 2.5 -18.375 4.25q-6.9375 1.0 -9.8125 2.25q-2.875 1.25 -4.4375 3.65625q-1.5625 2.40625 -1.5625 5.34375q0 4.5 3.40625 7.5q3.40625 3.0 9.96875 3.0q6.5 0 11.5625 -2.84375q5.0625 -2.84375 7.4375 -7.78125q1.8125 -3.8125 1.8125 -11.25l0 -4.125zm53.375 23.25l1.625 9.9375q-4.75 1.0 -8.5 1.0q-6.125 0 -9.5 -1.9375q-3.375 -1.9375 -4.75 -5.09375q-1.375 -3.15625 -1.375 -13.28125l0 -38.1875l-8.25 0l0 -8.75l8.25 0l0 -16.4375l11.1875 -6.75l0 23.1875l11.3125 0l0 8.75l-11.3125 0l0 38.8125q0 4.8125 0.59375 6.1875q0.59375 1.375 1.9375 2.1875q1.34375 0.8125 3.84375 0.8125q1.875 0 4.9375 -0.4375zm89.625 10.0625l0 -8.375q-6.3125 9.875 -18.5625 9.875q-7.9375 0 -14.59375 -4.375q-6.65625 -4.375 -10.3125 -12.21875q-3.65625 -7.84375 -3.65625 -18.03125q0 -9.9375 3.3125 -18.03125q3.3125 -8.09375 9.9375 -12.40625q6.625 -4.3125 14.8125 -4.3125q6.0 0 10.6875 2.53125q4.6875 2.53125 7.625 6.59375l0 -32.875l11.1875 0l0 91.625l-10.4375 0zm-35.5625 -33.125q0 12.75 5.375 19.0625q5.375 6.3125 12.6875 6.3125q7.375 0 12.53125 -6.03125q5.15625 -6.03125 5.15625 -18.40625q0 -13.625 -5.25 -20.0q-5.25 -6.375 -12.9375 -6.375q-7.5 0 -12.53125 6.125q-5.03125 6.125 -5.03125 19.3125zm59.5 -0.0625q0 -18.4375 10.25 -27.3125q8.5625 -7.375 20.875 -7.375q13.6875 0 22.375 8.96875q8.6875 8.96875 8.6875 24.78125q0 12.8125 -3.84375 20.15625q-3.84375 7.34375 -11.1875 11.40625q-7.34375 4.0625 -16.03125 4.0625q-13.9375 0 -22.53125 -8.9375q-8.59375 -8.9375 -8.59375 -25.75zm11.5625 0q0 12.75 5.5625 19.09375q5.5625 6.34375 14.0 6.34375q8.375 0 13.9375 -6.375q5.5625 -6.375 5.5625 -19.4375q0 -12.3125 -5.59375 -18.65625q-5.59375 -6.34375 -13.90625 -6.34375q-8.4375 0 -14.0 6.3125q-5.5625 6.3125 -5.5625 19.0625zm98.875 58.75l-1.25 -10.5625q3.6875 1.0 6.4375 1.0q3.75 0 6.0 -1.25q2.25 -1.25 3.6875 -3.5q1.0625 -1.6875 3.4375 -8.375q0.3125 -0.9375 1.0 -2.75l-25.1875 -66.5l12.125 0l13.8125 38.4375q2.6875 7.3125 4.8125 15.375q1.9375 -7.75 4.625 -15.125l14.1875 -38.6875l11.25 0l-25.25 67.5q-4.0625 10.9375 -6.3125 15.0625q-3.0 5.5625 -6.875 8.15625q-3.875 2.59375 -9.25 2.59375q-3.25 0 -7.25 -1.375zm60.3125 -58.75q0 -18.4375 10.25 -27.3125q8.5625 -7.375 20.875 -7.375q13.6875 0 22.375 8.96875q8.6875 8.96875 8.6875 24.78125q0 12.8125 -3.84375 20.15625q-3.84375 7.34375 -11.1875 11.40625q-7.34375 4.0625 -16.03125 4.0625q-13.9375 0 -22.53125 -8.9375q-8.59375 -8.9375 -8.59375 -25.75zm11.5625 0q0 12.75 5.5625 19.09375q5.5625 6.34375 14.0 6.34375q8.375 0 13.9375 -6.375q5.5625 -6.375 5.5625 -19.4375q0 -12.3125 -5.59375 -18.65625q-5.59375 -6.34375 -13.90625 -6.34375q-8.4375 0 -14.0 6.3125q-5.5625 6.3125 -5.5625 19.0625zm107.3125 33.1875l0 -9.75q-7.75 11.25 -21.0625 11.25q-5.875 0 -10.96875 -2.25q-5.09375 -2.25 -7.5625 -5.65625q-2.46875 -3.40625 -3.46875 -8.34375q-0.6875 -3.3125 -0.6875 -10.5l0 -41.125l11.25 0l0 36.8125q0 8.8125 0.6875 11.875q1.0625 4.4375 4.5 6.96875q3.4375 2.53125 8.5 2.53125q5.0625 0 9.5 -2.59375q4.4375 -2.59375 6.28125 -7.0625q1.84375 -4.46875 1.84375 -12.96875l0 -35.5625l11.25 0l0 66.375l-10.0625 0z" fill-rule="nonzero"></path><path fill="#000000" d="m292.75 535.4601l0 -66.37503l10.0625 0l0 9.3125q3.125 -4.875 8.3125 -7.84375q5.1875 -2.96875 11.8125 -2.96875q7.375 0 12.09375 3.0625q4.71875 3.0625 6.65625 8.5625q7.875 -11.625 20.5 -11.625q9.875 0 15.1875 5.46875q5.3125 5.46875 5.3125 16.84375l0 45.56253l-11.1875 0l0 -41.81253q0 -6.75 -1.09375 -9.71875q-1.09375 -2.96875 -3.96875 -4.78125q-2.875 -1.8125 -6.75 -1.8125q-7.0 0 -11.625 4.65625q-4.625 4.65625 -4.625 14.90625l0 38.56253l-11.25 0l0 -43.12503q0 -7.5 -2.75 -11.25q-2.75 -3.75 -9.0 -3.75q-4.75 0 -8.78125 2.5q-4.03125 2.5 -5.84375 7.3125q-1.8125 4.8125 -1.8125 13.875l0 34.43753l-11.25 0zm152.0625 -21.375l11.625 1.4375q-2.75 10.1875 -10.1875 15.8125q-7.4375 5.625 -19.0 5.625q-14.5625 0 -23.09375 -8.96875q-8.53125 -8.96875 -8.53125 -25.15628q0 -16.75 8.625 -26.0q8.625 -9.25 22.375 -9.25q13.3125 0 21.75 9.0625q8.4375 9.0625 8.4375 25.5q0 1.0 -0.0625 3.0l-49.5 0q0.625 10.9375305 6.1875 16.75003q5.5625 5.8125 13.875 5.8125q6.1875 0 10.5625 -3.25q4.375 -3.25 6.9375 -10.375zm-36.9375 -18.18753l37.0625 0q-0.75 -8.375 -4.25 -12.5625q-5.375 -6.5 -13.9375 -6.5q-7.75 0 -13.03125 5.1875q-5.28125 5.1875 -5.84375 13.875zm106.0 31.37503q-6.25 5.3125 -12.03125 7.5q-5.78125 2.1875 -12.40625 2.1875q-10.9375 0 -16.8125 -5.34375q-5.875 -5.34375 -5.875 -13.65625q0 -4.875 2.21875 -8.9062805q2.21875 -4.03125 5.8125 -6.46875q3.59375 -2.4375 8.09375 -3.6875q3.3125 -0.875 10.0 -1.6875q13.625 -1.625 20.0625 -3.875q0.0625 -2.3125 0.0625 -2.9375q0 -6.875 -3.1875 -9.6875q-4.3125 -3.8125 -12.8125 -3.8125q-7.9375 0 -11.71875 2.78125q-3.78125 2.78125 -5.59375 9.84375l-11.0 -1.5q1.5 -7.0625 4.9375 -11.40625q3.4375 -4.34375 9.9375 -6.6875q6.5 -2.34375 15.0625 -2.34375q8.5 0 13.8125 2.0q5.3125 2.0 7.8125 5.03125q2.5 3.03125 3.5 7.65625q0.5625 2.875 0.5625 10.375l0 15.0q0 15.6875305 0.71875 19.84378q0.71875 4.15625 2.84375 7.96875l-11.75 0q-1.75 -3.5 -2.25 -8.1875zm-0.9375 -25.12503q-6.125 2.5 -18.375 4.25q-6.9375 1.0 -9.8125 2.25q-2.875 1.25 -4.4375 3.6562805q-1.5625 2.40625 -1.5625 5.34375q0 4.5 3.40625 7.5q3.40625 3.0 9.96875 3.0q6.5 0 11.5625 -2.84375q5.0625 -2.84375 7.4375 -7.78125q1.8125 -3.8125 1.8125 -11.2500305l0 -4.125zm28.8125 33.31253l0 -66.37503l10.125 0l0 9.4375q7.3125 -10.9375 21.125 -10.9375q6.0 0 11.03125 2.15625q5.03125 2.15625 7.53125 5.65625q2.5 3.5 3.5 8.3125q0.625 3.125 0.625 10.9375l0 40.81253l-11.25 0l0 -40.37503q0 -6.875 -1.3125 -10.28125q-1.3125 -3.40625 -4.65625 -5.4375q-3.34375 -2.03125 -7.84375 -2.03125q-7.1875 0 -12.40625 4.5625q-5.21875 4.5625 -5.21875 17.3125l0 36.25003l-11.25 0zm92.25 -22.5625q-0.0625 -2.2500305 -0.0625 -3.3750305q0 -6.625 1.875 -11.4375q1.375 -3.625 4.4375 -7.3125q2.25 -2.6875 8.09375 -7.84375q5.84375 -5.15625 7.59375 -8.21875q1.75 -3.0625 1.75 -6.6875q0 -6.5625 -5.125 -11.53125q-5.125 -4.96875 -12.5625 -4.96875q-7.1875 0 -12.0 4.5q-4.8125 4.5 -6.3125 14.0625l-11.5625 -1.375q1.5625 -12.8125 9.28125 -19.625q7.71875 -6.8125 20.40625 -6.8125q13.4375 0 21.4375 7.3125q8.0 7.3125 8.0 17.6875q0 6.0 -2.8125 11.0625q-2.8125 5.0625 -11.0 12.3125q-5.5 4.875 -7.1875 7.1875q-1.6875 2.3125 -2.5 5.3125q-0.8125 3.0 -0.9375 9.7500305l-10.8125 0zm-0.6875 22.5625l0 -12.8125l12.8125 0l0 12.8125l-12.8125 0z" fill-rule="nonzero"></path></g></svg>

