<svg version="1.1" viewBox="0.0 0.0 960.0 720.0" fill="none" stroke="none" stroke-linecap="square" stroke-miterlimit="10" xmlns:xlink="http://www.w3.org/1999/xlink" xmlns="http://www.w3.org/2000/svg"><clipPath id="p.0"><path d="m0 0l960.0 0l0 720.0l-960.0 0l0 -720.0z" clip-rule="nonzero"/></clipPath><g clip-path="url(#p.0)"><path fill="#000000" fill-opacity="0.0" d="m0 0l960.0 0l0 720.0l-960.0 0z" fill-rule="evenodd"/><path fill="#efefef" d="m38.430447 64.42519l389.19684 0l0 150.33072l-389.19684 0z" fill-rule="evenodd"/><path stroke="#000000" stroke-width="4.0" stroke-linejoin="round" stroke-linecap="butt" stroke-dasharray="32.0,12.0" d="m38.430447 64.42519l389.19684 0l0 150.33072l-389.19684 0z" fill-rule="evenodd"/><path fill="#000000" d="m134.6227 146.1468q0 4.15625 -2.984375 6.0q-2.96875 1.84375 -7.3281326 1.84375l-7.4375 0l0 -27.562508l6.796875 0q4.203125 0 6.9843826 1.6250076q2.78125 1.625 2.78125 5.34375q0 2.46875 -1.484375 3.96875q-1.484375 1.5 -3.6875 2.03125q6.359375 1.078125 6.359375 6.75zm-4.75 -12.5625q0 -2.28125 -1.40625 -3.296875q-1.3906326 -1.015625 -4.0000076 -1.015625l-4.125 0l0 8.875l4.453125 0q5.0781326 0 5.0781326 -4.5625zm1.078125 12.6875q0 -2.921875 -1.578125 -4.078125q-1.5781326 -1.15625 -4.3437576 -1.15625l-4.6875 0l0 10.078125l4.5625 0q2.53125 0 4.2812576 -1.03125q1.765625 -1.046875 1.765625 -3.8125zm18.312485 2.515625q0 2.84375 3.484375 2.84375q1.640625 0 3.515625 -0.71875l0.890625 2.4375q-2.0 1.078125 -5.0 1.078125q-2.84375 0 -4.546875 -1.5625q-1.703125 -1.5625 -1.703125 -4.234375l0 -21.515633l-6.46875 0l0 -2.6875l9.828125 0l0 24.359383zm23.812485 -16.3125q4.359375 0 6.6875 2.9375q2.34375 2.9375 2.34375 8.015625q0 4.96875 -2.390625 7.984375q-2.375 3.015625 -6.6875 3.015625q-4.359375 0 -6.71875 -2.9375q-2.359375 -2.9375 -2.359375 -8.015625q0 -5.0 2.375 -8.0q2.390625 -3.0 6.75 -3.0zm0 2.75q-2.765625 0 -4.125 2.046875q-1.359375 2.03125 -1.359375 6.203125q0 4.15625 1.328125 6.1875q1.34375 2.015625 4.109375 2.015625q2.765625 0 4.09375 -2.015625q1.34375 -2.03125 1.34375 -6.234375q0 -4.15625 -1.34375 -6.171875q-1.328125 -2.03125 -4.046875 -2.03125zm25.51561 16.328125q2.75 0 5.484375 -1.84375l1.59375 2.203125q-1.328125 1.15625 -3.28125 1.84375q-1.953125 0.671875 -3.796875 0.671875q-4.6875 0 -7.3125 -2.9375q-2.609375 -2.9375 -2.609375 -7.9375q0 -3.15625 1.171875 -5.671875q1.1875 -2.53125 3.421875 -3.96875q2.25 -1.4375 5.328125 -1.4375q4.078125 0 7.03125 2.46875l-1.640625 2.203125q-2.75 -1.84375 -5.4375 -1.84375q-2.828125 0 -4.53125 2.109375q-1.703125 2.09375 -1.703125 6.140625q0 4.03125 1.703125 6.015625q1.703125 1.984375 4.578125 1.984375zm18.031235 2.4375l-3.359375 0l0 -29.562508l3.359375 -0.390625l0 29.953133zm4.609375 -11.5625l10.5625 11.5625l-4.453125 0l-10.359375 -11.515625l9.359375 -9.5625l4.328125 0l-9.4375 9.515625zm25.35936 9.125q2.75 0 5.484375 -1.84375l1.59375 2.203125q-1.328125 1.15625 -3.28125 1.84375q-1.953125 0.671875 -3.796875 0.671875q-4.6875 0 -7.3125 -2.9375q-2.609375 -2.9375 -2.609375 -7.9375q0 -3.15625 1.171875 -5.671875q1.1875 -2.53125 3.421875 -3.96875q2.25 -1.4375 5.328125 -1.4375q4.078125 0 7.03125 2.46875l-1.640625 2.203125q-2.75 -1.84375 -5.4375 -1.84375q-2.828125 0 -4.53125 2.109375q-1.703125 2.09375 -1.703125 6.140625q0 4.03125 1.703125 6.015625q1.703125 1.984375 4.578125 1.984375zm17.796844 -15.71875q1.234375 -1.609375 3.03125 -2.484375q1.8125 -0.875 3.734375 -0.875q5.921875 0 5.921875 6.234375l0 15.28125l-3.359375 0l0 -15.234375q0 -1.890625 -0.890625 -2.75q-0.875 -0.859375 -2.796875 -0.859375q-1.640625 0 -3.171875 1.046875q-1.515625 1.03125 -2.46875 2.4375l0 15.359375l-3.359375 0l0 -29.515633l3.359375 -0.359375l0 11.718758zm35.765625 13.5625q0 1.234375 0.390625 1.8125q0.40625 0.578125 1.328125 0.859375l-0.84375 2.40625q-3.078125 -0.40625 -3.84375 -3.0q-1.109375 1.4375 -2.8125 2.203125q-1.703125 0.75 -3.78125 0.75q-3.15625 0 -4.984375 -1.75q-1.8125 -1.765625 -1.8125 -4.734375q0 -3.234375 2.53125 -4.984375q2.546875 -1.765625 7.296875 -1.765625l3.125 0l0 -1.71875q0 -2.25 -1.28125 -3.21875q-1.28125 -0.984375 -3.71875 -0.984375q-2.40625 0 -5.484375 1.078125l-0.921875 -2.5625q3.734375 -1.3125 6.921875 -1.3125q3.84375 0 5.859375 1.796875q2.03125 1.796875 2.03125 5.0l0 10.125zm-8.71875 2.515625q1.546875 0 2.96875 -0.796875q1.421875 -0.8125 2.34375 -2.203125l0 -5.40625l-3.03125 0q-3.375 0 -4.859375 1.125q-1.46875 1.125 -1.46875 3.28125q0 4.0 4.046875 4.0zm25.59375 -28.843758q1.125 0 1.796875 0.671875q0.6875 0.65625 0.6875 1.6875q0 1.046875 -0.6875 1.703125q-0.671875 0.65625 -1.796875 0.65625q-1.078125 0 -1.75 -0.65625q-0.65625 -0.65625 -0.65625 -1.703125q0 -1.03125 0.65625 -1.6875q0.671875 -0.671875 1.75 -0.671875zm2.6875 28.234383l5.90625 0l0 2.6875l-15.75 0l0 -2.6875l6.46875 0l0 -15.71875l-6.265625 0l0 -2.671875l9.640625 0l0 18.390625zm13.3124695 -18.390625l2.875 0l0.28125 2.953125q1.25 -1.59375 3.140625 -2.484375q1.90625 -0.90625 3.828125 -0.90625q5.921875 0 5.921875 6.234375l0 15.28125l-3.359375 0l0 -12.796875q0 -2.359375 -0.265625 -3.59375q-0.265625 -1.25 -1.03125 -1.84375q-0.75 -0.609375 -2.3125 -0.609375q-1.71875 0 -3.25 1.046875q-1.515625 1.03125 -2.46875 2.484375l0 15.3125l-3.359375 0l0 -21.078125z" fill-rule="nonzero"/><path fill="#efefef" d="m534.2546 64.42519l389.19684 0l0 150.33072l-389.19684 0z" fill-rule="evenodd"/><path stroke="#000000" stroke-width="4.0" stroke-linejoin="round" stroke-linecap="butt" stroke-dasharray="32.0,12.0" d="m534.2546 64.42519l389.19684 0l0 150.33072l-389.19684 0z" fill-rule="evenodd"/><path fill="#000000" d="m594.9781 116.06867q0 7.84375 -3.609375 10.890625q-3.59375 3.0312576 -8.875 3.0312576l-6.328125 0l0 -27.562508l5.890625 0q5.796875 0 9.359375 2.921875q3.5625 2.921875 3.5625 10.71875zm-3.71875 0q0 -4.484375 -1.234375 -6.859375q-1.21875 -2.375 -3.015625 -3.15625q-1.796875 -0.78125 -4.109375 -0.78125l-3.25 0l0 21.921875l3.28125 0q3.5625 0 5.9375 -2.453125q2.390625 -2.46875 2.390625 -8.671875zm12.28125 4.5625q0.109375 3.484375 1.8125 5.25q1.703125 1.75 4.296875 1.75q1.5625 0 2.859375 -0.453125q1.296875 -0.46875 2.78125 -1.421875l1.5625 2.234375q-1.484375 1.1562576 -3.390625 1.7968826q-1.890625 0.640625 -3.8125 0.640625q-4.5625 0 -7.109375 -2.9687576q-2.53125 -2.984375 -2.53125 -7.984375q0 -3.171875 1.125 -5.671875q1.125 -2.5 3.203125 -3.90625q2.078125 -1.421875 4.828125 -1.421875q4.0 0 6.296875 2.78125q2.3125 2.78125 2.3125 7.578125q0 0.921875 -0.078125 1.796875l-14.15625 0zm5.671875 -9.40625q-2.4375 0 -3.96875 1.75q-1.515625 1.734375 -1.703125 5.09375l10.953125 0q-0.046875 -3.3125 -1.453125 -5.078125q-1.390625 -1.765625 -3.828125 -1.765625zm25.203125 16.328125q2.75 0 5.484375 -1.84375l1.59375 2.203125q-1.328125 1.1562576 -3.28125 1.8437576q-1.953125 0.671875 -3.796875 0.671875q-4.6875 0 -7.3125 -2.9375076q-2.609375 -2.9375 -2.609375 -7.9375q0 -3.15625 1.171875 -5.671875q1.1875 -2.53125 3.421875 -3.96875q2.25 -1.4375 5.328125 -1.4375q4.078125 0 7.03125 2.46875l-1.640625 2.203125q-2.75 -1.84375 -5.4375 -1.84375q-2.828125 0 -4.53125 2.109375q-1.703125 2.09375 -1.703125 6.140625q0 4.03125 1.703125 6.015625q1.703125 1.984375 4.578125 1.984375zm17.125 -6.921875q0.109375 3.484375 1.8125 5.25q1.703125 1.75 4.296875 1.75q1.5625 0 2.859375 -0.453125q1.296875 -0.46875 2.78125 -1.421875l1.5625 2.234375q-1.484375 1.1562576 -3.390625 1.7968826q-1.890625 0.640625 -3.8125 0.640625q-4.5625 0 -7.109375 -2.9687576q-2.53125 -2.984375 -2.53125 -7.984375q0 -3.171875 1.125 -5.671875q1.125 -2.5 3.203125 -3.90625q2.078125 -1.421875 4.828125 -1.421875q4.0 0 6.296875 2.78125q2.3125 2.78125 2.3125 7.578125q0 0.921875 -0.078125 1.796875l-14.15625 0zm5.671875 -9.40625q-2.4375 0 -3.96875 1.75q-1.515625 1.734375 -1.703125 5.09375l10.953125 0q-0.046875 -3.3125 -1.453125 -5.078125q-1.390625 -1.765625 -3.828125 -1.765625zm15.640564 -2.3125l2.875 0l0.28125 2.953125q1.25 -1.59375 3.140625 -2.484375q1.90625 -0.90625 3.828125 -0.90625q5.921875 0 5.921875 6.234375l0 15.281258l-3.359375 0l0 -12.796883q0 -2.359375 -0.265625 -3.59375q-0.265625 -1.25 -1.03125 -1.84375q-0.75 -0.609375 -2.3125 -0.609375q-1.71875 0 -3.25 1.046875q-1.515625 1.03125 -2.46875 2.484375l0 15.312508l-3.359375 0l0 -21.078133zm40.765625 20.000008q-1.078125 0.71875 -2.625 1.109375q-1.546875 0.40625 -3.0625 0.40625q-3.3125 0 -5.203125 -1.734375q-1.875 -1.7500076 -1.875 -4.5781326l0 -12.5625l-4.84375 0l0 -2.640625l4.84375 0l0 -4.765625l3.359375 -0.390625l0 5.15625l7.328125 0l-0.453125 2.640625l-6.875 0l0 12.515625q0 1.796875 0.953125 2.6875q0.96875 0.875 3.09375 0.875q2.15625 0 4.03125 -1.0l1.328125 2.2812576zm21.46875 -20.437508q1.28125 0 2.96875 0.4375l-0.484375 7.15625l-2.71875 0l0 -4.515625l-0.203125 0q-4.875 0 -6.921875 6.953125l0 8.890625l4.28125 0l0 2.5937576l-10.953125 0l0 -2.5937576l3.3125 0l0 -15.890625l-3.3125 0l0 -2.59375l5.84375 0l0.640625 5.0q1.265625 -2.71875 3.046875 -4.078125q1.78125 -1.359375 4.5 -1.359375zm24.890625 16.921875q0 1.234375 0.390625 1.8125q0.40625 0.578125 1.328125 0.8593826l-0.84375 2.40625q-3.078125 -0.40625 -3.84375 -3.0000076q-1.109375 1.4375076 -2.8125 2.2031326q-1.703125 0.75 -3.78125 0.75q-3.15625 0 -4.984375 -1.75q-1.8125 -1.7656326 -1.8125 -4.7343826q0 -3.234375 2.53125 -4.984375q2.546875 -1.765625 7.296875 -1.765625l3.125 0l0 -1.71875q0 -2.25 -1.28125 -3.21875q-1.28125 -0.984375 -3.71875 -0.984375q-2.40625 0 -5.484375 1.078125l-0.921875 -2.5625q3.734375 -1.3125 6.921875 -1.3125q3.84375 0 5.859375 1.796875q2.03125 1.796875 2.03125 5.0l0 10.125zm-8.71875 2.515625q1.546875 0 2.96875 -0.796875q1.421875 -0.8125 2.34375 -2.203125l0 -5.40625l-3.03125 0q-3.375 0 -4.859375 1.125q-1.46875 1.125 -1.46875 3.28125q0 4.0 4.046875 4.0zm25.828064 -3.125q0 2.84375 3.484375 2.84375q1.640625 0 3.515625 -0.71875l0.890625 2.4375076q-2.0 1.078125 -5.0 1.078125q-2.84375 0 -4.546875 -1.5625q-1.703125 -1.5625076 -1.703125 -4.2343826l0 -21.515625l-6.46875 0l0 -2.6875l9.828125 0l0 24.359375zm23.765625 -25.71875q1.125 0 1.796875 0.671875q0.6875 0.65625 0.6875 1.6875q0 1.046875 -0.6875 1.703125q-0.671875 0.65625 -1.796875 0.65625q-1.078125 0 -1.75 -0.65625q-0.65625 -0.65625 -0.65625 -1.703125q0 -1.03125 0.65625 -1.6875q0.671875 -0.671875 1.75 -0.671875zm2.6875 28.234375l5.90625 0l0 2.6875076l-15.75 0l0 -2.6875076l6.46875 0l0 -15.71875l-6.265625 0l0 -2.671875l9.640625 0l0 18.390625zm29.234375 -0.1875l-0.40625 2.8750076l-15.4375 0l0 -2.5625076l11.6875 -15.5625l-10.765625 0l0 -2.953125l14.796875 0l0 2.640625l-11.59375 15.5625l11.71875 0zm10.765564 -6.484375q0.109375 3.484375 1.8125 5.25q1.703125 1.75 4.296875 1.75q1.5625 0 2.859375 -0.453125q1.296875 -0.46875 2.78125 -1.421875l1.5625 2.234375q-1.484375 1.1562576 -3.390625 1.7968826q-1.890625 0.640625 -3.8125 0.640625q-4.5625 0 -7.109375 -2.9687576q-2.53125 -2.984375 -2.53125 -7.984375q0 -3.171875 1.125 -5.671875q1.125 -2.5 3.203125 -3.90625q2.078125 -1.421875 4.828125 -1.421875q4.0 0 6.296875 2.78125q2.3125 2.78125 2.3125 7.578125q0 0.921875 -0.078125 1.796875l-14.15625 0zm5.671875 -9.40625q-2.4375 0 -3.96875 1.75q-1.515625 1.734375 -1.703125 5.09375l10.953125 0q-0.046875 -3.3125 -1.453125 -5.078125q-1.390625 -1.765625 -3.828125 -1.765625zm31.640625 -10.796875l0 29.562508l-2.953125 0l-0.328125 -2.7656326q-1.15625 1.6093826 -2.6875 2.4062576q-1.515625 0.796875 -3.265625 0.796875q-4.0 0 -6.03125 -2.9218826q-2.015625 -2.921875 -2.015625 -8.03125q0 -3.171875 1.0 -5.671875q1.0 -2.5 2.859375 -3.90625q1.859375 -1.421875 4.375 -1.421875q3.484375 0 5.6875 2.515625l0 -10.953125l3.359375 0.390625zm-8.15625 10.765625q-2.640625 0 -4.0625 2.078125q-1.421875 2.078125 -1.421875 6.203125q0 4.078125 1.296875 6.1875q1.296875 2.09375 3.78125 2.09375q3.0 0 5.203125 -3.359375l0 -10.484375q-0.875 -1.328125 -2.125 -2.015625q-1.234375 -0.703125 -2.671875 -0.703125z" fill-rule="nonzero"/><path fill="#000000" d="m666.33746 170.34993q0 2.40625 -1.203125 4.234375q-1.203125 1.8125 -3.484375 2.828125q-2.28125 1.015625 -5.390625 1.015625q-3.0 0 -5.46875 -0.890625q-2.453125 -0.90625 -4.21875 -2.59375l2.078125 -2.359375q1.515625 1.453125 3.375 2.21875q1.875 0.75 4.265625 0.75q2.71875 0 4.5625 -1.3125q1.84375 -1.328125 1.84375 -3.8125q0 -1.390625 -0.53125 -2.3125q-0.515625 -0.921875 -1.8125 -1.640625q-1.296875 -0.71875 -3.65625 -1.40625q-4.484375 -1.3125 -6.6875 -3.09375q-2.203125 -1.78125 -2.203125 -4.859375q0 -2.046875 1.125 -3.6875q1.125 -1.640625 3.15625 -2.53125q2.046875 -0.90625 4.640625 -0.90625q2.71875 0 4.859375 0.796875q2.140625 0.796875 3.953125 2.359375l-2.09375 2.25q-2.828125 -2.484375 -6.59375 -2.484375q-2.40625 0 -3.96875 1.046875q-1.546875 1.03125 -1.546875 3.03125q0 1.203125 0.640625 2.046875q0.640625 0.828125 2.109375 1.546875q1.484375 0.71875 4.171875 1.484375q3.875 1.125 5.96875 2.921875q2.109375 1.796875 2.109375 5.359375zm23.281189 6.5625q-1.078125 0.71875 -2.625 1.109375q-1.546875 0.40625 -3.0625 0.40625q-3.3125 0 -5.203125 -1.734375q-1.875 -1.75 -1.875 -4.578125l0 -12.5625l-4.84375 0l0 -2.640625l4.84375 0l0 -4.765625l3.359375 -0.390625l0 5.15625l7.328125 0l-0.453125 2.640625l-6.875 0l0 12.515625q0 1.796875 0.953125 2.6875q0.96875 0.875 3.09375 0.875q2.15625 0 4.03125 -1.0l1.328125 2.28125zm15.28125 -20.4375q4.359375 0 6.6875 2.9375q2.34375 2.9375 2.34375 8.015625q0 4.96875 -2.390625 7.984375q-2.375 3.015625 -6.6875 3.015625q-4.359375 0 -6.71875 -2.9375q-2.359375 -2.9375 -2.359375 -8.015625q0 -5.0 2.375 -8.0q2.390625 -3.0 6.75 -3.0zm0 2.75q-2.765625 0 -4.125 2.046875q-1.359375 2.03125 -1.359375 6.203125q0 4.15625 1.328125 6.1875q1.34375 2.015625 4.109375 2.015625q2.765625 0 4.09375 -2.015625q1.34375 -2.03125 1.34375 -6.234375q0 -4.15625 -1.34375 -6.171875q-1.328125 -2.03125 -4.046875 -2.03125zm30.1875 -2.75q1.28125 0 2.96875 0.4375l-0.484375 7.15625l-2.71875 0l0 -4.515625l-0.203125 0q-4.875 0 -6.921875 6.953125l0 8.890625l4.28125 0l0 2.59375l-10.953125 0l0 -2.59375l3.3125 0l0 -15.890625l-3.3125 0l0 -2.59375l5.84375 0l0.640625 5.0q1.265625 -2.71875 3.046875 -4.078125q1.78125 -1.359375 4.5 -1.359375zm24.890625 16.921875q0 1.234375 0.390625 1.8125q0.40625 0.578125 1.328125 0.859375l-0.84375 2.40625q-3.078125 -0.40625 -3.84375 -3.0q-1.109375 1.4375 -2.8125 2.203125q-1.703125 0.75 -3.78125 0.75q-3.15625 0 -4.984375 -1.75q-1.8125 -1.765625 -1.8125 -4.734375q0 -3.234375 2.53125 -4.984375q2.546875 -1.765625 7.296875 -1.765625l3.125 0l0 -1.71875q0 -2.25 -1.28125 -3.21875q-1.28125 -0.984375 -3.71875 -0.984375q-2.40625 0 -5.484375 1.078125l-0.921875 -2.5625q3.734375 -1.3125 6.921875 -1.3125q3.84375 0 5.859375 1.796875q2.03125 1.796875 2.03125 5.0l0 10.125zm-8.71875 2.515625q1.546875 0 2.96875 -0.796875q1.421875 -0.8125 2.34375 -2.203125l0 -5.40625l-3.03125 0q-3.375 0 -4.859375 1.125q-1.46875 1.125 -1.46875 3.28125q0 4.0 4.046875 4.0zm35.74994 -18.046875q-1.203125 0.40625 -2.609375 0.515625q-1.390625 0.09375 -3.546875 0.09375q3.6875 1.671875 3.6875 5.3125q0 3.203125 -2.125 5.1875q-2.125 1.96875 -5.796875 1.96875q-1.890625 0 -3.171875 -0.4375q-0.46875 0.359375 -0.78125 0.921875q-0.296875 0.5625 -0.296875 1.125q0 1.796875 2.796875 1.796875l3.8125 0q2.078125 0 3.765625 0.75q1.703125 0.734375 2.6875 2.0625q0.984375 1.3125 0.984375 2.90625q0 3.078125 -2.625 4.734375q-2.625 1.671875 -7.421875 1.671875q-4.875 0 -6.875 -1.53125q-2.0 -1.515625 -2.0 -4.828125l3.046875 0q0 1.3125 0.5 2.09375q0.5 0.78125 1.75 1.15625q1.265625 0.390625 3.578125 0.390625q3.40625 0 5.015625 -0.890625q1.625 -0.875 1.625 -2.59375q0 -1.4375 -1.328125 -2.21875q-1.3125 -0.78125 -3.390625 -0.78125l-3.75 0q-2.609375 0 -3.96875 -1.140625q-1.359375 -1.140625 -1.359375 -2.859375q0 -1.0 0.59375 -1.984375q0.609375 -0.984375 1.734375 -1.703125q-1.8125 -0.90625 -2.671875 -2.328125q-0.859375 -1.421875 -0.859375 -3.46875q0 -2.109375 1.0625 -3.765625q1.0625 -1.671875 2.953125 -2.609375q1.90625 -0.9375 4.390625 -0.9375q3.59375 0 5.46875 -0.390625q1.890625 -0.40625 4.125 -1.375l1.0 3.15625zm-10.640625 1.078125q-2.4375 0 -3.6875 1.3125q-1.234375 1.296875 -1.234375 3.53125q0 2.25 1.265625 3.59375q1.265625 1.328125 3.734375 1.328125q2.25 0 3.421875 -1.296875q1.1875 -1.296875 1.1875 -3.65625q0 -4.8125 -4.6875 -4.8125zm19.171875 9.6875q0.109375 3.484375 1.8125 5.25q1.703125 1.75 4.296875 1.75q1.5625 0 2.859375 -0.453125q1.296875 -0.46875 2.78125 -1.421875l1.5625 2.234375q-1.484375 1.15625 -3.390625 1.796875q-1.890625 0.640625 -3.8125 0.640625q-4.5625 0 -7.109375 -2.96875q-2.53125 -2.984375 -2.53125 -7.984375q0 -3.171875 1.125 -5.671875q1.125 -2.5 3.203125 -3.90625q2.078125 -1.421875 4.828125 -1.421875q4.0 0 6.296875 2.78125q2.3125 2.78125 2.3125 7.578125q0 0.921875 -0.078125 1.796875l-14.15625 0zm5.671875 -9.40625q-2.4375 0 -3.96875 1.75q-1.515625 1.734375 -1.703125 5.09375l10.953125 0q-0.046875 -3.3125 -1.453125 -5.078125q-1.390625 -1.765625 -3.828125 -1.765625z" fill-rule="nonzero"/><path fill="#ffffff" d="m174.8189 476.98425l610.3622 0l0 150.33069l-610.3622 0z" fill-rule="evenodd"/><path stroke="#000000" stroke-width="4.0" stroke-linejoin="round" stroke-linecap="butt" stroke-dasharray="32.0,12.0" d="m174.8189 476.98425l610.3622 0l0 150.33069l-610.3622 0z" fill-rule="evenodd"/><path fill="#000000" d="m417.5938 558.7059q0 4.15625 -2.984375 6.0q-2.96875 1.84375 -7.328125 1.84375l-7.4375 0l0 -27.5625l6.796875 0q4.203125 0 6.984375 1.625q2.78125 1.625 2.78125 5.34375q0 2.46875 -1.484375 3.96875q-1.484375 1.5 -3.6875 2.03125q6.359375 1.078125 6.359375 6.75zm-4.75 -12.5625q0 -2.28125 -1.40625 -3.296875q-1.390625 -1.015625 -4.0 -1.015625l-4.125 0l0 8.875l4.453125 0q5.078125 0 5.078125 -4.5625zm1.078125 12.6875q0 -2.921875 -1.578125 -4.078125q-1.578125 -1.15625 -4.34375 -1.15625l-4.6875 0l0 10.078125l4.5625 0q2.53125 0 4.28125 -1.03125q1.765625 -1.046875 1.765625 -3.8125zm24.3125 -13.796875q1.28125 0 2.96875 0.4375l-0.484375 7.15625l-2.71875 0l0 -4.515625l-0.203125 0q-4.875 0 -6.921875 6.953125l0 8.890625l4.28125 0l0 2.59375l-10.9531555 0l0 -2.59375l3.3125 0l0 -15.890625l-3.3125 0l0 -2.59375l5.84375 0l0.640625 5.0q1.2656555 -2.71875 3.0469055 -4.078125q1.78125 -1.359375 4.5 -1.359375zm17.81247 0q4.359375 0 6.6875 2.9375q2.34375 2.9375 2.34375 8.015625q0 4.96875 -2.390625 7.984375q-2.375 3.015625 -6.6875 3.015625q-4.359375 0 -6.71875 -2.9375q-2.359375 -2.9375 -2.359375 -8.015625q0 -5.0 2.375 -8.0q2.390625 -3.0 6.75 -3.0zm0 2.75q-2.765625 0 -4.125 2.046875q-1.359375 2.03125 -1.359375 6.203125q0 4.15625 1.328125 6.1875q1.34375 2.015625 4.109375 2.015625q2.765625 0 4.09375 -2.015625q1.34375 -2.03125 1.34375 -6.234375q0 -4.15625 -1.34375 -6.171875q-1.328125 -2.03125 -4.046875 -2.03125zm26.828094 18.765625l-2.75 -15.4375l-2.96875 15.4375l-4.640625 0l-3.796875 -21.078125l3.40625 0l2.71875 19.0l3.359375 -16.328125l3.953125 0l3.15625 16.328125l2.734375 -19.0l3.234375 0l-3.640625 21.078125l-4.765625 0zm20.328125 -2.3125q2.390625 0 3.796875 -0.921875q1.40625 -0.921875 1.40625 -2.453125q0 -1.03125 -0.359375 -1.6875q-0.359375 -0.671875 -1.453125 -1.203125q-1.078125 -0.546875 -3.28125 -1.109375q-3.671875 -0.90625 -5.4375 -2.203125q-1.75 -1.3125 -1.75 -3.875q0 -2.640625 2.1875 -4.1875q2.203125 -1.5625 5.8125 -1.5625q4.390625 0 7.671875 2.3125l-1.515625 2.328125q-1.328125 -0.921875 -2.765625 -1.421875q-1.4375 -0.5 -3.3125 -0.5q-4.5625 0 -4.5625 2.75q0 0.96875 0.5 1.578125q0.5 0.59375 1.640625 1.0625q1.140625 0.453125 3.421875 1.09375q3.4375 0.90625 5.140625 2.328125q1.703125 1.421875 1.703125 4.140625q0 3.15625 -2.5625 4.71875q-2.5625 1.5625 -6.28125 1.5625q-4.96875 0 -8.25 -2.84375l1.890625 -2.1875q1.28125 1.03125 2.921875 1.65625q1.640625 0.625 3.4375 0.625zm19.484375 -7.046875q0.109375 3.484375 1.8125 5.25q1.703125 1.75 4.296875 1.75q1.5625 0 2.859375 -0.453125q1.296875 -0.46875 2.78125 -1.421875l1.5625 2.234375q-1.484375 1.15625 -3.390625 1.796875q-1.890625 0.640625 -3.8125 0.640625q-4.5625 0 -7.109375 -2.96875q-2.53125 -2.984375 -2.53125 -7.984375q0 -3.171875 1.125 -5.671875q1.125 -2.5 3.203125 -3.90625q2.078125 -1.421875 4.828125 -1.421875q4.0 0 6.296875 2.78125q2.3125 2.78125 2.3125 7.578125q0 0.921875 -0.078125 1.796875l-14.15625 0zm5.671875 -9.40625q-2.4375 0 -3.96875 1.75q-1.515625 1.734375 -1.703125 5.09375l10.953125 0q-0.046875 -3.3125 -1.453125 -5.078125q-1.390625 -1.765625 -3.828125 -1.765625zm29.874939 -2.75q1.28125 0 2.96875 0.4375l-0.484375 7.15625l-2.71875 0l0 -4.515625l-0.203125 0q-4.875 0 -6.921875 6.953125l0 8.890625l4.28125 0l0 2.59375l-10.953125 0l0 -2.59375l3.3125 0l0 -15.890625l-3.3125 0l0 -2.59375l5.84375 0l0.640625 5.0q1.265625 -2.71875 3.046875 -4.078125q1.78125 -1.359375 4.5 -1.359375z" fill-rule="nonzero"/><path fill="#000000" fill-opacity="0.0" d="m38.430447 242.43832l415.55905 0l0 133.38583l-415.55905 0z" fill-rule="evenodd"/><path fill="#000000" d="m57.930447 259.06708q1.875 0 3.21875 0.484375q1.359375 0.484375 2.640625 1.484375l-1.4375 1.671875q-1.78125 -1.5 -4.25 -1.5q-2.71875 0 -4.4375 1.984375q-1.71875 1.984375 -1.71875 6.28125q0 4.28125 1.671875 6.28125q1.671875 2.0 4.453125 2.0q1.53125 0 2.609375 -0.4375q1.09375 -0.453125 2.09375 -1.234375l1.3124962 1.640625q-2.2499962 2.203125 -6.046871 2.203125q-2.484375 0 -4.484375 -1.21875q-1.984375 -1.21875 -3.140625 -3.5625q-1.140625 -2.34375 -1.140625 -5.671875q0 -3.28125 1.15625 -5.640625q1.171875 -2.359375 3.140625 -3.5625q1.984375 -1.203125 4.359375 -1.203125zm15.924984 4.75q3.203125 0 4.90625 2.15625q1.71875 2.15625 1.71875 5.875q0 3.640625 -1.75 5.859375q-1.734375 2.21875 -4.90625 2.21875q-3.1875 0 -4.921875 -2.15625q-1.734375 -2.15625 -1.734375 -5.890625q0 -3.65625 1.734375 -5.859375q1.75 -2.203125 4.953125 -2.203125zm0 2.03125q-2.03125 0 -3.03125 1.5q-0.984375 1.484375 -0.984375 4.53125q0 3.0625 0.984375 4.546875q0.984375 1.46875 3.0 1.46875q2.03125 0 3.0 -1.46875q0.984375 -1.484375 0.984375 -4.578125q0 -3.046875 -0.984375 -4.515625q-0.96875 -1.484375 -2.96875 -1.484375zm21.878113 -2.03125q1.3125 0 2.140625 0.921875q0.84375 0.921875 0.84375 3.359375l0 11.5l-2.25 0l0 -11.09375q0 -1.609375 -0.203125 -2.171875q-0.203125 -0.578125 -1.0 -0.578125q-1.5 0 -2.703125 1.84375l0 12.0l-2.28125 0l0 -11.09375q0 -1.609375 -0.203125 -2.171875q-0.203125 -0.578125 -1.0 -0.578125q-1.5 0 -2.703125 1.84375l0 12.0l-2.25 0l0 -15.453125l1.90625 0l0.171875 1.8125q0.703125 -1.015625 1.484375 -1.578125q0.78125 -0.5625 1.859375 -0.5625q2.171875 0 2.78125 2.0625q0.703125 -1.0 1.5 -1.53125q0.796875 -0.53125 1.90625 -0.53125zm14.346863 0q5.59375 0 5.59375 8.03125q0 3.671875 -1.53125 5.875q-1.515625 2.203125 -4.421875 2.203125q-2.515625 0 -4.109375 -1.765625l0 7.359375l-2.453125 0.296875l0 -21.671875l2.109375 0l0.203125 2.171875q0.84375 -1.203125 2.03125 -1.84375q1.1875 -0.65625 2.578125 -0.65625zm-0.59375 2.0q-1.171875 0 -2.15625 0.703125q-0.984375 0.703125 -1.71875 1.75l0 7.65625q0.625 0.921875 1.546875 1.4375q0.921875 0.5 2.0 0.5q1.9375 0 2.890625 -1.46875q0.953125 -1.484375 0.953125 -4.546875q0 -3.046875 -0.84375 -4.53125q-0.84375 -1.5 -2.671875 -1.5zm13.721863 9.296875q0 1.5 0.625 2.1875q0.640625 0.6875 1.984375 0.6875q1.234375 0 2.3750076 -0.703125q1.15625 -0.703125 1.828125 -1.765625l0 -11.375l2.453125 0l0 15.453125l-2.109375 0l-0.203125 -2.078125q-0.90625 1.140625 -2.2500076 1.78125q-1.328125 0.625 -2.703125 0.625q-2.203125 0 -3.328125 -1.171875q-1.125 -1.1875 -1.125 -3.375l0 -11.234375l2.453125 0l0 10.96875zm27.424995 3.6875q-0.796875 0.53125 -1.921875 0.828125q-1.125 0.296875 -2.234375 0.296875q-2.4375 0 -3.828125 -1.28125q-1.375 -1.28125 -1.375 -3.359375l0 -9.203125l-3.546875 0l0 -1.9375l3.546875 0l0 -3.5l2.46875 -0.28125l0 3.78125l5.375 0l-0.328125 1.9375l-5.046875 0l0 9.171875q0 1.328125 0.703125 1.96875q0.703125 0.640625 2.265625 0.640625q1.578125 0 2.953125 -0.734375l0.96875 1.671875zm16.393738 -2.578125q0 0.90625 0.296875 1.34375q0.296875 0.421875 0.96875 0.625l-0.625 1.765625q-2.25 -0.296875 -2.8125 -2.203125q-0.8125 1.046875 -2.0625 1.609375q-1.25 0.5625 -2.765625 0.5625q-2.328125 0 -3.65625 -1.296875q-1.328125 -1.296875 -1.328125 -3.453125q0 -2.375 1.859375 -3.671875q1.859375 -1.296875 5.34375 -1.296875l2.296875 0l0 -1.25q0 -1.640625 -0.9375 -2.359375q-0.9375 -0.71875 -2.734375 -0.71875q-1.765625 0 -4.015625 0.78125l-0.671875 -1.875q2.71875 -0.96875 5.0625 -0.96875q2.828125 0 4.296875 1.328125q1.484375 1.3125 1.484375 3.65625l0 7.421875zm-6.390625 1.84375q1.140625 0 2.171875 -0.578125q1.046875 -0.59375 1.734375 -1.609375l0 -3.96875l-2.234375 0q-2.46875 0 -3.5625 0.828125q-1.078125 0.8125 -1.078125 2.40625q0 2.921875 2.96875 2.921875zm25.190613 0.734375q-0.796875 0.53125 -1.921875 0.828125q-1.125 0.296875 -2.234375 0.296875q-2.4375 0 -3.828125 -1.28125q-1.375 -1.28125 -1.375 -3.359375l0 -9.203125l-3.546875 0l0 -1.9375l3.546875 0l0 -3.5l2.46875 -0.28125l0 3.78125l5.375 0l-0.328125 1.9375l-5.046875 0l0 9.171875q0 1.328125 0.703125 1.96875q0.703125 0.640625 2.265625 0.640625q1.578125 0 2.953125 -0.734375l0.96875 1.671875zm11.174988 -21.875q0.828125 0 1.3125 0.484375q0.5 0.484375 0.5 1.25q0 0.765625 -0.5 1.25q-0.484375 0.484375 -1.3125 0.484375q-0.796875 0 -1.28125 -0.484375q-0.484375 -0.484375 -0.484375 -1.25q0 -0.765625 0.484375 -1.25q0.484375 -0.484375 1.28125 -0.484375zm1.96875 20.703125l4.34375 0l0 1.96875l-11.5625 0l0 -1.96875l4.75 0l0 -11.515625l-4.59375 0l0 -1.96875l7.0625 0l0 13.484375zm15.659363 -13.8125q3.203125 0 4.90625 2.15625q1.71875 2.15625 1.71875 5.875q0 3.640625 -1.75 5.859375q-1.734375 2.21875 -4.90625 2.21875q-3.1875 0 -4.921875 -2.15625q-1.734375 -2.15625 -1.734375 -5.890625q0 -3.65625 1.734375 -5.859375q1.75 -2.203125 4.953125 -2.203125zm0 2.03125q-2.03125 0 -3.03125 1.5q-0.984375 1.484375 -0.984375 4.53125q0 3.0625 0.984375 4.546875q0.984375 1.46875 3.0 1.46875q2.03125 0 3.0 -1.46875q0.984375 -1.484375 0.984375 -4.578125q0 -3.046875 -0.984375 -4.515625q-0.96875 -1.484375 -2.96875 -1.484375zm11.706238 -1.703125l2.109375 0l0.203125 2.171875q0.90625 -1.171875 2.296875 -1.828125q1.390625 -0.671875 2.8125 -0.671875q4.328125 0 4.328125 4.578125l0 11.203125l-2.453125 0l0 -9.390625q0 -1.71875 -0.203125 -2.625q-0.1875 -0.921875 -0.75 -1.359375q-0.546875 -0.4375 -1.6875 -0.4375q-1.265625 0 -2.390625 0.765625q-1.109375 0.765625 -1.8125 1.8125l0 11.234375l-2.453125 0l0 -15.453125zm23.456238 10.609375q1.0 0 1.6875 0.703125q0.6875 0.6875 0.6875 1.640625q0 1.09375 -0.5625 2.328125l-2.375 5.421875l-2.21875 0l1.375 -5.78125q-0.40625 -0.3125 -0.671875 -0.84375q-0.265625 -0.53125 -0.265625 -1.09375q0 -0.984375 0.671875 -1.671875q0.671875 -0.703125 1.671875 -0.703125z" fill-rule="nonzero"/><path fill="#000000" d="m63.649197 309.3952q0 5.75 -2.640625 7.984375q-2.640625 2.21875 -6.515625 2.21875l-4.625 0l0 -20.203125l4.3125 0q4.25 0 6.859375 2.140625q2.609375 2.140625 2.609375 7.859375zm-2.734375 0q0 -3.28125 -0.890625 -5.03125q-0.890625 -1.75 -2.21875 -2.3125q-1.3125 -0.578125 -3.015625 -0.578125l-2.375 0l0 16.078125l2.40625 0q2.609375 0 4.34375 -1.796875q1.75 -1.8125 1.75 -6.359375zm18.128109 6.828125q0 0.90625 0.296875 1.34375q0.296875 0.421875 0.96875 0.625l-0.625 1.765625q-2.25 -0.296875 -2.8125 -2.203125q-0.8125 1.046875 -2.0625 1.609375q-1.25 0.5625 -2.765625 0.5625q-2.328125 0 -3.65625 -1.296875q-1.328125 -1.296875 -1.328125 -3.453125q0 -2.375 1.859375 -3.671875q1.859375 -1.296875 5.34375 -1.296875l2.296875 0l0 -1.25q0 -1.640625 -0.9375 -2.359375q-0.9375 -0.71875 -2.734375 -0.71875q-1.765625 0 -4.015625 0.78125l-0.671875 -1.875q2.71875 -0.96875 5.0625 -0.96875q2.828125 0 4.296875 1.328125q1.484375 1.3125 1.484375 3.65625l0 7.421875zm-6.390625 1.84375q1.140625 0 2.171875 -0.578125q1.046875 -0.59375 1.734375 -1.609375l0 -3.96875l-2.234375 0q-2.46875 0 -3.5625 0.828125q-1.078125 0.8125 -1.078125 2.40625q0 2.921875 2.96875 2.921875zm25.190613 0.734375q-0.796875 0.53125 -1.921875 0.828125q-1.125 0.296875 -2.234375 0.296875q-2.4375 0 -3.828125 -1.28125q-1.375 -1.28125 -1.375 -3.359375l0 -9.203125l-3.546875 0l0 -1.9375l3.546875 0l0 -3.5l2.46875 -0.28125l0 3.78125l5.375 0l-0.328125 1.9375l-5.046875 0l0 9.171875q0 1.328125 0.703125 1.96875q0.703125 0.640625 2.265625 0.640625q1.578125 0 2.953125 -0.734375l0.96875 1.671875zm16.393738 -2.578125q0 0.90625 0.296875 1.34375q0.296875 0.421875 0.96875 0.625l-0.625 1.765625q-2.25 -0.296875 -2.8125 -2.203125q-0.8125 1.046875 -2.0625 1.609375q-1.25 0.5625 -2.765625 0.5625q-2.328125 0 -3.65625 -1.296875q-1.328125 -1.296875 -1.328125 -3.453125q0 -2.375 1.859375 -3.671875q1.859375 -1.296875 5.34375 -1.296875l2.296875 0l0 -1.25q0 -1.640625 -0.9375 -2.359375q-0.9375 -0.71875 -2.734375 -0.71875q-1.765625 0 -4.015625 0.78125l-0.671875 -1.875q2.71875 -0.96875 5.0625 -0.96875q2.828125 0 4.296875 1.328125q1.484375 1.3125 1.484375 3.65625l0 7.421875zm-6.390625 1.84375q1.140625 0 2.171875 -0.578125q1.046875 -0.59375 1.734375 -1.609375l0 -3.96875l-2.234375 0q-2.46875 0 -3.5625 0.828125q-1.078125 0.8125 -1.078125 2.40625q0 2.921875 2.96875 2.921875zm15.362488 -11.90625q1.796875 -2.34375 4.4375 -2.34375q2.9531326 0 4.3593826 2.109375q1.421875 2.109375 1.421875 5.921875q0 3.640625 -1.625 5.859375q-1.609375 2.21875 -4.5156326 2.21875q-2.671875 0 -4.1875 -1.9375l-0.171875 1.609375l-2.171875 0l0 -21.671875l2.453125 -0.296875l0 8.53125zm3.53125 11.765625q1.9218826 0 2.9687576 -1.515625q1.046875 -1.53125 1.046875 -4.5625q0 -2.984375 -0.921875 -4.5q-0.921875 -1.53125 -2.7500076 -1.53125q-1.171875 0 -2.15625 0.703125q-0.984375 0.703125 -1.71875 1.75l0 7.65625q0.625 0.9375 1.53125 1.46875q0.90625 0.53125 2.0 0.53125zm22.69062 -1.703125q0 0.90625 0.296875 1.34375q0.296875 0.421875 0.96875 0.625l-0.625 1.765625q-2.25 -0.296875 -2.8125 -2.203125q-0.8125 1.046875 -2.0625 1.609375q-1.25 0.5625 -2.765625 0.5625q-2.328125 0 -3.65625 -1.296875q-1.328125 -1.296875 -1.328125 -3.453125q0 -2.375 1.859375 -3.671875q1.859375 -1.296875 5.34375 -1.296875l2.296875 0l0 -1.25q0 -1.640625 -0.9375 -2.359375q-0.9375 -0.71875 -2.734375 -0.71875q-1.765625 0 -4.015625 0.78125l-0.671875 -1.875q2.71875 -0.96875 5.0625 -0.96875q2.828125 0 4.296875 1.328125q1.484375 1.3125 1.484375 3.65625l0 7.421875zm-6.390625 1.84375q1.140625 0 2.171875 -0.578125q1.046875 -0.59375 1.734375 -1.609375l0 -3.96875l-2.234375 0q-2.46875 0 -3.5625 0.828125q-1.078125 0.8125 -1.078125 2.40625q0 2.921875 2.96875 2.921875zm18.190613 -0.171875q1.75 0 2.78125 -0.671875q1.03125 -0.671875 1.03125 -1.796875q0 -0.75 -0.265625 -1.234375q-0.265625 -0.484375 -1.0625 -0.875q-0.796875 -0.40625 -2.40625 -0.8125q-2.6875 -0.671875 -3.984375 -1.625q-1.296875 -0.953125 -1.296875 -2.84375q0 -1.921875 1.609375 -3.0625q1.625 -1.15625 4.265625 -1.15625q3.21875 0 5.625 1.703125l-1.109375 1.703125q-0.96875 -0.671875 -2.03125 -1.03125q-1.046875 -0.375 -2.4375 -0.375q-3.328125 0 -3.328125 2.015625q0 0.703125 0.359375 1.15625q0.359375 0.4375 1.1875 0.78125q0.84375 0.328125 2.515625 0.796875q2.53125 0.671875 3.765625 1.71875q1.25 1.03125 1.25 3.03125q0 2.3125 -1.875 3.46875q-1.875 1.140625 -4.59375 1.140625q-3.640625 0 -6.046875 -2.09375l1.375 -1.609375q0.9375 0.765625 2.140625 1.21875q1.203125 0.453125 2.53125 0.453125zm14.268738 -5.15625q0.09375 2.546875 1.34375 3.84375q1.25 1.28125 3.15625 1.28125q1.140625 0 2.09375 -0.328125q0.953125 -0.34375 2.03125 -1.046875l1.140625 1.640625q-1.078125 0.859375 -2.46875 1.328125q-1.390625 0.46875 -2.796875 0.46875q-3.34375 0 -5.21875 -2.1875q-1.859375 -2.1875 -1.859375 -5.859375q0 -2.3125 0.8125 -4.140625q0.828125 -1.84375 2.359375 -2.875q1.53125 -1.046875 3.546875 -1.046875q2.9375 0 4.625 2.046875q1.6875 2.03125 1.6875 5.546875q0 0.671875 -0.0625 1.328125l-10.390625 0zm4.171875 -6.890625q-1.796875 0 -2.90625 1.28125q-1.109375 1.265625 -1.265625 3.734375l8.046875 0q-0.03125 -2.4375 -1.0625 -3.71875q-1.03125 -1.296875 -2.8125 -1.296875zm16.753113 12.046875q1.75 0 2.78125 -0.671875q1.03125 -0.671875 1.03125 -1.796875q0 -0.75 -0.265625 -1.234375q-0.265625 -0.484375 -1.0625 -0.875q-0.796875 -0.40625 -2.40625 -0.8125q-2.6875 -0.671875 -3.984375 -1.625q-1.296875 -0.953125 -1.296875 -2.84375q0 -1.921875 1.609375 -3.0625q1.625 -1.15625 4.265625 -1.15625q3.21875 0 5.625 1.703125l-1.109375 1.703125q-0.96875 -0.671875 -2.03125 -1.03125q-1.046875 -0.375 -2.4375 -0.375q-3.328125 0 -3.328125 2.015625q0 0.703125 0.359375 1.15625q0.359375 0.4375 1.1875 0.78125q0.84375 0.328125 2.515625 0.796875q2.53125 0.671875 3.765625 1.71875q1.25 1.03125 1.25 3.03125q0 2.3125 -1.875 3.46875q-1.875 1.140625 -4.59375 1.140625q-3.640625 0 -6.046875 -2.09375l1.375 -1.609375q0.9375 0.765625 2.140625 1.21875q1.203125 0.453125 2.53125 0.453125zm18.174988 -3.140625q1.0 0 1.6875 0.703125q0.6875 0.6875 0.6875 1.640625q0 1.09375 -0.5625 2.328125l-2.375 5.421875l-2.21875 0l1.375 -5.78125q-0.40625 -0.3125 -0.671875 -0.84375q-0.265625 -0.53125 -0.265625 -1.09375q0 -0.984375 0.671875 -1.671875q0.671875 -0.703125 1.671875 -0.703125z" fill-rule="nonzero"/><path fill="#000000" d="m57.930447 339.06708q1.875 0 3.21875 0.484375q1.359375 0.484375 2.640625 1.484375l-1.4375 1.671875q-1.78125 -1.5 -4.25 -1.5q-2.71875 0 -4.4375 1.984375q-1.71875 1.984375 -1.71875 6.28125q0 4.28125 1.671875 6.28125q1.671875 2.0 4.453125 2.0q1.53125 0 2.609375 -0.4375q1.09375 -0.453125 2.09375 -1.234375l1.3124962 1.640625q-2.2499962 2.203125 -6.046871 2.203125q-2.484375 0 -4.484375 -1.21875q-1.984375 -1.21875 -3.140625 -3.5625q-1.140625 -2.34375 -1.140625 -5.671875q0 -3.28125 1.15625 -5.640625q1.171875 -2.359375 3.140625 -3.5625q1.984375 -1.203125 4.359375 -1.203125zm16.065609 16.71875q0 2.078125 2.5625 2.078125q1.203125 0 2.578125 -0.53125l0.640625 1.796875q-1.46875 0.796875 -3.65625 0.796875q-2.09375 0 -3.34375 -1.140625q-1.234375 -1.15625 -1.234375 -3.125l0 -15.765625l-4.75 0l0 -1.96875l7.203125 0l0 17.859375zm17.456238 -11.96875q3.203125 0 4.90625 2.15625q1.71875 2.15625 1.71875 5.875q0 3.640625 -1.75 5.859375q-1.734375 2.21875 -4.90625 2.21875q-3.1875 0 -4.921875 -2.15625q-1.734375 -2.15625 -1.734375 -5.890625q0 -3.65625 1.734375 -5.859375q1.75 -2.203125 4.953125 -2.203125zm0 2.03125q-2.03125 0 -3.03125 1.5q-0.984375 1.484375 -0.984375 4.53125q0 3.0625 0.984375 4.546875q0.984375 1.46875 3.0 1.46875q2.03125 0 3.0 -1.46875q0.984375 -1.484375 0.984375 -4.578125q0 -3.046875 -0.984375 -4.515625q-0.96875 -1.484375 -2.96875 -1.484375zm14.159363 9.265625q0 1.5 0.625 2.1875q0.640625 0.6875 1.984375 0.6875q1.234375 0 2.375 -0.703125q1.15625 -0.703125 1.828125 -1.765625l0 -11.375l2.453125 0l0 15.453125l-2.109375 0l-0.203125 -2.078125q-0.90625 1.140625 -2.25 1.78125q-1.328125 0.625 -2.703125 0.625q-2.203125 0 -3.328125 -1.171875q-1.125 -1.1875 -1.125 -3.375l0 -11.234375l2.453125 0l0 10.96875zm26.862495 -17.1875l0 21.671875l-2.15625 0l-0.234375 -2.03125q-0.859375 1.1875 -1.96875 1.78125q-1.1093826 0.578125 -2.4062576 0.578125q-2.9375 0 -4.421875 -2.140625q-1.46875 -2.140625 -1.46875 -5.90625q0 -2.3125 0.71875 -4.140625q0.734375 -1.84375 2.09375 -2.875q1.375 -1.046875 3.21875 -1.046875q2.5625076 0 4.1718826 1.84375l0 -8.03125l2.453125 0.296875zm-5.9687576 7.890625q-1.9375 0 -2.984375 1.53125q-1.046875 1.515625 -1.046875 4.53125q0 3.0 0.953125 4.546875q0.953125 1.53125 2.78125 1.53125q2.2031326 0 3.8125076 -2.46875l0 -7.6875q-0.640625 -0.953125 -1.5625 -1.46875q-0.9062576 -0.515625 -1.9531326 -0.515625zm38.55311 -8.1875q2.203125 0 4.203125 0.828125l-0.796875 1.84375q-1.46875 -0.640625 -3.3125 -0.640625q-3.21875 0 -3.21875 2.546875l0 3.140625l5.21875 0l-0.265625 1.96875l-4.953125 0l0 12.28125l-2.5 0l0 -12.28125l-3.671875 0l0 -1.96875l3.671875 0l0 -3.078125q0 -2.09375 1.59375 -3.359375q1.609375 -1.28125 4.03125 -1.28125zm10.940613 17.484375q0 1.5 0.625 2.1875q0.640625 0.6875 1.984375 0.6875q1.234375 0 2.375 -0.703125q1.15625 -0.703125 1.828125 -1.765625l0 -11.375l2.453125 0l0 15.453125l-2.109375 0l-0.203125 -2.078125q-0.90625 1.140625 -2.25 1.78125q-1.328125 0.625 -2.703125 0.625q-2.203125 0 -3.328125 -1.171875q-1.125 -1.1875 -1.125 -3.375l0 -11.234375l2.453125 0l0 10.96875zm15.143738 -10.96875l2.109375 0l0.203125 2.171875q0.90625 -1.171875 2.296875 -1.828125q1.390625 -0.671875 2.8125 -0.671875q4.328125 0 4.328125 4.578125l0 11.203125l-2.453125 0l0 -9.390625q0 -1.71875 -0.203125 -2.625q-0.1875 -0.921875 -0.75 -1.359375q-0.546875 -0.4375 -1.6875 -0.4375q-1.265625 0 -2.390625 0.765625q-1.109375 0.765625 -1.8125 1.8125l0 11.234375l-2.453125 0l0 -15.453125zm24.596863 13.671875q2.03125 0 4.015625 -1.359375l1.1875 1.609375q-0.96875 0.859375 -2.40625 1.359375q-1.4375 0.5 -2.796875 0.5q-3.421875 0 -5.34375 -2.15625q-1.921875 -2.15625 -1.921875 -5.828125q0 -2.3125 0.859375 -4.15625q0.875 -1.859375 2.515625 -2.90625q1.640625 -1.0625 3.890625 -1.0625q3.0 0 5.171875 1.828125l-1.203125 1.609375q-2.03125 -1.359375 -4.0 -1.359375q-2.078125 0 -3.328125 1.546875q-1.234375 1.546875 -1.234375 4.5q0 2.96875 1.234375 4.421875q1.25 1.453125 3.359375 1.453125zm22.878113 0.984375q-0.796875 0.53125 -1.921875 0.828125q-1.125 0.296875 -2.234375 0.296875q-2.4375 0 -3.828125 -1.28125q-1.375 -1.28125 -1.375 -3.359375l0 -9.203125l-3.546875 0l0 -1.9375l3.546875 0l0 -3.5l2.46875 -0.28125l0 3.78125l5.375 0l-0.328125 1.9375l-5.046875 0l0 9.171875q0 1.328125 0.703125 1.96875q0.703125 0.640625 2.265625 0.640625q1.578125 0 2.953125 -0.734375l0.96875 1.671875zm11.174988 -21.875q0.828125 0 1.3125 0.484375q0.5 0.484375 0.5 1.25q0 0.765625 -0.5 1.25q-0.484375 0.484375 -1.3125 0.484375q-0.796875 0 -1.28125 -0.484375q-0.484375 -0.484375 -0.484375 -1.25q0 -0.765625 0.484375 -1.25q0.484375 -0.484375 1.28125 -0.484375zm1.96875 20.703125l4.34375 0l0 1.96875l-11.5625 0l0 -1.96875l4.75 0l0 -11.515625l-4.59375 0l0 -1.96875l7.0625 0l0 13.484375zm15.659363 -13.8125q3.203125 0 4.90625 2.15625q1.71875 2.15625 1.71875 5.875q0 3.640625 -1.75 5.859375q-1.734375 2.21875 -4.90625 2.21875q-3.1875 0 -4.921875 -2.15625q-1.734375 -2.15625 -1.734375 -5.890625q0 -3.65625 1.734375 -5.859375q1.75 -2.203125 4.953125 -2.203125zm0 2.03125q-2.03125 0 -3.03125 1.5q-0.984375 1.484375 -0.984375 4.53125q0 3.0625 0.984375 4.546875q0.984375 1.46875 3.0 1.46875q2.03125 0 3.0 -1.46875q0.984375 -1.484375 0.984375 -4.578125q0 -3.046875 -0.984375 -4.515625q-0.96875 -1.484375 -2.96875 -1.484375zm11.706238 -1.703125l2.109375 0l0.203125 2.171875q0.90625 -1.171875 2.296875 -1.828125q1.390625 -0.671875 2.8125 -0.671875q4.328125 0 4.328125 4.578125l0 11.203125l-2.453125 0l0 -9.390625q0 -1.71875 -0.203125 -2.625q-0.1875 -0.921875 -0.75 -1.359375q-0.546875 -0.4375 -1.6875 -0.4375q-1.265625 0 -2.390625 0.765625q-1.109375 0.765625 -1.8125 1.8125l0 11.234375l-2.453125 0l0 -15.453125zm22.878113 13.75q1.75 0 2.78125 -0.671875q1.03125 -0.671875 1.03125 -1.796875q0 -0.75 -0.265625 -1.234375q-0.265625 -0.484375 -1.0625 -0.875q-0.796875 -0.40625 -2.40625 -0.8125q-2.6875 -0.671875 -3.984375 -1.625q-1.296875 -0.953125 -1.296875 -2.84375q0 -1.921875 1.609375 -3.0625q1.625 -1.15625 4.265625 -1.15625q3.21875 0 5.625 1.703125l-1.109375 1.703125q-0.96875 -0.671875 -2.03125 -1.03125q-1.046875 -0.375 -2.4375 -0.375q-3.328125 0 -3.328125 2.015625q0 0.703125 0.359375 1.15625q0.359375 0.4375 1.1875 0.78125q0.84375 0.328125 2.515625 0.796875q2.53125 0.671875 3.765625 1.71875q1.25 1.03125 1.25 3.03125q0 2.3125 -1.875 3.46875q-1.875 1.140625 -4.59375 1.140625q-3.640625 0 -6.046875 -2.09375l1.375 -1.609375q0.9375 0.765625 2.140625 1.21875q1.203125 0.453125 2.53125 0.453125zm31.8656 -5.15625q0.09375 2.546875 1.34375 3.84375q1.25 1.28125 3.15625 1.28125q1.140625 0 2.09375 -0.328125q0.953125 -0.34375 2.03125 -1.046875l1.140625 1.640625q-1.078125 0.859375 -2.46875 1.328125q-1.390625 0.46875 -2.796875 0.46875q-3.34375 0 -5.21875 -2.1875q-1.859375 -2.1875 -1.859375 -5.859375q0 -2.3125 0.8125 -4.140625q0.828125 -1.84375 2.359375 -2.875q1.53125 -1.046875 3.546875 -1.046875q2.9375 0 4.625 2.046875q1.6875 2.03125 1.6875 5.546875q0 0.671875 -0.0625 1.328125l-10.390625 0zm4.171875 -6.890625q-1.796875 0 -2.90625 1.28125q-1.109375 1.265625 -1.265625 3.734375l8.046875 0q-0.03125 -2.4375 -1.0625 -3.71875q-1.03125 -1.296875 -2.8125 -1.296875zm23.753113 12.953125q-0.796875 0.53125 -1.921875 0.828125q-1.125 0.296875 -2.234375 0.296875q-2.4375 0 -3.828125 -1.28125q-1.375 -1.28125 -1.375 -3.359375l0 -9.203125l-3.546875 0l0 -1.9375l3.546875 0l0 -3.5l2.46875 -0.28125l0 3.78125l5.375 0l-0.328125 1.9375l-5.046875 0l0 9.171875q0 1.328125 0.703125 1.96875q0.703125 0.640625 2.265625 0.640625q1.578125 0 2.953125 -0.734375l0.96875 1.671875zm12.315613 -0.984375q2.03125 0 4.015625 -1.359375l1.1875 1.609375q-0.96875 0.859375 -2.40625 1.359375q-1.4375 0.5 -2.796875 0.5q-3.421875 0 -5.34375 -2.15625q-1.921875 -2.15625 -1.921875 -5.828125q0 -2.3125 0.859375 -4.15625q0.875 -1.859375 2.515625 -2.90625q1.640625 -1.0625 3.890625 -1.0625q3.0 0 5.171875 1.828125l-1.203125 1.609375q-2.03125 -1.359375 -4.0 -1.359375q-2.078125 0 -3.328125 1.546875q-1.234375 1.546875 -1.234375 4.5q0 2.96875 1.234375 4.421875q1.25 1.453125 3.359375 1.453125zm13.846863 -0.484375q0 -1.078125 0.75 -1.828125q0.75 -0.75 1.828125 -0.75q1.125 0 1.84375 0.75q0.734375 0.75 0.734375 1.828125q0 1.125 -0.734375 1.859375q-0.71875 0.734375 -1.84375 0.734375q-1.078125 0 -1.828125 -0.75q-0.75 -0.75 -0.75 -1.84375z" fill-rule="nonzero"/><path fill="#000000" fill-opacity="0.0" d="m534.2546 242.43832l389.19684 0l0 133.38583l-389.19684 0z" fill-rule="evenodd"/><path fill="#000000" d="m559.0046 273.98895q0 1.765625 -0.890625 3.109375q-0.875 1.328125 -2.546875 2.078125q-1.671875 0.75 -3.953125 0.75q-2.203125 0 -4.015625 -0.65625q-1.796875 -0.671875 -3.078125 -1.90625l1.515625 -1.71875q1.125 1.046875 2.484375 1.609375q1.359375 0.5625 3.125 0.5625q1.984375 0 3.328125 -0.96875q1.359375 -0.96875 1.359375 -2.796875q0 -1.015625 -0.390625 -1.6875q-0.375 -0.6875 -1.328125 -1.203125q-0.953125 -0.53125 -2.671875 -1.03125q-3.296875 -0.96875 -4.90625 -2.265625q-1.609375 -1.3125 -1.609375 -3.578125q0 -1.5 0.8125 -2.6875q0.828125 -1.203125 2.3125 -1.859375q1.5 -0.671875 3.40625 -0.671875q2.0 0 3.5625 0.59375q1.578125 0.578125 2.890625 1.71875l-1.515625 1.640625q-2.078125 -1.8125 -4.84375 -1.8125q-1.765625 0 -2.90625 0.765625q-1.140625 0.765625 -1.140625 2.234375q0 0.875 0.46875 1.5q0.46875 0.609375 1.546875 1.140625q1.09375 0.515625 3.0625 1.078125q2.84375 0.828125 4.375 2.140625q1.546875 1.3125 1.546875 3.921875zm17.065613 4.8125q-0.796875 0.53125 -1.921875 0.828125q-1.125 0.296875 -2.234375 0.296875q-2.4375 0 -3.828125 -1.28125q-1.375 -1.28125 -1.375 -3.359375l0 -9.203125l-3.546875 0l0 -1.9375l3.546875 0l0 -3.5l2.46875 -0.28125l0 3.78125l5.375 0l-0.328125 1.9375l-5.046875 0l0 9.171875q0 1.328125 0.703125 1.96875q0.703125 0.640625 2.265625 0.640625q1.578125 0 2.953125 -0.734375l0.96875 1.671875zm12.753113 0.890625q-0.90625 2.65625 -2.484375 4.234375q-1.578125 1.59375 -4.4375 1.890625l-0.34375 -1.96875q1.546875 -0.265625 2.46875 -0.8125q0.9375 -0.53125 1.453125 -1.34375q0.53125 -0.796875 0.96875 -2.09375l-0.8125 0l-5.375 -15.453125l2.609375 0l4.4375 13.578125l4.375 -13.578125l2.546875 0l-5.40625 15.546875zm16.190613 -3.90625q0 2.078125 2.5625 2.078125q1.203125 0 2.578125 -0.53125l0.640625 1.796875q-1.46875 0.796875 -3.65625 0.796875q-2.09375 0 -3.34375 -1.140625q-1.234375 -1.15625 -1.234375 -3.125l0 -15.765625l-4.75 0l0 -1.96875l7.203125 0l0 17.859375zm13.518738 -3.046875q0.09375 2.546875 1.34375 3.84375q1.25 1.28125 3.15625 1.28125q1.140625 0 2.09375 -0.328125q0.953125 -0.34375 2.03125 -1.046875l1.140625 1.640625q-1.078125 0.859375 -2.46875 1.328125q-1.390625 0.46875 -2.796875 0.46875q-3.34375 0 -5.21875 -2.1875q-1.859375 -2.1875 -1.859375 -5.859375q0 -2.3125 0.8125 -4.140625q0.828125 -1.84375 2.359375 -2.875q1.53125 -1.046875 3.546875 -1.046875q2.9375 0 4.625 2.046875q1.6875 2.03125 1.6875 5.546875q0 0.671875 -0.0625 1.328125l-10.390625 0zm4.171875 -6.890625q-1.796875 0 -2.90625 1.28125q-1.109375 1.265625 -1.265625 3.734375l8.046875 0q-0.03125 -2.4375 -1.0625 -3.71875q-1.03125 -1.296875 -2.8125 -1.296875zm16.753113 12.046875q1.75 0 2.78125 -0.671875q1.03125 -0.671875 1.03125 -1.796875q0 -0.75 -0.265625 -1.234375q-0.265625 -0.484375 -1.0625 -0.875q-0.796875 -0.40625 -2.40625 -0.8125q-2.6875 -0.671875 -3.984375 -1.625q-1.296875 -0.953125 -1.296875 -2.84375q0 -1.921875 1.609375 -3.0625q1.625 -1.15625 4.265625 -1.15625q3.21875 0 5.625 1.703125l-1.109375 1.703125q-0.96875 -0.671875 -2.03125 -1.03125q-1.046875 -0.375 -2.4375 -0.375q-3.328125 0 -3.328125 2.015625q0 0.703125 0.359375 1.15625q0.359375 0.4375 1.1875 0.78125q0.84375 0.328125 2.515625 0.796875q2.53125 0.671875 3.765625 1.71875q1.25 1.03125 1.25 3.03125q0 2.3125 -1.875 3.46875q-1.875 1.140625 -4.59375 1.140625q-3.640625 0 -6.046875 -2.09375l1.375 -1.609375q0.9375 0.765625 2.140625 1.21875q1.203125 0.453125 2.53125 0.453125zm14.768738 -11.609375q0.921875 -1.171875 2.234375 -1.8125q1.3125 -0.65625 2.734375 -0.65625q4.328125 0 4.328125 4.578125l0 11.203125l-2.453125 0l0 -11.171875q0 -1.375 -0.65625 -2.0q-0.640625 -0.640625 -2.046875 -0.640625q-1.203125 0 -2.328125 0.765625q-1.109375 0.765625 -1.8125 1.78125l0 11.265625l-2.453125 0l0 -21.640625l2.453125 -0.265625l0 8.59375zm17.096863 6.453125q0.09375 2.546875 1.34375 3.84375q1.25 1.28125 3.15625 1.28125q1.140625 0 2.09375 -0.328125q0.953125 -0.34375 2.03125 -1.046875l1.140625 1.640625q-1.078125 0.859375 -2.46875 1.328125q-1.390625 0.46875 -2.796875 0.46875q-3.34375 0 -5.21875 -2.1875q-1.859375 -2.1875 -1.859375 -5.859375q0 -2.3125 0.8125 -4.140625q0.828125 -1.84375 2.359375 -2.875q1.53125 -1.046875 3.546875 -1.046875q2.9375 0 4.625 2.046875q1.6875 2.03125 1.6875 5.546875q0 0.671875 -0.0625 1.328125l-10.390625 0zm4.171875 -6.890625q-1.796875 0 -2.90625 1.28125q-1.109375 1.265625 -1.265625 3.734375l8.046875 0q-0.03125 -2.4375 -1.0625 -3.71875q-1.03125 -1.296875 -2.8125 -1.296875zm13.424988 6.890625q0.09375 2.546875 1.34375 3.84375q1.25 1.28125 3.15625 1.28125q1.140625 0 2.09375 -0.328125q0.953125 -0.34375 2.03125 -1.046875l1.140625 1.640625q-1.078125 0.859375 -2.46875 1.328125q-1.390625 0.46875 -2.796875 0.46875q-3.34375 0 -5.21875 -2.1875q-1.859375 -2.1875 -1.859375 -5.859375q0 -2.3125 0.8125 -4.140625q0.828125 -1.84375 2.359375 -2.875q1.53125 -1.046875 3.546875 -1.046875q2.9375 0 4.625 2.046875q1.6875 2.03125 1.6875 5.546875q0 0.671875 -0.0625 1.328125l-10.390625 0zm4.171875 -6.890625q-1.796875 0 -2.90625 1.28125q-1.109375 1.265625 -1.265625 3.734375l8.046875 0q-0.03125 -2.4375 -1.0625 -3.71875q-1.03125 -1.296875 -2.8125 -1.296875zm23.753113 12.953125q-0.796875 0.53125 -1.921875 0.828125q-1.125 0.296875 -2.234375 0.296875q-2.4375 0 -3.828125 -1.28125q-1.375 -1.28125 -1.375 -3.359375l0 -9.203125l-3.546875 0l0 -1.9375l3.546875 0l0 -3.5l2.46875 -0.28125l0 3.78125l5.375 0l-0.328125 1.9375l-5.046875 0l0 9.171875q0 1.328125 0.703125 1.96875q0.703125 0.640625 2.265625 0.640625q1.578125 0 2.953125 -0.734375l0.96875 1.671875zm10.596863 -0.90625q1.75 0 2.78125 -0.671875q1.03125 -0.671875 1.03125 -1.796875q0 -0.75 -0.265625 -1.234375q-0.265625 -0.484375 -1.0625 -0.875q-0.796875 -0.40625 -2.40625 -0.8125q-2.6875 -0.671875 -3.984375 -1.625q-1.296875 -0.953125 -1.296875 -2.84375q0 -1.921875 1.609375 -3.0625q1.625 -1.15625 4.265625 -1.15625q3.21875 0 5.625 1.703125l-1.109375 1.703125q-0.96875 -0.671875 -2.03125 -1.03125q-1.046875 -0.375 -2.4375 -0.375q-3.328125 0 -3.328125 2.015625q0 0.703125 0.359375 1.15625q0.359375 0.4375 1.1875 0.78125q0.84375 0.328125 2.515625 0.796875q2.53125 0.671875 3.765625 1.71875q1.25 1.03125 1.25 3.03125q0 2.3125 -1.875 3.46875q-1.875 1.140625 -4.59375 1.140625q-3.640625 0 -6.046875 -2.09375l1.375 -1.609375q0.9375 0.765625 2.140625 1.21875q1.203125 0.453125 2.53125 0.453125zm18.174988 -3.140625q1.0 0 1.6875 0.703125q0.6875 0.6875 0.6875 1.640625q0 1.09375 -0.5625 2.328125l-2.375 5.421875l-2.21875 0l1.375 -5.78125q-0.40625 -0.3125 -0.671875 -0.84375q-0.265625 -0.53125 -0.265625 -1.09375q0 -0.984375 0.671875 -1.671875q0.671875 -0.703125 1.671875 -0.703125z" fill-rule="nonzero"/><path fill="#000000" d="m559.0046 313.98895q0 1.765625 -0.890625 3.109375q-0.875 1.328125 -2.546875 2.078125q-1.671875 0.75 -3.953125 0.75q-2.203125 0 -4.015625 -0.65625q-1.796875 -0.671875 -3.078125 -1.90625l1.515625 -1.71875q1.125 1.046875 2.484375 1.609375q1.359375 0.5625 3.125 0.5625q1.984375 0 3.328125 -0.96875q1.359375 -0.96875 1.359375 -2.796875q0 -1.015625 -0.390625 -1.6875q-0.375 -0.6875 -1.328125 -1.203125q-0.953125 -0.53125 -2.671875 -1.03125q-3.296875 -0.96875 -4.90625 -2.265625q-1.609375 -1.3125 -1.609375 -3.578125q0 -1.5 0.8125 -2.6875q0.828125 -1.203125 2.3125 -1.859375q1.5 -0.671875 3.40625 -0.671875q2.0 0 3.5625 0.59375q1.578125 0.578125 2.890625 1.71875l-1.515625 1.640625q-2.078125 -1.8125 -4.84375 -1.8125q-1.765625 0 -2.90625 0.765625q-1.140625 0.765625 -1.140625 2.234375q0 0.875 0.46875 1.5q0.46875 0.609375 1.546875 1.140625q1.09375 0.515625 3.0625 1.078125q2.84375 0.828125 4.375 2.140625q1.546875 1.3125 1.546875 3.921875zm11.784363 3.828125q2.03125 0 4.015625 -1.359375l1.1875 1.609375q-0.96875 0.859375 -2.40625 1.359375q-1.4375 0.5 -2.796875 0.5q-3.421875 0 -5.34375 -2.15625q-1.921875 -2.15625 -1.921875 -5.828125q0 -2.3125 0.859375 -4.15625q0.875 -1.859375 2.515625 -2.90625q1.640625 -1.0625 3.890625 -1.0625q3.0 0 5.171875 1.828125l-1.203125 1.609375q-2.03125 -1.359375 -4.0 -1.359375q-2.078125 0 -3.328125 1.546875q-1.234375 1.546875 -1.234375 4.5q0 2.96875 1.234375 4.421875q1.25 1.453125 3.359375 1.453125zm21.034363 -14.0q0.9375 0 2.171875 0.328125l-0.359375 5.25l-1.984375 0l0 -3.3125l-0.15625 0q-3.578125 0 -5.0625 5.09375l0 6.515625l3.125 0l0 1.90625l-8.03125 0l0 -1.90625l2.4375 0l0 -11.640625l-2.4375 0l0 -1.90625l4.28125 0l0.46875 3.65625q0.9375 -1.984375 2.234375 -2.984375q1.3125 -1.0 3.3125 -1.0zm13.018738 -6.890625q0.828125 0 1.3125 0.484375q0.5 0.484375 0.5 1.25q0 0.765625 -0.5 1.25q-0.484375 0.484375 -1.3125 0.484375q-0.796875 0 -1.28125 -0.484375q-0.484375 -0.484375 -0.484375 -1.25q0 -0.765625 0.484375 -1.25q0.484375 -0.484375 1.28125 -0.484375zm1.96875 20.703125l4.34375 0l0 1.96875l-11.5625 0l0 -1.96875l4.75 0l0 -11.515625l-4.59375 0l0 -1.96875l7.0625 0l0 13.484375zm16.690613 -13.8125q5.59375 0 5.59375 8.03125q0 3.671875 -1.53125 5.875q-1.515625 2.203125 -4.421875 2.203125q-2.515625 0 -4.109375 -1.765625l0 7.359375l-2.453125 0.296875l0 -21.671875l2.109375 0l0.203125 2.171875q0.84375 -1.203125 2.03125 -1.84375q1.1875 -0.65625 2.578125 -0.65625zm-0.59375 2.0q-1.171875 0 -2.15625 0.703125q-0.984375 0.703125 -1.71875 1.75l0 7.65625q0.625 0.921875 1.546875 1.4375q0.921875 0.5 2.0 0.5q1.9375 0 2.890625 -1.46875q0.953125 -1.484375 0.953125 -4.546875q0 -3.046875 -0.84375 -4.53125q-0.84375 -1.5 -2.671875 -1.5zm23.549988 12.984375q-0.796875 0.53125 -1.921875 0.828125q-1.125 0.296875 -2.234375 0.296875q-2.4375 0 -3.828125 -1.28125q-1.375 -1.28125 -1.375 -3.359375l0 -9.203125l-3.546875 0l0 -1.9375l3.546875 0l0 -3.5l2.46875 -0.28125l0 3.78125l5.375 0l-0.328125 1.9375l-5.046875 0l0 9.171875q0 1.328125 0.703125 1.96875q0.703125 0.640625 2.265625 0.640625q1.578125 0 2.953125 -0.734375l0.96875 1.671875zm10.596863 -0.90625q1.75 0 2.78125 -0.671875q1.03125 -0.671875 1.03125 -1.796875q0 -0.75 -0.265625 -1.234375q-0.265625 -0.484375 -1.0625 -0.875q-0.796875 -0.40625 -2.40625 -0.8125q-2.6875 -0.671875 -3.984375 -1.625q-1.296875 -0.953125 -1.296875 -2.84375q0 -1.921875 1.609375 -3.0625q1.625 -1.15625 4.265625 -1.15625q3.21875 0 5.625 1.703125l-1.109375 1.703125q-0.96875 -0.671875 -2.03125 -1.03125q-1.046875 -0.375 -2.4375 -0.375q-3.328125 0 -3.328125 2.015625q0 0.703125 0.359375 1.15625q0.359375 0.4375 1.1875 0.78125q0.84375 0.328125 2.515625 0.796875q2.53125 0.671875 3.765625 1.71875q1.25 1.03125 1.25 3.03125q0 2.3125 -1.875 3.46875q-1.875 1.140625 -4.59375 1.140625q-3.640625 0 -6.046875 -2.09375l1.375 -1.609375q0.9375 0.765625 2.140625 1.21875q1.203125 0.453125 2.53125 0.453125zm18.174988 -3.140625q1.0 0 1.6875 0.703125q0.6875 0.6875 0.6875 1.640625q0 1.09375 -0.5625 2.328125l-2.375 5.421875l-2.21875 0l1.375 -5.78125q-0.40625 -0.3125 -0.671875 -0.84375q-0.265625 -0.53125 -0.265625 -1.09375q0 -0.984375 0.671875 -1.671875q0.671875 -0.703125 1.671875 -0.703125z" fill-rule="nonzero"/><path fill="#000000" d="m557.8327 341.44208l-4.484375 0l0 16.125l4.484375 0l0 2.03125l-11.5625 0l0 -2.03125l4.5 0l0 -16.125l-4.5 0l0 -2.046875l11.5625 0l0 2.046875zm16.128113 2.375q1.3125 0 2.140625 0.921875q0.84375 0.921875 0.84375 3.359375l0 11.5l-2.25 0l0 -11.09375q0 -1.609375 -0.203125 -2.171875q-0.203125 -0.578125 -1.0 -0.578125q-1.5 0 -2.703125 1.84375l0 12.0l-2.28125 0l0 -11.09375q0 -1.609375 -0.203125 -2.171875q-0.203125 -0.578125 -1.0 -0.578125q-1.5 0 -2.703125 1.84375l0 12.0l-2.25 0l0 -15.453125l1.90625 0l0.171875 1.8125q0.703125 -1.015625 1.484375 -1.578125q0.78125 -0.5625 1.859375 -0.5625q2.171875 0 2.78125 2.0625q0.703125 -1.0 1.5 -1.53125q0.796875 -0.53125 1.90625 -0.53125zm18.503113 12.40625q0 0.90625 0.296875 1.34375q0.296875 0.421875 0.96875 0.625l-0.625 1.765625q-2.25 -0.296875 -2.8125 -2.203125q-0.8125 1.046875 -2.0625 1.609375q-1.25 0.5625 -2.765625 0.5625q-2.328125 0 -3.65625 -1.296875q-1.328125 -1.296875 -1.328125 -3.453125q0 -2.375 1.859375 -3.671875q1.859375 -1.296875 5.34375 -1.296875l2.296875 0l0 -1.25q0 -1.640625 -0.9375 -2.359375q-0.9375 -0.71875 -2.734375 -0.71875q-1.765625 0 -4.015625 0.78125l-0.671875 -1.875q2.71875 -0.96875 5.0625 -0.96875q2.828125 0 4.296875 1.328125q1.484375 1.3125 1.484375 3.65625l0 7.421875zm-6.390625 1.84375q1.140625 0 2.171875 -0.578125q1.046875 -0.59375 1.734375 -1.609375l0 -3.96875l-2.234375 0q-2.46875 0 -3.5625 0.828125q-1.078125 0.8125 -1.078125 2.40625q0 2.921875 2.96875 2.921875zm26.221863 -13.21875q-0.875 0.296875 -1.90625 0.375q-1.03125 0.0625 -2.609375 0.0625q2.6875 1.234375 2.6875 3.90625q0 2.34375 -1.546875 3.796875q-1.546875 1.453125 -4.25 1.453125q-1.375 0 -2.3125 -0.328125q-0.359375 0.265625 -0.578125 0.671875q-0.21875 0.40625 -0.21875 0.828125q0 1.3125 2.046875 1.3125l2.796875 0q1.515625 0 2.765625 0.546875q1.25 0.546875 1.96875 1.515625q0.71875 0.96875 0.71875 2.140625q0 2.25 -1.921875 3.46875q-1.921875 1.21875 -5.4375 1.21875q-3.578125 0 -5.046875 -1.125q-1.46875 -1.109375 -1.46875 -3.546875l2.234375 0q0 0.96875 0.359375 1.546875q0.359375 0.578125 1.28125 0.84375q0.9375 0.28125 2.640625 0.28125q2.484375 0 3.671875 -0.640625q1.1875 -0.640625 1.1875 -1.90625q0 -1.0625 -0.96875 -1.640625q-0.96875 -0.5625 -2.484375 -0.5625l-2.765625 0q-1.90625 0 -2.90625 -0.828125q-0.984375 -0.84375 -0.984375 -2.09375q0 -0.734375 0.4375 -1.453125q0.4375 -0.71875 1.25 -1.25q-1.3125 -0.671875 -1.953125 -1.71875q-0.625 -1.046875 -0.625 -2.53125q0 -1.5625 0.78125 -2.78125q0.78125 -1.21875 2.171875 -1.90625q1.390625 -0.6875 3.203125 -0.6875q2.640625 0 4.015625 -0.28125q1.390625 -0.296875 3.03125 -1.0l0.734375 2.3125zm-7.796875 0.796875q-1.796875 0 -2.703125 0.953125q-0.90625 0.953125 -0.90625 2.59375q0 1.640625 0.921875 2.625q0.921875 0.984375 2.734375 0.984375q1.640625 0 2.5 -0.953125q0.875 -0.953125 0.875 -2.6875q0 -3.515625 -3.421875 -3.515625zm14.034363 7.09375q0.09375 2.546875 1.34375 3.84375q1.25 1.28125 3.15625 1.28125q1.140625 0 2.09375 -0.328125q0.953125 -0.34375 2.03125 -1.046875l1.140625 1.640625q-1.078125 0.859375 -2.46875 1.328125q-1.390625 0.46875 -2.796875 0.46875q-3.34375 0 -5.21875 -2.1875q-1.859375 -2.1875 -1.859375 -5.859375q0 -2.3125 0.8125 -4.140625q0.828125 -1.84375 2.359375 -2.875q1.53125 -1.046875 3.546875 -1.046875q2.9375 0 4.625 2.046875q1.6875 2.03125 1.6875 5.546875q0 0.671875 -0.0625 1.328125l-10.390625 0zm4.171875 -6.890625q-1.796875 0 -2.90625 1.28125q-1.109375 1.265625 -1.265625 3.734375l8.046875 0q-0.03125 -2.4375 -1.0625 -3.71875q-1.03125 -1.296875 -2.8125 -1.296875zm16.753113 12.046875q1.75 0 2.78125 -0.671875q1.03125 -0.671875 1.03125 -1.796875q0 -0.75 -0.265625 -1.234375q-0.265625 -0.484375 -1.0625 -0.875q-0.796875 -0.40625 -2.40625 -0.8125q-2.6875 -0.671875 -3.984375 -1.625q-1.296875 -0.953125 -1.296875 -2.84375q0 -1.921875 1.609375 -3.0625q1.625 -1.15625 4.265625 -1.15625q3.21875 0 5.625 1.703125l-1.109375 1.703125q-0.96875 -0.671875 -2.03125 -1.03125q-1.046875 -0.375 -2.4375 -0.375q-3.328125 0 -3.328125 2.015625q0 0.703125 0.359375 1.15625q0.359375 0.4375 1.1875 0.78125q0.84375 0.328125 2.515625 0.796875q2.53125 0.671875 3.765625 1.71875q1.25 1.03125 1.25 3.03125q0 2.3125 -1.875 3.46875q-1.875 1.140625 -4.59375 1.140625q-3.640625 0 -6.046875 -2.09375l1.375 -1.609375q0.9375 0.765625 2.140625 1.21875q1.203125 0.453125 2.53125 0.453125zm18.174988 -3.140625q1.0 0 1.6875 0.703125q0.6875 0.6875 0.6875 1.640625q0 1.09375 -0.5625 2.328125l-2.375 5.421875l-2.21875 0l1.375 -5.78125q-0.40625 -0.3125 -0.671875 -0.84375q-0.265625 -0.53125 -0.265625 -1.09375q0 -0.984375 0.671875 -1.671875q0.671875 -0.703125 1.671875 -0.703125z" fill-rule="nonzero"/><path fill="#000000" d="m555.86395 390.00458l-7.625 0l0 9.59375l-2.546875 0l0 -20.203125l2.546875 0l0 8.53125l7.625 0l0 -8.53125l2.546875 0l0 20.203125l-2.546875 0l0 -9.59375zm15.018738 9.59375l-2.546875 0l0 -18.0l-6.3125 0l0 -2.203125l15.21875 0l-0.265625 2.203125l-6.09375 0l0 18.0zm24.284363 0l-2.46875 0l-0.609375 -10.5625q-0.171875 -2.78125 -0.171875 -7.296875l-3.40625 14.21875l-2.546875 0l-3.640625 -14.21875q0.0625 1.046875 0.0625 2.8125q0 2.703125 -0.125 4.484375l-0.53125 10.5625l-2.40625 0l1.15625 -20.203125l3.546875 0l3.28125 13.84375l3.140625 -13.84375l3.578125 0l1.140625 20.203125zm4.862488 -20.203125l2.53125 0l0 17.9375l9.234375 0l-0.328125 2.265625l-11.4375 0l0 -20.203125zm36.099976 13.34375q0.09375 2.546875 1.34375 3.84375q1.25 1.28125 3.15625 1.28125q1.140625 0 2.09375 -0.328125q0.953125 -0.34375 2.03125 -1.046875l1.140625 1.640625q-1.078125 0.859375 -2.46875 1.328125q-1.390625 0.46875 -2.796875 0.46875q-3.34375 0 -5.21875 -2.1875q-1.859375 -2.1875 -1.859375 -5.859375q0 -2.3125 0.8125 -4.140625q0.828125 -1.84375 2.359375 -2.875q1.53125 -1.046875 3.546875 -1.046875q2.9375 0 4.625 2.046875q1.6875 2.03125 1.6875 5.546875q0 0.671875 -0.0625 1.328125l-10.390625 0zm4.171875 -6.890625q-1.796875 0 -2.90625 1.28125q-1.109375 1.265625 -1.265625 3.734375l8.046875 0q-0.03125 -2.4375 -1.0625 -3.71875q-1.03125 -1.296875 -2.8125 -1.296875zm23.753113 12.953125q-0.796875 0.53125 -1.921875 0.828125q-1.125 0.296875 -2.234375 0.296875q-2.4375 0 -3.828125 -1.28125q-1.375 -1.28125 -1.375 -3.359375l0 -9.203125l-3.546875 0l0 -1.9375l3.546875 0l0 -3.5l2.46875 -0.28125l0 3.78125l5.375 0l-0.328125 1.9375l-5.046875 0l0 9.171875q0 1.328125 0.703125 1.96875q0.703125 0.640625 2.265625 0.640625q1.578125 0 2.953125 -0.734375l0.96875 1.671875zm12.315613 -0.984375q2.03125 0 4.015625 -1.359375l1.1875 1.609375q-0.96875 0.859375 -2.40625 1.359375q-1.4375 0.5 -2.796875 0.5q-3.421875 0 -5.34375 -2.15625q-1.921875 -2.15625 -1.921875 -5.828125q0 -2.3125 0.859375 -4.15625q0.875 -1.859375 2.515625 -2.90625q1.640625 -1.0625 3.890625 -1.0625q3.0 0 5.171875 1.828125l-1.203125 1.609375q-2.03125 -1.359375 -4.0 -1.359375q-2.078125 0 -3.328125 1.546875q-1.234375 1.546875 -1.234375 4.5q0 2.96875 1.234375 4.421875q1.25 1.453125 3.359375 1.453125zm13.846863 -0.484375q0 -1.078125 0.75 -1.828125q0.75 -0.75 1.828125 -0.75q1.125 0 1.84375 0.75q0.734375 0.75 0.734375 1.828125q0 1.125 -0.734375 1.859375q-0.71875 0.734375 -1.84375 0.734375q-1.078125 0 -1.828125 -0.75q-0.75 -0.75 -0.75 -1.84375z" fill-rule="nonzero"/></g></svg>