<svg version="1.1" viewBox="0.0 0.0 960.0 720.0" fill="none" stroke="none" stroke-linecap="square" stroke-miterlimit="10" xmlns:xlink="http://www.w3.org/1999/xlink" xmlns="http://www.w3.org/2000/svg"><clipPath id="p.0"><path d="m0 0l960.0 0l0 720.0l-960.0 0l0 -720.0z" clip-rule="nonzero"/></clipPath><g clip-path="url(#p.0)"><path fill="#000000" fill-opacity="0.0" d="m0 0l960.0 0l0 720.0l-960.0 0z" fill-rule="evenodd"/><path fill="#ffffff" d="m45.209972 411.99213l0 0c0 -50.87979 42.508274 -92.12598 94.944885 -92.12598c52.4366 0 94.94487 41.246185 94.94487 92.12598c0 50.87976 -42.50827 92.12598 -94.94487 92.12598c-52.436615 0 -94.944885 -41.246216 -94.944885 -92.12598z" fill-rule="evenodd"/><path fill="#cbcbcb" d="m99.84724 384.43964c0 -5.299988 4.427948 -9.596466 9.890091 -9.596466c5.4621506 0 9.890091 4.2964783 9.890091 9.596466c0 5.299988 -4.4279404 9.596466 -9.890091 9.596466c-5.462143 0 -9.890091 -4.2964783 -9.890091 -9.596466m60.83506 0c0 -5.299988 4.4279327 -9.596466 9.890091 -9.596466c5.462143 0 9.890091 4.2964783 9.890091 9.596466c0 5.299988 -4.427948 9.596466 -9.890091 9.596466c-5.462158 0 -9.890091 -4.2964783 -9.890091 -9.596466" fill-rule="evenodd"/><path fill="#000000" fill-opacity="0.0" d="m88.69411 452.16888q51.460754 34.29297 102.801315 0" fill-rule="evenodd"/><path fill="#000000" fill-opacity="0.0" d="m45.209972 411.99213l0 0c0 -50.87979 42.508274 -92.12598 94.944885 -92.12598c52.4366 0 94.94487 41.246185 94.94487 92.12598c0 50.87976 -42.50827 92.12598 -94.94487 92.12598c-52.436615 0 -94.944885 -41.246216 -94.944885 -92.12598z" fill-rule="evenodd"/><path stroke="#000000" stroke-width="4.0" stroke-linejoin="round" stroke-linecap="butt" d="m99.84724 384.43964c0 -5.299988 4.427948 -9.596466 9.890091 -9.596466c5.4621506 0 9.890091 4.2964783 9.890091 9.596466c0 5.299988 -4.4279404 9.596466 -9.890091 9.596466c-5.462143 0 -9.890091 -4.2964783 -9.890091 -9.596466m60.83506 0c0 -5.299988 4.4279327 -9.596466 9.890091 -9.596466c5.462143 0 9.890091 4.2964783 9.890091 9.596466c0 5.299988 -4.427948 9.596466 -9.890091 9.596466c-5.462158 0 -9.890091 -4.2964783 -9.890091 -9.596466" fill-rule="evenodd"/><path stroke="#000000" stroke-width="4.0" stroke-linejoin="round" stroke-linecap="butt" d="m88.69411 452.16888q51.460754 34.29297 102.801315 0" fill-rule="evenodd"/><path stroke="#000000" stroke-width="4.0" stroke-linejoin="round" stroke-linecap="butt" d="m45.209972 411.99213l0 0c0 -50.87979 42.508274 -92.12598 94.944885 -92.12598c52.4366 0 94.94487 41.246185 94.94487 92.12598c0 50.87976 -42.50827 92.12598 -94.94487 92.12598c-52.436615 0 -94.944885 -41.246216 -94.944885 -92.12598z" fill-rule="evenodd"/><path fill="#ffe599" d="m705.3045 354.4882l68.944275 -9.765625E-4l34.473022 -57.50296l34.47296 57.50296l68.944275 9.765625E-4l-34.471252 57.503937l34.471252 57.503937l-68.944275 9.765625E-4l-34.47296 57.50296l-34.473022 -57.50296l-68.944275 -9.765625E-4l34.471252 -57.503937z" fill-rule="evenodd"/><path stroke="#000000" stroke-width="4.0" stroke-linejoin="round" stroke-linecap="butt" d="m705.3045 354.4882l68.944275 -9.765625E-4l34.473022 -57.50296l34.47296 57.50296l68.944275 9.765625E-4l-34.471252 57.503937l34.471252 57.503937l-68.944275 9.765625E-4l-34.47296 57.50296l-34.473022 -57.50296l-68.944275 -9.765625E-4l34.471252 -57.503937z" fill-rule="evenodd"/><path fill="#000000" fill-opacity="0.0" d="m24.296587 527.0l231.71654 0l0 75.968506l-231.71654 0z" fill-rule="evenodd"/><path fill="#000000" d="m117.9205 579.3843l-3.53125 0l0 -10.59375l-9.3125 -16.96875l3.84375 0l7.3125 13.84375l7.40625 -13.84375l3.59375 0l-9.3125 16.921875l0 10.640625zm22.281235 -21.515625q4.359375 0 6.6875 2.9375q2.34375 2.9375 2.34375 8.015625q0 4.96875 -2.390625 7.984375q-2.375 3.015625 -6.6875 3.015625q-4.359375 0 -6.71875 -2.9375q-2.359375 -2.9375 -2.359375 -8.015625q0 -5.0 2.375 -8.0q2.390625 -3.0 6.75 -3.0zm0 2.75q-2.765625 0 -4.125 2.046875q-1.359375 2.03125 -1.359375 6.203125q0 4.15625 1.328125 6.1875q1.34375 2.015625 4.109375 2.015625q2.765625 0 4.09375 -2.015625q1.34375 -2.03125 1.34375 -6.234375q0 -4.15625 -1.34375 -6.171875q-1.328125 -2.03125 -4.046875 -2.03125zm19.312485 12.640625q0 2.046875 0.859375 2.984375q0.859375 0.9375 2.703125 0.9375q1.671875 0 3.234375 -0.953125q1.5625 -0.96875 2.484375 -2.40625l0 -15.515625l3.359375 0l0 21.078125l-2.875 0l-0.28125 -2.84375q-1.25 1.5625 -3.078125 2.421875q-1.8125 0.859375 -3.6875 0.859375q-3.0 0 -4.546875 -1.59375q-1.53125 -1.609375 -1.53125 -4.609375l0 -15.3125l3.359375 0l0 14.953125z" fill-rule="nonzero"/><path fill="#000000" fill-opacity="0.0" d="m692.8635 539.60895l231.71655 0l0 75.968506l-231.71655 0z" fill-rule="evenodd"/><path fill="#000000" d="m721.2949 542.30817q2.390625 0 4.109375 0.625q1.71875 0.609375 3.359375 1.875l-1.828125 2.125q-2.28125 -1.90625 -5.40625 -1.90625q-3.484375 0 -5.671875 2.53125q-2.171875 2.515625 -2.171875 8.0q0 5.453125 2.125 7.984375q2.125 2.53125 5.671875 2.53125q1.9375 0 3.3125 -0.546875q1.390625 -0.5625 2.65625 -1.578125l1.6875 2.09375q-2.875 2.796875 -7.6875 2.796875q-3.171875 0 -5.71875 -1.546875q-2.53125 -1.546875 -3.984375 -4.53125q-1.453125 -2.984375 -1.453125 -7.203125q0 -4.1875 1.46875 -7.1875q1.46875 -3.0 3.984375 -4.53125q2.53125 -1.53125 5.546875 -1.53125zm15.912537 9.171875q1.15625 -1.484375 2.828125 -2.296875q1.6875 -0.828125 3.46875 -0.828125q5.53125 0 5.53125 5.8125l0 14.265625l-3.140625 0l0 -14.21875q0 -1.75 -0.828125 -2.546875q-0.8125 -0.8125 -2.609375 -0.8125q-1.53125 0 -2.953125 0.96875q-1.40625 0.96875 -2.296875 2.28125l0 14.328125l-3.140625 0l0 -27.546875l3.140625 -0.34375l0 10.9375zm32.537598 -3.125q1.203125 0 2.765625 0.40625l-0.4375 6.6875l-2.546875 0l0 -4.21875l-0.1875 0q-4.546875 0 -6.453125 6.484375l0 8.296875l3.984375 0l0 2.421875l-10.21875 0l0 -2.421875l3.09375 0l0 -14.828125l-3.09375 0l0 -2.421875l5.453125 0l0.59375 4.671875q1.1875 -2.546875 2.84375 -3.8125q1.671875 -1.265625 4.203125 -1.265625zm16.584412 -8.78125q1.046875 0 1.671875 0.625q0.640625 0.609375 0.640625 1.578125q0 0.96875 -0.640625 1.59375q-0.625 0.609375 -1.671875 0.609375q-1.015625 0 -1.640625 -0.609375q-0.609375 -0.625 -0.609375 -1.59375q0 -0.96875 0.609375 -1.578125q0.625 -0.625 1.640625 -0.625zm2.5 26.359375l5.515625 0l0 2.5l-14.703125 0l0 -2.5l6.046875 0l0 -14.671875l-5.859375 0l0 -2.5l9.0 0l0 17.171875zm19.146973 0.328125q2.234375 0 3.53125 -0.84375q1.3125 -0.859375 1.3125 -2.28125q0 -0.96875 -0.34375 -1.578125q-0.328125 -0.625 -1.34375 -1.125q-1.0 -0.515625 -3.046875 -1.03125q-3.4375 -0.859375 -5.078125 -2.0625q-1.640625 -1.21875 -1.640625 -3.609375q0 -2.46875 2.046875 -3.921875q2.0625 -1.453125 5.421875 -1.453125q4.109375 0 7.171875 2.15625l-1.421875 2.171875q-1.234375 -0.859375 -2.578125 -1.328125q-1.34375 -0.46875 -3.09375 -0.46875q-4.265625 0 -4.265625 2.578125q0 0.890625 0.46875 1.453125q0.46875 0.5625 1.53125 1.0q1.0625 0.421875 3.1875 1.015625q3.21875 0.859375 4.796875 2.1875q1.59375 1.328125 1.59375 3.859375q0 2.953125 -2.390625 4.40625q-2.390625 1.453125 -5.859375 1.453125q-4.625 0 -7.6875 -2.640625l1.75 -2.0625q1.203125 0.96875 2.71875 1.546875q1.53125 0.578125 3.21875 0.578125zm31.318787 1.15625q-1.015625 0.671875 -2.453125 1.046875q-1.4375 0.375 -2.84375 0.375q-3.109375 0 -4.859375 -1.625q-1.75 -1.625 -1.75 -4.265625l0 -11.71875l-4.515625 0l0 -2.46875l4.515625 0l0 -4.4375l3.125 -0.375l0 4.8125l6.84375 0l-0.421875 2.46875l-6.421875 0l0 11.671875q0 1.6875 0.890625 2.515625q0.90625 0.8125 2.890625 0.8125q2.015625 0 3.765625 -0.9375l1.234375 2.125zm19.709473 -19.0625q1.671875 0 2.734375 1.171875q1.078125 1.171875 1.078125 4.28125l0 14.625l-2.875 0l0 -14.109375q0 -2.046875 -0.265625 -2.78125q-0.265625 -0.734375 -1.265625 -0.734375q-1.90625 0 -3.4375 2.359375l0 15.265625l-2.90625 0l0 -14.109375q0 -2.046875 -0.265625 -2.78125q-0.265625 -0.734375 -1.265625 -0.734375q-1.90625 0 -3.4375 2.359375l0 15.265625l-2.875 0l0 -19.671875l2.421875 0l0.21875 2.3125q0.90625 -1.3125 1.890625 -2.015625q0.984375 -0.703125 2.375 -0.703125q2.765625 0 3.546875 2.609375q0.890625 -1.265625 1.890625 -1.9375q1.015625 -0.671875 2.4375 -0.671875zm23.553162 15.78125q0 1.15625 0.375 1.703125q0.375 0.546875 1.234375 0.796875l-0.78125 2.25q-2.875 -0.375 -3.59375 -2.8125q-1.046875 1.34375 -2.640625 2.0625q-1.578125 0.703125 -3.515625 0.703125q-2.953125 0 -4.65625 -1.640625q-1.6875 -1.640625 -1.6875 -4.40625q0 -3.015625 2.359375 -4.65625q2.375 -1.640625 6.828125 -1.640625l2.90625 0l0 -1.609375q0 -2.09375 -1.203125 -3.0q-1.1875 -0.921875 -3.46875 -0.921875q-2.234375 0 -5.109375 1.0l-0.859375 -2.375q3.46875 -1.234375 6.453125 -1.234375q3.59375 0 5.46875 1.6875q1.890625 1.671875 1.890625 4.65625l0 9.4375zm-8.140625 2.359375q1.453125 0 2.78125 -0.75q1.328125 -0.75 2.1875 -2.046875l0 -5.046875l-2.84375 0q-3.125 0 -4.515625 1.046875q-1.375 1.046875 -1.375 3.0625q0 3.734375 3.765625 3.734375zm23.146973 -0.234375q2.234375 0 3.53125 -0.84375q1.3125 -0.859375 1.3125 -2.28125q0 -0.96875 -0.34375 -1.578125q-0.328125 -0.625 -1.34375 -1.125q-1.0 -0.515625 -3.046875 -1.03125q-3.4375 -0.859375 -5.078125 -2.0625q-1.640625 -1.21875 -1.640625 -3.609375q0 -2.46875 2.046875 -3.921875q2.0625 -1.453125 5.421875 -1.453125q4.109375 0 7.171875 2.15625l-1.421875 2.171875q-1.234375 -0.859375 -2.578125 -1.328125q-1.34375 -0.46875 -3.09375 -0.46875q-4.265625 0 -4.265625 2.578125q0 0.890625 0.46875 1.453125q0.46875 0.5625 1.53125 1.0q1.0625 0.421875 3.1875 1.015625q3.21875 0.859375 4.796875 2.1875q1.59375 1.328125 1.59375 3.859375q0 2.953125 -2.390625 4.40625q-2.390625 1.453125 -5.859375 1.453125q-4.625 0 -7.6875 -2.640625l1.75 -2.0625q1.203125 0.96875 2.71875 1.546875q1.53125 0.578125 3.21875 0.578125z" fill-rule="nonzero"/><path fill="#000000" d="m783.9748 606.30817q0 2.234375 -1.125 3.9375q-1.109375 1.6875 -3.25 2.640625q-2.125 0.953125 -5.03125 0.953125q-2.796875 0 -5.09375 -0.828125q-2.296875 -0.84375 -3.9375 -2.421875l1.9375 -2.203125q1.421875 1.34375 3.15625 2.0625q1.734375 0.703125 3.96875 0.703125q2.546875 0 4.25 -1.21875q1.71875 -1.234375 1.71875 -3.5625q0 -1.296875 -0.484375 -2.15625q-0.484375 -0.859375 -1.703125 -1.53125q-1.203125 -0.671875 -3.40625 -1.3125q-4.171875 -1.21875 -6.234375 -2.875q-2.046875 -1.671875 -2.046875 -4.546875q0 -1.90625 1.046875 -3.4375q1.046875 -1.53125 2.9375 -2.359375q1.90625 -0.84375 4.34375 -0.84375q2.53125 0 4.53125 0.75q2.0 0.734375 3.671875 2.1875l-1.9375 2.09375q-2.65625 -2.3125 -6.15625 -2.3125q-2.25 0 -3.703125 0.96875q-1.453125 0.96875 -1.453125 2.84375q0 1.109375 0.59375 1.90625q0.59375 0.78125 1.96875 1.453125q1.390625 0.671875 3.890625 1.375q3.625 1.046875 5.578125 2.734375q1.96875 1.671875 1.96875 5.0zm21.725037 6.109375q-1.015625 0.671875 -2.453125 1.046875q-1.4375 0.375 -2.84375 0.375q-3.109375 0 -4.859375 -1.625q-1.75 -1.625 -1.75 -4.265625l0 -11.71875l-4.515625 0l0 -2.46875l4.515625 0l0 -4.4375l3.125 -0.375l0 4.8125l6.84375 0l-0.421875 2.46875l-6.421875 0l0 11.671875q0 1.6875 0.890625 2.515625q0.90625 0.8125 2.890625 0.8125q2.015625 0 3.765625 -0.9375l1.234375 2.125zm20.865723 -3.28125q0 1.15625 0.375 1.703125q0.375 0.546875 1.234375 0.796875l-0.78125 2.25q-2.875 -0.375 -3.59375 -2.8125q-1.046875 1.34375 -2.640625 2.0625q-1.578125 0.703125 -3.515625 0.703125q-2.953125 0 -4.65625 -1.640625q-1.6875 -1.640625 -1.6875 -4.40625q0 -3.015625 2.359375 -4.65625q2.375 -1.640625 6.828125 -1.640625l2.90625 0l0 -1.609375q0 -2.09375 -1.203125 -3.0q-1.1875 -0.921875 -3.46875 -0.921875q-2.234375 0 -5.109375 1.0l-0.859375 -2.375q3.46875 -1.234375 6.453125 -1.234375q3.59375 0 5.46875 1.6875q1.890625 1.671875 1.890625 4.65625l0 9.4375zm-8.140625 2.359375q1.453125 0 2.78125 -0.75q1.328125 -0.75 2.1875 -2.046875l0 -5.046875l-2.84375 0q-3.125 0 -4.515625 1.046875q-1.375 1.046875 -1.375 3.0625q0 3.734375 3.765625 3.734375zm29.709412 -18.140625q1.203125 0 2.765625 0.40625l-0.4375 6.6875l-2.546875 0l0 -4.21875l-0.1875 0q-4.546875 0 -6.453125 6.484375l0 8.296875l3.984375 0l0 2.421875l-10.21875 0l0 -2.421875l3.09375 0l0 -14.828125l-3.09375 0l0 -2.421875l5.453125 0l0.59375 4.671875q1.1875 -2.546875 2.84375 -3.8125q1.671875 -1.265625 4.203125 -1.265625z" fill-rule="nonzero"/><path fill="#000000" fill-opacity="0.0" d="m292.92914 417.07874l374.14172 0" fill-rule="evenodd"/><path stroke="#666666" stroke-width="8.0" stroke-linejoin="round" stroke-linecap="butt" stroke-dasharray="32.0,24.0" d="m292.92914 417.07874l326.14172 0" fill-rule="evenodd"/><path fill="#666666" stroke="#666666" stroke-width="8.0" stroke-linecap="butt" d="m619.07086 430.2926l36.30481 -13.213867l-36.30481 -13.213867z" fill-rule="evenodd"/></g></svg>