<svg version="1.1" viewBox="0.0 0.0 960.0 720.0" fill="none" stroke="none" stroke-linecap="square" stroke-miterlimit="10" xmlns:xlink="http://www.w3.org/1999/xlink" xmlns="http://www.w3.org/2000/svg"><clipPath id="p.0"><path d="m0 0l960.0 0l0 720.0l-960.0 0l0 -720.0z" clip-rule="nonzero"/></clipPath><g clip-path="url(#p.0)"><path fill="#000000" fill-opacity="0.0" d="m0 0l960.0 0l0 720.0l-960.0 0z" fill-rule="evenodd"/><path fill="#ffffff" d="m1110.1102 95.50656l0 0c0 -32.771793 27.328247 -59.33858 61.03943 -59.33858c33.71106 0 61.039307 26.566788 61.039307 59.33858c0 32.77179 -27.328247 59.338577 -61.039307 59.338577c-33.71118 0 -61.03943 -26.566788 -61.03943 -59.338577z" fill-rule="evenodd"/><path fill="#cbcbcb" d="m1145.2361 77.75993c0 -3.4137344 2.8468018 -6.1811066 6.3582764 -6.1811066c3.5115967 0 6.3582764 2.7673721 6.3582764 6.1811066c0 3.4137268 -2.8466797 6.181099 -6.3582764 6.181099c-3.5114746 0 -6.3582764 -2.7673721 -6.3582764 -6.181099m39.110474 0c0 -3.4137344 2.8466797 -6.1811066 6.3582764 -6.1811066c3.5115967 0 6.3582764 2.7673721 6.3582764 6.1811066c0 3.4137268 -2.8466797 6.181099 -6.3582764 6.181099c-3.5115967 0 -6.3582764 -2.7673721 -6.3582764 -6.181099" fill-rule="evenodd"/><path fill="#000000" fill-opacity="0.0" d="m1138.0659 121.384514q33.08374 22.088188 66.09021 0" fill-rule="evenodd"/><path fill="#000000" fill-opacity="0.0" d="m1110.1102 95.50656l0 0c0 -32.771793 27.328247 -59.33858 61.03943 -59.33858c33.71106 0 61.039307 26.566788 61.039307 59.33858c0 32.77179 -27.328247 59.338577 -61.039307 59.338577c-33.71118 0 -61.03943 -26.566788 -61.03943 -59.338577z" fill-rule="evenodd"/><path stroke="#000000" stroke-width="3.0" stroke-linejoin="round" stroke-linecap="butt" d="m1145.2361 77.75993c0 -3.4137344 2.8468018 -6.1811066 6.3582764 -6.1811066c3.5115967 0 6.3582764 2.7673721 6.3582764 6.1811066c0 3.4137268 -2.8466797 6.181099 -6.3582764 6.181099c-3.5114746 0 -6.3582764 -2.7673721 -6.3582764 -6.181099m39.110474 0c0 -3.4137344 2.8466797 -6.1811066 6.3582764 -6.1811066c3.5115967 0 6.3582764 2.7673721 6.3582764 6.1811066c0 3.4137268 -2.8466797 6.181099 -6.3582764 6.181099c-3.5115967 0 -6.3582764 -2.7673721 -6.3582764 -6.181099" fill-rule="evenodd"/><path stroke="#000000" stroke-width="3.0" stroke-linejoin="round" stroke-linecap="butt" d="m1138.0659 121.384514q33.08374 22.088188 66.09021 0" fill-rule="evenodd"/><path stroke="#000000" stroke-width="3.0" stroke-linejoin="round" stroke-linecap="butt" d="m1110.1102 95.50656l0 0c0 -32.771793 27.328247 -59.33858 61.03943 -59.33858c33.71106 0 61.039307 26.566788 61.039307 59.33858c0 32.77179 -27.328247 59.338577 -61.039307 59.338577c-33.71118 0 -61.03943 -26.566788 -61.03943 -59.338577z" fill-rule="evenodd"/><path fill="#000000" fill-opacity="0.0" d="m1056.4252 154.84514l229.44885 0l0 62.173233l-229.44885 0z" fill-rule="evenodd"/><path fill="#000000" d="m1130.3591 195.53175l-2.234375 0l-0.5625 -9.59375q-0.15625 -2.53125 -0.15625 -6.640625l-3.09375 12.921875l-2.3125 0l-3.3125 -12.921875q0.0625 0.953125 0.0625 2.5625q0 2.453125 -0.109375 4.078125l-0.484375 9.59375l-2.1875 0l1.046875 -18.359375l3.21875 0l2.984375 12.578125l2.859375 -12.578125l3.25 0l1.03125 18.359375zm13.540649 -3.0625q0 0.828125 0.265625 1.21875q0.28125 0.375 0.890625 0.5625l-0.5625 1.59375q-2.046875 -0.265625 -2.5625 -1.984375q-0.75 0.953125 -1.890625 1.46875q-1.125 0.5 -2.5 0.5q-2.109375 0 -3.328125 -1.171875q-1.203125 -1.171875 -1.203125 -3.15625q0 -2.15625 1.6875 -3.328125q1.6875 -1.171875 4.859375 -1.171875l2.078125 0l0 -1.140625q0 -1.5 -0.859375 -2.140625q-0.84375 -0.65625 -2.46875 -0.65625q-1.59375 0 -3.65625 0.71875l-0.609375 -1.71875q2.484375 -0.875 4.609375 -0.875q2.5625 0 3.90625 1.203125q1.34375 1.203125 1.34375 3.328125l0 6.75zm-5.796875 1.671875q1.03125 0 1.96875 -0.53125q0.953125 -0.53125 1.5625 -1.46875l0 -3.59375l-2.015625 0q-2.25 0 -3.234375 0.75q-0.984375 0.75 -0.984375 2.1875q0 2.65625 2.703125 2.65625zm11.728027 -12.65625l1.90625 0l0.1875 1.96875q0.828125 -1.0625 2.09375 -1.65625q1.265625 -0.609375 2.546875 -0.609375q3.953125 0 3.953125 4.15625l0 10.1875l-2.25 0l0 -8.53125q0 -1.578125 -0.171875 -2.390625q-0.171875 -0.828125 -0.6875 -1.234375q-0.5 -0.40625 -1.53125 -0.40625q-1.140625 0 -2.15625 0.703125q-1.015625 0.6875 -1.65625 1.65625l0 10.203125l-2.234375 0l0 -14.046875zm26.056152 10.984375q0 0.828125 0.265625 1.21875q0.28125 0.375 0.890625 0.5625l-0.5625 1.59375q-2.046875 -0.265625 -2.5625 -1.984375q-0.75 0.953125 -1.890625 1.46875q-1.125 0.5 -2.5 0.5q-2.109375 0 -3.328125 -1.171875q-1.203125 -1.171875 -1.203125 -3.15625q0 -2.15625 1.6875 -3.328125q1.6875 -1.171875 4.859375 -1.171875l2.078125 0l0 -1.140625q0 -1.5 -0.859375 -2.140625q-0.84375 -0.65625 -2.46875 -0.65625q-1.59375 0 -3.65625 0.71875l-0.609375 -1.71875q2.484375 -0.875 4.609375 -0.875q2.5625 0 3.90625 1.203125q1.34375 1.203125 1.34375 3.328125l0 6.75zm-5.796875 1.671875q1.03125 0 1.96875 -0.53125q0.953125 -0.53125 1.5625 -1.46875l0 -3.59375l-2.015625 0q-2.25 0 -3.234375 0.75q-0.984375 0.75 -0.984375 2.1875q0 2.65625 2.703125 2.65625zm23.8219 -12.015625q-0.796875 0.265625 -1.734375 0.328125q-0.921875 0.0625 -2.375 0.0625q2.453125 1.125 2.453125 3.546875q0 2.140625 -1.40625 3.46875q-1.40625 1.3125 -3.859375 1.3125q-1.265625 0 -2.109375 -0.296875q-0.328125 0.234375 -0.53125 0.609375q-0.1875 0.375 -0.1875 0.75q0 1.203125 1.859375 1.203125l2.53125 0q1.390625 0 2.515625 0.5q1.140625 0.484375 1.796875 1.359375q0.65625 0.875 0.65625 1.953125q0 2.046875 -1.75 3.15625q-1.75 1.109375 -4.953125 1.109375q-3.25 0 -4.578125 -1.015625q-1.328125 -1.015625 -1.328125 -3.234375l2.015625 0q0 0.890625 0.328125 1.40625q0.34375 0.515625 1.171875 0.765625q0.84375 0.265625 2.390625 0.265625q2.265625 0 3.34375 -0.59375q1.09375 -0.578125 1.09375 -1.734375q0 -0.953125 -0.890625 -1.484375q-0.875 -0.515625 -2.265625 -0.515625l-2.5 0q-1.734375 0 -2.640625 -0.75q-0.90625 -0.765625 -0.90625 -1.90625q0 -0.671875 0.390625 -1.328125q0.40625 -0.65625 1.15625 -1.125q-1.203125 -0.609375 -1.78125 -1.5625q-0.5625 -0.953125 -0.5625 -2.3125q0 -1.40625 0.703125 -2.515625q0.703125 -1.109375 1.96875 -1.734375q1.265625 -0.625 2.921875 -0.625q2.40625 0 3.65625 -0.265625q1.25 -0.265625 2.734375 -0.90625l0.671875 2.109375zm-7.09375 0.71875q-1.625 0 -2.453125 0.875q-0.828125 0.859375 -0.828125 2.34375q0 1.5 0.84375 2.390625q0.84375 0.890625 2.5 0.890625q1.484375 0 2.265625 -0.859375q0.796875 -0.875 0.796875 -2.4375q0 -3.203125 -3.125 -3.203125zm12.774902 6.453125q0.078125 2.3125 1.203125 3.484375q1.140625 1.171875 2.875 1.171875q1.03125 0 1.890625 -0.296875q0.875 -0.3125 1.859375 -0.953125l1.046875 1.5q-0.984375 0.765625 -2.25 1.203125q-1.265625 0.421875 -2.546875 0.421875q-3.046875 0 -4.734375 -1.984375q-1.6875 -1.984375 -1.6875 -5.328125q0 -2.09375 0.734375 -3.765625q0.75 -1.671875 2.140625 -2.609375q1.390625 -0.953125 3.21875 -0.953125q2.671875 0 4.203125 1.859375q1.53125 1.84375 1.53125 5.046875q0 0.609375 -0.046875 1.203125l-9.4375 0zm3.78125 -6.265625q-1.625 0 -2.640625 1.15625q-1.015625 1.15625 -1.140625 3.40625l7.296875 0q-0.015625 -2.21875 -0.953125 -3.390625q-0.9375 -1.171875 -2.5625 -1.171875zm19.915527 -1.84375q0.859375 0 1.96875 0.296875l-0.3125 4.765625l-1.8125 0l0 -3.0l-0.140625 0q-3.25 0 -4.609375 4.625l0 5.921875l2.859375 0l0 1.734375l-7.3125 0l0 -1.734375l2.21875 0l0 -10.578125l-2.21875 0l0 -1.734375l3.890625 0l0.4375 3.328125q0.84375 -1.8125 2.03125 -2.71875q1.1875 -0.90625 3.0 -0.90625z" fill-rule="nonzero"/><path fill="#ffffff" d="m743.1732 328.9134l0 0c0 -32.77179 27.328247 -59.338593 61.039368 -59.338593c33.71112 0 61.039368 26.566803 61.039368 59.338593c0 32.77179 -27.328247 59.338593 -61.039368 59.338593c-33.71112 0 -61.039368 -26.566803 -61.039368 -59.338593z" fill-rule="evenodd"/><path fill="#cbcbcb" d="m778.29913 311.16675c0 -3.4137268 2.8466797 -6.1810913 6.3582764 -6.1810913c3.5115356 0 6.3582764 2.7673645 6.3582764 6.1810913c0 3.4137268 -2.8467407 6.181122 -6.3582764 6.181122c-3.5115967 0 -6.3582764 -2.767395 -6.3582764 -6.181122m39.110413 0c0 -3.4137268 2.8466797 -6.1810913 6.3582764 -6.1810913c3.5115356 0 6.3582764 2.7673645 6.3582764 6.1810913c0 3.4137268 -2.8467407 6.181122 -6.3582764 6.181122c-3.5115967 0 -6.3582764 -2.767395 -6.3582764 -6.181122" fill-rule="evenodd"/><path fill="#000000" fill-opacity="0.0" d="m771.12885 354.79135q33.08374 22.088165 66.09021 0" fill-rule="evenodd"/><path fill="#000000" fill-opacity="0.0" d="m743.1732 328.9134l0 0c0 -32.77179 27.328247 -59.338593 61.039368 -59.338593c33.71112 0 61.039368 26.566803 61.039368 59.338593c0 32.77179 -27.328247 59.338593 -61.039368 59.338593c-33.71112 0 -61.039368 -26.566803 -61.039368 -59.338593z" fill-rule="evenodd"/><path stroke="#000000" stroke-width="3.0" stroke-linejoin="round" stroke-linecap="butt" d="m778.29913 311.16675c0 -3.4137268 2.8466797 -6.1810913 6.3582764 -6.1810913c3.5115356 0 6.3582764 2.7673645 6.3582764 6.1810913c0 3.4137268 -2.8467407 6.181122 -6.3582764 6.181122c-3.5115967 0 -6.3582764 -2.767395 -6.3582764 -6.181122m39.110413 0c0 -3.4137268 2.8466797 -6.1810913 6.3582764 -6.1810913c3.5115356 0 6.3582764 2.7673645 6.3582764 6.1810913c0 3.4137268 -2.8467407 6.181122 -6.3582764 6.181122c-3.5115967 0 -6.3582764 -2.767395 -6.3582764 -6.181122" fill-rule="evenodd"/><path stroke="#000000" stroke-width="3.0" stroke-linejoin="round" stroke-linecap="butt" d="m771.12885 354.79135q33.08374 22.088165 66.09021 0" fill-rule="evenodd"/><path stroke="#000000" stroke-width="3.0" stroke-linejoin="round" stroke-linecap="butt" d="m743.1732 328.9134l0 0c0 -32.77179 27.328247 -59.338593 61.039368 -59.338593c33.71112 0 61.039368 26.566803 61.039368 59.338593c0 32.77179 -27.328247 59.338593 -61.039368 59.338593c-33.71112 0 -61.039368 -26.566803 -61.039368 -59.338593z" fill-rule="evenodd"/><path fill="#000000" fill-opacity="0.0" d="m689.48816 388.25198l229.44885 0l0 62.173218l-229.44885 0z" fill-rule="evenodd"/><path fill="#000000" d="m755.08154 416.21985q0 3.0625 -1.890625 4.484375q-1.890625 1.40625 -5.203125 1.40625l-2.359375 0l0 6.828125l-2.296875 0l0 -18.359375l4.65625 0q3.390625 0 5.234375 1.40625q1.859375 1.40625 1.859375 4.234375zm-2.46875 0.03125q0 -2.0 -1.171875 -2.921875q-1.15625 -0.921875 -3.15625 -0.921875l-2.65625 0l0 7.875l2.578125 0q2.078125 0 3.234375 -0.90625q1.171875 -0.90625 1.171875 -3.125zm11.774963 9.21875q0 1.890625 2.3125 1.890625q1.09375 0 2.359375 -0.46875l0.578125 1.625q-1.328125 0.71875 -3.328125 0.71875q-1.890625 0 -3.03125 -1.03125q-1.125 -1.046875 -1.125 -2.84375l0 -14.328125l-4.328125 0l0 -1.796875l6.5625 0l0 16.234375zm20.571838 0.40625q0 0.828125 0.265625 1.21875q0.28125 0.375 0.890625 0.5625l-0.5625 1.59375q-2.046875 -0.265625 -2.5625 -1.984375q-0.75 0.953125 -1.890625 1.46875q-1.125 0.5 -2.5 0.5q-2.109375 0 -3.328125 -1.171875q-1.203125 -1.171875 -1.203125 -3.15625q0 -2.15625 1.6875 -3.328125q1.6875 -1.171875 4.859375 -1.171875l2.078125 0l0 -1.140625q0 -1.5 -0.859375 -2.140625q-0.84375 -0.65625 -2.46875 -0.65625q-1.59375 0 -3.65625 0.71875l-0.609375 -1.71875q2.484375 -0.875 4.609375 -0.875q2.5625 0 3.90625 1.203125q1.34375 1.203125 1.34375 3.328125l0 6.75zm-5.796875 1.671875q1.03125 0 1.96875 -0.53125q0.953125 -0.53125 1.5625 -1.46875l0 -3.59375l-2.015625 0q-2.25 0 -3.234375 0.75q-0.984375 0.75 -0.984375 2.1875q0 2.65625 2.703125 2.65625zm18.493652 1.46875q-0.828125 2.421875 -2.265625 3.859375q-1.4375 1.453125 -4.03125 1.71875l-0.3125 -1.796875q1.40625 -0.234375 2.25 -0.734375q0.84375 -0.484375 1.3125 -1.21875q0.484375 -0.734375 0.890625 -1.90625l-0.75 0l-4.875 -14.046875l2.375 0l4.015625 12.34375l3.96875 -12.34375l2.328125 0l-4.90625 14.125zm11.009338 -6.3125q0.078125 2.3125 1.203125 3.484375q1.140625 1.171875 2.875 1.171875q1.03125 0 1.890625 -0.296875q0.875 -0.3125 1.859375 -0.953125l1.046875 1.5q-0.984375 0.765625 -2.25 1.203125q-1.265625 0.421875 -2.546875 0.421875q-3.046875 0 -4.734375 -1.984375q-1.6875 -1.984375 -1.6875 -5.328125q0 -2.09375 0.734375 -3.765625q0.75 -1.671875 2.140625 -2.609375q1.390625 -0.953125 3.21875 -0.953125q2.671875 0 4.203125 1.859375q1.53125 1.84375 1.53125 5.046875q0 0.609375 -0.046875 1.203125l-9.4375 0zm3.78125 -6.265625q-1.625 0 -2.640625 1.15625q-1.015625 1.15625 -1.140625 3.40625l7.296875 0q-0.015625 -2.21875 -0.953125 -3.390625q-0.9375 -1.171875 -2.5625 -1.171875zm19.915588 -1.84375q0.859375 0 1.96875 0.296875l-0.3125 4.765625l-1.8125 0l0 -3.0l-0.140625 0q-3.25 0 -4.609375 4.625l0 5.921875l2.859375 0l0 1.734375l-7.3125 0l0 -1.734375l2.21875 0l0 -10.578125l-2.21875 0l0 -1.734375l3.890625 0l0.4375 3.328125q0.84375 -1.8125 2.03125 -2.71875q1.1875 -0.90625 3.0 -0.90625zm33.612366 12.53125l0 1.8125l-10.578125 0l0 -1.8125l4.5 0l0 -14.09375l-4.1875 2.53125l-0.984375 -1.578125l5.46875 -3.40625l1.96875 0l0 16.546875l3.8125 0z" fill-rule="nonzero"/><path fill="#ffffff" d="m743.1732 543.1076l0 0c0 -32.77179 27.328247 -59.338562 61.039368 -59.338562c33.71112 0 61.039368 26.566772 61.039368 59.338562c0 32.77179 -27.328247 59.338562 -61.039368 59.338562c-33.71112 0 -61.039368 -26.566772 -61.039368 -59.338562z" fill-rule="evenodd"/><path fill="#cbcbcb" d="m778.29913 525.36096c0 -3.4136963 2.8466797 -6.1810913 6.3582764 -6.1810913c3.5115356 0 6.3582764 2.767395 6.3582764 6.1810913c0 3.4137573 -2.8467407 6.1810913 -6.3582764 6.1810913c-3.5115967 0 -6.3582764 -2.767334 -6.3582764 -6.1810913m39.110413 0c0 -3.4136963 2.8466797 -6.1810913 6.3582764 -6.1810913c3.5115356 0 6.3582764 2.767395 6.3582764 6.1810913c0 3.4137573 -2.8467407 6.1810913 -6.3582764 6.1810913c-3.5115967 0 -6.3582764 -2.767334 -6.3582764 -6.1810913" fill-rule="evenodd"/><path fill="#000000" fill-opacity="0.0" d="m771.12885 568.98553q33.08374 22.088196 66.09021 0" fill-rule="evenodd"/><path fill="#000000" fill-opacity="0.0" d="m743.1732 543.1076l0 0c0 -32.77179 27.328247 -59.338562 61.039368 -59.338562c33.71112 0 61.039368 26.566772 61.039368 59.338562c0 32.77179 -27.328247 59.338562 -61.039368 59.338562c-33.71112 0 -61.039368 -26.566772 -61.039368 -59.338562z" fill-rule="evenodd"/><path stroke="#000000" stroke-width="3.0" stroke-linejoin="round" stroke-linecap="butt" d="m778.29913 525.36096c0 -3.4136963 2.8466797 -6.1810913 6.3582764 -6.1810913c3.5115356 0 6.3582764 2.767395 6.3582764 6.1810913c0 3.4137573 -2.8467407 6.1810913 -6.3582764 6.1810913c-3.5115967 0 -6.3582764 -2.767334 -6.3582764 -6.1810913m39.110413 0c0 -3.4136963 2.8466797 -6.1810913 6.3582764 -6.1810913c3.5115356 0 6.3582764 2.767395 6.3582764 6.1810913c0 3.4137573 -2.8467407 6.1810913 -6.3582764 6.1810913c-3.5115967 0 -6.3582764 -2.767334 -6.3582764 -6.1810913" fill-rule="evenodd"/><path stroke="#000000" stroke-width="3.0" stroke-linejoin="round" stroke-linecap="butt" d="m771.12885 568.98553q33.08374 22.088196 66.09021 0" fill-rule="evenodd"/><path stroke="#000000" stroke-width="3.0" stroke-linejoin="round" stroke-linecap="butt" d="m743.1732 543.1076l0 0c0 -32.77179 27.328247 -59.338562 61.039368 -59.338562c33.71112 0 61.039368 26.566772 61.039368 59.338562c0 32.77179 -27.328247 59.338562 -61.039368 59.338562c-33.71112 0 -61.039368 -26.566772 -61.039368 -59.338562z" fill-rule="evenodd"/><path fill="#000000" fill-opacity="0.0" d="m689.48816 602.44617l229.44885 0l0 62.17328l-229.44885 0z" fill-rule="evenodd"/><path fill="#000000" d="m755.08154 630.41406q0 3.0625 -1.890625 4.484375q-1.890625 1.40625 -5.203125 1.40625l-2.359375 0l0 6.828125l-2.296875 0l0 -18.359375l4.65625 0q3.390625 0 5.234375 1.40625q1.859375 1.40625 1.859375 4.234375zm-2.46875 0.03125q0 -2.0 -1.171875 -2.921875q-1.15625 -0.921875 -3.15625 -0.921875l-2.65625 0l0 7.875l2.578125 0q2.078125 0 3.234375 -0.90625q1.171875 -0.90625 1.171875 -3.125zm11.774963 9.21875q0 1.890625 2.3125 1.890625q1.09375 0 2.359375 -0.46875l0.578125 1.625q-1.328125 0.71875 -3.328125 0.71875q-1.890625 0 -3.03125 -1.03125q-1.125 -1.046875 -1.125 -2.84375l0 -14.328125l-4.328125 0l0 -1.796875l6.5625 0l0 16.234375zm20.571838 0.40625q0 0.828125 0.265625 1.21875q0.28125 0.375 0.890625 0.5625l-0.5625 1.59375q-2.046875 -0.265625 -2.5625 -1.984375q-0.75 0.953125 -1.890625 1.46875q-1.125 0.5 -2.5 0.5q-2.109375 0 -3.328125 -1.171875q-1.203125 -1.171875 -1.203125 -3.15625q0 -2.15625 1.6875 -3.328125q1.6875 -1.171875 4.859375 -1.171875l2.078125 0l0 -1.140625q0 -1.5 -0.859375 -2.140625q-0.84375 -0.65625 -2.46875 -0.65625q-1.59375 0 -3.65625 0.71875l-0.609375 -1.71875q2.484375 -0.875 4.609375 -0.875q2.5625 0 3.90625 1.203125q1.34375 1.203125 1.34375 3.328125l0 6.75zm-5.796875 1.671875q1.03125 0 1.96875 -0.53125q0.953125 -0.53125 1.5625 -1.46875l0 -3.59375l-2.015625 0q-2.25 0 -3.234375 0.75q-0.984375 0.75 -0.984375 2.1875q0 2.65625 2.703125 2.65625zm18.493652 1.46875q-0.828125 2.421875 -2.265625 3.859375q-1.4375 1.453125 -4.03125 1.71875l-0.3125 -1.796875q1.40625 -0.234375 2.25 -0.734375q0.84375 -0.484375 1.3125 -1.21875q0.484375 -0.734375 0.890625 -1.90625l-0.75 0l-4.875 -14.046875l2.375 0l4.015625 12.34375l3.96875 -12.34375l2.328125 0l-4.90625 14.125zm11.009338 -6.3125q0.078125 2.3125 1.203125 3.484375q1.140625 1.171875 2.875 1.171875q1.03125 0 1.890625 -0.296875q0.875 -0.3125 1.859375 -0.953125l1.046875 1.5q-0.984375 0.765625 -2.25 1.203125q-1.265625 0.421875 -2.546875 0.421875q-3.046875 0 -4.734375 -1.984375q-1.6875 -1.984375 -1.6875 -5.328125q0 -2.09375 0.734375 -3.765625q0.75 -1.671875 2.140625 -2.609375q1.390625 -0.953125 3.21875 -0.953125q2.671875 0 4.203125 1.859375q1.53125 1.84375 1.53125 5.046875q0 0.609375 -0.046875 1.203125l-9.4375 0zm3.78125 -6.265625q-1.625 0 -2.640625 1.15625q-1.015625 1.15625 -1.140625 3.40625l7.296875 0q-0.015625 -2.21875 -0.953125 -3.390625q-0.9375 -1.171875 -2.5625 -1.171875zm19.915588 -1.84375q0.859375 0 1.96875 0.296875l-0.3125 4.765625l-1.8125 0l0 -3.0l-0.140625 0q-3.25 0 -4.609375 4.625l0 5.921875l2.859375 0l0 1.734375l-7.3125 0l0 -1.734375l2.21875 0l0 -10.578125l-2.21875 0l0 -1.734375l3.890625 0l0.4375 3.328125q0.84375 -1.8125 2.03125 -2.71875q1.1875 -0.90625 3.0 -0.90625zm27.00299 -4.3125q1.671875 0 2.9375 0.671875q1.265625 0.65625 1.9375 1.828125q0.671875 1.15625 0.671875 2.609375q0 1.71875 -0.796875 3.3125q-0.78125 1.59375 -2.515625 3.5q-1.734375 1.90625 -4.90625 4.8125l8.640625 0l-0.265625 1.921875l-10.921875 0l0 -1.8125q3.59375 -3.4375 5.328125 -5.375q1.75 -1.953125 2.421875 -3.34375q0.671875 -1.390625 0.671875 -2.9375q0 -1.53125 -0.890625 -2.40625q-0.875 -0.890625 -2.421875 -0.890625q-1.3125 0 -2.171875 0.4375q-0.859375 0.4375 -1.765625 1.5l-1.546875 -1.1875q1.09375 -1.359375 2.4375 -2.0q1.34375 -0.640625 3.15625 -0.640625z" fill-rule="nonzero"/><path fill="#ffffff" d="m23.737534 114.15748l401.25983 0l0 424.80707l-66.87799 66.87799l-334.38184 0z" fill-rule="evenodd"/><path fill="#cbcbcb" d="m358.1194 605.8425l13.37561 -53.50238l53.50238 -13.37561z" fill-rule="evenodd"/><path fill="#000000" fill-opacity="0.0" d="m358.1194 605.8425l13.37561 -53.50238l53.50238 -13.37561l-66.87799 66.87799l-334.38184 0l0 -491.68506l401.25983 0l0 424.80707" fill-rule="evenodd"/><path stroke="#000000" stroke-width="3.0" stroke-linejoin="round" stroke-linecap="butt" d="m358.1194 605.8425l13.37561 -53.50238l53.50238 -13.37561l-66.87799 66.87799l-334.38184 0l0 -491.68506l401.25983 0l0 424.80707" fill-rule="evenodd"/><path fill="#000000" fill-opacity="0.0" d="m23.737534 114.15748l401.25983 0l0 75.96851l-401.25983 0z" fill-rule="evenodd"/><path fill="#000000" d="m73.73587 141.68985l5.25 0l0 18.015625l9.609375 0l-0.515625 4.15625l-14.34375 0l0 -22.171875zm25.825043 4.609375q3.875 0 6.0625 2.453125q2.203125 2.4375 2.203125 6.5625q0 4.296875 -2.1875 6.703125q-2.171875 2.390625 -6.078125 2.390625q-3.890625 0 -6.078125 -2.375q-2.171875 -2.390625 -2.171875 -6.6875q0 -2.71875 0.96875 -4.75q0.984375 -2.03125 2.859375 -3.15625q1.875 -1.140625 4.421875 -1.140625zm0 3.734375q-1.5625 0 -2.296875 1.265625q-0.734375 1.265625 -0.734375 4.046875q0 2.8125 0.734375 4.078125q0.734375 1.265625 2.296875 1.265625q1.578125 0 2.3125 -1.28125q0.734375 -1.28125 0.734375 -4.09375q0 -2.75 -0.734375 -4.015625q-0.734375 -1.265625 -2.3125 -1.265625zm27.137543 12.84375q-2.390625 1.53125 -5.5625 1.53125q-3.265625 0 -4.921875 -1.65625q-1.640625 -1.671875 -1.640625 -4.6875l0 -7.703125l-3.546875 0l0 -3.484375l3.546875 0l0 -3.6875l5.0625 -0.609375l0 4.296875l5.46875 0l-0.515625 3.484375l-4.953125 0l0 7.703125q0 1.25 0.5625 1.796875q0.578125 0.546875 1.859375 0.546875q1.609375 0 2.984375 -0.765625l1.65625 3.234375zm19.200043 0q-2.390625 1.53125 -5.5625 1.53125q-3.265625 0 -4.921875 -1.65625q-1.640625 -1.671875 -1.640625 -4.6875l0 -7.703125l-3.546875 0l0 -3.484375l3.546875 0l0 -3.6875l5.0625 -0.609375l0 4.296875l5.46875 0l-0.515625 3.484375l-4.953125 0l0 7.703125q0 1.25 0.5625 1.796875q0.578125 0.546875 1.859375 0.546875q1.609375 0 2.984375 -0.765625l1.65625 3.234375zm8.293793 -6.03125q0.484375 3.875 4.09375 3.875q2.171875 0 4.359375 -1.40625l2.015625 2.75q-1.25 1.09375 -2.984375 1.71875q-1.71875 0.625 -3.8125 0.625q-2.84375 0 -4.828125 -1.140625q-1.984375 -1.140625 -3.0 -3.171875q-1.0 -2.03125 -1.0 -4.71875q0 -2.5625 0.96875 -4.625q0.984375 -2.0625 2.859375 -3.25q1.875 -1.203125 4.46875 -1.203125q2.421875 0 4.21875 1.046875q1.796875 1.03125 2.765625 3.0q0.984375 1.96875 0.984375 4.6875q0 1.046875 -0.109375 1.8125l-11.0 0zm3.140625 -7.15625q-1.375 0 -2.21875 1.015625q-0.828125 1.0 -0.984375 3.078125l6.234375 0q-0.0625 -4.09375 -3.03125 -4.09375zm24.637543 -3.328125q1.53125 0 2.8125 0.515625l-0.921875 7.09375l-3.203125 0l0 -3.140625q-1.40625 0.265625 -2.5 1.546875q-1.09375 1.28125 -1.6875 3.234375l0 4.859375l3.359375 0l0 3.390625l-10.65625 0l0 -3.390625l2.234375 0l0 -10.234375l-2.234375 0l0 -3.359375l6.109375 0l0.890625 3.796875q0.9375 -2.171875 2.34375 -3.234375q1.40625 -1.078125 3.453125 -1.078125zm16.637543 17.5q-1.15625 3.421875 -3.4375 5.15625q-2.265625 1.75 -6.0625 1.984375l-0.578125 -3.59375q2.421875 -0.3125 3.59375 -1.078125q1.171875 -0.765625 1.875 -2.46875l-1.765625 0l-5.375 -16.984375l5.34375 0l3.296875 13.75l3.59375 -13.75l5.171875 0l-5.65625 16.984375zm37.212585 -22.75q2.3125 0 3.96875 0.609375q1.671875 0.609375 3.140625 1.828125l-2.5625 3.09375q-2.015625 -1.625 -4.421875 -1.625q-2.265625 0 -3.65625 1.921875q-1.390625 1.90625 -1.390625 5.78125q0 3.875 1.375 5.75q1.375 1.875 3.78125 1.875q1.46875 0 2.515625 -0.515625q1.0625 -0.515625 2.28125 -1.46875l2.359375 3.03125q-2.9375 3.015625 -7.453125 3.015625q-3.03125 0 -5.359375 -1.34375q-2.3125 -1.34375 -3.625 -3.984375q-1.3125 -2.640625 -1.3125 -6.359375q0 -3.609375 1.34375 -6.234375q1.34375 -2.625 3.703125 -4.0q2.375 -1.375 5.3125 -1.375zm17.340668 5.1875q3.875 0 6.0625 2.453125q2.203125 2.4375 2.203125 6.5625q0 4.296875 -2.1875 6.703125q-2.171875 2.390625 -6.078125 2.390625q-3.890625 0 -6.078125 -2.375q-2.171875 -2.390625 -2.171875 -6.6875q0 -2.71875 0.96875 -4.75q0.984375 -2.03125 2.859375 -3.15625q1.875 -1.140625 4.421875 -1.140625zm0 3.734375q-1.5625 0 -2.296875 1.265625q-0.734375 1.265625 -0.734375 4.046875q0 2.8125 0.734375 4.078125q0.734375 1.265625 2.296875 1.265625q1.578125 0 2.3125 -1.28125q0.734375 -1.28125 0.734375 -4.09375q0 -2.75 -0.734375 -4.015625q-0.734375 -1.265625 -2.3125 -1.265625zm11.840668 -3.15625l4.421875 0l0.359375 1.9375q1.140625 -1.265625 2.40625 -1.890625q1.265625 -0.625 2.859375 -0.625q2.21875 0 3.4375 1.34375q1.234375 1.34375 1.234375 3.734375l0 12.484375l-5.046875 0l0 -11.015625q0 -1.59375 -0.359375 -2.203125q-0.34375 -0.609375 -1.28125 -0.609375q-0.765625 0 -1.484375 0.5q-0.71875 0.5 -1.484375 1.453125l0 11.875l-5.0625 0l0 -16.984375zm34.496887 16.0q-2.390625 1.53125 -5.5625 1.53125q-3.265625 0 -4.921875 -1.65625q-1.640625 -1.671875 -1.640625 -4.6875l0 -7.703125l-3.546875 0l0 -3.484375l3.546875 0l0 -3.6875l5.0625 -0.609375l0 4.296875l5.46875 0l-0.515625 3.484375l-4.953125 0l0 7.703125q0 1.25 0.5625 1.796875q0.578125 0.546875 1.859375 0.546875q1.609375 0 2.984375 -0.765625l1.65625 3.234375zm16.871948 -16.515625q1.53125 0 2.8125 0.515625l-0.921875 7.09375l-3.203125 0l0 -3.140625q-1.40625 0.265625 -2.5 1.546875q-1.09375 1.28125 -1.6875 3.234375l0 4.859375l3.359375 0l0 3.390625l-10.65625 0l0 -3.390625l2.234375 0l0 -10.234375l-2.234375 0l0 -3.359375l6.109375 0l0.890625 3.796875q0.9375 -2.171875 2.34375 -3.234375q1.40625 -1.078125 3.453125 -1.078125zm20.543762 12.609375q0 0.921875 0.25 1.375q0.265625 0.4375 0.859375 0.671875l-1.046875 3.328125q-1.53125 -0.171875 -2.5625 -0.6875q-1.015625 -0.53125 -1.59375 -1.5625q-0.96875 1.125 -2.4375 1.71875q-1.46875 0.59375 -3.140625 0.59375q-2.625 0 -4.1875 -1.484375q-1.5625 -1.5 -1.5625 -3.859375q0 -2.75 2.171875 -4.265625q2.171875 -1.53125 6.109375 -1.53125l2.28125 0l0 -0.609375q0 -2.625 -3.375 -2.625q-0.859375 0 -2.15625 0.25q-1.296875 0.234375 -2.515625 0.65625l-1.140625 -3.359375q1.625 -0.609375 3.40625 -0.9375q1.78125 -0.34375 3.21875 -0.34375q7.421875 0 7.421875 6.015625l0 6.65625zm-7.9375 1.8125q0.859375 0 1.734375 -0.484375q0.890625 -0.5 1.34375 -1.359375l0 -2.796875l-1.25 0q-4.09375 0 -4.09375 2.5625q0 1.0 0.578125 1.546875q0.59375 0.53125 1.6875 0.53125zm21.856323 -0.375q0.953125 0 1.84375 -0.359375q0.90625 -0.375 1.9375 -1.078125l2.234375 3.1875q-1.21875 1.03125 -2.828125 1.640625q-1.59375 0.609375 -3.484375 0.609375q-2.71875 0 -4.6875 -1.125q-1.96875 -1.125 -3.03125 -3.140625q-1.046875 -2.015625 -1.046875 -4.671875q0 -2.65625 1.09375 -4.734375q1.09375 -2.078125 3.09375 -3.25q2.0 -1.1875 4.6875 -1.1875q1.875 0 3.375 0.53125q1.515625 0.515625 2.828125 1.609375l-2.171875 3.03125q-1.859375 -1.265625 -3.8125 -1.265625q-3.8125 0 -3.8125 5.265625q0 2.65625 0.984375 3.796875q1.0 1.140625 2.796875 1.140625zm25.465637 2.46875q-2.390625 1.53125 -5.5625 1.53125q-3.265625 0 -4.921875 -1.65625q-1.640625 -1.671875 -1.640625 -4.6875l0 -7.703125l-3.546875 0l0 -3.484375l3.546875 0l0 -3.6875l5.0625 -0.609375l0 4.296875l5.46875 0l-0.515625 3.484375l-4.953125 0l0 7.703125q0 1.25 0.5625 1.796875q0.578125 0.546875 1.859375 0.546875q1.609375 0 2.984375 -0.765625l1.65625 3.234375z" fill-rule="nonzero"/><path fill="#efefef" d="m72.338585 217.01837l307.43307 0l0 142.99213l-307.43307 0z" fill-rule="evenodd"/><path stroke="#000000" stroke-width="3.0" stroke-linejoin="round" stroke-linecap="butt" d="m72.338585 217.01837l307.43307 0l0 142.99213l-307.43307 0z" fill-rule="evenodd"/><path fill="#000000" d="m153.44916 253.66132q0 3.125 -1.96875 4.71875q-1.953125 1.578125 -5.34375 1.578125l-2.015625 0l0 6.15625l-4.375 0l0 -18.46875l5.8125 0q3.828125 0 5.859375 1.515625q2.03125 1.5 2.03125 4.5zm-4.484375 0q0 -2.90625 -3.328125 -2.90625l-1.515625 0l0 6.0625l1.71875 0q1.5 0 2.3125 -0.765625q0.8125 -0.78125 0.8125 -2.390625zm17.774948 -2.125q1.28125 0 2.34375 0.421875l-0.765625 5.921875l-2.671875 0l0 -2.609375q-1.171875 0.203125 -2.078125 1.28125q-0.90625 1.0625 -1.40625 2.6875l0 4.046875l2.796875 0l0 2.828125l-8.875 0l0 -2.828125l1.859375 0l0 -8.53125l-1.859375 0l0 -2.796875l5.09375 0l0.75 3.171875q0.765625 -1.8125 1.9375 -2.703125q1.171875 -0.890625 2.875 -0.890625zm11.306198 -6.984375q1.09375 0 1.78125 0.6875q0.703125 0.671875 0.703125 1.6875q0 1.03125 -0.703125 1.703125q-0.6875 0.671875 -1.78125 0.671875q-1.09375 0 -1.796875 -0.671875q-0.703125 -0.6875 -0.703125 -1.703125q0 -1.015625 0.703125 -1.6875q0.703125 -0.6875 1.796875 -0.6875zm2.53125 18.6875l3.625 0l0 2.875l-11.828125 0l0 -2.875l4.0 0l0 -8.40625l-3.875 0l0 -2.875l8.078125 0l0 11.28125zm14.884323 0q0.796875 0 1.53125 -0.296875q0.75 -0.3125 1.609375 -0.90625l1.859375 2.671875q-1.015625 0.84375 -2.34375 1.359375q-1.328125 0.5 -2.90625 0.5q-2.265625 0 -3.90625 -0.921875q-1.640625 -0.9375 -2.515625 -2.609375q-0.875 -1.6875 -0.875 -3.90625q0 -2.21875 0.90625 -3.9375q0.90625 -1.734375 2.5625 -2.71875q1.671875 -1.0 3.90625 -1.0q1.578125 0 2.828125 0.453125q1.25 0.4375 2.34375 1.34375l-1.8125 2.53125q-1.546875 -1.0625 -3.171875 -1.0625q-3.171875 0 -3.171875 4.390625q0 2.21875 0.828125 3.171875q0.828125 0.9375 2.328125 0.9375zm12.118683 -2.96875q0.40625 3.234375 3.421875 3.234375q1.8125 0 3.625 -1.171875l1.671875 2.28125q-1.046875 0.90625 -2.484375 1.4375q-1.4375 0.515625 -3.171875 0.515625q-2.375 0 -4.03125 -0.9375q-1.640625 -0.953125 -2.484375 -2.640625q-0.84375 -1.703125 -0.84375 -3.9375q0 -2.140625 0.8125 -3.859375q0.828125 -1.71875 2.375 -2.71875q1.5625 -1.0 3.71875 -1.0q2.03125 0 3.515625 0.875q1.5 0.859375 2.3125 2.5q0.8125 1.640625 0.8125 3.90625q0 0.875 -0.078125 1.515625l-9.171875 0zm2.609375 -5.96875q-1.140625 0 -1.84375 0.84375q-0.6875 0.84375 -0.8125 2.578125l5.1875 0q-0.046875 -3.421875 -2.53125 -3.421875zm39.22177 -0.640625q0 3.125 -1.96875 4.71875q-1.953125 1.578125 -5.34375 1.578125l-2.015625 0l0 6.15625l-4.375 0l0 -18.46875l5.8125 0q3.828125 0 5.859375 1.515625q2.03125 1.5 2.03125 4.5zm-4.484375 0q0 -2.90625 -3.328125 -2.90625l-1.515625 0l0 6.0625l1.71875 0q1.5 0 2.3125 -0.765625q0.8125 -0.78125 0.8125 -2.390625zm13.118729 -2.1875q3.21875 0 5.046875 2.046875q1.828125 2.03125 1.828125 5.46875q0 3.578125 -1.8125 5.578125q-1.8125 2.0 -5.0625 2.0q-3.2500153 0 -5.0625153 -1.984375q-1.8125 -1.984375 -1.8125 -5.5625q0 -2.265625 0.8125 -3.953125q0.8125 -1.6875 2.359375 -2.640625q1.5625 -0.953125 3.7031403 -0.953125zm0 3.125q-1.3125 0 -1.921875 1.0625q-0.60939026 1.046875 -0.60939026 3.359375q0 2.34375 0.60939026 3.40625q0.609375 1.046875 1.921875 1.046875q1.296875 0 1.90625 -1.0625q0.625 -1.0625 0.625 -3.421875q0 -2.28125 -0.625 -3.328125q-0.609375 -1.0625 -1.90625 -1.0625zm15.993683 -3.125q3.21875 0 5.046875 2.046875q1.828125 2.03125 1.828125 5.46875q0 3.578125 -1.8125 5.578125q-1.8125 2.0 -5.0625 2.0q-3.25 0 -5.0625 -1.984375q-1.8125 -1.984375 -1.8125 -5.5625q0 -2.265625 0.8125 -3.953125q0.8125 -1.6875 2.359375 -2.640625q1.5625 -0.953125 3.703125 -0.953125zm0 3.125q-1.3125 0 -1.921875 1.0625q-0.609375 1.046875 -0.609375 3.359375q0 2.34375 0.609375 3.40625q0.609375 1.046875 1.921875 1.046875q1.296875 0 1.90625 -1.0625q0.625 -1.0625 0.625 -3.421875q0 -2.28125 -0.625 -3.328125q-0.609375 -1.0625 -1.90625 -1.0625zm17.243713 7.0625q0 1.578125 1.8125 1.578125q0.984375 0 2.03125 -0.4375l0.984375 2.828125q-1.703125 0.9375 -4.078125 0.9375q-2.484375 0 -3.734375 -1.421875q-1.234375 -1.4375 -1.234375 -4.015625l0 -11.921875l-4.15625 0l0 -2.875l8.375 0l0 15.328125zm11.946808 -7.109375q0 -1.15625 0.8125 -1.984375q0.8125 -0.828125 1.984375 -0.828125q1.171875 0 1.96875 0.828125q0.796875 0.828125 0.796875 1.984375q0 1.140625 -0.796875 1.953125q-0.796875 0.8125 -1.96875 0.8125q-1.171875 0 -1.984375 -0.8125q-0.8125 -0.8125 -0.8125 -1.953125zm0 9.1875q0 -1.109375 0.8125 -1.921875q0.8125 -0.828125 1.984375 -0.828125q1.171875 0 1.96875 0.828125q0.796875 0.8125 0.796875 1.921875q0 1.171875 -0.796875 2.0q-0.796875 0.828125 -1.96875 0.828125q-1.171875 0 -1.984375 -0.828125q-0.8125 -0.828125 -0.8125 -2.0z" fill-rule="nonzero"/><path fill="#000000" d="m177.24905 311.4582q1.671875 0 2.9375 0.671875q1.265625 0.65625 1.9375 1.828125q0.671875 1.15625 0.671875 2.609375q0 1.71875 -0.796875 3.3125q-0.78125 1.59375 -2.515625 3.5q-1.734375 1.90625 -4.90625 4.8125l8.640625 0l-0.265625 1.921875l-10.921875 0l0 -1.8125q3.59375 -3.4375 5.328125 -5.375q1.75 -1.953125 2.421875 -3.34375q0.671875 -1.390625 0.671875 -2.9375q0 -1.53125 -0.890625 -2.40625q-0.875 -0.890625 -2.421875 -0.890625q-1.3125 0 -2.171875 0.4375q-0.859375 0.4375 -1.765625 1.5l-1.546875 -1.1875q1.09375 -1.359375 2.4375 -2.0q1.34375 -0.640625 3.15625 -0.640625zm30.471756 8.390625l6.8125 0l0 1.890625l-6.8125 0l0 6.515625l8.359375 0l0 1.859375l-10.65625 0l0 -18.359375l10.421875 0l-0.265625 1.90625l-7.859375 0l0 6.1875zm24.165588 9.546875q-0.71875 0.484375 -1.75 0.75q-1.015625 0.265625 -2.03125 0.265625q-2.203125 0 -3.46875 -1.15625q-1.25 -1.171875 -1.25 -3.0625l0 -8.359375l-3.21875 0l0 -1.765625l3.21875 0l0 -3.171875l2.25 -0.265625l0 3.4375l4.875 0l-0.296875 1.765625l-4.578125 0l0 8.34375q0 1.1875 0.625 1.78125q0.640625 0.578125 2.0625 0.578125q1.4375 0 2.6875 -0.65625l0.875 1.515625zm7.071808 -11.390625q0.828125 -1.0625 2.015625 -1.640625q1.203125 -0.59375 2.484375 -0.59375q3.953125 0 3.953125 4.15625l0 10.1875l-2.25 0l0 -10.15625q0 -1.25 -0.59375 -1.828125q-0.578125 -0.578125 -1.859375 -0.578125q-1.078125 0 -2.09375 0.703125q-1.015625 0.6875 -1.65625 1.625l0 10.234375l-2.234375 0l0 -19.671875l2.234375 -0.234375l0 7.796875zm15.540588 5.875q0.078125 2.3125 1.203125 3.484375q1.1406403 1.171875 2.8750153 1.171875q1.03125 0 1.890625 -0.296875q0.875 -0.3125 1.859375 -0.953125l1.046875 1.5q-0.984375 0.765625 -2.25 1.203125q-1.265625 0.421875 -2.546875 0.421875q-3.0468903 0 -4.7343903 -1.984375q-1.6875 -1.984375 -1.6875 -5.328125q0 -2.09375 0.734375 -3.765625q0.75 -1.671875 2.140625 -2.609375q1.3906403 -0.953125 3.2187653 -0.953125q2.671875 0 4.203125 1.859375q1.53125 1.84375 1.53125 5.046875q0 0.609375 -0.046875 1.203125l-9.437515 0zm3.7812653 -6.265625q-1.625 0 -2.6406403 1.15625q-1.015625 1.15625 -1.140625 3.40625l7.2968903 0q-0.015625 -2.21875 -0.953125 -3.390625q-0.9375 -1.171875 -2.5625 -1.171875zm19.915558 -1.84375q0.859375 0 1.96875 0.296875l-0.3125 4.765625l-1.8125 0l0 -3.0l-0.140625 0q-3.25 0 -4.609375 4.625l0 5.921875l2.859375 0l0 1.734375l-7.3125 0l0 -1.734375l2.21875 0l0 -10.578125l-2.21875 0l0 -1.734375l3.890625 0l0.4375 3.328125q0.84375 -1.8125 2.03125 -2.71875q1.1875 -0.90625 3.0 -0.90625z" fill-rule="nonzero"/><path fill="#efefef" d="m70.65092 386.9029l307.43307 0l0 142.99213l-307.43307 0z" fill-rule="evenodd"/><path stroke="#000000" stroke-width="3.0" stroke-linejoin="round" stroke-linecap="butt" d="m70.65092 386.9029l307.43307 0l0 142.99213l-307.43307 0z" fill-rule="evenodd"/><path fill="#000000" d="m175.75204 430.04584q0 3.125 -1.96875 4.71875q-1.953125 1.578125 -5.34375 1.578125l-2.015625 0l0 6.15625l-4.375 0l0 -18.46875l5.8125 0q3.828125 0 5.859375 1.515625q2.03125 1.5 2.03125 4.5zm-4.484375 0q0 -2.90625 -3.328125 -2.90625l-1.515625 0l0 6.0625l1.71875 0q1.5 0 2.3125 -0.765625q0.8125 -0.78125 0.8125 -2.390625zm14.368698 8.0q0 1.578125 1.8125 1.578125q0.984375 0 2.03125 -0.4375l0.984375 2.828125q-1.703125 0.9375 -4.078125 0.9375q-2.484375 0 -3.734375 -1.421875q-1.234375 -1.4375 -1.234375 -4.015625l0 -11.921875l-4.15625 0l0 -2.875l8.375 0l0 15.328125zm20.524948 0.375q0 0.765625 0.203125 1.140625q0.21875 0.375 0.734375 0.5625l-0.890625 2.78125q-1.265625 -0.140625 -2.125 -0.578125q-0.859375 -0.4375 -1.328125 -1.296875q-0.8125 0.9375 -2.03125 1.4375q-1.21875 0.484375 -2.609375 0.484375q-2.1875 0 -3.5 -1.234375q-1.296875 -1.25 -1.296875 -3.21875q0 -2.296875 1.8125 -3.5625q1.8125 -1.265625 5.09375 -1.265625l1.890625 0l0 -0.5q0 -2.1875 -2.796875 -2.1875q-0.734375 0 -1.8125 0.203125q-1.078125 0.203125 -2.09375 0.546875l-0.953125 -2.796875q1.359375 -0.515625 2.828125 -0.796875q1.484375 -0.28125 2.6875 -0.28125q6.1875 0 6.1875 5.015625l0 5.546875zm-6.609375 1.515625q0.71875 0 1.453125 -0.40625q0.734375 -0.421875 1.109375 -1.140625l0 -2.3125l-1.046875 0q-3.40625 0 -3.40625 2.125q0 0.828125 0.484375 1.28125q0.5 0.453125 1.40625 0.453125zm19.353073 2.5625q-0.96875 2.859375 -2.859375 4.296875q-1.890625 1.453125 -5.0625 1.640625l-0.484375 -2.984375q2.03125 -0.265625 3.0 -0.90625q0.984375 -0.640625 1.5625 -2.046875l-1.46875 0l-4.46875 -14.15625l4.453125 0l2.734375 11.46875l2.984375 -11.46875l4.328125 0l-4.71875 14.15625zm10.978073 -5.84375q0.40625 3.234375 3.421875 3.234375q1.8125 0 3.625 -1.171875l1.671875 2.28125q-1.046875 0.90625 -2.484375 1.4375q-1.4375 0.515625 -3.171875 0.515625q-2.375 0 -4.03125 -0.9375q-1.640625 -0.953125 -2.484375 -2.640625q-0.84375 -1.703125 -0.84375 -3.9375q0 -2.140625 0.8125 -3.859375q0.828125 -1.71875 2.375 -2.71875q1.5625 -1.0 3.71875 -1.0q2.03125 0 3.515625 0.875q1.5 0.859375 2.3125 2.5q0.8125 1.640625 0.8125 3.90625q0 0.875 -0.078125 1.515625l-9.171875 0zm2.609375 -5.96875q-1.140625 0 -1.84375 0.84375q-0.6875 0.84375 -0.8125 2.578125l5.1875 0q-0.046875 -3.421875 -2.53125 -3.421875zm20.524948 -2.765625q1.28125 0 2.34375 0.421875l-0.765625 5.921875l-2.671875 0l0 -2.609375q-1.171875 0.203125 -2.078125 1.28125q-0.90625 1.0625 -1.40625 2.6875l0 4.046875l2.796875 0l0 2.828125l-8.875 0l0 -2.828125l1.859375 0l0 -8.53125l-1.859375 0l0 -2.796875l5.09375 0l0.75 3.171875q0.765625 -1.8125 1.9375 -2.703125q1.171875 -0.890625 2.875 -0.890625zm10.884323 12.015625q1.09375 0 1.71875 -0.328125q0.625 -0.328125 0.625 -1.0q0 -0.484375 -0.25 -0.765625q-0.25 -0.296875 -0.953125 -0.578125q-0.6875 -0.28125 -2.15625 -0.6875q-2.140625 -0.5625 -3.265625 -1.5625q-1.109375 -1.0 -1.109375 -2.75q0 -1.953125 1.609375 -3.171875q1.625 -1.234375 4.53125 -1.234375q3.359375 0 5.71875 1.734375l-1.671875 2.484375q-1.953125 -1.203125 -3.921875 -1.203125q-1.03125 0 -1.53125 0.265625q-0.5 0.265625 -0.5 0.828125q0 0.375 0.25 0.625q0.265625 0.25 0.96875 0.53125q0.703125 0.265625 2.125 0.65625q1.515625 0.421875 2.484375 0.9375q0.96875 0.5 1.5 1.359375q0.546875 0.84375 0.546875 2.1875q0 1.484375 -0.90625 2.5625q-0.90625 1.0625 -2.4375 1.59375q-1.515625 0.53125 -3.34375 0.53125q-1.984375 0 -3.578125 -0.5625q-1.59375 -0.5625 -2.71875 -1.5625l2.109375 -2.375q1.90625 1.484375 4.15625 1.484375zm13.649933 -9.0q0 -1.15625 0.8125 -1.984375q0.8125 -0.828125 1.984375 -0.828125q1.171875 0 1.96875 0.828125q0.796875 0.828125 0.796875 1.984375q0 1.140625 -0.796875 1.953125q-0.796875 0.8125 -1.96875 0.8125q-1.171875 0 -1.984375 -0.8125q-0.8125 -0.8125 -0.8125 -1.953125zm0 9.1875q0 -1.109375 0.8125 -1.921875q0.8125 -0.828125 1.984375 -0.828125q1.171875 0 1.96875 0.828125q0.796875 0.8125 0.796875 1.921875q0 1.171875 -0.796875 2.0q-0.796875 0.828125 -1.96875 0.828125q-1.171875 0 -1.984375 -0.828125q-0.8125 -0.828125 -0.8125 -2.0z" fill-rule="nonzero"/><path fill="#000000" d="m108.142784 482.48584q0 2.765625 -1.71875 4.046875q-1.703125 1.265625 -4.671875 1.265625l-2.140625 0l0 6.140625l-2.0625 0l0 -16.53125l4.203125 0q3.046875 0 4.71875 1.28125q1.671875 1.265625 1.671875 3.796875zm-2.234375 0.03125q0 -1.796875 -1.046875 -2.625q-1.046875 -0.828125 -2.84375 -0.828125l-2.40625 0l0 7.078125l2.328125 0q1.875 0 2.921875 -0.8125q1.046875 -0.828125 1.046875 -2.8125zm10.603088 8.296875q0 1.703125 2.09375 1.703125q0.984375 0 2.109375 -0.421875l0.53125 1.453125q-1.203125 0.65625 -3.0 0.65625q-1.703125 0 -2.734375 -0.9375q-1.015625 -0.9375 -1.015625 -2.546875l0 -12.90625l-3.890625 0l0 -1.609375l5.90625 0l0 14.609375zm18.524971 0.359375q0 0.75 0.234375 1.109375q0.25 0.34375 0.796875 0.5l-0.5 1.4375q-1.84375 -0.234375 -2.296875 -1.796875q-0.671875 0.875 -1.703125 1.328125q-1.015625 0.453125 -2.265625 0.453125q-1.8906326 0 -2.9843826 -1.046875q-1.09375 -1.0625 -1.09375 -2.84375q0 -1.9375 1.515625 -3.0q1.5312576 -1.0625 4.3906326 -1.0625l1.875 0l0 -1.03125q0 -1.34375 -0.78125 -1.921875q-0.765625 -0.59375 -2.21875 -0.59375q-1.453125 0 -3.2968826 0.65625l-0.546875 -1.546875q2.2343826 -0.78125 4.1562576 -0.78125q2.296875 0 3.5 1.078125q1.21875 1.078125 1.21875 3.0l0 6.0625zm-5.234375 1.515625q0.9375 0 1.78125 -0.46875q0.859375 -0.484375 1.421875 -1.328125l0 -3.234375l-1.828125 0q-2.015625 0 -2.90625 0.671875q-0.8906326 0.671875 -0.8906326 1.96875q0 2.390625 2.4218826 2.390625zm16.665588 1.328125q-0.75 2.171875 -2.046875 3.46875q-1.296875 1.296875 -3.625 1.546875l-0.28125 -1.609375q1.265625 -0.21875 2.015625 -0.671875q0.765625 -0.4375 1.1875 -1.09375q0.4375 -0.65625 0.796875 -1.71875l-0.671875 0l-4.390625 -12.640625l2.140625 0l3.625 11.109375l3.578125 -11.109375l2.078125 0l-4.40625 12.71875zm9.915588 -5.6875q0.0625 2.078125 1.078125 3.140625q1.03125 1.046875 2.59375 1.046875q0.921875 0 1.703125 -0.265625q0.78125 -0.28125 1.671875 -0.859375l0.9375 1.34375q-0.890625 0.703125 -2.03125 1.09375q-1.140625 0.375 -2.28125 0.375q-2.75 0 -4.28125 -1.78125q-1.515625 -1.796875 -1.515625 -4.796875q0 -1.890625 0.671875 -3.390625q0.671875 -1.5 1.921875 -2.34375q1.25 -0.859375 2.90625 -0.859375q2.40625 0 3.78125 1.671875q1.375 1.65625 1.375 4.53125q0 0.5625 -0.046875 1.09375l-8.484375 0zm3.40625 -5.640625q-1.46875 0 -2.390625 1.046875q-0.90625 1.03125 -1.015625 3.046875l6.5625 0q-0.015625 -1.984375 -0.859375 -3.03125q-0.84375 -1.0625 -2.296875 -1.0625zm17.915588 -1.65625q0.78125 0 1.78125 0.265625l-0.28125 4.28125l-1.640625 0l0 -2.703125l-0.109375 0q-2.9375 0 -4.15625 4.171875l0 5.328125l2.5625 0l0 1.5625l-6.578125 0l0 -1.5625l2.0 0l0 -9.53125l-2.0 0l0 -1.546875l3.515625 0l0.375 3.0q0.765625 -1.640625 1.828125 -2.453125q1.078125 -0.8125 2.703125 -0.8125zm30.268677 11.28125l0 1.625l-9.53125 0l0 -1.625l4.0625 0l0 -12.703125l-3.765625 2.28125l-0.890625 -1.421875l4.921875 -3.0625l1.765625 0l0 14.90625l3.4375 0zm9.196838 -2.328125q0.8125 0 1.375 0.5625q0.5625 0.5625 0.5625 1.34375q0 0.890625 -0.453125 1.90625l-1.9375 4.4375l-1.828125 0l1.125 -4.734375q-0.328125 -0.265625 -0.546875 -0.6875q-0.21875 -0.4375 -0.21875 -0.890625q0 -0.8125 0.546875 -1.375q0.5625 -0.5625 1.375 -0.5625zm34.9718 -7.5q0 2.765625 -1.71875 4.046875q-1.703125 1.265625 -4.671875 1.265625l-2.140625 0l0 6.140625l-2.0625 0l0 -16.53125l4.203125 0q3.046875 0 4.71875 1.28125q1.671875 1.265625 1.671875 3.796875zm-2.234375 0.03125q0 -1.796875 -1.046875 -2.625q-1.046875 -0.828125 -2.84375 -0.828125l-2.40625 0l0 7.078125l2.328125 0q1.875 0 2.921875 -0.8125q1.046875 -0.828125 1.046875 -2.8125zm10.603088 8.296875q0 1.703125 2.09375 1.703125q0.984375 0 2.109375 -0.421875l0.53125 1.453125q-1.203125 0.65625 -3.0 0.65625q-1.703125 0 -2.734375 -0.9375q-1.015625 -0.9375 -1.015625 -2.546875l0 -12.90625l-3.890625 0l0 -1.609375l5.90625 0l0 14.609375zm18.524963 0.359375q0 0.75 0.234375 1.109375q0.25 0.34375 0.796875 0.5l-0.5 1.4375q-1.84375 -0.234375 -2.296875 -1.796875q-0.671875 0.875 -1.703125 1.328125q-1.015625 0.453125 -2.265625 0.453125q-1.890625 0 -2.984375 -1.046875q-1.09375 -1.0625 -1.09375 -2.84375q0 -1.9375 1.515625 -3.0q1.53125 -1.0625 4.390625 -1.0625l1.875 0l0 -1.03125q0 -1.34375 -0.78125 -1.921875q-0.765625 -0.59375 -2.21875 -0.59375q-1.453125 0 -3.296875 0.65625l-0.546875 -1.546875q2.234375 -0.78125 4.15625 -0.78125q2.296875 0 3.5 1.078125q1.21875 1.078125 1.21875 3.0l0 6.0625zm-5.234375 1.515625q0.9375 0 1.78125 -0.46875q0.859375 -0.484375 1.421875 -1.328125l0 -3.234375l-1.828125 0q-2.015625 0 -2.90625 0.671875q-0.890625 0.671875 -0.890625 1.96875q0 2.390625 2.421875 2.390625zm16.665588 1.328125q-0.75 2.171875 -2.046875 3.46875q-1.296875 1.296875 -3.625 1.546875l-0.28125 -1.609375q1.265625 -0.21875 2.015625 -0.671875q0.765625 -0.4375 1.1875 -1.09375q0.4375 -0.65625 0.796875 -1.71875l-0.671875 0l-4.390625 -12.640625l2.140625 0l3.625 11.109375l3.578125 -11.109375l2.078125 0l-4.40625 12.71875zm9.915588 -5.6875q0.0625 2.078125 1.078125 3.140625q1.03125 1.046875 2.59375 1.046875q0.921875 0 1.703125 -0.265625q0.78125 -0.28125 1.671875 -0.859375l0.9375 1.34375q-0.890625 0.703125 -2.03125 1.09375q-1.140625 0.375 -2.28125 0.375q-2.75 0 -4.28125 -1.78125q-1.515625 -1.796875 -1.515625 -4.796875q0 -1.890625 0.671875 -3.390625q0.671875 -1.5 1.921875 -2.34375q1.25 -0.859375 2.90625 -0.859375q2.40625 0 3.78125 1.671875q1.375 1.65625 1.375 4.53125q0 0.5625 -0.046875 1.09375l-8.484375 0zm3.40625 -5.640625q-1.46875 0 -2.390625 1.046875q-0.90625 1.03125 -1.015625 3.046875l6.5625 0q-0.015625 -1.984375 -0.859375 -3.03125q-0.84375 -1.0625 -2.296875 -1.0625zm17.915588 -1.65625q0.78125 0 1.78125 0.265625l-0.28125 4.28125l-1.640625 0l0 -2.703125l-0.109375 0q-2.9375 0 -4.15625 4.171875l0 5.328125l2.5625 0l0 1.5625l-6.578125 0l0 -1.5625l2.0 0l0 -9.53125l-2.0 0l0 -1.546875l3.515625 0l0.375 3.0q0.765625 -1.640625 1.828125 -2.453125q1.078125 -0.8125 2.703125 -0.8125zm24.315552 -3.890625q1.515625 0 2.65625 0.609375q1.140625 0.59375 1.734375 1.640625q0.609375 1.03125 0.609375 2.359375q0 1.53125 -0.71875 2.96875q-0.703125 1.4375 -2.265625 3.15625q-1.5625 1.71875 -4.40625 4.328125l7.765625 0l-0.234375 1.734375l-9.84375 0l0 -1.625q3.234375 -3.109375 4.8125 -4.859375q1.578125 -1.75 2.171875 -3.0q0.609375 -1.25 0.609375 -2.640625q0 -1.390625 -0.796875 -2.171875q-0.796875 -0.796875 -2.1875 -0.796875q-1.171875 0 -1.953125 0.40625q-0.78125 0.390625 -1.59375 1.34375l-1.390625 -1.078125q0.984375 -1.21875 2.1875 -1.796875q1.21875 -0.578125 2.84375 -0.578125z" fill-rule="nonzero"/><path fill="#000000" fill-opacity="0.0" d="m1277.6102 524.55383l-232.28345 -176.53546" fill-rule="evenodd"/><path stroke="#000000" stroke-width="4.0" stroke-linejoin="round" stroke-linecap="butt" d="m1277.6102 524.55383l-213.17566 -162.01349" fill-rule="evenodd"/><path fill="#000000" stroke="#000000" stroke-width="4.0" stroke-linecap="butt" d="m1068.4324 357.28018l-18.449951 -5.7235107l10.454468 16.243896z" fill-rule="evenodd"/><path fill="#000000" fill-opacity="0.0" d="m1012.042 462.6483l242.11023 0l0 84.724396l-242.11023 0z" fill-rule="evenodd"/><path fill="#000000" d="m1090.9004 512.798l0 1.8125l-10.578125 0l0 -1.8125l4.5 0l0 -14.0937195l-4.1875 2.53125l-0.984375 -1.578125l5.46875 -3.40625l1.96875 0l0 16.546844l3.8125 0zm23.862427 -8.4530945l6.8125 0l0 1.890625l-6.8125 0l0 6.5155945l8.359375 0l0 1.859375l-10.65625 0l0 -18.359344l10.421875 0l-0.265625 1.90625l-7.859375 0l0 6.1875zm24.165527 9.5468445q-0.71875 0.484375 -1.75 0.75q-1.015625 0.265625 -2.03125 0.265625q-2.203125 0 -3.46875 -1.15625q-1.25 -1.171875 -1.25 -3.0624695l0 -8.359375l-3.21875 0l0 -1.765625l3.21875 0l0 -3.171875l2.25 -0.265625l0 3.4375l4.875 0l-0.296875 1.765625l-4.578125 0l0 8.34375q0 1.1875 0.625 1.7812195q0.640625 0.578125 2.0625 0.578125q1.4375 0 2.6875 -0.65625l0.875 1.515625zm7.0718994 -11.3905945q0.828125 -1.0625 2.015625 -1.640625q1.203125 -0.59375 2.484375 -0.59375q3.953125 0 3.953125 4.15625l0 10.1874695l-2.25 0l0 -10.1562195q0 -1.25 -0.59375 -1.828125q-0.578125 -0.578125 -1.859375 -0.578125q-1.078125 0 -2.09375 0.703125q-1.015625 0.6875 -1.65625 1.625l0 10.2343445l-2.234375 0l0 -19.671844l2.234375 -0.234375l0 7.796875zm15.540527 5.875q0.078125 2.3125 1.203125 3.484375q1.140625 1.1718445 2.875 1.1718445q1.03125 0 1.890625 -0.296875q0.875 -0.3125 1.859375 -0.9530945l1.046875 1.4999695q-0.984375 0.765625 -2.25 1.203125q-1.265625 0.421875 -2.546875 0.421875q-3.046875 0 -4.734375 -1.984375q-1.6875 -1.9843445 -1.6875 -5.3280945q0 -2.09375 0.734375 -3.765625q0.75 -1.671875 2.140625 -2.609375q1.390625 -0.953125 3.21875 -0.953125q2.671875 0 4.203125 1.859375q1.53125 1.84375 1.53125 5.046875q0 0.609375 -0.046875 1.203125l-9.4375 0zm3.78125 -6.265625q-1.625 0 -2.640625 1.15625q-1.015625 1.15625 -1.140625 3.40625l7.296875 0q-0.015625 -2.21875 -0.953125 -3.390625q-0.9375 -1.171875 -2.5625 -1.171875zm19.91565 -1.84375q0.859375 0 1.96875 0.296875l-0.3125 4.765625l-1.8125 0l0 -3.0l-0.140625 0q-3.25 0 -4.609375 4.625l0 5.9218445l2.859375 0l0 1.734375l-7.3125 0l0 -1.734375l2.21875 0l0 -10.5780945l-2.21875 0l0 -1.734375l3.890625 0l0.4375 3.328125q0.84375 -1.8125 2.03125 -2.71875q1.1875 -0.90625 3.0 -0.90625z" fill-rule="nonzero"/></g></svg>