<svg version="1.1" viewBox="0.0 0.0 960.0 720.0" fill="none" stroke="none" stroke-linecap="square" stroke-miterlimit="10" xmlns:xlink="http://www.w3.org/1999/xlink" xmlns="http://www.w3.org/2000/svg"><clipPath id="p.0"><path d="m0 0l960.0 0l0 720.0l-960.0 0l0 -720.0z" clip-rule="nonzero"/></clipPath><g clip-path="url(#p.0)"><path fill="#000000" fill-opacity="0.0" d="m0 0l960.0 0l0 720.0l-960.0 0z" fill-rule="evenodd"/><path fill="#ffffff" d="m59.90551 257.1496l125.48032 0l0 151.46417l-20.913818 20.913788l-104.566505 0z" fill-rule="evenodd"/><path fill="#cbcbcb" d="m164.47202 429.52756l4.18277 -16.731049l16.731049 -4.1827393z" fill-rule="evenodd"/><path fill="#000000" fill-opacity="0.0" d="m164.47202 429.52756l4.18277 -16.731049l16.731049 -4.1827393l-20.913818 20.913788l-104.566505 0l0 -172.37796l125.48032 0l0 151.46417" fill-rule="evenodd"/><path stroke="#000000" stroke-width="3.0" stroke-linejoin="round" stroke-linecap="butt" d="m164.47202 429.52756l4.18277 -16.731049l16.731049 -4.1827393l-20.913818 20.913788l-104.566505 0l0 -172.37796l125.48032 0l0 151.46417" fill-rule="evenodd"/><path fill="#000000" fill-opacity="0.0" d="m2.8346457 443.09186l239.62206 0l0 75.968506l-239.62206 0z" fill-rule="evenodd"/><path fill="#000000" d="m34.736546 470.538q0 1.4375 -0.71875 2.53125q-0.71875 1.09375 -2.093748 1.703125q-1.359375 0.609375 -3.234375 0.609375q-1.796875 0 -3.28125 -0.53125q-1.46875 -0.546875 -2.53125 -1.5625l1.25 -1.40625q0.90625 0.859375 2.015625 1.3125q1.125 0.453125 2.5625 0.453125q1.640625 0 2.734375 -0.78125q1.1093731 -0.796875 1.1093731 -2.28125q0 -0.84375 -0.3125 -1.390625q-0.3124981 -0.5625 -1.0937481 -0.984375q-0.78125 -0.4375 -2.1875 -0.84375q-2.6875 -0.796875 -4.015625 -1.859375q-1.3125 -1.078125 -1.3125 -2.921875q0 -1.21875 0.671875 -2.203125q0.671875 -0.984375 1.890625 -1.515625q1.21875 -0.546875 2.78125 -0.546875q1.640625 0 2.921875 0.484375q1.2812481 0.46875 2.359373 1.40625l-1.25 1.34375q-1.7031231 -1.484375 -3.953123 -1.484375q-1.4375 0 -2.375 0.625q-0.9375 0.625 -0.9375 1.828125q0 0.71875 0.375 1.21875q0.390625 0.5 1.28125 0.9375q0.890625 0.421875 2.5 0.890625q2.328123 0.671875 3.578123 1.75q1.265625 1.078125 1.265625 3.21875zm12.243713 -8.328125q1.078125 0 1.75 0.75q0.6875 0.75 0.6875 2.75l0 9.40625l-1.84375 0l0 -9.078125q0 -1.3125 -0.171875 -1.78125q-0.171875 -0.46875 -0.8125 -0.46875q-1.21875 0 -2.203125 1.515625l0 9.8125l-1.875 0l0 -9.078125q0 -1.3125 -0.171875 -1.78125q-0.171875 -0.46875 -0.8125 -0.46875q-1.21875 0 -2.203125 1.515625l0 9.8125l-1.859375 0l0 -12.640625l1.5625 0l0.140625 1.484375q0.578125 -0.84375 1.21875 -1.296875q0.640625 -0.453125 1.515625 -0.453125q1.78125 0 2.28125 1.671875q0.578125 -0.8125 1.21875 -1.234375q0.65625 -0.4375 1.578125 -0.4375zm15.134338 10.140625q0 0.75 0.234375 1.109375q0.25 0.34375 0.796875 0.5l-0.5 1.4375q-1.84375 -0.234375 -2.296875 -1.796875q-0.671875 0.875 -1.703125 1.328125q-1.015625 0.453125 -2.265625 0.453125q-1.890625 0 -2.984375 -1.046875q-1.09375 -1.0625 -1.09375 -2.84375q0 -1.9375 1.515625 -3.0q1.53125 -1.0625 4.390625 -1.0625l1.875 0l0 -1.03125q0 -1.34375 -0.78125 -1.921875q-0.765625 -0.59375 -2.21875 -0.59375q-1.453125 0 -3.296875 0.65625l-0.546875 -1.546875q2.234375 -0.78125 4.15625 -0.78125q2.296875 0 3.5 1.078125q1.21875 1.078125 1.21875 3.0l0 6.0625zm-5.234375 1.515625q0.9375 0 1.78125 -0.46875q0.859375 -0.484375 1.421875 -1.328125l0 -3.234375l-1.828125 0q-2.015625 0 -2.90625 0.671875q-0.890625 0.671875 -0.890625 1.96875q0 2.390625 2.421875 2.390625zm19.103092 -11.65625q0.78125 0 1.78125 0.265625l-0.28125 4.28125l-1.640625 0l0 -2.703125l-0.109375 0q-2.9375 0 -4.15625 4.171875l0 5.328125l2.5625 0l0 1.5625l-6.578125 0l0 -1.5625l2.0 0l0 -9.53125l-2.0 0l0 -1.546875l3.515625 0l0.375 3.0q0.765625 -1.640625 1.828125 -2.453125q1.078125 -0.8125 2.703125 -0.8125zm15.915588 12.265625q-0.640625 0.421875 -1.578125 0.65625q-0.921875 0.25 -1.828125 0.25q-1.984375 0 -3.125 -1.046875q-1.125 -1.046875 -1.125 -2.75l0 -7.53125l-2.90625 0l0 -1.578125l2.90625 0l0 -2.859375l2.015625 -0.25l0 3.109375l4.390625 0l-0.265625 1.578125l-4.125 0l0 7.515625q0 1.078125 0.578125 1.609375q0.578125 0.515625 1.84375 0.515625q1.296875 0 2.421875 -0.59375l0.796875 1.375zm24.940552 -16.15625q1.53125 0 2.640625 0.390625q1.109375 0.390625 2.15625 1.21875l-1.171875 1.359375q-1.46875 -1.21875 -3.484375 -1.21875q-2.234375 0 -3.640625 1.625q-1.390625 1.609375 -1.390625 5.140625q0 3.5 1.359375 5.140625q1.375 1.625 3.65625 1.625q1.234375 0 2.125 -0.359375q0.890625 -0.359375 1.703125 -1.0l1.078125 1.34375q-1.84375 1.796875 -4.9375 1.796875q-2.046875 0 -3.671875 -1.0q-1.625 -1.0 -2.5625 -2.90625q-0.9375 -1.921875 -0.9375 -4.640625q0 -2.6875 0.9375 -4.609375q0.953125 -1.9375 2.5625 -2.921875q1.625 -0.984375 3.578125 -0.984375zm13.024956 3.890625q2.625 0 4.015625 1.765625q1.40625 1.75 1.40625 4.796875q0 2.984375 -1.421875 4.796875q-1.421875 1.8125 -4.015625 1.8125q-2.6249924 0 -4.0468674 -1.765625q-1.40625 -1.765625 -1.40625 -4.8125q0 -3.0 1.421875 -4.796875q1.4375 -1.796875 4.0468674 -1.796875zm0 1.65625q-1.65625 0 -2.4687424 1.21875q-0.8125 1.21875 -0.8125 3.71875q0 2.5 0.796875 3.71875q0.8124924 1.203125 2.4687424 1.203125q1.65625 0 2.453125 -1.203125q0.8125 -1.21875 0.8125 -3.75q0 -2.484375 -0.8125 -3.6875q-0.796875 -1.21875 -2.4375 -1.21875zm9.587463 -1.390625l1.71875 0l0.171875 1.765625q0.75 -0.953125 1.875 -1.484375q1.140625 -0.546875 2.296875 -0.546875q3.5625 0 3.5625 3.734375l0 9.171875l-2.015625 0l0 -7.6875q0 -1.40625 -0.15625 -2.140625q-0.15625 -0.75 -0.625 -1.109375q-0.453125 -0.359375 -1.390625 -0.359375q-1.03125 0 -1.953125 0.625q-0.90625 0.609375 -1.46875 1.484375l0 9.1875l-2.015625 0l0 -12.640625zm24.446838 12.0q-0.640625 0.421875 -1.578125 0.65625q-0.921875 0.25 -1.828125 0.25q-1.984375 0 -3.125 -1.046875q-1.125 -1.046875 -1.125 -2.75l0 -7.53125l-2.90625 0l0 -1.578125l2.90625 0l0 -2.859375l2.015625 -0.25l0 3.109375l4.390625 0l-0.265625 1.578125l-4.125 0l0 7.515625q0 1.078125 0.578125 1.609375q0.578125 0.515625 1.84375 0.515625q1.296875 0 2.421875 -0.59375l0.796875 1.375zm12.884338 -12.265625q0.78125 0 1.78125 0.265625l-0.28125 4.28125l-1.640625 0l0 -2.703125l-0.109375 0q-2.9375 0 -4.15625 4.171875l0 5.328125l2.5625 0l0 1.5625l-6.578125 0l0 -1.5625l2.0 0l0 -9.53125l-2.0 0l0 -1.546875l3.515625 0l0.375 3.0q0.765625 -1.640625 1.828125 -2.453125q1.078125 -0.8125 2.703125 -0.8125zm14.931213 10.140625q0 0.75 0.234375 1.109375q0.25 0.34375 0.796875 0.5l-0.5 1.4375q-1.84375 -0.234375 -2.296875 -1.796875q-0.671875 0.875 -1.703125 1.328125q-1.015625 0.453125 -2.265625 0.453125q-1.890625 0 -2.984375 -1.046875q-1.09375 -1.0625 -1.09375 -2.84375q0 -1.9375 1.515625 -3.0q1.53125 -1.0625 4.390625 -1.0625l1.875 0l0 -1.03125q0 -1.34375 -0.78125 -1.921875q-0.765625 -0.59375 -2.21875 -0.59375q-1.453125 0 -3.296875 0.65625l-0.546875 -1.546875q2.234375 -0.78125 4.15625 -0.78125q2.296875 0 3.5 1.078125q1.21875 1.078125 1.21875 3.0l0 6.0625zm-5.234375 1.515625q0.9375 0 1.78125 -0.46875q0.859375 -0.484375 1.421875 -1.328125l0 -3.234375l-1.828125 0q-2.015625 0 -2.90625 0.671875q-0.890625 0.671875 -0.890625 1.96875q0 2.390625 2.421875 2.390625zm16.306213 -0.21875q1.65625 0 3.28125 -1.09375l0.96875 1.3125q-0.796875 0.703125 -1.984375 1.109375q-1.171875 0.40625 -2.265625 0.40625q-2.8125 0 -4.390625 -1.765625q-1.5625 -1.765625 -1.5625 -4.765625q0 -1.890625 0.703125 -3.40625q0.703125 -1.515625 2.046875 -2.375q1.34375 -0.859375 3.203125 -0.859375q2.4375 0 4.21875 1.484375l-0.984375 1.3125q-1.65625 -1.09375 -3.265625 -1.09375q-1.703125 0 -2.71875 1.265625q-1.015625 1.25 -1.015625 3.671875q0 2.421875 1.015625 3.609375q1.015625 1.1875 2.75 1.1875zm18.712463 0.828125q-0.640625 0.421875 -1.578125 0.65625q-0.921875 0.25 -1.828125 0.25q-1.984375 0 -3.125 -1.046875q-1.125 -1.046875 -1.125 -2.75l0 -7.53125l-2.90625 0l0 -1.578125l2.90625 0l0 -2.859375l2.015625 -0.25l0 3.109375l4.390625 0l-0.265625 1.578125l-4.125 0l0 7.515625q0 1.078125 0.578125 1.609375q0.578125 0.515625 1.84375 0.515625q1.296875 0 2.421875 -0.59375l0.796875 1.375z" fill-rule="nonzero"/><path fill="#000000" d="m92.3364 499.538q0 1.4375 -0.71875 2.53125q-0.71875 1.09375 -2.09375 1.703125q-1.359375 0.609375 -3.234375 0.609375q-1.796875 0 -3.28125 -0.53125q-1.46875 -0.546875 -2.53125 -1.5625l1.25 -1.40625q0.90625 0.859375 2.015625 1.3125q1.125 0.453125 2.5625 0.453125q1.640625 0 2.734375 -0.78125q1.109375 -0.796875 1.109375 -2.28125q0 -0.84375 -0.3125 -1.390625q-0.3125 -0.5625 -1.09375 -0.984375q-0.78125 -0.4375 -2.1875 -0.84375q-2.6875 -0.796875 -4.015625 -1.859375q-1.3125 -1.078125 -1.3125 -2.921875q0 -1.21875 0.671875 -2.203125q0.671875 -0.984375 1.890625 -1.515625q1.21875 -0.546875 2.78125 -0.546875q1.640625 0 2.921875 0.484375q1.28125 0.46875 2.359375 1.40625l-1.25 1.34375q-1.703125 -1.484375 -3.953125 -1.484375q-1.4375 0 -2.375 0.625q-0.9375 0.625 -0.9375 1.828125q0 0.71875 0.375 1.21875q0.390625 0.5 1.28125 0.9375q0.890625 0.421875 2.5 0.890625q2.328125 0.671875 3.578125 1.75q1.265625 1.078125 1.265625 3.21875zm8.728088 -8.328125q2.625 0 4.015625 1.765625q1.40625 1.75 1.40625 4.796875q0 2.984375 -1.421875 4.796875q-1.421875 1.8125 -4.015625 1.8125q-2.625 0 -4.046875 -1.765625q-1.40625 -1.765625 -1.40625 -4.8125q0 -3.0 1.421875 -4.796875q1.4375 -1.796875 4.046875 -1.796875zm0 1.65625q-1.65625 0 -2.46875 1.21875q-0.8125 1.21875 -0.8125 3.71875q0 2.5 0.796875 3.71875q0.8125 1.203125 2.46875 1.203125q1.65625 0 2.453125 -1.203125q0.8125 -1.21875 0.8125 -3.75q0 -2.484375 -0.8125 -3.6875q-0.796875 -1.21875 -2.4375 -1.21875zm11.603088 7.578125q0 1.21875 0.515625 1.796875q0.515625 0.5625 1.609375 0.5625q1.015625 0 1.953125 -0.578125q0.9375 -0.578125 1.484375 -1.453125l0 -9.296875l2.015625 0l0 12.640625l-1.734375 0l-0.15625 -1.703125q-0.75 0.9375 -1.84375 1.453125q-1.09375 0.515625 -2.21875 0.515625q-1.796875 0 -2.71875 -0.953125q-0.921875 -0.96875 -0.921875 -2.765625l0 -9.1875l2.015625 0l0 8.96875zm20.91558 -9.234375q0.78125 0 1.78125 0.265625l-0.28125 4.28125l-1.640625 0l0 -2.703125l-0.109375 0q-2.9375 0 -4.15625 4.171875l0 5.328125l2.5625 0l0 1.5625l-6.5781174 0l0 -1.5625l2.0 0l0 -9.53125l-2.0 0l0 -1.546875l3.5156174 0l0.375 3.0q0.765625 -1.640625 1.828125 -2.453125q1.078125 -0.8125 2.703125 -0.8125zm11.603088 11.4375q1.65625 0 3.28125 -1.09375l0.96875 1.3125q-0.796875 0.703125 -1.984375 1.109375q-1.171875 0.40625 -2.265625 0.40625q-2.8125 0 -4.390625 -1.765625q-1.5625 -1.765625 -1.5625 -4.765625q0 -1.890625 0.703125 -3.40625q0.703125 -1.515625 2.046875 -2.375q1.34375 -0.859375 3.203125 -0.859375q2.4375 0 4.21875 1.484375l-0.984375 1.3125q-1.65625 -1.09375 -3.265625 -1.09375q-1.703125 0 -2.71875 1.265625q-1.015625 1.25 -1.015625 3.671875q0 2.421875 1.015625 3.609375q1.015625 1.1875 2.75 1.1875zm10.274963 -4.140625q0.0625 2.078125 1.078125 3.140625q1.03125 1.046875 2.59375 1.046875q0.921875 0 1.703125 -0.265625q0.78125 -0.28125 1.671875 -0.859375l0.9375 1.34375q-0.890625 0.703125 -2.03125 1.09375q-1.140625 0.375 -2.28125 0.375q-2.75 0 -4.28125 -1.78125q-1.515625 -1.796875 -1.515625 -4.796875q0 -1.890625 0.671875 -3.390625q0.671875 -1.5 1.921875 -2.34375q1.25 -0.859375 2.90625 -0.859375q2.40625 0 3.78125 1.671875q1.375 1.65625 1.375 4.53125q0 0.5625 -0.046875 1.09375l-8.484375 0zm3.40625 -5.640625q-1.46875 0 -2.390625 1.046875q-0.90625 1.03125 -1.015625 3.046875l6.5625 0q-0.015625 -1.984375 -0.859375 -3.03125q-0.84375 -1.0625 -2.296875 -1.0625z" fill-rule="nonzero"/><path fill="#ffffff" d="m284.3386 285.70078l244.15744 0l0 115.275604l-244.15744 0z" fill-rule="evenodd"/><path stroke="#000000" stroke-width="3.0" stroke-linejoin="round" stroke-linecap="butt" d="m284.3386 285.70078l244.15744 0l0 115.275604l-244.15744 0z" fill-rule="evenodd"/><path fill="#000000" d="m341.07028 332.65234q2.046875 0 3.515625 0.53125q1.484375 0.53125 2.890625 1.625l-1.578125 1.8125q-1.9375 -1.625 -4.640625 -1.625q-2.96875 0 -4.84375 2.15625q-1.875 2.15625 -1.875 6.859375q0 4.671875 1.828125 6.859375q1.828125 2.171875 4.859375 2.171875q1.671875 0 2.84375 -0.46875q1.1875 -0.484375 2.28125 -1.359375l1.4375 1.796875q-2.453125 2.40625 -6.59375 2.40625q-2.71875 0 -4.890625 -1.328125q-2.171875 -1.328125 -3.421875 -3.890625q-1.25 -2.5625 -1.25 -6.1875q0 -3.578125 1.265625 -6.15625q1.265625 -2.578125 3.421875 -3.890625q2.15625 -1.3125 4.75 -1.3125zm17.371918 5.1875q3.5 0 5.359375 2.359375q1.875 2.34375 1.875 6.40625q0 3.96875 -1.90625 6.390625q-1.890625 2.421875 -5.359375 2.421875q-3.484375 0 -5.375 -2.359375q-1.875 -2.359375 -1.875 -6.421875q0 -4.0 1.890625 -6.390625q1.90625 -2.40625 5.390625 -2.40625zm0 2.203125q-2.203125 0 -3.296875 1.640625q-1.078125 1.625 -1.078125 4.953125q0 3.328125 1.0625 4.953125q1.078125 1.609375 3.28125 1.609375q2.21875 0 3.28125 -1.609375q1.078125 -1.625 1.078125 -4.984375q0 -3.328125 -1.078125 -4.9375q-1.0625 -1.625 -3.25 -1.625zm23.871918 -2.203125q1.453125 0 2.359375 1.015625q0.90625 1.0 0.90625 3.65625l0 12.546875l-2.453125 0l0 -12.09375q0 -1.765625 -0.234375 -2.390625q-0.21875 -0.625 -1.078125 -0.625q-1.640625 0 -2.953125 2.015625l0 13.09375l-2.484375 0l0 -12.09375q0 -1.765625 -0.234375 -2.390625q-0.21875 -0.625 -1.078125 -0.625q-1.640625 0 -2.953125 2.015625l0 13.09375l-2.46875 0l0 -16.859375l2.09375 0l0.1875 1.984375q0.765625 -1.125 1.609375 -1.734375q0.859375 -0.609375 2.03125 -0.609375q2.375 0 3.046875 2.25q0.765625 -1.09375 1.625 -1.671875q0.875 -0.578125 2.078125 -0.578125zm15.653168 0q6.109375 0 6.109375 8.765625q0 4.0 -1.671875 6.40625q-1.65625 2.40625 -4.8125 2.40625q-2.765625 0 -4.484375 -1.921875l0 8.03125l-2.6875 0.3125l0 -23.640625l2.296875 0l0.234375 2.359375q0.921875 -1.3125 2.21875 -2.015625q1.296875 -0.703125 2.796875 -0.703125zm-0.640625 2.171875q-1.28125 0 -2.359375 0.78125q-1.0625 0.765625 -1.859375 1.90625l0 8.359375q0.671875 0.984375 1.671875 1.546875q1.015625 0.5625 2.203125 0.5625q2.109375 0 3.140625 -1.609375q1.046875 -1.625 1.046875 -4.953125q0 -3.328125 -0.9375 -4.953125q-0.921875 -1.640625 -2.90625 -1.640625zm18.684418 -9.6875q0.90625 0 1.4375 0.53125q0.546875 0.515625 0.546875 1.359375q0 0.828125 -0.546875 1.359375q-0.53125 0.53125 -1.4375 0.53125q-0.859375 0 -1.390625 -0.53125q-0.515625 -0.53125 -0.515625 -1.359375q0 -0.84375 0.515625 -1.359375q0.53125 -0.53125 1.390625 -0.53125zm2.15625 22.59375l4.734375 0l0 2.140625l-12.609375 0l0 -2.140625l5.1875 0l0 -12.578125l-5.03125 0l0 -2.140625l7.71875 0l0 14.71875zm17.246918 -2.015625q0 2.265625 2.78125 2.265625q1.3125 0 2.8125 -0.578125l0.703125 1.953125q-1.59375 0.875 -4.0 0.875q-2.265625 0 -3.625 -1.25q-1.359375 -1.25 -1.359375 -3.390625l0 -17.21875l-5.1875 0l0 -2.140625l7.875 0l0 19.484375zm14.746918 -3.328125q0.09375 2.78125 1.453125 4.1875q1.359375 1.40625 3.4375 1.40625q1.25 0 2.28125 -0.359375q1.046875 -0.375 2.234375 -1.140625l1.25 1.796875q-1.1875 0.921875 -2.703125 1.4375q-1.515625 0.515625 -3.0625 0.515625q-3.640625 0 -5.671875 -2.390625q-2.03125 -2.390625 -2.03125 -6.390625q0 -2.515625 0.890625 -4.515625q0.890625 -2.0 2.546875 -3.140625q1.671875 -1.140625 3.890625 -1.140625q3.203125 0 5.03125 2.234375q1.84375 2.21875 1.84375 6.0625q0 0.734375 -0.0625 1.4375l-11.328125 0zm4.546875 -7.53125q-1.953125 0 -3.171875 1.40625q-1.21875 1.390625 -1.375 4.078125l8.765625 0q-0.03125 -2.65625 -1.15625 -4.0625q-1.109375 -1.421875 -3.0625 -1.421875zm23.903168 -2.203125q1.015625 0 2.359375 0.359375l-0.375 5.71875l-2.171875 0l0 -3.609375l-0.171875 0q-3.890625 0 -5.53125 5.5625l0 7.109375l3.421875 0l0 2.078125l-8.765625 0l0 -2.078125l2.65625 0l0 -12.703125l-2.65625 0l0 -2.078125l4.671875 0l0.515625 4.0q1.015625 -2.1875 2.4375 -3.265625q1.4375 -1.09375 3.609375 -1.09375z" fill-rule="nonzero"/><path fill="#ffffff" d="m610.53546 133.55905l91.370056 0l0 108.36191l-15.228638 15.228638l-76.14142 0z" fill-rule="evenodd"/><path fill="#cbcbcb" d="m686.6769 257.1496l3.0457153 -12.182907l12.182922 -3.0457306z" fill-rule="evenodd"/><path fill="#000000" fill-opacity="0.0" d="m686.6769 257.1496l3.0457153 -12.182907l12.182922 -3.0457306l-15.228638 15.228638l-76.14142 0l0 -123.590546l91.370056 0l0 108.36191" fill-rule="evenodd"/><path stroke="#000000" stroke-width="3.0" stroke-linejoin="round" stroke-linecap="butt" d="m686.6769 257.1496l3.0457153 -12.182907l12.182922 -3.0457306l-15.228638 15.228638l-76.14142 0l0 -123.590546l91.370056 0l0 108.36191" fill-rule="evenodd"/><path fill="#000000" fill-opacity="0.0" d="m528.49475 257.1496l239.62207 0l0 75.968506l-239.62207 0z" fill-rule="evenodd"/><path fill="#000000" d="m603.65906 298.97073q0 2.5 -1.78125 3.609375q-1.78125 1.09375 -4.40625 1.09375l-4.46875 0l0 -16.53125l4.09375 0q2.515625 0 4.171875 0.96875q1.671875 0.96875 1.671875 3.203125q0 1.484375 -0.890625 2.390625q-0.875 0.890625 -2.203125 1.203125q3.8125 0.65625 3.8125 4.0625zm-2.84375 -7.53125q0 -1.375 -0.84375 -1.984375q-0.84375 -0.609375 -2.40625 -0.609375l-2.46875 0l0 5.328125l2.671875 0q3.046875 0 3.046875 -2.734375zm0.640625 7.609375q0 -1.765625 -0.953125 -2.453125q-0.9375 -0.703125 -2.59375 -0.703125l-2.8125 0l0 6.046875l2.734375 0q1.515625 0 2.5625 -0.609375q1.0625 -0.625 1.0625 -2.28125zm12.149963 4.703125q-0.75 2.171875 -2.046875 3.46875q-1.296875 1.296875 -3.625 1.546875l-0.28125 -1.609375q1.265625 -0.21875 2.015625 -0.671875q0.765625 -0.4375 1.1875 -1.09375q0.4375 -0.65625 0.796875 -1.71875l-0.671875 0l-4.390625 -12.640625l2.140625 0l3.625 11.109375l3.578125 -11.109375l2.078125 0l-4.40625 12.71875zm18.353088 -0.71875q-0.640625 0.421875 -1.578125 0.65625q-0.921875 0.25 -1.828125 0.25q-1.984375 0 -3.125 -1.046875q-1.125 -1.046875 -1.125 -2.75l0 -7.53125l-2.90625 0l0 -1.578125l2.90625 0l0 -2.859375l2.015625 -0.25l0 3.109375l4.390625 0l-0.265625 1.578125l-4.125 0l0 7.515625q0 1.078125 0.578125 1.609375q0.578125 0.515625 1.84375 0.515625q1.296875 0 2.421875 -0.59375l0.796875 1.375zm5.9624634 -4.96875q0.0625 2.078125 1.078125 3.140625q1.03125 1.046875 2.59375 1.046875q0.921875 0 1.703125 -0.265625q0.78125 -0.28125 1.671875 -0.859375l0.9375 1.34375q-0.890625 0.703125 -2.03125 1.09375q-1.140625 0.375 -2.28125 0.375q-2.75 0 -4.28125 -1.78125q-1.515625 -1.796875 -1.515625 -4.796875q0 -1.890625 0.671875 -3.390625q0.671875 -1.5 1.921875 -2.34375q1.25 -0.859375 2.90625 -0.859375q2.40625 0 3.78125 1.671875q1.375 1.65625 1.375 4.53125q0 0.5625 -0.046875 1.09375l-8.484375 0zm3.40625 -5.640625q-1.46875 0 -2.390625 1.046875q-0.90625 1.03125 -1.015625 3.046875l6.5625 0q-0.015625 -1.984375 -0.859375 -3.03125q-0.84375 -1.0625 -2.296875 -1.0625zm15.118713 9.78125q1.65625 0 3.28125 -1.09375l0.96875 1.3125q-0.796875 0.703125 -1.984375 1.109375q-1.171875 0.40625 -2.265625 0.40625q-2.8125 0 -4.390625 -1.765625q-1.5625 -1.765625 -1.5625 -4.765625q0 -1.890625 0.703125 -3.40625q0.703125 -1.515625 2.046875 -2.375q1.34375 -0.859375 3.203125 -0.859375q2.4375 0 4.21875 1.484375l-0.984375 1.3125q-1.65625 -1.09375 -3.265625 -1.09375q-1.703125 0 -2.71875 1.265625q-1.015625 1.25 -1.015625 3.671875q0 2.421875 1.015625 3.609375q1.015625 1.1875 2.75 1.1875zm13.478088 -11.4375q2.625 0 4.015625 1.765625q1.40625 1.75 1.40625 4.796875q0 2.984375 -1.421875 4.796875q-1.421875 1.8125 -4.015625 1.8125q-2.625 0 -4.046875 -1.765625q-1.40625 -1.765625 -1.40625 -4.8125q0 -3.0 1.421875 -4.796875q1.4375 -1.796875 4.046875 -1.796875zm0 1.65625q-1.65625 0 -2.46875 1.21875q-0.8125 1.21875 -0.8125 3.71875q0 2.5 0.796875 3.71875q0.8125 1.203125 2.46875 1.203125q1.65625 0 2.453125 -1.203125q0.8125 -1.21875 0.8125 -3.75q0 -2.484375 -0.8125 -3.6875q-0.796875 -1.21875 -2.4375 -1.21875zm19.181213 -6.484375l0 17.734375l-1.78125 0l-0.1875 -1.65625q-0.6875 0.953125 -1.609375 1.4375q-0.90625 0.484375 -1.96875 0.484375q-2.390625 0 -3.609375 -1.75q-1.21875 -1.75 -1.21875 -4.828125q0 -1.890625 0.59375 -3.390625q0.609375 -1.5 1.71875 -2.34375q1.125 -0.859375 2.640625 -0.859375q2.078125 0 3.40625 1.5l0 -6.5625l2.015625 0.234375zm-4.890625 6.453125q-1.59375 0 -2.453125 1.25q-0.84375 1.25 -0.84375 3.71875q0 2.453125 0.78125 3.71875q0.78125 1.25 2.265625 1.25q1.796875 0 3.125 -2.015625l0 -6.28125q-0.53125 -0.796875 -1.28125 -1.21875q-0.734375 -0.421875 -1.59375 -0.421875zm11.306213 5.671875q0.0625 2.078125 1.078125 3.140625q1.03125 1.046875 2.59375 1.046875q0.921875 0 1.703125 -0.265625q0.78125 -0.28125 1.671875 -0.859375l0.9375 1.34375q-0.890625 0.703125 -2.03125 1.09375q-1.140625 0.375 -2.28125 0.375q-2.75 0 -4.28125 -1.78125q-1.515625 -1.796875 -1.515625 -4.796875q0 -1.890625 0.671875 -3.390625q0.671875 -1.5 1.921875 -2.34375q1.25 -0.859375 2.90625 -0.859375q2.40625 0 3.78125 1.671875q1.375 1.65625 1.375 4.53125q0 0.5625 -0.046875 1.09375l-8.484375 0zm3.40625 -5.640625q-1.46875 0 -2.390625 1.046875q-0.90625 1.03125 -1.015625 3.046875l6.5625 0q-0.015625 -1.984375 -0.859375 -3.03125q-0.84375 -1.0625 -2.296875 -1.0625z" fill-rule="nonzero"/><path fill="#000000" fill-opacity="0.0" d="m185.37796 343.3386l98.96063 0" fill-rule="evenodd"/><path stroke="#000000" stroke-width="3.0" stroke-linejoin="round" stroke-linecap="butt" d="m185.37796 343.3386l80.96063 0" fill-rule="evenodd"/><path fill="#000000" stroke="#000000" stroke-width="3.0" stroke-linecap="butt" d="m266.3386 348.2938l13.614288 -4.9552l-13.614288 -4.9552z" fill-rule="evenodd"/><path fill="#000000" fill-opacity="0.0" d="m528.49475 295.13385l82.04724 -99.779526" fill-rule="evenodd"/><path stroke="#000000" stroke-width="3.0" stroke-linejoin="round" stroke-linecap="butt" d="m528.49475 295.13385l70.61481 -85.87628" fill-rule="evenodd"/><path fill="#000000" stroke="#000000" stroke-width="3.0" stroke-linecap="butt" d="m602.93695 212.40477l4.819519 -13.662918l-12.474304 7.3684845z" fill-rule="evenodd"/></g></svg>