<?xml version="1.0" standalone="yes"?>

<svg version="1.1" viewBox="0.0 0.0 960.0 720.0" fill="none" stroke="none" stroke-linecap="square" stroke-miterlimit="10" xmlns="http://www.w3.org/2000/svg" xmlns:xlink="http://www.w3.org/1999/xlink"><clipPath id="p.0"><path d="m0 0l960.0 0l0 720.0l-960.0 0l0 -720.0z" clip-rule="nonzero"></path></clipPath><g clip-path="url(#p.0)"><path fill="#000000" fill-opacity="0.0" d="m0 0l960.0 0l0 720.0l-960.0 0z" fill-rule="nonzero"></path><path fill="#000000" fill-opacity="0.0" d="m241.43045 48.28609l704.9448 0l0 72.09448l-704.9448 0z" fill-rule="nonzero"></path><path fill="#000000" d="m271.97495 93.933334l0 -19.328125l2.5625 0l0 19.328125l-2.5625 0zm6.67157 0l0 -14.0l2.140625 0l0 1.984375q1.53125 -2.296875 4.453125 -2.296875q1.265625 0 2.328125 0.453125q1.0625 0.453125 1.578125 1.1875q0.53125 0.734375 0.75 1.75q0.125 0.671875 0.125 2.3125l0 8.609375l-2.375 0l0 -8.515625q0 -1.453125 -0.28125 -2.171875q-0.265625 -0.71875 -0.984375 -1.140625q-0.703125 -0.4375 -1.640625 -0.4375q-1.515625 0 -2.625 0.96875q-1.09375 0.953125 -1.09375 3.65625l0 7.640625l-2.375 0zm14.809326 -16.578125l0 -2.75l2.375 0l0 2.75l-2.375 0zm-3.0 22.015625l0.4375 -2.015625q0.71875 0.171875 1.125 0.171875q0.734375 0 1.078125 -0.484375q0.359375 -0.46875 0.359375 -2.390625l0 -14.71875l2.375 0l0 14.765625q0 2.578125 -0.671875 3.59375q-0.859375 1.328125 -2.84375 1.328125q-0.96875 0 -1.859375 -0.25zm18.5159 -9.953125l2.453125 0.3125q-0.578125 2.140625 -2.15625 3.328125q-1.5625 1.1875 -4.0 1.1875q-3.0625 0 -4.875 -1.890625q-1.796875 -1.890625 -1.796875 -5.296875q0 -3.546875 1.8125 -5.484375q1.828125 -1.953125 4.734375 -1.953125q2.8125 0 4.578125 1.90625q1.78125 1.90625 1.78125 5.375q0 0.21875 -0.015625 0.640625l-10.4375 0q0.140625 2.296875 1.3125 3.53125q1.171875 1.21875 2.921875 1.21875q1.3125 0 2.234375 -0.671875q0.921875 -0.6875 1.453125 -2.203125zm-7.78125 -3.828125l7.8125 0q-0.15625 -1.765625 -0.890625 -2.65625q-1.140625 -1.359375 -2.953125 -1.359375q-1.625 0 -2.75 1.09375q-1.109375 1.09375 -1.21875 2.921875zm22.168701 3.21875l2.328125 0.296875q-0.375 2.421875 -1.953125 3.78125q-1.578125 1.359375 -3.875 1.359375q-2.875 0 -4.625 -1.875q-1.734375 -1.875 -1.734375 -5.390625q0 -2.265625 0.75 -3.953125q0.75 -1.703125 2.28125 -2.546875q1.53125 -0.859375 3.34375 -0.859375q2.28125 0 3.71875 1.15625q1.453125 1.140625 1.875 3.265625l-2.3125 0.359375q-0.328125 -1.40625 -1.171875 -2.109375q-0.828125 -0.71875 -2.015625 -0.71875q-1.796875 0 -2.921875 1.28125q-1.109375 1.28125 -1.109375 4.0625q0 2.828125 1.078125 4.109375q1.078125 1.265625 2.8125 1.265625q1.40625 0 2.34375 -0.84375q0.9375 -0.859375 1.1875 -2.640625zm9.375 3.0l0.328125 2.09375q-1.0 0.21875 -1.78125 0.21875q-1.296875 0 -2.015625 -0.40625q-0.703125 -0.421875 -1.0 -1.078125q-0.28125 -0.671875 -0.28125 -2.796875l0 -8.0625l-1.75 0l0 -1.84375l1.75 0l0 -3.46875l2.359375 -1.421875l0 4.890625l2.390625 0l0 1.84375l-2.390625 0l0 8.1875q0 1.015625 0.125 1.3125q0.125 0.28125 0.40625 0.453125q0.28125 0.171875 0.8125 0.171875q0.390625 0 1.046875 -0.09375zm1.3278198 -4.875q0 -3.890625 2.171875 -5.765625q1.796875 -1.546875 4.40625 -1.546875q2.875 0 4.703125 1.890625q1.84375 1.890625 1.84375 5.21875q0 2.703125 -0.8125 4.265625q-0.8125 1.546875 -2.359375 2.40625q-1.546875 0.84375 -3.375 0.84375q-2.953125 0 -4.765625 -1.875q-1.8125 -1.890625 -1.8125 -5.4375zm2.4375 0q0 2.6875 1.171875 4.03125q1.1875 1.328125 2.96875 1.328125q1.765625 0 2.9375 -1.34375q1.171875 -1.34375 1.171875 -4.09375q0 -2.59375 -1.1875 -3.9375q-1.171875 -1.34375 -2.921875 -1.34375q-1.78125 0 -2.96875 1.34375q-1.171875 1.328125 -1.171875 4.015625zm13.246826 7.0l0 -14.0l2.140625 0l0 2.125q0.8125 -1.5 1.5 -1.96875q0.703125 -0.46875 1.53125 -0.46875q1.203125 0 2.4375 0.765625l-0.8125 2.203125q-0.875 -0.515625 -1.75 -0.515625q-0.765625 0 -1.390625 0.46875q-0.625 0.46875 -0.890625 1.296875q-0.390625 1.265625 -0.390625 2.765625l0 7.328125l-2.375 0zm9.5798645 0l0 -2.703125l2.703125 0l0 2.703125l-2.703125 0zm6.70282 0l0 -14.0l2.140625 0l0 2.125q0.8125 -1.5 1.5 -1.96875q0.703125 -0.46875 1.53125 -0.46875q1.203125 0 2.4375 0.765625l-0.8125 2.203125q-0.875 -0.515625 -1.75 -0.515625q-0.765625 0 -1.390625 0.46875q-0.625 0.46875 -0.890625 1.296875q-0.390625 1.265625 -0.390625 2.765625l0 7.328125l-2.375 0zm18.486115 -4.515625l2.453125 0.3125q-0.578125 2.140625 -2.15625 3.328125q-1.5625 1.1875 -4.0 1.1875q-3.0625 0 -4.875 -1.890625q-1.796875 -1.890625 -1.796875 -5.296875q0 -3.546875 1.8125 -5.484375q1.828125 -1.953125 4.734375 -1.953125q2.8125 0 4.578125 1.90625q1.78125 1.90625 1.78125 5.375q0 0.21875 -0.015625 0.640625l-10.4375 0q0.140625 2.296875 1.3125 3.53125q1.171875 1.21875 2.921875 1.21875q1.3125 0 2.234375 -0.671875q0.921875 -0.6875 1.453125 -2.203125zm-7.78125 -3.828125l7.8125 0q-0.15625 -1.765625 -0.890625 -2.65625q-1.140625 -1.359375 -2.953125 -1.359375q-1.625 0 -2.75 1.09375q-1.109375 1.09375 -1.21875 2.921875zm12.074951 4.171875l2.34375 -0.375q0.203125 1.40625 1.109375 2.15625q0.90625 0.75 2.515625 0.75q1.640625 0 2.421875 -0.65625q0.796875 -0.671875 0.796875 -1.5625q0 -0.8125 -0.6875 -1.265625q-0.5 -0.3125 -2.4375 -0.8125q-2.609375 -0.65625 -3.625 -1.125q-1.0 -0.484375 -1.53125 -1.328125q-0.515625 -0.859375 -0.515625 -1.890625q0 -0.9375 0.421875 -1.734375q0.4375 -0.796875 1.1875 -1.328125q0.546875 -0.40625 1.5 -0.6875q0.953125 -0.28125 2.046875 -0.28125q1.65625 0 2.890625 0.46875q1.25 0.46875 1.84375 1.28125q0.59375 0.8125 0.828125 2.171875l-2.328125 0.3125q-0.15625 -1.078125 -0.921875 -1.671875q-0.75 -0.609375 -2.140625 -0.609375q-1.625 0 -2.328125 0.546875q-0.703125 0.53125 -0.703125 1.25q0 0.46875 0.296875 0.828125q0.28125 0.390625 0.90625 0.640625q0.359375 0.125 2.09375 0.609375q2.515625 0.671875 3.515625 1.09375q1.0 0.421875 1.5625 1.25q0.5625 0.8125 0.5625 2.03125q0 1.1875 -0.6875 2.234375q-0.6875 1.046875 -2.0 1.625q-1.296875 0.5625 -2.953125 0.5625q-2.71875 0 -4.15625 -1.125q-1.4375 -1.140625 -1.828125 -3.359375zm13.390625 -2.828125q0 -3.890625 2.171875 -5.765625q1.796875 -1.546875 4.40625 -1.546875q2.875 0 4.703125 1.890625q1.84375 1.890625 1.84375 5.21875q0 2.703125 -0.8125 4.265625q-0.8125 1.546875 -2.359375 2.40625q-1.546875 0.84375 -3.375 0.84375q-2.953125 0 -4.765625 -1.875q-1.8125 -1.890625 -1.8125 -5.4375zm2.4375 0q0 2.6875 1.171875 4.03125q1.1875 1.328125 2.96875 1.328125q1.765625 0 2.9375 -1.34375q1.171875 -1.34375 1.171875 -4.09375q0 -2.59375 -1.1875 -3.9375q-1.171875 -1.34375 -2.921875 -1.34375q-1.78125 0 -2.96875 1.34375q-1.171875 1.328125 -1.171875 4.015625zm13.231171 7.0l0 -19.328125l2.359375 0l0 19.328125l-2.359375 0zm9.85968 0l-5.328125 -14.0l2.5 0l3.015625 8.390625q0.484375 1.34375 0.890625 2.8125q0.3125 -1.109375 0.890625 -2.65625l3.109375 -8.546875l2.4375 0l-5.296875 14.0l-2.21875 0zm19.015625 -4.515625l2.453125 0.3125q-0.578125 2.140625 -2.15625 3.328125q-1.5625 1.1875 -4.0 1.1875q-3.0625 0 -4.875 -1.890625q-1.796875 -1.890625 -1.796875 -5.296875q0 -3.546875 1.8125 -5.484375q1.828125 -1.953125 4.734375 -1.953125q2.8125 0 4.578125 1.90625q1.78125 1.90625 1.78125 5.375q0 0.21875 -0.015625 0.640625l-10.4375 0q0.140625 2.296875 1.3125 3.53125q1.171875 1.21875 2.921875 1.21875q1.3125 0 2.234375 -0.671875q0.921875 -0.6875 1.453125 -2.203125zm-7.78125 -3.828125l7.8125 0q-0.15625 -1.765625 -0.890625 -2.65625q-1.140625 -1.359375 -2.953125 -1.359375q-1.625 0 -2.75 1.09375q-1.109375 1.09375 -1.21875 2.921875zm11.199921 8.34375l7.4375 -19.328125l2.75 0l7.90625 19.328125l-2.90625 0l-2.265625 -5.859375l-8.078125 0l-2.125 5.859375l-2.71875 0zm5.578125 -7.9375l6.5625 0l-2.015625 -5.359375q-0.921875 -2.4375 -1.375 -4.0q-0.375 1.859375 -1.046875 3.6875l-2.125 5.671875zm14.0295105 7.9375l0 -14.0l2.140625 0l0 1.984375q1.53125 -2.296875 4.453125 -2.296875q1.265625 0 2.328125 0.453125q1.0625 0.453125 1.578125 1.1875q0.53125 0.734375 0.75 1.75q0.125 0.671875 0.125 2.3125l0 8.609375l-2.375 0l0 -8.515625q0 -1.453125 -0.28125 -2.171875q-0.265625 -0.71875 -0.984375 -1.140625q-0.703125 -0.4375 -1.640625 -0.4375q-1.515625 0 -2.625 0.96875q-1.09375 0.953125 -1.09375 3.65625l0 7.640625l-2.375 0zm23.903076 0l0 -1.765625q-1.328125 2.078125 -3.90625 2.078125q-1.671875 0 -3.078125 -0.921875q-1.40625 -0.921875 -2.1875 -2.578125q-0.765625 -1.65625 -0.765625 -3.796875q0 -2.09375 0.703125 -3.796875q0.703125 -1.71875 2.09375 -2.625q1.390625 -0.90625 3.125 -0.90625q1.265625 0 2.25 0.53125q0.984375 0.53125 1.609375 1.390625l0 -6.9375l2.359375 0l0 19.328125l-2.203125 0zm-7.5 -6.984375q0 2.6875 1.125 4.015625q1.140625 1.328125 2.6875 1.328125q1.5625 0 2.640625 -1.265625q1.09375 -1.265625 1.09375 -3.890625q0 -2.859375 -1.109375 -4.203125q-1.109375 -1.359375 -2.734375 -1.359375q-1.578125 0 -2.640625 1.296875q-1.0625 1.296875 -1.0625 4.078125zm27.340546 0.203125l2.5625 0.65625q-0.8125 3.140625 -2.90625 4.796875q-2.0780945 1.65625 -5.1093445 1.65625q-3.125 0 -5.078125 -1.265625q-1.953125 -1.28125 -2.984375 -3.6875q-1.015625 -2.421875 -1.015625 -5.1875q0 -3.015625 1.15625 -5.265625q1.15625 -2.25 3.28125 -3.40625q2.125 -1.171875 4.6875 -1.171875q2.90625 0 4.8749695 1.484375q1.984375 1.46875 2.75 4.140625l-2.515625 0.59375q-0.671875 -2.109375 -1.9530945 -3.0625q-1.265625 -0.96875 -3.203125 -0.96875q-2.234375 0 -3.734375 1.078125q-1.5 1.0625 -2.109375 2.859375q-0.59375 1.796875 -0.59375 3.703125q0 2.46875 0.71875 4.3125q0.71875 1.84375 2.234375 2.75q1.515625 0.90625 3.28125 0.90625q2.140625 0 3.625 -1.234375q1.4999695 -1.25 2.0312195 -3.6875zm5.125305 6.78125l0 -14.0l2.140625 0l0 2.125q0.8125 -1.5 1.5 -1.96875q0.703125 -0.46875 1.53125 -0.46875q1.203125 0 2.4375 0.765625l-0.8125 2.203125q-0.875 -0.515625 -1.75 -0.515625q-0.765625 0 -1.390625 0.46875q-0.625 0.46875 -0.890625 1.296875q-0.390625 1.265625 -0.390625 2.765625l0 7.328125l-2.375 0zm18.486084 -4.515625l2.453125 0.3125q-0.578125 2.140625 -2.15625 3.328125q-1.5625 1.1875 -4.0 1.1875q-3.0625 0 -4.875 -1.890625q-1.796875 -1.890625 -1.796875 -5.296875q0 -3.546875 1.8125 -5.484375q1.828125 -1.953125 4.734375 -1.953125q2.8125 0 4.578125 1.90625q1.78125 1.90625 1.78125 5.375q0 0.21875 -0.015625 0.640625l-10.4375 0q0.140625 2.296875 1.3125 3.53125q1.171875 1.21875 2.921875 1.21875q1.3125 0 2.234375 -0.671875q0.921875 -0.6875 1.453125 -2.203125zm-7.78125 -3.828125l7.8125 0q-0.15625 -1.765625 -0.890625 -2.65625q-1.140625 -1.359375 -2.953125 -1.359375q-1.625 0 -2.75 1.09375q-1.109375 1.09375 -1.21875 2.921875zm22.168701 6.609375q-1.328125 1.125 -2.546875 1.59375q-1.21875 0.453125 -2.609375 0.453125q-2.3125 0 -3.5625 -1.125q-1.234375 -1.125 -1.234375 -2.875q0 -1.03125 0.46875 -1.875q0.46875 -0.859375 1.21875 -1.375q0.765625 -0.515625 1.71875 -0.78125q0.703125 -0.171875 2.109375 -0.34375q2.875 -0.34375 4.234375 -0.828125q0.015625 -0.484375 0.015625 -0.609375q0 -1.453125 -0.671875 -2.046875q-0.90625 -0.8125 -2.703125 -0.8125q-1.671875 0 -2.46875 0.59375q-0.796875 0.578125 -1.1875 2.078125l-2.3125 -0.3125q0.3125 -1.5 1.03125 -2.40625q0.734375 -0.921875 2.09375 -1.40625q1.375 -0.5 3.1875 -0.5q1.796875 0 2.90625 0.421875q1.125 0.421875 1.640625 1.0625q0.53125 0.640625 0.75 1.609375q0.125 0.609375 0.125 2.1875l0 3.171875q0 3.296875 0.140625 4.1875q0.15625 0.875 0.609375 1.671875l-2.484375 0q-0.375 -0.734375 -0.46875 -1.734375zm-0.203125 -5.296875q-1.296875 0.53125 -3.875 0.90625q-1.46875 0.203125 -2.078125 0.46875q-0.59375 0.265625 -0.9375 0.78125q-0.328125 0.5 -0.328125 1.125q0 0.9375 0.71875 1.578125q0.71875 0.625 2.109375 0.625q1.375 0 2.4375 -0.59375q1.0625 -0.609375 1.578125 -1.640625q0.375 -0.8125 0.375 -2.375l0 -0.875zm11.074951 4.90625l0.328125 2.09375q-1.0 0.21875 -1.78125 0.21875q-1.296875 0 -2.015625 -0.40625q-0.703125 -0.421875 -1.0 -1.078125q-0.28125 -0.671875 -0.28125 -2.796875l0 -8.0625l-1.75 0l0 -1.84375l1.75 0l0 -3.46875l2.359375 -1.421875l0 4.890625l2.390625 0l0 1.84375l-2.390625 0l0 8.1875q0 1.015625 0.125 1.3125q0.125 0.28125 0.40625 0.453125q0.28125 0.171875 0.8125 0.171875q0.390625 0 1.046875 -0.09375zm11.79657 -2.390625l2.453125 0.3125q-0.578125 2.140625 -2.15625 3.328125q-1.5625 1.1875 -4.0 1.1875q-3.0625 0 -4.875 -1.890625q-1.796875 -1.890625 -1.796875 -5.296875q0 -3.546875 1.8125 -5.484375q1.828125 -1.953125 4.734375 -1.953125q2.8125 0 4.578125 1.90625q1.78125 1.90625 1.78125 5.375q0 0.21875 -0.015625 0.640625l-10.4375 0q0.140625 2.296875 1.3125 3.53125q1.171875 1.21875 2.921875 1.21875q1.3125 0 2.234375 -0.671875q0.921875 -0.6875 1.453125 -2.203125zm-7.78125 -3.828125l7.8125 0q-0.15625 -1.765625 -0.890625 -2.65625q-1.140625 -1.359375 -2.953125 -1.359375q-1.625 0 -2.75 1.09375q-1.109375 1.09375 -1.21875 2.921875zm17.559326 14.03125q-1.96875 -2.484375 -3.328125 -5.796875q-1.34375 -3.328125 -1.34375 -6.890625q0 -3.140625 1.015625 -6.015625q1.1875 -3.328125 3.65625 -6.640625l1.703125 0q-1.59375 2.734375 -2.109375 3.921875q-0.796875 1.8125 -1.265625 3.796875q-0.5625 2.453125 -0.5625 4.953125q0 6.34375 3.9375 12.671875l-1.703125 0zm4.392395 -0.328125l0 -24.6875l5.234375 0l0 1.96875l-2.859375 0l0 20.765625l2.859375 0l0 1.953125l-5.234375 0zm21.45282 -12.140625l2.5625 0.65625q-0.8125 3.140625 -2.90625 4.796875q-2.078125 1.65625 -5.109375 1.65625q-3.125 0 -5.078125 -1.265625q-1.953125 -1.28125 -2.984375 -3.6875q-1.015625 -2.421875 -1.015625 -5.1875q0 -3.015625 1.15625 -5.265625q1.15625 -2.25 3.28125 -3.40625q2.125 -1.171875 4.6875 -1.171875q2.90625 0 4.875 1.484375q1.984375 1.46875 2.75 4.140625l-2.515625 0.59375q-0.671875 -2.109375 -1.953125 -3.0625q-1.265625 -0.96875 -3.203125 -0.96875q-2.234375 0 -3.734375 1.078125q-1.5 1.0625 -2.109375 2.859375q-0.59375 1.796875 -0.59375 3.703125q0 2.46875 0.71875 4.3125q0.71875 1.84375 2.234375 2.75q1.515625 0.90625 3.28125 0.90625q2.140625 0 3.625 -1.234375q1.5 -1.25 2.03125 -3.6875zm14.29718 5.046875q-1.328125 1.125 -2.546875 1.59375q-1.21875 0.453125 -2.609375 0.453125q-2.3125 0 -3.5625 -1.125q-1.234375 -1.125 -1.234375 -2.875q0 -1.03125 0.46875 -1.875q0.46875 -0.859375 1.21875 -1.375q0.765625 -0.515625 1.71875 -0.78125q0.703125 -0.171875 2.109375 -0.34375q2.875 -0.34375 4.234375 -0.828125q0.015625 -0.484375 0.015625 -0.609375q0 -1.453125 -0.671875 -2.046875q-0.90625 -0.8125 -2.703125 -0.8125q-1.671875 0 -2.46875 0.59375q-0.796875 0.578125 -1.1875 2.078125l-2.3125 -0.3125q0.3125 -1.5 1.03125 -2.40625q0.734375 -0.921875 2.09375 -1.40625q1.375 -0.5 3.1875 -0.5q1.796875 0 2.90625 0.421875q1.125 0.421875 1.640625 1.0625q0.53125 0.640625 0.75 1.609375q0.125 0.609375 0.125 2.1875l0 3.171875q0 3.296875 0.140625 4.1875q0.15625 0.875 0.609375 1.671875l-2.484375 0q-0.375 -0.734375 -0.46875 -1.734375zm-0.203125 -5.296875q-1.296875 0.53125 -3.875 0.90625q-1.46875 0.203125 -2.078125 0.46875q-0.59375 0.265625 -0.9375 0.78125q-0.328125 0.5 -0.328125 1.125q0 0.9375 0.71875 1.578125q0.71875 0.625 2.109375 0.625q1.375 0 2.4375 -0.59375q1.0625 -0.609375 1.578125 -1.640625q0.375 -0.8125 0.375 -2.375l0 -0.875zm5.856201 7.03125l0 -14.0l2.140625 0l0 2.125q0.8125 -1.5 1.5 -1.96875q0.703125 -0.46875 1.53125 -0.46875q1.203125 0 2.4375 0.765625l-0.8125 2.203125q-0.875 -0.515625 -1.75 -0.515625q-0.765625 0 -1.390625 0.46875q-0.625 0.46875 -0.890625 1.296875q-0.390625 1.265625 -0.390625 2.765625l0 7.328125l-2.375 0zm9.53302 0l0 -2.703125l2.703125 0l0 2.703125q0 1.484375 -0.53125 2.40625q-0.53125 0.921875 -1.671875 1.421875l-0.671875 -1.015625q0.765625 -0.328125 1.109375 -0.96875q0.359375 -0.640625 0.40625 -1.84375l-1.34375 0zm14.546265 0l0 -19.328125l13.96875 0l0 2.28125l-11.421875 0l0 5.921875l10.703125 0l0 2.265625l-10.703125 0l0 6.578125l11.875 0l0 2.28125l-14.421875 0zm17.420166 0l0 -14.0l2.140625 0l0 1.984375q1.53125 -2.296875 4.453125 -2.296875q1.265625 0 2.328125 0.453125q1.0625 0.453125 1.578125 1.1875q0.53125 0.734375 0.75 1.75q0.125 0.671875 0.125 2.3125l0 8.609375l-2.375 0l0 -8.515625q0 -1.453125 -0.28125 -2.171875q-0.265625 -0.71875 -0.984375 -1.140625q-0.703125 -0.4375 -1.640625 -0.4375q-1.515625 0 -2.625 0.96875q-1.09375 0.953125 -1.09375 3.65625l0 7.640625l-2.375 0zm14.38739 1.15625l2.3125 0.34375q0.140625 1.078125 0.796875 1.5625q0.890625 0.65625 2.421875 0.65625q1.640625 0 2.53125 -0.65625q0.90625 -0.65625 1.21875 -1.84375q0.1875 -0.734375 0.171875 -3.046875q-1.5625 1.828125 -3.875 1.828125q-2.890625 0 -4.46875 -2.078125q-1.578125 -2.09375 -1.578125 -5.0q0 -2.0 0.71875 -3.6875q0.734375 -1.703125 2.109375 -2.625q1.375 -0.921875 3.234375 -0.921875q2.46875 0 4.078125 2.0l0 -1.6875l2.1875 0l0 12.09375q0 3.28125 -0.671875 4.640625q-0.65625 1.359375 -2.109375 2.15625q-1.4375 0.796875 -3.546875 0.796875q-2.5 0 -4.046875 -1.140625q-1.53125 -1.125 -1.484375 -3.390625zm1.96875 -8.40625q0 2.75 1.09375 4.015625q1.09375 1.265625 2.734375 1.265625q1.640625 0 2.75 -1.25q1.109375 -1.265625 1.109375 -3.953125q0 -2.578125 -1.140625 -3.875q-1.140625 -1.3125 -2.75 -1.3125q-1.578125 0 -2.6875 1.296875q-1.109375 1.28125 -1.109375 3.8125zm13.309326 -9.34375l0 -2.734375l2.375 0l0 2.734375l-2.375 0zm0 16.59375l0 -14.0l2.375 0l0 14.0l-2.375 0zm5.906555 0l0 -14.0l2.140625 0l0 1.984375q1.53125 -2.296875 4.453125 -2.296875q1.265625 0 2.328125 0.453125q1.0625 0.453125 1.578125 1.1875q0.53125 0.734375 0.75 1.75q0.125 0.671875 0.125 2.3125l0 8.609375l-2.375 0l0 -8.515625q0 -1.453125 -0.28125 -2.171875q-0.265625 -0.71875 -0.984375 -1.140625q-0.703125 -0.4375 -1.640625 -0.4375q-1.515625 0 -2.625 0.96875q-1.09375 0.953125 -1.09375 3.65625l0 7.640625l-2.375 0zm24.403076 -4.515625l2.453125 0.3125q-0.578125 2.140625 -2.15625 3.328125q-1.5625 1.1875 -4.0 1.1875q-3.0625 0 -4.875 -1.890625q-1.796875 -1.890625 -1.796875 -5.296875q0 -3.546875 1.8125 -5.484375q1.828125 -1.953125 4.734375 -1.953125q2.8125 0 4.578125 1.90625q1.78125 1.90625 1.78125 5.375q0 0.21875 -0.015625 0.640625l-10.4375 0q0.140625 2.296875 1.3125 3.53125q1.171875 1.21875 2.921875 1.21875q1.3125 0 2.234375 -0.671875q0.921875 -0.6875 1.453125 -2.203125zm-7.78125 -3.828125l7.8125 0q-0.15625 -1.765625 -0.890625 -2.65625q-1.140625 -1.359375 -2.953125 -1.359375q-1.625 0 -2.75 1.09375q-1.109375 1.09375 -1.21875 2.921875zm13.653076 8.34375l0 -2.703125l2.703125 0l0 2.703125q0 1.484375 -0.53125 2.40625q-0.53125 0.921875 -1.671875 1.421875l-0.671875 -1.015625q0.765625 -0.328125 1.109375 -0.96875q0.359375 -0.640625 0.40625 -1.84375l-1.34375 0zm19.40564 0l0 -17.046875l-6.359375 0l0 -2.28125l15.3125 0l0 2.28125l-6.390625 0l0 17.046875l-2.5625 0zm11.07959 -16.59375l0 -2.734375l2.375 0l0 2.734375l-2.375 0zm0 16.59375l0 -14.0l2.375 0l0 14.0l-2.375 0zm5.875305 0l0 -14.0l2.140625 0l0 2.125q0.8125 -1.5 1.5 -1.96875q0.703125 -0.46875 1.53125 -0.46875q1.203125 0 2.4375 0.765625l-0.8125 2.203125q-0.875 -0.515625 -1.75 -0.515625q-0.765625 0 -1.390625 0.46875q-0.625 0.46875 -0.890625 1.296875q-0.390625 1.265625 -0.390625 2.765625l0 7.328125l-2.375 0zm18.486084 -4.515625l2.453125 0.3125q-0.578125 2.140625 -2.15625 3.328125q-1.5625 1.1875 -4.0 1.1875q-3.0625 0 -4.875 -1.890625q-1.796875 -1.890625 -1.796875 -5.296875q0 -3.546875 1.8125 -5.484375q1.828125 -1.953125 4.734375 -1.953125q2.8125 0 4.578125 1.90625q1.78125 1.90625 1.78125 5.375q0 0.21875 -0.015625 0.640625l-10.4375 0q0.140625 2.296875 1.3125 3.53125q1.171875 1.21875 2.921875 1.21875q1.3125 0 2.234375 -0.671875q0.921875 -0.6875 1.453125 -2.203125zm-7.78125 -3.828125l7.8125 0q-0.15625 -1.765625 -0.890625 -2.65625q-1.140625 -1.359375 -2.953125 -1.359375q-1.625 0 -2.75 1.09375q-1.109375 1.09375 -1.21875 2.921875zm12.074951 4.171875l2.34375 -0.375q0.203125 1.40625 1.109375 2.15625q0.90625 0.75 2.515625 0.75q1.640625 0 2.421875 -0.65625q0.796875 -0.671875 0.796875 -1.5625q0 -0.8125 -0.6875 -1.265625q-0.5 -0.3125 -2.4375 -0.8125q-2.609375 -0.65625 -3.625 -1.125q-1.0 -0.484375 -1.53125 -1.328125q-0.515625 -0.859375 -0.515625 -1.890625q0 -0.9375 0.421875 -1.734375q0.4375 -0.796875 1.1875 -1.328125q0.546875 -0.40625 1.5 -0.6875q0.953125 -0.28125 2.046875 -0.28125q1.65625 0 2.890625 0.46875q1.25 0.46875 1.84375 1.28125q0.59375 0.8125 0.828125 2.171875l-2.328125 0.3125q-0.15625 -1.078125 -0.921875 -1.671875q-0.75 -0.609375 -2.140625 -0.609375q-1.625 0 -2.328125 0.546875q-0.703125 0.53125 -0.703125 1.25q0 0.46875 0.296875 0.828125q0.28125 0.390625 0.90625 0.640625q0.359375 0.125 2.09375 0.609375q2.515625 0.671875 3.515625 1.09375q1.0 0.421875 1.5625 1.25q0.5625 0.8125 0.5625 2.03125q0 1.1875 -0.6875 2.234375q-0.6875 1.046875 -2.0 1.625q-1.296875 0.5625 -2.953125 0.5625q-2.71875 0 -4.15625 -1.125q-1.4375 -1.140625 -1.828125 -3.359375zm14.90625 4.171875l0 -2.703125l2.703125 0l0 2.703125q0 1.484375 -0.53125 2.40625q-0.53125 0.921875 -1.671875 1.421875l-0.671875 -1.015625q0.765625 -0.328125 1.109375 -0.96875q0.359375 -0.640625 0.40625 -1.84375l-1.34375 0zm14.483765 0l0 -19.328125l6.65625 0q2.265625 0 3.453125 0.28125q1.65625 0.375 2.828125 1.375q1.53125 1.296875 2.28125 3.3125q0.765625 2.0 0.765625 4.59375q0 2.203125 -0.515625 3.90625q-0.515625 1.6875 -1.328125 2.8125q-0.796875 1.109375 -1.75 1.75q-0.953125 0.640625 -2.3125 0.96875q-1.34375 0.328125 -3.09375 0.328125l-6.984375 0zm2.5625 -2.28125l4.125 0q1.90625 0 3.0 -0.359375q1.09375 -0.359375 1.734375 -1.0q0.90625 -0.90625 1.40625 -2.4375q0.515625 -1.546875 0.515625 -3.734375q0 -3.03125 -1.0 -4.65625q-0.984375 -1.625 -2.40625 -2.1875q-1.03125 -0.390625 -3.3125 -0.390625l-4.0625 0l0 14.765625zm15.500305 -4.71875q0 -3.890625 2.171875 -5.765625q1.796875 -1.546875 4.40625 -1.546875q2.875 0 4.703125 1.890625q1.84375 1.890625 1.84375 5.21875q0 2.703125 -0.8125 4.265625q-0.8125 1.546875 -2.359375 2.40625q-1.546875 0.84375 -3.375 0.84375q-2.953125 0 -4.765625 -1.875q-1.8125 -1.890625 -1.8125 -5.4375zm2.4375 0q0 2.6875 1.171875 4.03125q1.1875 1.328125 2.96875 1.328125q1.765625 0 2.9375 -1.34375q1.171875 -1.34375 1.171875 -4.09375q0 -2.59375 -1.1875 -3.9375q-1.171875 -1.34375 -2.921875 -1.34375q-1.78125 0 -2.96875 1.34375q-1.171875 1.328125 -1.171875 4.015625zm12.387451 0q0 -3.890625 2.171875 -5.765625q1.796875 -1.546875 4.40625 -1.546875q2.875 0 4.703125 1.890625q1.84375 1.890625 1.84375 5.21875q0 2.703125 -0.8125 4.265625q-0.8125 1.546875 -2.359375 2.40625q-1.546875 0.84375 -3.375 0.84375q-2.953125 0 -4.765625 -1.875q-1.8125 -1.890625 -1.8125 -5.4375zm2.4375 0q0 2.6875 1.171875 4.03125q1.1875 1.328125 2.96875 1.328125q1.765625 0 2.9375 -1.34375q1.171875 -1.34375 1.171875 -4.09375q0 -2.59375 -1.1875 -3.9375q-1.171875 -1.34375 -2.921875 -1.34375q-1.78125 0 -2.96875 1.34375q-1.171875 1.328125 -1.171875 4.015625zm13.246826 7.0l0 -14.0l2.140625 0l0 2.125q0.8125 -1.5 1.5 -1.96875q0.703125 -0.46875 1.53125 -0.46875q1.203125 0 2.4375 0.765625l-0.8125 2.203125q-0.875 -0.515625 -1.75 -0.515625q-0.765625 0 -1.390625 0.46875q-0.625 0.46875 -0.890625 1.296875q-0.390625 1.265625 -0.390625 2.765625l0 7.328125l-2.375 0zm7.954834 -4.171875l2.34375 -0.375q0.203125 1.40625 1.109375 2.15625q0.90625 0.75 2.515625 0.75q1.640625 0 2.421875 -0.65625q0.796875 -0.671875 0.796875 -1.5625q0 -0.8125 -0.6875 -1.265625q-0.5 -0.3125 -2.4375 -0.8125q-2.609375 -0.65625 -3.625 -1.125q-1.0 -0.484375 -1.53125 -1.328125q-0.515625 -0.859375 -0.515625 -1.890625q0 -0.9375 0.421875 -1.734375q0.4375 -0.796875 1.1875 -1.328125q0.546875 -0.40625 1.5 -0.6875q0.953125 -0.28125 2.046875 -0.28125q1.65625 0 2.890625 0.46875q1.25 0.46875 1.84375 1.28125q0.59375 0.8125 0.828125 2.171875l-2.328125 0.3125q-0.15625 -1.078125 -0.921875 -1.671875q-0.75 -0.609375 -2.140625 -0.609375q-1.625 0 -2.328125 0.546875q-0.703125 0.53125 -0.703125 1.25q0 0.46875 0.296875 0.828125q0.28125 0.390625 0.90625 0.640625q0.359375 0.125 2.09375 0.609375q2.515625 0.671875 3.515625 1.09375q1.0 0.421875 1.5625 1.25q0.5625 0.8125 0.5625 2.03125q0 1.1875 -0.6875 2.234375q-0.6875 1.046875 -2.0 1.625q-1.296875 0.5625 -2.953125 0.5625q-2.71875 0 -4.15625 -1.125q-1.4375 -1.140625 -1.828125 -3.359375zm18.25 9.53125l-5.234375 0l0 -1.953125l2.859375 0l0 -20.765625l-2.859375 0l0 -1.96875l5.234375 0l0 24.6875zm4.98407 0.328125l-1.6875 0q3.9375 -6.328125 3.9375 -12.671875q0 -2.484375 -0.5625 -4.921875q-0.453125 -1.96875 -1.265625 -3.796875q-0.5 -1.1875 -2.109375 -3.953125l1.6875 0q2.484375 3.3125 3.671875 6.640625q1.015625 2.875 1.015625 6.015625q0 3.5625 -1.375 6.890625q-1.359375 3.3125 -3.3125 5.796875zm7.954895 -16.984375l0 -2.703125l2.703125 0l0 2.703125l-2.703125 0zm0 11.296875l0 -2.703125l2.703125 0l0 2.703125q0 1.484375 -0.53125 2.40625q-0.53125 0.921875 -1.671875 1.421875l-0.671875 -1.015625q0.765625 -0.328125 1.109375 -0.96875q0.359375 -0.640625 0.40625 -1.84375l-1.34375 0z" fill-rule="nonzero"></path><path fill="#fff2cc" d="m19.32021 49.635517l0 0c0 -9.581825 7.767605 -17.349426 17.34943 -17.349426l187.41138 0c4.601349 0 9.014236 1.8278809 12.267899 5.0815277c3.2536469 3.2536507 5.0815277 7.666546 5.0815277 12.267899l0 69.39563c0 9.581825 -7.7676086 17.349434 -17.349426 17.349434l-187.41138 0c-9.581825 0 -17.34943 -7.7676086 -17.34943 -17.349434z" fill-rule="nonzero"></path><path stroke="#000000" stroke-width="2.0" stroke-linejoin="round" stroke-linecap="butt" d="m19.32021 49.635517l0 0c0 -9.581825 7.767605 -17.349426 17.34943 -17.349426l187.41138 0c4.601349 0 9.014236 1.8278809 12.267899 5.0815277c3.2536469 3.2536507 5.0815277 7.666546 5.0815277 12.267899l0 69.39563c0 9.581825 -7.7676086 17.349434 -17.349426 17.349434l-187.41138 0c-9.581825 0 -17.34943 -7.7676086 -17.34943 -17.349434z" fill-rule="nonzero"></path><path fill="#000000" fill-opacity="0.0" d="m19.32021 48.28609l222.11024 0l0 72.09448l-222.11024 0z" fill-rule="nonzero"></path><path fill="#000000" d="m54.193684 92.87333l0 -17.1875l6.46875 0q1.71875 0 2.625 0.171875q1.2656288 0.203125 2.1093788 0.796875q0.859375 0.59375 1.375 1.671875q0.53125 1.0625 0.53125 2.328125q0 2.203125 -1.40625 3.71875q-1.390625 1.515625 -5.031254 1.515625l-4.40625 0l0 6.984375l-2.265625 0zm2.265625 -9.015625l4.4375 0q2.203125 0 3.1250038 -0.8125q0.9375 -0.828125 0.9375 -2.3125q0 -1.078125 -0.546875 -1.84375q-0.5468788 -0.765625 -1.4375038 -1.015625q-0.578125 -0.15625 -2.125 -0.15625l-4.390625 0l0 6.140625zm21.585941 7.484375q-1.171875 0.984375 -2.265625 1.40625q-1.078125 0.40625 -2.3125 0.40625q-2.046875 0 -3.15625 -1.0q-1.09375 -1.0 -1.09375 -2.5625q0 -0.921875 0.40625 -1.671875q0.421875 -0.75 1.09375 -1.203125q0.671875 -0.46875 1.515625 -0.703125q0.625 -0.15625 1.875 -0.3125q2.5625 -0.3125 3.765625 -0.734375q0.015625 -0.421875 0.015625 -0.546875q0 -1.28125 -0.609375 -1.8125q-0.796875 -0.71875 -2.390625 -0.71875q-1.5 0 -2.203125 0.53125q-0.703125 0.515625 -1.046875 1.84375l-2.0625 -0.28125q0.28125 -1.328125 0.921875 -2.140625q0.640625 -0.8125 1.859375 -1.25q1.21875 -0.453125 2.828125 -0.453125q1.59375 0 2.59375 0.375q1.0 0.375 1.46875 0.953125q0.46875 0.5625 0.65625 1.4375q0.09375 0.53125 0.09375 1.9375l0 2.8125q0 2.9375 0.140625 3.71875q0.140625 0.78125 0.53125 1.5l-2.203125 0q-0.328125 -0.65625 -0.421875 -1.53125zm-0.171875 -4.71875q-1.15625 0.46875 -3.453125 0.796875q-1.296875 0.1875 -1.84375 0.421875q-0.53125 0.234375 -0.828125 0.6875q-0.28125 0.453125 -0.28125 1.0q0 0.84375 0.625 1.40625q0.640625 0.5625 1.875 0.5625q1.21875 0 2.171875 -0.53125q0.953125 -0.53125 1.390625 -1.453125q0.34375 -0.71875 0.34375 -2.109375l0 -0.78125zm5.3789062 6.25l0 -12.453125l1.890625 0l0 1.890625q0.734375 -1.328125 1.34375 -1.75q0.625 -0.421875 1.359375 -0.421875q1.0625 0 2.171875 0.6875l-0.734375 1.953125q-0.765625 -0.453125 -1.546875 -0.453125q-0.6875 0 -1.25 0.421875q-0.546875 0.40625 -0.78125 1.140625q-0.34375 1.125 -0.34375 2.46875l0 6.515625l-2.109375 0zm16.539062 -4.015625l2.171875 0.28125q-0.515625 1.90625 -1.90625 2.96875q-1.390625 1.046875 -3.5625 1.046875q-2.734375 0 -4.34375 -1.671875q-1.59375 -1.6875 -1.59375 -4.734375q0 -3.140625 1.609375 -4.875q1.625 -1.734375 4.203125 -1.734375q2.5 0 4.078125 1.703125q1.59375 1.703125 1.59375 4.78125q0 0.1875 -0.015625 0.5625l-9.28125 0q0.109375 2.046875 1.15625 3.140625q1.046875 1.09375 2.609375 1.09375q1.15625 0 1.96875 -0.609375q0.828125 -0.609375 1.3125 -1.953125zm-6.9375 -3.40625l6.953125 0q-0.140625 -1.5625 -0.796875 -2.359375q-1.0 -1.21875 -2.609375 -1.21875q-1.453125 0 -2.453125 0.984375q-0.984375 0.96875 -1.09375 2.59375zm11.753906 7.421875l0 -12.453125l1.90625 0l0 1.78125q1.375 -2.0625 3.953125 -2.0625q1.125 0 2.0625 0.40625q0.953125 0.40625 1.421875 1.0625q0.46875 0.65625 0.65625 1.5625q0.125 0.578125 0.125 2.046875l0 7.65625l-2.109375 0l0 -7.578125q0 -1.28125 -0.25 -1.921875q-0.25 -0.640625 -0.875 -1.015625q-0.625 -0.390625 -1.46875 -0.390625q-1.34375 0 -2.328125 0.859375q-0.984375 0.859375 -0.984375 3.25l0 6.796875l-2.109375 0zm17.957031 -1.890625l0.3125 1.859375q-0.890625 0.203125 -1.59375 0.203125q-1.15625 0 -1.796875 -0.359375q-0.625 -0.375 -0.890625 -0.96875q-0.25 -0.59375 -0.25 -2.484375l0 -7.171875l-1.546875 0l0 -1.640625l1.546875 0l0 -3.078125l2.09375 -1.265625l0 4.34375l2.125 0l0 1.640625l-2.125 0l0 7.28125q0 0.90625 0.109375 1.171875q0.125 0.25 0.375 0.40625q0.25 0.140625 0.71875 0.140625q0.34375 0 0.921875 -0.078125zm9.382805 1.890625l0 -17.1875l2.28125 0l0 17.1875l-2.28125 0zm6.0117188 0l0 -12.453125l1.90625 0l0 1.78125q1.375 -2.0625 3.953125 -2.0625q1.125 0 2.0625 0.40625q0.953125 0.40625 1.421875 1.0625q0.46875 0.65625 0.65625 1.5625q0.125 0.578125 0.125 2.046875l0 7.65625l-2.109375 0l0 -7.578125q0 -1.28125 -0.25 -1.921875q-0.25 -0.640625 -0.875 -1.015625q-0.625 -0.390625 -1.46875 -0.390625q-1.34375 0 -2.328125 0.859375q-0.984375 0.859375 -0.984375 3.25l0 6.796875l-2.109375 0zm13.347656 -14.734375l0 -2.453125l2.109375 0l0 2.453125l-2.109375 0zm-2.6875 19.5625l0.40625 -1.796875q0.625 0.171875 1.0 0.171875q0.640625 0 0.953125 -0.4375q0.328125 -0.421875 0.328125 -2.125l0 -13.09375l2.109375 0l0 13.140625q0 2.296875 -0.609375 3.1875q-0.75 1.171875 -2.53125 1.171875q-0.859375 0 -1.65625 -0.21875zm16.550781 -8.84375l2.171875 0.28125q-0.515625 1.90625 -1.90625 2.96875q-1.390625 1.046875 -3.5625 1.046875q-2.734375 0 -4.34375 -1.671875q-1.59375 -1.6875 -1.59375 -4.734375q0 -3.140625 1.609375 -4.875q1.625 -1.734375 4.203125 -1.734375q2.5 0 4.078125 1.703125q1.59375 1.703125 1.59375 4.78125q0 0.1875 -0.015625 0.5625l-9.28125 0q0.109375 2.046875 1.15625 3.140625q1.046875 1.09375 2.609375 1.09375q1.15625 0 1.96875 -0.609375q0.828125 -0.609375 1.3125 -1.953125zm-6.9375 -3.40625l6.953125 0q-0.140625 -1.5625 -0.796875 -2.359375q-1.0 -1.21875 -2.609375 -1.21875q-1.453125 0 -2.453125 0.984375q-0.984375 0.96875 -1.09375 2.59375zm19.878906 2.859375l2.078125 0.265625q-0.34375 2.15625 -1.75 3.375q-1.390625 1.203125 -3.4375 1.203125q-2.546875 0 -4.109375 -1.671875q-1.546875 -1.671875 -1.546875 -4.78125q0 -2.015625 0.671875 -3.53125q0.671875 -1.515625 2.03125 -2.265625q1.359375 -0.765625 2.96875 -0.765625q2.03125 0 3.3125 1.03125q1.296875 1.03125 1.65625 2.90625l-2.046875 0.328125q-0.296875 -1.265625 -1.046875 -1.890625q-0.734375 -0.640625 -1.796875 -0.640625q-1.59375 0 -2.59375 1.15625q-0.984375 1.140625 -0.984375 3.609375q0 2.5 0.953125 3.640625q0.96875 1.140625 2.515625 1.140625q1.234375 0 2.0625 -0.765625q0.84375 -0.765625 1.0625 -2.34375zm8.484375 2.671875l0.3125 1.859375q-0.890625 0.203125 -1.59375 0.203125q-1.15625 0 -1.796875 -0.359375q-0.625 -0.375 -0.890625 -0.96875q-0.25 -0.59375 -0.25 -2.484375l0 -7.171875l-1.546875 0l0 -1.640625l1.546875 0l0 -3.078125l2.09375 -1.265625l0 4.34375l2.125 0l0 1.640625l-2.125 0l0 7.28125q0 0.90625 0.109375 1.171875q0.125 0.25 0.375 0.40625q0.25 0.140625 0.71875 0.140625q0.34375 0 0.921875 -0.078125zm1.2773438 -4.328125q0 -3.46875 1.921875 -5.125q1.609375 -1.390625 3.921875 -1.390625q2.5625 0 4.1875 1.6875q1.625 1.6875 1.625 4.640625q0 2.40625 -0.71875 3.78125q-0.71875 1.375 -2.09375 2.140625q-1.375 0.765625 -3.0 0.765625q-2.625 0 -4.234375 -1.671875q-1.609375 -1.6875 -1.609375 -4.828125zm2.171875 0q0 2.390625 1.03125 3.578125q1.046875 1.1875 2.640625 1.1875q1.5625 0 2.609375 -1.1875q1.046875 -1.203125 1.046875 -3.65625q0 -2.3125 -1.0625 -3.5q-1.046875 -1.1875 -2.59375 -1.1875q-1.59375 0 -2.640625 1.1875q-1.03125 1.1875 -1.03125 3.578125zm11.941406 6.21875l0 -12.453125l1.890625 0l0 1.890625q0.734375 -1.328125 1.34375 -1.75q0.625 -0.421875 1.359375 -0.421875q1.0625 0 2.171875 0.6875l-0.734375 1.953125q-0.765625 -0.453125 -1.546875 -0.453125q-0.6875 0 -1.25 0.421875q-0.546875 0.40625 -0.78125 1.140625q-0.34375 1.125 -0.34375 2.46875l0 6.515625l-2.109375 0z" fill-rule="nonzero"></path><path fill="#000000" fill-opacity="0.0" d="m241.43045 241.33595l704.9448 0l0 72.0945l-704.9448 0z" fill-rule="nonzero"></path><path fill="#000000" d="m321.58444 286.98322l0 -19.328125l2.5625 0l0 19.328125l-2.5625 0zm6.67157 0l0 -14.0l2.140625 0l0 1.984375q1.53125 -2.296875 4.453125 -2.296875q1.265625 0 2.328125 0.453125q1.0625 0.453125 1.578125 1.1875q0.53125 0.734375 0.75 1.75q0.125 0.671875 0.125 2.3125l0 8.609375l-2.375 0l0 -8.515625q0 -1.453125 -0.28125 -2.171875q-0.265625 -0.71875 -0.984375 -1.140625q-0.703125 -0.4375 -1.640625 -0.4375q-1.515625 0 -2.625 0.96875q-1.09375 0.953125 -1.09375 3.65625l0 7.640625l-2.375 0zm14.809326 -16.578125l0 -2.75l2.375 0l0 2.75l-2.375 0zm-3.0 22.015625l0.4375 -2.015625q0.71875 0.171875 1.125 0.171875q0.734375 0 1.078125 -0.484375q0.359375 -0.46875 0.359375 -2.390625l0 -14.71875l2.375 0l0 14.765625q0 2.578125 -0.671875 3.59375q-0.859375 1.328125 -2.84375 1.328125q-0.96875 0 -1.859375 -0.25zm18.5159 -9.953125l2.453125 0.3125q-0.578125 2.140625 -2.15625 3.328125q-1.5625 1.1875 -4.0 1.1875q-3.0625 0 -4.875 -1.890625q-1.796875 -1.890625 -1.796875 -5.296875q0 -3.546875 1.8125 -5.484375q1.828125 -1.953125 4.734375 -1.953125q2.8125 0 4.578125 1.90625q1.78125 1.90625 1.78125 5.375q0 0.21875 -0.015625 0.640625l-10.4375 0q0.140625 2.296875 1.3125 3.53125q1.171875 1.21875 2.921875 1.21875q1.3125 0 2.234375 -0.671875q0.921875 -0.6875 1.453125 -2.203125zm-7.78125 -3.828125l7.8125 0q-0.15625 -1.765625 -0.890625 -2.65625q-1.140625 -1.359375 -2.953125 -1.359375q-1.625 0 -2.75 1.09375q-1.109375 1.09375 -1.21875 2.921875zm22.168701 3.21875l2.328125 0.296875q-0.375 2.421875 -1.953125 3.78125q-1.578125 1.359375 -3.875 1.359375q-2.875 0 -4.625 -1.875q-1.734375 -1.875 -1.734375 -5.390625q0 -2.265625 0.75 -3.953125q0.75 -1.703125 2.28125 -2.546875q1.53125 -0.859375 3.34375 -0.859375q2.28125 0 3.71875 1.15625q1.453125 1.140625 1.875 3.265625l-2.3125 0.359375q-0.328125 -1.40625 -1.171875 -2.109375q-0.828125 -0.71875 -2.015625 -0.71875q-1.796875 0 -2.921875 1.28125q-1.109375 1.28125 -1.109375 4.0625q0 2.828125 1.078125 4.109375q1.078125 1.265625 2.8125 1.265625q1.40625 0 2.34375 -0.84375q0.9375 -0.859375 1.1875 -2.640625zm9.375 3.0l0.328125 2.09375q-1.0 0.21875 -1.78125 0.21875q-1.296875 0 -2.015625 -0.40625q-0.703125 -0.421875 -1.0 -1.078125q-0.28125 -0.671875 -0.28125 -2.796875l0 -8.0625l-1.75 0l0 -1.84375l1.75 0l0 -3.46875l2.359375 -1.421875l0 4.890625l2.390625 0l0 1.84375l-2.390625 0l0 8.1875q0 1.015625 0.125 1.3125q0.125 0.28125 0.40625 0.453125q0.28125 0.171875 0.8125 0.171875q0.390625 0 1.046875 -0.09375zm1.3278198 -4.875q0 -3.890625 2.171875 -5.765625q1.796875 -1.546875 4.40625 -1.546875q2.875 0 4.703125 1.890625q1.84375 1.890625 1.84375 5.21875q0 2.703125 -0.8125 4.265625q-0.8125 1.546875 -2.359375 2.40625q-1.546875 0.84375 -3.375 0.84375q-2.953125 0 -4.765625 -1.875q-1.8125 -1.890625 -1.8125 -5.4375zm2.4375 0q0 2.6875 1.171875 4.03125q1.1875 1.328125 2.96875 1.328125q1.765625 0 2.9375 -1.34375q1.171875 -1.34375 1.171875 -4.09375q0 -2.59375 -1.1875 -3.9375q-1.171875 -1.34375 -2.921875 -1.34375q-1.78125 0 -2.96875 1.34375q-1.171875 1.328125 -1.171875 4.015625zm13.246826 7.0l0 -14.0l2.140625 0l0 2.125q0.8125 -1.5 1.5 -1.96875q0.703125 -0.46875 1.53125 -0.46875q1.203125 0 2.4375 0.765625l-0.8125 2.203125q-0.875 -0.515625 -1.75 -0.515625q-0.765625 0 -1.390625 0.46875q-0.625 0.46875 -0.890625 1.296875q-0.390625 1.265625 -0.390625 2.765625l0 7.328125l-2.375 0zm9.5798645 0l0 -2.703125l2.703125 0l0 2.703125l-2.703125 0zm6.70282 0l0 -14.0l2.140625 0l0 2.125q0.8125 -1.5 1.5 -1.96875q0.703125 -0.46875 1.53125 -0.46875q1.203125 0 2.4375 0.765625l-0.8125 2.203125q-0.875 -0.515625 -1.75 -0.515625q-0.765625 0 -1.390625 0.46875q-0.625 0.46875 -0.890625 1.296875q-0.390625 1.265625 -0.390625 2.765625l0 7.328125l-2.375 0zm18.486115 -4.515625l2.453125 0.3125q-0.578125 2.140625 -2.15625 3.328125q-1.5625 1.1875 -4.0 1.1875q-3.0625 0 -4.875 -1.890625q-1.796875 -1.890625 -1.796875 -5.296875q0 -3.546875 1.8125 -5.484375q1.828125 -1.953125 4.734375 -1.953125q2.8125 0 4.578125 1.90625q1.78125 1.90625 1.78125 5.375q0 0.21875 -0.015625 0.640625l-10.4375 0q0.140625 2.296875 1.3125 3.53125q1.171875 1.21875 2.921875 1.21875q1.3125 0 2.234375 -0.671875q0.921875 -0.6875 1.453125 -2.203125zm-7.78125 -3.828125l7.8125 0q-0.15625 -1.765625 -0.890625 -2.65625q-1.140625 -1.359375 -2.953125 -1.359375q-1.625 0 -2.75 1.09375q-1.109375 1.09375 -1.21875 2.921875zm12.074951 4.171875l2.34375 -0.375q0.203125 1.40625 1.109375 2.15625q0.90625 0.75 2.515625 0.75q1.640625 0 2.421875 -0.65625q0.796875 -0.671875 0.796875 -1.5625q0 -0.8125 -0.6875 -1.265625q-0.5 -0.3125 -2.4375 -0.8125q-2.609375 -0.65625 -3.625 -1.125q-1.0 -0.484375 -1.53125 -1.328125q-0.515625 -0.859375 -0.515625 -1.890625q0 -0.9375 0.421875 -1.734375q0.4375 -0.796875 1.1875 -1.328125q0.546875 -0.40625 1.5 -0.6875q0.953125 -0.28125 2.046875 -0.28125q1.65625 0 2.890625 0.46875q1.25 0.46875 1.84375 1.28125q0.59375 0.8125 0.828125 2.171875l-2.328125 0.3125q-0.15625 -1.078125 -0.921875 -1.671875q-0.75 -0.609375 -2.140625 -0.609375q-1.625 0 -2.328125 0.546875q-0.703125 0.53125 -0.703125 1.25q0 0.46875 0.296875 0.828125q0.28125 0.390625 0.90625 0.640625q0.359375 0.125 2.09375 0.609375q2.515625 0.671875 3.515625 1.09375q1.0 0.421875 1.5625 1.25q0.5625 0.8125 0.5625 2.03125q0 1.1875 -0.6875 2.234375q-0.6875 1.046875 -2.0 1.625q-1.296875 0.5625 -2.953125 0.5625q-2.71875 0 -4.15625 -1.125q-1.4375 -1.140625 -1.828125 -3.359375zm13.390625 -2.828125q0 -3.890625 2.171875 -5.765625q1.796875 -1.546875 4.40625 -1.546875q2.875 0 4.703125 1.890625q1.84375 1.890625 1.84375 5.21875q0 2.703125 -0.8125 4.265625q-0.8125 1.546875 -2.359375 2.40625q-1.546875 0.84375 -3.375 0.84375q-2.953125 0 -4.765625 -1.875q-1.8125 -1.890625 -1.8125 -5.4375zm2.4375 0q0 2.6875 1.171875 4.03125q1.1875 1.328125 2.96875 1.328125q1.765625 0 2.9375 -1.34375q1.171875 -1.34375 1.171875 -4.09375q0 -2.59375 -1.1875 -3.9375q-1.171875 -1.34375 -2.921875 -1.34375q-1.78125 0 -2.96875 1.34375q-1.171875 1.328125 -1.171875 4.015625zm13.231171 7.0l0 -19.328125l2.359375 0l0 19.328125l-2.359375 0zm9.85968 0l-5.328125 -14.0l2.5 0l3.015625 8.390625q0.484375 1.34375 0.890625 2.8125q0.3125 -1.109375 0.890625 -2.65625l3.109375 -8.546875l2.4375 0l-5.296875 14.0l-2.21875 0zm19.015625 -4.515625l2.453125 0.3125q-0.578125 2.140625 -2.15625 3.328125q-1.5625 1.1875 -4.0 1.1875q-3.0625 0 -4.875 -1.890625q-1.796875 -1.890625 -1.796875 -5.296875q0 -3.546875 1.8125 -5.484375q1.828125 -1.953125 4.734375 -1.953125q2.8125 0 4.578125 1.90625q1.78125 1.90625 1.78125 5.375q0 0.21875 -0.015625 0.640625l-10.4375 0q0.140625 2.296875 1.3125 3.53125q1.171875 1.21875 2.921875 1.21875q1.3125 0 2.234375 -0.671875q0.921875 -0.6875 1.453125 -2.203125zm-7.78125 -3.828125l7.8125 0q-0.15625 -1.765625 -0.890625 -2.65625q-1.140625 -1.359375 -2.953125 -1.359375q-1.625 0 -2.75 1.09375q-1.109375 1.09375 -1.21875 2.921875zm11.199951 8.34375l7.4375 -19.328125l2.75 0l7.9062195 19.328125l-2.90625 0l-2.265625 -5.859375l-8.0780945 0l-2.125 5.859375l-2.71875 0zm5.578125 -7.9375l6.5625 0l-2.015625 -5.359375q-0.921875 -2.4375 -1.375 -4.0q-0.375 1.859375 -1.046875 3.6875l-2.125 5.671875zm14.029449 7.9375l0 -14.0l2.140625 0l0 1.984375q1.53125 -2.296875 4.453125 -2.296875q1.265625 0 2.328125 0.453125q1.0625 0.453125 1.578125 1.1875q0.53125 0.734375 0.75 1.75q0.125 0.671875 0.125 2.3125l0 8.609375l-2.375 0l0 -8.515625q0 -1.453125 -0.28125 -2.171875q-0.265625 -0.71875 -0.984375 -1.140625q-0.703125 -0.4375 -1.640625 -0.4375q-1.515625 0 -2.625 0.96875q-1.09375 0.953125 -1.09375 3.65625l0 7.640625l-2.375 0zm23.903076 0l0 -1.765625q-1.328125 2.078125 -3.90625 2.078125q-1.671875 0 -3.078125 -0.921875q-1.40625 -0.921875 -2.1875 -2.578125q-0.765625 -1.65625 -0.765625 -3.796875q0 -2.09375 0.703125 -3.796875q0.703125 -1.71875 2.09375 -2.625q1.390625 -0.90625 3.125 -0.90625q1.265625 0 2.25 0.53125q0.984375 0.53125 1.609375 1.390625l0 -6.9375l2.359375 0l0 19.328125l-2.203125 0zm-7.5 -6.984375q0 2.6875 1.125 4.015625q1.140625 1.328125 2.6875 1.328125q1.5625 0 2.640625 -1.265625q1.09375 -1.265625 1.09375 -3.890625q0 -2.859375 -1.109375 -4.203125q-1.109375 -1.359375 -2.734375 -1.359375q-1.578125 0 -2.640625 1.296875q-1.0625 1.296875 -1.0625 4.078125zm27.340576 0.203125l2.5625 0.65625q-0.8125 3.140625 -2.90625 4.796875q-2.078125 1.65625 -5.109375 1.65625q-3.125 0 -5.078125 -1.265625q-1.953125 -1.28125 -2.984375 -3.6875q-1.015625 -2.421875 -1.015625 -5.1875q0 -3.015625 1.15625 -5.265625q1.15625 -2.25 3.28125 -3.40625q2.125 -1.171875 4.6875 -1.171875q2.90625 0 4.875 1.484375q1.984375 1.46875 2.75 4.140625l-2.515625 0.59375q-0.671875 -2.109375 -1.953125 -3.0625q-1.265625 -0.96875 -3.203125 -0.96875q-2.234375 0 -3.734375 1.078125q-1.5 1.0625 -2.109375 2.859375q-0.59375 1.796875 -0.59375 3.703125q0 2.46875 0.71875 4.3125q0.71875 1.84375 2.234375 2.75q1.515625 0.90625 3.28125 0.90625q2.140625 0 3.625 -1.234375q1.5 -1.25 2.03125 -3.6875zm5.125305 6.78125l0 -14.0l2.140625 0l0 2.125q0.8125 -1.5 1.5 -1.96875q0.703125 -0.46875 1.53125 -0.46875q1.203125 0 2.4375 0.765625l-0.8125 2.203125q-0.875 -0.515625 -1.75 -0.515625q-0.765625 0 -1.390625 0.46875q-0.625 0.46875 -0.890625 1.296875q-0.390625 1.265625 -0.390625 2.765625l0 7.328125l-2.375 0zm18.486084 -4.515625l2.453125 0.3125q-0.578125 2.140625 -2.15625 3.328125q-1.5625 1.1875 -4.0 1.1875q-3.0625 0 -4.875 -1.890625q-1.796875 -1.890625 -1.796875 -5.296875q0 -3.546875 1.8125 -5.484375q1.828125 -1.953125 4.734375 -1.953125q2.8125 0 4.578125 1.90625q1.78125 1.90625 1.78125 5.375q0 0.21875 -0.015625 0.640625l-10.4375 0q0.140625 2.296875 1.3125 3.53125q1.171875 1.21875 2.921875 1.21875q1.3125 0 2.234375 -0.671875q0.921875 -0.6875 1.453125 -2.203125zm-7.78125 -3.828125l7.8125 0q-0.15625 -1.765625 -0.890625 -2.65625q-1.140625 -1.359375 -2.953125 -1.359375q-1.625 0 -2.75 1.09375q-1.109375 1.09375 -1.21875 2.921875zm22.168701 6.609375q-1.328125 1.125 -2.546875 1.59375q-1.21875 0.453125 -2.609375 0.453125q-2.3125 0 -3.5625 -1.125q-1.234375 -1.125 -1.234375 -2.875q0 -1.03125 0.46875 -1.875q0.46875 -0.859375 1.21875 -1.375q0.765625 -0.515625 1.71875 -0.78125q0.703125 -0.171875 2.109375 -0.34375q2.875 -0.34375 4.234375 -0.828125q0.015625 -0.484375 0.015625 -0.609375q0 -1.453125 -0.671875 -2.046875q-0.90625 -0.8125 -2.703125 -0.8125q-1.671875 0 -2.46875 0.59375q-0.796875 0.578125 -1.1875 2.078125l-2.3125 -0.3125q0.3125 -1.5 1.03125 -2.40625q0.734375 -0.921875 2.09375 -1.40625q1.375 -0.5 3.1875 -0.5q1.796875 0 2.90625 0.421875q1.125 0.421875 1.640625 1.0625q0.53125 0.640625 0.75 1.609375q0.125 0.609375 0.125 2.1875l0 3.171875q0 3.296875 0.140625 4.1875q0.15625 0.875 0.609375 1.671875l-2.484375 0q-0.375 -0.734375 -0.46875 -1.734375zm-0.203125 -5.296875q-1.296875 0.53125 -3.875 0.90625q-1.46875 0.203125 -2.078125 0.46875q-0.59375 0.265625 -0.9375 0.78125q-0.328125 0.5 -0.328125 1.125q0 0.9375 0.71875 1.578125q0.71875 0.625 2.109375 0.625q1.375 0 2.4375 -0.59375q1.0625 -0.609375 1.578125 -1.640625q0.375 -0.8125 0.375 -2.375l0 -0.875zm11.074951 4.90625l0.328125 2.09375q-1.0 0.21875 -1.78125 0.21875q-1.296875 0 -2.015625 -0.40625q-0.703125 -0.421875 -1.0 -1.078125q-0.28125 -0.671875 -0.28125 -2.796875l0 -8.0625l-1.75 0l0 -1.84375l1.75 0l0 -3.46875l2.359375 -1.421875l0 4.890625l2.390625 0l0 1.84375l-2.390625 0l0 8.1875q0 1.015625 0.125 1.3125q0.125 0.28125 0.40625 0.453125q0.28125 0.171875 0.8125 0.171875q0.390625 0 1.046875 -0.09375zm11.79657 -2.390625l2.453125 0.3125q-0.578125 2.140625 -2.15625 3.328125q-1.5625 1.1875 -4.0 1.1875q-3.0625 0 -4.875 -1.890625q-1.796875 -1.890625 -1.796875 -5.296875q0 -3.546875 1.8125 -5.484375q1.828125 -1.953125 4.734375 -1.953125q2.8125 0 4.578125 1.90625q1.78125 1.90625 1.78125 5.375q0 0.21875 -0.015625 0.640625l-10.4375 0q0.140625 2.296875 1.3125 3.53125q1.171875 1.21875 2.921875 1.21875q1.3125 0 2.234375 -0.671875q0.921875 -0.6875 1.453125 -2.203125zm-7.78125 -3.828125l7.8125 0q-0.15625 -1.765625 -0.890625 -2.65625q-1.140625 -1.359375 -2.953125 -1.359375q-1.625 0 -2.75 1.09375q-1.109375 1.09375 -1.21875 2.921875zm27.121826 1.5625l2.5625 0.65625q-0.8125 3.140625 -2.90625 4.796875q-2.078125 1.65625 -5.109375 1.65625q-3.125 0 -5.078125 -1.265625q-1.953125 -1.28125 -2.984375 -3.6875q-1.015625 -2.421875 -1.015625 -5.1875q0 -3.015625 1.15625 -5.265625q1.15625 -2.25 3.28125 -3.40625q2.125 -1.171875 4.6875 -1.171875q2.90625 0 4.875 1.484375q1.984375 1.46875 2.75 4.140625l-2.515625 0.59375q-0.671875 -2.109375 -1.953125 -3.0625q-1.265625 -0.96875 -3.203125 -0.96875q-2.234375 0 -3.734375 1.078125q-1.5 1.0625 -2.109375 2.859375q-0.59375 1.796875 -0.59375 3.703125q0 2.46875 0.71875 4.3125q0.71875 1.84375 2.234375 2.75q1.515625 0.90625 3.28125 0.90625q2.140625 0 3.625 -1.234375q1.5 -1.25 2.03125 -3.6875zm5.156555 6.78125l0 -19.328125l2.375 0l0 6.9375q1.65625 -1.921875 4.1875 -1.921875q1.5625 0 2.703125 0.609375q1.140625 0.609375 1.640625 1.703125q0.5 1.078125 0.5 3.125l0 8.875l-2.375 0l0 -8.875q0 -1.78125 -0.78125 -2.59375q-0.765625 -0.8125 -2.171875 -0.8125q-1.0625 0 -2.0 0.546875q-0.921875 0.546875 -1.3125 1.484375q-0.390625 0.9375 -0.390625 2.59375l0 7.65625l-2.375 0zm14.840576 -16.59375l0 -2.734375l2.375 0l0 2.734375l-2.375 0zm0 16.59375l0 -14.0l2.375 0l0 14.0l-2.375 0zm5.85968 0l0 -19.328125l2.359375 0l0 19.328125l-2.359375 0zm15.04718 0l0 -1.765625q-1.328125 2.078125 -3.90625 2.078125q-1.671875 0 -3.078125 -0.921875q-1.40625 -0.921875 -2.1875 -2.578125q-0.765625 -1.65625 -0.765625 -3.796875q0 -2.09375 0.703125 -3.796875q0.703125 -1.71875 2.09375 -2.625q1.390625 -0.90625 3.125 -0.90625q1.265625 0 2.25 0.53125q0.984375 0.53125 1.609375 1.390625l0 -6.9375l2.359375 0l0 19.328125l-2.203125 0zm-7.5 -6.984375q0 2.6875 1.125 4.015625q1.140625 1.328125 2.6875 1.328125q1.5625 0 2.640625 -1.265625q1.09375 -1.265625 1.09375 -3.890625q0 -2.859375 -1.109375 -4.203125q-1.109375 -1.359375 -2.734375 -1.359375q-1.578125 0 -2.640625 1.296875q-1.0625 1.296875 -1.0625 4.078125zm17.778076 12.671875q-1.96875 -2.484375 -3.328125 -5.796875q-1.34375 -3.328125 -1.34375 -6.890625q0 -3.140625 1.015625 -6.015625q1.1875 -3.328125 3.65625 -6.640625l1.703125 0q-1.59375 2.734375 -2.109375 3.921875q-0.796875 1.8125 -1.265625 3.796875q-0.5625 2.453125 -0.5625 4.953125q0 6.34375 3.9375 12.671875l-1.703125 0zm4.392395 -0.328125l0 -24.6875l5.234375 0l0 1.96875l-2.859375 0l0 20.765625l2.859375 0l0 1.953125l-5.234375 0zm21.45282 -12.140625l2.5625 0.65625q-0.8125 3.140625 -2.90625 4.796875q-2.078125 1.65625 -5.109375 1.65625q-3.125 0 -5.078125 -1.265625q-1.953125 -1.28125 -2.984375 -3.6875q-1.015625 -2.421875 -1.015625 -5.1875q0 -3.015625 1.15625 -5.265625q1.15625 -2.25 3.28125 -3.40625q2.125 -1.171875 4.6875 -1.171875q2.90625 0 4.875 1.484375q1.984375 1.46875 2.75 4.140625l-2.515625 0.59375q-0.671875 -2.109375 -1.953125 -3.0625q-1.265625 -0.96875 -3.203125 -0.96875q-2.234375 0 -3.734375 1.078125q-1.5 1.0625 -2.109375 2.859375q-0.59375 1.796875 -0.59375 3.703125q0 2.46875 0.71875 4.3125q0.71875 1.84375 2.234375 2.75q1.515625 0.90625 3.28125 0.90625q2.140625 0 3.625 -1.234375q1.5 -1.25 2.03125 -3.6875zm14.29718 5.046875q-1.328125 1.125 -2.546875 1.59375q-1.21875 0.453125 -2.609375 0.453125q-2.3125 0 -3.5625 -1.125q-1.234375 -1.125 -1.234375 -2.875q0 -1.03125 0.46875 -1.875q0.46875 -0.859375 1.21875 -1.375q0.765625 -0.515625 1.71875 -0.78125q0.703125 -0.171875 2.109375 -0.34375q2.875 -0.34375 4.234375 -0.828125q0.015625 -0.484375 0.015625 -0.609375q0 -1.453125 -0.671875 -2.046875q-0.90625 -0.8125 -2.703125 -0.8125q-1.671875 0 -2.46875 0.59375q-0.796875 0.578125 -1.1875 2.078125l-2.3125 -0.3125q0.3125 -1.5 1.03125 -2.40625q0.734375 -0.921875 2.09375 -1.40625q1.375 -0.5 3.1875 -0.5q1.796875 0 2.90625 0.421875q1.125 0.421875 1.640625 1.0625q0.53125 0.640625 0.75 1.609375q0.125 0.609375 0.125 2.1875l0 3.171875q0 3.296875 0.140625 4.1875q0.15625 0.875 0.609375 1.671875l-2.484375 0q-0.375 -0.734375 -0.46875 -1.734375zm-0.203125 -5.296875q-1.296875 0.53125 -3.875 0.90625q-1.46875 0.203125 -2.078125 0.46875q-0.59375 0.265625 -0.9375 0.78125q-0.328125 0.5 -0.328125 1.125q0 0.9375 0.71875 1.578125q0.71875 0.625 2.109375 0.625q1.375 0 2.4375 -0.59375q1.0625 -0.609375 1.578125 -1.640625q0.375 -0.8125 0.375 -2.375l0 -0.875zm5.856201 7.03125l0 -14.0l2.140625 0l0 2.125q0.8125 -1.5 1.5 -1.96875q0.703125 -0.46875 1.53125 -0.46875q1.203125 0 2.4375 0.765625l-0.8125 2.203125q-0.875 -0.515625 -1.75 -0.515625q-0.765625 0 -1.390625 0.46875q-0.625 0.46875 -0.890625 1.296875q-0.390625 1.265625 -0.390625 2.765625l0 7.328125l-2.375 0zm9.53302 0l0 -2.703125l2.703125 0l0 2.703125q0 1.484375 -0.53125 2.40625q-0.53125 0.921875 -1.671875 1.421875l-0.671875 -1.015625q0.765625 -0.328125 1.109375 -0.96875q0.359375 -0.640625 0.40625 -1.84375l-1.34375 0zm14.546265 0l0 -19.328125l13.96875 0l0 2.28125l-11.421875 0l0 5.921875l10.703125 0l0 2.265625l-10.703125 0l0 6.578125l11.875 0l0 2.28125l-14.421875 0zm17.420166 0l0 -14.0l2.140625 0l0 1.984375q1.53125 -2.296875 4.453125 -2.296875q1.265625 0 2.328125 0.453125q1.0625 0.453125 1.578125 1.1875q0.53125 0.734375 0.75 1.75q0.125 0.671875 0.125 2.3125l0 8.609375l-2.375 0l0 -8.515625q0 -1.453125 -0.28125 -2.171875q-0.265625 -0.71875 -0.984375 -1.140625q-0.703125 -0.4375 -1.640625 -0.4375q-1.515625 0 -2.625 0.96875q-1.09375 0.953125 -1.09375 3.65625l0 7.640625l-2.375 0zm14.38739 1.15625l2.3125 0.34375q0.140625 1.078125 0.796875 1.5625q0.890625 0.65625 2.421875 0.65625q1.640625 0 2.53125 -0.65625q0.90625 -0.65625 1.21875 -1.84375q0.1875 -0.734375 0.171875 -3.046875q-1.5625 1.828125 -3.875 1.828125q-2.890625 0 -4.46875 -2.078125q-1.578125 -2.09375 -1.578125 -5.0q0 -2.0 0.71875 -3.6875q0.734375 -1.703125 2.109375 -2.625q1.375 -0.921875 3.234375 -0.921875q2.46875 0 4.078125 2.0l0 -1.6875l2.1875 0l0 12.09375q0 3.28125 -0.671875 4.640625q-0.65625 1.359375 -2.109375 2.15625q-1.4375 0.796875 -3.546875 0.796875q-2.5 0 -4.046875 -1.140625q-1.53125 -1.125 -1.484375 -3.390625zm1.96875 -8.40625q0 2.75 1.09375 4.015625q1.09375 1.265625 2.734375 1.265625q1.640625 0 2.75 -1.25q1.109375 -1.265625 1.109375 -3.953125q0 -2.578125 -1.140625 -3.875q-1.140625 -1.3125 -2.75 -1.3125q-1.578125 0 -2.6875 1.296875q-1.109375 1.28125 -1.109375 3.8125zm13.309326 -9.34375l0 -2.734375l2.375 0l0 2.734375l-2.375 0zm0 16.59375l0 -14.0l2.375 0l0 14.0l-2.375 0zm5.906555 0l0 -14.0l2.140625 0l0 1.984375q1.53125 -2.296875 4.453125 -2.296875q1.265625 0 2.328125 0.453125q1.0625 0.453125 1.578125 1.1875q0.53125 0.734375 0.75 1.75q0.125 0.671875 0.125 2.3125l0 8.609375l-2.375 0l0 -8.515625q0 -1.453125 -0.28125 -2.171875q-0.265625 -0.71875 -0.984375 -1.140625q-0.703125 -0.4375 -1.640625 -0.4375q-1.515625 0 -2.625 0.96875q-1.09375 0.953125 -1.09375 3.65625l0 7.640625l-2.375 0zm24.403076 -4.515625l2.453125 0.3125q-0.578125 2.140625 -2.15625 3.328125q-1.5625 1.1875 -4.0 1.1875q-3.0625 0 -4.875 -1.890625q-1.796875 -1.890625 -1.796875 -5.296875q0 -3.546875 1.8125 -5.484375q1.828125 -1.953125 4.734375 -1.953125q2.8125 0 4.578125 1.90625q1.78125 1.90625 1.78125 5.375q0 0.21875 -0.015625 0.640625l-10.4375 0q0.140625 2.296875 1.3125 3.53125q1.171875 1.21875 2.921875 1.21875q1.3125 0 2.234375 -0.671875q0.921875 -0.6875 1.453125 -2.203125zm-7.78125 -3.828125l7.8125 0q-0.15625 -1.765625 -0.890625 -2.65625q-1.140625 -1.359375 -2.953125 -1.359375q-1.625 0 -2.75 1.09375q-1.109375 1.09375 -1.21875 2.921875zm16.996826 13.703125l-5.234375 0l0 -1.953125l2.859375 0l0 -20.765625l-2.859375 0l0 -1.96875l5.234375 0l0 24.6875zm4.98407 0.328125l-1.6875 0q3.9375 -6.328125 3.9375 -12.671875q0 -2.484375 -0.5625 -4.921875q-0.453125 -1.96875 -1.265625 -3.796875q-0.5 -1.1875 -2.109375 -3.953125l1.6875 0q2.484375 3.3125 3.671875 6.640625q1.015625 2.875 1.015625 6.015625q0 3.5625 -1.375 6.890625q-1.359375 3.3125 -3.3125 5.796875zm7.954834 -16.984375l0 -2.703125l2.703125 0l0 2.703125l-2.703125 0zm0 11.296875l0 -2.703125l2.703125 0l0 2.703125q0 1.484375 -0.53125 2.40625q-0.53125 0.921875 -1.671875 1.421875l-0.671875 -1.015625q0.765625 -0.328125 1.109375 -0.96875q0.359375 -0.640625 0.40625 -1.84375l-1.34375 0z" fill-rule="nonzero"></path><path fill="#d0e0e3" d="m19.32021 242.68538l0 0c0 -9.581818 7.767605 -17.349426 17.34943 -17.349426l187.41138 0c4.601349 0 9.014236 1.8278809 12.267899 5.0815277c3.2536469 3.253662 5.0815277 7.6665497 5.0815277 12.267899l0 69.395645c0 9.581818 -7.7676086 17.349426 -17.349426 17.349426l-187.41138 0c-9.581825 0 -17.34943 -7.7676086 -17.34943 -17.349426z" fill-rule="nonzero"></path><path stroke="#000000" stroke-width="2.0" stroke-linejoin="round" stroke-linecap="butt" d="m19.32021 242.68538l0 0c0 -9.581818 7.767605 -17.349426 17.34943 -17.349426l187.41138 0c4.601349 0 9.014236 1.8278809 12.267899 5.0815277c3.2536469 3.253662 5.0815277 7.6665497 5.0815277 12.267899l0 69.395645c0 9.581818 -7.7676086 17.349426 -17.349426 17.349426l-187.41138 0c-9.581825 0 -17.34943 -7.7676086 -17.34943 -17.349426z" fill-rule="nonzero"></path><path fill="#000000" fill-opacity="0.0" d="m19.32021 241.33595l222.11024 0l0 72.0945l-222.11024 0z" fill-rule="nonzero"></path><path fill="#000000" d="m74.45345 279.89194l2.28125 0.578125q-0.71875 2.796875 -2.578125 4.28125q-1.859375 1.46875 -4.546875 1.46875q-2.765625 0 -4.515625 -1.125q-1.7343788 -1.140625 -2.6406288 -3.28125q-0.90625 -2.15625 -0.90625 -4.609375q0 -2.6875 1.015625 -4.6875q1.03125 -2.0 2.9218788 -3.03125q1.890625 -1.03125 4.171875 -1.03125q2.578125 0 4.328125 1.3125q1.765625 1.3125 2.453125 3.6875l-2.234375 0.53125q-0.609375 -1.875 -1.75 -2.734375q-1.125 -0.859375 -2.84375 -0.859375q-1.984375 0 -3.3125 0.953125q-1.328125 0.953125 -1.875 2.546875q-0.5312538 1.59375 -0.5312538 3.296875q0 2.1875 0.6250038 3.828125q0.640625 1.640625 1.984375 2.453125q1.359375 0.796875 2.921875 0.796875q1.921875 0 3.234375 -1.09375q1.328125 -1.109375 1.796875 -3.28125zm4.8007812 6.03125l0 -17.1875l2.109375 0l0 6.171875q1.484375 -1.71875 3.734375 -1.71875q1.375 0 2.390625 0.546875q1.03125 0.546875 1.46875 1.515625q0.4375 0.953125 0.4375 2.78125l0 7.890625l-2.109375 0l0 -7.890625q0 -1.578125 -0.6875 -2.296875q-0.6875 -0.71875 -1.9375 -0.71875q-0.9375 0 -1.765625 0.484375q-0.828125 0.484375 -1.1875 1.3125q-0.34375 0.828125 -0.34375 2.296875l0 6.8125l-2.109375 0zm13.363281 -14.75l0 -2.4375l2.109375 0l0 2.4375l-2.109375 0zm0 14.75l0 -12.453125l2.109375 0l0 12.453125l-2.109375 0zm5.2695312 0l0 -17.1875l2.109375 0l0 17.1875l-2.109375 0zm13.457031 0l0 -1.578125q-1.1875 1.859375 -3.484375 1.859375q-1.484375 0 -2.734375 -0.8125q-1.25 -0.828125 -1.9375 -2.296875q-0.671875 -1.46875 -0.671875 -3.390625q0 -1.859375 0.609375 -3.375q0.625 -1.515625 1.859375 -2.328125q1.25 -0.8125 2.78125 -0.8125q1.125 0 2.0 0.484375q0.890625 0.46875 1.4375 1.234375l0 -6.171875l2.09375 0l0 17.1875l-1.953125 0zm-6.671875 -6.21875q0 2.390625 1.0 3.578125q1.015625 1.1875 2.390625 1.1875q1.390625 0 2.34375 -1.125q0.96875 -1.140625 0.96875 -3.453125q0 -2.5625 -0.984375 -3.75q-0.984375 -1.203125 -2.421875 -1.203125q-1.40625 0 -2.359375 1.15625q-0.9375 1.140625 -0.9375 3.609375zm19.265625 6.21875l0 -17.1875l2.28125 0l0 17.1875l-2.28125 0zm6.011711 0l0 -12.453125l1.90625 0l0 1.78125q1.375 -2.0625 3.953125 -2.0625q1.125 0 2.0625 0.40625q0.953125 0.40625 1.421875 1.0625q0.46875 0.65625 0.65625 1.5625q0.125 0.578125 0.125 2.046875l0 7.65625l-2.109375 0l0 -7.578125q0 -1.28125 -0.25 -1.921875q-0.25 -0.640625 -0.875 -1.015625q-0.625 -0.390625 -1.46875 -0.390625q-1.34375 0 -2.328125 0.859375q-0.984375 0.859375 -0.984375 3.25l0 6.796875l-2.109375 0zm13.347656 -14.734375l0 -2.453125l2.109375 0l0 2.453125l-2.109375 0zm-2.6875 19.5625l0.40625 -1.796875q0.625 0.171875 1.0 0.171875q0.640625 0 0.953125 -0.4375q0.328125 -0.421875 0.328125 -2.125l0 -13.09375l2.109375 0l0 13.140625q0 2.296875 -0.609375 3.1875q-0.75 1.171875 -2.53125 1.171875q-0.859375 0 -1.65625 -0.21875zm16.550781 -8.84375l2.171875 0.28125q-0.515625 1.90625 -1.90625 2.96875q-1.390625 1.046875 -3.5625 1.046875q-2.734375 0 -4.34375 -1.671875q-1.59375 -1.6875 -1.59375 -4.734375q0 -3.140625 1.609375 -4.875q1.625 -1.734375 4.203125 -1.734375q2.5 0 4.078125 1.703125q1.59375 1.703125 1.59375 4.78125q0 0.1875 -0.015625 0.5625l-9.28125 0q0.109375 2.046875 1.15625 3.140625q1.046875 1.09375 2.609375 1.09375q1.15625 0 1.96875 -0.609375q0.828125 -0.609375 1.3125 -1.953125zm-6.9375 -3.40625l6.953125 0q-0.140625 -1.5625 -0.796875 -2.359375q-1.0 -1.21875 -2.609375 -1.21875q-1.453125 0 -2.453125 0.984375q-0.984375 0.96875 -1.09375 2.59375zm19.878906 2.859375l2.078125 0.265625q-0.34375 2.15625 -1.75 3.375q-1.390625 1.203125 -3.4375 1.203125q-2.546875 0 -4.109375 -1.671875q-1.546875 -1.671875 -1.546875 -4.78125q0 -2.015625 0.671875 -3.53125q0.671875 -1.515625 2.03125 -2.265625q1.359375 -0.765625 2.96875 -0.765625q2.03125 0 3.3125 1.03125q1.296875 1.03125 1.65625 2.90625l-2.046875 0.328125q-0.296875 -1.265625 -1.046875 -1.890625q-0.734375 -0.640625 -1.796875 -0.640625q-1.59375 0 -2.59375 1.15625q-0.984375 1.140625 -0.984375 3.609375q0 2.5 0.953125 3.640625q0.96875 1.140625 2.515625 1.140625q1.234375 0 2.0625 -0.765625q0.84375 -0.765625 1.0625 -2.34375zm8.484375 2.671875l0.3125 1.859375q-0.890625 0.203125 -1.59375 0.203125q-1.15625 0 -1.796875 -0.359375q-0.625 -0.375 -0.890625 -0.96875q-0.25 -0.59375 -0.25 -2.484375l0 -7.171875l-1.546875 0l0 -1.640625l1.546875 0l0 -3.078125l2.09375 -1.265625l0 4.34375l2.125 0l0 1.640625l-2.125 0l0 7.28125q0 0.90625 0.109375 1.171875q0.125 0.25 0.375 0.40625q0.25 0.140625 0.71875 0.140625q0.34375 0 0.921875 -0.078125zm1.2773438 -4.328125q0 -3.46875 1.921875 -5.125q1.609375 -1.390625 3.921875 -1.390625q2.5625 0 4.1875 1.6875q1.625 1.6875 1.625 4.640625q0 2.40625 -0.71875 3.78125q-0.71875 1.375 -2.09375 2.140625q-1.375 0.765625 -3.0 0.765625q-2.625 0 -4.234375 -1.671875q-1.609375 -1.6875 -1.609375 -4.828125zm2.171875 0q0 2.390625 1.03125 3.578125q1.046875 1.1875 2.640625 1.1875q1.5625 0 2.609375 -1.1875q1.046875 -1.203125 1.046875 -3.65625q0 -2.3125 -1.0625 -3.5q-1.046875 -1.1875 -2.59375 -1.1875q-1.59375 0 -2.640625 1.1875q-1.03125 1.1875 -1.03125 3.578125zm11.941406 6.21875l0 -12.453125l1.890625 0l0 1.890625q0.734375 -1.328125 1.34375 -1.75q0.625 -0.421875 1.359375 -0.421875q1.0625 0 2.171875 0.6875l-0.734375 1.953125q-0.765625 -0.453125 -1.546875 -0.453125q-0.6875 0 -1.25 0.421875q-0.546875 0.40625 -0.78125 1.140625q-0.34375 1.125 -0.34375 2.46875l0 6.515625l-2.109375 0z" fill-rule="nonzero"></path><path fill="#000000" fill-opacity="0.0" d="m130.37534 225.33595l0 -88.94487" fill-rule="nonzero"></path><path stroke="#000000" stroke-width="4.0" stroke-linejoin="round" stroke-linecap="butt" d="m130.37534 225.33595l0 -64.94487" fill-rule="evenodd"></path><path fill="#000000" stroke="#000000" stroke-width="4.0" stroke-linecap="butt" d="m136.98225 160.39108l-6.6069183 -18.152405l-6.6069336 18.152405z" fill-rule="evenodd"></path><path fill="#000000" fill-opacity="0.0" d="m241.43045 434.37534l704.9448 0l0 72.09448l-704.9448 0z" fill-rule="nonzero"></path><path fill="#000000" d="m370.4911 480.02258l0 -19.328125l2.5625 0l0 19.328125l-2.5625 0zm6.67157 0l0 -14.0l2.140625 0l0 1.984375q1.53125 -2.296875 4.453125 -2.296875q1.265625 0 2.328125 0.453125q1.0625 0.453125 1.578125 1.1875q0.53125 0.734375 0.75 1.75q0.125 0.671875 0.125 2.3125l0 8.609375l-2.375 0l0 -8.515625q0 -1.453125 -0.28125 -2.171875q-0.265625 -0.71875 -0.984375 -1.140625q-0.703125 -0.4375 -1.640625 -0.4375q-1.515625 0 -2.625 0.96875q-1.09375 0.953125 -1.09375 3.65625l0 7.640625l-2.375 0zm14.809326 -16.578125l0 -2.75l2.375 0l0 2.75l-2.375 0zm-3.0 22.015625l0.4375 -2.015625q0.71875 0.171875 1.125 0.171875q0.734375 0 1.078125 -0.484375q0.359375 -0.46875 0.359375 -2.390625l0 -14.71875l2.375 0l0 14.765625q0 2.578125 -0.671875 3.59375q-0.859375 1.328125 -2.84375 1.328125q-0.96875 0 -1.859375 -0.25zm18.5159 -9.953125l2.453125 0.3125q-0.578125 2.140625 -2.15625 3.328125q-1.5625 1.1875 -4.0 1.1875q-3.0625 0 -4.875 -1.890625q-1.796875 -1.890625 -1.796875 -5.296875q0 -3.546875 1.8125 -5.484375q1.828125 -1.953125 4.734375 -1.953125q2.8125 0 4.578125 1.90625q1.78125 1.90625 1.78125 5.375q0 0.21875 -0.015625 0.640625l-10.4375 0q0.140625 2.296875 1.3125 3.53125q1.171875 1.21875 2.921875 1.21875q1.3125 0 2.234375 -0.671875q0.921875 -0.6875 1.453125 -2.203125zm-7.78125 -3.828125l7.8125 0q-0.15625 -1.765625 -0.890625 -2.65625q-1.140625 -1.359375 -2.953125 -1.359375q-1.625 0 -2.75 1.09375q-1.109375 1.09375 -1.21875 2.921875zm22.168701 3.21875l2.328125 0.296875q-0.375 2.421875 -1.953125 3.78125q-1.578125 1.359375 -3.875 1.359375q-2.875 0 -4.625 -1.875q-1.734375 -1.875 -1.734375 -5.390625q0 -2.265625 0.75 -3.953125q0.75 -1.703125 2.28125 -2.546875q1.53125 -0.859375 3.34375 -0.859375q2.28125 0 3.71875 1.15625q1.453125 1.140625 1.875 3.265625l-2.3125 0.359375q-0.328125 -1.40625 -1.171875 -2.109375q-0.828125 -0.71875 -2.015625 -0.71875q-1.796875 0 -2.921875 1.28125q-1.109375 1.28125 -1.109375 4.0625q0 2.828125 1.078125 4.109375q1.078125 1.265625 2.8125 1.265625q1.40625 0 2.34375 -0.84375q0.9375 -0.859375 1.1875 -2.640625zm9.375 3.0l0.328125 2.09375q-1.0 0.21875 -1.78125 0.21875q-1.296875 0 -2.015625 -0.40625q-0.703125 -0.421875 -1.0 -1.078125q-0.28125 -0.671875 -0.28125 -2.796875l0 -8.0625l-1.75 0l0 -1.84375l1.75 0l0 -3.46875l2.359375 -1.421875l0 4.890625l2.390625 0l0 1.84375l-2.390625 0l0 8.1875q0 1.015625 0.125 1.3125q0.125 0.28125 0.40625 0.453125q0.28125 0.171875 0.8125 0.171875q0.390625 0 1.046875 -0.09375zm1.3278198 -4.875q0 -3.890625 2.171875 -5.765625q1.796875 -1.546875 4.40625 -1.546875q2.875 0 4.703125 1.890625q1.84375 1.890625 1.84375 5.21875q0 2.703125 -0.8125 4.265625q-0.8125 1.546875 -2.359375 2.40625q-1.546875 0.84375 -3.375 0.84375q-2.953125 0 -4.765625 -1.875q-1.8125 -1.890625 -1.8125 -5.4375zm2.4375 0q0 2.6875 1.171875 4.03125q1.1875 1.328125 2.96875 1.328125q1.765625 0 2.9375 -1.34375q1.171875 -1.34375 1.171875 -4.09375q0 -2.59375 -1.1875 -3.9375q-1.171875 -1.34375 -2.921875 -1.34375q-1.78125 0 -2.96875 1.34375q-1.171875 1.328125 -1.171875 4.015625zm13.246826 7.0l0 -14.0l2.140625 0l0 2.125q0.8125 -1.5 1.5 -1.96875q0.703125 -0.46875 1.53125 -0.46875q1.203125 0 2.4375 0.765625l-0.8125 2.203125q-0.875 -0.515625 -1.75 -0.515625q-0.765625 0 -1.390625 0.46875q-0.625 0.46875 -0.890625 1.296875q-0.390625 1.265625 -0.390625 2.765625l0 7.328125l-2.375 0zm9.5798645 0l0 -2.703125l2.703125 0l0 2.703125l-2.703125 0zm6.70282 0l0 -14.0l2.140625 0l0 2.125q0.8125 -1.5 1.5 -1.96875q0.703125 -0.46875 1.53125 -0.46875q1.203125 0 2.4375 0.765625l-0.8125 2.203125q-0.875 -0.515625 -1.75 -0.515625q-0.765625 0 -1.390625 0.46875q-0.625 0.46875 -0.890625 1.296875q-0.390625 1.265625 -0.390625 2.765625l0 7.328125l-2.375 0zm18.486115 -4.515625l2.453125 0.3125q-0.578125 2.140625 -2.15625 3.328125q-1.5625 1.1875 -4.0 1.1875q-3.0625 0 -4.875 -1.890625q-1.796875 -1.890625 -1.796875 -5.296875q0 -3.546875 1.8125 -5.484375q1.828125 -1.953125 4.734375 -1.953125q2.8125 0 4.578125 1.90625q1.78125 1.90625 1.78125 5.375q0 0.21875 -0.015625 0.640625l-10.4375 0q0.140625 2.296875 1.3125 3.53125q1.171875 1.21875 2.921875 1.21875q1.3125 0 2.234375 -0.671875q0.921875 -0.6875 1.453125 -2.203125zm-7.78125 -3.828125l7.8125 0q-0.15625 -1.765625 -0.890625 -2.65625q-1.140625 -1.359375 -2.953125 -1.359375q-1.625 0 -2.75 1.09375q-1.109375 1.09375 -1.21875 2.921875zm12.074951 4.171875l2.34375 -0.375q0.203125 1.40625 1.109375 2.15625q0.90625 0.75 2.515625 0.75q1.640625 0 2.421875 -0.65625q0.796875 -0.671875 0.796875 -1.5625q0 -0.8125 -0.6875 -1.265625q-0.5 -0.3125 -2.4375 -0.8125q-2.609375 -0.65625 -3.625 -1.125q-1.0 -0.484375 -1.53125 -1.328125q-0.515625 -0.859375 -0.515625 -1.890625q0 -0.9375 0.421875 -1.734375q0.4375 -0.796875 1.1875 -1.328125q0.546875 -0.40625 1.5 -0.6875q0.953125 -0.28125 2.046875 -0.28125q1.65625 0 2.890625 0.46875q1.25 0.46875 1.84375 1.28125q0.59375 0.8125 0.828125 2.171875l-2.328125 0.3125q-0.15625 -1.078125 -0.921875 -1.671875q-0.75 -0.609375 -2.140625 -0.609375q-1.625 0 -2.328125 0.546875q-0.703125 0.53125 -0.703125 1.25q0 0.46875 0.296875 0.828125q0.28125 0.390625 0.90625 0.640625q0.359375 0.125 2.09375 0.609375q2.515625 0.671875 3.515625 1.09375q1.0 0.421875 1.5625 1.25q0.5625 0.8125 0.5625 2.03125q0 1.1875 -0.6875 2.234375q-0.6875 1.046875 -2.0 1.625q-1.296875 0.5625 -2.953125 0.5625q-2.71875 0 -4.15625 -1.125q-1.4375 -1.140625 -1.828125 -3.359375zm13.390625 -2.828125q0 -3.890625 2.171875 -5.765625q1.796875 -1.546875 4.40625 -1.546875q2.875 0 4.703125 1.890625q1.8437195 1.890625 1.8437195 5.21875q0 2.703125 -0.8125 4.265625q-0.8125 1.546875 -2.3593445 2.40625q-1.546875 0.84375 -3.375 0.84375q-2.953125 0 -4.765625 -1.875q-1.8125 -1.890625 -1.8125 -5.4375zm2.4375 0q0 2.6875 1.171875 4.03125q1.1875 1.328125 2.96875 1.328125q1.765625 0 2.9375 -1.34375q1.171875 -1.34375 1.171875 -4.09375q0 -2.59375 -1.1875 -3.9375q-1.171875 -1.34375 -2.921875 -1.34375q-1.78125 0 -2.96875 1.34375q-1.171875 1.328125 -1.171875 4.015625zm13.231171 7.0l0 -19.328125l2.359375 0l0 19.328125l-2.359375 0zm9.85968 0l-5.328125 -14.0l2.5 0l3.015625 8.390625q0.484375 1.34375 0.890625 2.8125q0.3125 -1.109375 0.890625 -2.65625l3.109375 -8.546875l2.4375 0l-5.296875 14.0l-2.21875 0zm19.015625 -4.515625l2.453125 0.3125q-0.578125 2.140625 -2.15625 3.328125q-1.5625 1.1875 -4.0 1.1875q-3.0625 0 -4.875 -1.890625q-1.796875 -1.890625 -1.796875 -5.296875q0 -3.546875 1.8125 -5.484375q1.828125 -1.953125 4.734375 -1.953125q2.8125 0 4.578125 1.90625q1.78125 1.90625 1.78125 5.375q0 0.21875 -0.015625 0.640625l-10.4375 0q0.140625 2.296875 1.3125 3.53125q1.171875 1.21875 2.921875 1.21875q1.3125 0 2.234375 -0.671875q0.921875 -0.6875 1.453125 -2.203125zm-7.78125 -3.828125l7.8125 0q-0.15625 -1.765625 -0.890625 -2.65625q-1.140625 -1.359375 -2.953125 -1.359375q-1.625 0 -2.75 1.09375q-1.109375 1.09375 -1.21875 2.921875zm11.19989 8.34375l7.4375 -19.328125l2.75 0l7.90625 19.328125l-2.90625 0l-2.265625 -5.859375l-8.078125 0l-2.125 5.859375l-2.71875 0zm5.578125 -7.9375l6.5625 0l-2.015625 -5.359375q-0.921875 -2.4375 -1.375 -4.0q-0.375 1.859375 -1.046875 3.6875l-2.125 5.671875zm14.029541 7.9375l0 -14.0l2.140625 0l0 1.984375q1.53125 -2.296875 4.453125 -2.296875q1.265625 0 2.328125 0.453125q1.0625 0.453125 1.578125 1.1875q0.53125 0.734375 0.75 1.75q0.125 0.671875 0.125 2.3125l0 8.609375l-2.375 0l0 -8.515625q0 -1.453125 -0.28125 -2.171875q-0.265625 -0.71875 -0.984375 -1.140625q-0.703125 -0.4375 -1.640625 -0.4375q-1.515625 0 -2.625 0.96875q-1.09375 0.953125 -1.09375 3.65625l0 7.640625l-2.375 0zm23.903076 0l0 -1.765625q-1.328125 2.078125 -3.90625 2.078125q-1.671875 0 -3.078125 -0.921875q-1.40625 -0.921875 -2.1875 -2.578125q-0.765625 -1.65625 -0.765625 -3.796875q0 -2.09375 0.703125 -3.796875q0.703125 -1.71875 2.09375 -2.625q1.390625 -0.90625 3.125 -0.90625q1.265625 0 2.25 0.53125q0.984375 0.53125 1.609375 1.390625l0 -6.9375l2.359375 0l0 19.328125l-2.203125 0zm-7.5 -6.984375q0 2.6875 1.125 4.015625q1.140625 1.328125 2.6875 1.328125q1.5625 0 2.640625 -1.265625q1.09375 -1.265625 1.09375 -3.890625q0 -2.859375 -1.109375 -4.203125q-1.109375 -1.359375 -2.734375 -1.359375q-1.578125 0 -2.640625 1.296875q-1.0625 1.296875 -1.0625 4.078125zm27.340515 0.203125l2.5625 0.65625q-0.8125 3.140625 -2.90625 4.796875q-2.078125 1.65625 -5.109375 1.65625q-3.125 0 -5.078125 -1.265625q-1.953125 -1.28125 -2.984375 -3.6875q-1.015625 -2.421875 -1.015625 -5.1875q0 -3.015625 1.15625 -5.265625q1.15625 -2.25 3.28125 -3.40625q2.125 -1.171875 4.6875 -1.171875q2.90625 0 4.875 1.484375q1.984375 1.46875 2.75 4.140625l-2.515625 0.59375q-0.671875 -2.109375 -1.953125 -3.0625q-1.265625 -0.96875 -3.203125 -0.96875q-2.234375 0 -3.734375 1.078125q-1.5 1.0625 -2.109375 2.859375q-0.59375 1.796875 -0.59375 3.703125q0 2.46875 0.71875 4.3125q0.71875 1.84375 2.234375 2.75q1.515625 0.90625 3.28125 0.90625q2.140625 0 3.625 -1.234375q1.5 -1.25 2.03125 -3.6875zm5.125305 6.78125l0 -14.0l2.140625 0l0 2.125q0.8125 -1.5 1.5 -1.96875q0.703125 -0.46875 1.53125 -0.46875q1.203125 0 2.4375 0.765625l-0.8125 2.203125q-0.875 -0.515625 -1.75 -0.515625q-0.765625 0 -1.390625 0.46875q-0.625 0.46875 -0.890625 1.296875q-0.390625 1.265625 -0.390625 2.765625l0 7.328125l-2.375 0zm18.486145 -4.515625l2.453125 0.3125q-0.578125 2.140625 -2.15625 3.328125q-1.5625 1.1875 -4.0 1.1875q-3.0625 0 -4.875 -1.890625q-1.796875 -1.890625 -1.796875 -5.296875q0 -3.546875 1.8125 -5.484375q1.828125 -1.953125 4.734375 -1.953125q2.8125 0 4.578125 1.90625q1.78125 1.90625 1.78125 5.375q0 0.21875 -0.015625 0.640625l-10.4375 0q0.140625 2.296875 1.3125 3.53125q1.171875 1.21875 2.921875 1.21875q1.3125 0 2.234375 -0.671875q0.921875 -0.6875 1.453125 -2.203125zm-7.78125 -3.828125l7.8125 0q-0.15625 -1.765625 -0.890625 -2.65625q-1.140625 -1.359375 -2.953125 -1.359375q-1.625 0 -2.75 1.09375q-1.109375 1.09375 -1.21875 2.921875zm22.168701 6.609375q-1.328125 1.125 -2.546875 1.59375q-1.21875 0.453125 -2.609375 0.453125q-2.3125 0 -3.5625 -1.125q-1.234375 -1.125 -1.234375 -2.875q0 -1.03125 0.46875 -1.875q0.46875 -0.859375 1.21875 -1.375q0.765625 -0.515625 1.71875 -0.78125q0.703125 -0.171875 2.109375 -0.34375q2.875 -0.34375 4.234375 -0.828125q0.015625 -0.484375 0.015625 -0.609375q0 -1.453125 -0.671875 -2.046875q-0.90625 -0.8125 -2.703125 -0.8125q-1.671875 0 -2.46875 0.59375q-0.796875 0.578125 -1.1875 2.078125l-2.3125 -0.3125q0.3125 -1.5 1.03125 -2.40625q0.734375 -0.921875 2.09375 -1.40625q1.375 -0.5 3.1875 -0.5q1.796875 0 2.90625 0.421875q1.125 0.421875 1.640625 1.0625q0.53125 0.640625 0.75 1.609375q0.125 0.609375 0.125 2.1875l0 3.171875q0 3.296875 0.140625 4.1875q0.15625 0.875 0.609375 1.671875l-2.484375 0q-0.375 -0.734375 -0.46875 -1.734375zm-0.203125 -5.296875q-1.296875 0.53125 -3.875 0.90625q-1.46875 0.203125 -2.078125 0.46875q-0.59375 0.265625 -0.9375 0.78125q-0.328125 0.5 -0.328125 1.125q0 0.9375 0.71875 1.578125q0.71875 0.625 2.109375 0.625q1.375 0 2.4375 -0.59375q1.0625 -0.609375 1.578125 -1.640625q0.375 -0.8125 0.375 -2.375l0 -0.875zm11.074951 4.90625l0.328125 2.09375q-1.0 0.21875 -1.78125 0.21875q-1.296875 0 -2.015625 -0.40625q-0.703125 -0.421875 -1.0 -1.078125q-0.28125 -0.671875 -0.28125 -2.796875l0 -8.0625l-1.75 0l0 -1.84375l1.75 0l0 -3.46875l2.359375 -1.421875l0 4.890625l2.390625 0l0 1.84375l-2.390625 0l0 8.1875q0 1.015625 0.125 1.3125q0.125 0.28125 0.40625 0.453125q0.28125 0.171875 0.8125 0.171875q0.390625 0 1.046875 -0.09375zm11.79657 -2.390625l2.453125 0.3125q-0.578125 2.140625 -2.15625 3.328125q-1.5625 1.1875 -4.0 1.1875q-3.0625 0 -4.875 -1.890625q-1.796875 -1.890625 -1.796875 -5.296875q0 -3.546875 1.8125 -5.484375q1.828125 -1.953125 4.734375 -1.953125q2.8125 0 4.578125 1.90625q1.78125 1.90625 1.78125 5.375q0 0.21875 -0.015625 0.640625l-10.4375 0q0.140625 2.296875 1.3125 3.53125q1.171875 1.21875 2.921875 1.21875q1.3125 0 2.234375 -0.671875q0.921875 -0.6875 1.453125 -2.203125zm-7.78125 -3.828125l7.8125 0q-0.15625 -1.765625 -0.890625 -2.65625q-1.140625 -1.359375 -2.953125 -1.359375q-1.625 0 -2.75 1.09375q-1.109375 1.09375 -1.21875 2.921875zm27.121826 1.5625l2.5625 0.65625q-0.8125 3.140625 -2.90625 4.796875q-2.078125 1.65625 -5.109375 1.65625q-3.125 0 -5.078125 -1.265625q-1.953125 -1.28125 -2.984375 -3.6875q-1.015625 -2.421875 -1.015625 -5.1875q0 -3.015625 1.15625 -5.265625q1.15625 -2.25 3.28125 -3.40625q2.125 -1.171875 4.6875 -1.171875q2.90625 0 4.875 1.484375q1.984375 1.46875 2.75 4.140625l-2.515625 0.59375q-0.671875 -2.109375 -1.953125 -3.0625q-1.265625 -0.96875 -3.203125 -0.96875q-2.234375 0 -3.734375 1.078125q-1.5 1.0625 -2.109375 2.859375q-0.59375 1.796875 -0.59375 3.703125q0 2.46875 0.71875 4.3125q0.71875 1.84375 2.234375 2.75q1.515625 0.90625 3.28125 0.90625q2.140625 0 3.625 -1.234375q1.5 -1.25 2.03125 -3.6875zm5.156555 6.78125l0 -19.328125l2.375 0l0 6.9375q1.65625 -1.921875 4.1875 -1.921875q1.5625 0 2.703125 0.609375q1.140625 0.609375 1.640625 1.703125q0.5 1.078125 0.5 3.125l0 8.875l-2.375 0l0 -8.875q0 -1.78125 -0.78125 -2.59375q-0.765625 -0.8125 -2.171875 -0.8125q-1.0625 0 -2.0 0.546875q-0.921875 0.546875 -1.3125 1.484375q-0.390625 0.9375 -0.390625 2.59375l0 7.65625l-2.375 0zm14.840576 -16.59375l0 -2.734375l2.375 0l0 2.734375l-2.375 0zm0 16.59375l0 -14.0l2.375 0l0 14.0l-2.375 0zm5.85968 0l0 -19.328125l2.359375 0l0 19.328125l-2.359375 0zm15.04718 0l0 -1.765625q-1.328125 2.078125 -3.90625 2.078125q-1.671875 0 -3.078125 -0.921875q-1.40625 -0.921875 -2.1875 -2.578125q-0.765625 -1.65625 -0.765625 -3.796875q0 -2.09375 0.703125 -3.796875q0.703125 -1.71875 2.09375 -2.625q1.390625 -0.90625 3.125 -0.90625q1.265625 0 2.25 0.53125q0.984375 0.53125 1.609375 1.390625l0 -6.9375l2.359375 0l0 19.328125l-2.203125 0zm-7.5 -6.984375q0 2.6875 1.125 4.015625q1.140625 1.328125 2.6875 1.328125q1.5625 0 2.640625 -1.265625q1.09375 -1.265625 1.09375 -3.890625q0 -2.859375 -1.109375 -4.203125q-1.109375 -1.359375 -2.734375 -1.359375q-1.578125 0 -2.640625 1.296875q-1.0625 1.296875 -1.0625 4.078125zm17.778076 12.671875q-1.96875 -2.484375 -3.328125 -5.796875q-1.34375 -3.328125 -1.34375 -6.890625q0 -3.140625 1.015625 -6.015625q1.1875 -3.328125 3.65625 -6.640625l1.703125 0q-1.59375 2.734375 -2.109375 3.921875q-0.796875 1.8125 -1.265625 3.796875q-0.5625 2.453125 -0.5625 4.953125q0 6.34375 3.9375 12.671875l-1.703125 0zm4.392334 -0.328125l0 -24.6875l5.234375 0l0 1.96875l-2.859375 0l0 20.765625l2.859375 0l0 1.953125l-5.234375 0zm21.45282 -12.140625l2.5625 0.65625q-0.8125 3.140625 -2.90625 4.796875q-2.078125 1.65625 -5.109375 1.65625q-3.125 0 -5.078125 -1.265625q-1.953125 -1.28125 -2.984375 -3.6875q-1.015625 -2.421875 -1.015625 -5.1875q0 -3.015625 1.15625 -5.265625q1.15625 -2.25 3.28125 -3.40625q2.125 -1.171875 4.6875 -1.171875q2.90625 0 4.875 1.484375q1.984375 1.46875 2.75 4.140625l-2.515625 0.59375q-0.671875 -2.109375 -1.953125 -3.0625q-1.265625 -0.96875 -3.203125 -0.96875q-2.234375 0 -3.734375 1.078125q-1.5 1.0625 -2.109375 2.859375q-0.59375 1.796875 -0.59375 3.703125q0 2.46875 0.71875 4.3125q0.71875 1.84375 2.234375 2.75q1.515625 0.90625 3.28125 0.90625q2.140625 0 3.625 -1.234375q1.5 -1.25 2.03125 -3.6875zm14.297241 5.046875q-1.328125 1.125 -2.546875 1.59375q-1.21875 0.453125 -2.609375 0.453125q-2.3125 0 -3.5625 -1.125q-1.234375 -1.125 -1.234375 -2.875q0 -1.03125 0.46875 -1.875q0.46875 -0.859375 1.21875 -1.375q0.765625 -0.515625 1.71875 -0.78125q0.703125 -0.171875 2.109375 -0.34375q2.875 -0.34375 4.234375 -0.828125q0.015625 -0.484375 0.015625 -0.609375q0 -1.453125 -0.671875 -2.046875q-0.90625 -0.8125 -2.703125 -0.8125q-1.671875 0 -2.46875 0.59375q-0.796875 0.578125 -1.1875 2.078125l-2.3125 -0.3125q0.3125 -1.5 1.03125 -2.40625q0.734375 -0.921875 2.09375 -1.40625q1.375 -0.5 3.1875 -0.5q1.796875 0 2.90625 0.421875q1.125 0.421875 1.640625 1.0625q0.53125 0.640625 0.75 1.609375q0.125 0.609375 0.125 2.1875l0 3.171875q0 3.296875 0.140625 4.1875q0.15625 0.875 0.609375 1.671875l-2.484375 0q-0.375 -0.734375 -0.46875 -1.734375zm-0.203125 -5.296875q-1.296875 0.53125 -3.875 0.90625q-1.46875 0.203125 -2.078125 0.46875q-0.59375 0.265625 -0.9375 0.78125q-0.328125 0.5 -0.328125 1.125q0 0.9375 0.71875 1.578125q0.71875 0.625 2.109375 0.625q1.375 0 2.4375 -0.59375q1.0625 -0.609375 1.578125 -1.640625q0.375 -0.8125 0.375 -2.375l0 -0.875zm5.856201 7.03125l0 -14.0l2.140625 0l0 2.125q0.8125 -1.5 1.5 -1.96875q0.703125 -0.46875 1.53125 -0.46875q1.203125 0 2.4375 0.765625l-0.8125 2.203125q-0.875 -0.515625 -1.75 -0.515625q-0.765625 0 -1.390625 0.46875q-0.625 0.46875 -0.890625 1.296875q-0.390625 1.265625 -0.390625 2.765625l0 7.328125l-2.375 0zm12.876709 5.359375l-5.234375 0l0 -1.953125l2.859375 0l0 -20.765625l-2.859375 0l0 -1.96875l5.234375 0l0 24.6875zm4.984131 0.328125l-1.6875 0q3.9375 -6.328125 3.9375 -12.671875q0 -2.484375 -0.5625 -4.921875q-0.453125 -1.96875 -1.265625 -3.796875q-0.5 -1.1875 -2.109375 -3.953125l1.6875 0q2.484375 3.3125 3.671875 6.640625q1.015625 2.875 1.015625 6.015625q0 3.5625 -1.375 6.890625q-1.359375 3.3125 -3.3125 5.796875zm7.954834 -16.984375l0 -2.703125l2.703125 0l0 2.703125l-2.703125 0zm0 11.296875l0 -2.703125l2.703125 0l0 2.703125q0 1.484375 -0.53125 2.40625q-0.53125 0.921875 -1.671875 1.421875l-0.671875 -1.015625q0.765625 -0.328125 1.109375 -0.96875q0.359375 -0.640625 0.40625 -1.84375l-1.34375 0z" fill-rule="nonzero"></path><path fill="#76a5af" d="m19.32021 435.72476l0 0c0 -9.581818 7.767605 -17.349426 17.34943 -17.349426l187.41138 0c4.601349 0 9.014236 1.8278809 12.267899 5.0815125c3.2536469 3.253662 5.0815277 7.666565 5.0815277 12.267914l0 69.39563c0 9.581818 -7.7676086 17.349396 -17.349426 17.349396l-187.41138 0c-9.581825 0 -17.34943 -7.767578 -17.34943 -17.349396z" fill-rule="nonzero"></path><path stroke="#000000" stroke-width="2.0" stroke-linejoin="round" stroke-linecap="butt" d="m19.32021 435.72476l0 0c0 -9.581818 7.767605 -17.349426 17.34943 -17.349426l187.41138 0c4.601349 0 9.014236 1.8278809 12.267899 5.0815125c3.2536469 3.253662 5.0815277 7.666565 5.0815277 12.267914l0 69.39563c0 9.581818 -7.7676086 17.349396 -17.349426 17.349396l-187.41138 0c-9.581825 0 -17.34943 -7.767578 -17.34943 -17.349396z" fill-rule="nonzero"></path><path fill="#000000" fill-opacity="0.0" d="m19.32021 434.37534l222.11024 0l0 72.09448l-222.11024 0z" fill-rule="nonzero"></path><path fill="#000000" d="m74.45345 472.93134l2.28125 0.578125q-0.71875 2.796875 -2.578125 4.28125q-1.859375 1.46875 -4.546875 1.46875q-2.765625 0 -4.515625 -1.125q-1.7343788 -1.140625 -2.6406288 -3.28125q-0.90625 -2.15625 -0.90625 -4.609375q0 -2.6875 1.015625 -4.6875q1.03125 -2.0 2.9218788 -3.03125q1.890625 -1.03125 4.171875 -1.03125q2.578125 0 4.328125 1.3125q1.765625 1.3125 2.453125 3.6875l-2.234375 0.53125q-0.609375 -1.875 -1.75 -2.734375q-1.125 -0.859375 -2.84375 -0.859375q-1.984375 0 -3.3125 0.953125q-1.328125 0.953125 -1.875 2.546875q-0.5312538 1.59375 -0.5312538 3.296875q0 2.1875 0.6250038 3.828125q0.640625 1.640625 1.984375 2.453125q1.359375 0.796875 2.921875 0.796875q1.921875 0 3.234375 -1.09375q1.328125 -1.109375 1.796875 -3.28125zm4.8007812 6.03125l0 -17.1875l2.109375 0l0 6.171875q1.484375 -1.71875 3.734375 -1.71875q1.375 0 2.390625 0.546875q1.03125 0.546875 1.46875 1.515625q0.4375 0.953125 0.4375 2.78125l0 7.890625l-2.109375 0l0 -7.890625q0 -1.578125 -0.6875 -2.296875q-0.6875 -0.71875 -1.9375 -0.71875q-0.9375 0 -1.765625 0.484375q-0.828125 0.484375 -1.1875 1.3125q-0.34375 0.828125 -0.34375 2.296875l0 6.8125l-2.109375 0zm13.363281 -14.75l0 -2.4375l2.109375 0l0 2.4375l-2.109375 0zm0 14.75l0 -12.453125l2.109375 0l0 12.453125l-2.109375 0zm5.2695312 0l0 -17.1875l2.109375 0l0 17.1875l-2.109375 0zm13.457031 0l0 -1.578125q-1.1875 1.859375 -3.484375 1.859375q-1.484375 0 -2.734375 -0.8125q-1.25 -0.828125 -1.9375 -2.296875q-0.671875 -1.46875 -0.671875 -3.390625q0 -1.859375 0.609375 -3.375q0.625 -1.515625 1.859375 -2.328125q1.25 -0.8125 2.78125 -0.8125q1.125 0 2.0 0.484375q0.890625 0.46875 1.4375 1.234375l0 -6.171875l2.09375 0l0 17.1875l-1.953125 0zm-6.671875 -6.21875q0 2.390625 1.0 3.578125q1.015625 1.1875 2.390625 1.1875q1.390625 0 2.34375 -1.125q0.96875 -1.140625 0.96875 -3.453125q0 -2.5625 -0.984375 -3.75q-0.984375 -1.203125 -2.421875 -1.203125q-1.40625 0 -2.359375 1.15625q-0.9375 1.140625 -0.9375 3.609375zm19.265625 6.21875l0 -17.1875l2.28125 0l0 17.1875l-2.28125 0zm6.011711 0l0 -12.453125l1.90625 0l0 1.78125q1.375 -2.0625 3.953125 -2.0625q1.125 0 2.0625 0.40625q0.953125 0.40625 1.421875 1.0625q0.46875 0.65625 0.65625 1.5625q0.125 0.578125 0.125 2.046875l0 7.65625l-2.109375 0l0 -7.578125q0 -1.28125 -0.25 -1.921875q-0.25 -0.640625 -0.875 -1.015625q-0.625 -0.390625 -1.46875 -0.390625q-1.34375 0 -2.328125 0.859375q-0.984375 0.859375 -0.984375 3.25l0 6.796875l-2.109375 0zm13.347656 -14.734375l0 -2.453125l2.109375 0l0 2.453125l-2.109375 0zm-2.6875 19.5625l0.40625 -1.796875q0.625 0.171875 1.0 0.171875q0.640625 0 0.953125 -0.4375q0.328125 -0.421875 0.328125 -2.125l0 -13.09375l2.109375 0l0 13.140625q0 2.296875 -0.609375 3.1875q-0.75 1.171875 -2.53125 1.171875q-0.859375 0 -1.65625 -0.21875zm16.550781 -8.84375l2.171875 0.28125q-0.515625 1.90625 -1.90625 2.96875q-1.390625 1.046875 -3.5625 1.046875q-2.734375 0 -4.34375 -1.671875q-1.59375 -1.6875 -1.59375 -4.734375q0 -3.140625 1.609375 -4.875q1.625 -1.734375 4.203125 -1.734375q2.5 0 4.078125 1.703125q1.59375 1.703125 1.59375 4.78125q0 0.1875 -0.015625 0.5625l-9.28125 0q0.109375 2.046875 1.15625 3.140625q1.046875 1.09375 2.609375 1.09375q1.15625 0 1.96875 -0.609375q0.828125 -0.609375 1.3125 -1.953125zm-6.9375 -3.40625l6.953125 0q-0.140625 -1.5625 -0.796875 -2.359375q-1.0 -1.21875 -2.609375 -1.21875q-1.453125 0 -2.453125 0.984375q-0.984375 0.96875 -1.09375 2.59375zm19.878906 2.859375l2.078125 0.265625q-0.34375 2.15625 -1.75 3.375q-1.390625 1.203125 -3.4375 1.203125q-2.546875 0 -4.109375 -1.671875q-1.546875 -1.671875 -1.546875 -4.78125q0 -2.015625 0.671875 -3.53125q0.671875 -1.515625 2.03125 -2.265625q1.359375 -0.765625 2.96875 -0.765625q2.03125 0 3.3125 1.03125q1.296875 1.03125 1.65625 2.90625l-2.046875 0.328125q-0.296875 -1.265625 -1.046875 -1.890625q-0.734375 -0.640625 -1.796875 -0.640625q-1.59375 0 -2.59375 1.15625q-0.984375 1.140625 -0.984375 3.609375q0 2.5 0.953125 3.640625q0.96875 1.140625 2.515625 1.140625q1.234375 0 2.0625 -0.765625q0.84375 -0.765625 1.0625 -2.34375zm8.484375 2.671875l0.3125 1.859375q-0.890625 0.203125 -1.59375 0.203125q-1.15625 0 -1.796875 -0.359375q-0.625 -0.375 -0.890625 -0.96875q-0.25 -0.59375 -0.25 -2.484375l0 -7.171875l-1.546875 0l0 -1.640625l1.546875 0l0 -3.078125l2.09375 -1.265625l0 4.34375l2.125 0l0 1.640625l-2.125 0l0 7.28125q0 0.90625 0.109375 1.171875q0.125 0.25 0.375 0.40625q0.25 0.140625 0.71875 0.140625q0.34375 0 0.921875 -0.078125zm1.2773438 -4.328125q0 -3.46875 1.921875 -5.125q1.609375 -1.390625 3.921875 -1.390625q2.5625 0 4.1875 1.6875q1.625 1.6875 1.625 4.640625q0 2.40625 -0.71875 3.78125q-0.71875 1.375 -2.09375 2.140625q-1.375 0.765625 -3.0 0.765625q-2.625 0 -4.234375 -1.671875q-1.609375 -1.6875 -1.609375 -4.828125zm2.171875 0q0 2.390625 1.03125 3.578125q1.046875 1.1875 2.640625 1.1875q1.5625 0 2.609375 -1.1875q1.046875 -1.203125 1.046875 -3.65625q0 -2.3125 -1.0625 -3.5q-1.046875 -1.1875 -2.59375 -1.1875q-1.59375 0 -2.640625 1.1875q-1.03125 1.1875 -1.03125 3.578125zm11.941406 6.21875l0 -12.453125l1.890625 0l0 1.890625q0.734375 -1.328125 1.34375 -1.75q0.625 -0.421875 1.359375 -0.421875q1.0625 0 2.171875 0.6875l-0.734375 1.953125q-0.765625 -0.453125 -1.546875 -0.453125q-0.6875 0 -1.25 0.421875q-0.546875 0.40625 -0.78125 1.140625q-0.34375 1.125 -0.34375 2.46875l0 6.515625l-2.109375 0z" fill-rule="nonzero"></path><path fill="#000000" fill-opacity="0.0" d="m130.37534 418.37534l0 -88.944885" fill-rule="nonzero"></path><path stroke="#000000" stroke-width="4.0" stroke-linejoin="round" stroke-linecap="butt" d="m130.37534 418.37534l0 -64.944885" fill-rule="evenodd"></path><path fill="#000000" stroke="#000000" stroke-width="4.0" stroke-linecap="butt" d="m136.98225 353.43045l-6.6069183 -18.152405l-6.6069336 18.152405z" fill-rule="evenodd"></path><path fill="#76a5af" d="m19.32021 628.7641l0 0c0 -9.581787 7.767605 -17.349426 17.34943 -17.349426l187.41138 0c4.601349 0 9.014236 1.8278809 12.267899 5.081543c3.2536469 3.253662 5.0815277 7.666565 5.0815277 12.267883l0 69.39563c0 9.581848 -7.7676086 17.349487 -17.349426 17.349487l-187.41138 0c-9.581825 0 -17.34943 -7.767639 -17.34943 -17.349487z" fill-rule="nonzero"></path><path stroke="#000000" stroke-width="2.0" stroke-linejoin="round" stroke-linecap="butt" d="m19.32021 628.7641l0 0c0 -9.581787 7.767605 -17.349426 17.34943 -17.349426l187.41138 0c4.601349 0 9.014236 1.8278809 12.267899 5.081543c3.2536469 3.253662 5.0815277 7.666565 5.0815277 12.267883l0 69.39563c0 9.581848 -7.7676086 17.349487 -17.349426 17.349487l-187.41138 0c-9.581825 0 -17.34943 -7.767639 -17.34943 -17.349487z" fill-rule="nonzero"></path><path fill="#000000" fill-opacity="0.0" d="m19.32021 627.4147l222.11024 0l0 72.09454l-222.11024 0z" fill-rule="nonzero"></path><path fill="#000000" d="m125.148766 665.9707l2.28125 0.578125q-0.71875 2.796875 -2.578125 4.28125q-1.859375 1.46875 -4.546875 1.46875q-2.765625 0 -4.515625 -1.125q-1.734375 -1.140625 -2.640625 -3.28125q-0.90625 -2.15625 -0.90625 -4.609375q0 -2.6875 1.015625 -4.6875q1.03125 -2.0 2.921875 -3.03125q1.890625 -1.03125 4.171875 -1.03125q2.578125 0 4.328125 1.3125q1.765625 1.3125 2.453125 3.6875l-2.234375 0.53125q-0.609375 -1.875 -1.75 -2.734375q-1.125 -0.859375 -2.84375 -0.859375q-1.984375 0 -3.3125 0.953125q-1.328125 0.953125 -1.875 2.546875q-0.53125 1.59375 -0.53125 3.296875q0 2.1875 0.625 3.828125q0.640625 1.640625 1.984375 2.453125q1.359375 0.796875 2.921875 0.796875q1.921875 0 3.234375 -1.09375q1.328125 -1.109375 1.796875 -3.28125zm12.925774 4.5q-1.171875 0.984375 -2.265625 1.40625q-1.078125 0.40625 -2.3125 0.40625q-2.046875 0 -3.15625 -1.0q-1.09375 -1.0 -1.09375 -2.5625q0 -0.921875 0.40625 -1.671875q0.421875 -0.75 1.09375 -1.203125q0.671875 -0.46875 1.515625 -0.703125q0.625 -0.15625 1.875 -0.3125q2.5625 -0.3125 3.765625 -0.734375q0.015625 -0.421875 0.015625 -0.546875q0 -1.28125 -0.609375 -1.8125q-0.796875 -0.71875 -2.390625 -0.71875q-1.5 0 -2.203125 0.53125q-0.703125 0.515625 -1.046875 1.84375l-2.0625 -0.28125q0.28125 -1.328125 0.921875 -2.140625q0.640625 -0.8125 1.859375 -1.25q1.21875 -0.453125 2.828125 -0.453125q1.59375 0 2.59375 0.375q1.0 0.375 1.46875 0.953125q0.46875 0.5625 0.65625 1.4375q0.09375 0.53125 0.09375 1.9375l0 2.8125q0 2.9375 0.140625 3.71875q0.140625 0.78125 0.53125 1.5l-2.203125 0q-0.328125 -0.65625 -0.421875 -1.53125zm-0.171875 -4.71875q-1.15625 0.46875 -3.453125 0.796875q-1.296875 0.1875 -1.84375 0.421875q-0.53125 0.234375 -0.828125 0.6875q-0.28125 0.453125 -0.28125 1.0q0 0.84375 0.625 1.40625q0.640625 0.5625 1.875 0.5625q1.21875 0 2.171875 -0.53125q0.953125 -0.53125 1.390625 -1.453125q0.34375 -0.71875 0.34375 -2.109375l0 -0.78125zm5.3789062 6.25l0 -12.453125l1.890625 0l0 1.890625q0.734375 -1.328125 1.34375 -1.75q0.625 -0.421875 1.359375 -0.421875q1.0625 0 2.171875 0.6875l-0.734375 1.953125q-0.765625 -0.453125 -1.546875 -0.453125q-0.6875 0 -1.25 0.421875q-0.546875 0.40625 -0.78125 1.140625q-0.34375 1.125 -0.34375 2.46875l0 6.515625l-2.109375 0z" fill-rule="nonzero"></path><path fill="#000000" fill-opacity="0.0" d="m130.37534 611.4147l0 -88.944885" fill-rule="nonzero"></path><path stroke="#000000" stroke-width="4.0" stroke-linejoin="round" stroke-linecap="butt" d="m130.37534 611.4147l0 -64.944885" fill-rule="evenodd"></path><path fill="#000000" stroke="#000000" stroke-width="4.0" stroke-linecap="butt" d="m136.98225 546.4698l-6.6069183 -18.152344l-6.6069336 18.152344z" fill-rule="evenodd"></path><path fill="#d0e0e3" d="m337.28873 636.9215l0 0c0 -7.3291626 5.941437 -13.270569 13.270599 -13.270569l127.820984 0c3.5195923 0 6.8950195 1.3981323 9.383728 3.8868408c2.488739 2.4887085 3.8868713 5.8641357 3.8868713 9.383728l0 53.08087c0 7.3291626 -5.941437 13.270569 -13.270599 13.270569l-127.820984 0c-7.3291626 0 -13.270599 -5.9414062 -13.270599 -13.270569z" fill-rule="nonzero"></path><path stroke="#000000" stroke-width="2.0" stroke-linejoin="round" stroke-linecap="butt" d="m337.28873 636.9215l0 0c0 -7.3291626 5.941437 -13.270569 13.270599 -13.270569l127.820984 0c3.5195923 0 6.8950195 1.3981323 9.383728 3.8868408c2.488739 2.4887085 3.8868713 5.8641357 3.8868713 9.383728l0 53.08087c0 7.3291626 -5.941437 13.270569 -13.270599 13.270569l-127.820984 0c-7.3291626 0 -13.270599 -5.9414062 -13.270599 -13.270569z" fill-rule="nonzero"></path><path fill="#000000" fill-opacity="0.0" d="m337.28873 635.8881l154.36218 0l0 55.149597l-154.36218 0z" fill-rule="nonzero"></path><path fill="#000000" d="m379.01083 672.0029l0 -17.1875l12.421875 0l0 2.03125l-10.15625 0l0 5.265625l9.5 0l0 2.015625l-9.5 0l0 5.84375l10.546875 0l0 2.03125l-12.8125 0zm15.6796875 0l0 -12.453125l1.90625 0l0 1.78125q1.375 -2.0625 3.953125 -2.0625q1.125 0 2.0625 0.40625q0.953125 0.40625 1.421875 1.0625q0.46875 0.65625 0.65625 1.5625q0.125 0.578125 0.125 2.046875l0 7.65625l-2.109375 0l0 -7.578125q0 -1.28125 -0.25 -1.921875q-0.25 -0.640625 -0.875 -1.015625q-0.625 -0.390625 -1.46875 -0.390625q-1.34375 0 -2.328125 0.859375q-0.984375 0.859375 -0.984375 3.25l0 6.796875l-2.109375 0zm12.972656 1.03125l2.046875 0.3125q0.125 0.9375 0.71875 1.375q0.78125 0.59375 2.140625 0.59375q1.46875 0 2.265625 -0.59375q0.796875 -0.578125 1.078125 -1.640625q0.15625 -0.640625 0.140625 -2.703125q-1.375 1.625 -3.4375 1.625q-2.5625 0 -3.96875 -1.84375q-1.40625 -1.859375 -1.40625 -4.453125q0 -1.78125 0.640625 -3.28125q0.640625 -1.515625 1.859375 -2.328125q1.234375 -0.828125 2.890625 -0.828125q2.203125 0 3.625 1.78125l0 -1.5l1.953125 0l0 10.765625q0 2.90625 -0.59375 4.109375q-0.59375 1.21875 -1.875 1.921875q-1.28125 0.703125 -3.15625 0.703125q-2.234375 0 -3.609375 -1.0q-1.359375 -1.0 -1.3125 -3.015625zm1.734375 -7.484375q0 2.453125 0.96875 3.578125q0.984375 1.125 2.453125 1.125q1.453125 0 2.4375 -1.109375q0.984375 -1.125 0.984375 -3.515625q0 -2.28125 -1.015625 -3.4375q-1.015625 -1.171875 -2.453125 -1.171875q-1.40625 0 -2.390625 1.140625q-0.984375 1.140625 -0.984375 3.390625zm12.003906 -8.296875l0 -2.4375l2.109375 0l0 2.4375l-2.109375 0zm0 14.75l0 -12.453125l2.109375 0l0 12.453125l-2.109375 0zm5.3164062 0l0 -12.453125l1.90625 0l0 1.78125q1.375 -2.0625 3.953125 -2.0625q1.125 0 2.0625 0.40625q0.953125 0.40625 1.421875 1.0625q0.46875 0.65625 0.65625 1.5625q0.125 0.578125 0.125 2.046875l0 7.65625l-2.109375 0l0 -7.578125q0 -1.28125 -0.25 -1.921875q-0.25 -0.640625 -0.875 -1.015625q-0.625 -0.390625 -1.46875 -0.390625q-1.34375 0 -2.328125 0.859375q-0.984375 0.859375 -0.984375 3.25l0 6.796875l-2.109375 0zm21.878906 -4.015625l2.171875 0.28125q-0.515625 1.90625 -1.90625 2.96875q-1.390625 1.046875 -3.5625 1.046875q-2.734375 0 -4.34375 -1.671875q-1.59375 -1.6875 -1.59375 -4.734375q0 -3.140625 1.609375 -4.875q1.625 -1.734375 4.203125 -1.734375q2.5 0 4.078125 1.703125q1.59375 1.703125 1.59375 4.78125q0 0.1875 -0.015625 0.5625l-9.28125 0q0.109375 2.046875 1.15625 3.140625q1.046875 1.09375 2.609375 1.09375q1.15625 0 1.96875 -0.609375q0.828125 -0.609375 1.3125 -1.953125zm-6.9375 -3.40625l6.953125 0q-0.140625 -1.5625 -0.796875 -2.359375q-1.0 -1.21875 -2.609375 -1.21875q-1.453125 0 -2.453125 0.984375q-0.984375 0.96875 -1.09375 2.59375z" fill-rule="nonzero"></path><path fill="#fff2cc" d="m520.18634 636.9215l0 0c0 -7.3291626 5.9414673 -13.270569 13.27063 -13.270569l127.820984 0c3.5195923 0 6.8950195 1.3981323 9.383728 3.8868408c2.4887085 2.4887085 3.8869019 5.8641357 3.8869019 9.383728l0 53.08087c0 7.3291626 -5.9414673 13.270569 -13.27063 13.270569l-127.820984 0c-7.3291626 0 -13.27063 -5.9414062 -13.27063 -13.270569z" fill-rule="nonzero"></path><path stroke="#000000" stroke-width="2.0" stroke-linejoin="round" stroke-linecap="butt" d="m520.18634 636.9215l0 0c0 -7.3291626 5.9414673 -13.270569 13.27063 -13.270569l127.820984 0c3.5195923 0 6.8950195 1.3981323 9.383728 3.8868408c2.4887085 2.4887085 3.8869019 5.8641357 3.8869019 9.383728l0 53.08087c0 7.3291626 -5.9414673 13.270569 -13.27063 13.270569l-127.820984 0c-7.3291626 0 -13.27063 -5.9414062 -13.27063 -13.270569z" fill-rule="nonzero"></path><path fill="#000000" fill-opacity="0.0" d="m520.18634 635.8881l154.36224 0l0 55.149597l-154.36224 0z" fill-rule="nonzero"></path><path fill="#000000" d="m576.92017 672.0029l0 -15.15625l-5.65625 0l0 -2.03125l13.625 0l0 2.03125l-5.6875 0l0 15.15625l-2.28125 0zm10.035156 -14.75l0 -2.4375l2.109375 0l0 2.4375l-2.109375 0zm0 14.75l0 -12.453125l2.109375 0l0 12.453125l-2.109375 0zm5.3007812 0l0 -12.453125l1.890625 0l0 1.890625q0.734375 -1.328125 1.34375 -1.75q0.625 -0.421875 1.359375 -0.421875q1.0625 0 2.171875 0.6875l-0.734375 1.953125q-0.765625 -0.453125 -1.546875 -0.453125q-0.6875 0 -1.25 0.421875q-0.546875 0.40625 -0.78125 1.140625q-0.34375 1.125 -0.34375 2.46875l0 6.515625l-2.109375 0zm16.539062 -4.015625l2.171875 0.28125q-0.515625 1.90625 -1.90625 2.96875q-1.390625 1.046875 -3.5625 1.046875q-2.734375 0 -4.34375 -1.671875q-1.59375 -1.6875 -1.59375 -4.734375q0 -3.140625 1.609375 -4.875q1.625 -1.734375 4.203125 -1.734375q2.5 0 4.078125 1.703125q1.59375 1.703125 1.59375 4.78125q0 0.1875 -0.015625 0.5625l-9.28125 0q0.109375 2.046875 1.15625 3.140625q1.046875 1.09375 2.609375 1.09375q1.15625 0 1.96875 -0.609375q0.828125 -0.609375 1.3125 -1.953125zm-6.9375 -3.40625l6.953125 0q-0.140625 -1.5625 -0.796875 -2.359375q-1.0 -1.21875 -2.609375 -1.21875q-1.453125 0 -2.453125 0.984375q-0.984375 0.96875 -1.09375 2.59375zm10.910156 3.703125l2.09375 -0.328125q0.171875 1.25 0.96875 1.921875q0.8125 0.671875 2.25 0.671875q1.453125 0 2.15625 -0.59375q0.703125 -0.59375 0.703125 -1.390625q0 -0.71875 -0.625 -1.125q-0.421875 -0.28125 -2.15625 -0.71875q-2.3125 -0.578125 -3.21875 -1.0q-0.890625 -0.4375 -1.359375 -1.1875q-0.453125 -0.765625 -0.453125 -1.671875q0 -0.828125 0.375 -1.53125q0.390625 -0.71875 1.046875 -1.1875q0.484375 -0.359375 1.328125 -0.609375q0.859375 -0.265625 1.828125 -0.265625q1.46875 0 2.578125 0.421875q1.109375 0.421875 1.625 1.15625q0.53125 0.71875 0.734375 1.921875l-2.0625 0.28125q-0.140625 -0.96875 -0.8125 -1.5q-0.671875 -0.546875 -1.90625 -0.546875q-1.453125 0 -2.078125 0.484375q-0.625 0.484375 -0.625 1.125q0 0.40625 0.265625 0.734375q0.25 0.34375 0.8125 0.5625q0.3125 0.125 1.859375 0.546875q2.234375 0.59375 3.109375 0.984375q0.890625 0.375 1.390625 1.109375q0.515625 0.71875 0.515625 1.796875q0 1.046875 -0.625 1.984375q-0.609375 0.9375 -1.765625 1.453125q-1.15625 0.5 -2.625 0.5q-2.421875 0 -3.703125 -1.0q-1.265625 -1.015625 -1.625 -3.0z" fill-rule="nonzero"></path><path fill="#fff2cc" d="m696.15356 636.9215l0 0c0 -7.3291626 5.9414062 -13.270569 13.270569 -13.270569l127.820984 0c3.5195923 0 6.8950195 1.3981323 9.383789 3.8868408c2.4887085 2.4887085 3.8868408 5.8641357 3.8868408 9.383728l0 53.08087c0 7.3291626 -5.9414673 13.270569 -13.27063 13.270569l-127.820984 0c-7.3291626 0 -13.270569 -5.9414062 -13.270569 -13.270569z" fill-rule="nonzero"></path><path stroke="#000000" stroke-width="2.0" stroke-linejoin="round" stroke-linecap="butt" d="m696.15356 636.9215l0 0c0 -7.3291626 5.9414062 -13.270569 13.270569 -13.270569l127.820984 0c3.5195923 0 6.8950195 1.3981323 9.383789 3.8868408c2.4887085 2.4887085 3.8868408 5.8641357 3.8868408 9.383728l0 53.08087c0 7.3291626 -5.9414673 13.270569 -13.27063 13.270569l-127.820984 0c-7.3291626 0 -13.270569 -5.9414062 -13.270569 -13.270569z" fill-rule="nonzero"></path><path fill="#000000" fill-opacity="0.0" d="m696.15356 635.8881l154.36218 0l0 55.149597l-154.36218 0z" fill-rule="nonzero"></path><path fill="#000000" d="m743.18427 672.0029l0 -17.1875l5.90625 0q2.015625 0 3.0625 0.25q1.484375 0.34375 2.515625 1.234375q1.359375 1.140625 2.03125 2.9375q0.6875 1.78125 0.6875 4.078125q0 1.953125 -0.46875 3.46875q-0.453125 1.515625 -1.171875 2.515625q-0.703125 0.984375 -1.5625 1.546875q-0.84375 0.5625 -2.046875 0.859375q-1.203125 0.296875 -2.765625 0.296875l-6.1875 0zm2.265625 -2.03125l3.671875 0q1.703125 0 2.65625 -0.3125q0.96875 -0.3125 1.546875 -0.890625q0.8125 -0.8125 1.265625 -2.171875q0.453125 -1.375 0.453125 -3.3125q0 -2.703125 -0.890625 -4.140625q-0.890625 -1.453125 -2.15625 -1.9375q-0.90625 -0.359375 -2.9375 -0.359375l-3.609375 0l0 13.125zm14.003906 -4.1875q0 -3.46875 1.921875 -5.125q1.609375 -1.390625 3.921875 -1.390625q2.5625 0 4.1875 1.6875q1.625 1.6875 1.625 4.640625q0 2.40625 -0.71875 3.78125q-0.71875 1.375 -2.09375 2.140625q-1.375 0.765625 -3.0 0.765625q-2.625 0 -4.234375 -1.671875q-1.609375 -1.6875 -1.609375 -4.828125zm2.171875 0q0 2.390625 1.03125 3.578125q1.046875 1.1875 2.640625 1.1875q1.5625 0 2.609375 -1.1875q1.046875 -1.203125 1.046875 -3.65625q0 -2.3125 -1.0625 -3.5q-1.046875 -1.1875 -2.59375 -1.1875q-1.59375 0 -2.640625 1.1875q-1.03125 1.1875 -1.03125 3.578125zm11.175781 0q0 -3.46875 1.921875 -5.125q1.609375 -1.390625 3.921875 -1.390625q2.5625 0 4.1875 1.6875q1.625 1.6875 1.625 4.640625q0 2.40625 -0.71875 3.78125q-0.71875 1.375 -2.09375 2.140625q-1.375 0.765625 -3.0 0.765625q-2.625 0 -4.234375 -1.671875q-1.609375 -1.6875 -1.609375 -4.828125zm2.171875 0q0 2.390625 1.03125 3.578125q1.046875 1.1875 2.640625 1.1875q1.5625 0 2.609375 -1.1875q1.046875 -1.203125 1.046875 -3.65625q0 -2.3125 -1.0625 -3.5q-1.046875 -1.1875 -2.59375 -1.1875q-1.59375 0 -2.640625 1.1875q-1.03125 1.1875 -1.03125 3.578125zm11.941406 6.21875l0 -12.453125l1.890625 0l0 1.890625q0.734375 -1.328125 1.34375 -1.75q0.625 -0.421875 1.359375 -0.421875q1.0625 0 2.171875 0.6875l-0.734375 1.953125q-0.765625 -0.453125 -1.546875 -0.453125q-0.6875 0 -1.25 0.421875q-0.546875 0.40625 -0.78125 1.140625q-0.34375 1.125 -0.34375 2.46875l0 6.515625l-2.109375 0zm7.1640625 -3.71875l2.09375 -0.328125q0.171875 1.25 0.96875 1.921875q0.8125 0.671875 2.25 0.671875q1.453125 0 2.15625 -0.59375q0.703125 -0.59375 0.703125 -1.390625q0 -0.71875 -0.625 -1.125q-0.421875 -0.28125 -2.15625 -0.71875q-2.3125 -0.578125 -3.21875 -1.0q-0.890625 -0.4375 -1.359375 -1.1875q-0.453125 -0.765625 -0.453125 -1.671875q0 -0.828125 0.375 -1.53125q0.390625 -0.71875 1.046875 -1.1875q0.484375 -0.359375 1.328125 -0.609375q0.859375 -0.265625 1.828125 -0.265625q1.46875 0 2.578125 0.421875q1.109375 0.421875 1.625 1.15625q0.53125 0.71875 0.734375 1.921875l-2.0625 0.28125q-0.140625 -0.96875 -0.8125 -1.5q-0.671875 -0.546875 -1.90625 -0.546875q-1.453125 0 -2.078125 0.484375q-0.625 0.484375 -0.625 1.125q0 0.40625 0.265625 0.734375q0.25 0.34375 0.8125 0.5625q0.3125 0.125 1.859375 0.546875q2.234375 0.59375 3.109375 0.984375q0.890625 0.375 1.390625 1.109375q0.515625 0.71875 0.515625 1.796875q0 1.046875 -0.625 1.984375q-0.609375 0.9375 -1.765625 1.453125q-1.15625 0.5 -2.625 0.5q-2.421875 0 -3.703125 -1.0q-1.265625 -1.015625 -1.625 -3.0z" fill-rule="nonzero"></path></g></svg>

