<?xml version="1.0" standalone="yes"?>

<svg version="1.1" viewBox="0.0 0.0 960.0 720.0" fill="none" stroke="none" stroke-linecap="square" stroke-miterlimit="10" xmlns="http://www.w3.org/2000/svg" xmlns:xlink="http://www.w3.org/1999/xlink"><clipPath id="p.0"><path d="m0 0l960.0 0l0 720.0l-960.0 0l0 -720.0z" clip-rule="nonzero"></path></clipPath><g clip-path="url(#p.0)"><path fill="#000000" fill-opacity="0.0" d="m0 0l960.0 0l0 720.0l-960.0 0z" fill-rule="nonzero"></path><path fill="#ffffff" d="m22.276903 199.73753l0 0c0 -26.118286 22.13194 -47.291336 49.433075 -47.291336l0 0c13.110466 0 25.68396 4.9824677 34.95446 13.851303c9.270493 8.868851 14.478607 20.897583 14.478607 33.440033l0 0c0 26.118286 -22.131935 47.291336 -49.433067 47.291336l0 0c-27.301132 0 -49.433075 -21.17305 -49.433075 -47.291336z" fill-rule="nonzero"></path><path stroke="#ffffff" stroke-width="1.0" stroke-linejoin="round" stroke-linecap="butt" d="m22.276903 199.73753l0 0c0 -26.118286 22.13194 -47.291336 49.433075 -47.291336l0 0c13.110466 0 25.68396 4.9824677 34.95446 13.851303c9.270493 8.868851 14.478607 20.897583 14.478607 33.440033l0 0c0 26.118286 -22.131935 47.291336 -49.433067 47.291336l0 0c-27.301132 0 -49.433075 -21.17305 -49.433075 -47.291336z" fill-rule="nonzero"></path><path fill="#ffffff" d="m156.85039 238.5853l0 0c0 -26.118286 22.131943 -47.291336 49.433075 -47.291336l0 0c13.110474 0 25.68396 4.9824677 34.954468 13.851318c9.270493 8.868835 14.478607 20.897583 14.478607 33.440018l0 0c0 26.118286 -22.131943 47.29135 -49.433075 47.29135l0 0c-27.301132 0 -49.433075 -21.173065 -49.433075 -47.29135z" fill-rule="nonzero"></path><path stroke="#ffffff" stroke-width="1.0" stroke-linejoin="round" stroke-linecap="butt" d="m156.85039 238.5853l0 0c0 -26.118286 22.131943 -47.291336 49.433075 -47.291336l0 0c13.110474 0 25.68396 4.9824677 34.954468 13.851318c9.270493 8.868835 14.478607 20.897583 14.478607 33.440018l0 0c0 26.118286 -22.131943 47.29135 -49.433075 47.29135l0 0c-27.301132 0 -49.433075 -21.173065 -49.433075 -47.29135z" fill-rule="nonzero"></path><path fill="#ffffff" d="m5.5052495 348.8714l0 0c0 -26.118286 22.13194 -47.29135 49.43307 -47.29135l0 0c13.110462 0 25.683964 4.982483 34.954456 13.851318c9.2705 8.868835 14.478615 20.897583 14.478615 33.440033l0 0c0 26.118286 -22.131943 47.29132 -49.43307 47.29132l0 0c-27.30113 0 -49.43307 -21.173035 -49.43307 -47.29132z" fill-rule="nonzero"></path><path stroke="#ffffff" stroke-width="1.0" stroke-linejoin="round" stroke-linecap="butt" d="m5.5052495 348.8714l0 0c0 -26.118286 22.13194 -47.29135 49.43307 -47.29135l0 0c13.110462 0 25.683964 4.982483 34.954456 13.851318c9.2705 8.868835 14.478615 20.897583 14.478615 33.440033l0 0c0 26.118286 -22.131943 47.29132 -49.43307 47.29132l0 0c-27.30113 0 -49.43307 -21.173035 -49.43307 -47.29132z" fill-rule="nonzero"></path><path fill="#ffffff" d="m272.48163 358.5643l0 0c0 -26.118286 22.131927 -47.29132 49.433075 -47.29132l0 0c13.110474 0 25.68396 4.9824524 34.954468 13.851288c9.270477 8.868866 14.478607 20.897583 14.478607 33.440033l0 0c0 26.118286 -22.131958 47.29135 -49.433075 47.29135l0 0c-27.301147 0 -49.433075 -21.173065 -49.433075 -47.29135z" fill-rule="nonzero"></path><path stroke="#ffffff" stroke-width="1.0" stroke-linejoin="round" stroke-linecap="butt" d="m272.48163 358.5643l0 0c0 -26.118286 22.131927 -47.29132 49.433075 -47.29132l0 0c13.110474 0 25.68396 4.9824524 34.954468 13.851288c9.270477 8.868866 14.478607 20.897583 14.478607 33.440033l0 0c0 26.118286 -22.131958 47.29135 -49.433075 47.29135l0 0c-27.301147 0 -49.433075 -21.173065 -49.433075 -47.29135z" fill-rule="nonzero"></path><path fill="#ffffff" d="m121.14173 397.1076l0 0c0 -26.118286 22.131935 -47.29132 49.433067 -47.29132l0 0c13.110474 0 25.68396 4.9824524 34.954468 13.851288c9.270493 8.868866 14.478607 20.897583 14.478607 33.440033l0 0c0 26.118286 -22.131943 47.29135 -49.433075 47.29135l0 0c-27.301132 0 -49.433067 -21.173065 -49.433067 -47.29135z" fill-rule="nonzero"></path><path stroke="#ffffff" stroke-width="1.0" stroke-linejoin="round" stroke-linecap="butt" d="m121.14173 397.1076l0 0c0 -26.118286 22.131935 -47.29132 49.433067 -47.29132l0 0c13.110474 0 25.68396 4.9824524 34.954468 13.851288c9.270493 8.868866 14.478607 20.897583 14.478607 33.440033l0 0c0 26.118286 -22.131943 47.29135 -49.433075 47.29135l0 0c-27.301132 0 -49.433067 -21.173065 -49.433067 -47.29135z" fill-rule="nonzero"></path><path fill="#ffffff" d="m111.74278 529.17584l0 0c0 -26.118286 22.131943 -47.29132 49.433075 -47.29132l0 0c13.110458 0 25.68396 4.9824524 34.954453 13.851318c9.270508 8.868835 14.478607 20.897583 14.478607 33.440002l0 0c0 26.118286 -22.131927 47.29132 -49.43306 47.29132l0 0c-27.301132 0 -49.433075 -21.173035 -49.433075 -47.29132z" fill-rule="nonzero"></path><path stroke="#ffffff" stroke-width="1.0" stroke-linejoin="round" stroke-linecap="butt" d="m111.74278 529.17584l0 0c0 -26.118286 22.131943 -47.29132 49.433075 -47.29132l0 0c13.110458 0 25.68396 4.9824524 34.954453 13.851318c9.270508 8.868835 14.478607 20.897583 14.478607 33.440002l0 0c0 26.118286 -22.131927 47.29132 -49.43306 47.29132l0 0c-27.301132 0 -49.433075 -21.173035 -49.433075 -47.29132z" fill-rule="nonzero"></path><path fill="#000000" fill-opacity="0.0" d="m71.70998 247.02887l-16.755909 54.551178" fill-rule="nonzero"></path><path stroke="#ffffff" stroke-width="4.0" stroke-linejoin="round" stroke-linecap="butt" d="m71.70998 247.02887l-16.755909 54.551178" fill-rule="nonzero"></path><path fill="#000000" fill-opacity="0.0" d="m121.14304 199.73753l50.173225 5.417328" fill-rule="nonzero"></path><path stroke="#ffffff" stroke-width="4.0" stroke-linejoin="round" stroke-linecap="butt" d="m121.14304 199.73753l50.173225 5.417328" fill-rule="nonzero"></path><path fill="#000000" fill-opacity="0.0" d="m206.28346 285.87665l-35.716537 63.93701" fill-rule="nonzero"></path><path stroke="#ffffff" stroke-width="4.0" stroke-linejoin="round" stroke-linecap="butt" d="m206.28346 285.87665l-35.716537 63.93701" fill-rule="nonzero"></path><path fill="#000000" fill-opacity="0.0" d="m241.23793 272.02533l45.732285 53.102356" fill-rule="nonzero"></path><path stroke="#ffffff" stroke-width="4.0" stroke-linejoin="round" stroke-linecap="butt" d="m241.23793 272.02533l45.732285 53.102356" fill-rule="nonzero"></path><path fill="#000000" fill-opacity="0.0" d="m170.5748 444.39896l-9.3858185 37.480316" fill-rule="nonzero"></path><path stroke="#ffffff" stroke-width="4.0" stroke-linejoin="round" stroke-linecap="butt" d="m170.5748 444.39896l-9.3858185 37.480316" fill-rule="nonzero"></path><path fill="#000000" fill-opacity="0.0" d="m286.96024 392.00433l-66.96063 5.102356" fill-rule="nonzero"></path><path stroke="#ffffff" stroke-width="4.0" stroke-linejoin="round" stroke-linecap="butt" d="m286.96024 392.00433l-66.96063 5.102356" fill-rule="nonzero"></path><path fill="#000000" fill-opacity="0.0" d="m286.96024 392.00433l-90.83464 103.71652" fill-rule="nonzero"></path><path stroke="#ffffff" stroke-width="4.0" stroke-linejoin="round" stroke-linecap="butt" d="m286.96024 392.00433l-90.83464 103.71652" fill-rule="nonzero"></path><path fill="#ffffff" d="m1138.6545 159.4202l0 0c0 -7.4132233 6.0095215 -13.422836 13.4227295 -13.422836l105.122925 0c3.5599365 0 6.974121 1.4141846 9.491333 3.9314575c2.517212 2.517273 3.9313965 5.931427 3.9313965 9.491379l0 53.68976c0 7.4132233 -6.0095215 13.422836 -13.4227295 13.422836l-105.122925 0c-7.413208 0 -13.4227295 -6.009613 -13.4227295 -13.422836z" fill-rule="nonzero"></path><path stroke="#ffffff" stroke-width="1.0" stroke-linejoin="round" stroke-linecap="butt" d="m1138.6545 159.4202l0 0c0 -7.4132233 6.0095215 -13.422836 13.4227295 -13.422836l105.122925 0c3.5599365 0 6.974121 1.4141846 9.491333 3.9314575c2.517212 2.517273 3.9313965 5.931427 3.9313965 9.491379l0 53.68976c0 7.4132233 -6.0095215 13.422836 -13.4227295 13.422836l-105.122925 0c-7.413208 0 -13.4227295 -6.009613 -13.4227295 -13.422836z" fill-rule="nonzero"></path><path fill="#ffffff" d="m1218.6569 278.61328l0 0c0 -7.413208 6.0096436 -13.422821 13.422852 -13.422821l105.1228 0c3.5599365 0 6.974121 1.4141846 9.491333 3.9314575c2.517334 2.517273 3.9315186 5.931427 3.9315186 9.491364l0 53.68976c0 7.4132385 -6.0096436 13.422852 -13.422852 13.422852l-105.1228 0c-7.413208 0 -13.422852 -6.009613 -13.422852 -13.422852z" fill-rule="nonzero"></path><path stroke="#ffffff" stroke-width="1.0" stroke-linejoin="round" stroke-linecap="butt" d="m1218.6569 278.61328l0 0c0 -7.413208 6.0096436 -13.422821 13.422852 -13.422821l105.1228 0c3.5599365 0 6.974121 1.4141846 9.491333 3.9314575c2.517334 2.517273 3.9315186 5.931427 3.9315186 9.491364l0 53.68976c0 7.4132385 -6.0096436 13.422852 -13.422852 13.422852l-105.1228 0c-7.413208 0 -13.422852 -6.009613 -13.422852 -13.422852z" fill-rule="nonzero"></path><path fill="#ffffff" d="m1061.4429 278.61328l0 0c0 -7.413208 6.0096436 -13.422821 13.422852 -13.422821l105.1228 0c3.5600586 0 6.974121 1.4141846 9.491455 3.9314575c2.517212 2.517273 3.9313965 5.931427 3.9313965 9.491364l0 53.68976c0 7.4132385 -6.0095215 13.422852 -13.422852 13.422852l-105.1228 0c-7.413208 0 -13.422852 -6.009613 -13.422852 -13.422852z" fill-rule="nonzero"></path><path stroke="#ffffff" stroke-width="1.0" stroke-linejoin="round" stroke-linecap="butt" d="m1061.4429 278.61328l0 0c0 -7.413208 6.0096436 -13.422821 13.422852 -13.422821l105.1228 0c3.5600586 0 6.974121 1.4141846 9.491455 3.9314575c2.517212 2.517273 3.9313965 5.931427 3.9313965 9.491364l0 53.68976c0 7.4132385 -6.0095215 13.422852 -13.422852 13.422852l-105.1228 0c-7.413208 0 -13.422852 -6.009613 -13.422852 -13.422852z" fill-rule="nonzero"></path><path fill="#ffffff" d="m1138.6545 397.80637l0 0c0 -7.413208 6.0095215 -13.422821 13.4227295 -13.422821l105.122925 0c3.5599365 0 6.974121 1.4141846 9.491333 3.9314575c2.517212 2.517273 3.9313965 5.931427 3.9313965 9.491364l0 53.68976c0 7.4132385 -6.0095215 13.422852 -13.4227295 13.422852l-105.122925 0c-7.413208 0 -13.4227295 -6.009613 -13.4227295 -13.422852z" fill-rule="nonzero"></path><path stroke="#ffffff" stroke-width="1.0" stroke-linejoin="round" stroke-linecap="butt" d="m1138.6545 397.80637l0 0c0 -7.413208 6.0095215 -13.422821 13.4227295 -13.422821l105.122925 0c3.5599365 0 6.974121 1.4141846 9.491333 3.9314575c2.517212 2.517273 3.9313965 5.931427 3.9313965 9.491364l0 53.68976c0 7.4132385 -6.0095215 13.422852 -13.4227295 13.422852l-105.122925 0c-7.413208 0 -13.4227295 -6.009613 -13.4227295 -13.422852z" fill-rule="nonzero"></path><path fill="#ffffff" d="m979.7677 397.80637l0 0c0 -7.413208 6.0096436 -13.422821 13.422852 -13.422821l105.1228 0c3.5599365 0 6.974121 1.4141846 9.491455 3.9314575c2.517212 2.517273 3.9313965 5.931427 3.9313965 9.491364l0 53.68976c0 7.4132385 -6.0096436 13.422852 -13.422852 13.422852l-105.1228 0c-7.413208 0 -13.422852 -6.009613 -13.422852 -13.422852z" fill-rule="nonzero"></path><path stroke="#ffffff" stroke-width="1.0" stroke-linejoin="round" stroke-linecap="butt" d="m979.7677 397.80637l0 0c0 -7.413208 6.0096436 -13.422821 13.422852 -13.422821l105.1228 0c3.5599365 0 6.974121 1.4141846 9.491455 3.9314575c2.517212 2.517273 3.9313965 5.931427 3.9313965 9.491364l0 53.68976c0 7.4132385 -6.0096436 13.422852 -13.422852 13.422852l-105.1228 0c-7.413208 0 -13.422852 -6.009613 -13.422852 -13.422852z" fill-rule="nonzero"></path><path fill="#ffffff" d="m1193.393 516.99945l0 0c0 -7.413208 6.0096436 -13.422821 13.422852 -13.422821l105.1228 0c3.5599365 0 6.974121 1.4141846 9.491333 3.9314575c2.517334 2.517273 3.9315186 5.931427 3.9315186 9.491364l0 53.68976c0 7.413269 -6.0096436 13.422852 -13.422852 13.422852l-105.1228 0c-7.413208 0 -13.422852 -6.0095825 -13.422852 -13.422852z" fill-rule="nonzero"></path><path stroke="#ffffff" stroke-width="1.0" stroke-linejoin="round" stroke-linecap="butt" d="m1193.393 516.99945l0 0c0 -7.413208 6.0096436 -13.422821 13.422852 -13.422821l105.1228 0c3.5599365 0 6.974121 1.4141846 9.491333 3.9314575c2.517334 2.517273 3.9315186 5.931427 3.9315186 9.491364l0 53.68976c0 7.413269 -6.0096436 13.422852 -13.422852 13.422852l-105.1228 0c-7.413208 0 -13.422852 -6.0095825 -13.422852 -13.422852z" fill-rule="nonzero"></path><path fill="#000000" fill-opacity="0.0" d="m1204.6388 226.53279l-77.1969 38.645676" fill-rule="nonzero"></path><path stroke="#ffffff" stroke-width="4.0" stroke-linejoin="round" stroke-linecap="butt" d="m1204.6388 226.53279l-77.1969 38.645676" fill-rule="nonzero"></path><path fill="#000000" fill-opacity="0.0" d="m1204.6388 226.53279l80.0 38.645676" fill-rule="nonzero"></path><path stroke="#ffffff" stroke-width="4.0" stroke-linejoin="round" stroke-linecap="butt" d="m1204.6388 226.53279l80.0 38.645676" fill-rule="nonzero"></path><path fill="#000000" fill-opacity="0.0" d="m1284.6411 345.7259l0 0" fill-rule="nonzero"></path><path stroke="#ffffff" stroke-width="4.0" stroke-linejoin="round" stroke-linecap="butt" d="m1284.6411 345.7259l0 0" fill-rule="nonzero"></path><path fill="#000000" fill-opacity="0.0" d="m1127.4271 345.7259l77.1969 38.64566" fill-rule="nonzero"></path><path stroke="#ffffff" stroke-width="4.0" stroke-linejoin="round" stroke-linecap="butt" d="m1127.4271 345.7259l77.1969 38.64566" fill-rule="nonzero"></path><path fill="#000000" fill-opacity="0.0" d="m1204.6388 464.91898l54.740112 38.64566" fill-rule="nonzero"></path><path stroke="#ffffff" stroke-width="4.0" stroke-linejoin="round" stroke-linecap="butt" d="m1204.6388 464.91898l54.740112 38.64566" fill-rule="nonzero"></path><path fill="#000000" fill-opacity="0.0" d="m1127.4271 345.7259l-81.66931 38.64566" fill-rule="nonzero"></path><path stroke="#ffffff" stroke-width="4.0" stroke-linejoin="round" stroke-linecap="butt" d="m1127.4271 345.7259l-81.66931 38.64566" fill-rule="nonzero"></path><path fill="#000000" fill-opacity="0.0" d="m5.5065618 46.795277l352.47244 0l0 72.220474l-352.47244 0z" fill-rule="nonzero"></path><path fill="#ffffff" d="m109.91776 68.68864l7.484375 0l5.234375 14.0625l1.859375 5.46875l0.203125 0l1.875 -5.46875l5.0781326 -14.0625l7.4374847 0l0 31.296875l-6.5781097 0l0 -11.46875q0 -1.15625 0.09375 -2.546875q0.109375 -1.390625 0.25 -2.796875q0.140625 -1.421875 0.28125 -2.78125q0.15625 -1.375 0.296875 -2.53125l-0.1875 0l-2.59375 7.25l-4.8125076 12.140625l-2.828125 0l-4.796875 -12.140625l-2.5 -7.25l-0.1875 0q0.140625 1.15625 0.28125 2.53125q0.15625 1.359375 0.265625 2.78125q0.125 1.40625 0.21875 2.796875q0.09375 1.390625 0.09375 2.546875l0 11.46875l-6.46875 0l0 -31.296875zm49.294823 31.875q-3.171875 0 -5.796875 -1.125q-2.609375 -1.140625 -4.484375 -3.25q-1.875 -2.109375 -2.90625 -5.125q-1.03125 -3.03125 -1.03125 -6.875q0 -3.828125 1.03125 -6.828125q1.03125 -3.0 2.90625 -5.046875q1.875 -2.046875 4.484375 -3.125q2.625 -1.078125 5.796875 -1.078125q3.15625 0 5.765625 1.078125q2.625 1.078125 4.5 3.15625q1.875 2.0625 2.90625 5.0625q1.03125 3.0 1.03125 6.78125q0 3.84375 -1.03125 6.875q-1.03125 3.015625 -2.90625 5.125q-1.875 2.109375 -4.5 3.25q-2.609375 1.125 -5.765625 1.125zm0 -6.09375q3.203125 0 5.078125 -2.765625q1.875 -2.765625 1.875 -7.515625q0 -4.703125 -1.875 -7.34375q-1.875 -2.640625 -5.078125 -2.640625q-3.21875 0 -5.09375 2.640625q-1.875 2.640625 -1.875 7.34375q0 4.75 1.875 7.515625q1.875 2.765625 5.09375 2.765625zm20.113312 -25.78125l8.828125 0q3.59375 0 6.46875 0.921875q2.890625 0.90625 4.953125 2.796875q2.0625 1.890625 3.15625 4.828125q1.109375 2.921875 1.109375 6.953125q0 4.03125 -1.109375 7.015625q-1.09375 2.96875 -3.109375 4.921875q-2.015625 1.9375 -4.828125 2.90625q-2.796875 0.953125 -6.265625 0.953125l-9.203125 0l0 -31.296875zm8.390625 25.578125q2.015625 0 3.640625 -0.515625q1.640625 -0.53125 2.796875 -1.703125q1.15625 -1.1875 1.796875 -3.09375q0.640625 -1.921875 0.640625 -4.765625q0 -2.78125 -0.640625 -4.671875q-0.640625 -1.90625 -1.796875 -3.03125q-1.15625 -1.125 -2.796875 -1.59375q-1.625 -0.484375 -3.640625 -0.484375l-1.34375 0l0 19.859375l1.34375 0zm22.089447 -25.578125l19.578125 0l0 5.953125l-12.53125 0l0 6.28125l10.65625 0l0 5.90625l-10.65625 0l0 7.203125l13.015625 0l0 5.953125l-20.0625 0l0 -31.296875zm26.304047 0l7.046875 0l0 25.34375l12.390625 0l0 5.953125l-19.4375 0l0 -31.296875z" fill-rule="nonzero"></path><path fill="#000000" fill-opacity="0.0" d="m988.96063 38.682415l352.47247 0l0 72.220474l-352.47247 0z" fill-rule="nonzero"></path><path fill="#ffffff" d="m1118.9558 60.575775l8.828125 0q3.59375 0 6.46875 0.921875q2.890625 0.90625 4.953125 2.796875q2.0625 1.890625 3.15625 4.828125q1.109375 2.921875 1.109375 6.953125q0 4.03125 -1.109375 7.015625q-1.09375 2.96875 -3.109375 4.921875q-2.015625 1.9375 -4.828125 2.90625q-2.796875 0.953125 -6.265625 0.953125l-9.203125 0l0 -31.296875zm8.390625 25.578125q2.015625 0 3.640625 -0.515625q1.640625 -0.53125 2.796875 -1.703125q1.15625 -1.1875 1.796875 -3.09375q0.640625 -1.921875 0.640625 -4.765625q0 -2.78125 -0.640625 -4.671875q-0.640625 -1.90625 -1.796875 -3.03125q-1.15625 -1.125 -2.796875 -1.59375q-1.625 -0.484375 -3.640625 -0.484375l-1.34375 0l0 19.859375l1.34375 0zm34.808228 6.296875q-3.171875 0 -5.796875 -1.125q-2.609375 -1.140625 -4.484375 -3.25q-1.875 -2.109375 -2.90625 -5.125q-1.03125 -3.03125 -1.03125 -6.875q0 -3.828125 1.03125 -6.828125q1.03125 -3.0 2.90625 -5.046875q1.875 -2.046875 4.484375 -3.125q2.625 -1.078125 5.796875 -1.078125q3.15625 0 5.765625 1.078125q2.625 1.078125 4.5 3.15625q1.875 2.0625 2.90625 5.0625q1.03125 3.0 1.03125 6.78125q0 3.84375 -1.03125 6.875q-1.03125 3.015625 -2.90625 5.125q-1.875 2.109375 -4.5 3.25q-2.609375 1.125 -5.765625 1.125zm0 -6.09375q3.203125 0 5.078125 -2.765625q1.875 -2.765625 1.875 -7.515625q0 -4.703125 -1.875 -7.34375q-1.875 -2.640625 -5.078125 -2.640625q-3.21875 0 -5.09375 2.640625q-1.875 2.640625 -1.875 7.34375q0 4.75 1.875 7.515625q1.875 2.765625 5.09375 2.765625zm20.113281 -25.78125l7.484375 0l5.234375 14.0625l1.859375 5.46875l0.203125 0l1.875 -5.46875l5.078125 -14.0625l7.4375 0l0 31.296875l-6.578125 0l0 -11.46875q0 -1.15625 0.09375 -2.546875q0.109375 -1.390625 0.25 -2.796875q0.140625 -1.421875 0.28125 -2.78125q0.15625 -1.375 0.296875 -2.53125l-0.1875 0l-2.59375 7.25l-4.8125 12.140625l-2.828125 0l-4.796875 -12.140625l-2.5 -7.25l-0.1875 0q0.140625 1.15625 0.28125 2.53125q0.15625 1.359375 0.265625 2.78125q0.125 1.40625 0.21875 2.796875q0.09375 1.390625 0.09375 2.546875l0 11.46875l-6.46875 0l0 -31.296875z" fill-rule="nonzero"></path></g></svg>

