<?xml version="1.0" standalone="yes"?>

<svg version="1.1" viewBox="0.0 0.0 960.0 720.0" fill="none" stroke="none" stroke-linecap="square" stroke-miterlimit="10" xmlns="http://www.w3.org/2000/svg" xmlns:xlink="http://www.w3.org/1999/xlink"><clipPath id="p.0"><path d="m0 0l960.0 0l0 720.0l-960.0 0l0 -720.0z" clip-rule="nonzero"></path></clipPath><g clip-path="url(#p.0)"><path fill="#000000" fill-opacity="0.0" d="m0 0l960.0 0l0 720.0l-960.0 0z" fill-rule="nonzero"></path><path fill="#ffffff" d="m22.276903 199.73753l0 0c0 -26.118286 22.13194 -47.291336 49.433075 -47.291336l0 0c13.110466 0 25.68396 4.9824677 34.95446 13.851303c9.270493 8.868851 14.478607 20.897583 14.478607 33.440033l0 0c0 26.118286 -22.131935 47.291336 -49.433067 47.291336l0 0c-27.301132 0 -49.433075 -21.17305 -49.433075 -47.291336z" fill-rule="nonzero"></path><path stroke="#ffffff" stroke-width="1.0" stroke-linejoin="round" stroke-linecap="butt" d="m22.276903 199.73753l0 0c0 -26.118286 22.13194 -47.291336 49.433075 -47.291336l0 0c13.110466 0 25.68396 4.9824677 34.95446 13.851303c9.270493 8.868851 14.478607 20.897583 14.478607 33.440033l0 0c0 26.118286 -22.131935 47.291336 -49.433067 47.291336l0 0c-27.301132 0 -49.433075 -21.17305 -49.433075 -47.291336z" fill-rule="nonzero"></path><path fill="#ffffff" d="m156.85039 238.5853l0 0c0 -26.118286 22.131943 -47.291336 49.433075 -47.291336l0 0c13.110474 0 25.68396 4.9824677 34.954468 13.851318c9.270493 8.868835 14.478607 20.897583 14.478607 33.440018l0 0c0 26.118286 -22.131943 47.29135 -49.433075 47.29135l0 0c-27.301132 0 -49.433075 -21.173065 -49.433075 -47.29135z" fill-rule="nonzero"></path><path stroke="#ffffff" stroke-width="1.0" stroke-linejoin="round" stroke-linecap="butt" d="m156.85039 238.5853l0 0c0 -26.118286 22.131943 -47.291336 49.433075 -47.291336l0 0c13.110474 0 25.68396 4.9824677 34.954468 13.851318c9.270493 8.868835 14.478607 20.897583 14.478607 33.440018l0 0c0 26.118286 -22.131943 47.29135 -49.433075 47.29135l0 0c-27.301132 0 -49.433075 -21.173065 -49.433075 -47.29135z" fill-rule="nonzero"></path><path fill="#ffffff" d="m5.5052495 348.8714l0 0c0 -26.118286 22.13194 -47.29135 49.43307 -47.29135l0 0c13.110462 0 25.683964 4.982483 34.954456 13.851318c9.2705 8.868835 14.478615 20.897583 14.478615 33.440033l0 0c0 26.118286 -22.131943 47.29132 -49.43307 47.29132l0 0c-27.30113 0 -49.43307 -21.173035 -49.43307 -47.29132z" fill-rule="nonzero"></path><path stroke="#ffffff" stroke-width="1.0" stroke-linejoin="round" stroke-linecap="butt" d="m5.5052495 348.8714l0 0c0 -26.118286 22.13194 -47.29135 49.43307 -47.29135l0 0c13.110462 0 25.683964 4.982483 34.954456 13.851318c9.2705 8.868835 14.478615 20.897583 14.478615 33.440033l0 0c0 26.118286 -22.131943 47.29132 -49.43307 47.29132l0 0c-27.30113 0 -49.43307 -21.173035 -49.43307 -47.29132z" fill-rule="nonzero"></path><path fill="#ffffff" d="m272.48163 358.5643l0 0c0 -26.118286 22.131927 -47.29132 49.433075 -47.29132l0 0c13.110474 0 25.68396 4.9824524 34.954468 13.851288c9.270477 8.868866 14.478607 20.897583 14.478607 33.440033l0 0c0 26.118286 -22.131958 47.29135 -49.433075 47.29135l0 0c-27.301147 0 -49.433075 -21.173065 -49.433075 -47.29135z" fill-rule="nonzero"></path><path stroke="#ffffff" stroke-width="1.0" stroke-linejoin="round" stroke-linecap="butt" d="m272.48163 358.5643l0 0c0 -26.118286 22.131927 -47.29132 49.433075 -47.29132l0 0c13.110474 0 25.68396 4.9824524 34.954468 13.851288c9.270477 8.868866 14.478607 20.897583 14.478607 33.440033l0 0c0 26.118286 -22.131958 47.29135 -49.433075 47.29135l0 0c-27.301147 0 -49.433075 -21.173065 -49.433075 -47.29135z" fill-rule="nonzero"></path><path fill="#ffffff" d="m121.14173 397.1076l0 0c0 -26.118286 22.131935 -47.29132 49.433067 -47.29132l0 0c13.110474 0 25.68396 4.9824524 34.954468 13.851288c9.270493 8.868866 14.478607 20.897583 14.478607 33.440033l0 0c0 26.118286 -22.131943 47.29135 -49.433075 47.29135l0 0c-27.301132 0 -49.433067 -21.173065 -49.433067 -47.29135z" fill-rule="nonzero"></path><path stroke="#ffffff" stroke-width="1.0" stroke-linejoin="round" stroke-linecap="butt" d="m121.14173 397.1076l0 0c0 -26.118286 22.131935 -47.29132 49.433067 -47.29132l0 0c13.110474 0 25.68396 4.9824524 34.954468 13.851288c9.270493 8.868866 14.478607 20.897583 14.478607 33.440033l0 0c0 26.118286 -22.131943 47.29135 -49.433075 47.29135l0 0c-27.301132 0 -49.433067 -21.173065 -49.433067 -47.29135z" fill-rule="nonzero"></path><path fill="#e2272a" d="m111.74278 529.17584l0 0c0 -26.118286 22.131943 -47.29132 49.433075 -47.29132l0 0c13.110458 0 25.68396 4.9824524 34.954453 13.851318c9.270508 8.868835 14.478607 20.897583 14.478607 33.440002l0 0c0 26.118286 -22.131927 47.29132 -49.43306 47.29132l0 0c-27.301132 0 -49.433075 -21.173035 -49.433075 -47.29132z" fill-rule="nonzero"></path><path stroke="#ffffff" stroke-width="4.0" stroke-linejoin="round" stroke-linecap="butt" d="m111.74278 529.17584l0 0c0 -26.118286 22.131943 -47.29132 49.433075 -47.29132l0 0c13.110458 0 25.68396 4.9824524 34.954453 13.851318c9.270508 8.868835 14.478607 20.897583 14.478607 33.440002l0 0c0 26.118286 -22.131927 47.29132 -49.43306 47.29132l0 0c-27.301132 0 -49.433075 -21.173035 -49.433075 -47.29132z" fill-rule="nonzero"></path><path fill="#000000" fill-opacity="0.0" d="m71.70998 247.02887l-16.755909 54.551178" fill-rule="nonzero"></path><path stroke="#ffffff" stroke-width="4.0" stroke-linejoin="round" stroke-linecap="butt" d="m71.70998 247.02887l-16.755909 54.551178" fill-rule="nonzero"></path><path fill="#000000" fill-opacity="0.0" d="m121.14304 199.73753l50.173225 5.417328" fill-rule="nonzero"></path><path stroke="#ffffff" stroke-width="4.0" stroke-linejoin="round" stroke-linecap="butt" d="m121.14304 199.73753l50.173225 5.417328" fill-rule="nonzero"></path><path fill="#000000" fill-opacity="0.0" d="m206.28346 285.87665l-35.716537 63.93701" fill-rule="nonzero"></path><path stroke="#ffffff" stroke-width="4.0" stroke-linejoin="round" stroke-linecap="butt" d="m206.28346 285.87665l-35.716537 63.93701" fill-rule="nonzero"></path><path fill="#000000" fill-opacity="0.0" d="m241.23793 272.02533l45.732285 53.102356" fill-rule="nonzero"></path><path stroke="#ffffff" stroke-width="4.0" stroke-linejoin="round" stroke-linecap="butt" d="m241.23793 272.02533l45.732285 53.102356" fill-rule="nonzero"></path><path fill="#000000" fill-opacity="0.0" d="m170.5748 444.39896l-9.3858185 37.480316" fill-rule="nonzero"></path><path stroke="#ffffff" stroke-width="4.0" stroke-linejoin="round" stroke-linecap="butt" d="m170.5748 444.39896l-9.3858185 37.480316" fill-rule="nonzero"></path><path fill="#000000" fill-opacity="0.0" d="m286.96024 392.00433l-66.96063 5.102356" fill-rule="nonzero"></path><path stroke="#ffffff" stroke-width="4.0" stroke-linejoin="round" stroke-linecap="butt" d="m286.96024 392.00433l-66.96063 5.102356" fill-rule="nonzero"></path><path fill="#000000" fill-opacity="0.0" d="m286.96024 392.00433l-90.83464 103.71652" fill-rule="nonzero"></path><path stroke="#ffffff" stroke-width="4.0" stroke-linejoin="round" stroke-linecap="butt" d="m286.96024 392.00433l-90.83464 103.71652" fill-rule="nonzero"></path><path fill="#ffffff" d="m739.9668 165.86902l0 0c0 -7.4132233 6.0096436 -13.422836 13.422852 -13.422836l105.1228 0c3.5599976 0 6.974121 1.4141846 9.491394 3.9314575c2.517273 2.517273 3.9314575 5.931427 3.9314575 9.491379l0 53.68976c0 7.4132233 -6.0095825 13.422836 -13.422852 13.422836l-105.1228 0c-7.413208 0 -13.422852 -6.009613 -13.422852 -13.422836z" fill-rule="nonzero"></path><path stroke="#ffffff" stroke-width="1.0" stroke-linejoin="round" stroke-linecap="butt" d="m739.9668 165.86902l0 0c0 -7.4132233 6.0096436 -13.422836 13.422852 -13.422836l105.1228 0c3.5599976 0 6.974121 1.4141846 9.491394 3.9314575c2.517273 2.517273 3.9314575 5.931427 3.9314575 9.491379l0 53.68976c0 7.4132233 -6.0095825 13.422836 -13.422852 13.422836l-105.1228 0c-7.413208 0 -13.422852 -6.009613 -13.422852 -13.422836z" fill-rule="nonzero"></path><path fill="#ffffff" d="m819.9692 285.0621l0 0c0 -7.4132385 6.0095825 -13.422821 13.422852 -13.422821l105.1228 0c3.5599365 0 6.974121 1.4141846 9.491394 3.9314575c2.517273 2.517273 3.9314575 5.9313965 3.9314575 9.491364l0 53.68976c0 7.4132385 -6.0096436 13.422852 -13.422852 13.422852l-105.1228 0c-7.413269 0 -13.422852 -6.009613 -13.422852 -13.422852z" fill-rule="nonzero"></path><path stroke="#ffffff" stroke-width="1.0" stroke-linejoin="round" stroke-linecap="butt" d="m819.9692 285.0621l0 0c0 -7.4132385 6.0095825 -13.422821 13.422852 -13.422821l105.1228 0c3.5599365 0 6.974121 1.4141846 9.491394 3.9314575c2.517273 2.517273 3.9314575 5.9313965 3.9314575 9.491364l0 53.68976c0 7.4132385 -6.0096436 13.422852 -13.422852 13.422852l-105.1228 0c-7.413269 0 -13.422852 -6.009613 -13.422852 -13.422852z" fill-rule="nonzero"></path><path fill="#ffffff" d="m662.75525 285.0621l0 0c0 -7.4132385 6.0095825 -13.422821 13.422852 -13.422821l105.1228 0c3.5599365 0 6.974121 1.4141846 9.491394 3.9314575c2.517273 2.517273 3.9314575 5.9313965 3.9314575 9.491364l0 53.68976c0 7.4132385 -6.0096436 13.422852 -13.422852 13.422852l-105.1228 0c-7.413269 0 -13.422852 -6.009613 -13.422852 -13.422852z" fill-rule="nonzero"></path><path stroke="#ffffff" stroke-width="1.0" stroke-linejoin="round" stroke-linecap="butt" d="m662.75525 285.0621l0 0c0 -7.4132385 6.0095825 -13.422821 13.422852 -13.422821l105.1228 0c3.5599365 0 6.974121 1.4141846 9.491394 3.9314575c2.517273 2.517273 3.9314575 5.9313965 3.9314575 9.491364l0 53.68976c0 7.4132385 -6.0096436 13.422852 -13.422852 13.422852l-105.1228 0c-7.413269 0 -13.422852 -6.009613 -13.422852 -13.422852z" fill-rule="nonzero"></path><path fill="#e2272a" d="m739.9668 404.2552l0 0c0 -7.413208 6.0096436 -13.422821 13.422852 -13.422821l105.1228 0c3.5599976 0 6.974121 1.4141846 9.491394 3.9314575c2.517273 2.517273 3.9314575 5.931427 3.9314575 9.491364l0 53.68976c0 7.4132385 -6.0095825 13.422852 -13.422852 13.422852l-105.1228 0c-7.413208 0 -13.422852 -6.009613 -13.422852 -13.422852z" fill-rule="nonzero"></path><path stroke="#ffffff" stroke-width="4.0" stroke-linejoin="round" stroke-linecap="butt" d="m739.9668 404.2552l0 0c0 -7.413208 6.0096436 -13.422821 13.422852 -13.422821l105.1228 0c3.5599976 0 6.974121 1.4141846 9.491394 3.9314575c2.517273 2.517273 3.9314575 5.931427 3.9314575 9.491364l0 53.68976c0 7.4132385 -6.0095825 13.422852 -13.422852 13.422852l-105.1228 0c-7.413208 0 -13.422852 -6.009613 -13.422852 -13.422852z" fill-rule="nonzero"></path><path fill="#ffffff" d="m581.0801 404.2552l0 0c0 -7.413208 6.0095825 -13.422821 13.422791 -13.422821l105.12286 0c3.5599365 0 6.974121 1.4141846 9.491394 3.9314575c2.517212 2.517273 3.9314575 5.931427 3.9314575 9.491364l0 53.68976c0 7.4132385 -6.0096436 13.422852 -13.422852 13.422852l-105.12286 0c-7.413208 0 -13.422791 -6.009613 -13.422791 -13.422852z" fill-rule="nonzero"></path><path stroke="#ffffff" stroke-width="1.0" stroke-linejoin="round" stroke-linecap="butt" d="m581.0801 404.2552l0 0c0 -7.413208 6.0095825 -13.422821 13.422791 -13.422821l105.12286 0c3.5599365 0 6.974121 1.4141846 9.491394 3.9314575c2.517212 2.517273 3.9314575 5.931427 3.9314575 9.491364l0 53.68976c0 7.4132385 -6.0096436 13.422852 -13.422852 13.422852l-105.12286 0c-7.413208 0 -13.422791 -6.009613 -13.422791 -13.422852z" fill-rule="nonzero"></path><path fill="#ffffff" d="m794.70526 523.4483l0 0c0 -7.413269 6.0096436 -13.422852 13.422852 -13.422852l105.1228 0c3.5599976 0 6.974121 1.4141846 9.491394 3.9314575c2.517273 2.517273 3.9314575 5.9313965 3.9314575 9.491394l0 53.68976c0 7.413208 -6.0095825 13.422791 -13.422852 13.422791l-105.1228 0c-7.413208 0 -13.422852 -6.0095825 -13.422852 -13.422791z" fill-rule="nonzero"></path><path stroke="#ffffff" stroke-width="1.0" stroke-linejoin="round" stroke-linecap="butt" d="m794.70526 523.4483l0 0c0 -7.413269 6.0096436 -13.422852 13.422852 -13.422852l105.1228 0c3.5599976 0 6.974121 1.4141846 9.491394 3.9314575c2.517273 2.517273 3.9314575 5.9313965 3.9314575 9.491394l0 53.68976c0 7.413208 -6.0095825 13.422791 -13.422852 13.422791l-105.1228 0c-7.413208 0 -13.422852 -6.0095825 -13.422852 -13.422791z" fill-rule="nonzero"></path><path fill="#000000" fill-opacity="0.0" d="m805.95105 232.98161l-77.19684 38.645676" fill-rule="nonzero"></path><path stroke="#ffffff" stroke-width="4.0" stroke-linejoin="round" stroke-linecap="butt" d="m805.95105 232.98161l-77.19684 38.645676" fill-rule="nonzero"></path><path fill="#000000" fill-opacity="0.0" d="m805.95105 232.98161l80.0 38.645676" fill-rule="nonzero"></path><path stroke="#ffffff" stroke-width="4.0" stroke-linejoin="round" stroke-linecap="butt" d="m805.95105 232.98161l80.0 38.645676" fill-rule="nonzero"></path><path fill="#000000" fill-opacity="0.0" d="m885.9534 352.1747l0 0" fill-rule="nonzero"></path><path stroke="#ffffff" stroke-width="4.0" stroke-linejoin="round" stroke-linecap="butt" d="m885.9534 352.1747l0 0" fill-rule="nonzero"></path><path fill="#000000" fill-opacity="0.0" d="m728.7395 352.1747l77.19684 38.64566" fill-rule="nonzero"></path><path stroke="#ffffff" stroke-width="4.0" stroke-linejoin="round" stroke-linecap="butt" d="m728.7395 352.1747l77.19684 38.64566" fill-rule="nonzero"></path><path fill="#000000" fill-opacity="0.0" d="m805.95105 471.3678l54.740173 38.64566" fill-rule="nonzero"></path><path stroke="#ffffff" stroke-width="4.0" stroke-linejoin="round" stroke-linecap="butt" d="m805.95105 471.3678l54.740173 38.64566" fill-rule="nonzero"></path><path fill="#000000" fill-opacity="0.0" d="m728.7395 352.1747l-81.66931 38.64566" fill-rule="nonzero"></path><path stroke="#ffffff" stroke-width="4.0" stroke-linejoin="round" stroke-linecap="butt" d="m728.7395 352.1747l-81.66931 38.64566" fill-rule="nonzero"></path><path fill="#000000" fill-opacity="0.0" d="m5.5065618 46.795277l352.47244 0l0 72.220474l-352.47244 0z" fill-rule="nonzero"></path><path fill="#ffffff" d="m109.91776 68.68864l7.484375 0l5.234375 14.0625l1.859375 5.46875l0.203125 0l1.875 -5.46875l5.0781326 -14.0625l7.4374847 0l0 31.296875l-6.5781097 0l0 -11.46875q0 -1.15625 0.09375 -2.546875q0.109375 -1.390625 0.25 -2.796875q0.140625 -1.421875 0.28125 -2.78125q0.15625 -1.375 0.296875 -2.53125l-0.1875 0l-2.59375 7.25l-4.8125076 12.140625l-2.828125 0l-4.796875 -12.140625l-2.5 -7.25l-0.1875 0q0.140625 1.15625 0.28125 2.53125q0.15625 1.359375 0.265625 2.78125q0.125 1.40625 0.21875 2.796875q0.09375 1.390625 0.09375 2.546875l0 11.46875l-6.46875 0l0 -31.296875zm49.294823 31.875q-3.171875 0 -5.796875 -1.125q-2.609375 -1.140625 -4.484375 -3.25q-1.875 -2.109375 -2.90625 -5.125q-1.03125 -3.03125 -1.03125 -6.875q0 -3.828125 1.03125 -6.828125q1.03125 -3.0 2.90625 -5.046875q1.875 -2.046875 4.484375 -3.125q2.625 -1.078125 5.796875 -1.078125q3.15625 0 5.765625 1.078125q2.625 1.078125 4.5 3.15625q1.875 2.0625 2.90625 5.0625q1.03125 3.0 1.03125 6.78125q0 3.84375 -1.03125 6.875q-1.03125 3.015625 -2.90625 5.125q-1.875 2.109375 -4.5 3.25q-2.609375 1.125 -5.765625 1.125zm0 -6.09375q3.203125 0 5.078125 -2.765625q1.875 -2.765625 1.875 -7.515625q0 -4.703125 -1.875 -7.34375q-1.875 -2.640625 -5.078125 -2.640625q-3.21875 0 -5.09375 2.640625q-1.875 2.640625 -1.875 7.34375q0 4.75 1.875 7.515625q1.875 2.765625 5.09375 2.765625zm20.113312 -25.78125l8.828125 0q3.59375 0 6.46875 0.921875q2.890625 0.90625 4.953125 2.796875q2.0625 1.890625 3.15625 4.828125q1.109375 2.921875 1.109375 6.953125q0 4.03125 -1.109375 7.015625q-1.09375 2.96875 -3.109375 4.921875q-2.015625 1.9375 -4.828125 2.90625q-2.796875 0.953125 -6.265625 0.953125l-9.203125 0l0 -31.296875zm8.390625 25.578125q2.015625 0 3.640625 -0.515625q1.640625 -0.53125 2.796875 -1.703125q1.15625 -1.1875 1.796875 -3.09375q0.640625 -1.921875 0.640625 -4.765625q0 -2.78125 -0.640625 -4.671875q-0.640625 -1.90625 -1.796875 -3.03125q-1.15625 -1.125 -2.796875 -1.59375q-1.625 -0.484375 -3.640625 -0.484375l-1.34375 0l0 19.859375l1.34375 0zm22.089447 -25.578125l19.578125 0l0 5.953125l-12.53125 0l0 6.28125l10.65625 0l0 5.90625l-10.65625 0l0 7.203125l13.015625 0l0 5.953125l-20.0625 0l0 -31.296875zm26.304047 0l7.046875 0l0 25.34375l12.390625 0l0 5.953125l-19.4375 0l0 -31.296875z" fill-rule="nonzero"></path><path fill="#000000" fill-opacity="0.0" d="m590.27295 45.131233l352.47247 0l0 72.220474l-352.47247 0z" fill-rule="nonzero"></path><path fill="#ffffff" d="m720.2682 67.0246l8.828125 0q3.59375 0 6.46875 0.921875q2.890625 0.90625 4.953125 2.796875q2.0625 1.890625 3.15625 4.828125q1.109375 2.921875 1.109375 6.953125q0 4.03125 -1.109375 7.015625q-1.09375 2.96875 -3.109375 4.921875q-2.015625 1.9375 -4.828125 2.90625q-2.796875 0.953125 -6.265625 0.953125l-9.203125 0l0 -31.296875zm8.390625 25.578125q2.015625 0 3.640625 -0.515625q1.640625 -0.53125 2.796875 -1.703125q1.15625 -1.1875 1.796875 -3.09375q0.640625 -1.921875 0.640625 -4.765625q0 -2.78125 -0.640625 -4.671875q-0.640625 -1.90625 -1.796875 -3.03125q-1.15625 -1.125 -2.796875 -1.59375q-1.625 -0.484375 -3.640625 -0.484375l-1.34375 0l0 19.859375l1.34375 0zm34.808228 6.296875q-3.171875 0 -5.796875 -1.125q-2.609375 -1.140625 -4.484375 -3.25q-1.875 -2.109375 -2.90625 -5.125q-1.03125 -3.03125 -1.03125 -6.875q0 -3.828125 1.03125 -6.828125q1.03125 -3.0 2.90625 -5.046875q1.875 -2.046875 4.484375 -3.125q2.625 -1.078125 5.796875 -1.078125q3.15625 0 5.765625 1.078125q2.625 1.078125 4.5 3.15625q1.875 2.0625 2.90625 5.0625q1.03125 3.0 1.03125 6.78125q0 3.84375 -1.03125 6.875q-1.03125 3.015625 -2.90625 5.125q-1.875 2.109375 -4.5 3.25q-2.609375 1.125 -5.765625 1.125zm0 -6.09375q3.203125 0 5.078125 -2.765625q1.875 -2.765625 1.875 -7.515625q0 -4.703125 -1.875 -7.34375q-1.875 -2.640625 -5.078125 -2.640625q-3.21875 0 -5.09375 2.640625q-1.875 2.640625 -1.875 7.34375q0 4.75 1.875 7.515625q1.875 2.765625 5.09375 2.765625zm20.113281 -25.78125l7.484375 0l5.234375 14.0625l1.859375 5.46875l0.203125 0l1.875 -5.46875l5.078125 -14.0625l7.4375 0l0 31.296875l-6.578125 0l0 -11.46875q0 -1.15625 0.09375 -2.546875q0.109375 -1.390625 0.25 -2.796875q0.140625 -1.421875 0.28125 -2.78125q0.15625 -1.375 0.296875 -2.53125l-0.1875 0l-2.59375 7.25l-4.8125 12.140625l-2.828125 0l-4.796875 -12.140625l-2.5 -7.25l-0.1875 0q0.140625 1.15625 0.28125 2.53125q0.15625 1.359375 0.265625 2.78125q0.125 1.40625 0.21875 2.796875q0.09375 1.390625 0.09375 2.546875l0 11.46875l-6.46875 0l0 -31.296875z" fill-rule="nonzero"></path><path fill="#000000" fill-opacity="0.0" d="m303.7638 199.48557l352.4724 0l0 72.22046l-352.4724 0z" fill-rule="nonzero"></path><path fill="#ffffff" d="m323.57828 236.8708q0 -3.15625 0.875 -5.671875q0.890625 -2.515625 2.4375 -4.28125q1.5625 -1.765625 3.703125 -2.703125q2.140625 -0.9375 4.671875 -0.9375q2.390625 0 4.1875 0.984375q1.8125 0.96875 2.96875 2.25l-1.875 2.125q-1.046875 -1.125 -2.3125 -1.78125q-1.25 -0.65625 -2.9375 -0.65625q-1.875 0 -3.40625 0.75q-1.515625 0.734375 -2.59375 2.109375q-1.078125 1.375 -1.6875 3.34375q-0.59375 1.953125 -0.59375 4.390625q0 2.484375 0.578125 4.46875q0.59375 1.96875 1.625 3.375q1.046875 1.40625 2.546875 2.171875q1.5 0.75 3.375 0.75q1.921875 0 3.34375 -0.75q1.421875 -0.765625 2.703125 -2.171875l1.875 2.046875q-1.5625 1.796875 -3.53125 2.796875q-1.953125 1.0 -4.46875 1.0q-2.484375 0 -4.59375 -0.921875q-2.09375 -0.921875 -3.640625 -2.65625q-1.53125 -1.75 -2.390625 -4.28125q-0.859375 -2.546875 -0.859375 -5.75zm24.043121 -15.359375l3.28125 0l0 7.765625l-0.125 4.0q1.40625 -1.328125 2.921875 -2.265625q1.515625 -0.9375 3.5625 -0.9375q3.078125 0 4.5 1.921875q1.421875 1.921875 1.421875 5.6875l0 12.3125l-3.28125 0l0 -11.875q0 -2.765625 -0.890625 -3.984375q-0.875 -1.21875 -2.796875 -1.21875q-1.515625 0 -2.671875 0.765625q-1.15625 0.75 -2.640625 2.234375l0 14.078125l-3.28125 0l0 -28.484375zm20.79123 23.4375q0 -3.1875 2.859375 -4.890625q2.875 -1.703125 9.109375 -2.375q0 -0.921875 -0.1875 -1.796875q-0.171875 -0.890625 -0.640625 -1.5625q-0.453125 -0.6875 -1.21875 -1.109375q-0.75 -0.421875 -1.953125 -0.421875q-1.71875 0 -3.1875 0.640625q-1.453125 0.640625 -2.609375 1.4375l-1.328125 -2.28125q1.359375 -0.875 3.3125 -1.6875q1.96875 -0.828125 4.328125 -0.828125q3.5625 0 5.15625 2.1875q1.609375 2.171875 1.609375 5.8125l0 11.921875l-2.71875 0l-0.28125 -2.3125l-0.078125 0q-1.40625 1.15625 -3.03125 1.984375q-1.609375 0.8125 -3.40625 0.8125q-2.484375 0 -4.109375 -1.4375q-1.625 -1.453125 -1.625 -4.09375zm3.25 -0.234375q0 1.6875 0.96875 2.40625q0.984375 0.71875 2.421875 0.71875q1.40625 0 2.65625 -0.65625q1.265625 -0.671875 2.671875 -1.953125l0 -5.390625q-2.4375 0.3125 -4.125 0.765625q-1.671875 0.4375 -2.703125 1.03125q-1.015625 0.59375 -1.453125 1.375q-0.4375 0.78125 -0.4375 1.703125zm18.19873 -14.15625l2.71875 0l0.28125 2.796875l0.125 0q1.390625 -1.40625 2.921875 -2.34375q1.546875 -0.9375 3.59375 -0.9375q3.078125 0 4.5 1.921875q1.421875 1.921875 1.421875 5.6875l0 12.3125l-3.28125 0l0 -11.875q0 -2.765625 -0.890625 -3.984375q-0.875 -1.21875 -2.796875 -1.21875q-1.515625 0 -2.671875 0.765625q-1.15625 0.75 -2.640625 2.234375l0 14.078125l-3.28125 0l0 -19.4375zm23.286224 22.71875q0 1.5625 1.5 2.484375q1.5 0.92185974 4.125 0.92185974q1.40625 0 2.546875 -0.34375q1.140625 -0.34373474 1.9375 -0.89060974q0.796875 -0.53125 1.234375 -1.25q0.453125 -0.71875 0.453125 -1.484375q0 -1.359375 -1.0 -1.890625q-1.0 -0.515625 -2.921875 -0.515625l-3.359375 0q-0.5625 0 -1.234375 -0.0625q-0.65625 -0.046875 -1.28125 -0.25q-1.046875 0.765625 -1.53125 1.59375q-0.46875 0.84375 -0.46875 1.6875zm-2.890625 0.4375q0 -1.234375 0.75 -2.359375q0.765625 -1.125 2.09375 -2.046875l0 -0.15625q-0.71875 -0.4375 -1.21875 -1.21875q-0.5 -0.78125 -0.5 -1.9375q0 -1.234375 0.671875 -2.15625q0.6875 -0.921875 1.453125 -1.4375l0 -0.171875q-0.96875 -0.796875 -1.75 -2.125q-0.78125 -1.34375 -0.78125 -3.109375q0 -1.59375 0.578125 -2.875q0.59375 -1.28125 1.59375 -2.171875q1.0 -0.90625 2.328125 -1.390625q1.34375 -0.484375 2.828125 -0.484375q0.796875 0 1.5 0.140625q0.703125 0.140625 1.25 0.34375l6.765625 0l0 2.515625l-4.0 0q0.6875 0.6875 1.140625 1.734375q0.453125 1.03125 0.453125 2.265625q0 1.5625 -0.5625 2.828125q-0.546875 1.25 -1.515625 2.109375q-0.953125 0.859375 -2.265625 1.34375q-1.296875 0.484375 -2.765625 0.484375q-0.71875 0 -1.484375 -0.171875q-0.765625 -0.1875 -1.4375 -0.515625q-0.515625 0.4375 -0.875 0.984375q-0.359375 0.546875 -0.359375 1.34375q0 0.921875 0.71875 1.515625q0.71875 0.59375 2.71875 0.59375l3.75 0q3.40625 0 5.109375 1.109375q1.703125 1.09375 1.703125 3.53125q0 1.359375 -0.6875 2.578125q-0.6875 1.2343597 -1.96875 2.1406097q-1.265625 0.921875 -3.09375 1.453125q-1.8125 0.546875 -4.09375 0.546875q-1.796875 0 -3.28125 -0.34375q-1.484375 -0.328125 -2.546875 -1.015625q-1.0625 -0.671875 -1.640625 -1.6406097q-0.578125 -0.953125 -0.578125 -2.234375zm8.046875 -12.078125q0.84375 0 1.578125 -0.3125q0.734375 -0.328125 1.3125 -0.921875q0.578125 -0.609375 0.890625 -1.46875q0.328125 -0.859375 0.328125 -1.9375q0 -2.15625 -1.203125 -3.328125q-1.1875 -1.1875 -2.90625 -1.1875q-1.71875 0 -2.921875 1.1875q-1.203125 1.171875 -1.203125 3.328125q0 1.078125 0.3125 1.9375q0.328125 0.859375 0.90625 1.46875q0.578125 0.59375 1.3125 0.921875q0.75 0.3125 1.59375 0.3125zm12.159973 -1.328125q0 -2.390625 0.734375 -4.28125q0.734375 -1.90625 1.953125 -3.21875q1.234375 -1.328125 2.78125 -2.03125q1.5625 -0.703125 3.25 -0.703125q1.84375 0 3.296875 0.640625q1.453125 0.640625 2.4375 1.84375q0.984375 1.203125 1.5 2.890625q0.515625 1.671875 0.515625 3.75q0 1.078125 -0.109375 1.796875l-13.125 0q0.203125 3.15625 1.9375 5.0q1.75 1.84375 4.546875 1.84375q1.390625 0 2.5625 -0.421875q1.1875 -0.421875 2.28125 -1.109375l1.15625 2.171875q-1.28125 0.796875 -2.84375 1.40625q-1.5625 0.59375 -3.5625 0.59375q-1.953125 0 -3.65625 -0.703125q-1.703125 -0.703125 -2.96875 -2.0q-1.25 -1.296875 -1.96875 -3.171875q-0.71875 -1.890625 -0.71875 -4.296875zm13.59375 -1.46875q0 -3.0 -1.265625 -4.578125q-1.25 -1.578125 -3.53125 -1.578125q-1.046875 0 -1.984375 0.421875q-0.9375 0.40625 -1.703125 1.1875q-0.75 0.78125 -1.25 1.921875q-0.5 1.140625 -0.65625 2.625l10.390625 0zm15.763733 -17.328125l3.28125 0l0 7.765625l-0.125 4.0q1.40625 -1.328125 2.921875 -2.265625q1.515625 -0.9375 3.5625 -0.9375q3.078125 0 4.5 1.921875q1.421875 1.921875 1.421875 5.6875l0 12.3125l-3.28125 0l0 -11.875q0 -2.765625 -0.890625 -3.984375q-0.875 -1.21875 -2.796875 -1.21875q-1.515625 0 -2.671875 0.765625q-1.15625 0.75 -2.640625 2.234375l0 14.078125l-3.28125 0l0 -28.484375zm20.79123 23.4375q0 -3.1875 2.859375 -4.890625q2.875 -1.703125 9.109375 -2.375q0 -0.921875 -0.1875 -1.796875q-0.171875 -0.890625 -0.640625 -1.5625q-0.453125 -0.6875 -1.21875 -1.109375q-0.75 -0.421875 -1.953125 -0.421875q-1.71875 0 -3.1875 0.640625q-1.453125 0.640625 -2.609375 1.4375l-1.328125 -2.28125q1.359375 -0.875 3.3125 -1.6875q1.96875 -0.828125 4.328125 -0.828125q3.5625 0 5.15625 2.1875q1.609375 2.171875 1.609375 5.8125l0 11.921875l-2.71875 0l-0.28125 -2.3125l-0.078125 0q-1.40625 1.15625 -3.03125 1.984375q-1.609375 0.8125 -3.40625 0.8125q-2.484375 0 -4.109375 -1.4375q-1.625 -1.453125 -1.625 -4.09375zm3.25 -0.234375q0 1.6875 0.96875 2.40625q0.984375 0.71875 2.421875 0.71875q1.40625 0 2.65625 -0.65625q1.265625 -0.671875 2.671875 -1.953125l0 -5.390625q-2.4375 0.3125 -4.125 0.765625q-1.671875 0.4375 -2.703125 1.03125q-1.015625 0.59375 -1.453125 1.375q-0.4375 0.78125 -0.4375 1.703125zm21.47998 6.921875l0 6.5624847l-3.28125 0l0 -27.64061l2.71875 0l0.28125 2.234375l0.125 0q1.3125 -1.109375 2.890625 -1.90625q1.578125 -0.8125 3.296875 -0.8125q1.8905945 0 3.3280945 0.703125q1.4375 0.703125 2.390625 2.0q0.96875 1.296875 1.46875 3.125q0.5 1.8125 0.5 4.09375q0 2.484375 -0.6875 4.421875q-0.671875 1.9375 -1.84375 3.296875q-1.15625 1.359375 -2.671875 2.0625q-1.515625 0.703125 -3.2030945 0.703125q-1.359375 0 -2.703125 -0.59375q-1.328125 -0.609375 -2.6875 -1.65625l0.078125 3.40625zm0 -5.953125q1.3125 1.109375 2.546875 1.578125q1.25 0.453125 2.203125 0.453125q1.203125 0 2.2187195 -0.53125q1.03125 -0.546875 1.765625 -1.515625q0.75 -0.984375 1.15625 -2.421875q0.421875 -1.453125 0.421875 -3.25q0 -1.59375 -0.28125 -2.90625q-0.28125 -1.328125 -0.90625 -2.265625q-0.609375 -0.953125 -1.59375 -1.46875q-0.9687195 -0.515625 -2.3280945 -0.515625q-1.25 0 -2.515625 0.6875q-1.25 0.671875 -2.6875 1.953125l0 10.203125zm22.199982 5.953125l0 6.5624847l-3.28125 0l0 -27.64061l2.71875 0l0.28125 2.234375l0.125 0q1.3125 -1.109375 2.890625 -1.90625q1.578125 -0.8125 3.296875 -0.8125q1.890625 0 3.328125 0.703125q1.4375 0.703125 2.390625 2.0q0.96875 1.296875 1.46875 3.125q0.5 1.8125 0.5 4.09375q0 2.484375 -0.6875 4.421875q-0.671875 1.9375 -1.84375 3.296875q-1.15625 1.359375 -2.671875 2.0625q-1.515625 0.703125 -3.203125 0.703125q-1.359375 0 -2.703125 -0.59375q-1.328125 -0.609375 -2.6875 -1.65625l0.078125 3.40625zm0 -5.953125q1.3125 1.109375 2.546875 1.578125q1.25 0.453125 2.203125 0.453125q1.203125 0 2.21875 -0.53125q1.03125 -0.546875 1.765625 -1.515625q0.75 -0.984375 1.15625 -2.421875q0.421875 -1.453125 0.421875 -3.25q0 -1.59375 -0.28125 -2.90625q-0.28125 -1.328125 -0.90625 -2.265625q-0.609375 -0.953125 -1.59375 -1.46875q-0.96875 -0.515625 -2.328125 -0.515625q-1.25 0 -2.515625 0.6875q-1.25 0.671875 -2.6875 1.953125l0 10.203125zm17.481201 -5.375q0 -2.390625 0.734375 -4.28125q0.734375 -1.90625 1.953125 -3.21875q1.234375 -1.328125 2.78125 -2.03125q1.5625 -0.703125 3.25 -0.703125q1.84375 0 3.296875 0.640625q1.453125 0.640625 2.4375 1.84375q0.984375 1.203125 1.5 2.890625q0.515625 1.671875 0.515625 3.75q0 1.078125 -0.109375 1.796875l-13.125 0q0.203125 3.15625 1.9375 5.0q1.75 1.84375 4.546875 1.84375q1.390625 0 2.5625 -0.421875q1.1875 -0.421875 2.28125 -1.109375l1.15625 2.171875q-1.28125 0.796875 -2.84375 1.40625q-1.5625 0.59375 -3.5625 0.59375q-1.953125 0 -3.65625 -0.703125q-1.703125 -0.703125 -2.96875 -2.0q-1.25 -1.296875 -1.96875 -3.171875q-0.71875 -1.890625 -0.71875 -4.296875zm13.59375 -1.46875q0 -3.0 -1.265625 -4.578125q-1.25 -1.578125 -3.53125 -1.578125q-1.046875 0 -1.984375 0.421875q-0.9375 0.40625 -1.703125 1.1875q-0.75 0.78125 -1.25 1.921875q-0.5 1.140625 -0.65625 2.625l10.390625 0zm7.683777 -8.28125l2.71875 0l0.28125 2.796875l0.125 0q1.390625 -1.40625 2.921875 -2.34375q1.546875 -0.9375 3.59375 -0.9375q3.078125 0 4.5 1.921875q1.421875 1.921875 1.421875 5.6875l0 12.3125l-3.28125 0l0 -11.875q0 -2.765625 -0.890625 -3.984375q-0.875 -1.21875 -2.796875 -1.21875q-1.515625 0 -2.671875 0.765625q-1.15625 0.75 -2.640625 2.234375l0 14.078125l-3.28125 0l0 -19.4375zm20.442444 9.75q0 -2.390625 0.734375 -4.28125q0.734375 -1.90625 1.953125 -3.21875q1.234375 -1.328125 2.78125 -2.03125q1.5625 -0.703125 3.25 -0.703125q1.84375 0 3.296875 0.640625q1.453125 0.640625 2.4375 1.84375q0.984375 1.203125 1.5 2.890625q0.515625 1.671875 0.515625 3.75q0 1.078125 -0.109375 1.796875l-13.125 0q0.203125 3.15625 1.9375 5.0q1.75 1.84375 4.546875 1.84375q1.390625 0 2.5625 -0.421875q1.1875 -0.421875 2.28125 -1.109375l1.15625 2.171875q-1.28125 0.796875 -2.84375 1.40625q-1.5625 0.59375 -3.5625 0.59375q-1.953125 0 -3.65625 -0.703125q-1.703125 -0.703125 -2.96875 -2.0q-1.25 -1.296875 -1.96875 -3.171875q-0.71875 -1.890625 -0.71875 -4.296875zm13.59375 -1.46875q0 -3.0 -1.265625 -4.578125q-1.25 -1.578125 -3.53125 -1.578125q-1.046875 0 -1.984375 0.421875q-0.9375 0.40625 -1.703125 1.1875q-0.75 0.78125 -1.25 1.921875q-0.5 1.140625 -0.65625 2.625l10.390625 0zm6.277527 1.46875q0 -2.359375 0.703125 -4.25q0.703125 -1.90625 1.859375 -3.21875q1.15625 -1.328125 2.671875 -2.046875q1.53125 -0.71875 3.203125 -0.71875q1.6875 0 2.921875 0.609375q1.25 0.59375 2.53125 1.625l-0.171875 -3.3125l0 -7.484375l3.328125 0l0 28.484375l-2.71875 0l-0.28125 -2.28125l-0.125 0q-1.15625 1.125 -2.65625 1.953125q-1.5 0.8125 -3.21875 0.8125q-3.6875 0 -5.875 -2.640625q-2.171875 -2.640625 -2.171875 -7.53125zm3.40625 -0.03125q0 3.515625 1.390625 5.484375q1.40625 1.953125 3.96875 1.953125q1.359375 0 2.5625 -0.65625q1.203125 -0.65625 2.390625 -2.015625l0 -10.171875q-1.234375 -1.109375 -2.375 -1.5625q-1.140625 -0.46875 -2.34375 -0.46875q-1.15625 0 -2.171875 0.546875q-1.015625 0.53125 -1.78125 1.515625q-0.765625 0.96875 -1.203125 2.328125q-0.4375 1.359375 -0.4375 3.046875zm21.121826 -13.328125l-0.078125 -3.75l3.3125 0l-0.078125 3.75l-0.4375 15.125l-2.28125 0l-0.4375 -15.125zm-0.796875 21.046875q0 -1.15625 0.6875 -1.859375q0.703125 -0.703125 1.703125 -0.703125q0.96875 0 1.65625 0.703125q0.703125 0.703125 0.703125 1.859375q0 1.078125 -0.703125 1.78125q-0.6875 0.703125 -1.65625 0.703125q-1.0 0 -1.703125 -0.703125q-0.6875 -0.703125 -0.6875 -1.78125z" fill-rule="nonzero"></path></g></svg>

