<?xml version="1.0" standalone="yes"?>

<svg version="1.1" viewBox="0.0 0.0 960.0 720.0" fill="none" stroke="none" stroke-linecap="square" stroke-miterlimit="10" xmlns="http://www.w3.org/2000/svg" xmlns:xlink="http://www.w3.org/1999/xlink"><clipPath id="p.0"><path d="m0 0l960.0 0l0 720.0l-960.0 0l0 -720.0z" clip-rule="nonzero"></path></clipPath><g clip-path="url(#p.0)"><path fill="#000000" fill-opacity="0.0" d="m0 0l960.0 0l0 720.0l-960.0 0z" fill-rule="nonzero"></path><path fill="#ffffff" d="m-378.03018 152.94226l0 0c0 -26.118286 22.131927 -47.291344 49.433075 -47.291344l0 0c13.110474 0 25.68396 4.9824677 34.954437 13.851311c9.270508 8.868851 14.478638 20.897583 14.478638 33.440033l0 0c0 26.118286 -22.131958 47.291336 -49.433075 47.291336l0 0c-27.301147 0 -49.433075 -21.17305 -49.433075 -47.291336z" fill-rule="nonzero"></path><path stroke="#ffffff" stroke-width="1.0" stroke-linejoin="round" stroke-linecap="butt" d="m-378.03018 152.94226l0 0c0 -26.118286 22.131927 -47.291344 49.433075 -47.291344l0 0c13.110474 0 25.68396 4.9824677 34.954437 13.851311c9.270508 8.868851 14.478638 20.897583 14.478638 33.440033l0 0c0 26.118286 -22.131958 47.291336 -49.433075 47.291336l0 0c-27.301147 0 -49.433075 -21.17305 -49.433075 -47.291336z" fill-rule="nonzero"></path><path fill="#ffffff" d="m-243.4567 191.79002l0 0c0 -26.118286 22.131943 -47.291336 49.433075 -47.291336l0 0c13.110458 0 25.68396 4.9824677 34.954453 13.851318c9.270508 8.868835 14.478622 20.897583 14.478622 33.440018l0 0c0 26.118286 -22.131943 47.291336 -49.433075 47.291336l0 0c-27.301132 0 -49.433075 -21.17305 -49.433075 -47.291336z" fill-rule="nonzero"></path><path stroke="#ffffff" stroke-width="1.0" stroke-linejoin="round" stroke-linecap="butt" d="m-243.4567 191.79002l0 0c0 -26.118286 22.131943 -47.291336 49.433075 -47.291336l0 0c13.110458 0 25.68396 4.9824677 34.954453 13.851318c9.270508 8.868835 14.478622 20.897583 14.478622 33.440018l0 0c0 26.118286 -22.131943 47.291336 -49.433075 47.291336l0 0c-27.301132 0 -49.433075 -21.17305 -49.433075 -47.291336z" fill-rule="nonzero"></path><path fill="#ffffff" d="m-394.80185 302.0761l0 0c0 -26.118286 22.131958 -47.291336 49.433075 -47.291336l0 0c13.110474 0 25.68396 4.9824677 34.954468 13.851303c9.270508 8.868866 14.478607 20.897583 14.478607 33.440033l0 0c0 26.118286 -22.131927 47.29135 -49.433075 47.29135l0 0c-27.301117 0 -49.433075 -21.173065 -49.433075 -47.29135z" fill-rule="nonzero"></path><path stroke="#ffffff" stroke-width="1.0" stroke-linejoin="round" stroke-linecap="butt" d="m-394.80185 302.0761l0 0c0 -26.118286 22.131958 -47.291336 49.433075 -47.291336l0 0c13.110474 0 25.68396 4.9824677 34.954468 13.851303c9.270508 8.868866 14.478607 20.897583 14.478607 33.440033l0 0c0 26.118286 -22.131927 47.29135 -49.433075 47.29135l0 0c-27.301117 0 -49.433075 -21.173065 -49.433075 -47.29135z" fill-rule="nonzero"></path><path fill="#ffffff" d="m-127.82546 311.76904l0 0c0 -26.118286 22.131943 -47.29135 49.433075 -47.29135l0 0c13.110466 0 25.683956 4.9824524 34.954456 13.851318c9.2705 8.868835 14.478611 20.897583 14.478611 33.440033l0 0c0 26.118286 -22.131939 47.29132 -49.433067 47.29132l0 0c-27.301132 0 -49.433075 -21.173035 -49.433075 -47.29132z" fill-rule="nonzero"></path><path stroke="#ffffff" stroke-width="1.0" stroke-linejoin="round" stroke-linecap="butt" d="m-127.82546 311.76904l0 0c0 -26.118286 22.131943 -47.29135 49.433075 -47.29135l0 0c13.110466 0 25.683956 4.9824524 34.954456 13.851318c9.2705 8.868835 14.478611 20.897583 14.478611 33.440033l0 0c0 26.118286 -22.131939 47.29132 -49.433067 47.29132l0 0c-27.301132 0 -49.433075 -21.173035 -49.433075 -47.29132z" fill-rule="nonzero"></path><path fill="#ffffff" d="m-279.16534 350.31235l0 0c0 -26.118286 22.131927 -47.29135 49.43306 -47.29135l0 0c13.110458 0 25.68396 4.9824524 34.954453 13.851318c9.270508 8.868835 14.478622 20.897583 14.478622 33.440033l0 0c0 26.118286 -22.131943 47.29132 -49.433075 47.29132l0 0c-27.301132 0 -49.43306 -21.173035 -49.43306 -47.29132z" fill-rule="nonzero"></path><path stroke="#ffffff" stroke-width="1.0" stroke-linejoin="round" stroke-linecap="butt" d="m-279.16534 350.31235l0 0c0 -26.118286 22.131927 -47.29135 49.43306 -47.29135l0 0c13.110458 0 25.68396 4.9824524 34.954453 13.851318c9.270508 8.868835 14.478622 20.897583 14.478622 33.440033l0 0c0 26.118286 -22.131943 47.29132 -49.433075 47.29132l0 0c-27.301132 0 -49.43306 -21.173035 -49.43306 -47.29132z" fill-rule="nonzero"></path><path fill="#ffffff" d="m-288.5643 482.38058l0 0c0 -26.118286 22.131927 -47.29135 49.43306 -47.29135l0 0c13.110474 0 25.68396 4.982483 34.954468 13.851318c9.270493 8.868835 14.478607 20.897583 14.478607 33.440033l0 0c0 26.118286 -22.131943 47.29135 -49.433075 47.29135l0 0c-27.301132 0 -49.43306 -21.173065 -49.43306 -47.29135z" fill-rule="nonzero"></path><path stroke="#ffffff" stroke-width="1.0" stroke-linejoin="round" stroke-linecap="butt" d="m-288.5643 482.38058l0 0c0 -26.118286 22.131927 -47.29135 49.43306 -47.29135l0 0c13.110474 0 25.68396 4.982483 34.954468 13.851318c9.270493 8.868835 14.478607 20.897583 14.478607 33.440033l0 0c0 26.118286 -22.131943 47.29135 -49.433075 47.29135l0 0c-27.301132 0 -49.43306 -21.173065 -49.43306 -47.29135z" fill-rule="nonzero"></path><path fill="#000000" fill-opacity="0.0" d="m-328.5971 200.2336l-16.75592 54.551178" fill-rule="nonzero"></path><path stroke="#ffffff" stroke-width="4.0" stroke-linejoin="round" stroke-linecap="butt" d="m-328.5971 200.2336l-16.75592 54.551178" fill-rule="nonzero"></path><path fill="#000000" fill-opacity="0.0" d="m-279.16403 152.94226l50.173218 5.4173126" fill-rule="nonzero"></path><path stroke="#ffffff" stroke-width="4.0" stroke-linejoin="round" stroke-linecap="butt" d="m-279.16403 152.94226l50.173218 5.4173126" fill-rule="nonzero"></path><path fill="#000000" fill-opacity="0.0" d="m-194.02362 239.08136l-35.716537 63.93701" fill-rule="nonzero"></path><path stroke="#ffffff" stroke-width="4.0" stroke-linejoin="round" stroke-linecap="butt" d="m-194.02362 239.08136l-35.716537 63.93701" fill-rule="nonzero"></path><path fill="#000000" fill-opacity="0.0" d="m-159.06917 225.23006l45.732285 53.10237" fill-rule="nonzero"></path><path stroke="#ffffff" stroke-width="4.0" stroke-linejoin="round" stroke-linecap="butt" d="m-159.06917 225.23006l45.732285 53.10237" fill-rule="nonzero"></path><path fill="#000000" fill-opacity="0.0" d="m-229.73228 397.60367l-9.385834 37.480316" fill-rule="nonzero"></path><path stroke="#ffffff" stroke-width="4.0" stroke-linejoin="round" stroke-linecap="butt" d="m-229.73228 397.60367l-9.385834 37.480316" fill-rule="nonzero"></path><path fill="#000000" fill-opacity="0.0" d="m-113.34685 345.20905l-66.96063 5.1023865" fill-rule="nonzero"></path><path stroke="#ffffff" stroke-width="4.0" stroke-linejoin="round" stroke-linecap="butt" d="m-113.34685 345.20905l-66.96063 5.1023865" fill-rule="nonzero"></path><path fill="#000000" fill-opacity="0.0" d="m-113.34685 345.20905l-90.83464 103.71655" fill-rule="nonzero"></path><path stroke="#ffffff" stroke-width="4.0" stroke-linejoin="round" stroke-linecap="butt" d="m-113.34685 345.20905l-90.83464 103.71655" fill-rule="nonzero"></path><path fill="#e2272a" d="m404.28568 85.644615l0 0c0 -7.413231 6.009613 -13.422844 13.422852 -13.422844l105.12283 0c3.5599365 0 6.974121 1.4141922 9.491394 3.9314651c2.517212 2.5172653 3.9314575 5.9314194 3.9314575 9.491379l0 53.68975c0 7.4132233 -6.0096436 13.422836 -13.422852 13.422836l-105.12283 0c-7.4132385 0 -13.422852 -6.009613 -13.422852 -13.422836z" fill-rule="nonzero"></path><path stroke="#ffffff" stroke-width="4.0" stroke-linejoin="round" stroke-linecap="butt" d="m404.28568 85.644615l0 0c0 -7.413231 6.009613 -13.422844 13.422852 -13.422844l105.12283 0c3.5599365 0 6.974121 1.4141922 9.491394 3.9314651c2.517212 2.5172653 3.9314575 5.9314194 3.9314575 9.491379l0 53.68975c0 7.4132233 -6.0096436 13.422836 -13.422852 13.422836l-105.12283 0c-7.4132385 0 -13.422852 -6.009613 -13.422852 -13.422836z" fill-rule="nonzero"></path><path fill="#e2272a" d="m484.28806 204.8377l0 0c0 -7.4132385 6.009613 -13.422852 13.422852 -13.422852l105.12283 0c3.5599365 0 6.974121 1.4141998 9.491333 3.9314575c2.517273 2.517273 3.9315186 5.931427 3.9315186 9.491394l0 53.68976c0 7.413208 -6.0096436 13.422821 -13.422852 13.422821l-105.12283 0c-7.4132385 0 -13.422852 -6.009613 -13.422852 -13.422821z" fill-rule="nonzero"></path><path stroke="#ffffff" stroke-width="4.0" stroke-linejoin="round" stroke-linecap="butt" d="m484.28806 204.8377l0 0c0 -7.4132385 6.009613 -13.422852 13.422852 -13.422852l105.12283 0c3.5599365 0 6.974121 1.4141998 9.491333 3.9314575c2.517273 2.517273 3.9315186 5.931427 3.9315186 9.491394l0 53.68976c0 7.413208 -6.0096436 13.422821 -13.422852 13.422821l-105.12283 0c-7.4132385 0 -13.422852 -6.009613 -13.422852 -13.422821z" fill-rule="nonzero"></path><path fill="#e2272a" d="m327.07416 204.8377l0 0c0 -7.4132385 6.009613 -13.422852 13.422821 -13.422852l105.12283 0c3.559967 0 6.974121 1.4141998 9.491394 3.9314575c2.5172424 2.517273 3.9314575 5.931427 3.9314575 9.491394l0 53.68976c0 7.413208 -6.009613 13.422821 -13.422852 13.422821l-105.12283 0c-7.413208 0 -13.422821 -6.009613 -13.422821 -13.422821z" fill-rule="nonzero"></path><path stroke="#ffffff" stroke-width="4.0" stroke-linejoin="round" stroke-linecap="butt" d="m327.07416 204.8377l0 0c0 -7.4132385 6.009613 -13.422852 13.422821 -13.422852l105.12283 0c3.559967 0 6.974121 1.4141998 9.491394 3.9314575c2.5172424 2.517273 3.9314575 5.931427 3.9314575 9.491394l0 53.68976c0 7.413208 -6.009613 13.422821 -13.422852 13.422821l-105.12283 0c-7.413208 0 -13.422821 -6.009613 -13.422821 -13.422821z" fill-rule="nonzero"></path><path fill="#e2272a" d="m291.7765 333.15414l0 0c0 -7.4132385 6.009613 -13.422852 13.422852 -13.422852l105.1228 0c3.559967 0 6.974121 1.4141846 9.491394 3.9314575c2.517273 2.517273 3.9314575 5.931427 3.9314575 9.491394l0 53.68976c0 7.413208 -6.009613 13.422821 -13.422852 13.422821l-105.1228 0c-7.4132385 0 -13.422852 -6.009613 -13.422852 -13.422821z" fill-rule="nonzero"></path><path stroke="#ffffff" stroke-width="4.0" stroke-linejoin="round" stroke-linecap="butt" d="m291.7765 333.15414l0 0c0 -7.4132385 6.009613 -13.422852 13.422852 -13.422852l105.1228 0c3.559967 0 6.974121 1.4141846 9.491394 3.9314575c2.517273 2.517273 3.9314575 5.931427 3.9314575 9.491394l0 53.68976c0 7.413208 -6.009613 13.422821 -13.422852 13.422821l-105.1228 0c-7.4132385 0 -13.422852 -6.009613 -13.422852 -13.422821z" fill-rule="nonzero"></path><path fill="#e2272a" d="m132.88977 333.15414l0 0c0 -7.4132385 6.009598 -13.422852 13.422836 -13.422852l105.12282 0c3.559967 0 6.974121 1.4141846 9.491394 3.9314575c2.517273 2.517273 3.9314575 5.931427 3.9314575 9.491394l0 53.68976c0 7.413208 -6.009613 13.422821 -13.422852 13.422821l-105.12282 0c-7.4132385 0 -13.422836 -6.009613 -13.422836 -13.422821z" fill-rule="nonzero"></path><path stroke="#ffffff" stroke-width="4.0" stroke-linejoin="round" stroke-linecap="butt" d="m132.88977 333.15414l0 0c0 -7.4132385 6.009598 -13.422852 13.422836 -13.422852l105.12282 0c3.559967 0 6.974121 1.4141846 9.491394 3.9314575c2.517273 2.517273 3.9314575 5.931427 3.9314575 9.491394l0 53.68976c0 7.413208 -6.009613 13.422821 -13.422852 13.422821l-105.12282 0c-7.4132385 0 -13.422836 -6.009613 -13.422836 -13.422821z" fill-rule="nonzero"></path><path fill="#e2272a" d="m291.77747 455.53622l0 0c0 -7.413208 6.009613 -13.422821 13.422852 -13.422821l105.12283 0c3.5599365 0 6.9740906 1.4141846 9.491364 3.9314575c2.517273 2.517273 3.9314575 5.931427 3.9314575 9.491364l0 53.68976c0 7.4132385 -6.009613 13.422821 -13.422821 13.422821l-105.12283 0c-7.4132385 0 -13.422852 -6.0095825 -13.422852 -13.422821z" fill-rule="nonzero"></path><path stroke="#ffffff" stroke-width="4.0" stroke-linejoin="round" stroke-linecap="butt" d="m291.77747 455.53622l0 0c0 -7.413208 6.009613 -13.422821 13.422852 -13.422821l105.12283 0c3.5599365 0 6.9740906 1.4141846 9.491364 3.9314575c2.517273 2.517273 3.9314575 5.931427 3.9314575 9.491364l0 53.68976c0 7.4132385 -6.009613 13.422821 -13.422821 13.422821l-105.12283 0c-7.4132385 0 -13.422852 -6.0095825 -13.422852 -13.422821z" fill-rule="nonzero"></path><path fill="#000000" fill-opacity="0.0" d="m470.26993 152.7572l-77.19684 38.645676" fill-rule="nonzero"></path><path stroke="#ffffff" stroke-width="4.0" stroke-linejoin="round" stroke-linecap="butt" d="m470.26993 152.7572l-64.93872 32.509094" fill-rule="evenodd"></path><path fill="#ffffff" stroke="#ffffff" stroke-width="4.0" stroke-linecap="butt" d="m405.3312 185.26631l2.0087585 -6.036133l-9.037903 9.554993l13.065277 -1.5101013z" fill-rule="evenodd"></path><path fill="#000000" fill-opacity="0.0" d="m470.26993 152.7572l80.00003 38.645676" fill-rule="nonzero"></path><path stroke="#ffffff" stroke-width="4.0" stroke-linejoin="round" stroke-linecap="butt" d="m470.26993 152.7572l67.65646 32.682846" fill-rule="evenodd"></path><path fill="#ffffff" stroke="#ffffff" stroke-width="4.0" stroke-linecap="butt" d="m537.9264 185.44005l-6.007202 2.0938263l13.085327 1.3254242l-9.171936 -9.426407z" fill-rule="evenodd"></path><path fill="#000000" fill-opacity="0.0" d="m550.27234 271.9503l0 0" fill-rule="nonzero"></path><path stroke="#ffffff" stroke-width="4.0" stroke-linejoin="round" stroke-linecap="butt" d="m550.27234 271.9503l0 0" fill-rule="nonzero"></path><path fill="#000000" fill-opacity="0.0" d="m393.0584 271.9503l-35.3071 47.77954" fill-rule="nonzero"></path><path stroke="#ffffff" stroke-width="4.0" stroke-linejoin="round" stroke-linecap="butt" d="m393.0584 271.9503l-27.160187 36.7547" fill-rule="evenodd"></path><path fill="#ffffff" stroke="#ffffff" stroke-width="4.0" stroke-linecap="butt" d="m365.8982 308.705l-0.94436646 -6.291107l-3.7272644 12.613037l10.962769 -7.2662964z" fill-rule="evenodd"></path><path fill="#000000" fill-opacity="0.0" d="m357.76074 400.26672l0 41.858276" fill-rule="nonzero"></path><path stroke="#ffffff" stroke-width="4.0" stroke-linejoin="round" stroke-linecap="butt" d="m357.76074 400.26672l0 41.858276" fill-rule="nonzero"></path><path fill="#000000" fill-opacity="0.0" d="m393.0584 271.9503l-194.17323 47.77954" fill-rule="nonzero"></path><path stroke="#ffffff" stroke-width="4.0" stroke-linejoin="round" stroke-linecap="butt" d="m393.0584 271.9503l-180.86197 44.50406" fill-rule="evenodd"></path><path fill="#ffffff" stroke="#ffffff" stroke-width="4.0" stroke-linecap="butt" d="m212.19644 316.45438l3.293213 -5.442871l-10.926254 7.321106l13.075912 1.4149475z" fill-rule="evenodd"></path><path fill="#000000" fill-opacity="0.0" d="m-394.80054 0l352.47244 0l0 72.220474l-352.47244 0z" fill-rule="nonzero"></path><path fill="#ffffff" d="m-290.3893 21.89336l7.484375 0l5.234375 14.0625l1.859375 5.46875l0.203125 0l1.875 -5.46875l5.078125 -14.0625l7.4374695 0l0 31.296875l-6.5780945 0l0 -11.46875q0 -1.15625 0.09375 -2.546875q0.109375 -1.390625 0.25 -2.796875q0.140625 -1.421875 0.28125 -2.78125q0.15625 -1.375 0.296875 -2.53125l-0.1875 0l-2.59375 7.25l-4.8125 12.140625l-2.828125 0l-4.796875 -12.140625l-2.5 -7.25l-0.1875 0q0.140625 1.15625 0.28125 2.53125q0.15625 1.359375 0.265625 2.78125q0.125 1.40625 0.21875 2.796875q0.09375 1.390625 0.09375 2.546875l0 11.46875l-6.46875 0l0 -31.296875zm49.294815 31.875q-3.171875 0 -5.796875 -1.125q-2.609375 -1.140625 -4.484375 -3.25q-1.875 -2.109375 -2.90625 -5.125q-1.03125 -3.03125 -1.03125 -6.875q0 -3.828125 1.03125 -6.828125q1.03125 -3.0 2.90625 -5.046875q1.875 -2.046875 4.484375 -3.125q2.625 -1.078125 5.796875 -1.078125q3.15625 0 5.765625 1.078125q2.625 1.078125 4.5 3.15625q1.875 2.0625 2.90625 5.0625q1.03125 3.0 1.03125 6.78125q0 3.84375 -1.03125 6.875q-1.03125 3.015625 -2.90625 5.125q-1.875 2.109375 -4.5 3.25q-2.609375 1.125 -5.765625 1.125zm0 -6.09375q3.203125 0 5.078125 -2.765625q1.875 -2.765625 1.875 -7.515625q0 -4.703125 -1.875 -7.34375q-1.875 -2.640625 -5.078125 -2.640625q-3.21875 0 -5.09375 2.640625q-1.875 2.640625 -1.875 7.34375q0 4.75 1.875 7.515625q1.875 2.765625 5.09375 2.765625zm20.113312 -25.78125l8.828125 0q3.59375 0 6.46875 0.921875q2.890625 0.90625 4.953125 2.796875q2.0625 1.890625 3.15625 4.828125q1.109375 2.921875 1.109375 6.953125q0 4.03125 -1.109375 7.015625q-1.09375 2.96875 -3.109375 4.921875q-2.015625 1.9375 -4.828125 2.90625q-2.796875 0.953125 -6.265625 0.953125l-9.203125 0l0 -31.296875zm8.390625 25.578125q2.015625 0 3.640625 -0.515625q1.640625 -0.53125 2.796875 -1.703125q1.15625 -1.1875 1.796875 -3.09375q0.640625 -1.921875 0.640625 -4.765625q0 -2.78125 -0.640625 -4.671875q-0.640625 -1.90625 -1.796875 -3.03125q-1.15625 -1.125 -2.796875 -1.59375q-1.625 -0.484375 -3.640625 -0.484375l-1.34375 0l0 19.859375l1.34375 0zm22.089447 -25.578125l19.578125 0l0 5.953125l-12.53125 0l0 6.28125l10.65625 0l0 5.90625l-10.65625 0l0 7.203125l13.015625 0l0 5.953125l-20.0625 0l0 -31.296875zm26.304047 0l7.046875 0l0 25.34375l12.390625 0l0 5.953125l-19.4375 0l0 -31.296875z" fill-rule="nonzero"></path><path fill="#000000" fill-opacity="0.0" d="m1085.2704 116.83071l352.4724 0l0 72.22047l-352.4724 0z" fill-rule="nonzero"></path><path fill="#ffffff" d="m1215.2656 138.72408l8.828125 0q3.59375 0 6.46875 0.921875q2.890625 0.90625 4.953125 2.796875q2.0625 1.890625 3.15625 4.828125q1.109375 2.921875 1.109375 6.953125q0 4.03125 -1.109375 7.015625q-1.09375 2.96875 -3.109375 4.921875q-2.015625 1.9375 -4.828125 2.90625q-2.796875 0.953125 -6.265625 0.953125l-9.203125 0l0 -31.296875zm8.390625 25.578125q2.015625 0 3.640625 -0.515625q1.640625 -0.53125 2.796875 -1.703125q1.15625 -1.1875 1.796875 -3.09375q0.640625 -1.921875 0.640625 -4.765625q0 -2.78125 -0.640625 -4.671875q-0.640625 -1.90625 -1.796875 -3.03125q-1.15625 -1.125 -2.796875 -1.59375q-1.625 -0.484375 -3.640625 -0.484375l-1.34375 0l0 19.859375l1.34375 0zm34.808105 6.296875q-3.171875 0 -5.796875 -1.125q-2.609375 -1.140625 -4.484375 -3.25q-1.875 -2.109375 -2.90625 -5.125q-1.03125 -3.03125 -1.03125 -6.875q0 -3.828125 1.03125 -6.828125q1.03125 -3.0 2.90625 -5.046875q1.875 -2.046875 4.484375 -3.125q2.625 -1.078125 5.796875 -1.078125q3.15625 0 5.765625 1.078125q2.625 1.078125 4.5 3.15625q1.875 2.0625 2.90625 5.0625q1.03125 3.0 1.03125 6.78125q0 3.84375 -1.03125 6.875q-1.03125 3.015625 -2.90625 5.125q-1.875 2.109375 -4.5 3.25q-2.609375 1.125 -5.765625 1.125zm0 -6.09375q3.203125 0 5.078125 -2.765625q1.875 -2.765625 1.875 -7.515625q0 -4.703125 -1.875 -7.34375q-1.875 -2.640625 -5.078125 -2.640625q-3.21875 0 -5.09375 2.640625q-1.875 2.640625 -1.875 7.34375q0 4.75 1.875 7.515625q1.875 2.765625 5.09375 2.765625zm20.113403 -25.78125l7.484375 0l5.234375 14.0625l1.859375 5.46875l0.203125 0l1.875 -5.46875l5.078125 -14.0625l7.4375 0l0 31.296875l-6.578125 0l0 -11.46875q0 -1.15625 0.09375 -2.546875q0.109375 -1.390625 0.25 -2.796875q0.140625 -1.421875 0.28125 -2.78125q0.15625 -1.375 0.296875 -2.53125l-0.1875 0l-2.59375 7.25l-4.8125 12.140625l-2.828125 0l-4.796875 -12.140625l-2.5 -7.25l-0.1875 0q0.140625 1.15625 0.28125 2.53125q0.15625 1.359375 0.265625 2.78125q0.125 1.40625 0.21875 2.796875q0.09375 1.390625 0.09375 2.546875l0 11.46875l-6.46875 0l0 -31.296875z" fill-rule="nonzero"></path><path fill="#e2272a" d="m683.3198 333.15414l0 0c0 -7.4132385 6.0095825 -13.422852 13.422791 -13.422852l105.12286 0c3.5599365 0 6.974121 1.4141846 9.491394 3.9314575c2.517273 2.517273 3.9314575 5.931427 3.9314575 9.491394l0 53.68976c0 7.413208 -6.0096436 13.422821 -13.422852 13.422821l-105.12286 0c-7.413208 0 -13.422791 -6.009613 -13.422791 -13.422821z" fill-rule="nonzero"></path><path stroke="#ffffff" stroke-width="4.0" stroke-linejoin="round" stroke-linecap="butt" d="m683.3198 333.15414l0 0c0 -7.4132385 6.0095825 -13.422852 13.422791 -13.422852l105.12286 0c3.5599365 0 6.974121 1.4141846 9.491394 3.9314575c2.517273 2.517273 3.9314575 5.931427 3.9314575 9.491394l0 53.68976c0 7.413208 -6.0096436 13.422821 -13.422852 13.422821l-105.12286 0c-7.413208 0 -13.422791 -6.009613 -13.422791 -13.422821z" fill-rule="nonzero"></path><path fill="#e2272a" d="m524.43304 333.15414l0 0c0 -7.4132385 6.0096436 -13.422852 13.422852 -13.422852l105.12286 0c3.5599365 0 6.97406 1.4141846 9.491333 3.9314575c2.517273 2.517273 3.9314575 5.931427 3.9314575 9.491394l0 53.68976c0 7.413208 -6.0095825 13.422821 -13.422791 13.422821l-105.12286 0c-7.413208 0 -13.422852 -6.009613 -13.422852 -13.422821z" fill-rule="nonzero"></path><path stroke="#ffffff" stroke-width="4.0" stroke-linejoin="round" stroke-linecap="butt" d="m524.43304 333.15414l0 0c0 -7.4132385 6.0096436 -13.422852 13.422852 -13.422852l105.12286 0c3.5599365 0 6.97406 1.4141846 9.491333 3.9314575c2.517273 2.517273 3.9314575 5.931427 3.9314575 9.491394l0 53.68976c0 7.413208 -6.0095825 13.422821 -13.422791 13.422821l-105.12286 0c-7.413208 0 -13.422852 -6.009613 -13.422852 -13.422821z" fill-rule="nonzero"></path><path fill="#000000" fill-opacity="0.0" d="m550.27234 271.9503l40.15747 47.77954" fill-rule="nonzero"></path><path stroke="#ffffff" stroke-width="4.0" stroke-linejoin="round" stroke-linecap="butt" d="m550.27234 271.9503l31.337463 37.28543" fill-rule="evenodd"></path><path fill="#ffffff" stroke="#ffffff" stroke-width="4.0" stroke-linecap="butt" d="m581.60974 309.23572l-6.3378296 -0.5493164l11.395508 6.566925l-4.508301 -12.355438z" fill-rule="evenodd"></path><path fill="#000000" fill-opacity="0.0" d="m550.27234 271.9503l199.02362 47.77954" fill-rule="nonzero"></path><path stroke="#ffffff" stroke-width="4.0" stroke-linejoin="round" stroke-linecap="butt" d="m550.27234 271.9503l185.69397 44.5795" fill-rule="evenodd"></path><path fill="#ffffff" stroke="#ffffff" stroke-width="4.0" stroke-linecap="butt" d="m735.9663 316.5298l-5.4241333 3.3239746l13.067688 -1.4889832l-10.967529 -7.2591248z" fill-rule="evenodd"></path><path fill="#e2272a" d="m132.89034 455.53622l0 0c0 -7.413208 6.009613 -13.422821 13.422836 -13.422821l105.12283 0c3.5599518 0 6.974121 1.4141846 9.491364 3.9314575c2.517273 2.517273 3.931488 5.931427 3.931488 9.491364l0 53.68976c0 7.4132385 -6.009613 13.422821 -13.422852 13.422821l-105.12283 0c-7.4132233 0 -13.422836 -6.0095825 -13.422836 -13.422821z" fill-rule="nonzero"></path><path stroke="#ffffff" stroke-width="4.0" stroke-linejoin="round" stroke-linecap="butt" d="m132.89034 455.53622l0 0c0 -7.413208 6.009613 -13.422821 13.422836 -13.422821l105.12283 0c3.5599518 0 6.974121 1.4141846 9.491364 3.9314575c2.517273 2.517273 3.931488 5.931427 3.931488 9.491364l0 53.68976c0 7.4132385 -6.009613 13.422821 -13.422852 13.422821l-105.12283 0c-7.4132233 0 -13.422836 -6.0095825 -13.422836 -13.422821z" fill-rule="nonzero"></path><path fill="#e2272a" d="m683.3208 455.53622l0 0c0 -7.413208 6.0095825 -13.422821 13.422852 -13.422821l105.1228 0c3.5599365 0 6.974121 1.4141846 9.491394 3.9314575c2.517273 2.517273 3.9314575 5.931427 3.9314575 9.491364l0 53.68976c0 7.4132385 -6.0096436 13.422821 -13.422852 13.422821l-105.1228 0c-7.413269 0 -13.422852 -6.0095825 -13.422852 -13.422821z" fill-rule="nonzero"></path><path stroke="#ffffff" stroke-width="4.0" stroke-linejoin="round" stroke-linecap="butt" d="m683.3208 455.53622l0 0c0 -7.413208 6.0095825 -13.422821 13.422852 -13.422821l105.1228 0c3.5599365 0 6.974121 1.4141846 9.491394 3.9314575c2.517273 2.517273 3.9314575 5.931427 3.9314575 9.491364l0 53.68976c0 7.4132385 -6.0096436 13.422821 -13.422852 13.422821l-105.1228 0c-7.413269 0 -13.422852 -6.0095825 -13.422852 -13.422821z" fill-rule="nonzero"></path><path fill="#e2272a" d="m524.43365 455.53622l0 0c0 -7.413208 6.0095825 -13.422821 13.422852 -13.422821l105.1228 0c3.5599365 0 6.974121 1.4141846 9.491394 3.9314575c2.517273 2.517273 3.9314575 5.931427 3.9314575 9.491364l0 53.68976c0 7.4132385 -6.0096436 13.422821 -13.422852 13.422821l-105.1228 0c-7.413269 0 -13.422852 -6.0095825 -13.422852 -13.422821z" fill-rule="nonzero"></path><path stroke="#ffffff" stroke-width="4.0" stroke-linejoin="round" stroke-linecap="butt" d="m524.43365 455.53622l0 0c0 -7.413208 6.0095825 -13.422821 13.422852 -13.422821l105.1228 0c3.5599365 0 6.974121 1.4141846 9.491394 3.9314575c2.517273 2.517273 3.9314575 5.931427 3.9314575 9.491364l0 53.68976c0 7.4132385 -6.0096436 13.422821 -13.422852 13.422821l-105.1228 0c-7.413269 0 -13.422852 -6.0095825 -13.422852 -13.422821z" fill-rule="nonzero"></path><path fill="#000000" fill-opacity="0.0" d="m198.87459 400.25513l0 41.858276" fill-rule="nonzero"></path><path stroke="#ffffff" stroke-width="4.0" stroke-linejoin="round" stroke-linecap="butt" d="m198.87459 400.25513l0 28.149933" fill-rule="evenodd"></path><path fill="#ffffff" stroke="#ffffff" stroke-width="4.0" stroke-linecap="butt" d="m198.87459 428.40506l-4.498337 -4.498352l4.498337 12.35907l4.498337 -12.35907z" fill-rule="evenodd"></path><path fill="#000000" fill-opacity="0.0" d="m357.76074 400.26672l0 41.858276" fill-rule="nonzero"></path><path stroke="#ffffff" stroke-width="4.0" stroke-linejoin="round" stroke-linecap="butt" d="m357.76074 400.26672l0 28.149933" fill-rule="evenodd"></path><path fill="#ffffff" stroke="#ffffff" stroke-width="4.0" stroke-linecap="butt" d="m357.76074 428.41666l-4.4983215 -4.498352l4.4983215 12.3591l4.498352 -12.3591z" fill-rule="evenodd"></path><path fill="#000000" fill-opacity="0.0" d="m590.4179 400.25513l0 41.858276" fill-rule="nonzero"></path><path stroke="#ffffff" stroke-width="4.0" stroke-linejoin="round" stroke-linecap="butt" d="m590.4179 400.25513l0 28.149933" fill-rule="evenodd"></path><path fill="#ffffff" stroke="#ffffff" stroke-width="4.0" stroke-linecap="butt" d="m590.4179 428.40506l-4.498352 -4.498352l4.498352 12.35907l4.498352 -12.35907z" fill-rule="evenodd"></path><path fill="#000000" fill-opacity="0.0" d="m749.3041 400.26672l0 41.858276" fill-rule="nonzero"></path><path stroke="#ffffff" stroke-width="4.0" stroke-linejoin="round" stroke-linecap="butt" d="m749.3041 400.26672l0 28.149933" fill-rule="evenodd"></path><path fill="#ffffff" stroke="#ffffff" stroke-width="4.0" stroke-linecap="butt" d="m749.3041 428.41666l-4.498352 -4.498352l4.498352 12.3591l4.498291 -12.3591z" fill-rule="evenodd"></path><path fill="#000000" fill-opacity="0.0" d="m1003.34906 446.27036l144.72443 0l0 72.22049l-144.72443 0z" fill-rule="nonzero"></path><path fill="#ffffff" d="m1032.0359 473.2412l13.046875 0l0 3.96875l-8.34375 0l0 4.1875l7.09375 0l0 3.9375l-7.09375 0l0 4.796875l8.671875 0l0 3.96875l-13.375 0l0 -20.859375zm15.458008 4.984375l4.734375 0l2.046875 7.484375q0.3125 1.1875 0.609375 2.421875q0.3125 1.234375 0.640625 2.484375l0.125 0q0.28125 -1.25 0.578125 -2.484375q0.3125 -1.234375 0.640625 -2.421875l2.078125 -7.484375l4.515625 0l-5.1875 15.875l-5.4375 0l-5.34375 -15.875zm17.501587 7.9375q0 -1.921875 0.640625 -3.46875q0.640625 -1.546875 1.671875 -2.625q1.046875 -1.078125 2.390625 -1.640625q1.34375 -0.578125 2.78125 -0.578125q1.703125 0 2.953125 0.578125q1.265625 0.5625 2.109375 1.59375q0.859375 1.015625 1.265625 2.421875q0.421875 1.390625 0.421875 3.015625q0 0.640625 -0.0625 1.171875q-0.0625 0.53125 -0.125 0.8125l-9.5 0q0.3125 1.828125 1.40625 2.640625q1.109375 0.8125 2.71875 0.8125q1.6875 0 3.421875 -1.046875l1.5625 2.84375q-1.21875 0.828125 -2.703125 1.3125q-1.484375 0.484375 -2.921875 0.484375q-1.703125 0 -3.171875 -0.5625q-1.46875 -0.5625 -2.5625 -1.625q-1.078125 -1.078125 -1.6875 -2.609375q-0.609375 -1.546875 -0.609375 -3.53125zm10.234375 -1.625q0 -1.375 -0.609375 -2.234375q-0.609375 -0.875 -2.046875 -0.875q-1.125 0 -1.96875 0.75q-0.84375 0.75 -1.109375 2.359375l5.734375 0zm7.26355 -6.3125l3.84375 0l0.3125 2.015625l0.140625 0q1.015625 -0.953125 2.234375 -1.671875q1.21875 -0.71875 2.84375 -0.71875q2.59375 0 3.765625 1.703125q1.171875 1.6875 1.171875 4.6875l0 9.859375l-4.703125 0l0 -9.25q0 -1.71875 -0.46875 -2.359375q-0.46875 -0.640625 -1.484375 -0.640625q-0.90625 0 -1.546875 0.40625q-0.640625 0.390625 -1.40625 1.125l0 10.71875l-4.703125 0l0 -15.875zm18.944702 3.6875l-2.171875 0l0 -3.5l2.421875 -0.1875l0.546875 -4.21875l3.90625 0l0 4.21875l3.8125 0l0 3.6875l-3.8125 0l0 6.359375q0 1.34375 0.5625 1.9375q0.5625 0.59375 1.484375 0.59375q0.390625 0 0.78125 -0.09375q0.40625 -0.09375 0.71875 -0.21875l0.75 3.421875q-0.640625 0.1875 -1.515625 0.375q-0.859375 0.203125 -2.015625 0.203125q-1.46875 0 -2.515625 -0.453125q-1.03125 -0.453125 -1.6875 -1.25q-0.65625 -0.796875 -0.96875 -1.9375q-0.296875 -1.140625 -0.296875 -2.515625l0 -6.421875zm12.771606 -5.0l-0.15625 -4.25l4.734375 0l-0.171875 4.25l-0.671875 9.796875l-3.0625 0l-0.671875 -9.796875zm-0.640625 14.625q0 -1.28125 0.8125 -2.125q0.8125 -0.84375 2.03125 -0.84375q1.21875 0 2.03125 0.84375q0.8125 0.84375 0.8125 2.125q0 1.25 -0.8125 2.109375q-0.8125 0.84375 -2.03125 0.84375q-1.21875 0 -2.03125 -0.84375q-0.8125 -0.859375 -0.8125 -2.109375z" fill-rule="nonzero"></path><path fill="#000000" fill-opacity="0.0" d="m406.81235 79.69554l127.055084 0l0 63.936996l-127.055084 0z" fill-rule="nonzero"></path><path fill="#ffffff" d="m452.3366 113.087166q0 -2.59375 0.796875 -4.625q0.8125 -2.03125 2.171875 -3.4375q1.359375 -1.421875 3.15625 -2.15625q1.8125 -0.734375 3.828125 -0.734375q1.953125 0 3.53125 0.828125q1.59375 0.8125 2.640625 1.890625l-2.578125 2.921875q-0.8125 -0.75 -1.625 -1.15625q-0.8125 -0.421875 -1.90625 -0.421875q-1.078125 0 -2.03125 0.46875q-0.9375 0.46875 -1.640625 1.328125q-0.703125 0.859375 -1.109375 2.109375q-0.40625 1.25 -0.40625 2.8125q0 3.234375 1.375 5.015625q1.390625 1.765625 3.6875 1.765625q1.28125 0 2.234375 -0.5q0.96875 -0.515625 1.734375 -1.34375l2.59375 2.84375q-1.3125 1.53125 -3.0 2.3125q-1.671875 0.765625 -3.625 0.765625q-2.015625 0 -3.8125 -0.6875q-1.78125 -0.6875 -3.125 -2.03125q-1.34375 -1.359375 -2.125 -3.359375q-0.765625 -2.0 -0.765625 -4.609375zm19.624054 -10.5625l5.890625 0q2.390625 0 4.3125 0.609375q1.921875 0.609375 3.296875 1.875q1.375 1.25 2.109375 3.203125q0.734375 1.953125 0.734375 4.640625q0 2.6875 -0.734375 4.671875q-0.734375 1.984375 -2.078125 3.28125q-1.34375 1.296875 -3.21875 1.9375q-1.875 0.640625 -4.171875 0.640625l-6.140625 0l0 -20.859375zm5.59375 17.046875q1.34375 0 2.421875 -0.34375q1.09375 -0.359375 1.859375 -1.140625q0.78125 -0.78125 1.203125 -2.0625q0.4375 -1.28125 0.4375 -3.171875q0 -1.859375 -0.4375 -3.109375q-0.421875 -1.265625 -1.203125 -2.015625q-0.765625 -0.765625 -1.859375 -1.078125q-1.078125 -0.328125 -2.421875 -0.328125l-0.890625 0l0 13.25l0.890625 0z" fill-rule="nonzero"></path><path fill="#000000" fill-opacity="0.0" d="m329.52887 199.70735l127.055115 0l0 63.936996l-127.055115 0z" fill-rule="nonzero"></path><path fill="#ffffff" d="m375.05313 233.09898q0 -2.59375 0.796875 -4.625q0.8125 -2.03125 2.171875 -3.4375q1.359375 -1.421875 3.15625 -2.15625q1.8125 -0.734375 3.828125 -0.734375q1.953125 0 3.53125 0.828125q1.59375 0.8125 2.640625 1.890625l-2.578125 2.921875q-0.8125 -0.75 -1.625 -1.15625q-0.8125 -0.421875 -1.90625 -0.421875q-1.078125 0 -2.03125 0.46875q-0.9375 0.46875 -1.640625 1.328125q-0.703125 0.859375 -1.109375 2.109375q-0.40625 1.25 -0.40625 2.8125q0 3.234375 1.375 5.015625q1.390625 1.765625 3.6875 1.765625q1.28125 0 2.234375 -0.5q0.96875 -0.515625 1.734375 -1.34375l2.59375 2.84375q-1.3125 1.53125 -3.0 2.3125q-1.671875 0.765625 -3.625 0.765625q-2.015625 0 -3.8125 -0.6875q-1.78125 -0.6875 -3.125 -2.03125q-1.34375 -1.359375 -2.125 -3.359375q-0.765625 -2.0 -0.765625 -4.609375zm19.624054 -10.5625l5.890625 0q2.390625 0 4.3125 0.609375q1.921875 0.609375 3.296875 1.875q1.375 1.25 2.109375 3.203125q0.734375 1.953125 0.734375 4.640625q0 2.6875 -0.734375 4.671875q-0.734375 1.984375 -2.078125 3.28125q-1.34375 1.296875 -3.21875 1.9375q-1.875 0.640625 -4.171875 0.640625l-6.140625 0l0 -20.859375zm5.59375 17.046875q1.34375 0 2.421875 -0.34375q1.09375 -0.359375 1.859375 -1.140625q0.78125 -0.78125 1.203125 -2.0625q0.4375 -1.28125 0.4375 -3.171875q0 -1.859375 -0.4375 -3.109375q-0.421875 -1.265625 -1.203125 -2.015625q-0.765625 -0.765625 -1.859375 -1.078125q-1.078125 -0.328125 -2.421875 -0.328125l-0.890625 0l0 13.25l0.890625 0z" fill-rule="nonzero"></path><path fill="#000000" fill-opacity="0.0" d="m486.74408 199.70604l127.055115 0l0 63.936996l-127.055115 0z" fill-rule="nonzero"></path><path fill="#ffffff" d="m532.2684 233.09767q0 -2.59375 0.796875 -4.625q0.8125 -2.03125 2.171875 -3.4375q1.359375 -1.421875 3.15625 -2.15625q1.8125 -0.734375 3.828125 -0.734375q1.953125 0 3.53125 0.828125q1.59375 0.8125 2.640625 1.890625l-2.578125 2.921875q-0.8125 -0.75 -1.625 -1.15625q-0.8125 -0.421875 -1.90625 -0.421875q-1.078125 0 -2.03125 0.46875q-0.9375 0.46875 -1.640625 1.328125q-0.703125 0.859375 -1.109375 2.109375q-0.40625 1.25 -0.40625 2.8125q0 3.234375 1.375 5.015625q1.390625 1.765625 3.6875 1.765625q1.28125 0 2.234375 -0.5q0.96875 -0.515625 1.734375 -1.34375l2.59375 2.84375q-1.3125 1.53125 -3.0 2.3125q-1.671875 0.765625 -3.625 0.765625q-2.015625 0 -3.8125 -0.6875q-1.78125 -0.6875 -3.125 -2.03125q-1.34375 -1.359375 -2.125 -3.359375q-0.765625 -2.0 -0.765625 -4.609375zm19.624023 -10.5625l5.890625 0q2.390625 0 4.3125 0.609375q1.921875 0.609375 3.296875 1.875q1.375 1.25 2.109375 3.203125q0.734375 1.953125 0.734375 4.640625q0 2.6875 -0.734375 4.671875q-0.734375 1.984375 -2.078125 3.28125q-1.34375 1.296875 -3.21875 1.9375q-1.875 0.640625 -4.171875 0.640625l-6.140625 0l0 -20.859375zm5.59375 17.046875q1.34375 0 2.421875 -0.34375q1.09375 -0.359375 1.859375 -1.140625q0.78125 -0.78125 1.203125 -2.0625q0.4375 -1.28125 0.4375 -3.171875q0 -1.859375 -0.4375 -3.109375q-0.421875 -1.265625 -1.203125 -2.015625q-0.765625 -0.765625 -1.859375 -1.078125q-1.078125 -0.328125 -2.421875 -0.328125l-0.890625 0l0 13.25l0.890625 0z" fill-rule="nonzero"></path><path fill="#000000" fill-opacity="0.0" d="m135.34645 328.0223l127.05513 0l0 63.93701l-127.05513 0z" fill-rule="nonzero"></path><path fill="#ffffff" d="m180.87073 361.41394q0 -2.59375 0.796875 -4.625q0.8125 -2.03125 2.171875 -3.4375q1.359375 -1.421875 3.15625 -2.15625q1.8125 -0.734375 3.828125 -0.734375q1.953125 0 3.53125 0.828125q1.59375 0.8125 2.640625 1.890625l-2.578125 2.921875q-0.8125 -0.75 -1.625 -1.15625q-0.8125 -0.421875 -1.90625 -0.421875q-1.078125 0 -2.03125 0.46875q-0.9375 0.46875 -1.640625 1.328125q-0.703125 0.859375 -1.109375 2.109375q-0.40625 1.25 -0.40625 2.8125q0 3.234375 1.375 5.015625q1.390625 1.765625 3.6875 1.765625q1.28125 0 2.234375 -0.5q0.96875 -0.515625 1.734375 -1.34375l2.59375 2.84375q-1.3125 1.53125 -3.0 2.3125q-1.671875 0.765625 -3.625 0.765625q-2.015625 0 -3.8125 -0.6875q-1.78125 -0.6875 -3.125 -2.03125q-1.34375 -1.359375 -2.125 -3.359375q-0.765625 -2.0 -0.765625 -4.609375zm19.624039 -10.5625l5.890625 0q2.390625 0 4.3125 0.609375q1.921875 0.609375 3.296875 1.875q1.375 1.25 2.109375 3.203125q0.734375 1.953125 0.734375 4.640625q0 2.6875 -0.734375 4.671875q-0.734375 1.984375 -2.078125 3.28125q-1.34375 1.296875 -3.21875 1.9375q-1.875 0.640625 -4.171875 0.640625l-6.140625 0l0 -20.859375zm5.59375 17.046875q1.34375 0 2.421875 -0.34375q1.09375 -0.359375 1.859375 -1.140625q0.78125 -0.78125 1.203125 -2.0625q0.4375 -1.28125 0.4375 -3.171875q0 -1.859375 -0.4375 -3.109375q-0.421875 -1.265625 -1.203125 -2.015625q-0.765625 -0.765625 -1.859375 -1.078125q-1.078125 -0.328125 -2.421875 -0.328125l-0.890625 0l0 13.25l0.890625 0z" fill-rule="nonzero"></path><path fill="#000000" fill-opacity="0.0" d="m294.23358 328.02887l127.055145 0l0 63.93701l-127.055145 0z" fill-rule="nonzero"></path><path fill="#ffffff" d="m339.75787 361.4205q0 -2.59375 0.796875 -4.625q0.8125 -2.03125 2.171875 -3.4375q1.359375 -1.421875 3.15625 -2.15625q1.8125 -0.734375 3.828125 -0.734375q1.953125 0 3.53125 0.828125q1.59375 0.8125 2.640625 1.890625l-2.578125 2.921875q-0.8125 -0.75 -1.625 -1.15625q-0.8125 -0.421875 -1.90625 -0.421875q-1.078125 0 -2.03125 0.46875q-0.9375 0.46875 -1.640625 1.328125q-0.703125 0.859375 -1.109375 2.109375q-0.40625 1.25 -0.40625 2.8125q0 3.234375 1.375 5.015625q1.390625 1.765625 3.6875 1.765625q1.28125 0 2.234375 -0.5q0.96875 -0.515625 1.734375 -1.34375l2.59375 2.84375q-1.3125 1.53125 -3.0 2.3125q-1.671875 0.765625 -3.625 0.765625q-2.015625 0 -3.8125 -0.6875q-1.78125 -0.6875 -3.125 -2.03125q-1.34375 -1.359375 -2.125 -3.359375q-0.765625 -2.0 -0.765625 -4.609375zm19.624023 -10.5625l5.890625 0q2.390625 0 4.3125 0.609375q1.921875 0.609375 3.296875 1.875q1.375 1.25 2.109375 3.203125q0.734375 1.953125 0.734375 4.640625q0 2.6875 -0.734375 4.671875q-0.734375 1.984375 -2.078125 3.28125q-1.34375 1.296875 -3.21875 1.9375q-1.875 0.640625 -4.171875 0.640625l-6.140625 0l0 -20.859375zm5.59375 17.046875q1.34375 0 2.421875 -0.34375q1.09375 -0.359375 1.859375 -1.140625q0.78125 -0.78125 1.203125 -2.0625q0.4375 -1.28125 0.4375 -3.171875q0 -1.859375 -0.4375 -3.109375q-0.421875 -1.265625 -1.203125 -2.015625q-0.765625 -0.765625 -1.859375 -1.078125q-1.078125 -0.328125 -2.421875 -0.328125l-0.890625 0l0 13.25l0.890625 0z" fill-rule="nonzero"></path><path fill="#000000" fill-opacity="0.0" d="m526.8898 328.02362l127.055115 0l0 63.93701l-127.055115 0z" fill-rule="nonzero"></path><path fill="#ffffff" d="m572.41406 361.41525q0 -2.59375 0.796875 -4.625q0.8125 -2.03125 2.171875 -3.4375q1.359375 -1.421875 3.15625 -2.15625q1.8125 -0.734375 3.828125 -0.734375q1.953125 0 3.53125 0.828125q1.59375 0.8125 2.640625 1.890625l-2.578125 2.921875q-0.8125 -0.75 -1.625 -1.15625q-0.8125 -0.421875 -1.90625 -0.421875q-1.078125 0 -2.03125 0.46875q-0.9375 0.46875 -1.640625 1.328125q-0.703125 0.859375 -1.109375 2.109375q-0.40625 1.25 -0.40625 2.8125q0 3.234375 1.375 5.015625q1.390625 1.765625 3.6875 1.765625q1.28125 0 2.234375 -0.5q0.96875 -0.515625 1.734375 -1.34375l2.59375 2.84375q-1.3125 1.53125 -3.0 2.3125q-1.671875 0.765625 -3.625 0.765625q-2.015625 0 -3.8125 -0.6875q-1.78125 -0.6875 -3.125 -2.03125q-1.34375 -1.359375 -2.125 -3.359375q-0.765625 -2.0 -0.765625 -4.609375zm19.624023 -10.5625l5.890625 0q2.390625 0 4.3125 0.609375q1.921875 0.609375 3.296875 1.875q1.375 1.25 2.109375 3.203125q0.734375 1.953125 0.734375 4.640625q0 2.6875 -0.734375 4.671875q-0.734375 1.984375 -2.078125 3.28125q-1.34375 1.296875 -3.21875 1.9375q-1.875 0.640625 -4.171875 0.640625l-6.140625 0l0 -20.859375zm5.59375 17.046875q1.34375 0 2.421875 -0.34375q1.09375 -0.359375 1.859375 -1.140625q0.78125 -0.78125 1.203125 -2.0625q0.4375 -1.28125 0.4375 -3.171875q0 -1.859375 -0.4375 -3.109375q-0.421875 -1.265625 -1.203125 -2.015625q-0.765625 -0.765625 -1.859375 -1.078125q-1.078125 -0.328125 -2.421875 -0.328125l-0.890625 0l0 13.25l0.890625 0z" fill-rule="nonzero"></path><path fill="#000000" fill-opacity="0.0" d="m685.7769 328.03018l127.055115 0l0 63.93701l-127.055115 0z" fill-rule="nonzero"></path><path fill="#ffffff" d="m731.30115 361.4218q0 -2.59375 0.796875 -4.625q0.8125 -2.03125 2.171875 -3.4375q1.359375 -1.421875 3.15625 -2.15625q1.8125 -0.734375 3.828125 -0.734375q1.953125 0 3.53125 0.828125q1.59375 0.8125 2.640625 1.890625l-2.578125 2.921875q-0.8125 -0.75 -1.625 -1.15625q-0.8125 -0.421875 -1.90625 -0.421875q-1.078125 0 -2.03125 0.46875q-0.9375 0.46875 -1.640625 1.328125q-0.703125 0.859375 -1.109375 2.109375q-0.40625 1.25 -0.40625 2.8125q0 3.234375 1.375 5.015625q1.390625 1.765625 3.6875 1.765625q1.28125 0 2.234375 -0.5q0.96875 -0.515625 1.734375 -1.34375l2.59375 2.84375q-1.3125 1.53125 -3.0 2.3125q-1.671875 0.765625 -3.625 0.765625q-2.015625 0 -3.8125 -0.6875q-1.78125 -0.6875 -3.125 -2.03125q-1.34375 -1.359375 -2.125 -3.359375q-0.765625 -2.0 -0.765625 -4.609375zm19.624084 -10.5625l5.890625 0q2.390625 0 4.3125 0.609375q1.921875 0.609375 3.296875 1.875q1.375 1.25 2.109375 3.203125q0.734375 1.953125 0.734375 4.640625q0 2.6875 -0.734375 4.671875q-0.734375 1.984375 -2.078125 3.28125q-1.34375 1.296875 -3.21875 1.9375q-1.875 0.640625 -4.171875 0.640625l-6.140625 0l0 -20.859375zm5.59375 17.046875q1.34375 0 2.421875 -0.34375q1.09375 -0.359375 1.859375 -1.140625q0.78125 -0.78125 1.203125 -2.0625q0.4375 -1.28125 0.4375 -3.171875q0 -1.859375 -0.4375 -3.109375q-0.421875 -1.265625 -1.203125 -2.015625q-0.765625 -0.765625 -1.859375 -1.078125q-1.078125 -0.328125 -2.421875 -0.328125l-0.890625 0l0 13.25l0.890625 0z" fill-rule="nonzero"></path><path fill="#000000" fill-opacity="0.0" d="m135.34645 450.40814l127.05513 0l0 63.93701l-127.05513 0z" fill-rule="nonzero"></path><path fill="#ffffff" d="m180.87073 483.79977q0 -2.59375 0.796875 -4.625q0.8125 -2.03125 2.171875 -3.4375q1.359375 -1.421875 3.15625 -2.15625q1.8125 -0.734375 3.828125 -0.734375q1.953125 0 3.53125 0.828125q1.59375 0.8125 2.640625 1.890625l-2.578125 2.921875q-0.8125 -0.75 -1.625 -1.15625q-0.8125 -0.421875 -1.90625 -0.421875q-1.078125 0 -2.03125 0.46875q-0.9375 0.46875 -1.640625 1.328125q-0.703125 0.859375 -1.109375 2.109375q-0.40625 1.25 -0.40625 2.8125q0 3.234375 1.375 5.015625q1.390625 1.765625 3.6875 1.765625q1.28125 0 2.234375 -0.5q0.96875 -0.515625 1.734375 -1.34375l2.59375 2.84375q-1.3125 1.53125 -3.0 2.3125q-1.671875 0.765625 -3.625 0.765625q-2.015625 0 -3.8125 -0.6875q-1.78125 -0.6875 -3.125 -2.03125q-1.34375 -1.359375 -2.125 -3.359375q-0.765625 -2.0 -0.765625 -4.609375zm19.624039 -10.5625l5.890625 0q2.390625 0 4.3125 0.609375q1.921875 0.609375 3.296875 1.875q1.375 1.25 2.109375 3.203125q0.734375 1.953125 0.734375 4.640625q0 2.6875 -0.734375 4.671875q-0.734375 1.984375 -2.078125 3.28125q-1.34375 1.296875 -3.21875 1.9375q-1.875 0.640625 -4.171875 0.640625l-6.140625 0l0 -20.859375zm5.59375 17.046875q1.34375 0 2.421875 -0.34375q1.09375 -0.359375 1.859375 -1.140625q0.78125 -0.78125 1.203125 -2.0625q0.4375 -1.28125 0.4375 -3.171875q0 -1.859375 -0.4375 -3.109375q-0.421875 -1.265625 -1.203125 -2.015625q-0.765625 -0.765625 -1.859375 -1.078125q-1.078125 -0.328125 -2.421875 -0.328125l-0.890625 0l0 13.25l0.890625 0z" fill-rule="nonzero"></path><path fill="#000000" fill-opacity="0.0" d="m294.23358 450.4265l127.055145 0l0 63.93701l-127.055145 0z" fill-rule="nonzero"></path><path fill="#ffffff" d="m339.75787 483.81815q0 -2.59375 0.796875 -4.625q0.8125 -2.03125 2.171875 -3.4375q1.359375 -1.421875 3.15625 -2.15625q1.8125 -0.734375 3.828125 -0.734375q1.953125 0 3.53125 0.828125q1.59375 0.8125 2.640625 1.890625l-2.578125 2.921875q-0.8125 -0.75 -1.625 -1.15625q-0.8125 -0.421875 -1.90625 -0.421875q-1.078125 0 -2.03125 0.46875q-0.9375 0.46875 -1.640625 1.328125q-0.703125 0.859375 -1.109375 2.109375q-0.40625 1.25 -0.40625 2.8125q0 3.234375 1.375 5.015625q1.390625 1.765625 3.6875 1.765625q1.28125 0 2.234375 -0.5q0.96875 -0.515625 1.734375 -1.34375l2.59375 2.84375q-1.3125 1.53125 -3.0 2.3125q-1.671875 0.765625 -3.625 0.765625q-2.015625 0 -3.8125 -0.6875q-1.78125 -0.6875 -3.125 -2.03125q-1.34375 -1.359375 -2.125 -3.359375q-0.765625 -2.0 -0.765625 -4.609375zm19.624023 -10.5625l5.890625 0q2.390625 0 4.3125 0.609375q1.921875 0.609375 3.296875 1.875q1.375 1.25 2.109375 3.203125q0.734375 1.953125 0.734375 4.640625q0 2.6875 -0.734375 4.671875q-0.734375 1.984375 -2.078125 3.28125q-1.34375 1.296875 -3.21875 1.9375q-1.875 0.640625 -4.171875 0.640625l-6.140625 0l0 -20.859375zm5.59375 17.046875q1.34375 0 2.421875 -0.34375q1.09375 -0.359375 1.859375 -1.140625q0.78125 -0.78125 1.203125 -2.0625q0.4375 -1.28125 0.4375 -3.171875q0 -1.859375 -0.4375 -3.109375q-0.421875 -1.265625 -1.203125 -2.015625q-0.765625 -0.765625 -1.859375 -1.078125q-1.078125 -0.328125 -2.421875 -0.328125l-0.890625 0l0 13.25l0.890625 0z" fill-rule="nonzero"></path><path fill="#000000" fill-opacity="0.0" d="m526.8898 450.40552l127.055115 0l0 63.93701l-127.055115 0z" fill-rule="nonzero"></path><path fill="#ffffff" d="m572.41406 483.79715q0 -2.59375 0.796875 -4.625q0.8125 -2.03125 2.171875 -3.4375q1.359375 -1.421875 3.15625 -2.15625q1.8125 -0.734375 3.828125 -0.734375q1.953125 0 3.53125 0.828125q1.59375 0.8125 2.640625 1.890625l-2.578125 2.921875q-0.8125 -0.75 -1.625 -1.15625q-0.8125 -0.421875 -1.90625 -0.421875q-1.078125 0 -2.03125 0.46875q-0.9375 0.46875 -1.640625 1.328125q-0.703125 0.859375 -1.109375 2.109375q-0.40625 1.25 -0.40625 2.8125q0 3.234375 1.375 5.015625q1.390625 1.765625 3.6875 1.765625q1.28125 0 2.234375 -0.5q0.96875 -0.515625 1.734375 -1.34375l2.59375 2.84375q-1.3125 1.53125 -3.0 2.3125q-1.671875 0.765625 -3.625 0.765625q-2.015625 0 -3.8125 -0.6875q-1.78125 -0.6875 -3.125 -2.03125q-1.34375 -1.359375 -2.125 -3.359375q-0.765625 -2.0 -0.765625 -4.609375zm19.624023 -10.5625l5.890625 0q2.390625 0 4.3125 0.609375q1.921875 0.609375 3.296875 1.875q1.375 1.25 2.109375 3.203125q0.734375 1.953125 0.734375 4.640625q0 2.6875 -0.734375 4.671875q-0.734375 1.984375 -2.078125 3.28125q-1.34375 1.296875 -3.21875 1.9375q-1.875 0.640625 -4.171875 0.640625l-6.140625 0l0 -20.859375zm5.59375 17.046875q1.34375 0 2.421875 -0.34375q1.09375 -0.359375 1.859375 -1.140625q0.78125 -0.78125 1.203125 -2.0625q0.4375 -1.28125 0.4375 -3.171875q0 -1.859375 -0.4375 -3.109375q-0.421875 -1.265625 -1.203125 -2.015625q-0.765625 -0.765625 -1.859375 -1.078125q-1.078125 -0.328125 -2.421875 -0.328125l-0.890625 0l0 13.25l0.890625 0z" fill-rule="nonzero"></path><path fill="#000000" fill-opacity="0.0" d="m685.7769 450.4265l127.055115 0l0 63.93701l-127.055115 0z" fill-rule="nonzero"></path><path fill="#ffffff" d="m731.30115 483.81815q0 -2.59375 0.796875 -4.625q0.8125 -2.03125 2.171875 -3.4375q1.359375 -1.421875 3.15625 -2.15625q1.8125 -0.734375 3.828125 -0.734375q1.953125 0 3.53125 0.828125q1.59375 0.8125 2.640625 1.890625l-2.578125 2.921875q-0.8125 -0.75 -1.625 -1.15625q-0.8125 -0.421875 -1.90625 -0.421875q-1.078125 0 -2.03125 0.46875q-0.9375 0.46875 -1.640625 1.328125q-0.703125 0.859375 -1.109375 2.109375q-0.40625 1.25 -0.40625 2.8125q0 3.234375 1.375 5.015625q1.390625 1.765625 3.6875 1.765625q1.28125 0 2.234375 -0.5q0.96875 -0.515625 1.734375 -1.34375l2.59375 2.84375q-1.3125 1.53125 -3.0 2.3125q-1.671875 0.765625 -3.625 0.765625q-2.015625 0 -3.8125 -0.6875q-1.78125 -0.6875 -3.125 -2.03125q-1.34375 -1.359375 -2.125 -3.359375q-0.765625 -2.0 -0.765625 -4.609375zm19.624084 -10.5625l5.890625 0q2.390625 0 4.3125 0.609375q1.921875 0.609375 3.296875 1.875q1.375 1.25 2.109375 3.203125q0.734375 1.953125 0.734375 4.640625q0 2.6875 -0.734375 4.671875q-0.734375 1.984375 -2.078125 3.28125q-1.34375 1.296875 -3.21875 1.9375q-1.875 0.640625 -4.171875 0.640625l-6.140625 0l0 -20.859375zm5.59375 17.046875q1.34375 0 2.421875 -0.34375q1.09375 -0.359375 1.859375 -1.140625q0.78125 -0.78125 1.203125 -2.0625q0.4375 -1.28125 0.4375 -3.171875q0 -1.859375 -0.4375 -3.109375q-0.421875 -1.265625 -1.203125 -2.015625q-0.765625 -0.765625 -1.859375 -1.078125q-1.078125 -0.328125 -2.421875 -0.328125l-0.890625 0l0 13.25l0.890625 0z" fill-rule="nonzero"></path><path fill="#ffffff" d="m-96.04593 834.31757l8.826767 0l0 -434.06296l17.653542 0l0 434.06296l8.826775 0l-17.653542 17.653564z" fill-rule="nonzero"></path><path stroke="#ffffff" stroke-width="1.0" stroke-linejoin="round" stroke-linecap="butt" d="m-96.04593 834.31757l8.826767 0l0 -434.06296l17.653542 0l0 434.06296l8.826775 0l-17.653542 17.653564z" fill-rule="nonzero"></path></g></svg>

