<?xml version="1.0" standalone="yes"?>

<svg version="1.1" viewBox="0.0 0.0 960.0 720.0" fill="none" stroke="none" stroke-linecap="square" stroke-miterlimit="10" xmlns="http://www.w3.org/2000/svg" xmlns:xlink="http://www.w3.org/1999/xlink"><clipPath id="p.0"><path d="m0 0l960.0 0l0 720.0l-960.0 0l0 -720.0z" clip-rule="nonzero"></path></clipPath><g clip-path="url(#p.0)"><path fill="#000000" fill-opacity="0.0" d="m0 0l960.0 0l0 720.0l-960.0 0z" fill-rule="nonzero"></path><path fill="#ffffff" d="m-378.03018 152.94226l0 0c0 -26.118286 22.131927 -47.291344 49.433075 -47.291344l0 0c13.110474 0 25.68396 4.9824677 34.954468 13.851311c9.270477 8.868851 14.478607 20.897583 14.478607 33.440033l0 0c0 26.118286 -22.131958 47.291336 -49.433075 47.291336l0 0c-27.301147 0 -49.433075 -21.17305 -49.433075 -47.291336z" fill-rule="nonzero"></path><path stroke="#ffffff" stroke-width="1.0" stroke-linejoin="round" stroke-linecap="butt" d="m-378.03018 152.94226l0 0c0 -26.118286 22.131927 -47.291344 49.433075 -47.291344l0 0c13.110474 0 25.68396 4.9824677 34.954468 13.851311c9.270477 8.868851 14.478607 20.897583 14.478607 33.440033l0 0c0 26.118286 -22.131958 47.291336 -49.433075 47.291336l0 0c-27.301147 0 -49.433075 -21.17305 -49.433075 -47.291336z" fill-rule="nonzero"></path><path fill="#ffffff" d="m-243.4567 191.79002l0 0c0 -26.118286 22.131943 -47.291336 49.433075 -47.291336l0 0c13.110458 0 25.68396 4.9824677 34.954453 13.851318c9.270508 8.868835 14.478622 20.897583 14.478622 33.440018l0 0c0 26.118286 -22.131943 47.291336 -49.433075 47.291336l0 0c-27.301132 0 -49.433075 -21.17305 -49.433075 -47.291336z" fill-rule="nonzero"></path><path stroke="#ffffff" stroke-width="1.0" stroke-linejoin="round" stroke-linecap="butt" d="m-243.4567 191.79002l0 0c0 -26.118286 22.131943 -47.291336 49.433075 -47.291336l0 0c13.110458 0 25.68396 4.9824677 34.954453 13.851318c9.270508 8.868835 14.478622 20.897583 14.478622 33.440018l0 0c0 26.118286 -22.131943 47.291336 -49.433075 47.291336l0 0c-27.301132 0 -49.433075 -21.17305 -49.433075 -47.291336z" fill-rule="nonzero"></path><path fill="#ffffff" d="m-394.80185 302.0761l0 0c0 -26.118286 22.131958 -47.291336 49.433075 -47.291336l0 0c13.110474 0 25.68396 4.9824677 34.954468 13.851303c9.270508 8.868866 14.478607 20.897583 14.478607 33.440033l0 0c0 26.118286 -22.131927 47.29135 -49.433075 47.29135l0 0c-27.301117 0 -49.433075 -21.173065 -49.433075 -47.29135z" fill-rule="nonzero"></path><path stroke="#ffffff" stroke-width="1.0" stroke-linejoin="round" stroke-linecap="butt" d="m-394.80185 302.0761l0 0c0 -26.118286 22.131958 -47.291336 49.433075 -47.291336l0 0c13.110474 0 25.68396 4.9824677 34.954468 13.851303c9.270508 8.868866 14.478607 20.897583 14.478607 33.440033l0 0c0 26.118286 -22.131927 47.29135 -49.433075 47.29135l0 0c-27.301117 0 -49.433075 -21.173065 -49.433075 -47.29135z" fill-rule="nonzero"></path><path fill="#ffffff" d="m-127.82546 311.76904l0 0c0 -26.118286 22.131943 -47.29135 49.433075 -47.29135l0 0c13.110466 0 25.68396 4.9824524 34.95446 13.851318c9.270496 8.868835 14.478609 20.897583 14.478609 33.440033l0 0c0 26.118286 -22.13194 47.29132 -49.433067 47.29132l0 0c-27.301132 0 -49.433075 -21.173035 -49.433075 -47.29132z" fill-rule="nonzero"></path><path stroke="#ffffff" stroke-width="1.0" stroke-linejoin="round" stroke-linecap="butt" d="m-127.82546 311.76904l0 0c0 -26.118286 22.131943 -47.29135 49.433075 -47.29135l0 0c13.110466 0 25.68396 4.9824524 34.95446 13.851318c9.270496 8.868835 14.478609 20.897583 14.478609 33.440033l0 0c0 26.118286 -22.13194 47.29132 -49.433067 47.29132l0 0c-27.301132 0 -49.433075 -21.173035 -49.433075 -47.29132z" fill-rule="nonzero"></path><path fill="#ffffff" d="m-279.16534 350.31235l0 0c0 -26.118286 22.131927 -47.29135 49.43306 -47.29135l0 0c13.110474 0 25.68396 4.9824524 34.954468 13.851318c9.270493 8.868835 14.478607 20.897583 14.478607 33.440033l0 0c0 26.118286 -22.131943 47.29132 -49.433075 47.29132l0 0c-27.301132 0 -49.43306 -21.173035 -49.43306 -47.29132z" fill-rule="nonzero"></path><path stroke="#ffffff" stroke-width="1.0" stroke-linejoin="round" stroke-linecap="butt" d="m-279.16534 350.31235l0 0c0 -26.118286 22.131927 -47.29135 49.43306 -47.29135l0 0c13.110474 0 25.68396 4.9824524 34.954468 13.851318c9.270493 8.868835 14.478607 20.897583 14.478607 33.440033l0 0c0 26.118286 -22.131943 47.29132 -49.433075 47.29132l0 0c-27.301132 0 -49.43306 -21.173035 -49.43306 -47.29132z" fill-rule="nonzero"></path><path fill="#ffffff" d="m-288.5643 482.38058l0 0c0 -26.118286 22.131927 -47.29135 49.43306 -47.29135l0 0c13.110474 0 25.683975 4.982483 34.954468 13.851318c9.270493 8.868835 14.478607 20.897583 14.478607 33.440033l0 0c0 26.118286 -22.131943 47.29135 -49.433075 47.29135l0 0c-27.301132 0 -49.43306 -21.173065 -49.43306 -47.29135z" fill-rule="nonzero"></path><path stroke="#ffffff" stroke-width="1.0" stroke-linejoin="round" stroke-linecap="butt" d="m-288.5643 482.38058l0 0c0 -26.118286 22.131927 -47.29135 49.43306 -47.29135l0 0c13.110474 0 25.683975 4.982483 34.954468 13.851318c9.270493 8.868835 14.478607 20.897583 14.478607 33.440033l0 0c0 26.118286 -22.131943 47.29135 -49.433075 47.29135l0 0c-27.301132 0 -49.43306 -21.173065 -49.43306 -47.29135z" fill-rule="nonzero"></path><path fill="#000000" fill-opacity="0.0" d="m-328.5971 200.2336l-16.75592 54.551178" fill-rule="nonzero"></path><path stroke="#ffffff" stroke-width="4.0" stroke-linejoin="round" stroke-linecap="butt" d="m-328.5971 200.2336l-16.75592 54.551178" fill-rule="nonzero"></path><path fill="#000000" fill-opacity="0.0" d="m-279.16403 152.94226l50.173218 5.4173126" fill-rule="nonzero"></path><path stroke="#ffffff" stroke-width="4.0" stroke-linejoin="round" stroke-linecap="butt" d="m-279.16403 152.94226l50.173218 5.4173126" fill-rule="nonzero"></path><path fill="#000000" fill-opacity="0.0" d="m-194.02362 239.08136l-35.716537 63.93701" fill-rule="nonzero"></path><path stroke="#ffffff" stroke-width="4.0" stroke-linejoin="round" stroke-linecap="butt" d="m-194.02362 239.08136l-35.716537 63.93701" fill-rule="nonzero"></path><path fill="#000000" fill-opacity="0.0" d="m-159.06917 225.23006l45.732292 53.10237" fill-rule="nonzero"></path><path stroke="#ffffff" stroke-width="4.0" stroke-linejoin="round" stroke-linecap="butt" d="m-159.06917 225.23006l45.732292 53.10237" fill-rule="nonzero"></path><path fill="#000000" fill-opacity="0.0" d="m-229.73228 397.60367l-9.3858185 37.480316" fill-rule="nonzero"></path><path stroke="#ffffff" stroke-width="4.0" stroke-linejoin="round" stroke-linecap="butt" d="m-229.73228 397.60367l-9.3858185 37.480316" fill-rule="nonzero"></path><path fill="#000000" fill-opacity="0.0" d="m-113.34685 345.20905l-66.96063 5.1023865" fill-rule="nonzero"></path><path stroke="#ffffff" stroke-width="4.0" stroke-linejoin="round" stroke-linecap="butt" d="m-113.34685 345.20905l-66.96063 5.1023865" fill-rule="nonzero"></path><path fill="#000000" fill-opacity="0.0" d="m-113.34685 345.20905l-90.83464 103.71655" fill-rule="nonzero"></path><path stroke="#ffffff" stroke-width="4.0" stroke-linejoin="round" stroke-linecap="butt" d="m-113.34685 345.20905l-90.83464 103.71655" fill-rule="nonzero"></path><path fill="#ffffff" d="m404.28568 85.644615l0 0c0 -7.413231 6.009613 -13.422844 13.422852 -13.422844l105.12283 0c3.5599365 0 6.974121 1.4141922 9.491394 3.9314651c2.517212 2.5172653 3.9314575 5.9314194 3.9314575 9.491379l0 53.68975c0 7.4132385 -6.0096436 13.422836 -13.422852 13.422836l-105.12283 0c-7.4132385 0 -13.422852 -6.009598 -13.422852 -13.422836z" fill-rule="nonzero"></path><path stroke="#ffffff" stroke-width="1.0" stroke-linejoin="round" stroke-linecap="butt" d="m404.28568 85.644615l0 0c0 -7.413231 6.009613 -13.422844 13.422852 -13.422844l105.12283 0c3.5599365 0 6.974121 1.4141922 9.491394 3.9314651c2.517212 2.5172653 3.9314575 5.9314194 3.9314575 9.491379l0 53.68975c0 7.4132385 -6.0096436 13.422836 -13.422852 13.422836l-105.12283 0c-7.4132385 0 -13.422852 -6.009598 -13.422852 -13.422836z" fill-rule="nonzero"></path><path fill="#ffffff" d="m484.28806 204.8377l0 0c0 -7.4132385 6.009613 -13.422852 13.422852 -13.422852l105.12283 0c3.5599365 0 6.974121 1.4141998 9.491333 3.9314728c2.517273 2.5172577 3.9315186 5.9314117 3.9315186 9.491379l0 53.68976c0 7.413208 -6.0096436 13.422821 -13.422852 13.422821l-105.12283 0c-7.4132385 0 -13.422852 -6.009613 -13.422852 -13.422821z" fill-rule="nonzero"></path><path stroke="#ffffff" stroke-width="1.0" stroke-linejoin="round" stroke-linecap="butt" d="m484.28806 204.8377l0 0c0 -7.4132385 6.009613 -13.422852 13.422852 -13.422852l105.12283 0c3.5599365 0 6.974121 1.4141998 9.491333 3.9314728c2.517273 2.5172577 3.9315186 5.9314117 3.9315186 9.491379l0 53.68976c0 7.413208 -6.0096436 13.422821 -13.422852 13.422821l-105.12283 0c-7.4132385 0 -13.422852 -6.009613 -13.422852 -13.422821z" fill-rule="nonzero"></path><path fill="#ffffff" d="m327.07416 204.8377l0 0c0 -7.4132385 6.009613 -13.422852 13.422821 -13.422852l105.12283 0c3.559967 0 6.974121 1.4141998 9.491394 3.9314728c2.5172424 2.5172577 3.9314575 5.9314117 3.9314575 9.491379l0 53.68976c0 7.413208 -6.009613 13.422821 -13.422852 13.422821l-105.12283 0c-7.413208 0 -13.422821 -6.009613 -13.422821 -13.422821z" fill-rule="nonzero"></path><path stroke="#ffffff" stroke-width="1.0" stroke-linejoin="round" stroke-linecap="butt" d="m327.07416 204.8377l0 0c0 -7.4132385 6.009613 -13.422852 13.422821 -13.422852l105.12283 0c3.559967 0 6.974121 1.4141998 9.491394 3.9314728c2.5172424 2.5172577 3.9314575 5.9314117 3.9314575 9.491379l0 53.68976c0 7.413208 -6.009613 13.422821 -13.422852 13.422821l-105.12283 0c-7.413208 0 -13.422821 -6.009613 -13.422821 -13.422821z" fill-rule="nonzero"></path><path fill="#ffffff" d="m291.7765 333.15414l0 0c0 -7.4132385 6.009613 -13.422852 13.422852 -13.422852l105.1228 0c3.559967 0 6.974121 1.4141846 9.491394 3.9314575c2.517273 2.517273 3.9314575 5.931427 3.9314575 9.491394l0 53.68976c0 7.413208 -6.009613 13.422821 -13.422852 13.422821l-105.1228 0c-7.4132385 0 -13.422852 -6.009613 -13.422852 -13.422821z" fill-rule="nonzero"></path><path stroke="#ffffff" stroke-width="1.0" stroke-linejoin="round" stroke-linecap="butt" d="m291.7765 333.15414l0 0c0 -7.4132385 6.009613 -13.422852 13.422852 -13.422852l105.1228 0c3.559967 0 6.974121 1.4141846 9.491394 3.9314575c2.517273 2.517273 3.9314575 5.931427 3.9314575 9.491394l0 53.68976c0 7.413208 -6.009613 13.422821 -13.422852 13.422821l-105.1228 0c-7.4132385 0 -13.422852 -6.009613 -13.422852 -13.422821z" fill-rule="nonzero"></path><path fill="#ffffff" d="m132.88977 333.15414l0 0c0 -7.4132385 6.009598 -13.422852 13.422836 -13.422852l105.12282 0c3.559967 0 6.974121 1.4141846 9.491394 3.9314575c2.517273 2.517273 3.9314575 5.931427 3.9314575 9.491394l0 53.68976c0 7.413208 -6.009613 13.422821 -13.422852 13.422821l-105.12282 0c-7.4132385 0 -13.422836 -6.009613 -13.422836 -13.422821z" fill-rule="nonzero"></path><path stroke="#ffffff" stroke-width="1.0" stroke-linejoin="round" stroke-linecap="butt" d="m132.88977 333.15414l0 0c0 -7.4132385 6.009598 -13.422852 13.422836 -13.422852l105.12282 0c3.559967 0 6.974121 1.4141846 9.491394 3.9314575c2.517273 2.517273 3.9314575 5.931427 3.9314575 9.491394l0 53.68976c0 7.413208 -6.009613 13.422821 -13.422852 13.422821l-105.12282 0c-7.4132385 0 -13.422836 -6.009613 -13.422836 -13.422821z" fill-rule="nonzero"></path><path fill="#ffffff" d="m291.77747 455.53622l0 0c0 -7.413208 6.009613 -13.422821 13.422852 -13.422821l105.12283 0c3.5599365 0 6.9740906 1.4141846 9.491364 3.9314575c2.517273 2.517273 3.9314575 5.931427 3.9314575 9.491364l0 53.68976c0 7.4132385 -6.009613 13.422821 -13.422821 13.422821l-105.12283 0c-7.4132385 0 -13.422852 -6.0095825 -13.422852 -13.422821z" fill-rule="nonzero"></path><path stroke="#ffffff" stroke-width="1.0" stroke-linejoin="round" stroke-linecap="butt" d="m291.77747 455.53622l0 0c0 -7.413208 6.009613 -13.422821 13.422852 -13.422821l105.12283 0c3.5599365 0 6.9740906 1.4141846 9.491364 3.9314575c2.517273 2.517273 3.9314575 5.931427 3.9314575 9.491364l0 53.68976c0 7.4132385 -6.009613 13.422821 -13.422821 13.422821l-105.12283 0c-7.4132385 0 -13.422852 -6.0095825 -13.422852 -13.422821z" fill-rule="nonzero"></path><path fill="#000000" fill-opacity="0.0" d="m470.26993 152.7572l-77.19684 38.645676" fill-rule="nonzero"></path><path stroke="#ffffff" stroke-width="4.0" stroke-linejoin="round" stroke-linecap="butt" d="m470.26993 152.7572l-77.19684 38.645676" fill-rule="nonzero"></path><path fill="#000000" fill-opacity="0.0" d="m470.26993 152.7572l80.00003 38.645676" fill-rule="nonzero"></path><path stroke="#ffffff" stroke-width="4.0" stroke-linejoin="round" stroke-linecap="butt" d="m470.26993 152.7572l80.00003 38.645676" fill-rule="nonzero"></path><path fill="#000000" fill-opacity="0.0" d="m550.27234 271.9503l0 0" fill-rule="nonzero"></path><path stroke="#ffffff" stroke-width="4.0" stroke-linejoin="round" stroke-linecap="butt" d="m550.27234 271.9503l0 0" fill-rule="nonzero"></path><path fill="#000000" fill-opacity="0.0" d="m393.0584 271.9503l-35.3071 47.77954" fill-rule="nonzero"></path><path stroke="#ffffff" stroke-width="4.0" stroke-linejoin="round" stroke-linecap="butt" d="m393.0584 271.9503l-35.3071 47.77954" fill-rule="nonzero"></path><path fill="#000000" fill-opacity="0.0" d="m357.76074 400.26672l0 41.858276" fill-rule="nonzero"></path><path stroke="#ffffff" stroke-width="4.0" stroke-linejoin="round" stroke-linecap="butt" d="m357.76074 400.26672l0 41.858276" fill-rule="nonzero"></path><path fill="#000000" fill-opacity="0.0" d="m393.0584 271.9503l-194.17323 47.77954" fill-rule="nonzero"></path><path stroke="#ffffff" stroke-width="4.0" stroke-linejoin="round" stroke-linecap="butt" d="m393.0584 271.9503l-194.17323 47.77954" fill-rule="nonzero"></path><path fill="#000000" fill-opacity="0.0" d="m-394.80054 0l352.47244 0l0 72.220474l-352.47244 0z" fill-rule="nonzero"></path><path fill="#ffffff" d="m-290.3893 21.89336l7.484375 0l5.234375 14.0625l1.859375 5.46875l0.203125 0l1.875 -5.46875l5.078125 -14.0625l7.4374695 0l0 31.296875l-6.5780945 0l0 -11.46875q0 -1.15625 0.09375 -2.546875q0.109375 -1.390625 0.25 -2.796875q0.140625 -1.421875 0.28125 -2.78125q0.15625 -1.375 0.296875 -2.53125l-0.1875 0l-2.59375 7.25l-4.8125 12.140625l-2.828125 0l-4.796875 -12.140625l-2.5 -7.25l-0.1875 0q0.140625 1.15625 0.28125 2.53125q0.15625 1.359375 0.265625 2.78125q0.125 1.40625 0.21875 2.796875q0.09375 1.390625 0.09375 2.546875l0 11.46875l-6.46875 0l0 -31.296875zm49.294815 31.875q-3.171875 0 -5.796875 -1.125q-2.609375 -1.140625 -4.484375 -3.25q-1.875 -2.109375 -2.90625 -5.125q-1.03125 -3.03125 -1.03125 -6.875q0 -3.828125 1.03125 -6.828125q1.03125 -3.0 2.90625 -5.046875q1.875 -2.046875 4.484375 -3.125q2.625 -1.078125 5.796875 -1.078125q3.15625 0 5.765625 1.078125q2.625 1.078125 4.5 3.15625q1.875 2.0625 2.90625 5.0625q1.03125 3.0 1.03125 6.78125q0 3.84375 -1.03125 6.875q-1.03125 3.015625 -2.90625 5.125q-1.875 2.109375 -4.5 3.25q-2.609375 1.125 -5.765625 1.125zm0 -6.09375q3.203125 0 5.078125 -2.765625q1.875 -2.765625 1.875 -7.515625q0 -4.703125 -1.875 -7.34375q-1.875 -2.640625 -5.078125 -2.640625q-3.21875 0 -5.09375 2.640625q-1.875 2.640625 -1.875 7.34375q0 4.75 1.875 7.515625q1.875 2.765625 5.09375 2.765625zm20.113312 -25.78125l8.828125 0q3.59375 0 6.46875 0.921875q2.890625 0.90625 4.953125 2.796875q2.0625 1.890625 3.15625 4.828125q1.109375 2.921875 1.109375 6.953125q0 4.03125 -1.109375 7.015625q-1.09375 2.96875 -3.109375 4.921875q-2.015625 1.9375 -4.828125 2.90625q-2.796875 0.953125 -6.265625 0.953125l-9.203125 0l0 -31.296875zm8.390625 25.578125q2.015625 0 3.640625 -0.515625q1.640625 -0.53125 2.796875 -1.703125q1.15625 -1.1875 1.796875 -3.09375q0.640625 -1.921875 0.640625 -4.765625q0 -2.78125 -0.640625 -4.671875q-0.640625 -1.90625 -1.796875 -3.03125q-1.15625 -1.125 -2.796875 -1.59375q-1.625 -0.484375 -3.640625 -0.484375l-1.34375 0l0 19.859375l1.34375 0zm22.089447 -25.578125l19.578125 0l0 5.953125l-12.53125 0l0 6.28125l10.65625 0l0 5.90625l-10.65625 0l0 7.203125l13.015625 0l0 5.953125l-20.0625 0l0 -31.296875zm26.304047 0l7.046875 0l0 25.34375l12.390625 0l0 5.953125l-19.4375 0l0 -31.296875z" fill-rule="nonzero"></path><path fill="#000000" fill-opacity="0.0" d="m1085.2704 116.83071l352.4724 0l0 72.22047l-352.4724 0z" fill-rule="nonzero"></path><path fill="#ffffff" d="m1215.2656 138.72408l8.828125 0q3.59375 0 6.46875 0.921875q2.890625 0.90625 4.953125 2.796875q2.0625 1.890625 3.15625 4.828125q1.109375 2.921875 1.109375 6.953125q0 4.03125 -1.109375 7.015625q-1.09375 2.96875 -3.109375 4.921875q-2.015625 1.9375 -4.828125 2.90625q-2.796875 0.953125 -6.265625 0.953125l-9.203125 0l0 -31.296875zm8.390625 25.578125q2.015625 0 3.640625 -0.515625q1.640625 -0.53125 2.796875 -1.703125q1.15625 -1.1875 1.796875 -3.09375q0.640625 -1.921875 0.640625 -4.765625q0 -2.78125 -0.640625 -4.671875q-0.640625 -1.90625 -1.796875 -3.03125q-1.15625 -1.125 -2.796875 -1.59375q-1.625 -0.484375 -3.640625 -0.484375l-1.34375 0l0 19.859375l1.34375 0zm34.808105 6.296875q-3.171875 0 -5.796875 -1.125q-2.609375 -1.140625 -4.484375 -3.25q-1.875 -2.109375 -2.90625 -5.125q-1.03125 -3.03125 -1.03125 -6.875q0 -3.828125 1.03125 -6.828125q1.03125 -3.0 2.90625 -5.046875q1.875 -2.046875 4.484375 -3.125q2.625 -1.078125 5.796875 -1.078125q3.15625 0 5.765625 1.078125q2.625 1.078125 4.5 3.15625q1.875 2.0625 2.90625 5.0625q1.03125 3.0 1.03125 6.78125q0 3.84375 -1.03125 6.875q-1.03125 3.015625 -2.90625 5.125q-1.875 2.109375 -4.5 3.25q-2.609375 1.125 -5.765625 1.125zm0 -6.09375q3.203125 0 5.078125 -2.765625q1.875 -2.765625 1.875 -7.515625q0 -4.703125 -1.875 -7.34375q-1.875 -2.640625 -5.078125 -2.640625q-3.21875 0 -5.09375 2.640625q-1.875 2.640625 -1.875 7.34375q0 4.75 1.875 7.515625q1.875 2.765625 5.09375 2.765625zm20.113403 -25.78125l7.484375 0l5.234375 14.0625l1.859375 5.46875l0.203125 0l1.875 -5.46875l5.078125 -14.0625l7.4375 0l0 31.296875l-6.578125 0l0 -11.46875q0 -1.15625 0.09375 -2.546875q0.109375 -1.390625 0.25 -2.796875q0.140625 -1.421875 0.28125 -2.78125q0.15625 -1.375 0.296875 -2.53125l-0.1875 0l-2.59375 7.25l-4.8125 12.140625l-2.828125 0l-4.796875 -12.140625l-2.5 -7.25l-0.1875 0q0.140625 1.15625 0.28125 2.53125q0.15625 1.359375 0.265625 2.78125q0.125 1.40625 0.21875 2.796875q0.09375 1.390625 0.09375 2.546875l0 11.46875l-6.46875 0l0 -31.296875z" fill-rule="nonzero"></path><path fill="#ffffff" d="m683.3198 333.15414l0 0c0 -7.4132385 6.0095825 -13.422852 13.422791 -13.422852l105.12286 0c3.5599365 0 6.974121 1.4141846 9.491394 3.9314575c2.517273 2.517273 3.9314575 5.931427 3.9314575 9.491394l0 53.68976c0 7.413208 -6.0096436 13.422821 -13.422852 13.422821l-105.12286 0c-7.413208 0 -13.422791 -6.009613 -13.422791 -13.422821z" fill-rule="nonzero"></path><path stroke="#ffffff" stroke-width="1.0" stroke-linejoin="round" stroke-linecap="butt" d="m683.3198 333.15414l0 0c0 -7.4132385 6.0095825 -13.422852 13.422791 -13.422852l105.12286 0c3.5599365 0 6.974121 1.4141846 9.491394 3.9314575c2.517273 2.517273 3.9314575 5.931427 3.9314575 9.491394l0 53.68976c0 7.413208 -6.0096436 13.422821 -13.422852 13.422821l-105.12286 0c-7.413208 0 -13.422791 -6.009613 -13.422791 -13.422821z" fill-rule="nonzero"></path><path fill="#ffffff" d="m524.43304 333.15414l0 0c0 -7.4132385 6.0096436 -13.422852 13.422852 -13.422852l105.12286 0c3.5599365 0 6.97406 1.4141846 9.491333 3.9314575c2.517273 2.517273 3.9314575 5.931427 3.9314575 9.491394l0 53.68976c0 7.413208 -6.0095825 13.422821 -13.422791 13.422821l-105.12286 0c-7.413208 0 -13.422852 -6.009613 -13.422852 -13.422821z" fill-rule="nonzero"></path><path stroke="#ffffff" stroke-width="1.0" stroke-linejoin="round" stroke-linecap="butt" d="m524.43304 333.15414l0 0c0 -7.4132385 6.0096436 -13.422852 13.422852 -13.422852l105.12286 0c3.5599365 0 6.97406 1.4141846 9.491333 3.9314575c2.517273 2.517273 3.9314575 5.931427 3.9314575 9.491394l0 53.68976c0 7.413208 -6.0095825 13.422821 -13.422791 13.422821l-105.12286 0c-7.413208 0 -13.422852 -6.009613 -13.422852 -13.422821z" fill-rule="nonzero"></path><path fill="#000000" fill-opacity="0.0" d="m550.27234 271.9503l40.15747 47.77954" fill-rule="nonzero"></path><path stroke="#ffffff" stroke-width="4.0" stroke-linejoin="round" stroke-linecap="butt" d="m550.27234 271.9503l40.15747 47.77954" fill-rule="nonzero"></path><path fill="#000000" fill-opacity="0.0" d="m550.27234 271.9503l199.02362 47.77954" fill-rule="nonzero"></path><path stroke="#ffffff" stroke-width="4.0" stroke-linejoin="round" stroke-linecap="butt" d="m550.27234 271.9503l199.02362 47.77954" fill-rule="nonzero"></path><path fill="#ffffff" d="m132.89034 455.53622l0 0c0 -7.413208 6.009613 -13.422821 13.422836 -13.422821l105.12283 0c3.5599518 0 6.974121 1.4141846 9.491364 3.9314575c2.517273 2.517273 3.931488 5.931427 3.931488 9.491364l0 53.68976c0 7.4132385 -6.009613 13.422821 -13.422852 13.422821l-105.12283 0c-7.4132233 0 -13.422836 -6.0095825 -13.422836 -13.422821z" fill-rule="nonzero"></path><path stroke="#ffffff" stroke-width="1.0" stroke-linejoin="round" stroke-linecap="butt" d="m132.89034 455.53622l0 0c0 -7.413208 6.009613 -13.422821 13.422836 -13.422821l105.12283 0c3.5599518 0 6.974121 1.4141846 9.491364 3.9314575c2.517273 2.517273 3.931488 5.931427 3.931488 9.491364l0 53.68976c0 7.4132385 -6.009613 13.422821 -13.422852 13.422821l-105.12283 0c-7.4132233 0 -13.422836 -6.0095825 -13.422836 -13.422821z" fill-rule="nonzero"></path><path fill="#ffffff" d="m683.3208 455.53622l0 0c0 -7.413208 6.0095825 -13.422821 13.422852 -13.422821l105.1228 0c3.5599365 0 6.974121 1.4141846 9.491394 3.9314575c2.517273 2.517273 3.9314575 5.931427 3.9314575 9.491364l0 53.68976c0 7.4132385 -6.0096436 13.422821 -13.422852 13.422821l-105.1228 0c-7.413269 0 -13.422852 -6.0095825 -13.422852 -13.422821z" fill-rule="nonzero"></path><path stroke="#ffffff" stroke-width="1.0" stroke-linejoin="round" stroke-linecap="butt" d="m683.3208 455.53622l0 0c0 -7.413208 6.0095825 -13.422821 13.422852 -13.422821l105.1228 0c3.5599365 0 6.974121 1.4141846 9.491394 3.9314575c2.517273 2.517273 3.9314575 5.931427 3.9314575 9.491364l0 53.68976c0 7.4132385 -6.0096436 13.422821 -13.422852 13.422821l-105.1228 0c-7.413269 0 -13.422852 -6.0095825 -13.422852 -13.422821z" fill-rule="nonzero"></path><path fill="#ffffff" d="m524.43365 455.53622l0 0c0 -7.413208 6.0095825 -13.422821 13.422852 -13.422821l105.1228 0c3.5599365 0 6.974121 1.4141846 9.491394 3.9314575c2.517273 2.517273 3.9314575 5.931427 3.9314575 9.491364l0 53.68976c0 7.4132385 -6.0096436 13.422821 -13.422852 13.422821l-105.1228 0c-7.413269 0 -13.422852 -6.0095825 -13.422852 -13.422821z" fill-rule="nonzero"></path><path stroke="#ffffff" stroke-width="1.0" stroke-linejoin="round" stroke-linecap="butt" d="m524.43365 455.53622l0 0c0 -7.413208 6.0095825 -13.422821 13.422852 -13.422821l105.1228 0c3.5599365 0 6.974121 1.4141846 9.491394 3.9314575c2.517273 2.517273 3.9314575 5.931427 3.9314575 9.491364l0 53.68976c0 7.4132385 -6.0096436 13.422821 -13.422852 13.422821l-105.1228 0c-7.413269 0 -13.422852 -6.0095825 -13.422852 -13.422821z" fill-rule="nonzero"></path><path fill="#000000" fill-opacity="0.0" d="m198.87459 400.25513l0 41.858276" fill-rule="nonzero"></path><path stroke="#ffffff" stroke-width="4.0" stroke-linejoin="round" stroke-linecap="butt" d="m198.87459 400.25513l0 41.858276" fill-rule="nonzero"></path><path fill="#000000" fill-opacity="0.0" d="m357.76074 400.26672l0 41.858276" fill-rule="nonzero"></path><path stroke="#ffffff" stroke-width="4.0" stroke-linejoin="round" stroke-linecap="butt" d="m357.76074 400.26672l0 41.858276" fill-rule="nonzero"></path><path fill="#000000" fill-opacity="0.0" d="m590.4179 400.25513l0 41.858276" fill-rule="nonzero"></path><path stroke="#ffffff" stroke-width="4.0" stroke-linejoin="round" stroke-linecap="butt" d="m590.4179 400.25513l0 41.858276" fill-rule="nonzero"></path><path fill="#000000" fill-opacity="0.0" d="m749.3041 400.26672l0 41.858276" fill-rule="nonzero"></path><path stroke="#ffffff" stroke-width="4.0" stroke-linejoin="round" stroke-linecap="butt" d="m749.3041 400.26672l0 41.858276" fill-rule="nonzero"></path></g></svg>

