<?xml version="1.0" standalone="yes"?>

<svg version="1.1" viewBox="0.0 0.0 960.0 720.0" fill="none" stroke="none" stroke-linecap="square" stroke-miterlimit="10" xmlns="http://www.w3.org/2000/svg" xmlns:xlink="http://www.w3.org/1999/xlink"><clipPath id="p.0"><path d="m0 0l960.0 0l0 720.0l-960.0 0l0 -720.0z" clip-rule="nonzero"></path></clipPath><g clip-path="url(#p.0)"><path fill="#000000" fill-opacity="0.0" d="m0 0l960.0 0l0 720.0l-960.0 0z" fill-rule="nonzero"></path><path fill="#000000" fill-opacity="0.0" d="m88.11811 19.296587l464.25195 0l0 552.378l-464.25195 0z" fill-rule="nonzero"></path><path fill="#000000" fill-opacity="0.0" d="m118.2126 47.24147l404.063 0l0 98.866135l-404.063 0z" fill-rule="nonzero"></path><path fill="#ffffff" d="m135.29073 65.00891l0 6.5625l3.859375 0q0.96875 0 1.375 0.375q0.421875 0.375 0.421875 0.984375q0 0.59375 -0.421875 0.96875q-0.40625 0.375 -1.375 0.375l-8.171875 0q-0.96875 0 -1.390625 -0.375q-0.40625 -0.375 -0.40625 -0.984375q0 -0.59375 0.40625 -0.96875q0.421875 -0.375 1.390625 -0.375l1.609375 0l0 -6.5625l-1.28125 0q-0.984375 0 -1.40625 -0.375q-0.40625 -0.375 -0.40625 -0.9843712q0 -0.59375 0.40625 -0.96875q0.421875 -0.375 1.40625 -0.375l1.28125 0l0 -1.03125q0 -1.765625 1.328125 -2.921875q1.328125 -1.171875 3.84375 -1.171875q1.125 0 2.59375 0.203125q1.46875 0.203125 1.875 0.578125q0.421875 0.359375 0.421875 0.9375q0 0.625 -0.375 1.015625q-0.359375 0.390625 -0.90625 0.390625q-0.25 0 -0.75 -0.09375q-1.671875 -0.328125 -2.96875 -0.328125q-1.34375 0 -1.859375 0.40625q-0.5 0.390625 -0.5 0.984375l0 1.03125l4.171875 0q0.96875 0 1.375 0.375q0.421875 0.375 0.421875 0.984375q0 0.5937462 -0.421875 0.9687462q-0.40625 0.375 -1.375 0.375l-4.171875 0zm21.761978 -2.7031212l0 9.265621q0.859375 0 1.265625 0.390625q0.40625 0.375 0.40625 0.96875q0 0.59375 -0.421875 0.96875q-0.40625 0.375 -1.375 0.375l-2.578125 0l0 -0.625q-1.15625 0.53125 -2.21875 0.796875q-1.046875 0.265625 -2.0 0.265625q-1.328125 0 -2.3125 -0.5625q-0.96875 -0.5625 -1.53125 -1.546875q-0.421875 -0.71875 -0.421875 -1.78125l0 -5.8125l-0.453125 0q-0.984375 0 -1.40625 -0.375q-0.40625 -0.375 -0.40625 -0.9843712q0 -0.59375 0.40625 -0.96875q0.421875 -0.375 1.40625 -0.375l3.15625 0l0 8.046871q0 0.84375 0.421875 1.25q0.421875 0.40625 1.265625 0.40625q0.828125 0 1.765625 -0.3125q0.9375 -0.328125 2.328125 -1.171875l0 -5.515625l-0.96875 0q-0.984375 0 -1.40625 -0.375q-0.40625 -0.375 -0.40625 -0.9843712q0 -0.59375 0.40625 -0.96875q0.421875 -0.375 1.40625 -0.375l3.671875 0zm7.511978 0l0 0.90625q0.75 -0.625 1.640625 -0.9375q0.890625 -0.328125 1.921875 -0.328125q2.40625 0 3.796875 1.484375q1.109375 1.1874962 1.109375 3.1249962l0 5.015625q0.859375 0 1.265625 0.375q0.40625 0.375 0.40625 0.984375q0 0.59375 -0.421875 0.96875q-0.40625 0.375 -1.375 0.375l-2.4375 0q-0.984375 0 -1.40625 -0.375q-0.40625 -0.375 -0.40625 -0.984375q0 -0.59375 0.40625 -0.96875q0.40625 -0.375 1.265625 -0.375l0 -5.109375q0 -0.875 -0.46875 -1.28125q-0.625 -0.53125 -1.859375 -0.53125q-0.9375 0 -1.640625 0.359375q-0.703125 0.359375 -1.796875 1.546875l0 5.015625q1.046875 0 1.34375 0.203125q0.65625 0.390625 0.65625 1.15625q0 0.59375 -0.421875 0.96875q-0.40625 0.375 -1.390625 0.375l-3.0625 0q-0.984375 0 -1.40625 -0.375q-0.40625 -0.375 -0.40625 -0.984375q0 -0.734375 0.640625 -1.140625q0.3125 -0.203125 1.34375 -0.203125l0 -6.5625q-0.84375 0 -1.265625 -0.375q-0.40625 -0.390625 -0.40625 -0.9843712q0 -0.59375 0.40625 -0.96875q0.421875 -0.375 1.40625 -0.375l2.5625 0zm22.949478 0.484375q0.484375 -0.453125 1.0 -0.453125q0.578125 0 0.953125 0.421875q0.375 0.40625 0.375 1.3593712l0 1.75q0 0.96875 -0.375 1.375q-0.375 0.40625 -0.96875 0.40625q-0.5625 0 -0.9375 -0.3125q-0.28125 -0.234375 -0.4375 -0.96875q-0.15625 -0.734375 -0.765625 -1.078125q-1.078125 -0.640625 -2.734375 -0.640625q-1.90625 0 -3.0625 1.125q-1.15625 1.109375 -1.15625 2.828125q0 1.578125 1.109375 2.5q1.109375 0.921875 3.671875 0.921875q1.6875 0 2.765625 -0.34375q0.625 -0.21875 1.1875 -0.71875q0.578125 -0.515625 1.03125 -0.515625q0.5625 0 0.953125 0.421875q0.40625 0.40625 0.40625 0.953125q0 0.890625 -1.21875 1.703125q-1.828125 1.203125 -5.328125 1.203125q-3.15625 0 -4.90625 -1.3125q-2.375 -1.75 -2.375 -4.796875q0 -2.890625 1.921875 -4.781246q1.9375 -1.890625 5.03125 -1.890625q1.125 0 2.078125 0.21875q0.96875 0.203125 1.78125 0.625zm11.121353 2.2187462l0 5.421875q0 0.859375 0.359375 1.140625q0.546875 0.4375 1.96875 0.4375q2.078125 0 3.828125 -0.890625q0.671875 -0.34375 1.046875 -0.34375q0.53125 0 0.921875 0.40625q0.390625 0.390625 0.390625 0.953125q0 0.53125 -0.421875 0.921875q-0.640625 0.609375 -2.546875 1.140625q-1.90625 0.515625 -3.21875 0.515625q-2.515625 0 -3.78125 -1.078125q-1.25 -1.09375 -1.25 -2.6875l0 -5.9375l-0.984375 0q-0.96875 0 -1.390625 -0.375q-0.40625 -0.375 -0.40625 -0.9843712q0 -0.59375 0.40625 -0.96875q0.421875 -0.375 1.390625 -0.375l0.984375 0l0 -2.4375q0 -0.984375 0.375 -1.390625q0.375 -0.421875 0.984375 -0.421875q0.59375 0 0.96875 0.421875q0.375 0.40625 0.375 1.390625l0 2.4375l5.0 0q0.96875 0 1.375 0.375q0.421875 0.375 0.421875 0.984375q0 0.5937462 -0.421875 0.9687462q-0.40625 0.375 -1.375 0.375l-5.0 0zm17.636978 -7.828121l0 2.859375l-3.21875 0l0 -2.859375l3.21875 0zm0.359375 5.125l0 9.265621l3.25 0q0.96875 0 1.375 0.375q0.421875 0.375 0.421875 0.984375q0 0.59375 -0.421875 0.96875q-0.40625 0.375 -1.375 0.375l-9.1875 0q-0.984375 0 -1.40625 -0.375q-0.40625 -0.375 -0.40625 -0.984375q0 -0.59375 0.40625 -0.96875q0.421875 -0.375 1.40625 -0.375l3.234375 0l0 -6.5625l-2.171875 0q-0.96875 0 -1.390625 -0.375q-0.421875 -0.375 -0.421875 -0.9843712q0 -0.59375 0.421875 -0.96875q0.421875 -0.375 1.390625 -0.375l4.875 0zm21.683853 6.203121q0 1.5625 -0.875 3.015625q-0.859375 1.453125 -2.5625 2.328125q-1.703125 0.859375 -3.5625 0.859375q-1.84375 0 -3.53125 -0.84375q-1.6875 -0.859375 -2.578125 -2.3125q-0.875 -1.46875 -0.875 -3.0625q0 -1.625 0.890625 -3.1875q0.890625 -1.5624962 2.5625 -2.4531212q1.6875 -0.90625 3.53125 -0.90625q1.84375 0 3.546875 0.921875q1.703125 0.90625 2.578125 2.4687462q0.875 1.546875 0.875 3.171875zm-2.703125 0.015625q0 -1.296875 -0.9375 -2.390625q-1.28125 -1.484375 -3.359375 -1.484375q-1.84375 0 -3.0625 1.171875q-1.21875 1.171875 -1.21875 2.71875q0 1.265625 1.234375 2.375q1.234375 1.09375 3.046875 1.09375q1.8125 0 3.046875 -1.09375q1.25 -1.109375 1.25 -2.390625zm8.933853 -6.218746l0 0.90625q0.75 -0.625 1.640625 -0.9375q0.890625 -0.328125 1.921875 -0.328125q2.40625 0 3.796875 1.484375q1.109375 1.1874962 1.109375 3.1249962l0 5.015625q0.859375 0 1.265625 0.375q0.40625 0.375 0.40625 0.984375q0 0.59375 -0.421875 0.96875q-0.40625 0.375 -1.375 0.375l-2.4375 0q-0.984375 0 -1.40625 -0.375q-0.40625 -0.375 -0.40625 -0.984375q0 -0.59375 0.40625 -0.96875q0.40625 -0.375 1.265625 -0.375l0 -5.109375q0 -0.875 -0.46875 -1.28125q-0.625 -0.53125 -1.859375 -0.53125q-0.9375 0 -1.640625 0.359375q-0.703125 0.359375 -1.796875 1.546875l0 5.015625q1.046875 0 1.34375 0.203125q0.65625 0.390625 0.65625 1.15625q0 0.59375 -0.421875 0.96875q-0.40625 0.375 -1.390625 0.375l-3.0625 0q-0.984375 0 -1.40625 -0.375q-0.40625 -0.375 -0.40625 -0.984375q0 -0.734375 0.640625 -1.140625q0.3125 -0.203125 1.34375 -0.203125l0 -6.5625q-0.84375 0 -1.265625 -0.375q-0.40625 -0.390625 -0.40625 -0.9843712q0 -0.59375 0.40625 -0.96875q0.421875 -0.375 1.40625 -0.375l2.5625 0zm34.711456 2.7031212l0 6.5625l3.859375 0q0.96875 0 1.375 0.375q0.421875 0.375 0.421875 0.984375q0 0.59375 -0.421875 0.96875q-0.40625 0.375 -1.375 0.375l-8.171875 0q-0.96875 0 -1.390625 -0.375q-0.40625 -0.375 -0.40625 -0.984375q0 -0.59375 0.40625 -0.96875q0.421875 -0.375 1.390625 -0.375l1.609375 0l0 -6.5625l-1.28125 0q-0.984375 0 -1.40625 -0.375q-0.40625 -0.375 -0.40625 -0.9843712q0 -0.59375 0.40625 -0.96875q0.421875 -0.375 1.40625 -0.375l1.28125 0l0 -1.03125q0 -1.765625 1.328125 -2.921875q1.328125 -1.171875 3.84375 -1.171875q1.125 0 2.59375 0.203125q1.46875 0.203125 1.875 0.578125q0.421875 0.359375 0.421875 0.9375q0 0.625 -0.375 1.015625q-0.359375 0.390625 -0.90625 0.390625q-0.25 0 -0.75 -0.09375q-1.671875 -0.328125 -2.96875 -0.328125q-1.34375 0 -1.859375 0.40625q-0.5 0.390625 -0.5 0.984375l0 1.03125l4.171875 0q0.96875 0 1.375 0.375q0.421875 0.375 0.421875 0.984375q0 0.5937462 -0.421875 0.9687462q-0.40625 0.375 -1.375 0.375l-4.171875 0zm23.043213 3.5q0 1.5625 -0.875 3.015625q-0.859375 1.453125 -2.5625 2.328125q-1.703125 0.859375 -3.5625 0.859375q-1.84375 0 -3.53125 -0.84375q-1.6875 -0.859375 -2.578125 -2.3125q-0.875 -1.46875 -0.875 -3.0625q0 -1.625 0.890625 -3.1875q0.890625 -1.5624962 2.5625 -2.4531212q1.6875 -0.90625 3.53125 -0.90625q1.84375 0 3.546875 0.921875q1.703125 0.90625 2.578125 2.4687462q0.875 1.546875 0.875 3.171875zm-2.703125 0.015625q0 -1.296875 -0.9375 -2.390625q-1.28125 -1.484375 -3.359375 -1.484375q-1.84375 0 -3.0625 1.171875q-1.21875 1.171875 -1.21875 2.71875q0 1.265625 1.234375 2.375q1.234375 1.09375 3.046875 1.09375q1.8125 0 3.046875 -1.09375q1.25 -1.109375 1.25 -2.390625zm18.699493 -0.015625q0 1.5625 -0.875 3.015625q-0.859375 1.453125 -2.5625 2.328125q-1.703125 0.859375 -3.5625 0.859375q-1.84375 0 -3.53125 -0.84375q-1.6875 -0.859375 -2.578125 -2.3125q-0.875 -1.46875 -0.875 -3.0625q0 -1.625 0.890625 -3.1875q0.890625 -1.5624962 2.5625 -2.4531212q1.6875 -0.90625 3.53125 -0.90625q1.84375 0 3.546875 0.921875q1.703125 0.90625 2.578125 2.4687462q0.875 1.546875 0.875 3.171875zm-2.703125 0.015625q0 -1.296875 -0.9375 -2.390625q-1.28125 -1.484375 -3.359375 -1.484375q-1.84375 0 -3.0625 1.171875q-1.21875 1.171875 -1.21875 2.71875q0 1.265625 1.234375 2.375q1.234375 1.09375 3.046875 1.09375q1.8125 0 3.046875 -1.09375q1.25 -1.109375 1.25 -2.390625zm10.699463 -0.8125q0 -2.3125 0.765625 -4.671871q0.578125 -1.734375 1.765625 -3.875q0.84375 -1.53125 1.25 -1.875q0.421875 -0.359375 0.921875 -0.359375q0.578125 0 0.96875 0.40625q0.40625 0.390625 0.40625 0.953125q0 0.375 -0.328125 0.90625q-1.421875 2.328125 -2.078125 4.375q-0.640625 2.0468712 -0.640625 4.140621q0 2.109375 0.640625 4.15625q0.65625 2.03125 2.078125 4.375q0.328125 0.515625 0.328125 0.90625q0 0.546875 -0.40625 0.9375q-0.390625 0.40625 -0.96875 0.40625q-0.484375 0 -0.859375 -0.3125q-0.53125 -0.46875 -1.390625 -2.078125q-1.265625 -2.328125 -1.71875 -3.84375q-0.734375 -2.328125 -0.734375 -4.546875zm18.121368 0q0 2.296875 -0.765625 4.671875q-0.5625 1.75 -1.75 3.875q-0.859375 1.515625 -1.265625 1.875q-0.40625 0.359375 -0.90625 0.359375q-0.578125 0 -0.984375 -0.40625q-0.390625 -0.390625 -0.390625 -0.9375q0 -0.390625 0.3125 -0.90625q1.4375 -2.34375 2.078125 -4.375q0.65625 -2.046875 0.65625 -4.15625q0 -2.09375 -0.65625 -4.140621q-0.640625 -2.046875 -2.078125 -4.375q-0.3125 -0.53125 -0.3125 -0.90625q0 -0.5625 0.390625 -0.953125q0.40625 -0.40625 0.984375 -0.40625q0.484375 0 0.859375 0.328125q0.53125 0.4375 1.390625 2.0625q1.25 2.34375 1.71875 3.84375q0.71875 2.3281212 0.71875 4.546871zm31.398956 0.015625q0.46875 0.53125 0.640625 1.046875q0.171875 0.5 0.171875 1.640625l0 4.296875q0 0.53125 0.203125 0.765625q0.203125 0.234375 0.75 0.28125q0.5625 0.046875 0.90625 0.421875q0.359375 0.390625 0.359375 0.9375q0 0.578125 -0.40625 0.96875q-0.390625 0.40625 -1.015625 0.40625q-0.875 0 -1.703125 -0.46875q-0.8125 -0.46875 -1.421875 -1.515625q-0.375 -0.6875 -0.375 -1.59375l0 -4.765625q0 -0.5625 -0.1875 -0.765625q-0.1875 -0.21875 -0.796875 -0.296875q-0.59375 -0.078125 -0.921875 -0.421875q-0.328125 -0.359375 -0.328125 -0.9375q0 -0.59375 0.328125 -0.953125q0.328125 -0.359375 0.9375 -0.421875q0.609375 -0.078125 0.75 -0.25q0.21875 -0.265625 0.21875 -0.8125l0 -4.515621q0 -1.453125 1.046875 -2.515625q1.0625 -1.0625 2.4375 -1.0625q0.640625 0 1.03125 0.40625q0.40625 0.390625 0.40625 0.96875q0 0.546875 -0.359375 0.9375q-0.34375 0.375 -0.921875 0.421875q-0.5625 0.046875 -0.703125 0.234375q-0.234375 0.28125 -0.234375 0.8125l0 4.312496q0 0.90625 -0.1875 1.40625q-0.171875 0.484375 -0.625 1.03125z" fill-rule="nonzero"></path><path fill="#ffffff" d="m169.37718 104.91516q0 0.765625 -0.546875 1.28125q-0.546875 0.515625 -1.484375 0.515625q-0.953125 0 -1.5 -0.515625q-0.53125 -0.515625 -0.53125 -1.28125q0 -0.765625 0.53125 -1.28125q0.546875 -0.515625 1.5 -0.515625q0.9375 0 1.484375 0.515625q0.546875 0.515625 0.546875 1.28125zm15.996353 0q0 0.765625 -0.546875 1.28125q-0.546875 0.515625 -1.484375 0.515625q-0.953125 0 -1.5 -0.515625q-0.53125 -0.515625 -0.53125 -1.28125q0 -0.765625 0.53125 -1.28125q0.546875 -0.515625 1.5 -0.515625q0.9375 0 1.484375 0.515625q0.546875 0.515625 0.546875 1.28125zm15.996353 0q0 0.765625 -0.546875 1.28125q-0.546875 0.515625 -1.484375 0.515625q-0.953125 0 -1.5 -0.515625q-0.53125 -0.515625 -0.53125 -1.28125q0 -0.765625 0.53125 -1.28125q0.546875 -0.515625 1.5 -0.515625q0.9375 0 1.484375 0.515625q0.546875 0.515625 0.546875 1.28125z" fill-rule="nonzero"></path><path fill="#ffffff" d="m134.69698 131.72766q-0.453125 -0.546875 -0.640625 -1.046875q-0.171875 -0.515625 -0.171875 -1.390625l0 -4.3124924q0 -0.53125 -0.203125 -0.765625q-0.203125 -0.234375 -0.765625 -0.28125q-0.546875 -0.046875 -0.90625 -0.421875q-0.359375 -0.390625 -0.359375 -0.9375q0 -0.578125 0.40625 -0.96875q0.40625 -0.40625 1.015625 -0.40625q0.890625 0 1.703125 0.46875q0.828125 0.46875 1.421875 1.53125q0.390625 0.6875 0.390625 1.578125l0 4.5156174q0 0.5625 0.1875 0.78125q0.1875 0.21875 0.78125 0.28125q0.609375 0.0625 0.9375 0.421875q0.328125 0.359375 0.328125 0.953125q0 0.578125 -0.328125 0.9375q-0.328125 0.34375 -0.9375 0.421875q-0.609375 0.078125 -0.75 0.25q-0.21875 0.25 -0.21875 0.8125l0 4.765625q0 1.453125 -1.0625 2.515625q-1.046875 1.0625 -2.4375 1.0625q-0.625 0 -1.03125 -0.40625q-0.40625 -0.390625 -0.40625 -0.96875q0 -0.53125 0.359375 -0.921875q0.359375 -0.375 0.921875 -0.4375q0.5625 -0.046875 0.71875 -0.234375q0.234375 -0.28125 0.234375 -0.8125l0 -4.296875q0 -1.140625 0.15625 -1.640625q0.171875 -0.5 0.65625 -1.046875z" fill-rule="nonzero"></path><path fill="#000000" fill-opacity="0.0" d="m118.2126 182.99869l404.063 0l0 98.86615l-404.063 0z" fill-rule="nonzero"></path><path fill="#ffffff" d="m135.29073 200.76613l0 6.5625l3.859375 0q0.96875 0 1.375 0.375q0.421875 0.375 0.421875 0.984375q0 0.59375 -0.421875 0.96875q-0.40625 0.375 -1.375 0.375l-8.171875 0q-0.96875 0 -1.390625 -0.375q-0.40625 -0.375 -0.40625 -0.984375q0 -0.59375 0.40625 -0.96875q0.421875 -0.375 1.390625 -0.375l1.609375 0l0 -6.5625l-1.28125 0q-0.984375 0 -1.40625 -0.375q-0.40625 -0.375 -0.40625 -0.984375q0 -0.59375 0.40625 -0.96875q0.421875 -0.375 1.40625 -0.375l1.28125 0l0 -1.03125q0 -1.765625 1.328125 -2.921875q1.328125 -1.171875 3.84375 -1.171875q1.125 0 2.59375 0.203125q1.46875 0.203125 1.875 0.578125q0.421875 0.359375 0.421875 0.9375q0 0.625 -0.375 1.015625q-0.359375 0.390625 -0.90625 0.390625q-0.25 0 -0.75 -0.09375q-1.671875 -0.328125 -2.96875 -0.328125q-1.34375 0 -1.859375 0.40625q-0.5 0.390625 -0.5 0.984375l0 1.03125l4.171875 0q0.96875 0 1.375 0.375q0.421875 0.375 0.421875 0.984375q0 0.59375 -0.421875 0.96875q-0.40625 0.375 -1.375 0.375l-4.171875 0zm21.761978 -2.703125l0 9.265625q0.859375 0 1.265625 0.390625q0.40625 0.375 0.40625 0.96875q0 0.59375 -0.421875 0.96875q-0.40625 0.375 -1.375 0.375l-2.578125 0l0 -0.625q-1.15625 0.53125 -2.21875 0.796875q-1.046875 0.265625 -2.0 0.265625q-1.328125 0 -2.3125 -0.5625q-0.96875 -0.5625 -1.53125 -1.546875q-0.421875 -0.71875 -0.421875 -1.78125l0 -5.8125l-0.453125 0q-0.984375 0 -1.40625 -0.375q-0.40625 -0.375 -0.40625 -0.984375q0 -0.59375 0.40625 -0.96875q0.421875 -0.375 1.40625 -0.375l3.15625 0l0 8.046875q0 0.84375 0.421875 1.25q0.421875 0.40625 1.265625 0.40625q0.828125 0 1.765625 -0.3125q0.9375 -0.328125 2.328125 -1.171875l0 -5.515625l-0.96875 0q-0.984375 0 -1.40625 -0.375q-0.40625 -0.375 -0.40625 -0.984375q0 -0.59375 0.40625 -0.96875q0.421875 -0.375 1.40625 -0.375l3.671875 0zm7.511978 0l0 0.90625q0.75 -0.625 1.640625 -0.9375q0.890625 -0.328125 1.921875 -0.328125q2.40625 0 3.796875 1.484375q1.109375 1.1875 1.109375 3.125l0 5.015625q0.859375 0 1.265625 0.375q0.40625 0.375 0.40625 0.984375q0 0.59375 -0.421875 0.96875q-0.40625 0.375 -1.375 0.375l-2.4375 0q-0.984375 0 -1.40625 -0.375q-0.40625 -0.375 -0.40625 -0.984375q0 -0.59375 0.40625 -0.96875q0.40625 -0.375 1.265625 -0.375l0 -5.109375q0 -0.875 -0.46875 -1.28125q-0.625 -0.53125 -1.859375 -0.53125q-0.9375 0 -1.640625 0.359375q-0.703125 0.359375 -1.796875 1.546875l0 5.015625q1.046875 0 1.34375 0.203125q0.65625 0.390625 0.65625 1.15625q0 0.59375 -0.421875 0.96875q-0.40625 0.375 -1.390625 0.375l-3.0625 0q-0.984375 0 -1.40625 -0.375q-0.40625 -0.375 -0.40625 -0.984375q0 -0.734375 0.640625 -1.140625q0.3125 -0.203125 1.34375 -0.203125l0 -6.5625q-0.84375 0 -1.265625 -0.375q-0.40625 -0.390625 -0.40625 -0.984375q0 -0.59375 0.40625 -0.96875q0.421875 -0.375 1.40625 -0.375l2.5625 0zm22.949478 0.484375q0.484375 -0.453125 1.0 -0.453125q0.578125 0 0.953125 0.421875q0.375 0.40625 0.375 1.359375l0 1.75q0 0.96875 -0.375 1.375q-0.375 0.40625 -0.96875 0.40625q-0.5625 0 -0.9375 -0.3125q-0.28125 -0.234375 -0.4375 -0.96875q-0.15625 -0.734375 -0.765625 -1.078125q-1.078125 -0.640625 -2.734375 -0.640625q-1.90625 0 -3.0625 1.125q-1.15625 1.109375 -1.15625 2.828125q0 1.578125 1.109375 2.5q1.109375 0.921875 3.671875 0.921875q1.6875 0 2.765625 -0.34375q0.625 -0.21875 1.1875 -0.71875q0.578125 -0.515625 1.03125 -0.515625q0.5625 0 0.953125 0.421875q0.40625 0.40625 0.40625 0.953125q0 0.890625 -1.21875 1.703125q-1.828125 1.203125 -5.328125 1.203125q-3.15625 0 -4.90625 -1.3125q-2.375 -1.75 -2.375 -4.796875q0 -2.890625 1.921875 -4.78125q1.9375 -1.890625 5.03125 -1.890625q1.125 0 2.078125 0.21875q0.96875 0.203125 1.78125 0.625zm11.121353 2.21875l0 5.421875q0 0.859375 0.359375 1.140625q0.546875 0.4375 1.96875 0.4375q2.078125 0 3.828125 -0.890625q0.671875 -0.34375 1.046875 -0.34375q0.53125 0 0.921875 0.40625q0.390625 0.390625 0.390625 0.953125q0 0.53125 -0.421875 0.921875q-0.640625 0.609375 -2.546875 1.140625q-1.90625 0.515625 -3.21875 0.515625q-2.515625 0 -3.78125 -1.078125q-1.25 -1.09375 -1.25 -2.6875l0 -5.9375l-0.984375 0q-0.96875 0 -1.390625 -0.375q-0.40625 -0.375 -0.40625 -0.984375q0 -0.59375 0.40625 -0.96875q0.421875 -0.375 1.390625 -0.375l0.984375 0l0 -2.4375q0 -0.984375 0.375 -1.390625q0.375 -0.421875 0.984375 -0.421875q0.59375 0 0.96875 0.421875q0.375 0.40625 0.375 1.390625l0 2.4375l5.0 0q0.96875 0 1.375 0.375q0.421875 0.375 0.421875 0.984375q0 0.59375 -0.421875 0.96875q-0.40625 0.375 -1.375 0.375l-5.0 0zm17.636978 -7.828125l0 2.859375l-3.21875 0l0 -2.859375l3.21875 0zm0.359375 5.125l0 9.265625l3.25 0q0.96875 0 1.375 0.375q0.421875 0.375 0.421875 0.984375q0 0.59375 -0.421875 0.96875q-0.40625 0.375 -1.375 0.375l-9.1875 0q-0.984375 0 -1.40625 -0.375q-0.40625 -0.375 -0.40625 -0.984375q0 -0.59375 0.40625 -0.96875q0.421875 -0.375 1.40625 -0.375l3.234375 0l0 -6.5625l-2.171875 0q-0.96875 0 -1.390625 -0.375q-0.421875 -0.375 -0.421875 -0.984375q0 -0.59375 0.421875 -0.96875q0.421875 -0.375 1.390625 -0.375l4.875 0zm21.683853 6.203125q0 1.5625 -0.875 3.015625q-0.859375 1.453125 -2.5625 2.328125q-1.703125 0.859375 -3.5625 0.859375q-1.84375 0 -3.53125 -0.84375q-1.6875 -0.859375 -2.578125 -2.3125q-0.875 -1.46875 -0.875 -3.0625q0 -1.625 0.890625 -3.1875q0.890625 -1.5625 2.5625 -2.453125q1.6875 -0.90625 3.53125 -0.90625q1.84375 0 3.546875 0.921875q1.703125 0.90625 2.578125 2.46875q0.875 1.546875 0.875 3.171875zm-2.703125 0.015625q0 -1.296875 -0.9375 -2.390625q-1.28125 -1.484375 -3.359375 -1.484375q-1.84375 0 -3.0625 1.171875q-1.21875 1.171875 -1.21875 2.71875q0 1.265625 1.234375 2.375q1.234375 1.09375 3.046875 1.09375q1.8125 0 3.046875 -1.09375q1.25 -1.109375 1.25 -2.390625zm8.933853 -6.21875l0 0.90625q0.75 -0.625 1.640625 -0.9375q0.890625 -0.328125 1.921875 -0.328125q2.40625 0 3.796875 1.484375q1.109375 1.1875 1.109375 3.125l0 5.015625q0.859375 0 1.265625 0.375q0.40625 0.375 0.40625 0.984375q0 0.59375 -0.421875 0.96875q-0.40625 0.375 -1.375 0.375l-2.4375 0q-0.984375 0 -1.40625 -0.375q-0.40625 -0.375 -0.40625 -0.984375q0 -0.59375 0.40625 -0.96875q0.40625 -0.375 1.265625 -0.375l0 -5.109375q0 -0.875 -0.46875 -1.28125q-0.625 -0.53125 -1.859375 -0.53125q-0.9375 0 -1.640625 0.359375q-0.703125 0.359375 -1.796875 1.546875l0 5.015625q1.046875 0 1.34375 0.203125q0.65625 0.390625 0.65625 1.15625q0 0.59375 -0.421875 0.96875q-0.40625 0.375 -1.390625 0.375l-3.0625 0q-0.984375 0 -1.40625 -0.375q-0.40625 -0.375 -0.40625 -0.984375q0 -0.734375 0.640625 -1.140625q0.3125 -0.203125 1.34375 -0.203125l0 -6.5625q-0.84375 0 -1.265625 -0.375q-0.40625 -0.390625 -0.40625 -0.984375q0 -0.59375 0.40625 -0.96875q0.421875 -0.375 1.40625 -0.375l2.5625 0zm31.320831 -5.125l0 6.0625q1.0 -0.65625 2.015625 -0.96875q1.015625 -0.328125 2.0625 -0.328125q2.8125 0 4.765625 1.9375q1.953125 1.9375 1.953125 4.6875q0 2.625 -1.859375 4.390625q-1.859375 1.75 -4.90625 1.75q-1.078125 0 -2.09375 -0.28125q-1.0 -0.28125 -1.9375 -0.8125l0 0.65625l-3.15625 0q-0.984375 0 -1.40625 -0.375q-0.40625 -0.375 -0.40625 -0.984375q0 -0.59375 0.421875 -0.96875q0.421875 -0.375 1.390625 -0.375l0.453125 0l0 -11.6875l-0.453125 0q-0.984375 0 -1.40625 -0.375q-0.40625 -0.375 -0.40625 -0.984375q0 -0.59375 0.40625 -0.96875q0.421875 -0.375 1.40625 -0.375l3.15625 0zm8.09375 11.46875q0 -1.671875 -1.1875 -2.828125q-1.171875 -1.171875 -2.859375 -1.171875q-1.6875 0 -2.875 1.171875q-1.171875 1.15625 -1.171875 2.78125q0 1.5 1.046875 2.453125q1.0625 0.953125 3.0 0.953125q1.921875 0 2.984375 -0.953125q1.0625 -0.953125 1.0625 -2.40625zm13.746338 5.625l0 -0.640625q-1.015625 0.546875 -2.25 0.8125q-1.21875 0.28125 -2.21875 0.28125q-2.171875 0 -3.53125 -1.15625q-1.359375 -1.15625 -1.359375 -2.546875q0 -1.703125 1.734375 -3.15625q1.734375 -1.46875 4.796875 -1.46875q1.21875 0 2.828125 0.265625l0 -0.640625q0 -0.609375 -0.515625 -0.984375q-0.515625 -0.390625 -1.984375 -0.390625q-1.203125 0 -3.109375 0.46875q-0.71875 0.171875 -1.109375 0.171875q-0.546875 0 -0.921875 -0.375q-0.375 -0.390625 -0.375 -1.0q0 -0.34375 0.125 -0.59375q0.140625 -0.25 0.375 -0.40625q0.234375 -0.15625 1.0 -0.359375q1.0 -0.28125 2.03125 -0.4375q1.046875 -0.171875 1.890625 -0.171875q2.515625 0 3.90625 1.09375q1.390625 1.078125 1.390625 2.96875l0 5.5625l0.46875 0q0.96875 0 1.375 0.375q0.421875 0.375 0.421875 0.984375q0 0.59375 -0.421875 0.96875q-0.40625 0.375 -1.375 0.375l-3.171875 0zm0 -4.84375q-1.625 -0.3125 -2.984375 -0.3125q-1.65625 0 -2.84375 0.8125q-0.734375 0.5 -0.734375 1.03125q0 0.390625 0.359375 0.625q0.65625 0.4375 1.796875 0.4375q0.984375 0 2.21875 -0.375q1.234375 -0.390625 2.1875 -1.046875l0 -1.171875zm13.011993 -7.125l0 1.6875q1.6875 -1.234375 2.671875 -1.640625q0.984375 -0.40625 1.84375 -0.40625q1.3125 0 2.5625 0.984375q0.84375 0.65625 0.84375 1.34375q0 0.578125 -0.40625 0.984375q-0.40625 0.390625 -0.96875 0.390625q-0.5 0 -1.0625 -0.5q-0.546875 -0.5 -0.984375 -0.5q-0.5625 0 -1.6875 0.71875q-1.125 0.703125 -2.8125 2.125l0 4.078125l3.84375 0q0.96875 0 1.390625 0.375q0.421875 0.375 0.421875 0.984375q0 0.59375 -0.421875 0.96875q-0.421875 0.375 -1.390625 0.375l-8.15625 0q-0.984375 0 -1.40625 -0.375q-0.40625 -0.375 -0.40625 -0.984375q0 -0.59375 0.40625 -0.96875q0.421875 -0.375 1.40625 -0.375l1.609375 0l0 -6.5625l-0.984375 0q-0.96875 0 -1.390625 -0.375q-0.40625 -0.375 -0.40625 -0.984375q0 -0.59375 0.40625 -0.96875q0.421875 -0.375 1.390625 -0.375l3.6875 0zm15.574463 5.40625q0 -2.3125 0.765625 -4.671875q0.578125 -1.734375 1.765625 -3.875q0.84375 -1.53125 1.25 -1.875q0.421875 -0.359375 0.921875 -0.359375q0.578125 0 0.96875 0.40625q0.40625 0.390625 0.40625 0.953125q0 0.375 -0.328125 0.90625q-1.421875 2.328125 -2.078125 4.375q-0.640625 2.046875 -0.640625 4.140625q0 2.109375 0.640625 4.15625q0.65625 2.03125 2.078125 4.375q0.328125 0.515625 0.328125 0.90625q0 0.546875 -0.40625 0.9375q-0.390625 0.40625 -0.96875 0.40625q-0.484375 0 -0.859375 -0.3125q-0.53125 -0.46875 -1.390625 -2.078125q-1.265625 -2.328125 -1.71875 -3.84375q-0.734375 -2.328125 -0.734375 -4.546875zm18.121368 0q0 2.296875 -0.765625 4.671875q-0.5625 1.75 -1.75 3.875q-0.859375 1.515625 -1.265625 1.875q-0.40625 0.359375 -0.90625 0.359375q-0.578125 0 -0.984375 -0.40625q-0.390625 -0.390625 -0.390625 -0.9375q0 -0.390625 0.3125 -0.90625q1.4375 -2.34375 2.078125 -4.375q0.65625 -2.046875 0.65625 -4.15625q0 -2.09375 -0.65625 -4.140625q-0.640625 -2.046875 -2.078125 -4.375q-0.3125 -0.53125 -0.3125 -0.90625q0 -0.5625 0.390625 -0.953125q0.40625 -0.40625 0.984375 -0.40625q0.484375 0 0.859375 0.328125q0.53125 0.4375 1.390625 2.0625q1.25 2.34375 1.71875 3.84375q0.71875 2.328125 0.71875 4.546875zm31.398956 0.015625q0.46875 0.53125 0.640625 1.046875q0.171875 0.5 0.171875 1.640625l0 4.296875q0 0.53125 0.203125 0.765625q0.203125 0.234375 0.75 0.28125q0.5625 0.046875 0.90625 0.421875q0.359375 0.390625 0.359375 0.9375q0 0.578125 -0.40625 0.96875q-0.390625 0.40625 -1.015625 0.40625q-0.875 0 -1.703125 -0.46875q-0.8125 -0.46875 -1.421875 -1.515625q-0.375 -0.6875 -0.375 -1.59375l0 -4.765625q0 -0.5625 -0.1875 -0.765625q-0.1875 -0.21875 -0.796875 -0.296875q-0.59375 -0.078125 -0.921875 -0.421875q-0.328125 -0.359375 -0.328125 -0.9375q0 -0.59375 0.328125 -0.953125q0.328125 -0.359375 0.9375 -0.421875q0.609375 -0.078125 0.75 -0.25q0.21875 -0.265625 0.21875 -0.8125l0 -4.515625q0 -1.453125 1.046875 -2.515625q1.0625 -1.0625 2.4375 -1.0625q0.640625 0 1.03125 0.40625q0.40625 0.390625 0.40625 0.96875q0 0.546875 -0.359375 0.9375q-0.34375 0.375 -0.921875 0.421875q-0.5625 0.046875 -0.703125 0.234375q-0.234375 0.28125 -0.234375 0.8125l0 4.3125q0 0.90625 -0.1875 1.40625q-0.171875 0.484375 -0.625 1.03125z" fill-rule="nonzero"></path><path fill="#ffffff" d="m167.28343 232.76613l0 6.5625l3.859375 0q0.96875 0 1.375 0.375q0.421875 0.375 0.421875 0.984375q0 0.59375 -0.421875 0.96875q-0.40625 0.375 -1.375 0.375l-8.171875 0q-0.96875 0 -1.390625 -0.375q-0.40625 -0.375 -0.40625 -0.984375q0 -0.59375 0.40625 -0.96875q0.421875 -0.375 1.390625 -0.375l1.609375 0l0 -6.5625l-1.28125 0q-0.984375 0 -1.40625 -0.375q-0.40625 -0.375 -0.40625 -0.984375q0 -0.59375 0.40625 -0.96875q0.421875 -0.375 1.40625 -0.375l1.28125 0l0 -1.03125q0 -1.765625 1.328125 -2.921875q1.328125 -1.171875 3.84375 -1.171875q1.125 0 2.59375 0.203125q1.46875 0.203125 1.875 0.578125q0.421875 0.359375 0.421875 0.9375q0 0.625 -0.375 1.015625q-0.359375 0.390625 -0.90625 0.390625q-0.25 0 -0.75 -0.09375q-1.671875 -0.328125 -2.96875 -0.328125q-1.34375 0 -1.859375 0.40625q-0.5 0.390625 -0.5 0.984375l0 1.03125l4.171875 0q0.96875 0 1.375 0.375q0.421875 0.375 0.421875 0.984375q0 0.59375 -0.421875 0.96875q-0.40625 0.375 -1.375 0.375l-4.171875 0zm23.043228 3.5q0 1.5625 -0.875 3.015625q-0.859375 1.453125 -2.5625 2.328125q-1.703125 0.859375 -3.5625 0.859375q-1.84375 0 -3.53125 -0.84375q-1.6875 -0.859375 -2.578125 -2.3125q-0.875 -1.46875 -0.875 -3.0625q0 -1.625 0.890625 -3.1875q0.890625 -1.5625 2.5625 -2.453125q1.6875 -0.90625 3.53125 -0.90625q1.84375 0 3.546875 0.921875q1.703125 0.90625 2.578125 2.46875q0.875 1.546875 0.875 3.171875zm-2.703125 0.015625q0 -1.296875 -0.9375 -2.390625q-1.28125 -1.484375 -3.359375 -1.484375q-1.84375 0 -3.0625 1.171875q-1.21875 1.171875 -1.21875 2.71875q0 1.265625 1.234375 2.375q1.234375 1.09375 3.046875 1.09375q1.8125 0 3.046875 -1.09375q1.25 -1.109375 1.25 -2.390625zm18.699478 -0.015625q0 1.5625 -0.875 3.015625q-0.859375 1.453125 -2.5625 2.328125q-1.703125 0.859375 -3.5625 0.859375q-1.84375 0 -3.53125 -0.84375q-1.6875 -0.859375 -2.578125 -2.3125q-0.875 -1.46875 -0.875 -3.0625q0 -1.625 0.890625 -3.1875q0.890625 -1.5625 2.5625 -2.453125q1.6875 -0.90625 3.53125 -0.90625q1.84375 0 3.546875 0.921875q1.703125 0.90625 2.578125 2.46875q0.875 1.546875 0.875 3.171875zm-2.703125 0.015625q0 -1.296875 -0.9375 -2.390625q-1.28125 -1.484375 -3.359375 -1.484375q-1.84375 0 -3.0625 1.171875q-1.21875 1.171875 -1.21875 2.71875q0 1.265625 1.234375 2.375q1.234375 1.09375 3.046875 1.09375q1.8125 0 3.046875 -1.09375q1.25 -1.109375 1.25 -2.390625zm10.699478 -0.8125q0 -2.3125 0.765625 -4.671875q0.578125 -1.734375 1.765625 -3.875q0.84375 -1.53125 1.25 -1.875q0.421875 -0.359375 0.921875 -0.359375q0.578125 0 0.96875 0.40625q0.40625 0.390625 0.40625 0.953125q0 0.375 -0.328125 0.90625q-1.421875 2.328125 -2.078125 4.375q-0.640625 2.046875 -0.640625 4.140625q0 2.109375 0.640625 4.15625q0.65625 2.03125 2.078125 4.375q0.328125 0.515625 0.328125 0.90625q0 0.546875 -0.40625 0.9375q-0.390625 0.40625 -0.96875 0.40625q-0.484375 0 -0.859375 -0.3125q-0.53125 -0.46875 -1.390625 -2.078125q-1.265625 -2.328125 -1.71875 -3.84375q-0.734375 -2.328125 -0.734375 -4.546875zm18.121353 0q0 2.296875 -0.765625 4.671875q-0.5625 1.75 -1.75 3.875q-0.859375 1.515625 -1.265625 1.875q-0.40625 0.359375 -0.90625 0.359375q-0.578125 0 -0.984375 -0.40625q-0.390625 -0.390625 -0.390625 -0.9375q0 -0.390625 0.3125 -0.90625q1.4375 -2.34375 2.078125 -4.375q0.65625 -2.046875 0.65625 -4.15625q0 -2.09375 -0.65625 -4.140625q-0.640625 -2.046875 -2.078125 -4.375q-0.3125 -0.53125 -0.3125 -0.90625q0 -0.5625 0.390625 -0.953125q0.40625 -0.40625 0.984375 -0.40625q0.484375 0 0.859375 0.328125q0.53125 0.4375 1.390625 2.0625q1.25 2.34375 1.71875 3.84375q0.71875 2.328125 0.71875 4.546875zm18.136978 -3.53125q0 0.765625 -0.546875 1.28125q-0.53125 0.5 -1.484375 0.5q-0.9375 0 -1.484375 -0.515625q-0.53125 -0.515625 -0.53125 -1.28125q0 -0.75 0.53125 -1.265625q0.53125 -0.53125 1.484375 -0.53125q0.953125 0 1.484375 0.515625q0.546875 0.515625 0.546875 1.296875zm-4.171875 6.15625l3.4375 0l-3.8125 6.171875q-0.375 0.625 -0.71875 0.625q-0.34375 0 -0.578125 -0.203125q-0.21875 -0.1875 -0.21875 -0.421875q0 -0.171875 0.09375 -0.453125l1.796875 -5.71875z" fill-rule="nonzero"></path><path fill="#ffffff" d="m134.69698 267.4849q-0.453125 -0.546875 -0.640625 -1.046875q-0.171875 -0.515625 -0.171875 -1.390625l0 -4.3125q0 -0.53125 -0.203125 -0.765625q-0.203125 -0.234375 -0.765625 -0.28125q-0.546875 -0.046875 -0.90625 -0.421875q-0.359375 -0.390625 -0.359375 -0.9375q0 -0.578125 0.40625 -0.96875q0.40625 -0.40625 1.015625 -0.40625q0.890625 0 1.703125 0.46875q0.828125 0.46875 1.421875 1.53125q0.390625 0.6875 0.390625 1.578125l0 4.515625q0 0.5625 0.1875 0.78125q0.1875 0.21875 0.78125 0.28125q0.609375 0.0625 0.9375 0.421875q0.328125 0.359375 0.328125 0.953125q0 0.578125 -0.328125 0.9375q-0.328125 0.34375 -0.9375 0.421875q-0.609375 0.078125 -0.75 0.25q-0.21875 0.25 -0.21875 0.8125l0 4.765625q0 1.453125 -1.0625 2.515625q-1.046875 1.0625 -2.4375 1.0625q-0.625 0 -1.03125 -0.40625q-0.40625 -0.390625 -0.40625 -0.96875q0 -0.53125 0.359375 -0.921875q0.359375 -0.375 0.921875 -0.4375q0.5625 -0.046875 0.71875 -0.234375q0.234375 -0.28125 0.234375 -0.8125l0 -4.296875q0 -1.140625 0.15625 -1.640625q0.171875 -0.5 0.65625 -1.046875z" fill-rule="nonzero"></path><path fill="#000000" fill-opacity="0.0" d="m118.2126 318.75854l404.063 0l0 98.86612l-404.063 0z" fill-rule="nonzero"></path><path fill="#ffffff" d="m135.29073 336.52597l0 6.5625l3.859375 0q0.96875 0 1.375 0.375q0.421875 0.375 0.421875 0.984375q0 0.59375 -0.421875 0.96875q-0.40625 0.375 -1.375 0.375l-8.171875 0q-0.96875 0 -1.390625 -0.375q-0.40625 -0.375 -0.40625 -0.984375q0 -0.59375 0.40625 -0.96875q0.421875 -0.375 1.390625 -0.375l1.609375 0l0 -6.5625l-1.28125 0q-0.984375 0 -1.40625 -0.375q-0.40625 -0.375 -0.40625 -0.984375q0 -0.59375 0.40625 -0.96875q0.421875 -0.375 1.40625 -0.375l1.28125 0l0 -1.03125q0 -1.765625 1.328125 -2.921875q1.328125 -1.171875 3.84375 -1.171875q1.125 0 2.59375 0.203125q1.46875 0.203125 1.875 0.578125q0.421875 0.359375 0.421875 0.9375q0 0.625 -0.375 1.015625q-0.359375 0.390625 -0.90625 0.390625q-0.25 0 -0.75 -0.09375q-1.671875 -0.328125 -2.96875 -0.328125q-1.34375 0 -1.859375 0.40625q-0.5 0.390625 -0.5 0.984375l0 1.03125l4.171875 0q0.96875 0 1.375 0.375q0.421875 0.375 0.421875 0.984375q0 0.59375 -0.421875 0.96875q-0.40625 0.375 -1.375 0.375l-4.171875 0zm21.761978 -2.703125l0 9.265625q0.859375 0 1.265625 0.390625q0.40625 0.375 0.40625 0.96875q0 0.59375 -0.421875 0.96875q-0.40625 0.375 -1.375 0.375l-2.578125 0l0 -0.625q-1.15625 0.53125 -2.21875 0.796875q-1.046875 0.265625 -2.0 0.265625q-1.328125 0 -2.3125 -0.5625q-0.96875 -0.5625 -1.53125 -1.546875q-0.421875 -0.71875 -0.421875 -1.78125l0 -5.8125l-0.453125 0q-0.984375 0 -1.40625 -0.375q-0.40625 -0.375 -0.40625 -0.984375q0 -0.59375 0.40625 -0.96875q0.421875 -0.375 1.40625 -0.375l3.15625 0l0 8.046875q0 0.84375 0.421875 1.25q0.421875 0.40625 1.265625 0.40625q0.828125 0 1.765625 -0.3125q0.9375 -0.328125 2.328125 -1.171875l0 -5.515625l-0.96875 0q-0.984375 0 -1.40625 -0.375q-0.40625 -0.375 -0.40625 -0.984375q0 -0.59375 0.40625 -0.96875q0.421875 -0.375 1.40625 -0.375l3.671875 0zm7.511978 0l0 0.90625q0.75 -0.625 1.640625 -0.9375q0.890625 -0.328125 1.921875 -0.328125q2.40625 0 3.796875 1.484375q1.109375 1.1875 1.109375 3.125l0 5.015625q0.859375 0 1.265625 0.375q0.40625 0.375 0.40625 0.984375q0 0.59375 -0.421875 0.96875q-0.40625 0.375 -1.375 0.375l-2.4375 0q-0.984375 0 -1.40625 -0.375q-0.40625 -0.375 -0.40625 -0.984375q0 -0.59375 0.40625 -0.96875q0.40625 -0.375 1.265625 -0.375l0 -5.109375q0 -0.875 -0.46875 -1.28125q-0.625 -0.53125 -1.859375 -0.53125q-0.9375 0 -1.640625 0.359375q-0.703125 0.359375 -1.796875 1.546875l0 5.015625q1.046875 0 1.34375 0.203125q0.65625 0.390625 0.65625 1.15625q0 0.59375 -0.421875 0.96875q-0.40625 0.375 -1.390625 0.375l-3.0625 0q-0.984375 0 -1.40625 -0.375q-0.40625 -0.375 -0.40625 -0.984375q0 -0.734375 0.640625 -1.140625q0.3125 -0.203125 1.34375 -0.203125l0 -6.5625q-0.84375 0 -1.265625 -0.375q-0.40625 -0.390625 -0.40625 -0.984375q0 -0.59375 0.40625 -0.96875q0.421875 -0.375 1.40625 -0.375l2.5625 0zm22.949478 0.484375q0.484375 -0.453125 1.0 -0.453125q0.578125 0 0.953125 0.421875q0.375 0.40625 0.375 1.359375l0 1.75q0 0.96875 -0.375 1.375q-0.375 0.40625 -0.96875 0.40625q-0.5625 0 -0.9375 -0.3125q-0.28125 -0.234375 -0.4375 -0.96875q-0.15625 -0.734375 -0.765625 -1.078125q-1.078125 -0.640625 -2.734375 -0.640625q-1.90625 0 -3.0625 1.125q-1.15625 1.109375 -1.15625 2.828125q0 1.578125 1.109375 2.5q1.109375 0.921875 3.671875 0.921875q1.6875 0 2.765625 -0.34375q0.625 -0.21875 1.1875 -0.71875q0.578125 -0.515625 1.03125 -0.515625q0.5625 0 0.953125 0.421875q0.40625 0.40625 0.40625 0.953125q0 0.890625 -1.21875 1.703125q-1.828125 1.203125 -5.328125 1.203125q-3.15625 0 -4.90625 -1.3125q-2.375 -1.75 -2.375 -4.796875q0 -2.890625 1.921875 -4.78125q1.9375 -1.890625 5.03125 -1.890625q1.125 0 2.078125 0.21875q0.96875 0.203125 1.78125 0.625zm11.121353 2.21875l0 5.421875q0 0.859375 0.359375 1.140625q0.546875 0.4375 1.96875 0.4375q2.078125 0 3.828125 -0.890625q0.671875 -0.34375 1.046875 -0.34375q0.53125 0 0.921875 0.40625q0.390625 0.390625 0.390625 0.953125q0 0.53125 -0.421875 0.921875q-0.640625 0.609375 -2.546875 1.140625q-1.90625 0.515625 -3.21875 0.515625q-2.515625 0 -3.78125 -1.078125q-1.25 -1.09375 -1.25 -2.6875l0 -5.9375l-0.984375 0q-0.96875 0 -1.390625 -0.375q-0.40625 -0.375 -0.40625 -0.984375q0 -0.59375 0.40625 -0.96875q0.421875 -0.375 1.390625 -0.375l0.984375 0l0 -2.4375q0 -0.984375 0.375 -1.390625q0.375 -0.421875 0.984375 -0.421875q0.59375 0 0.96875 0.421875q0.375 0.40625 0.375 1.390625l0 2.4375l5.0 0q0.96875 0 1.375 0.375q0.421875 0.375 0.421875 0.984375q0 0.59375 -0.421875 0.96875q-0.40625 0.375 -1.375 0.375l-5.0 0zm17.636978 -7.828125l0 2.859375l-3.21875 0l0 -2.859375l3.21875 0zm0.359375 5.125l0 9.265625l3.25 0q0.96875 0 1.375 0.375q0.421875 0.375 0.421875 0.984375q0 0.59375 -0.421875 0.96875q-0.40625 0.375 -1.375 0.375l-9.1875 0q-0.984375 0 -1.40625 -0.375q-0.40625 -0.375 -0.40625 -0.984375q0 -0.59375 0.40625 -0.96875q0.421875 -0.375 1.40625 -0.375l3.234375 0l0 -6.5625l-2.171875 0q-0.96875 0 -1.390625 -0.375q-0.421875 -0.375 -0.421875 -0.984375q0 -0.59375 0.421875 -0.96875q0.421875 -0.375 1.390625 -0.375l4.875 0zm21.683853 6.203125q0 1.5625 -0.875 3.015625q-0.859375 1.453125 -2.5625 2.328125q-1.703125 0.859375 -3.5625 0.859375q-1.84375 0 -3.53125 -0.84375q-1.6875 -0.859375 -2.578125 -2.3125q-0.875 -1.46875 -0.875 -3.0625q0 -1.625 0.890625 -3.1875q0.890625 -1.5625 2.5625 -2.453125q1.6875 -0.90625 3.53125 -0.90625q1.84375 0 3.546875 0.921875q1.703125 0.90625 2.578125 2.46875q0.875 1.546875 0.875 3.171875zm-2.703125 0.015625q0 -1.296875 -0.9375 -2.390625q-1.28125 -1.484375 -3.359375 -1.484375q-1.84375 0 -3.0625 1.171875q-1.21875 1.171875 -1.21875 2.71875q0 1.265625 1.234375 2.375q1.234375 1.09375 3.046875 1.09375q1.8125 0 3.046875 -1.09375q1.25 -1.109375 1.25 -2.390625zm8.933853 -6.21875l0 0.90625q0.75 -0.625 1.640625 -0.9375q0.890625 -0.328125 1.921875 -0.328125q2.40625 0 3.796875 1.484375q1.109375 1.1875 1.109375 3.125l0 5.015625q0.859375 0 1.265625 0.375q0.40625 0.375 0.40625 0.984375q0 0.59375 -0.421875 0.96875q-0.40625 0.375 -1.375 0.375l-2.4375 0q-0.984375 0 -1.40625 -0.375q-0.40625 -0.375 -0.40625 -0.984375q0 -0.59375 0.40625 -0.96875q0.40625 -0.375 1.265625 -0.375l0 -5.109375q0 -0.875 -0.46875 -1.28125q-0.625 -0.53125 -1.859375 -0.53125q-0.9375 0 -1.640625 0.359375q-0.703125 0.359375 -1.796875 1.546875l0 5.015625q1.046875 0 1.34375 0.203125q0.65625 0.390625 0.65625 1.15625q0 0.59375 -0.421875 0.96875q-0.40625 0.375 -1.390625 0.375l-3.0625 0q-0.984375 0 -1.40625 -0.375q-0.40625 -0.375 -0.40625 -0.984375q0 -0.734375 0.640625 -1.140625q0.3125 -0.203125 1.34375 -0.203125l0 -6.5625q-0.84375 0 -1.265625 -0.375q-0.40625 -0.390625 -0.40625 -0.984375q0 -0.59375 0.40625 -0.96875q0.421875 -0.375 1.40625 -0.375l2.5625 0zm31.320831 -5.125l0 6.0625q1.0 -0.65625 2.015625 -0.96875q1.015625 -0.328125 2.0625 -0.328125q2.8125 0 4.765625 1.9375q1.953125 1.9375 1.953125 4.6875q0 2.625 -1.859375 4.390625q-1.859375 1.75 -4.90625 1.75q-1.078125 0 -2.09375 -0.28125q-1.0 -0.28125 -1.9375 -0.8125l0 0.65625l-3.15625 0q-0.984375 0 -1.40625 -0.375q-0.40625 -0.375 -0.40625 -0.984375q0 -0.59375 0.421875 -0.96875q0.421875 -0.375 1.390625 -0.375l0.453125 0l0 -11.6875l-0.453125 0q-0.984375 0 -1.40625 -0.375q-0.40625 -0.375 -0.40625 -0.984375q0 -0.59375 0.40625 -0.96875q0.421875 -0.375 1.40625 -0.375l3.15625 0zm8.09375 11.46875q0 -1.671875 -1.1875 -2.828125q-1.171875 -1.171875 -2.859375 -1.171875q-1.6875 0 -2.875 1.171875q-1.171875 1.15625 -1.171875 2.78125q0 1.5 1.046875 2.453125q1.0625 0.953125 3.0 0.953125q1.921875 0 2.984375 -0.953125q1.0625 -0.953125 1.0625 -2.40625zm13.746338 5.625l0 -0.640625q-1.015625 0.546875 -2.25 0.8125q-1.21875 0.28125 -2.21875 0.28125q-2.171875 0 -3.53125 -1.15625q-1.359375 -1.15625 -1.359375 -2.546875q0 -1.703125 1.734375 -3.15625q1.734375 -1.46875 4.796875 -1.46875q1.21875 0 2.828125 0.265625l0 -0.640625q0 -0.609375 -0.515625 -0.984375q-0.515625 -0.390625 -1.984375 -0.390625q-1.203125 0 -3.109375 0.46875q-0.71875 0.171875 -1.109375 0.171875q-0.546875 0 -0.921875 -0.375q-0.375 -0.390625 -0.375 -1.0q0 -0.34375 0.125 -0.59375q0.140625 -0.25 0.375 -0.40625q0.234375 -0.15625 1.0 -0.359375q1.0 -0.28125 2.03125 -0.4375q1.046875 -0.171875 1.890625 -0.171875q2.515625 0 3.90625 1.09375q1.390625 1.078125 1.390625 2.96875l0 5.5625l0.46875 0q0.96875 0 1.375 0.375q0.421875 0.375 0.421875 0.984375q0 0.59375 -0.421875 0.96875q-0.40625 0.375 -1.375 0.375l-3.171875 0zm0 -4.84375q-1.625 -0.3125 -2.984375 -0.3125q-1.65625 0 -2.84375 0.8125q-0.734375 0.5 -0.734375 1.03125q0 0.390625 0.359375 0.625q0.65625 0.4375 1.796875 0.4375q0.984375 0 2.21875 -0.375q1.234375 -0.390625 2.1875 -1.046875l0 -1.171875zm12.105743 2.140625l4.75 0q0.046875 -0.75 0.421875 -1.125q0.375 -0.375 0.921875 -0.375q0.609375 0 0.984375 0.421875q0.375 0.40625 0.375 1.375l0 2.40625l-11.765625 0l0 -2.234375l7.125 -7.03125l-4.140625 0l0 0.265625q0 0.953125 -0.375 1.375q-0.375 0.40625 -0.984375 0.40625q-0.609375 0 -0.984375 -0.40625q-0.375 -0.421875 -0.375 -1.375l0.015625 -2.96875l11.1875 0l0 2.21875l-7.15625 7.046875zm18.433838 -14.390625l0 2.859375l-3.21875 0l0 -2.859375l3.21875 0zm0.359375 5.125l0 9.265625l3.25 0q0.96875 0 1.375 0.375q0.421875 0.375 0.421875 0.984375q0 0.59375 -0.421875 0.96875q-0.40625 0.375 -1.375 0.375l-9.1875 0q-0.984375 0 -1.40625 -0.375q-0.40625 -0.375 -0.40625 -0.984375q0 -0.59375 0.40625 -0.96875q0.421875 -0.375 1.40625 -0.375l3.234375 0l0 -6.5625l-2.171875 0q-0.96875 0 -1.390625 -0.375q-0.421875 -0.375 -0.421875 -0.984375q0 -0.59375 0.421875 -0.96875q0.421875 -0.375 1.390625 -0.375l4.875 0zm11.918243 0l0 0.90625q0.75 -0.625 1.640625 -0.9375q0.890625 -0.328125 1.921875 -0.328125q2.40625 0 3.796875 1.484375q1.109375 1.1875 1.109375 3.125l0 5.015625q0.859375 0 1.265625 0.375q0.40625 0.375 0.40625 0.984375q0 0.59375 -0.421875 0.96875q-0.40625 0.375 -1.375 0.375l-2.4375 0q-0.984375 0 -1.40625 -0.375q-0.40625 -0.375 -0.40625 -0.984375q0 -0.59375 0.40625 -0.96875q0.40625 -0.375 1.265625 -0.375l0 -5.109375q0 -0.875 -0.46875 -1.28125q-0.625 -0.53125 -1.859375 -0.53125q-0.9375 0 -1.640625 0.359375q-0.703125 0.359375 -1.796875 1.546875l0 5.015625q1.046875 0 1.34375 0.203125q0.65625 0.390625 0.65625 1.15625q0 0.59375 -0.421875 0.96875q-0.40625 0.375 -1.390625 0.375l-3.0625 0q-0.984375 0 -1.40625 -0.375q-0.40625 -0.375 -0.40625 -0.984375q0 -0.734375 0.640625 -1.140625q0.3125 -0.203125 1.34375 -0.203125l0 -6.5625q-0.84375 0 -1.265625 -0.375q-0.40625 -0.390625 -0.40625 -0.984375q0 -0.59375 0.40625 -0.96875q0.421875 -0.375 1.40625 -0.375l2.5625 0zm21.715088 0.796875l0 -0.796875l3.15625 0q0.984375 0 1.390625 0.375q0.421875 0.375 0.421875 0.984375q0 0.59375 -0.421875 0.96875q-0.40625 0.375 -1.390625 0.375l-0.453125 0l0 9.828125q0 1.421875 -0.609375 2.484375q-0.59375 1.0625 -1.84375 1.828125q-1.234375 0.765625 -2.78125 0.765625l-3.0625 0q-0.96875 0 -1.390625 -0.375q-0.421875 -0.375 -0.421875 -0.96875q0 -0.609375 0.421875 -0.984375q0.421875 -0.375 1.390625 -0.375l2.984375 0q1.234375 0 1.921875 -0.671875q0.6875 -0.671875 0.6875 -1.703125l0 -1.3125q-0.90625 0.578125 -1.84375 0.859375q-0.921875 0.296875 -1.890625 0.296875q-2.75 0 -4.609375 -1.828125q-1.859375 -1.84375 -1.859375 -4.546875q0 -2.71875 1.859375 -4.546875q1.859375 -1.84375 4.609375 -1.84375q1.03125 0 1.953125 0.296875q0.9375 0.296875 1.78125 0.890625zm-0.015625 5.1875q0 -1.484375 -1.109375 -2.578125q-1.09375 -1.09375 -2.640625 -1.09375q-1.53125 0 -2.640625 1.09375q-1.09375 1.09375 -1.09375 2.578125q0 1.5 1.09375 2.59375q1.109375 1.078125 2.640625 1.078125q1.546875 0 2.640625 -1.078125q1.109375 -1.09375 1.109375 -2.59375zm15.465118 5.984375l0 -0.640625q-1.015625 0.546875 -2.25 0.8125q-1.21875 0.28125 -2.21875 0.28125q-2.171875 0 -3.53125 -1.15625q-1.359375 -1.15625 -1.359375 -2.546875q0 -1.703125 1.734375 -3.15625q1.734375 -1.46875 4.796875 -1.46875q1.21875 0 2.828125 0.265625l0 -0.640625q0 -0.609375 -0.515625 -0.984375q-0.515625 -0.390625 -1.984375 -0.390625q-1.203125 0 -3.109375 0.46875q-0.71875 0.171875 -1.109375 0.171875q-0.546875 0 -0.921875 -0.375q-0.375 -0.390625 -0.375 -1.0q0 -0.34375 0.125 -0.59375q0.140625 -0.25 0.375 -0.40625q0.234375 -0.15625 1.0 -0.359375q1.0 -0.28125 2.03125 -0.4375q1.046875 -0.171875 1.890625 -0.171875q2.515625 0 3.90625 1.09375q1.390625 1.078125 1.390625 2.96875l0 5.5625l0.46875 0q0.96875 0 1.375 0.375q0.421875 0.375 0.421875 0.984375q0 0.59375 -0.421875 0.96875q-0.40625 0.375 -1.375 0.375l-3.171875 0zm0 -4.84375q-1.625 -0.3125 -2.984375 -0.3125q-1.65625 0 -2.84375 0.8125q-0.734375 0.5 -0.734375 1.03125q0 0.390625 0.359375 0.625q0.65625 0.4375 1.796875 0.4375q0.984375 0 2.21875 -0.375q1.234375 -0.390625 2.1875 -1.046875l0 -1.171875zm12.590088 -1.71875q0 -2.3125 0.765625 -4.671875q0.578125 -1.734375 1.765625 -3.875q0.84375 -1.53125 1.25 -1.875q0.421875 -0.359375 0.921875 -0.359375q0.578125 0 0.96875 0.40625q0.40625 0.390625 0.40625 0.953125q0 0.375 -0.328125 0.90625q-1.421875 2.328125 -2.078125 4.375q-0.640625 2.046875 -0.640625 4.140625q0 2.109375 0.640625 4.15625q0.65625 2.03125 2.078125 4.375q0.328125 0.515625 0.328125 0.90625q0 0.546875 -0.40625 0.9375q-0.390625 0.40625 -0.96875 0.40625q-0.484375 0 -0.859375 -0.3125q-0.53125 -0.46875 -1.390625 -2.078125q-1.265625 -2.328125 -1.71875 -3.84375q-0.734375 -2.328125 -0.734375 -4.546875zm18.121338 0q0 2.296875 -0.765625 4.671875q-0.5625 1.75 -1.75 3.875q-0.859375 1.515625 -1.265625 1.875q-0.40625 0.359375 -0.90625 0.359375q-0.578125 0 -0.984375 -0.40625q-0.390625 -0.390625 -0.390625 -0.9375q0 -0.390625 0.3125 -0.90625q1.4375 -2.34375 2.078125 -4.375q0.65625 -2.046875 0.65625 -4.15625q0 -2.09375 -0.65625 -4.140625q-0.640625 -2.046875 -2.078125 -4.375q-0.3125 -0.53125 -0.3125 -0.90625q0 -0.5625 0.390625 -0.953125q0.40625 -0.40625 0.984375 -0.40625q0.484375 0 0.859375 0.328125q0.53125 0.4375 1.390625 2.0625q1.25 2.34375 1.71875 3.84375q0.71875 2.328125 0.71875 4.546875zm31.398926 0.015625q0.46875 0.53125 0.640625 1.046875q0.171875 0.5 0.171875 1.640625l0 4.296875q0 0.53125 0.203125 0.765625q0.203125 0.234375 0.75 0.28125q0.5625 0.046875 0.90625 0.421875q0.359375 0.390625 0.359375 0.9375q0 0.578125 -0.40625 0.96875q-0.390625 0.40625 -1.015625 0.40625q-0.875 0 -1.703125 -0.46875q-0.8125 -0.46875 -1.421875 -1.515625q-0.375 -0.6875 -0.375 -1.59375l0 -4.765625q0 -0.5625 -0.1875 -0.765625q-0.1875 -0.21875 -0.796875 -0.296875q-0.59375 -0.078125 -0.921875 -0.421875q-0.328125 -0.359375 -0.328125 -0.9375q0 -0.59375 0.328125 -0.953125q0.328125 -0.359375 0.9375 -0.421875q0.609375 -0.078125 0.75 -0.25q0.21875 -0.265625 0.21875 -0.8125l0 -4.515625q0 -1.453125 1.046875 -2.515625q1.0625 -1.0625 2.4375 -1.0625q0.640625 0 1.03125 0.40625q0.40625 0.390625 0.40625 0.96875q0 0.546875 -0.359375 0.9375q-0.34375 0.375 -0.921875 0.421875q-0.5625 0.046875 -0.703125 0.234375q-0.234375 0.28125 -0.234375 0.8125l0 4.3125q0 0.90625 -0.1875 1.40625q-0.171875 0.484375 -0.625 1.03125z" fill-rule="nonzero"></path><path fill="#ffffff" d="m163.8928 360.69785l0 6.0625q1.0 -0.65625 2.015625 -0.96875q1.015625 -0.328125 2.0625 -0.328125q2.8125 0 4.765625 1.9375q1.953125 1.9375 1.953125 4.6875q0 2.625 -1.859375 4.390625q-1.859375 1.75 -4.90625 1.75q-1.078125 0 -2.09375 -0.28125q-1.0 -0.28125 -1.9375 -0.8125l0 0.65625l-3.15625 0q-0.984375 0 -1.40625 -0.375q-0.40625 -0.375 -0.40625 -0.984375q0 -0.59375 0.421875 -0.96875q0.421875 -0.375 1.390625 -0.375l0.453125 0l0 -11.6875l-0.453125 0q-0.984375 0 -1.40625 -0.375q-0.40625 -0.375 -0.40625 -0.984375q0 -0.59375 0.40625 -0.96875q0.421875 -0.375 1.40625 -0.375l3.15625 0zm8.09375 11.46875q0 -1.671875 -1.1875 -2.828125q-1.171875 -1.171875 -2.859375 -1.171875q-1.6875 0 -2.875 1.171875q-1.171875 1.15625 -1.171875 2.78125q0 1.5 1.046875 2.453125q1.0625 0.953125 3.0 0.953125q1.921875 0 2.984375 -0.953125q1.0625 -0.953125 1.0625 -2.40625zm13.746353 5.625l0 -0.640625q-1.015625 0.546875 -2.25 0.8125q-1.21875 0.28125 -2.21875 0.28125q-2.171875 0 -3.53125 -1.15625q-1.359375 -1.15625 -1.359375 -2.546875q0 -1.703125 1.734375 -3.15625q1.734375 -1.46875 4.796875 -1.46875q1.21875 0 2.828125 0.265625l0 -0.640625q0 -0.609375 -0.515625 -0.984375q-0.515625 -0.390625 -1.984375 -0.390625q-1.203125 0 -3.109375 0.46875q-0.71875 0.171875 -1.109375 0.171875q-0.546875 0 -0.921875 -0.375q-0.375 -0.390625 -0.375 -1.0q0 -0.34375 0.125 -0.59375q0.140625 -0.25 0.375 -0.40625q0.234375 -0.15625 1.0 -0.359375q1.0 -0.28125 2.03125 -0.4375q1.046875 -0.171875 1.890625 -0.171875q2.515625 0 3.90625 1.09375q1.390625 1.078125 1.390625 2.96875l0 5.5625l0.46875 0q0.96875 0 1.375 0.375q0.421875 0.375 0.421875 0.984375q0 0.59375 -0.421875 0.96875q-0.40625 0.375 -1.375 0.375l-3.171875 0zm0 -4.84375q-1.625 -0.3125 -2.984375 -0.3125q-1.65625 0 -2.84375 0.8125q-0.734375 0.5 -0.734375 1.03125q0 0.390625 0.359375 0.625q0.65625 0.4375 1.796875 0.4375q0.984375 0 2.21875 -0.375q1.234375 -0.390625 2.1875 -1.046875l0 -1.171875zm13.011978 -7.125l0 1.6875q1.6875 -1.234375 2.671875 -1.640625q0.984375 -0.40625 1.84375 -0.40625q1.3125 0 2.5625 0.984375q0.84375 0.65625 0.84375 1.34375q0 0.578125 -0.40625 0.984375q-0.40625 0.390625 -0.96875 0.390625q-0.5 0 -1.0625 -0.5q-0.546875 -0.5 -0.984375 -0.5q-0.5625 0 -1.6875 0.71875q-1.125 0.703125 -2.8125 2.125l0 4.078125l3.84375 0q0.96875 0 1.390625 0.375q0.421875 0.375 0.421875 0.984375q0 0.59375 -0.421875 0.96875q-0.421875 0.375 -1.390625 0.375l-8.15625 0q-0.984375 0 -1.40625 -0.375q-0.40625 -0.375 -0.40625 -0.984375q0 -0.59375 0.40625 -0.96875q0.421875 -0.375 1.40625 -0.375l1.609375 0l0 -6.5625l-0.984375 0q-0.96875 0 -1.390625 -0.375q-0.40625 -0.375 -0.40625 -0.984375q0 -0.59375 0.40625 -0.96875q0.421875 -0.375 1.390625 -0.375l3.6875 0zm15.574478 5.40625q0 -2.3125 0.765625 -4.671875q0.578125 -1.734375 1.765625 -3.875q0.84375 -1.53125 1.25 -1.875q0.421875 -0.359375 0.921875 -0.359375q0.578125 0 0.96875 0.40625q0.40625 0.390625 0.40625 0.953125q0 0.375 -0.328125 0.90625q-1.421875 2.328125 -2.078125 4.375q-0.640625 2.046875 -0.640625 4.140625q0 2.109375 0.640625 4.15625q0.65625 2.03125 2.078125 4.375q0.328125 0.515625 0.328125 0.90625q0 0.546875 -0.40625 0.9375q-0.390625 0.40625 -0.96875 0.40625q-0.484375 0 -0.859375 -0.3125q-0.53125 -0.46875 -1.390625 -2.078125q-1.265625 -2.328125 -1.71875 -3.84375q-0.734375 -2.328125 -0.734375 -4.546875zm18.121353 0q0 2.296875 -0.765625 4.671875q-0.5625 1.75 -1.75 3.875q-0.859375 1.515625 -1.265625 1.875q-0.40625 0.359375 -0.90625 0.359375q-0.578125 0 -0.984375 -0.40625q-0.390625 -0.390625 -0.390625 -0.9375q0 -0.390625 0.3125 -0.90625q1.4375 -2.34375 2.078125 -4.375q0.65625 -2.046875 0.65625 -4.15625q0 -2.09375 -0.65625 -4.140625q-0.640625 -2.046875 -2.078125 -4.375q-0.3125 -0.53125 -0.3125 -0.90625q0 -0.5625 0.390625 -0.953125q0.40625 -0.40625 0.984375 -0.40625q0.484375 0 0.859375 0.328125q0.53125 0.4375 1.390625 2.0625q1.25 2.34375 1.71875 3.84375q0.71875 2.328125 0.71875 4.546875zm18.136978 -3.53125q0 0.765625 -0.546875 1.28125q-0.53125 0.5 -1.484375 0.5q-0.9375 0 -1.484375 -0.515625q-0.53125 -0.515625 -0.53125 -1.28125q0 -0.75 0.53125 -1.265625q0.53125 -0.53125 1.484375 -0.53125q0.953125 0 1.484375 0.515625q0.546875 0.515625 0.546875 1.296875zm-4.171875 6.15625l3.4375 0l-3.8125 6.171875q-0.375 0.625 -0.71875 0.625q-0.34375 0 -0.578125 -0.203125q-0.21875 -0.1875 -0.21875 -0.421875q0 -0.171875 0.09375 -0.453125l1.796875 -5.71875z" fill-rule="nonzero"></path><path fill="#ffffff" d="m134.69698 403.24472q-0.453125 -0.546875 -0.640625 -1.046875q-0.171875 -0.515625 -0.171875 -1.390625l0 -4.3125q0 -0.53125 -0.203125 -0.765625q-0.203125 -0.234375 -0.765625 -0.28125q-0.546875 -0.046875 -0.90625 -0.421875q-0.359375 -0.390625 -0.359375 -0.9375q0 -0.578125 0.40625 -0.96875q0.40625 -0.40625 1.015625 -0.40625q0.890625 0 1.703125 0.46875q0.828125 0.46875 1.421875 1.53125q0.390625 0.6875 0.390625 1.578125l0 4.515625q0 0.5625 0.1875 0.78125q0.1875 0.21875 0.78125 0.28125q0.609375 0.0625 0.9375 0.421875q0.328125 0.359375 0.328125 0.953125q0 0.578125 -0.328125 0.9375q-0.328125 0.34375 -0.9375 0.421875q-0.609375 0.078125 -0.75 0.25q-0.21875 0.25 -0.21875 0.8125l0 4.765625q0 1.453125 -1.0625 2.515625q-1.046875 1.0625 -2.4375 1.0625q-0.625 0 -1.03125 -0.40625q-0.40625 -0.390625 -0.40625 -0.96875q0 -0.53125 0.359375 -0.921875q0.359375 -0.375 0.921875 -0.4375q0.5625 -0.046875 0.71875 -0.234375q0.234375 -0.28125 0.234375 -0.8125l0 -4.296875q0 -1.140625 0.15625 -1.640625q0.171875 -0.5 0.65625 -1.046875z" fill-rule="nonzero"></path><path fill="#000000" fill-opacity="0.0" d="m118.2126 454.51706l404.063 0l0 67.33859l-404.063 0z" fill-rule="nonzero"></path><path fill="#ffffff" d="m131.9001 480.6926l0 6.0625q1.0 -0.65625 2.015625 -0.96875q1.015625 -0.328125 2.0625 -0.328125q2.8125 0 4.765625 1.9375q1.953125 1.9375 1.953125 4.6875q0 2.625 -1.859375 4.390625q-1.859375 1.75 -4.90625 1.75q-1.078125 0 -2.09375 -0.28125q-1.0 -0.28125 -1.9375 -0.8125l0 0.65625l-3.15625 0q-0.984375 0 -1.40625 -0.375q-0.40625 -0.375 -0.40625 -0.984375q0 -0.59375 0.421875 -0.96875q0.421875 -0.375 1.390625 -0.375l0.453125 0l0 -11.6875l-0.453125 0q-0.984375 0 -1.40625 -0.375q-0.40625 -0.375 -0.40625 -0.984375q0 -0.59375 0.40625 -0.96875q0.421875 -0.375 1.40625 -0.375l3.15625 0zm8.09375 11.46875q0 -1.671875 -1.1875 -2.828125q-1.171875 -1.171875 -2.859375 -1.171875q-1.6875 0 -2.875 1.171875q-1.171875 1.15625 -1.171875 2.78125q0 1.5 1.046875 2.453125q1.0625 0.953125 3.0 0.953125q1.921875 0 2.984375 -0.953125q1.0625 -0.953125 1.0625 -2.40625zm13.746353 5.625l0 -0.640625q-1.015625 0.546875 -2.25 0.8125q-1.21875 0.28125 -2.21875 0.28125q-2.171875 0 -3.53125 -1.15625q-1.359375 -1.15625 -1.359375 -2.546875q0 -1.703125 1.734375 -3.15625q1.734375 -1.46875 4.796875 -1.46875q1.21875 0 2.828125 0.265625l0 -0.640625q0 -0.609375 -0.515625 -0.984375q-0.515625 -0.390625 -1.984375 -0.390625q-1.203125 0 -3.109375 0.46875q-0.71875 0.171875 -1.109375 0.171875q-0.546875 0 -0.921875 -0.375q-0.375 -0.390625 -0.375 -1.0q0 -0.34375 0.125 -0.59375q0.140625 -0.25 0.375 -0.40625q0.234375 -0.15625 1.0 -0.359375q1.0 -0.28125 2.03125 -0.4375q1.046875 -0.171875 1.890625 -0.171875q2.515625 0 3.90625 1.09375q1.390625 1.078125 1.390625 2.96875l0 5.5625l0.46875 0q0.96875 0 1.375 0.375q0.421875 0.375 0.421875 0.984375q0 0.59375 -0.421875 0.96875q-0.40625 0.375 -1.375 0.375l-3.171875 0zm0 -4.84375q-1.625 -0.3125 -2.984375 -0.3125q-1.65625 0 -2.84375 0.8125q-0.734375 0.5 -0.734375 1.03125q0 0.390625 0.359375 0.625q0.65625 0.4375 1.796875 0.4375q0.984375 0 2.21875 -0.375q1.234375 -0.390625 2.1875 -1.046875l0 -1.171875zm12.105728 2.140625l4.75 0q0.046875 -0.75 0.421875 -1.125q0.375 -0.375 0.921875 -0.375q0.609375 0 0.984375 0.421875q0.375 0.40625 0.375 1.375l0 2.40625l-11.765625 0l0 -2.234375l7.125 -7.03125l-4.140625 0l0 0.265625q0 0.953125 -0.375 1.375q-0.375 0.40625 -0.984375 0.40625q-0.609375 0 -0.984375 -0.40625q-0.375 -0.421875 -0.375 -1.375l0.015625 -2.96875l11.1875 0l0 2.21875l-7.15625 7.046875zm18.433853 -14.390625l0 2.859375l-3.21875 0l0 -2.859375l3.21875 0zm0.359375 5.125l0 9.265625l3.25 0q0.96875 0 1.375 0.375q0.421875 0.375 0.421875 0.984375q0 0.59375 -0.421875 0.96875q-0.40625 0.375 -1.375 0.375l-9.1875 0q-0.984375 0 -1.40625 -0.375q-0.40625 -0.375 -0.40625 -0.984375q0 -0.59375 0.40625 -0.96875q0.421875 -0.375 1.40625 -0.375l3.234375 0l0 -6.5625l-2.171875 0q-0.96875 0 -1.390625 -0.375q-0.421875 -0.375 -0.421875 -0.984375q0 -0.59375 0.421875 -0.96875q0.421875 -0.375 1.390625 -0.375l4.875 0zm11.918228 0l0 0.90625q0.75 -0.625 1.640625 -0.9375q0.890625 -0.328125 1.921875 -0.328125q2.40625 0 3.796875 1.484375q1.109375 1.1875 1.109375 3.125l0 5.015625q0.859375 0 1.265625 0.375q0.40625 0.375 0.40625 0.984375q0 0.59375 -0.421875 0.96875q-0.40625 0.375 -1.375 0.375l-2.4375 0q-0.984375 0 -1.40625 -0.375q-0.40625 -0.375 -0.40625 -0.984375q0 -0.59375 0.40625 -0.96875q0.40625 -0.375 1.265625 -0.375l0 -5.109375q0 -0.875 -0.46875 -1.28125q-0.625 -0.53125 -1.859375 -0.53125q-0.9375 0 -1.640625 0.359375q-0.703125 0.359375 -1.796875 1.546875l0 5.015625q1.046875 0 1.34375 0.203125q0.65625 0.390625 0.65625 1.15625q0 0.59375 -0.421875 0.96875q-0.40625 0.375 -1.390625 0.375l-3.0625 0q-0.984375 0 -1.40625 -0.375q-0.40625 -0.375 -0.40625 -0.984375q0 -0.734375 0.640625 -1.140625q0.3125 -0.203125 1.34375 -0.203125l0 -6.5625q-0.84375 0 -1.265625 -0.375q-0.40625 -0.390625 -0.40625 -0.984375q0 -0.59375 0.40625 -0.96875q0.421875 -0.375 1.40625 -0.375l2.5625 0zm21.715103 0.796875l0 -0.796875l3.15625 0q0.984375 0 1.390625 0.375q0.421875 0.375 0.421875 0.984375q0 0.59375 -0.421875 0.96875q-0.40625 0.375 -1.390625 0.375l-0.453125 0l0 9.828125q0 1.421875 -0.609375 2.484375q-0.59375 1.0625 -1.84375 1.828125q-1.234375 0.765625 -2.78125 0.765625l-3.0625 0q-0.96875 0 -1.390625 -0.375q-0.421875 -0.375 -0.421875 -0.96875q0 -0.609375 0.421875 -0.984375q0.421875 -0.375 1.390625 -0.375l2.984375 0q1.234375 0 1.921875 -0.671875q0.6875 -0.671875 0.6875 -1.703125l0 -1.3125q-0.90625 0.578125 -1.84375 0.859375q-0.921875 0.296875 -1.890625 0.296875q-2.75 0 -4.609375 -1.828125q-1.859375 -1.84375 -1.859375 -4.546875q0 -2.71875 1.859375 -4.546875q1.859375 -1.84375 4.609375 -1.84375q1.03125 0 1.953125 0.296875q0.9375 0.296875 1.78125 0.890625zm-0.015625 5.1875q0 -1.484375 -1.109375 -2.578125q-1.09375 -1.09375 -2.640625 -1.09375q-1.53125 0 -2.640625 1.09375q-1.09375 1.09375 -1.09375 2.578125q0 1.5 1.09375 2.59375q1.109375 1.078125 2.640625 1.078125q1.546875 0 2.640625 -1.078125q1.109375 -1.09375 1.109375 -2.59375zm15.465103 5.984375l0 -0.640625q-1.015625 0.546875 -2.25 0.8125q-1.21875 0.28125 -2.21875 0.28125q-2.171875 0 -3.53125 -1.15625q-1.359375 -1.15625 -1.359375 -2.546875q0 -1.703125 1.734375 -3.15625q1.734375 -1.46875 4.796875 -1.46875q1.21875 0 2.828125 0.265625l0 -0.640625q0 -0.609375 -0.515625 -0.984375q-0.515625 -0.390625 -1.984375 -0.390625q-1.203125 0 -3.109375 0.46875q-0.71875 0.171875 -1.109375 0.171875q-0.546875 0 -0.921875 -0.375q-0.375 -0.390625 -0.375 -1.0q0 -0.34375 0.125 -0.59375q0.140625 -0.25 0.375 -0.40625q0.234375 -0.15625 1.0 -0.359375q1.0 -0.28125 2.03125 -0.4375q1.046875 -0.171875 1.890625 -0.171875q2.515625 0 3.90625 1.09375q1.390625 1.078125 1.390625 2.96875l0 5.5625l0.46875 0q0.96875 0 1.375 0.375q0.421875 0.375 0.421875 0.984375q0 0.59375 -0.421875 0.96875q-0.40625 0.375 -1.375 0.375l-3.171875 0zm0 -4.84375q-1.625 -0.3125 -2.984375 -0.3125q-1.65625 0 -2.84375 0.8125q-0.734375 0.5 -0.734375 1.03125q0 0.390625 0.359375 0.625q0.65625 0.4375 1.796875 0.4375q0.984375 0 2.21875 -0.375q1.234375 -0.390625 2.1875 -1.046875l0 -1.171875zm12.590103 -1.71875q0 -2.3125 0.765625 -4.671875q0.578125 -1.734375 1.765625 -3.875q0.84375 -1.53125 1.25 -1.875q0.421875 -0.359375 0.921875 -0.359375q0.578125 0 0.96875 0.40625q0.40625 0.390625 0.40625 0.953125q0 0.375 -0.328125 0.90625q-1.421875 2.328125 -2.078125 4.375q-0.640625 2.046875 -0.640625 4.140625q0 2.109375 0.640625 4.15625q0.65625 2.03125 2.078125 4.375q0.328125 0.515625 0.328125 0.90625q0 0.546875 -0.40625 0.9375q-0.390625 0.40625 -0.96875 0.40625q-0.484375 0 -0.859375 -0.3125q-0.53125 -0.46875 -1.390625 -2.078125q-1.265625 -2.328125 -1.71875 -3.84375q-0.734375 -2.328125 -0.734375 -4.546875zm18.121338 0q0 2.296875 -0.765625 4.671875q-0.5625 1.75 -1.75 3.875q-0.859375 1.515625 -1.265625 1.875q-0.40625 0.359375 -0.90625 0.359375q-0.578125 0 -0.984375 -0.40625q-0.390625 -0.390625 -0.390625 -0.9375q0 -0.390625 0.3125 -0.90625q1.4375 -2.34375 2.078125 -4.375q0.65625 -2.046875 0.65625 -4.15625q0 -2.09375 -0.65625 -4.140625q-0.640625 -2.046875 -2.078125 -4.375q-0.3125 -0.53125 -0.3125 -0.90625q0 -0.5625 0.390625 -0.953125q0.40625 -0.40625 0.984375 -0.40625q0.484375 0 0.859375 0.328125q0.53125 0.4375 1.390625 2.0625q1.25 2.34375 1.71875 3.84375q0.71875 2.328125 0.71875 4.546875zm18.136993 -3.53125q0 0.765625 -0.546875 1.28125q-0.53125 0.5 -1.484375 0.5q-0.9375 0 -1.484375 -0.515625q-0.53125 -0.515625 -0.53125 -1.28125q0 -0.75 0.53125 -1.265625q0.53125 -0.53125 1.484375 -0.53125q0.953125 0 1.484375 0.515625q0.546875 0.515625 0.546875 1.296875zm-4.171875 6.15625l3.4375 0l-3.8125 6.171875q-0.375 0.625 -0.71875 0.625q-0.34375 0 -0.578125 -0.203125q-0.21875 -0.1875 -0.21875 -0.421875q0 -0.171875 0.09375 -0.453125l1.796875 -5.71875z" fill-rule="nonzero"></path></g></svg>

