<?xml version="1.0" standalone="yes"?>

<svg version="1.1" viewBox="0.0 0.0 960.0 720.0" fill="none" stroke="none" stroke-linecap="square" stroke-miterlimit="10" xmlns="http://www.w3.org/2000/svg" xmlns:xlink="http://www.w3.org/1999/xlink"><clipPath id="p.0"><path d="m0 0l960.0 0l0 720.0l-960.0 0l0 -720.0z" clip-rule="nonzero"></path></clipPath><g clip-path="url(#p.0)"><path fill="#000000" fill-opacity="0.0" d="m0 0l960.0 0l0 720.0l-960.0 0z" fill-rule="nonzero"></path><path fill="#000000" fill-opacity="0.0" d="m10.745407 19.551182l347.55908 0l0 301.16534l-347.55908 0z" fill-rule="nonzero"></path><path stroke="#ffffff" stroke-width="2.0" stroke-linejoin="round" stroke-linecap="butt" d="m10.745407 19.551182l347.55908 0l0 301.16534l-347.55908 0z" fill-rule="nonzero"></path><path fill="#000000" fill-opacity="0.0" d="m33.27579 39.185707l302.51968 0l0 69.44882l-302.51968 0z" fill-rule="nonzero"></path><path fill="#ffffff" d="m47.96329 74.31449l0 4.609375l2.703125 0q0.6875 0 0.984375 0.265625q0.296875 0.265625 0.296875 0.6875q0 0.421875 -0.296875 0.6875q-0.296875 0.265625 -0.984375 0.265625l-5.734375 0q-0.6875 0 -0.984375 -0.265625q-0.296875 -0.265625 -0.296875 -0.6875q0 -0.421875 0.296875 -0.6875q0.296875 -0.265625 0.984375 -0.265625l1.125 0l0 -4.609375l-0.90625 0q-0.6875 0 -0.984375 -0.265625q-0.28125 -0.265625 -0.28125 -0.703125q0 -0.40625 0.28125 -0.671875q0.296875 -0.265625 0.984375 -0.265625l0.90625 0l0 -0.71875q0 -1.25 0.9375 -2.0625q0.9375 -0.828125 2.703125 -0.828125q0.78125 0 1.8125 0.140625q1.046875 0.140625 1.328125 0.40625q0.296875 0.265625 0.296875 0.671875q0 0.4375 -0.265625 0.71875q-0.25 0.265625 -0.625 0.265625q-0.1875 0 -0.53125 -0.078125q-1.1875 -0.21875 -2.09375 -0.21875q-0.9375 0 -1.296875 0.28125q-0.359375 0.28125 -0.359375 0.703125l0 0.71875l2.9375 0q0.6875 0 0.96875 0.265625q0.296875 0.265625 0.296875 0.6875q0 0.421875 -0.296875 0.6875q-0.28125 0.265625 -0.96875 0.265625l-2.9375 0zm16.1487 2.46875q0 1.09375 -0.6093788 2.125q-0.609375 1.015625 -1.8125 1.625q-1.203125 0.609375 -2.5 0.609375q-1.296875 0 -2.484375 -0.59375q-1.1875 -0.609375 -1.8125 -1.640625q-0.625 -1.03125 -0.625 -2.15625q0 -1.140625 0.625 -2.234375q0.640625 -1.09375 1.8125 -1.71875q1.1875 -0.640625 2.484375 -0.640625q1.296875 0 2.5 0.640625q1.203125 0.640625 1.8125 1.734375q0.6093788 1.09375 0.6093788 2.25zm-1.9062538 0q0 -0.921875 -0.65625 -1.6875q-0.890625 -1.03125 -2.359375 -1.03125q-1.296875 0 -2.15625 0.828125q-0.859375 0.8125 -0.859375 1.90625q0 0.890625 0.859375 1.671875q0.875 0.765625 2.15625 0.765625q1.28125 0 2.140625 -0.765625q0.875 -0.78125 0.875 -1.6875zm13.101826 0q0 1.09375 -0.609375 2.125q-0.609375 1.015625 -1.8125 1.625q-1.203125 0.609375 -2.5 0.609375q-1.296875 0 -2.484375 -0.59375q-1.1875 -0.609375 -1.8125 -1.640625q-0.625 -1.03125 -0.625 -2.15625q0 -1.140625 0.625 -2.234375q0.640625 -1.09375 1.8125 -1.71875q1.1875 -0.640625 2.484375 -0.640625q1.296875 0 2.5 0.640625q1.203125 0.640625 1.8125 1.734375q0.609375 1.09375 0.609375 2.25zm-1.90625 0q0 -0.921875 -0.65625 -1.6875q-0.890625 -1.03125 -2.359375 -1.03125q-1.296875 0 -2.15625 0.828125q-0.859375 0.8125 -0.859375 1.90625q0 0.890625 0.859375 1.671875q0.875 0.765625 2.15625 0.765625q1.28125 0 2.140625 -0.765625q0.875 -0.78125 0.875 -1.6875zm7.476822 -0.578125q0 -1.625 0.546875 -3.28125q0.390625 -1.21875 1.234375 -2.71875q0.59375 -1.078125 0.875 -1.328125q0.296875 -0.25 0.65625 -0.25q0.40625 0 0.671875 0.28125q0.28125 0.28125 0.28125 0.671875q0 0.265625 -0.21875 0.640625q-1.0 1.640625 -1.46875 3.078125q-0.453125 1.4375 -0.453125 2.90625q0 1.484375 0.453125 2.921875q0.46875 1.4375 1.46875 3.078125q0.21875 0.375 0.21875 0.640625q0 0.390625 -0.28125 0.671875q-0.265625 0.28125 -0.671875 0.28125q-0.34375 0 -0.609375 -0.21875q-0.375 -0.328125 -0.984375 -1.453125q-0.875 -1.65625 -1.203125 -2.71875q-0.515625 -1.625 -0.515625 -3.203125zm12.695572 0q0 1.625 -0.546875 3.296875q-0.390625 1.21875 -1.234375 2.71875q-0.59375 1.078125 -0.890625 1.328125q-0.28125 0.25 -0.640625 0.25q-0.40625 0 -0.6875 -0.28125q-0.265625 -0.28125 -0.265625 -0.671875q0 -0.265625 0.21875 -0.640625q1.0 -1.640625 1.453125 -3.078125q0.46875 -1.4375 0.46875 -2.921875q0 -1.46875 -0.46875 -2.90625q-0.453125 -1.4375 -1.453125 -3.078125q-0.21875 -0.375 -0.21875 -0.640625q0 -0.390625 0.265625 -0.671875q0.28125 -0.28125 0.6875 -0.28125q0.34375 0 0.609375 0.21875q0.375 0.328125 0.984375 1.46875q0.875 1.640625 1.203125 2.6875q0.515625 1.65625 0.515625 3.203125zm12.695572 -2.484375q0 0.546875 -0.390625 0.90625q-0.375 0.359375 -1.03125 0.359375q-0.671875 0 -1.046875 -0.359375q-0.375 -0.375 -0.375 -0.90625q0 -0.53125 0.375 -0.890625q0.375 -0.375 1.046875 -0.375q0.65625 0 1.03125 0.359375q0.390625 0.359375 0.390625 0.90625zm-2.9375 4.328125l2.421875 0l-2.6875 4.359375q-0.25 0.4375 -0.5 0.4375q-0.234375 0 -0.40625 -0.140625q-0.15625 -0.140625 -0.15625 -0.296875q0 -0.125 0.0625 -0.328125l1.265625 -4.03125z" fill-rule="nonzero"></path><path fill="#000000" fill-opacity="0.0" d="m33.27579 134.57092l302.51968 0l0 69.44882l-302.51968 0z" fill-rule="nonzero"></path><path fill="#ffffff" d="m49.21329 148.88846q-0.40625 -0.25 -0.875 -0.375q-0.453125 -0.140625 -0.953125 -0.140625q-0.984375 0 -1.5625 0.328125q-0.265625 0.140625 -0.265625 0.3125q0 0.1875 0.359375 0.359375q0.265625 0.140625 1.1875 0.265625q1.6875 0.234375 2.359375 0.46875q0.859375 0.296875 1.328125 0.90625q0.484375 0.609375 0.484375 1.28125q0 0.90625 -0.8125 1.53125q-1.140625 0.890625 -2.984375 0.890625q-0.75 0 -1.375 -0.140625q-0.625 -0.125 -1.140625 -0.375q-0.125 0.109375 -0.265625 0.171875q-0.140625 0.046875 -0.296875 0.046875q-0.390625 0 -0.640625 -0.25q-0.234375 -0.265625 -0.234375 -0.875l0 -0.578125q0 -0.609375 0.234375 -0.875q0.25 -0.265625 0.625 -0.265625q0.3125 0 0.515625 0.171875q0.203125 0.171875 0.328125 0.59375q0.390625 0.328125 0.9375 0.5q0.546875 0.171875 1.25 0.171875q1.171875 0 1.828125 -0.375q0.296875 -0.171875 0.296875 -0.375q0 -0.328125 -0.4375 -0.546875q-0.4375 -0.21875 -1.8125 -0.375q-2.046875 -0.203125 -2.734375 -0.828125q-0.703125 -0.609375 -0.703125 -1.484375q0 -0.921875 0.78125 -1.53125q1.046875 -0.828125 2.734375 -0.828125q0.59375 0 1.140625 0.125q0.546875 0.109375 1.03125 0.328125q0.15625 -0.109375 0.296875 -0.15625q0.140625 -0.0625 0.25 -0.0625q0.359375 0 0.59375 0.265625q0.234375 0.25 0.234375 0.859375l0 0.421875q0 0.5625 -0.140625 0.75q-0.265625 0.390625 -0.71875 0.390625q-0.3125 0 -0.546875 -0.1875q-0.234375 -0.203125 -0.296875 -0.515625zm12.836075 2.640625l-6.984375 0q0.265625 0.671875 0.9375 1.078125q0.6875 0.40625 1.828125 0.40625q0.953125 0 2.515625 -0.40625q0.65625 -0.171875 0.90625 -0.171875q0.34375 0 0.5625 0.25q0.234375 0.234375 0.234375 0.59375q0 0.328125 -0.25 0.5625q-0.328125 0.3125 -1.625 0.59375q-1.28125 0.28125 -2.46875 0.28125q-2.03125 0 -3.265625 -1.15625q-1.21875 -1.15625 -1.21875 -2.84375q0 -1.796875 1.328125 -2.921875q1.328125 -1.125 3.046875 -1.125q1.03125 0 1.890625 0.375q0.875 0.359375 1.3125 0.78125q0.59375 0.609375 0.984375 1.515625q0.265625 0.640625 0.265625 1.46875l0 0.71875zm-1.890625 -1.703125q-0.390625 -0.734375 -1.03125 -1.09375q-0.625 -0.359375 -1.484375 -0.359375q-0.875 0 -1.5 0.359375q-0.625 0.359375 -1.03125 1.09375l5.046875 0zm7.6017036 -1.21875l0 3.40625q0 0.546875 0.21875 0.71875q0.34375 0.28125 1.25 0.28125q1.296875 0 2.40625 -0.5625q0.421875 -0.21875 0.65625 -0.21875q0.328125 0 0.578125 0.25q0.25 0.25 0.25 0.609375q0 0.328125 -0.265625 0.578125q-0.40625 0.390625 -1.609375 0.71875q-1.203125 0.328125 -2.015625 0.328125q-1.59375 0 -2.390625 -0.6875q-0.78125 -0.6875 -0.78125 -1.6875l0 -3.734375l-0.625 0q-0.609375 0 -0.875 -0.234375q-0.25 -0.25 -0.25 -0.625q0 -0.375 0.25 -0.609375q0.265625 -0.234375 0.875 -0.234375l0.625 0l0 -1.546875q0 -0.609375 0.234375 -0.859375q0.234375 -0.265625 0.609375 -0.265625q0.375 0 0.609375 0.265625q0.25 0.25 0.25 0.859375l0 1.546875l3.140625 0q0.609375 0 0.875 0.234375q0.265625 0.234375 0.265625 0.609375q0 0.375 -0.265625 0.625q-0.265625 0.234375 -0.875 0.234375l-3.140625 0zm11.63295 -2.53125l0 6.65625l1.15625 0q0.609375 0 0.859375 0.234375q0.265625 0.234375 0.265625 0.625q0 0.375 -0.265625 0.609375q-0.25 0.234375 -0.859375 0.234375l-3.984375 0q-0.625 0 -0.890625 -0.234375q-0.25 -0.234375 -0.25 -0.625q0 -0.375 0.25 -0.609375q0.265625 -0.234375 0.890625 -0.234375l1.125 0l0 -6.65625l-1.84375 0l0 1.609375q0 0.609375 -0.234375 0.875q-0.234375 0.265625 -0.609375 0.265625q-0.375 0 -0.609375 -0.265625q-0.234375 -0.265625 -0.234375 -0.875l0 -3.3125l8.8125 0l0 3.3125q0 0.609375 -0.25 0.875q-0.234375 0.265625 -0.609375 0.265625q-0.375 0 -0.609375 -0.265625q-0.234375 -0.265625 -0.234375 -0.875l0 -1.609375l-1.875 0zm10.19545 -2.40625l0 1.796875l-2.03125 0l0 -1.796875l2.03125 0zm0.21875 3.234375l0 5.828125l2.046875 0q0.609375 0 0.875 0.234375q0.265625 0.234375 0.265625 0.625q0 0.375 -0.265625 0.609375q-0.265625 0.234375 -0.875 0.234375l-5.78125 0q-0.625 0 -0.890625 -0.234375q-0.25 -0.234375 -0.25 -0.625q0 -0.375 0.25 -0.609375q0.265625 -0.234375 0.890625 -0.234375l2.03125 0l0 -4.125l-1.359375 0q-0.609375 0 -0.875 -0.234375q-0.265625 -0.25 -0.265625 -0.625q0 -0.375 0.265625 -0.609375q0.265625 -0.234375 0.875 -0.234375l3.0625 0zm6.929825 0l0 0.46875q0.421875 -0.40625 0.75 -0.546875q0.34375 -0.15625 0.78125 -0.15625q0.375 0 0.734375 0.1875q0.375 0.171875 0.71875 0.53125q0.4375 -0.359375 0.890625 -0.53125q0.453125 -0.1875 0.921875 -0.1875q0.953125 0 1.546875 0.515625q0.78125 0.65625 0.78125 1.734375l0 3.8125q0.53125 0 0.78125 0.25q0.265625 0.234375 0.265625 0.609375q0 0.375 -0.265625 0.609375q-0.25 0.234375 -0.875 0.234375l-1.609375 0l0 -5.375q0 -0.390625 -0.140625 -0.53125q-0.140625 -0.15625 -0.4375 -0.15625q-0.28125 0 -0.515625 0.15625q-0.3125 0.203125 -0.75 0.78125l0 3.421875q0.53125 0 0.78125 0.25q0.265625 0.234375 0.265625 0.609375q0 0.375 -0.265625 0.609375q-0.25 0.234375 -0.875 0.234375l-1.609375 0l0 -5.375q0 -0.375 -0.15625 -0.53125q-0.140625 -0.15625 -0.421875 -0.15625q-0.296875 0 -0.59375 0.1875q-0.296875 0.1875 -0.703125 0.75l0 3.421875q0.53125 0 0.796875 0.25q0.265625 0.234375 0.265625 0.609375q0 0.375 -0.265625 0.609375q-0.265625 0.234375 -0.875 0.234375l-1.53125 0q-0.625 0 -0.875 -0.234375q-0.265625 -0.234375 -0.265625 -0.625q0 -0.375 0.265625 -0.609375q0.25 -0.234375 0.78125 -0.234375l0 -4.125q-0.53125 0 -0.78125 -0.234375q-0.265625 -0.25 -0.265625 -0.625q0 -0.375 0.265625 -0.609375q0.25 -0.234375 0.875 -0.234375l1.609375 0zm17.304825 4.625l-6.984375 0q0.265625 0.671875 0.9375 1.078125q0.6875 0.40625 1.828125 0.40625q0.953125 0 2.515625 -0.40625q0.65625 -0.171875 0.90625 -0.171875q0.34375 0 0.5625 0.25q0.234375 0.234375 0.234375 0.59375q0 0.328125 -0.25 0.5625q-0.328125 0.3125 -1.625 0.59375q-1.28125 0.28125 -2.46875 0.28125q-2.03125 0 -3.265625 -1.15625q-1.21875 -1.15625 -1.21875 -2.84375q0 -1.796875 1.328125 -2.921875q1.328125 -1.125 3.046875 -1.125q1.03125 0 1.890625 0.375q0.875 0.359375 1.3125 0.78125q0.59375 0.609375 0.984375 1.515625q0.265625 0.640625 0.265625 1.46875l0 0.71875zm-1.890625 -1.703125q-0.390625 -0.734375 -1.03125 -1.09375q-0.625 -0.359375 -1.484375 -0.359375q-0.875 0 -1.5 0.359375q-0.625 0.359375 -1.03125 1.09375l5.046875 0zm12.429825 0.984375q0 0.984375 -0.546875 1.90625q-0.53125 0.90625 -1.609375 1.453125q-1.078125 0.546875 -2.25 0.546875q-1.15625 0 -2.21875 -0.53125q-1.0625 -0.546875 -1.625 -1.46875q-0.546875 -0.921875 -0.546875 -1.921875q0 -1.03125 0.5625 -2.0q0.5625 -0.984375 1.609375 -1.546875q1.0625 -0.578125 2.21875 -0.578125q1.171875 0 2.234375 0.578125q1.078125 0.578125 1.625 1.5625q0.546875 0.96875 0.546875 2.0zm-1.703125 0q0 -0.8125 -0.578125 -1.5q-0.8125 -0.9375 -2.125 -0.9375q-1.15625 0 -1.921875 0.75q-0.765625 0.734375 -0.765625 1.703125q0 0.796875 0.765625 1.5q0.78125 0.6875 1.921875 0.6875q1.15625 0 1.921875 -0.6875q0.78125 -0.703125 0.78125 -1.515625zm11.304817 -3.90625l0 5.828125q0.53125 0 0.78125 0.25q0.265625 0.234375 0.265625 0.609375q0 0.375 -0.265625 0.609375q-0.25 0.234375 -0.859375 0.234375l-1.625 0l0 -0.390625q-0.734375 0.328125 -1.40625 0.5q-0.65625 0.171875 -1.25 0.171875q-0.84375 0 -1.453125 -0.359375q-0.6093674 -0.359375 -0.9687424 -0.96875q-0.265625 -0.453125 -0.265625 -1.125l0 -3.65625l-0.28125 0q-0.625 0 -0.890625 -0.234375q-0.25 -0.25 -0.25 -0.625q0 -0.375 0.25 -0.609375q0.265625 -0.234375 0.890625 -0.234375l1.9843674 0l0 5.0625q0 0.53125 0.265625 0.796875q0.265625 0.25 0.796875 0.25q0.515625 0 1.109375 -0.203125q0.59375 -0.203125 1.46875 -0.734375l0 -3.46875l-0.609375 0q-0.625 0 -0.890625 -0.234375q-0.25 -0.25 -0.25 -0.625q0 -0.375 0.25 -0.609375q0.265625 -0.234375 0.890625 -0.234375l2.3125 0zm6.367325 1.703125l0 3.40625q0 0.546875 0.21875 0.71875q0.34375 0.28125 1.25 0.28125q1.296875 0 2.40625 -0.5625q0.421875 -0.21875 0.65625 -0.21875q0.328125 0 0.578125 0.25q0.25 0.25 0.25 0.609375q0 0.328125 -0.265625 0.578125q-0.40625 0.390625 -1.609375 0.71875q-1.203125 0.328125 -2.015625 0.328125q-1.59375 0 -2.390625 -0.6875q-0.78125 -0.6875 -0.78125 -1.6875l0 -3.734375l-0.625 0q-0.609375 0 -0.875 -0.234375q-0.25 -0.25 -0.25 -0.625q0 -0.375 0.25 -0.609375q0.265625 -0.234375 0.875 -0.234375l0.625 0l0 -1.546875q0 -0.609375 0.234375 -0.859375q0.234375 -0.265625 0.609375 -0.265625q0.375 0 0.609375 0.265625q0.25 0.25 0.25 0.859375l0 1.546875l3.140625 0q0.609375 0 0.875 0.234375q0.265625 0.234375 0.265625 0.609375q0 0.375 -0.265625 0.625q-0.265625 0.234375 -0.875 0.234375l-3.140625 0zm10.19545 1.6875q0 -1.453125 0.484375 -2.9375q0.359375 -1.09375 1.109375 -2.4375q0.53125 -0.953125 0.78125 -1.171875q0.265625 -0.234375 0.59375 -0.234375q0.359375 0 0.609375 0.25q0.25 0.25 0.25 0.609375q0 0.234375 -0.203125 0.5625q-0.890625 1.46875 -1.3125 2.765625q-0.40625 1.28125 -0.40625 2.59375q0 1.328125 0.40625 2.625q0.421875 1.28125 1.3125 2.75q0.203125 0.328125 0.203125 0.578125q0 0.34375 -0.25 0.59375q-0.25 0.25 -0.609375 0.25q-0.3125 0 -0.546875 -0.203125q-0.328125 -0.28125 -0.875 -1.296875q-0.796875 -1.46875 -1.078125 -2.421875q-0.46875 -1.46875 -0.46875 -2.875zm11.00795 -1.6875l0 4.125l2.421875 0q0.609375 0 0.875 0.234375q0.265625 0.234375 0.265625 0.625q0 0.375 -0.265625 0.609375q-0.265625 0.234375 -0.875 0.234375l-5.140625 0q-0.609375 0 -0.875 -0.234375q-0.265625 -0.234375 -0.265625 -0.625q0 -0.375 0.265625 -0.609375q0.265625 -0.234375 0.875 -0.234375l1.015625 0l0 -4.125l-0.8125 0q-0.625 0 -0.890625 -0.234375q-0.25 -0.25 -0.25 -0.625q0 -0.375 0.25 -0.609375q0.265625 -0.234375 0.890625 -0.234375l0.8125 0l0 -0.65625q0 -1.109375 0.828125 -1.84375q0.84375 -0.734375 2.421875 -0.734375q0.703125 0 1.625 0.125q0.9375 0.125 1.1875 0.359375q0.265625 0.234375 0.265625 0.609375q0 0.390625 -0.234375 0.640625q-0.234375 0.234375 -0.5625 0.234375q-0.171875 0 -0.484375 -0.0625q-1.046875 -0.203125 -1.859375 -0.203125q-0.84375 0 -1.171875 0.25q-0.3125 0.25 -0.3125 0.625l0 0.65625l2.625 0q0.609375 0 0.859375 0.234375q0.265625 0.234375 0.265625 0.609375q0 0.375 -0.265625 0.625q-0.25 0.234375 -0.859375 0.234375l-2.625 0zm14.023575 -1.703125l0 5.828125q0.53125 0 0.78125 0.25q0.265625 0.234375 0.265625 0.609375q0 0.375 -0.265625 0.609375q-0.25 0.234375 -0.859375 0.234375l-1.625 0l0 -0.390625q-0.734375 0.328125 -1.40625 0.5q-0.65625 0.171875 -1.25 0.171875q-0.84375 0 -1.453125 -0.359375q-0.609375 -0.359375 -0.96875 -0.96875q-0.265625 -0.453125 -0.265625 -1.125l0 -3.65625l-0.28125 0q-0.625 0 -0.890625 -0.234375q-0.25 -0.25 -0.25 -0.625q0 -0.375 0.25 -0.609375q0.265625 -0.234375 0.890625 -0.234375l1.984375 0l0 5.0625q0 0.53125 0.265625 0.796875q0.265625 0.25 0.796875 0.25q0.515625 0 1.109375 -0.203125q0.59375 -0.203125 1.46875 -0.734375l0 -3.46875l-0.609375 0q-0.625 0 -0.890625 -0.234375q-0.25 -0.25 -0.25 -0.625q0 -0.375 0.25 -0.609375q0.265625 -0.234375 0.890625 -0.234375l2.3125 0zm5.054825 0l0 0.5625q0.46875 -0.390625 1.03125 -0.59375q0.5625 -0.203125 1.21875 -0.203125q1.5 0 2.390625 0.9375q0.6875 0.75 0.6875 1.96875l0 3.15625q0.546875 0 0.796875 0.234375q0.265625 0.234375 0.265625 0.625q0 0.375 -0.265625 0.609375q-0.265625 0.234375 -0.875 0.234375l-1.53125 0q-0.625 0 -0.890625 -0.234375q-0.25 -0.234375 -0.25 -0.625q0 -0.375 0.25 -0.609375q0.265625 -0.234375 0.796875 -0.234375l0 -3.21875q0 -0.546875 -0.296875 -0.8125q-0.390625 -0.328125 -1.171875 -0.328125q-0.578125 0 -1.03125 0.234375q-0.4375 0.21875 -1.125 0.96875l0 3.15625q0.65625 0 0.84375 0.125q0.40625 0.25 0.40625 0.734375q0 0.375 -0.265625 0.609375q-0.25 0.234375 -0.859375 0.234375l-1.9375 0q-0.609375 0 -0.875 -0.234375q-0.265625 -0.234375 -0.265625 -0.625q0 -0.453125 0.40625 -0.71875q0.1875 -0.125 0.84375 -0.125l0 -4.125q-0.53125 0 -0.796875 -0.234375q-0.25 -0.25 -0.25 -0.625q0 -0.375 0.25 -0.609375q0.265625 -0.234375 0.890625 -0.234375l1.609375 0zm14.773575 0.296875q0.3125 -0.28125 0.640625 -0.28125q0.359375 0 0.59375 0.265625q0.234375 0.25 0.234375 0.859375l0 1.09375q0 0.609375 -0.234375 0.875q-0.234375 0.25 -0.609375 0.25q-0.359375 0 -0.59375 -0.1875q-0.171875 -0.15625 -0.28125 -0.609375q-0.09375 -0.46875 -0.484375 -0.6875q-0.671875 -0.40625 -1.71875 -0.40625q-1.203125 0 -1.9375 0.703125q-0.71875 0.703125 -0.71875 1.796875q0 0.984375 0.703125 1.5625q0.703125 0.578125 2.3125 0.578125q1.0625 0 1.734375 -0.21875q0.40625 -0.125 0.765625 -0.4375q0.359375 -0.328125 0.640625 -0.328125q0.34375 0 0.59375 0.265625q0.265625 0.25 0.265625 0.59375q0 0.5625 -0.78125 1.078125q-1.140625 0.75 -3.34375 0.75q-1.984375 0 -3.09375 -0.828125q-1.484375 -1.09375 -1.484375 -3.015625q0 -1.8125 1.203125 -3.0q1.21875 -1.203125 3.171875 -1.203125q0.703125 0 1.296875 0.140625q0.609375 0.125 1.125 0.390625zm7.336075 1.40625l0 3.40625q0 0.546875 0.21875 0.71875q0.34375 0.28125 1.25 0.28125q1.296875 0 2.40625 -0.5625q0.421875 -0.21875 0.65625 -0.21875q0.328125 0 0.578125 0.25q0.25 0.25 0.25 0.609375q0 0.328125 -0.265625 0.578125q-0.40625 0.390625 -1.609375 0.71875q-1.203125 0.328125 -2.015625 0.328125q-1.59375 0 -2.390625 -0.6875q-0.78125 -0.6875 -0.78125 -1.6875l0 -3.734375l-0.625 0q-0.609375 0 -0.875 -0.234375q-0.25 -0.25 -0.25 -0.625q0 -0.375 0.25 -0.609375q0.265625 -0.234375 0.875 -0.234375l0.625 0l0 -1.546875q0 -0.609375 0.234375 -0.859375q0.234375 -0.265625 0.609375 -0.265625q0.375 0 0.609375 0.265625q0.25 0.25 0.25 0.859375l0 1.546875l3.140625 0q0.609375 0 0.875 0.234375q0.265625 0.234375 0.265625 0.609375q0 0.375 -0.265625 0.625q-0.265625 0.234375 -0.875 0.234375l-3.140625 0zm11.429825 -4.9375l0 1.796875l-2.03125 0l0 -1.796875l2.03125 0zm0.21875 3.234375l0 5.828125l2.046875 0q0.609375 0 0.875 0.234375q0.265625 0.234375 0.265625 0.625q0 0.375 -0.265625 0.609375q-0.265625 0.234375 -0.875 0.234375l-5.78125 0q-0.625 0 -0.890625 -0.234375q-0.25 -0.234375 -0.25 -0.625q0 -0.375 0.25 -0.609375q0.265625 -0.234375 0.890625 -0.234375l2.03125 0l0 -4.125l-1.359375 0q-0.609375 0 -0.875 -0.234375q-0.265625 -0.25 -0.265625 -0.625q0 -0.375 0.265625 -0.609375q0.265625 -0.234375 0.875 -0.234375l3.0625 0zm13.9767 3.90625q0 0.984375 -0.546875 1.90625q-0.53125 0.90625 -1.609375 1.453125q-1.078125 0.546875 -2.25 0.546875q-1.15625 0 -2.21875 -0.53125q-1.0625 -0.546875 -1.625 -1.46875q-0.546875 -0.921875 -0.546875 -1.921875q0 -1.03125 0.5625 -2.0q0.5625 -0.984375 1.609375 -1.546875q1.0625 -0.578125 2.21875 -0.578125q1.171875 0 2.234375 0.578125q1.078125 0.578125 1.625 1.5625q0.546875 0.96875 0.546875 2.0zm-1.703125 0q0 -0.8125 -0.578125 -1.5q-0.8125 -0.9375 -2.125 -0.9375q-1.15625 0 -1.921875 0.75q-0.765625 0.734375 -0.765625 1.703125q0 0.796875 0.765625 1.5q0.78125 0.6875 1.921875 0.6875q1.15625 0 1.921875 -0.6875q0.78125 -0.703125 0.78125 -1.515625zm5.961075 -3.90625l0 0.5625q0.46875 -0.390625 1.03125 -0.59375q0.5625 -0.203125 1.21875 -0.203125q1.5 0 2.390625 0.9375q0.6875 0.75 0.6875 1.96875l0 3.15625q0.546875 0 0.796875 0.234375q0.265625 0.234375 0.265625 0.625q0 0.375 -0.265625 0.609375q-0.265625 0.234375 -0.875 0.234375l-1.53125 0q-0.625 0 -0.890625 -0.234375q-0.25 -0.234375 -0.25 -0.625q0 -0.375 0.25 -0.609375q0.265625 -0.234375 0.796875 -0.234375l0 -3.21875q0 -0.546875 -0.296875 -0.8125q-0.390625 -0.328125 -1.171875 -0.328125q-0.578125 0 -1.03125 0.234375q-0.4375 0.21875 -1.125 0.96875l0 3.15625q0.65625 0 0.84375 0.125q0.40625 0.25 0.40625 0.734375q0 0.375 -0.265625 0.609375q-0.25 0.234375 -0.859375 0.234375l-1.9375 0q-0.609375 0 -0.875 -0.234375q-0.265625 -0.234375 -0.265625 -0.625q0 -0.453125 0.40625 -0.71875q0.1875 -0.125 0.84375 -0.125l0 -4.125q-0.53125 0 -0.796875 -0.234375q-0.25 -0.25 -0.25 -0.625q0 -0.375 0.25 -0.609375q0.265625 -0.234375 0.890625 -0.234375l1.609375 0zm21.906525 3.390625q0 -1.453125 0.484375 -2.9375q0.359375 -1.09375 1.109375 -2.4375q0.53125 -0.953125 0.78125 -1.171875q0.265625 -0.234375 0.59375 -0.234375q0.359375 0 0.609375 0.25q0.25 0.25 0.25 0.609375q0 0.234375 -0.203125 0.5625q-0.890625 1.46875 -1.3125 2.765625q-0.40625 1.28125 -0.40625 2.59375q0 1.328125 0.40625 2.625q0.421875 1.28125 1.3125 2.75q0.203125 0.328125 0.203125 0.578125q0 0.34375 -0.25 0.59375q-0.25 0.25 -0.609375 0.25q-0.3125 0 -0.546875 -0.203125q-0.328125 -0.28125 -0.875 -1.296875q-0.796875 -1.46875 -1.078125 -2.421875q-0.46875 -1.46875 -0.46875 -2.875zm13.664215 -3.09375q0.3125 -0.28125 0.640625 -0.28125q0.359375 0 0.59375 0.265625q0.234375 0.25 0.234375 0.859375l0 1.09375q0 0.609375 -0.234375 0.875q-0.234375 0.25 -0.609375 0.25q-0.359375 0 -0.59375 -0.1875q-0.171875 -0.15625 -0.28125 -0.609375q-0.09375 -0.46875 -0.484375 -0.6875q-0.671875 -0.40625 -1.71875 -0.40625q-1.203125 0 -1.9375 0.703125q-0.71875 0.703125 -0.71875 1.796875q0 0.984375 0.703125 1.5625q0.703125 0.578125 2.3125 0.578125q1.0625 0 1.734375 -0.21875q0.40625 -0.125 0.765625 -0.4375q0.359375 -0.328125 0.640625 -0.328125q0.34375 0 0.59375 0.265625q0.265625 0.25 0.265625 0.59375q0 0.5625 -0.78125 1.078125q-1.140625 0.75 -3.34375 0.75q-1.984375 0 -3.09375 -0.828125q-1.484375 -1.09375 -1.484375 -3.015625q0 -1.8125 1.203125 -3.0q1.21875 -1.203125 3.171875 -1.203125q0.703125 0 1.296875 0.140625q0.609375 0.125 1.125 0.390625zm5.6016846 -3.53125l0 3.8125q0.625 -0.40625 1.265625 -0.609375q0.640625 -0.203125 1.296875 -0.203125q1.765625 0 3.0 1.21875q1.234375 1.21875 1.234375 2.953125q0 1.65625 -1.171875 2.765625q-1.171875 1.109375 -3.09375 1.109375q-0.671875 0 -1.3125 -0.1875q-0.625 -0.171875 -1.21875 -0.515625l0 0.421875l-1.984375 0q-0.625 0 -0.890625 -0.234375q-0.25 -0.234375 -0.25 -0.625q0 -0.375 0.265625 -0.609375q0.265625 -0.234375 0.875 -0.234375l0.28125 0l0 -7.359375l-0.28125 0q-0.625 0 -0.890625 -0.234375q-0.25 -0.234375 -0.25 -0.625q0 -0.375 0.25 -0.609375q0.265625 -0.234375 0.890625 -0.234375l1.984375 0zm5.09375 7.21875q0 -1.046875 -0.75 -1.78125q-0.734375 -0.734375 -1.796875 -0.734375q-1.0625 0 -1.8125 0.734375q-0.734375 0.734375 -0.734375 1.765625q0 0.9375 0.65625 1.546875q0.671875 0.59375 1.890625 0.59375q1.203125 0 1.875 -0.59375q0.671875 -0.609375 0.671875 -1.53125zm8.17984 -0.59375q0 1.453125 -0.484375 2.953125q-0.359375 1.09375 -1.109375 2.4375q-0.53125 0.953125 -0.796875 1.171875q-0.25 0.234375 -0.5625 0.234375q-0.375 0 -0.625 -0.25q-0.234375 -0.25 -0.234375 -0.59375q0 -0.25 0.1875 -0.578125q0.90625 -1.46875 1.3125 -2.75q0.40625 -1.296875 0.40625 -2.625q0 -1.3125 -0.40625 -2.59375q-0.40625 -1.296875 -1.3125 -2.765625q-0.1875 -0.328125 -0.1875 -0.5625q0 -0.359375 0.234375 -0.609375q0.25 -0.25 0.625 -0.25q0.296875 0 0.53125 0.203125q0.34375 0.28125 0.890625 1.3125q0.78125 1.46875 1.078125 2.40625q0.453125 1.46875 0.453125 2.859375zm20.42212 0.015625q0.296875 0.34375 0.390625 0.671875q0.109375 0.3125 0.109375 1.015625l0 2.71875q0 0.328125 0.125 0.46875q0.140625 0.15625 0.484375 0.1875q0.359375 0.03125 0.578125 0.265625q0.21875 0.234375 0.21875 0.59375q0 0.359375 -0.25 0.609375q-0.25 0.25 -0.640625 0.25q-0.5625 0 -1.078125 -0.296875q-0.515625 -0.296875 -0.890625 -0.953125q-0.234375 -0.4375 -0.234375 -1.0l0 -3.0q0 -0.359375 -0.125 -0.484375q-0.109375 -0.140625 -0.5 -0.1875q-0.375 -0.046875 -0.578125 -0.265625q-0.203125 -0.234375 -0.203125 -0.59375q0 -0.375 0.203125 -0.59375q0.203125 -0.234375 0.578125 -0.265625q0.390625 -0.046875 0.484375 -0.15625q0.140625 -0.171875 0.140625 -0.515625l0 -2.84375q0 -0.90625 0.65625 -1.578125q0.671875 -0.671875 1.53125 -0.671875q0.40625 0 0.65625 0.25q0.25 0.25 0.25 0.609375q0 0.34375 -0.21875 0.59375q-0.21875 0.234375 -0.578125 0.265625q-0.359375 0.03125 -0.453125 0.15625q-0.15625 0.171875 -0.15625 0.5l0 2.71875q0 0.5625 -0.109375 0.875q-0.109375 0.3125 -0.390625 0.65625z" fill-rule="nonzero"></path><path fill="#ffffff" d="m69.479195 174.57596q0 0.484375 -0.34375 0.8125q-0.34375 0.328125 -0.9375 0.328125q-0.59375 0 -0.9375 -0.328125q-0.34375 -0.328125 -0.34375 -0.8125q0 -0.484375 0.34375 -0.796875q0.34375 -0.328125 0.9375 -0.328125q0.59375 0 0.9375 0.328125q0.34375 0.3125 0.34375 0.796875zm10.398575 0q0 0.484375 -0.34375 0.8125q-0.34375 0.328125 -0.9375 0.328125q-0.59375 0 -0.9375 -0.328125q-0.34375 -0.328125 -0.34375 -0.8125q0 -0.484375 0.34375 -0.796875q0.34375 -0.328125 0.9375 -0.328125q0.59375 0 0.9375 0.328125q0.34375 0.3125 0.34375 0.796875zm10.398575 0q0 0.484375 -0.34375 0.8125q-0.34375 0.328125 -0.9375 0.328125q-0.59375 0 -0.9375 -0.328125q-0.34375 -0.328125 -0.34375 -0.8125q0 -0.484375 0.34375 -0.796875q0.34375 -0.328125 0.9375 -0.328125q0.59375 0 0.9375 0.328125q0.34375 0.3125 0.34375 0.796875z" fill-rule="nonzero"></path><path fill="#ffffff" d="m46.99454 192.31033q-0.296875 -0.34375 -0.40625 -0.65625q-0.109375 -0.328125 -0.109375 -0.875l0 -2.71875q0 -0.328125 -0.140625 -0.46875q-0.125 -0.15625 -0.46875 -0.1875q-0.34375 -0.03125 -0.578125 -0.265625q-0.21875 -0.25 -0.21875 -0.59375q0 -0.359375 0.25 -0.609375q0.25 -0.25 0.640625 -0.25q0.5625 0 1.078125 0.296875q0.515625 0.296875 0.890625 0.953125q0.25 0.4375 0.25 1.0l0 2.84375q0 0.359375 0.109375 0.5q0.125 0.125 0.5 0.171875q0.375 0.03125 0.578125 0.265625q0.21875 0.21875 0.21875 0.59375q0 0.359375 -0.21875 0.59375q-0.203125 0.21875 -0.59375 0.265625q-0.375 0.046875 -0.453125 0.15625q-0.140625 0.15625 -0.140625 0.515625l0 3.0q0 0.90625 -0.671875 1.578125q-0.65625 0.671875 -1.53125 0.671875q-0.40625 0 -0.65625 -0.25q-0.25 -0.25 -0.25 -0.609375q0 -0.34375 0.21875 -0.59375q0.234375 -0.234375 0.578125 -0.265625q0.359375 -0.03125 0.453125 -0.15625q0.15625 -0.171875 0.15625 -0.5l0 -2.71875q0 -0.703125 0.09375 -1.015625q0.109375 -0.328125 0.421875 -0.671875zm10.38295 1.828125l2.265625 0l-2.4375 4.625q-0.21875 0.40625 -0.546875 0.40625q-0.21875 0 -0.375 -0.140625q-0.140625 -0.140625 -0.140625 -0.3125q0 -0.125 0.046875 -0.34375l1.1875 -4.234375zm24.906528 -4.015625l0 1.859375q0 1.65625 -0.96875 3.1875q-0.953125 1.515625 -2.734375 1.515625q-1.03125 0 -1.734375 -0.453125q-0.703125 -0.453125 -1.34375 -1.671875q-0.640625 -1.21875 -0.640625 -2.578125l0 -1.859375q0 -1.65625 0.953125 -3.171875q0.953125 -1.53125 2.75 -1.53125q1.015625 0 1.71875 0.453125q0.71875 0.4375 1.359375 1.65625q0.640625 1.21875 0.640625 2.59375zm-1.703125 0q0 -1.390625 -0.78125 -2.421875q-0.4375 -0.578125 -1.234375 -0.578125q-0.765625 0 -1.265625 0.625q-0.734375 0.953125 -0.734375 2.375l0 1.859375q0 1.390625 0.78125 2.421875q0.4375 0.578125 1.234375 0.578125q0.765625 0 1.25 -0.625q0.75 -0.953125 0.75 -2.375l0 -1.859375zm9.117325 2.171875q0 1.453125 -0.484375 2.953125q-0.359375 1.09375 -1.109375 2.4375q-0.53125 0.953125 -0.796875 1.171875q-0.25 0.234375 -0.5625 0.234375q-0.375 0 -0.625 -0.25q-0.234375 -0.25 -0.234375 -0.59375q0 -0.25 0.1875 -0.578125q0.90625 -1.46875 1.3125 -2.75q0.40625 -1.296875 0.40625 -2.625q0 -1.3125 -0.40625 -2.59375q-0.40625 -1.296875 -1.3125 -2.765625q-0.1875 -0.328125 -0.1875 -0.5625q0 -0.359375 0.234375 -0.609375q0.25 -0.25 0.625 -0.25q0.296875 0 0.53125 0.203125q0.34375 0.28125 0.890625 1.3125q0.78125 1.46875 1.078125 2.40625q0.453125 1.46875 0.453125 2.859375z" fill-rule="nonzero"></path><path fill="#000000" fill-opacity="0.0" d="m33.27579 229.95798l302.51968 0l0 69.44882l-302.51968 0z" fill-rule="nonzero"></path><path fill="#ffffff" d="m45.572666 259.57114l0 4.265625q0.703125 -0.453125 1.421875 -0.671875q0.71875 -0.234375 1.453125 -0.234375q1.96875 0 3.34375 1.359375q1.375 1.359375 1.375 3.296875q0 1.84375 -1.3125 3.09375q-1.296875 1.234375 -3.453125 1.234375q-0.75 0 -1.453125 -0.203125q-0.703125 -0.1875 -1.375 -0.578125l0 0.46875l-2.21875 0q-0.6875 0 -0.984375 -0.265625q-0.28125 -0.265625 -0.28125 -0.6875q0 -0.421875 0.296875 -0.6875q0.296875 -0.265625 0.96875 -0.265625l0.328125 0l0 -8.21875l-0.328125 0q-0.6875 0 -0.984375 -0.265625q-0.28125 -0.265625 -0.28125 -0.703125q0 -0.40625 0.28125 -0.671875q0.296875 -0.265625 0.984375 -0.265625l2.21875 0zm5.6875 8.0625q0 -1.171875 -0.828125 -1.984375q-0.8125 -0.8125 -2.015625 -0.8125q-1.1875 0 -2.015625 0.8125q-0.828125 0.8125 -0.828125 1.96875q0 1.046875 0.734375 1.71875q0.75 0.671875 2.109375 0.671875q1.359375 0 2.09375 -0.671875q0.75 -0.671875 0.75 -1.703125zm9.617447 3.96875l0 -0.453125q-0.703125 0.390625 -1.578125 0.578125q-0.859375 0.1875 -1.5625 0.1875q-1.53125 0 -2.484375 -0.8125q-0.953125 -0.8125 -0.953125 -1.796875q0 -1.1875 1.21875 -2.203125q1.21875 -1.03125 3.375 -1.03125q0.859375 0 1.984375 0.171875l0 -0.453125q0 -0.421875 -0.359375 -0.6875q-0.359375 -0.265625 -1.390625 -0.265625q-0.84375 0 -2.203125 0.328125q-0.5 0.125 -0.765625 0.125q-0.390625 0 -0.65625 -0.265625q-0.265625 -0.28125 -0.265625 -0.71875q0 -0.234375 0.09375 -0.40625q0.09375 -0.1875 0.265625 -0.28125q0.171875 -0.109375 0.703125 -0.265625q0.703125 -0.1875 1.421875 -0.296875q0.734375 -0.125 1.328125 -0.125q1.78125 0 2.75 0.765625q0.984375 0.765625 0.984375 2.09375l0 3.90625l0.328125 0q0.6875 0 0.9687538 0.265625q0.296875 0.265625 0.296875 0.6875q0 0.421875 -0.296875 0.6875q-0.2812538 0.265625 -0.9687538 0.265625l-2.234375 0zm0 -3.40625q-1.140625 -0.21875 -2.09375 -0.21875q-1.171875 0 -2.0 0.5625q-0.515625 0.359375 -0.515625 0.734375q0 0.265625 0.25 0.4375q0.453125 0.296875 1.265625 0.296875q0.6875 0 1.546875 -0.265625q0.875 -0.265625 1.546875 -0.734375l0 -0.8125zm9.101826 -5.015625l0 1.1875q1.1875 -0.859375 1.875 -1.140625q0.703125 -0.296875 1.296875 -0.296875q0.9375 0 1.796875 0.6875q0.59375 0.453125 0.59375 0.9375q0 0.40625 -0.28125 0.703125q-0.28125 0.28125 -0.671875 0.28125q-0.359375 0 -0.75 -0.34375q-0.390625 -0.359375 -0.6875 -0.359375q-0.40625 0 -1.203125 0.5q-0.78125 0.5 -1.96875 1.5l0 2.859375l2.703125 0q0.6875 0 0.96875 0.265625q0.296875 0.265625 0.296875 0.6875q0 0.421875 -0.296875 0.6875q-0.28125 0.265625 -0.96875 0.265625l-5.75 0q-0.671875 0 -0.96875 -0.265625q-0.296875 -0.265625 -0.296875 -0.6875q0 -0.421875 0.296875 -0.6875q0.296875 -0.265625 0.96875 -0.265625l1.140625 0l0 -4.609375l-0.6875 0q-0.6875 0 -0.984375 -0.265625q-0.28125 -0.265625 -0.28125 -0.703125q0 -0.40625 0.28125 -0.671875q0.296875 -0.265625 0.984375 -0.265625l2.59375 0zm10.898697 3.796875q0 -1.625 0.546875 -3.28125q0.390625 -1.21875 1.234375 -2.71875q0.59375 -1.078125 0.875 -1.328125q0.296875 -0.25 0.65625 -0.25q0.40625 0 0.671875 0.28125q0.28125 0.28125 0.28125 0.671875q0 0.265625 -0.21875 0.640625q-1.0 1.640625 -1.46875 3.078125q-0.453125 1.4375 -0.453125 2.90625q0 1.484375 0.453125 2.921875q0.46875 1.4375 1.46875 3.078125q0.21875 0.375 0.21875 0.640625q0 0.390625 -0.28125 0.671875q-0.265625 0.28125 -0.671875 0.28125q-0.34375 0 -0.609375 -0.21875q-0.375 -0.328125 -0.984375 -1.453125q-0.875 -1.65625 -1.203125 -2.71875q-0.515625 -1.625 -0.515625 -3.203125zm12.695572 0q0 1.625 -0.546875 3.296875q-0.390625 1.21875 -1.234375 2.71875q-0.59375 1.078125 -0.890625 1.328125q-0.28125 0.25 -0.640625 0.25q-0.40625 0 -0.6875 -0.28125q-0.265625 -0.28125 -0.265625 -0.671875q0 -0.265625 0.21875 -0.640625q1.0 -1.640625 1.453125 -3.078125q0.46875 -1.4375 0.46875 -2.921875q0 -1.46875 -0.46875 -2.90625q-0.453125 -1.4375 -1.453125 -3.078125q-0.21875 -0.375 -0.21875 -0.640625q0 -0.390625 0.265625 -0.671875q0.28125 -0.28125 0.6875 -0.28125q0.34375 0 0.609375 0.21875q0.375 0.328125 0.984375 1.46875q0.875 1.640625 1.203125 2.6875q0.515625 1.65625 0.515625 3.203125zm12.695572 -2.484375q0 0.546875 -0.390625 0.90625q-0.375 0.359375 -1.03125 0.359375q-0.671875 0 -1.046875 -0.359375q-0.375 -0.375 -0.375 -0.90625q0 -0.53125 0.375 -0.890625q0.375 -0.375 1.046875 -0.375q0.65625 0 1.03125 0.359375q0.390625 0.359375 0.390625 0.90625zm-2.9375 4.328125l2.421875 0l-2.6875 4.359375q-0.25 0.4375 -0.5 0.4375q-0.234375 0 -0.40625 -0.140625q-0.15625 -0.140625 -0.15625 -0.296875q0 -0.125 0.0625 -0.328125l1.265625 -4.03125z" fill-rule="nonzero"></path><path fill="#000000" fill-opacity="0.0" d="m432.0 19.551182l227.81104 0l0 301.16534l-227.81104 0z" fill-rule="nonzero"></path><path stroke="#ffffff" stroke-width="2.0" stroke-linejoin="round" stroke-linecap="butt" d="m432.0 19.551182l227.81104 0l0 301.16534l-227.81104 0z" fill-rule="nonzero"></path><path fill="#000000" fill-opacity="0.0" d="m432.0 19.551182l227.81104 0l0 50.582676l-227.81104 0z" fill-rule="nonzero"></path><path fill="#ffffff" d="m518.909 48.991894q0.84375 0.71875 1.859375 1.171875q1.015625 0.453125 2.0 0.453125q1.109375 0 1.640625 -0.40625q0.546875 -0.40625 0.546875 -1.09375q0 -0.359375 -0.15625 -0.625q-0.15625 -0.265625 -0.46875 -0.46875q-0.296875 -0.203125 -0.71875 -0.375q-0.40625 -0.1875 -0.921875 -0.40625l-2.03125 -0.875q-0.59375 -0.234375 -1.171875 -0.609375q-0.5625 -0.390625 -1.015625 -0.90625q-0.4375 -0.515625 -0.703125 -1.203125q-0.25 -0.6875 -0.25 -1.546875q0 -0.953125 0.40625 -1.796875q0.40625 -0.859375 1.140625 -1.5q0.75 -0.640625 1.765625 -1.0q1.03125 -0.359375 2.25 -0.359375q1.375 0 2.703125 0.53125q1.328125 0.53125 2.34375 1.53125l-1.8125 2.234375q-0.765625 -0.59375 -1.53125 -0.921875q-0.765625 -0.328125 -1.703125 -0.328125q-0.90625 0 -1.453125 0.375q-0.53125 0.375 -0.53125 1.046875q0 0.359375 0.171875 0.609375q0.1875 0.25 0.5 0.453125q0.328125 0.203125 0.75 0.390625q0.4375 0.171875 0.953125 0.390625l2.015625 0.8125q1.4375 0.578125 2.265625 1.59375q0.828125 1.0 0.828125 2.65625q0 0.984375 -0.40625 1.859375q-0.390625 0.875 -1.15625 1.546875q-0.75 0.65625 -1.859375 1.046875q-1.09375 0.390625 -2.484375 0.390625q-1.53125 0 -3.0625 -0.5625q-1.515625 -0.5625 -2.71875 -1.6875l2.015625 -2.421875zm12.531433 -4.75l-1.640625 0l0 -2.625l1.828125 -0.140625l0.40625 -3.171875l2.921875 0l0 3.171875l2.859375 0l0 2.765625l-2.859375 0l0 4.765625q0 1.015625 0.421875 1.46875q0.421875 0.4375 1.125 0.4375q0.28125 0 0.578125 -0.0625q0.296875 -0.078125 0.546875 -0.1875l0.546875 2.578125q-0.484375 0.140625 -1.125 0.28125q-0.640625 0.140625 -1.515625 0.140625q-1.09375 0 -1.875 -0.328125q-0.78125 -0.34375 -1.28125 -0.9375q-0.484375 -0.59375 -0.71875 -1.4375q-0.21875 -0.859375 -0.21875 -1.890625l0 -4.828125zm8.270081 5.828125q0 -1.875 1.578125 -2.921875q1.59375 -1.0625 5.125 -1.421875q-0.046875 -0.796875 -0.484375 -1.265625q-0.4375 -0.46875 -1.390625 -0.46875q-0.765625 0 -1.546875 0.296875q-0.765625 0.28125 -1.625 0.796875l-1.25 -2.328125q1.15625 -0.703125 2.40625 -1.125q1.265625 -0.4375 2.6875 -0.4375q2.296875 0 3.515625 1.3125q1.21875 1.296875 1.21875 4.0625l0 6.8125l-2.890625 0l-0.265625 -1.21875l-0.0625 0q-0.765625 0.671875 -1.625 1.09375q-0.859375 0.40625 -1.859375 0.40625q-0.8125 0 -1.46875 -0.28125q-0.640625 -0.265625 -1.109375 -0.75q-0.453125 -0.5 -0.703125 -1.140625q-0.25 -0.65625 -0.25 -1.421875zm3.359375 -0.265625q0 0.578125 0.375 0.859375q0.375 0.265625 1.0 0.265625q0.625 0 1.046875 -0.25q0.4375 -0.265625 0.921875 -0.75l0 -2.09375q-1.90625 0.265625 -2.625 0.78125q-0.71875 0.5 -0.71875 1.1875zm9.190979 -2.375q0 -1.484375 0.5 -2.640625q0.515625 -1.171875 1.359375 -1.96875q0.859375 -0.796875 1.984375 -1.203125q1.125 -0.421875 2.359375 -0.421875q1.09375 0 1.984375 0.375q0.890625 0.359375 1.484375 0.984375l-1.609375 2.1875q-0.828125 -0.703125 -1.65625 -0.703125q-1.296875 0 -2.046875 0.921875q-0.734375 0.90625 -0.734375 2.46875q0 1.5625 0.75 2.484375q0.765625 0.90625 1.921875 0.90625q0.640625 0 1.171875 -0.265625q0.53125 -0.265625 0.953125 -0.609375l1.421875 2.234375q-0.859375 0.765625 -1.921875 1.125q-1.046875 0.359375 -2.03125 0.359375q-1.25 0 -2.328125 -0.40625q-1.0625 -0.421875 -1.859375 -1.21875q-0.78125 -0.796875 -1.25 -1.953125q-0.453125 -1.171875 -0.453125 -2.65625zm11.911133 -10.875l3.421875 0l0 9.65625l0.109375 0l3.765625 -4.734375l3.84375 0l-4.1875 4.890625l4.5 7.015625l-3.828125 0l-2.6875 -4.625l-1.515625 1.703125l0 2.921875l-3.421875 0l0 -16.828125z" fill-rule="nonzero"></path><path fill="#e2272a" d="m-138.85039 89.42257l52.11023 0l0 -7.2519684l14.503937 14.503937l-14.503937 14.503937l0 -7.2519684l-52.11023 0z" fill-rule="nonzero"></path><path stroke="#ffffff" stroke-width="2.0" stroke-linejoin="round" stroke-linecap="butt" d="m-138.85039 89.42257l52.11023 0l0 -7.2519684l14.503937 14.503937l-14.503937 14.503937l0 -7.2519684l-52.11023 0z" fill-rule="nonzero"></path><path fill="#ffffff" d="m437.26068 268.1666l217.29132 0l0 47.18109l-217.29132 0z" fill-rule="nonzero"></path><path fill="#000000" d="m506.1993 289.65652l0 0.671875q0.578125 -0.5625 1.046875 -0.78125q0.484375 -0.21875 1.109375 -0.21875q0.515625 0 1.03125 0.265625q0.515625 0.25 1.015625 0.765625q0.625 -0.515625 1.25 -0.765625q0.6406555 -0.25 1.3125305 -0.25q1.34375 0 2.171875 0.703125q1.09375 0.9375 1.09375 2.46875l0 5.375q0.75 0 1.109375 0.34375q0.375 0.34375 0.375 0.859375q0 0.53125 -0.375 0.875q-0.359375 0.328125 -1.21875 0.328125l-2.28125 0l0 -7.578125q0 -0.5625 -0.203125 -0.765625q-0.203125 -0.21875 -0.609375 -0.21875q-0.40625 0 -0.734375 0.21875q-0.43753052 0.296875 -1.0625305 1.09375l0 4.84375q0.75 0 1.1094055 0.34375q0.375 0.34375 0.375 0.859375q0 0.53125 -0.375 0.875q-0.35940552 0.328125 -1.2187805 0.328125l-2.296875 0l0 -7.578125q0 -0.546875 -0.203125 -0.765625q-0.203125 -0.21875 -0.609375 -0.21875q-0.421875 0 -0.84375 0.265625q-0.40625 0.265625 -0.96875 1.046875l0 4.84375q0.75 0 1.109375 0.34375q0.375 0.34375 0.375 0.859375q0 0.53125 -0.375 0.875q-0.359375 0.328125 -1.234375 0.328125l-2.171875 0q-0.859375 0 -1.234375 -0.328125q-0.375 -0.34375 -0.375 -0.875q0 -0.53125 0.375 -0.859375q0.359375 -0.34375 1.125 -0.34375l0 -5.828125q-0.765625 0 -1.125 -0.34375q-0.375 -0.34375 -0.375 -0.875q0 -0.515625 0.375 -0.84375q0.375 -0.34375 1.234375 -0.34375l2.296875 0zm20.26175 10.640625l0 -0.5625q-0.890625 0.484375 -1.984375 0.71875q-1.09375 0.25 -1.984375 0.25q-1.9375 0 -3.140625 -1.03125q-1.203125 -1.03125 -1.203125 -2.265625q0 -1.515625 1.53125 -2.8125q1.546875 -1.296875 4.265625 -1.296875q1.09375 0 2.515625 0.234375l0 -0.578125q0 -0.53125 -0.46875 -0.875q-0.453125 -0.34375 -1.75 -0.34375q-1.0625 0 -2.765625 0.421875q-0.640625 0.15625 -0.984375 0.15625q-0.484375 0 -0.828125 -0.34375q-0.328125 -0.34375 -0.328125 -0.890625q0 -0.296875 0.109375 -0.515625q0.125 -0.234375 0.328125 -0.359375q0.21875 -0.140625 0.890625 -0.328125q0.890625 -0.25 1.8125 -0.390625q0.9375 -0.140625 1.6875 -0.140625q2.234375 0 3.46875 0.96875q1.234375 0.953125 1.234375 2.640625l0 4.9375l0.40625 0q0.875 0 1.234375 0.34375q0.375 0.328125 0.375 0.859375q0 0.53125 -0.375 0.875q-0.359375 0.328125 -1.234375 0.328125l-2.8125 0zm0 -4.296875q-1.4375 -0.28125 -2.65625 -0.28125q-1.46875 0 -2.515625 0.703125q-0.65625 0.46875 -0.65625 0.9375q0 0.328125 0.3125 0.546875q0.59375 0.390625 1.609375 0.390625q0.859375 0 1.953125 -0.34375q1.109375 -0.34375 1.953125 -0.921875l0 -1.03125zm13.105469 -10.90625l0 2.546875l-2.859375 0l0 -2.546875l2.859375 0zm0.328125 4.5625l0 8.234375l2.890625 0q0.859375 0 1.21875 0.34375q0.375 0.328125 0.375 0.859375q0 0.53125 -0.375 0.875q-0.359375 0.328125 -1.21875 0.328125l-8.171875 0q-0.875 0 -1.25 -0.328125q-0.359375 -0.34375 -0.359375 -0.875q0 -0.53125 0.359375 -0.859375q0.375 -0.34375 1.25 -0.34375l2.875 0l0 -5.828125l-1.921875 0q-0.859375 0 -1.234375 -0.328125q-0.375 -0.34375 -0.375 -0.890625q0 -0.515625 0.359375 -0.84375q0.375 -0.34375 1.25 -0.34375l4.328125 0zm10.777344 0l0 0.8125q0.65625 -0.5625 1.453125 -0.84375q0.796875 -0.28125 1.71875 -0.28125q2.125 0 3.375 1.3125q0.984375 1.0625 0.984375 2.765625l0 4.46875q0.765625 0 1.125 0.34375q0.359375 0.328125 0.359375 0.859375q0 0.53125 -0.375 0.875q-0.359375 0.328125 -1.234375 0.328125l-2.15625 0q-0.875 0 -1.25 -0.328125q-0.359375 -0.34375 -0.359375 -0.875q0 -0.53125 0.359375 -0.859375q0.359375 -0.34375 1.125 -0.34375l0 -4.53125q0 -0.78125 -0.421875 -1.15625q-0.546875 -0.46875 -1.65625 -0.46875q-0.828125 0 -1.453125 0.328125q-0.625 0.328125 -1.59375 1.359375l0 4.46875q0.9375 0 1.203125 0.171875q0.578125 0.359375 0.578125 1.03125q0 0.53125 -0.375 0.875q-0.375 0.328125 -1.234375 0.328125l-2.734375 0q-0.859375 0 -1.234375 -0.328125q-0.375 -0.34375 -0.375 -0.875q0 -0.65625 0.5625 -1.03125q0.28125 -0.171875 1.21875 -0.171875l0 -5.828125q-0.765625 0 -1.140625 -0.34375q-0.359375 -0.34375 -0.359375 -0.875q0 -0.515625 0.375 -0.84375q0.375 -0.34375 1.234375 -0.34375l2.28125 0zm15.980408 4.796875q0 -2.046875 0.671875 -4.140625q0.515625 -1.546875 1.5625 -3.453125q0.765625 -1.359375 1.125 -1.65625q0.359375 -0.3125 0.8125 -0.3125q0.515625 0 0.859375 0.359375q0.359375 0.34375 0.359375 0.828125q0 0.34375 -0.28125 0.8125q-1.265625 2.078125 -1.84375 3.890625q-0.578125 1.8125 -0.578125 3.671875q0 1.875 0.578125 3.703125q0.578125 1.8125 1.84375 3.890625q0.28125 0.453125 0.28125 0.8125q0 0.484375 -0.359375 0.828125q-0.34375 0.359375 -0.859375 0.359375q-0.4375 0 -0.765625 -0.28125q-0.46875 -0.40625 -1.234375 -1.84375q-1.125 -2.078125 -1.53125 -3.421875q-0.640625 -2.0625 -0.640625 -4.046875zm16.292969 0q0 2.0625 -0.6875 4.171875q-0.5 1.546875 -1.5625 3.4375q-0.75 1.359375 -1.125 1.671875q-0.359375 0.3125 -0.796875 0.3125q-0.515625 0 -0.875 -0.359375q-0.34375 -0.34375 -0.34375 -0.828125q0 -0.359375 0.28125 -0.8125q1.265625 -2.078125 1.84375 -3.890625q0.578125 -1.828125 0.578125 -3.703125q0 -1.859375 -0.578125 -3.671875q-0.578125 -1.8125 -1.84375 -3.890625q-0.28125 -0.46875 -0.28125 -0.8125q0 -0.484375 0.34375 -0.828125q0.359375 -0.359375 0.875 -0.359375q0.421875 0 0.75 0.28125q0.46875 0.390625 1.25 1.828125q1.109375 2.078125 1.515625 3.421875q0.65625 2.0625 0.65625 4.03125z" fill-rule="nonzero"></path><path fill="#000000" fill-opacity="0.0" d="m720.58795 19.551182l227.81097 0l0 301.16534l-227.81097 0z" fill-rule="nonzero"></path><path stroke="#ffffff" stroke-width="2.0" stroke-linejoin="round" stroke-linecap="butt" d="m720.58795 19.551182l227.81097 0l0 301.16534l-227.81097 0z" fill-rule="nonzero"></path><path fill="#000000" fill-opacity="0.0" d="m720.58795 19.551182l227.81097 0l0 50.582676l-227.81097 0z" fill-rule="nonzero"></path><path fill="#ffffff" d="m787.11334 37.741894l3.609375 0l1.09375 7.3125q0.140625 1.21875 0.296875 2.46875q0.171875 1.234375 0.3125 2.46875l0.109375 0q0.234375 -1.234375 0.453125 -2.46875q0.234375 -1.25 0.484375 -2.46875l1.671875 -7.3125l3.0 0l1.6875 7.3125q0.234375 1.203125 0.453125 2.4375q0.234375 1.234375 0.46875 2.5l0.109375 0q0.15625 -1.265625 0.3125 -2.484375q0.15625 -1.234375 0.328125 -2.453125l1.078125 -7.3125l3.390625 0l-2.78125 15.640625l-4.453125 0l-1.53125 -7.109375q-0.1875 -0.90625 -0.34375 -1.828125q-0.15625 -0.921875 -0.28125 -1.796875l-0.09375 0q-0.140625 0.875 -0.296875 1.796875q-0.15625 0.921875 -0.34375 1.828125l-1.46875 7.109375l-4.375 0l-2.890625 -15.640625zm20.027588 9.6875q0 -1.4375 0.484375 -2.59375q0.484375 -1.171875 1.265625 -1.96875q0.78125 -0.8125 1.78125 -1.234375q1.015625 -0.4375 2.09375 -0.4375q1.265625 0 2.203125 0.4375q0.953125 0.421875 1.59375 1.1875q0.640625 0.765625 0.953125 1.8125q0.3125 1.046875 0.3125 2.265625q0 0.484375 -0.046875 0.890625q-0.046875 0.390625 -0.09375 0.609375l-7.140625 0q0.25 1.359375 1.078125 1.96875q0.828125 0.609375 2.03125 0.609375q1.265625 0 2.5625 -0.78125l1.171875 2.125q-0.90625 0.625 -2.03125 0.984375q-1.109375 0.359375 -2.1875 0.359375q-1.28125 0 -2.390625 -0.40625q-1.09375 -0.421875 -1.90625 -1.21875q-0.8125 -0.8125 -1.28125 -1.96875q-0.453125 -1.15625 -0.453125 -2.640625zm7.6875 -1.21875q0 -1.03125 -0.46875 -1.671875q-0.453125 -0.65625 -1.53125 -0.65625q-0.828125 0 -1.46875 0.5625q-0.640625 0.5625 -0.828125 1.765625l4.296875 0zm5.447571 -9.65625l3.53125 0l0 4.125l-0.109375 1.828125q0.703125 -0.625 1.5 -0.96875q0.8125 -0.34375 1.65625 -0.34375q1.078125 0 1.9375 0.4375q0.859375 0.421875 1.46875 1.203125q0.625 0.78125 0.9375 1.90625q0.328125 1.109375 0.328125 2.46875q0 1.546875 -0.421875 2.75q-0.421875 1.1875 -1.125 2.015625q-0.703125 0.828125 -1.609375 1.265625q-0.890625 0.421875 -1.859375 0.421875q-0.78125 0 -1.59375 -0.375q-0.796875 -0.390625 -1.5 -1.15625l-0.09375 0l-0.296875 1.25l-2.75 0l0 -16.828125zm3.53125 13.46875q0.46875 0.4375 0.953125 0.609375q0.484375 0.15625 0.9375 0.15625q0.90625 0 1.546875 -0.828125q0.65625 -0.828125 0.65625 -2.671875q0 -3.21875 -2.0625 -3.21875q-1.046875 0 -2.03125 1.078125l0 4.875zm22.118958 -3.125l-0.359375 -1.4375q-0.328125 -1.171875 -0.640625 -2.484375q-0.3125 -1.328125 -0.625 -2.546875l-0.09375 0q-0.296875 1.234375 -0.59375 2.546875q-0.296875 1.3125 -0.640625 2.484375l-0.375 1.4375l3.328125 0zm0.71875 2.765625l-4.765625 0l-0.96875 3.71875l-3.59375 0l4.890625 -15.640625l4.25 0l4.890625 15.640625l-3.734375 0l-0.96875 -3.71875zm9.658203 4.65625l0 3.484375l-3.53125 0l0 -16.328125l2.875 0l0.25 1.171875l0.09375 0q0.6875 -0.625 1.5625 -1.03125q0.875 -0.421875 1.8125 -0.421875q1.078125 0 1.9375 0.4375q0.875 0.421875 1.46875 1.21875q0.609375 0.78125 0.921875 1.90625q0.328125 1.109375 0.328125 2.484375q0 1.53125 -0.421875 2.71875q-0.421875 1.1875 -1.125 2.015625q-0.703125 0.828125 -1.609375 1.265625q-0.890625 0.421875 -1.859375 0.421875q-0.765625 0 -1.484375 -0.3125q-0.71875 -0.328125 -1.34375 -0.921875l0.125 1.890625zm0 -4.296875q0.46875 0.4375 0.953125 0.609375q0.484375 0.15625 0.9375 0.15625q0.90625 0 1.546875 -0.828125q0.65625 -0.828125 0.65625 -2.671875q0 -3.21875 -2.0625 -3.21875q-1.03125 0 -2.03125 1.078125l0 4.875zm11.970703 -10.296875q-0.890625 0 -1.46875 -0.515625q-0.578125 -0.515625 -0.578125 -1.328125q0 -0.8125 0.578125 -1.3125q0.578125 -0.515625 1.46875 -0.515625q0.90625 0 1.46875 0.515625q0.578125 0.5 0.578125 1.3125q0 0.8125 -0.578125 1.328125q-0.5625 0.515625 -1.46875 0.515625zm-1.75 1.75l3.53125 0l0 11.90625l-3.53125 0l0 -11.90625zm7.1552124 8.328125q0.8125 0.625 1.546875 0.9375q0.75 0.3125 1.515625 0.3125q0.796875 0 1.15625 -0.265625q0.359375 -0.265625 0.359375 -0.75q0 -0.28125 -0.203125 -0.5q-0.203125 -0.234375 -0.5625 -0.421875q-0.34375 -0.203125 -0.78125 -0.359375q-0.421875 -0.15625 -0.875 -0.34375q-0.546875 -0.21875 -1.109375 -0.5q-0.546875 -0.296875 -1.0 -0.703125q-0.453125 -0.421875 -0.75 -0.984375q-0.28125 -0.578125 -0.28125 -1.3125q0 -0.8125 0.3125 -1.515625q0.328125 -0.703125 0.921875 -1.171875q0.609375 -0.484375 1.4375 -0.75q0.84375 -0.28125 1.875 -0.28125q1.375 0 2.40625 0.46875q1.03125 0.46875 1.796875 1.03125l-1.578125 2.125q-0.65625 -0.484375 -1.28125 -0.75q-0.609375 -0.265625 -1.234375 -0.265625q-1.34375 0 -1.34375 0.9375q0 0.28125 0.1875 0.5q0.1875 0.203125 0.515625 0.375q0.328125 0.15625 0.734375 0.3125q0.421875 0.15625 0.890625 0.328125q0.5625 0.21875 1.125 0.5q0.578125 0.265625 1.046875 0.671875q0.46875 0.40625 0.75 1.0q0.28125 0.578125 0.28125 1.40625q0 0.8125 -0.3125 1.515625q-0.296875 0.6875 -0.921875 1.203125q-0.625 0.515625 -1.546875 0.8125q-0.90625 0.296875 -2.109375 0.296875q-1.171875 0 -2.40625 -0.453125q-1.234375 -0.453125 -2.15625 -1.203125l1.59375 -2.203125z" fill-rule="nonzero"></path><path fill="#000000" fill-opacity="0.0" d="m437.26773 428.77692l511.11807 0l0 99.93701l-511.11807 0z" fill-rule="nonzero"></path><path stroke="#ffffff" stroke-width="2.0" stroke-linejoin="round" stroke-linecap="butt" d="m437.26773 428.77692l511.11807 0l0 99.93701l-511.11807 0z" fill-rule="nonzero"></path><path fill="#000000" fill-opacity="0.0" d="m312.71652 338.63647l233.19687 0l0 72.22049l-233.19687 0z" fill-rule="nonzero"></path><path fill="#ffffff" d="m371.7229 367.6461l9.796875 0l0 2.96875l-6.265625 0l0 3.140625l5.328125 0l0 2.953125l-5.328125 0l0 3.609375l6.5 0l0 2.96875l-10.03125 0l0 -15.640625zm11.589447 3.734375l3.5625 0l1.53125 5.625q0.234375 0.875 0.46875 1.8125q0.234375 0.921875 0.46875 1.859375l0.09375 0q0.21875 -0.9375 0.4375 -1.859375q0.234375 -0.9375 0.46875 -1.8125l1.5625 -5.625l3.390625 0l-3.890625 11.90625l-4.078125 0l-4.015625 -11.90625zm13.130096 5.953125q0 -1.4375 0.484375 -2.59375q0.484375 -1.171875 1.265625 -1.96875q0.78125 -0.8125 1.78125 -1.234375q1.015625 -0.4375 2.09375 -0.4375q1.265625 0 2.203125 0.4375q0.953125 0.421875 1.59375 1.1875q0.640625 0.765625 0.953125 1.8125q0.3125 1.046875 0.3125 2.265625q0 0.484375 -0.046875 0.890625q-0.046875 0.390625 -0.09375 0.609375l-7.140625 0q0.25 1.359375 1.078125 1.96875q0.828125 0.609375 2.03125 0.609375q1.265625 0 2.5625 -0.78125l1.171875 2.125q-0.90625 0.625 -2.03125 0.984375q-1.109375 0.359375 -2.1875 0.359375q-1.28125 0 -2.390625 -0.40625q-1.09375 -0.421875 -1.90625 -1.21875q-0.8125 -0.8125 -1.28125 -1.96875q-0.453125 -1.15625 -0.453125 -2.640625zm7.6875 -1.21875q0 -1.03125 -0.46875 -1.671875q-0.453125 -0.65625 -1.53125 -0.65625q-0.828125 0 -1.46875 0.5625q-0.640625 0.5625 -0.828125 1.765625l4.296875 0zm5.447571 -4.734375l2.875 0l0.25 1.515625l0.09375 0q0.765625 -0.71875 1.671875 -1.25q0.921875 -0.546875 2.140625 -0.546875q1.9375 0 2.8125 1.28125q0.875 1.265625 0.875 3.515625l0 7.390625l-3.515625 0l0 -6.9375q0 -1.296875 -0.359375 -1.765625q-0.34375 -0.484375 -1.109375 -0.484375q-0.671875 0 -1.15625 0.296875q-0.484375 0.296875 -1.046875 0.84375l0 8.046875l-3.53125 0l0 -11.90625zm14.212341 2.765625l-1.640625 0l0 -2.625l1.828125 -0.140625l0.40625 -3.171875l2.921875 0l0 3.171875l2.859375 0l0 2.765625l-2.859375 0l0 4.765625q0 1.015625 0.421875 1.46875q0.421875 0.4375 1.125 0.4375q0.28125 0 0.578125 -0.0625q0.296875 -0.078125 0.546875 -0.1875l0.546875 2.578125q-0.484375 0.140625 -1.125 0.28125q-0.640625 0.140625 -1.515625 0.140625q-1.09375 0 -1.875 -0.328125q-0.78125 -0.34375 -1.28125 -0.9375q-0.484375 -0.59375 -0.71875 -1.4375q-0.21875 -0.859375 -0.21875 -1.890625l0 -4.828125zm13.980835 -6.5l3.53125 0l0 12.671875l6.1875 0l0 2.96875l-9.71875 0l0 -15.640625zm11.447571 9.6875q0 -1.484375 0.484375 -2.640625q0.484375 -1.171875 1.28125 -1.96875q0.8125 -0.796875 1.859375 -1.203125q1.0625 -0.421875 2.1875 -0.421875q1.125 0 2.171875 0.421875q1.046875 0.40625 1.84375 1.203125q0.8125 0.796875 1.28125 1.96875q0.484375 1.15625 0.484375 2.640625q0 1.484375 -0.484375 2.65625q-0.46875 1.15625 -1.28125 1.953125q-0.796875 0.796875 -1.84375 1.21875q-1.046875 0.40625 -2.171875 0.40625q-1.125 0 -2.1875 -0.40625q-1.046875 -0.421875 -1.859375 -1.21875q-0.796875 -0.796875 -1.28125 -1.953125q-0.484375 -1.171875 -0.484375 -2.65625zm3.625 0q0 1.5625 0.53125 2.484375q0.546875 0.90625 1.65625 0.90625q1.078125 0 1.625 -0.90625q0.5625 -0.921875 0.5625 -2.484375q0 -1.5625 -0.5625 -2.46875q-0.546875 -0.921875 -1.625 -0.921875q-1.109375 0 -1.65625 0.921875q-0.53125 0.90625 -0.53125 2.46875zm9.694977 0q0 -1.484375 0.484375 -2.640625q0.484375 -1.171875 1.28125 -1.96875q0.8125 -0.796875 1.859375 -1.203125q1.0625 -0.421875 2.1875 -0.421875q1.125 0 2.171875 0.421875q1.046875 0.40625 1.84375 1.203125q0.8125 0.796875 1.28125 1.96875q0.484375 1.15625 0.484375 2.640625q0 1.484375 -0.484375 2.65625q-0.46875 1.15625 -1.28125 1.953125q-0.796875 0.796875 -1.84375 1.21875q-1.046875 0.40625 -2.171875 0.40625q-1.125 0 -2.1875 -0.40625q-1.046875 -0.421875 -1.859375 -1.21875q-0.796875 -0.796875 -1.28125 -1.953125q-0.484375 -1.171875 -0.484375 -2.65625zm3.625 0q0 1.5625 0.53125 2.484375q0.546875 0.90625 1.65625 0.90625q1.078125 0 1.625 -0.90625q0.5625 -0.921875 0.5625 -2.484375q0 -1.5625 -0.5625 -2.46875q-0.546875 -0.921875 -1.625 -0.921875q-1.109375 0 -1.65625 0.921875q-0.53125 0.90625 -0.53125 2.46875zm13.929321 6.890625l0 3.484375l-3.53125 0l0 -16.328125l2.875 0l0.25 1.171875l0.09375 0q0.6875 -0.625 1.5625 -1.03125q0.875 -0.421875 1.8125 -0.421875q1.078125 0 1.9375 0.4375q0.875 0.421875 1.46875 1.21875q0.609375 0.78125 0.921875 1.90625q0.328125 1.109375 0.328125 2.484375q0 1.53125 -0.421875 2.71875q-0.421875 1.1875 -1.125 2.015625q-0.703125 0.828125 -1.609375 1.265625q-0.890625 0.421875 -1.859375 0.421875q-0.765625 0 -1.484375 -0.3125q-0.71875 -0.328125 -1.34375 -0.921875l0.125 1.890625zm0 -4.296875q0.46875 0.4375 0.953125 0.609375q0.484375 0.15625 0.9375 0.15625q0.90625 0 1.546875 -0.828125q0.65625 -0.828125 0.65625 -2.671875q0 -3.21875 -2.0625 -3.21875q-1.03125 0 -2.03125 1.078125l0 4.875z" fill-rule="nonzero"></path><path fill="#000000" fill-opacity="0.0" d="m252.53806 442.63516l179.46457 0l0 72.22049l-179.46457 0z" fill-rule="nonzero"></path><path fill="#ffffff" d="m285.42114 474.61353l-4.296875 0l0 -2.96875l12.15625 0l0 2.96875l-4.296875 0l0 12.671875l-3.5625 0l0 -12.671875zm9.578339 9.359375q0 -1.875 1.578125 -2.921875q1.59375 -1.0625 5.125 -1.421875q-0.046875 -0.796875 -0.484375 -1.265625q-0.4375 -0.46875 -1.390625 -0.46875q-0.765625 0 -1.546875 0.296875q-0.765625 0.28125 -1.625 0.796875l-1.25 -2.328125q1.15625 -0.703125 2.40625 -1.125q1.265625 -0.4375 2.6875 -0.4375q2.296875 0 3.515625 1.3125q1.21875 1.296875 1.21875 4.0625l0 6.8125l-2.890625 0l-0.265625 -1.21875l-0.0625 0q-0.765625 0.671875 -1.625 1.09375q-0.859375 0.40625 -1.859375 0.40625q-0.8125 0 -1.46875 -0.28125q-0.640625 -0.265625 -1.109375 -0.75q-0.453125 -0.5 -0.703125 -1.140625q-0.25 -0.65625 -0.25 -1.421875zm3.359375 -0.265625q0 0.578125 0.375 0.859375q0.375 0.265625 1.0 0.265625q0.625 0 1.046875 -0.25q0.4375 -0.265625 0.921875 -0.75l0 -2.09375q-1.90625 0.265625 -2.625 0.78125q-0.71875 0.5 -0.71875 1.1875zm10.425354 0q0.8125 0.625 1.546875 0.9375q0.75 0.3125 1.515625 0.3125q0.796875 0 1.15625 -0.265625q0.359375 -0.265625 0.359375 -0.75q0 -0.28125 -0.203125 -0.5q-0.203125 -0.234375 -0.5625 -0.421875q-0.34375 -0.203125 -0.78125 -0.359375q-0.421875 -0.15625 -0.875 -0.34375q-0.546875 -0.21875 -1.109375 -0.5q-0.546875 -0.296875 -1.0 -0.703125q-0.453125 -0.421875 -0.75 -0.984375q-0.28125 -0.578125 -0.28125 -1.3125q0 -0.8125 0.3125 -1.515625q0.328125 -0.703125 0.921875 -1.171875q0.609375 -0.484375 1.4375 -0.75q0.84375 -0.28125 1.875 -0.28125q1.375 0 2.40625 0.46875q1.03125 0.46875 1.796875 1.03125l-1.578125 2.125q-0.65625 -0.484375 -1.28125 -0.75q-0.609375 -0.265625 -1.234375 -0.265625q-1.34375 0 -1.34375 0.9375q0 0.28125 0.1875 0.5q0.1875 0.203125 0.515625 0.375q0.328125 0.15625 0.734375 0.3125q0.421875 0.15625 0.890625 0.328125q0.5625 0.21875 1.125 0.5q0.578125 0.265625 1.046875 0.671875q0.46875 0.40625 0.75 1.0q0.28125 0.578125 0.28125 1.40625q0 0.8125 -0.3125 1.515625q-0.296875 0.6875 -0.921875 1.203125q-0.625 0.515625 -1.546875 0.8125q-0.90625 0.296875 -2.109375 0.296875q-1.171875 0 -2.40625 -0.453125q-1.234375 -0.453125 -2.15625 -1.203125l1.59375 -2.203125zm10.100708 -13.25l3.421875 0l0 9.65625l0.109375 0l3.765625 -4.734375l3.84375 0l-4.1875 4.890625l4.5 7.015625l-3.828125 0l-2.6875 -4.625l-1.515625 1.703125l0 2.921875l-3.421875 0l0 -16.828125zm21.315826 8.9375q0 2.515625 0.921875 3.90625q0.9375 1.390625 2.546875 1.390625q1.609375 0 2.546875 -1.390625q0.9375 -1.390625 0.9375 -3.90625q0 -2.359375 -0.9375 -3.671875q-0.9375 -1.328125 -2.546875 -1.328125q-1.609375 0 -2.546875 1.328125q-0.921875 1.3125 -0.921875 3.671875zm11.390625 11.65625q-0.421875 0.21875 -1.140625 0.359375q-0.703125 0.140625 -1.609375 0.140625q-2.5 0 -4.21875 -1.15625q-1.71875 -1.140625 -2.5625 -2.984375q-1.234375 -0.265625 -2.265625 -0.921875q-1.015625 -0.671875 -1.734375 -1.703125q-0.71875 -1.03125 -1.109375 -2.375q-0.375 -1.359375 -0.375 -3.015625q0 -1.921875 0.515625 -3.421875q0.515625 -1.5 1.453125 -2.515625q0.9375 -1.03125 2.234375 -1.5625q1.3125 -0.546875 2.890625 -0.546875q1.59375 0 2.890625 0.546875q1.3125 0.53125 2.25 1.5625q0.9375 1.03125 1.453125 2.53125q0.515625 1.5 0.515625 3.40625q0 3.15625 -1.34375 5.203125q-1.34375 2.046875 -3.625 2.6875q0.546875 0.8125 1.484375 1.140625q0.9375 0.328125 1.953125 0.328125q0.5 0 0.9375 -0.09375q0.453125 -0.078125 0.78125 -0.203125l0.625 2.59375zm1.7284546 -15.671875l3.53125 0l0 6.9375q0 1.296875 0.359375 1.78125q0.359375 0.46875 1.125 0.46875q0.671875 0 1.125 -0.3125q0.46875 -0.3125 0.984375 -1.0l0 -7.875l3.53125 0l0 11.90625l-2.875 0l-0.265625 -1.65625l-0.078125 0q-0.765625 0.90625 -1.640625 1.421875q-0.875 0.515625 -2.09375 0.515625q-1.953125 0 -2.828125 -1.265625q-0.875 -1.265625 -0.875 -3.53125l0 -7.390625zm13.053833 5.953125q0 -1.4375 0.484375 -2.59375q0.484375 -1.171875 1.265625 -1.96875q0.78125 -0.8125 1.78125 -1.234375q1.015625 -0.4375 2.09375 -0.4375q1.265625 0 2.203125 0.4375q0.953125 0.421875 1.59375 1.1875q0.640625 0.765625 0.953125 1.8125q0.3125 1.046875 0.3125 2.265625q0 0.484375 -0.046875 0.890625q-0.046875 0.390625 -0.09375 0.609375l-7.140625 0q0.25 1.359375 1.078125 1.96875q0.828125 0.609375 2.03125 0.609375q1.265625 0 2.5625 -0.78125l1.171875 2.125q-0.90625 0.625 -2.03125 0.984375q-1.109375 0.359375 -2.1875 0.359375q-1.28125 0 -2.390625 -0.40625q-1.09375 -0.421875 -1.90625 -1.21875q-0.8125 -0.8125 -1.28125 -1.96875q-0.453125 -1.15625 -0.453125 -2.640625zm7.6875 -1.21875q0 -1.03125 -0.46875 -1.671875q-0.453125 -0.65625 -1.53125 -0.65625q-0.828125 0 -1.46875 0.5625q-0.640625 0.5625 -0.828125 1.765625l4.296875 0zm5.3226013 -4.734375l3.53125 0l0 6.9375q0 1.296875 0.359375 1.78125q0.359375 0.46875 1.125 0.46875q0.671875 0 1.125 -0.3125q0.46875 -0.3125 0.984375 -1.0l0 -7.875l3.53125 0l0 11.90625l-2.875 0l-0.265625 -1.65625l-0.078125 0q-0.765625 0.90625 -1.640625 1.421875q-0.875 0.515625 -2.09375 0.515625q-1.953125 0 -2.828125 -1.265625q-0.875 -1.265625 -0.875 -3.53125l0 -7.390625zm13.053833 5.953125q0 -1.4375 0.484375 -2.59375q0.484375 -1.171875 1.265625 -1.96875q0.78125 -0.8125 1.78125 -1.234375q1.015625 -0.4375 2.09375 -0.4375q1.265625 0 2.203125 0.4375q0.953125 0.421875 1.59375 1.1875q0.640625 0.765625 0.953125 1.8125q0.3125 1.046875 0.3125 2.265625q0 0.484375 -0.046875 0.890625q-0.046875 0.390625 -0.09375 0.609375l-7.140625 0q0.25 1.359375 1.078125 1.96875q0.828125 0.609375 2.03125 0.609375q1.265625 0 2.5625 -0.78125l1.171875 2.125q-0.90625 0.625 -2.03125 0.984375q-1.109375 0.359375 -2.1875 0.359375q-1.28125 0 -2.390625 -0.40625q-1.09375 -0.421875 -1.90625 -1.21875q-0.8125 -0.8125 -1.28125 -1.96875q-0.453125 -1.15625 -0.453125 -2.640625zm7.6875 -1.21875q0 -1.03125 -0.46875 -1.671875q-0.453125 -0.65625 -1.53125 -0.65625q-0.828125 0 -1.46875 0.5625q-0.640625 0.5625 -0.828125 1.765625l4.296875 0z" fill-rule="nonzero"></path></g></svg>

