<?xml version="1.0" encoding="utf-8"?>
<!-- Generator: Adobe Illustrator 19.1.0, SVG Export Plug-In . SVG Version: 6.00 Build 0)  -->
<!DOCTYPE svg PUBLIC "-//W3C//DTD SVG 1.1//EN" "http://www.w3.org/Graphics/SVG/1.1/DTD/svg11.dtd">
<svg version="1.1" id="Ebene_1" xmlns="http://www.w3.org/2000/svg" xmlns:xlink="http://www.w3.org/1999/xlink" x="0px" y="0px"
	 viewBox="0 0 992.1 992.1" style="enable-background:new 0 0 992.1 992.1;" xml:space="preserve">
<style type="text/css">
	.st0{fill:#77CC22;}
	.st1{fill:#333333;}
	.st2{enable-background:new    ;}
	.st3{fill:#FFFFFF;}
	.st4{fill:none;stroke:#FFFFFF;stroke-width:27.4555;stroke-linejoin:round;}
	.st5{fill:none;stroke:#FFFFFC;stroke-width:18.3037;stroke-linejoin:round;}
	.st6{fill:none;stroke:#FFFFFF;stroke-width:18.3037;}
	.st7{fill:none;stroke:#FFFFFF;stroke-width:13.7277;stroke-linejoin:round;}
	.st8{fill:#FFFFFC;}
	.st9{fill:#FFFFFF;stroke:#FFFFFF;stroke-width:9.1518;}
</style>
<rect id="rect2985" x="28.8" y="22.5" class="st0" width="940.4" height="940.4">
</rect>
<path id="rect3755" class="st1" d="
	M501,22.7v430h88.9l10.5,510H969v-510V439V22.7H501z"/>
<g class="st2">
	<path class="st3" d="M54.1,874.1c0-9.9,1.4-18.5,4.3-25.9c2.9-7.4,6.7-13.5,11.4-18.4c4.7-4.9,10.2-8.5,16.3-11
		c6.2-2.4,12.5-3.7,18.9-3.7c15.1,0,26.6,4.7,34.6,14.1c8,9.4,12,23.7,12,42.9c0,0.9,0,2,0,3.3c0,1.4-0.1,2.6-0.2,3.8H75
		c0.9,11.6,4.2,20.4,10.1,26.5c5.9,6,15.1,9,27.5,9c7,0,12.9-0.6,17.7-1.8c4.8-1.2,8.4-2.4,10.9-3.5l2.8,16.8
		c-2.4,1.3-6.7,2.7-12.8,4.1c-6.1,1.4-13,2.1-20.8,2.1c-9.8,0-18.2-1.5-25.3-4.4c-7.1-2.9-12.9-7-17.5-12.2
		c-4.6-5.2-8-11.3-10.2-18.4C55.2,890.4,54.1,882.6,54.1,874.1z M130.9,863.2c0.1-9-2.1-16.5-6.8-22.3c-4.7-5.8-11.1-8.7-19.2-8.7
		c-4.6,0-8.6,0.9-12.2,2.7c-3.5,1.8-6.5,4.1-8.9,7c-2.4,2.9-4.3,6.2-5.7,9.9c-1.4,3.7-2.3,7.5-2.7,11.4H130.9z"/>
	<path class="st3" d="M180.6,821.2c4.6-1.1,10.7-2.4,18.3-3.7c7.6-1.3,16.3-1.9,26.2-1.9c8.9,0,16.3,1.3,22.2,3.8
		c5.9,2.5,10.6,6,14.1,10.5c3.5,4.5,6,9.9,7.4,16.2c1.4,6.3,2.2,13.3,2.2,20.9v62.8h-20v-58.5c0-6.9-0.5-12.8-1.4-17.6
		c-0.9-4.9-2.5-8.8-4.6-11.8c-2.2-3-5-5.2-8.6-6.6c-3.6-1.4-8-2-13.3-2c-2.2,0-4.4,0.1-6.7,0.2c-2.3,0.1-4.5,0.3-6.6,0.5
		c-2.1,0.2-3.9,0.5-5.6,0.8c-1.7,0.3-2.8,0.5-3.5,0.6v94.4h-20V821.2z"/>
	<path class="st3" d="M322.7,818h42.4v16.8h-42.4v51.6c0,5.6,0.4,10.2,1.3,13.9c0.9,3.7,2.2,6.5,3.9,8.6c1.7,2.1,3.9,3.5,6.5,4.4
		c2.6,0.9,5.6,1.3,9,1.3c6,0,10.9-0.7,14.5-2c3.7-1.4,6.2-2.3,7.6-2.9l3.9,16.6c-2,1-5.5,2.3-10.5,3.8c-5,1.5-10.8,2.3-17.2,2.3
		c-7.6,0-13.9-1-18.8-2.9c-4.9-1.9-8.9-4.8-11.9-8.7c-3-3.9-5.1-8.6-6.3-14.3c-1.2-5.7-1.8-12.2-1.8-19.7v-99.8l20-3.4V818z"/>
	<path class="st3" d="M382.1,874.1c0-9.9,1.4-18.5,4.3-25.9c2.9-7.4,6.7-13.5,11.4-18.4c4.7-4.9,10.2-8.5,16.3-11
		c6.2-2.4,12.5-3.7,18.9-3.7c15.1,0,26.6,4.7,34.6,14.1c8,9.4,12,23.7,12,42.9c0,0.9,0,2,0,3.3c0,1.4-0.1,2.6-0.2,3.8h-76.6
		c0.9,11.6,4.2,20.4,10.1,26.5c5.9,6,15.1,9,27.5,9c7,0,12.9-0.6,17.7-1.8c4.8-1.2,8.4-2.4,10.9-3.5l2.8,16.8
		c-2.4,1.3-6.7,2.7-12.8,4.1c-6.1,1.4-13,2.1-20.8,2.1c-9.8,0-18.2-1.5-25.3-4.4c-7.1-2.9-12.9-7-17.5-12.2
		c-4.6-5.2-8-11.3-10.2-18.4C383.2,890.4,382.1,882.6,382.1,874.1z M458.9,863.2c0.1-9-2.1-16.5-6.8-22.3
		c-4.7-5.8-11.1-8.7-19.2-8.7c-4.6,0-8.6,0.9-12.2,2.7c-3.5,1.8-6.5,4.1-8.9,7c-2.4,2.9-4.3,6.2-5.7,9.9c-1.4,3.7-2.3,7.5-2.7,11.4
		H458.9z"/>
	<path class="st3" d="M549.8,815.6c1.7,0,3.7,0.1,5.9,0.3c2.2,0.2,4.4,0.5,6.6,0.9c2.2,0.4,4.1,0.7,5.9,1.1c1.8,0.4,3.1,0.7,4,1
		l-3.4,17.4c-1.6-0.6-4.2-1.3-7.8-2c-3.7-0.8-8.4-1.2-14.1-1.2c-3.7,0-7.4,0.4-11.1,1.2c-3.7,0.8-6.1,1.3-7.2,1.6v94h-20V822.7
		c4.7-1.7,10.6-3.3,17.6-4.8C533.2,816.4,541.1,815.6,549.8,815.6z"/>
</g>
<path id="rect3897" class="st4" d="M79.4,14.6h839.1
	c32.3,0,58.6,26.2,58.6,58.6v839.1c0,32.3-26.2,58.6-58.6,58.6H79.4c-32.3,0-58.6-26.2-58.6-58.6V73.2
	C20.9,40.8,47.1,14.6,79.4,14.6z"/>
<path id="path5556" class="st5" d="M782.1,352.6l-31.6-18.2L719,316.1
	l31.6-18.2l31.6-18.2"/>
<path id="rect5162" class="st6" d="M835.7,240.1h27
	c12.7,0,22.9,10.2,22.9,22.9v30.3c0,12.7-10.2,22.9-22.9,22.9H724.1"/>
<path id="rect3848" class="st7" d="M564.8,453.1h-46
	c-9.5,0-17.2-7.7-17.2-17.2V25.9"/>
<path id="path3853" class="st7" d="M534.1,453.2h46
	c9.5,0,17.2,7.7,17.2,17.2v489.3"/>
<g class="st2">
	<path class="st8" d="M756.3,852.8c0,10.5-1.1,20.3-3.4,29.3c-2.3,9.1-6.2,17-11.9,23.8c-5.7,6.8-13.3,12.2-22.9,16.1
		c-9.6,3.9-21.7,5.9-36.3,5.9c-13.6,0-25.4-1.9-35.4-5.7c-10-3.8-17.7-7.9-23-12.2l13.9-30.6c5.1,3.5,11.5,6.8,19,10
		c7.5,3.2,15.2,4.8,23,4.8c13.2,0,22.8-3.3,28.7-9.9c6-6.6,9-17.9,9-34V709.2h39.2V852.8z"/>
	<path class="st8" d="M857.9,894.2c14,0,24.2-2.4,30.6-7.1c6.4-4.7,9.6-11.4,9.6-20.1c0-5.1-1.1-9.6-3.2-13.3
		c-2.2-3.7-5.3-7.1-9.3-10c-4-3-8.9-5.8-14.7-8.3c-5.8-2.6-12.4-5.1-19.8-7.6c-7.4-2.7-14.6-5.6-21.5-8.8c-6.9-3.2-13-7.2-18.2-11.9
		c-5.3-4.7-9.5-10.4-12.7-17c-3.2-6.6-4.8-14.5-4.8-23.8c0-19.4,6.7-34.5,20.1-45.6c13.4-11,31.6-16.5,54.7-16.5
		c13.4,0,25.3,1.5,35.7,4.5c10.4,3,18.6,6.2,24.6,9.7l-12,31.5c-7-3.9-14.7-6.9-23-9c-8.3-2.1-16.9-3.1-25.8-3.1
		c-10.5,0-18.7,2.2-24.6,6.5c-5.9,4.3-8.8,10.4-8.8,18.2c0,4.7,1,8.8,2.9,12.2c2,3.4,4.7,6.4,8.3,9.1c3.6,2.7,7.8,5.1,12.7,7.4
		c4.8,2.3,10.1,4.4,15.9,6.5c10.1,3.7,19.1,7.5,27,11.3c7.9,3.8,14.6,8.3,20.1,13.6c5.5,5.3,9.6,11.4,12.5,18.5
		c2.9,7.1,4.3,15.7,4.3,25.8c0,19.4-6.8,34.3-20.5,44.9c-13.7,10.6-33.7,15.9-60.1,15.9c-8.9,0-16.9-0.6-24.2-1.7
		c-7.3-1.1-13.8-2.5-19.5-4.2c-5.7-1.6-10.6-3.3-14.7-5.1c-4.1-1.7-7.4-3.3-9.9-4.8l11.4-31.8c5.6,3.1,13.1,6.2,22.5,9.3
		C833.1,892.6,844.5,894.2,857.9,894.2z"/>
</g>
<g class="st2">
	<path class="st9" d="M756.3,852.8c0,10.5-1.1,20.3-3.4,29.3c-2.3,9.1-6.2,17-11.9,23.8c-5.7,6.8-13.3,12.2-22.9,16.1
		c-9.6,3.9-21.7,5.9-36.3,5.9c-13.6,0-25.4-1.9-35.4-5.7c-10-3.8-17.7-7.9-23-12.2l13.9-30.6c5.1,3.5,11.5,6.8,19,10
		c7.5,3.2,15.2,4.8,23,4.8c13.2,0,22.8-3.3,28.7-9.9c6-6.6,9-17.9,9-34V709.2h39.2V852.8z"/>
	<path class="st9" d="M857.9,894.2c14,0,24.2-2.4,30.6-7.1c6.4-4.7,9.6-11.4,9.6-20.1c0-5.1-1.1-9.6-3.2-13.3
		c-2.2-3.7-5.3-7.1-9.3-10c-4-3-8.9-5.8-14.7-8.3c-5.8-2.6-12.4-5.1-19.8-7.6c-7.4-2.7-14.6-5.6-21.5-8.8c-6.9-3.2-13-7.2-18.2-11.9
		c-5.3-4.7-9.5-10.4-12.7-17c-3.2-6.6-4.8-14.5-4.8-23.8c0-19.4,6.7-34.5,20.1-45.6c13.4-11,31.6-16.5,54.7-16.5
		c13.4,0,25.3,1.5,35.7,4.5c10.4,3,18.6,6.2,24.6,9.7l-12,31.5c-7-3.9-14.7-6.9-23-9c-8.3-2.1-16.9-3.1-25.8-3.1
		c-10.5,0-18.7,2.2-24.6,6.5c-5.9,4.3-8.8,10.4-8.8,18.2c0,4.7,1,8.8,2.9,12.2c2,3.4,4.7,6.4,8.3,9.1c3.6,2.7,7.8,5.1,12.7,7.4
		c4.8,2.3,10.1,4.4,15.9,6.5c10.1,3.7,19.1,7.5,27,11.3c7.9,3.8,14.6,8.3,20.1,13.6c5.5,5.3,9.6,11.4,12.5,18.5
		c2.9,7.1,4.3,15.7,4.3,25.8c0,19.4-6.8,34.3-20.5,44.9c-13.7,10.6-33.7,15.9-60.1,15.9c-8.9,0-16.9-0.6-24.2-1.7
		c-7.3-1.1-13.8-2.5-19.5-4.2c-5.7-1.6-10.6-3.3-14.7-5.1c-4.1-1.7-7.4-3.3-9.9-4.8l11.4-31.8c5.6,3.1,13.1,6.2,22.5,9.3
		C833.1,892.6,844.5,894.2,857.9,894.2z"/>
</g>
</svg>
