<?xml version="1.0" standalone="yes"?>

<svg version="1.1" viewBox="0.0 0.0 960.0 720.0" fill="none" stroke="none" stroke-linecap="square" stroke-miterlimit="10" xmlns="http://www.w3.org/2000/svg" xmlns:xlink="http://www.w3.org/1999/xlink"><clipPath id="p.0"><path d="m0 0l960.0 0l0 720.0l-960.0 0l0 -720.0z" clip-rule="nonzero"></path></clipPath><g clip-path="url(#p.0)"><path fill="#000000" fill-opacity="0.0" d="m0 0l960.0 0l0 720.0l-960.0 0z" fill-rule="nonzero"></path><path fill="#ffffff" d="m347.82678 111.045074l0 0c0 -12.660759 10.26358 -22.92434 22.924347 -22.92434l218.49777 0c6.079895 0 11.910767 2.4152374 16.20996 6.714386c4.2991333 4.2991486 6.7143555 10.130043 6.7143555 16.209953l0 91.694626c0 12.660767 -10.26355 22.924347 -22.924316 22.924347l-218.49777 0c-12.660767 0 -22.924347 -10.26358 -22.924347 -22.924347z" fill-rule="nonzero"></path><path stroke="#ffffff" stroke-width="4.0" stroke-linejoin="round" stroke-linecap="butt" d="m347.82678 111.045074l0 0c0 -12.660759 10.26358 -22.92434 22.924347 -22.92434l218.49777 0c6.079895 0 11.910767 2.4152374 16.20996 6.714386c4.2991333 4.2991486 6.7143555 10.130043 6.7143555 16.209953l0 91.694626c0 12.660767 -10.26355 22.924347 -22.924316 22.924347l-218.49777 0c-12.660767 0 -22.924347 -10.26358 -22.924347 -22.924347z" fill-rule="nonzero"></path><path fill="#ffffff" d="m347.82678 450.50964l0 0c0 -12.660767 10.26358 -22.924347 22.924347 -22.924347l218.49777 0c6.079895 0 11.910767 2.4152527 16.20996 6.714386c4.2991333 4.299164 6.7143555 10.130035 6.7143555 16.20996l0 91.69464c0 12.660767 -10.26355 22.924316 -22.924316 22.924316l-218.49777 0c-12.660767 0 -22.924347 -10.26355 -22.924347 -22.924316z" fill-rule="nonzero"></path><path stroke="#ffffff" stroke-width="4.0" stroke-linejoin="round" stroke-linecap="butt" d="m347.82678 450.50964l0 0c0 -12.660767 10.26358 -22.924347 22.924347 -22.924347l218.49777 0c6.079895 0 11.910767 2.4152527 16.20996 6.714386c4.2991333 4.299164 6.7143555 10.130035 6.7143555 16.20996l0 91.69464c0 12.660767 -10.26355 22.924316 -22.924316 22.924316l-218.49777 0c-12.660767 0 -22.924347 -10.26355 -22.924347 -22.924316z" fill-rule="nonzero"></path><path fill="#000000" fill-opacity="0.0" d="m347.82678 120.78215l264.34644 0l0 72.220474l-264.34644 0z" fill-rule="nonzero"></path><path fill="#0c4eb2" d="m409.9891 147.75302l4.984375 0l2.5 9.71875q0.484375 1.734375 0.84375 3.359375q0.375 1.609375 0.84375 3.328125l0.140625 0q0.4375 -1.71875 0.8125 -3.328125q0.390625 -1.625 0.84375 -3.359375l2.46875 -9.71875l4.796875 0l-6.265625 20.859375l-5.671875 0l-6.296875 -20.859375zm19.479523 10.5625q0 -2.59375 0.796875 -4.625q0.8125 -2.03125 2.171875 -3.4375q1.359375 -1.421875 3.15625 -2.15625q1.8125 -0.734375 3.828125 -0.734375q1.953125 0 3.53125 0.828125q1.59375 0.8125 2.640625 1.890625l-2.578125 2.921875q-0.8125 -0.75 -1.625 -1.15625q-0.8125 -0.421875 -1.90625 -0.421875q-1.078125 0 -2.03125 0.46875q-0.9375 0.46875 -1.640625 1.328125q-0.703125 0.859375 -1.109375 2.109375q-0.40625 1.25 -0.40625 2.8125q0 3.234375 1.375 5.015625q1.390625 1.765625 3.6875 1.765625q1.28125 0 2.234375 -0.5q0.96875 -0.515625 1.734375 -1.34375l2.59375 2.84375q-1.3125 1.53125 -3.0 2.3125q-1.671875 0.765625 -3.625 0.765625q-2.015625 0 -3.8125 -0.6875q-1.78125 -0.6875 -3.125 -2.03125q-1.34375 -1.359375 -2.125 -3.359375q-0.765625 -2.0 -0.765625 -4.609375zm18.655304 5.875q0 -2.484375 2.109375 -3.890625q2.125 -1.421875 6.828125 -1.890625q-0.0625 -1.0625 -0.640625 -1.6875q-0.578125 -0.625 -1.859375 -0.625q-1.03125 0 -2.0625 0.390625q-1.015625 0.375 -2.15625 1.046875l-1.671875 -3.09375q1.53125 -0.9375 3.203125 -1.5q1.6875 -0.578125 3.578125 -0.578125q3.078125 0 4.6875 1.75q1.625 1.734375 1.625 5.40625l0 9.09375l-3.84375 0l-0.359375 -1.625l-0.09375 0q-1.015625 0.890625 -2.15625 1.453125q-1.140625 0.5625 -2.484375 0.5625q-1.078125 0 -1.953125 -0.375q-0.859375 -0.375 -1.46875 -1.015625q-0.609375 -0.65625 -0.953125 -1.515625q-0.328125 -0.875 -0.328125 -1.90625zm4.484375 -0.34375q0 0.765625 0.484375 1.140625q0.5 0.359375 1.34375 0.359375q0.828125 0 1.40625 -0.34375q0.578125 -0.359375 1.21875 -1.0l0 -2.78125q-2.53125 0.34375 -3.5 1.015625q-0.953125 0.671875 -0.953125 1.609375zm13.181763 -11.109375l3.84375 0l0.3125 2.78125l0.140625 0q0.859375 -1.625 2.0625 -2.390625q1.21875 -0.765625 2.4375 -0.765625q0.671875 0 1.109375 0.078125q0.4375 0.078125 0.78125 0.234375l-0.765625 4.0625q-0.453125 -0.125 -0.84375 -0.1875q-0.375 -0.0625 -0.890625 -0.0625q-0.890625 0 -1.875 0.640625q-0.96875 0.640625 -1.609375 2.265625l0 9.21875l-4.703125 0l0 -15.875zm11.907898 7.9375q0 -1.953125 0.5625 -3.484375q0.5625 -1.53125 1.46875 -2.609375q0.90625 -1.078125 2.109375 -1.640625q1.203125 -0.578125 2.453125 -0.578125q1.34375 0 2.203125 0.453125q0.859375 0.4375 1.703125 1.203125l-0.203125 -2.4375l0 -5.40625l4.703125 0l0 22.4375l-3.828125 0l-0.328125 -1.5625l-0.125 0q-0.828125 0.828125 -1.953125 1.390625q-1.125 0.5625 -2.265625 0.5625q-1.484375 0 -2.6875 -0.578125q-1.1875 -0.578125 -2.046875 -1.640625q-0.84375 -1.078125 -1.3125 -2.609375q-0.453125 -1.546875 -0.453125 -3.5zm4.828125 -0.0625q0 2.375 0.75 3.46875q0.75 1.078125 2.125 1.078125q0.78125 0 1.390625 -0.3125q0.625 -0.328125 1.203125 -1.125l0 -6.5q-0.640625 -0.578125 -1.3125 -0.796875q-0.671875 -0.234375 -1.3125 -0.234375q-1.109375 0 -1.984375 1.078125q-0.859375 1.078125 -0.859375 3.34375zm23.55481 -0.640625l-0.484375 -1.921875q-0.4375 -1.5625 -0.859375 -3.3125q-0.421875 -1.765625 -0.828125 -3.40625l-0.140625 0q-0.375 1.671875 -0.78125 3.421875q-0.390625 1.734375 -0.84375 3.296875l-0.515625 1.921875l4.453125 0zm0.953125 3.6875l-6.359375 0l-1.28125 4.953125l-4.796875 0l6.53125 -20.859375l5.65625 0l6.5312195 20.859375l-4.9999695 0l-1.28125 -4.953125zm12.867279 6.203125l0 4.640625l-4.703125 0l0 -21.765625l3.84375 0l0.3125 1.578125l0.140625 0q0.921875 -0.84375 2.078125 -1.390625q1.171875 -0.5625 2.421875 -0.5625q1.4375 0 2.59375 0.578125q1.15625 0.5625 1.953125 1.625q0.796875 1.0625 1.234375 2.546875q0.4375 1.484375 0.4375 3.3125q0 2.046875 -0.5625 3.640625q-0.5625 1.578125 -1.515625 2.6875q-0.9375 1.09375 -2.140625 1.671875q-1.1875 0.578125 -2.46875 0.578125q-1.03125 0 -2.0 -0.4375q-0.953125 -0.4375 -1.78125 -1.234375l0.15625 2.53125zm0 -5.734375q0.640625 0.578125 1.28125 0.8125q0.640625 0.21875 1.25 0.21875q1.21875 0 2.078125 -1.09375q0.859375 -1.109375 0.859375 -3.578125q0 -4.296875 -2.75 -4.296875q-1.375 0 -2.71875 1.453125l0 6.484375zm18.33606 5.734375l0 4.640625l-4.703125 0l0 -21.765625l3.84375 0l0.3125 1.578125l0.140625 0q0.921875 -0.84375 2.078125 -1.390625q1.171875 -0.5625 2.421875 -0.5625q1.4375 0 2.59375 0.578125q1.15625 0.5625 1.953125 1.625q0.796875 1.0625 1.234375 2.546875q0.4375 1.484375 0.4375 3.3125q0 2.046875 -0.5625 3.640625q-0.5625 1.578125 -1.515625 2.6875q-0.9375 1.09375 -2.140625 1.671875q-1.1875 0.578125 -2.46875 0.578125q-1.03125 0 -2.0 -0.4375q-0.953125 -0.4375 -1.78125 -1.234375l0.15625 2.53125zm0 -5.734375q0.640625 0.578125 1.28125 0.8125q0.640625 0.21875 1.25 0.21875q1.21875 0 2.078125 -1.09375q0.859375 -1.109375 0.859375 -3.578125q0 -4.296875 -2.75 -4.296875q-1.375 0 -2.71875 1.453125l0 6.484375z" fill-rule="nonzero"></path><path fill="#000000" fill-opacity="0.0" d="m347.82678 460.2467l264.34644 0l0 72.22046l-264.34644 0z" fill-rule="nonzero"></path><path fill="#0c4eb2" d="m405.3011 487.2176l4.984375 0l2.5 9.71875q0.484375 1.734375 0.84375 3.359375q0.375 1.609375 0.84375 3.328125l0.140625 0q0.4375 -1.71875 0.8125 -3.328125q0.390625 -1.625 0.84375 -3.359375l2.46875 -9.71875l4.796875 0l-6.265625 20.859375l-5.671875 0l-6.296875 -20.859375zm19.479553 10.5625q0 -2.59375 0.796875 -4.625q0.8125 -2.03125 2.171875 -3.4375q1.359375 -1.421875 3.15625 -2.15625q1.8125 -0.734375 3.828125 -0.734375q1.953125 0 3.53125 0.828125q1.59375 0.8125 2.640625 1.890625l-2.578125 2.921875q-0.8125 -0.75 -1.625 -1.15625q-0.8125 -0.421875 -1.90625 -0.421875q-1.078125 0 -2.03125 0.46875q-0.9375 0.46875 -1.640625 1.328125q-0.703125 0.859375 -1.109375 2.109375q-0.40625 1.25 -0.40625 2.8125q0 3.234375 1.375 5.015625q1.390625 1.765625 3.6875 1.765625q1.28125 0 2.234375 -0.5q0.96875 -0.515625 1.734375 -1.34375l2.59375 2.84375q-1.3125 1.53125 -3.0 2.3125q-1.671875 0.765625 -3.625 0.765625q-2.015625 0 -3.8125 -0.6875q-1.78125 -0.6875 -3.125 -2.03125q-1.34375 -1.359375 -2.125 -3.359375q-0.765625 -2.0 -0.765625 -4.609375zm18.655273 5.875q0 -2.484375 2.109375 -3.890625q2.125 -1.421875 6.828125 -1.890625q-0.0625 -1.0625 -0.640625 -1.6875q-0.578125 -0.625 -1.859375 -0.625q-1.03125 0 -2.0625 0.390625q-1.015625 0.375 -2.15625 1.046875l-1.671875 -3.09375q1.53125 -0.9375 3.203125 -1.5q1.6875 -0.578125 3.578125 -0.578125q3.078125 0 4.6875 1.75q1.625 1.734375 1.625 5.40625l0 9.09375l-3.84375 0l-0.359375 -1.625l-0.09375 0q-1.015625 0.890625 -2.15625 1.453125q-1.140625 0.5625 -2.484375 0.5625q-1.078125 0 -1.953125 -0.375q-0.859375 -0.375 -1.46875 -1.015625q-0.609375 -0.65625 -0.953125 -1.515625q-0.328125 -0.875 -0.328125 -1.90625zm4.484375 -0.34375q0 0.765625 0.484375 1.140625q0.5 0.359375 1.34375 0.359375q0.828125 0 1.40625 -0.34375q0.578125 -0.359375 1.21875 -1.0l0 -2.78125q-2.53125 0.34375 -3.5 1.015625q-0.953125 0.671875 -0.953125 1.609375zm13.181793 -11.109375l3.84375 0l0.3125 2.78125l0.140625 0q0.859375 -1.625 2.0625 -2.390625q1.21875 -0.765625 2.4375 -0.765625q0.671875 0 1.109375 0.078125q0.4375 0.078125 0.78125 0.234375l-0.765625 4.0625q-0.453125 -0.125 -0.84375 -0.1875q-0.375 -0.0625 -0.890625 -0.0625q-0.890625 0 -1.875 0.640625q-0.96875 0.640625 -1.609375 2.265625l0 9.21875l-4.703125 0l0 -15.875zm11.907898 7.9375q0 -1.953125 0.5625 -3.484375q0.5625 -1.53125 1.46875 -2.609375q0.90625 -1.078125 2.109375 -1.640625q1.203125 -0.578125 2.453125 -0.578125q1.34375 0 2.203125 0.453125q0.859375 0.4375 1.703125 1.203125l-0.203125 -2.4375l0 -5.40625l4.703125 0l0 22.4375l-3.828125 0l-0.328125 -1.5625l-0.125 0q-0.828125 0.828125 -1.953125 1.390625q-1.125 0.5625 -2.265625 0.5625q-1.484375 0 -2.6875 -0.578125q-1.1875 -0.578125 -2.046875 -1.640625q-0.84375 -1.078125 -1.3125 -2.609375q-0.453125 -1.546875 -0.453125 -3.5zm4.828125 -0.0625q0 2.375 0.75 3.46875q0.75 1.078125 2.125 1.078125q0.78125 0 1.390625 -0.3125q0.625 -0.328125 1.203125 -1.125l0 -6.5q-0.640625 -0.578125 -1.3125 -0.796875q-0.671875 -0.234375 -1.3125 -0.234375q-1.109375 0 -1.984375 1.078125q-0.859375 1.078125 -0.859375 3.34375zm13.726654 -2.296875q0 -2.59375 0.796875 -4.625q0.8125 -2.03125 2.171875 -3.4375q1.359375 -1.421875 3.15625 -2.15625q1.8125 -0.734375 3.828125 -0.734375q1.953125 0 3.53125 0.828125q1.59375 0.8125 2.640625 1.890625l-2.578125 2.921875q-0.8125 -0.75 -1.625 -1.15625q-0.8125 -0.421875 -1.90625 -0.421875q-1.078125 0 -2.03125 0.46875q-0.9375 0.46875 -1.640625 1.328125q-0.703125 0.859375 -1.109375 2.109375q-0.40625 1.25 -0.40625 2.8125q0 3.234375 1.375 5.015625q1.390625 1.765625 3.6875 1.765625q1.28125 0 2.234375 -0.5q0.96875 -0.515625 1.734375 -1.34375l2.59375 2.84375q-1.3125 1.53125 -3.0 2.3125q-1.671875 0.765625 -3.625 0.765625q-2.015625 0 -3.8125 -0.6875q-1.78125 -0.6875 -3.125 -2.03125q-1.34375 -1.359375 -2.125 -3.359375q-0.765625 -2.0 -0.765625 -4.609375zm19.233429 -5.578125l3.8437195 0l0.3125 2.046875l0.140625 0q0.984375 -0.984375 2.09375 -1.703125q1.125 -0.71875 2.703125 -0.71875q1.6875 0 2.71875 0.6875q1.046875 0.6875 1.65625 1.96875q1.0625 -1.09375 2.21875 -1.875q1.171875 -0.78125 2.78125 -0.78125q2.5625 0 3.75 1.71875q1.203125 1.703125 1.203125 4.671875l0 9.859375l-4.703125 0l0 -9.25q0 -1.71875 -0.46875 -2.359375q-0.453125 -0.640625 -1.484375 -0.640625q-1.1875 0 -2.71875 1.53125l0 10.71875l-4.703125 0l0 -9.25q0 -1.71875 -0.46875 -2.359375q-0.453125 -0.640625 -1.484375 -0.640625q-1.21875 0 -2.6875 1.53125l0 10.71875l-4.7030945 0l0 -15.875zm32.127167 17.125l0 4.640625l-4.703125 0l0 -21.765625l3.84375 0l0.3125 1.578125l0.140625 0q0.921875 -0.84375 2.078125 -1.390625q1.171875 -0.5625 2.421875 -0.5625q1.4375 0 2.59375 0.578125q1.15625 0.5625 1.953125 1.625q0.796875 1.0625 1.234375 2.546875q0.4375 1.484375 0.4375 3.3125q0 2.046875 -0.5625 3.640625q-0.5625 1.578125 -1.515625 2.6875q-0.9375 1.09375 -2.140625 1.671875q-1.1875 0.578125 -2.46875 0.578125q-1.03125 0 -2.0 -0.4375q-0.953125 -0.4375 -1.78125 -1.234375l0.15625 2.53125zm0 -5.734375q0.640625 0.578125 1.28125 0.8125q0.640625 0.21875 1.25 0.21875q1.21875 0 2.078125 -1.09375q0.859375 -1.109375 0.859375 -3.578125q0 -4.296875 -2.75 -4.296875q-1.375 0 -2.71875 1.453125l0 6.484375z" fill-rule="nonzero"></path><path fill="#000000" fill-opacity="0.0" d="m480.0 225.66405l0 201.92125" fill-rule="nonzero"></path><path stroke="#ffffff" stroke-width="4.0" stroke-linejoin="round" stroke-linecap="butt" d="m480.0 225.66405l0 201.92125" fill-rule="nonzero"></path></g></svg>

