<?xml version="1.0" standalone="yes"?>

<svg version="1.1" viewBox="0.0 0.0 960.0 720.0" fill="none" stroke="none" stroke-linecap="square" stroke-miterlimit="10" xmlns="http://www.w3.org/2000/svg" xmlns:xlink="http://www.w3.org/1999/xlink"><clipPath id="p.0"><path d="m0 0l960.0 0l0 720.0l-960.0 0l0 -720.0z" clip-rule="nonzero"></path></clipPath><g clip-path="url(#p.0)"><path fill="#000000" fill-opacity="0.0" d="m0 0l960.0 0l0 720.0l-960.0 0z" fill-rule="nonzero"></path><path fill="#e2272a" d="m347.82678 111.045074l0 0c0 -12.660759 10.26358 -22.92434 22.924347 -22.92434l218.49777 0c6.079895 0 11.910767 2.4152374 16.20996 6.714386c4.2991333 4.2991486 6.7143555 10.130043 6.7143555 16.209953l0 91.694626c0 12.660767 -10.26355 22.924332 -22.924316 22.924332l-218.49777 0c-12.660767 0 -22.924347 -10.263565 -22.924347 -22.924332z" fill-rule="nonzero"></path><path stroke="#ffffff" stroke-width="4.0" stroke-linejoin="round" stroke-linecap="butt" d="m347.82678 111.045074l0 0c0 -12.660759 10.26358 -22.92434 22.924347 -22.92434l218.49777 0c6.079895 0 11.910767 2.4152374 16.20996 6.714386c4.2991333 4.2991486 6.7143555 10.130043 6.7143555 16.209953l0 91.694626c0 12.660767 -10.26355 22.924332 -22.924316 22.924332l-218.49777 0c-12.660767 0 -22.924347 -10.263565 -22.924347 -22.924332z" fill-rule="nonzero"></path><path fill="#ffffff" d="m347.82678 450.50964l0 0c0 -12.660767 10.26358 -22.924347 22.924347 -22.924347l218.49777 0c6.079895 0 11.910767 2.4152527 16.20996 6.714386c4.2991333 4.299164 6.7143555 10.130035 6.7143555 16.20996l0 91.69464c0 12.660767 -10.26355 22.924316 -22.924316 22.924316l-218.49777 0c-12.660767 0 -22.924347 -10.26355 -22.924347 -22.924316z" fill-rule="nonzero"></path><path stroke="#ffffff" stroke-width="4.0" stroke-linejoin="round" stroke-linecap="butt" d="m347.82678 450.50964l0 0c0 -12.660767 10.26358 -22.924347 22.924347 -22.924347l218.49777 0c6.079895 0 11.910767 2.4152527 16.20996 6.714386c4.2991333 4.299164 6.7143555 10.130035 6.7143555 16.20996l0 91.69464c0 12.660767 -10.26355 22.924316 -22.924316 22.924316l-218.49777 0c-12.660767 0 -22.924347 -10.26355 -22.924347 -22.924316z" fill-rule="nonzero"></path><path fill="#000000" fill-opacity="0.0" d="m347.82678 120.78215l264.34644 0l0 72.220474l-264.34644 0z" fill-rule="nonzero"></path><path fill="#ffffff" d="m409.9891 147.75302l4.984375 0l2.5 9.71875q0.484375 1.734375 0.84375 3.359375q0.375 1.609375 0.84375 3.328125l0.140625 0q0.4375 -1.71875 0.8125 -3.328125q0.390625 -1.625 0.84375 -3.359375l2.46875 -9.71875l4.796875 0l-6.265625 20.859375l-5.671875 0l-6.296875 -20.859375zm19.479523 10.5625q0 -2.59375 0.796875 -4.625q0.8125 -2.03125 2.171875 -3.4375q1.359375 -1.421875 3.15625 -2.15625q1.8125 -0.734375 3.828125 -0.734375q1.953125 0 3.53125 0.828125q1.59375 0.8125 2.640625 1.890625l-2.578125 2.921875q-0.8125 -0.75 -1.625 -1.15625q-0.8125 -0.421875 -1.90625 -0.421875q-1.078125 0 -2.03125 0.46875q-0.9375 0.46875 -1.640625 1.328125q-0.703125 0.859375 -1.109375 2.109375q-0.40625 1.25 -0.40625 2.8125q0 3.234375 1.375 5.015625q1.390625 1.765625 3.6875 1.765625q1.28125 0 2.234375 -0.5q0.96875 -0.515625 1.734375 -1.34375l2.59375 2.84375q-1.3125 1.53125 -3.0 2.3125q-1.671875 0.765625 -3.625 0.765625q-2.015625 0 -3.8125 -0.6875q-1.78125 -0.6875 -3.125 -2.03125q-1.34375 -1.359375 -2.125 -3.359375q-0.765625 -2.0 -0.765625 -4.609375zm18.655304 5.875q0 -2.484375 2.109375 -3.890625q2.125 -1.421875 6.828125 -1.890625q-0.0625 -1.0625 -0.640625 -1.6875q-0.578125 -0.625 -1.859375 -0.625q-1.03125 0 -2.0625 0.390625q-1.015625 0.375 -2.15625 1.046875l-1.671875 -3.09375q1.53125 -0.9375 3.203125 -1.5q1.6875 -0.578125 3.578125 -0.578125q3.078125 0 4.6875 1.75q1.625 1.734375 1.625 5.40625l0 9.09375l-3.84375 0l-0.359375 -1.625l-0.09375 0q-1.015625 0.890625 -2.15625 1.453125q-1.140625 0.5625 -2.484375 0.5625q-1.078125 0 -1.953125 -0.375q-0.859375 -0.375 -1.46875 -1.015625q-0.609375 -0.65625 -0.953125 -1.515625q-0.328125 -0.875 -0.328125 -1.90625zm4.484375 -0.34375q0 0.765625 0.484375 1.140625q0.5 0.359375 1.34375 0.359375q0.828125 0 1.40625 -0.34375q0.578125 -0.359375 1.21875 -1.0l0 -2.78125q-2.53125 0.34375 -3.5 1.015625q-0.953125 0.671875 -0.953125 1.609375zm13.181763 -11.109375l3.84375 0l0.3125 2.78125l0.140625 0q0.859375 -1.625 2.0625 -2.390625q1.21875 -0.765625 2.4375 -0.765625q0.671875 0 1.109375 0.078125q0.4375 0.078125 0.78125 0.234375l-0.765625 4.0625q-0.453125 -0.125 -0.84375 -0.1875q-0.375 -0.0625 -0.890625 -0.0625q-0.890625 0 -1.875 0.640625q-0.96875 0.640625 -1.609375 2.265625l0 9.21875l-4.703125 0l0 -15.875zm11.907898 7.9375q0 -1.953125 0.5625 -3.484375q0.5625 -1.53125 1.46875 -2.609375q0.90625 -1.078125 2.109375 -1.640625q1.203125 -0.578125 2.453125 -0.578125q1.34375 0 2.203125 0.453125q0.859375 0.4375 1.703125 1.203125l-0.203125 -2.4375l0 -5.40625l4.703125 0l0 22.4375l-3.828125 0l-0.328125 -1.5625l-0.125 0q-0.828125 0.828125 -1.953125 1.390625q-1.125 0.5625 -2.265625 0.5625q-1.484375 0 -2.6875 -0.578125q-1.1875 -0.578125 -2.046875 -1.640625q-0.84375 -1.078125 -1.3125 -2.609375q-0.453125 -1.546875 -0.453125 -3.5zm4.828125 -0.0625q0 2.375 0.75 3.46875q0.75 1.078125 2.125 1.078125q0.78125 0 1.390625 -0.3125q0.625 -0.328125 1.203125 -1.125l0 -6.5q-0.640625 -0.578125 -1.3125 -0.796875q-0.671875 -0.234375 -1.3125 -0.234375q-1.109375 0 -1.984375 1.078125q-0.859375 1.078125 -0.859375 3.34375zm23.55481 -0.640625l-0.484375 -1.921875q-0.4375 -1.5625 -0.859375 -3.3125q-0.421875 -1.765625 -0.828125 -3.40625l-0.140625 0q-0.375 1.671875 -0.78125 3.421875q-0.390625 1.734375 -0.84375 3.296875l-0.515625 1.921875l4.453125 0zm0.953125 3.6875l-6.359375 0l-1.28125 4.953125l-4.796875 0l6.53125 -20.859375l5.65625 0l6.5312195 20.859375l-4.9999695 0l-1.28125 -4.953125zm12.867279 6.203125l0 4.640625l-4.703125 0l0 -21.765625l3.84375 0l0.3125 1.578125l0.140625 0q0.921875 -0.84375 2.078125 -1.390625q1.171875 -0.5625 2.421875 -0.5625q1.4375 0 2.59375 0.578125q1.15625 0.5625 1.953125 1.625q0.796875 1.0625 1.234375 2.546875q0.4375 1.484375 0.4375 3.3125q0 2.046875 -0.5625 3.640625q-0.5625 1.578125 -1.515625 2.6875q-0.9375 1.09375 -2.140625 1.671875q-1.1875 0.578125 -2.46875 0.578125q-1.03125 0 -2.0 -0.4375q-0.953125 -0.4375 -1.78125 -1.234375l0.15625 2.53125zm0 -5.734375q0.640625 0.578125 1.28125 0.8125q0.640625 0.21875 1.25 0.21875q1.21875 0 2.078125 -1.09375q0.859375 -1.109375 0.859375 -3.578125q0 -4.296875 -2.75 -4.296875q-1.375 0 -2.71875 1.453125l0 6.484375zm18.33606 5.734375l0 4.640625l-4.703125 0l0 -21.765625l3.84375 0l0.3125 1.578125l0.140625 0q0.921875 -0.84375 2.078125 -1.390625q1.171875 -0.5625 2.421875 -0.5625q1.4375 0 2.59375 0.578125q1.15625 0.5625 1.953125 1.625q0.796875 1.0625 1.234375 2.546875q0.4375 1.484375 0.4375 3.3125q0 2.046875 -0.5625 3.640625q-0.5625 1.578125 -1.515625 2.6875q-0.9375 1.09375 -2.140625 1.671875q-1.1875 0.578125 -2.46875 0.578125q-1.03125 0 -2.0 -0.4375q-0.953125 -0.4375 -1.78125 -1.234375l0.15625 2.53125zm0 -5.734375q0.640625 0.578125 1.28125 0.8125q0.640625 0.21875 1.25 0.21875q1.21875 0 2.078125 -1.09375q0.859375 -1.109375 0.859375 -3.578125q0 -4.296875 -2.75 -4.296875q-1.375 0 -2.71875 1.453125l0 6.484375z" fill-rule="nonzero"></path><path fill="#000000" fill-opacity="0.0" d="m347.82678 460.2467l264.34644 0l0 72.22052l-264.34644 0z" fill-rule="nonzero"></path><path fill="#0c4eb2" d="m405.3011 487.2176l4.984375 0l2.5 9.71875q0.484375 1.734375 0.84375 3.359375q0.375 1.609375 0.84375 3.328125l0.140625 0q0.4375 -1.71875 0.8125 -3.328125q0.390625 -1.625 0.84375 -3.359375l2.46875 -9.71875l4.796875 0l-6.265625 20.859375l-5.671875 0l-6.296875 -20.859375zm19.479553 10.5625q0 -2.59375 0.796875 -4.625q0.8125 -2.03125 2.171875 -3.4375q1.359375 -1.421875 3.15625 -2.15625q1.8125 -0.734375 3.828125 -0.734375q1.953125 0 3.53125 0.828125q1.59375 0.8125 2.640625 1.890625l-2.578125 2.921875q-0.8125 -0.75 -1.625 -1.15625q-0.8125 -0.421875 -1.90625 -0.421875q-1.078125 0 -2.03125 0.46875q-0.9375 0.46875 -1.640625 1.328125q-0.703125 0.859375 -1.109375 2.109375q-0.40625 1.25 -0.40625 2.8125q0 3.234375 1.375 5.015625q1.390625 1.765625 3.6875 1.765625q1.28125 0 2.234375 -0.5q0.96875 -0.515625 1.734375 -1.34375l2.59375 2.84375q-1.3125 1.53125 -3.0 2.3125q-1.671875 0.765625 -3.625 0.765625q-2.015625 0 -3.8125 -0.6875q-1.78125 -0.6875 -3.125 -2.03125q-1.34375 -1.359375 -2.125 -3.359375q-0.765625 -2.0 -0.765625 -4.609375zm18.655273 5.875q0 -2.484375 2.109375 -3.890625q2.125 -1.421875 6.828125 -1.890625q-0.0625 -1.0625 -0.640625 -1.6875q-0.578125 -0.625 -1.859375 -0.625q-1.03125 0 -2.0625 0.390625q-1.015625 0.375 -2.15625 1.046875l-1.671875 -3.09375q1.53125 -0.9375 3.203125 -1.5q1.6875 -0.578125 3.578125 -0.578125q3.078125 0 4.6875 1.75q1.625 1.734375 1.625 5.40625l0 9.09375l-3.84375 0l-0.359375 -1.625l-0.09375 0q-1.015625 0.890625 -2.15625 1.453125q-1.140625 0.5625 -2.484375 0.5625q-1.078125 0 -1.953125 -0.375q-0.859375 -0.375 -1.46875 -1.015625q-0.609375 -0.65625 -0.953125 -1.515625q-0.328125 -0.875 -0.328125 -1.90625zm4.484375 -0.34375q0 0.765625 0.484375 1.140625q0.5 0.359375 1.34375 0.359375q0.828125 0 1.40625 -0.34375q0.578125 -0.359375 1.21875 -1.0l0 -2.78125q-2.53125 0.34375 -3.5 1.015625q-0.953125 0.671875 -0.953125 1.609375zm13.181793 -11.109375l3.84375 0l0.3125 2.78125l0.140625 0q0.859375 -1.625 2.0625 -2.390625q1.21875 -0.765625 2.4375 -0.765625q0.671875 0 1.109375 0.078125q0.4375 0.078125 0.78125 0.234375l-0.765625 4.0625q-0.453125 -0.125 -0.84375 -0.1875q-0.375 -0.0625 -0.890625 -0.0625q-0.890625 0 -1.875 0.640625q-0.96875 0.640625 -1.609375 2.265625l0 9.21875l-4.703125 0l0 -15.875zm11.907898 7.9375q0 -1.953125 0.5625 -3.484375q0.5625 -1.53125 1.46875 -2.609375q0.90625 -1.078125 2.109375 -1.640625q1.203125 -0.578125 2.453125 -0.578125q1.34375 0 2.203125 0.453125q0.859375 0.4375 1.703125 1.203125l-0.203125 -2.4375l0 -5.40625l4.703125 0l0 22.4375l-3.828125 0l-0.328125 -1.5625l-0.125 0q-0.828125 0.828125 -1.953125 1.390625q-1.125 0.5625 -2.265625 0.5625q-1.484375 0 -2.6875 -0.578125q-1.1875 -0.578125 -2.046875 -1.640625q-0.84375 -1.078125 -1.3125 -2.609375q-0.453125 -1.546875 -0.453125 -3.5zm4.828125 -0.0625q0 2.375 0.75 3.46875q0.75 1.078125 2.125 1.078125q0.78125 0 1.390625 -0.3125q0.625 -0.328125 1.203125 -1.125l0 -6.5q-0.640625 -0.578125 -1.3125 -0.796875q-0.671875 -0.234375 -1.3125 -0.234375q-1.109375 0 -1.984375 1.078125q-0.859375 1.078125 -0.859375 3.34375zm13.726654 -2.296875q0 -2.59375 0.796875 -4.625q0.8125 -2.03125 2.171875 -3.4375q1.359375 -1.421875 3.15625 -2.15625q1.8125 -0.734375 3.828125 -0.734375q1.953125 0 3.53125 0.828125q1.59375 0.8125 2.640625 1.890625l-2.578125 2.921875q-0.8125 -0.75 -1.625 -1.15625q-0.8125 -0.421875 -1.90625 -0.421875q-1.078125 0 -2.03125 0.46875q-0.9375 0.46875 -1.640625 1.328125q-0.703125 0.859375 -1.109375 2.109375q-0.40625 1.25 -0.40625 2.8125q0 3.234375 1.375 5.015625q1.390625 1.765625 3.6875 1.765625q1.28125 0 2.234375 -0.5q0.96875 -0.515625 1.734375 -1.34375l2.59375 2.84375q-1.3125 1.53125 -3.0 2.3125q-1.671875 0.765625 -3.625 0.765625q-2.015625 0 -3.8125 -0.6875q-1.78125 -0.6875 -3.125 -2.03125q-1.34375 -1.359375 -2.125 -3.359375q-0.765625 -2.0 -0.765625 -4.609375zm19.233429 -5.578125l3.8437195 0l0.3125 2.046875l0.140625 0q0.984375 -0.984375 2.09375 -1.703125q1.125 -0.71875 2.703125 -0.71875q1.6875 0 2.71875 0.6875q1.046875 0.6875 1.65625 1.96875q1.0625 -1.09375 2.21875 -1.875q1.171875 -0.78125 2.78125 -0.78125q2.5625 0 3.75 1.71875q1.203125 1.703125 1.203125 4.671875l0 9.859375l-4.703125 0l0 -9.25q0 -1.71875 -0.46875 -2.359375q-0.453125 -0.640625 -1.484375 -0.640625q-1.1875 0 -2.71875 1.53125l0 10.71875l-4.703125 0l0 -9.25q0 -1.71875 -0.46875 -2.359375q-0.453125 -0.640625 -1.484375 -0.640625q-1.21875 0 -2.6875 1.53125l0 10.71875l-4.7030945 0l0 -15.875zm32.127167 17.125l0 4.640625l-4.703125 0l0 -21.765625l3.84375 0l0.3125 1.578125l0.140625 0q0.921875 -0.84375 2.078125 -1.390625q1.171875 -0.5625 2.421875 -0.5625q1.4375 0 2.59375 0.578125q1.15625 0.5625 1.953125 1.625q0.796875 1.0625 1.234375 2.546875q0.4375 1.484375 0.4375 3.3125q0 2.046875 -0.5625 3.640625q-0.5625 1.578125 -1.515625 2.6875q-0.9375 1.09375 -2.140625 1.671875q-1.1875 0.578125 -2.46875 0.578125q-1.03125 0 -2.0 -0.4375q-0.953125 -0.4375 -1.78125 -1.234375l0.15625 2.53125zm0 -5.734375q0.640625 0.578125 1.28125 0.8125q0.640625 0.21875 1.25 0.21875q1.21875 0 2.078125 -1.09375q0.859375 -1.109375 0.859375 -3.578125q0 -4.296875 -2.75 -4.296875q-1.375 0 -2.71875 1.453125l0 6.484375z" fill-rule="nonzero"></path><path fill="#000000" fill-opacity="0.0" d="m480.0 225.66403l0 201.92126" fill-rule="nonzero"></path><path stroke="#ffffff" stroke-width="4.0" stroke-linejoin="round" stroke-linecap="butt" d="m480.0 225.66405l0 188.21294" fill-rule="evenodd"></path><path fill="#ffffff" stroke="#ffffff" stroke-width="4.0" stroke-linecap="butt" d="m480.0 413.87695l-4.4983215 -4.4983215l4.4983215 12.35907l4.4983215 -12.35907z" fill-rule="evenodd"></path><path fill="#000000" fill-opacity="0.0" d="m-11.503937 287.979l480.0 0l0 77.29135l-480.0 0z" fill-rule="nonzero"></path><path fill="#ffffff" d="m21.422623 328.1203l6.796875 3.765625q0.515625 0.296875 0.6875 0.515625q0.171875 0.21875 0.171875 0.578125q0 0.4375 -0.328125 0.765625q-0.3125 0.3125 -0.734375 0.3125q-0.28125 0 -0.828125 -0.296875l-10.140625 -5.640625l10.140625 -5.640625q0.546875 -0.296875 0.8125 -0.296875q0.4375 0 0.75 0.3125q0.328125 0.3125 0.328125 0.765625q0 0.34375 -0.171875 0.578125q-0.171875 0.21875 -0.6875 0.5l-6.796875 3.78125zm15.00209 3.4375l2.265625 -4.65625q-0.84375 0 -1.078125 -0.15625q-0.5 -0.3125 -0.5 -0.90625q0 -0.453125 0.3125 -0.75q0.328125 -0.296875 1.078125 -0.296875l2.890625 0q0.75 0 1.078125 0.296875q0.328125 0.296875 0.328125 0.765625q0 0.453125 -0.328125 0.75q-0.328125 0.296875 -1.078125 0.296875l-0.34375 0l-3.53125 7.203125l-2.1875 0l-3.515625 -7.203125l-0.296875 0q-0.765625 0 -1.09375 -0.296875q-0.3125 -0.296875 -0.3125 -0.765625q0 -0.453125 0.3125 -0.75q0.328125 -0.296875 1.09375 -0.296875l2.8125 0q0.75 0 1.078125 0.296875q0.328125 0.296875 0.328125 0.765625q0 0.578125 -0.5 0.890625q-0.25 0.15625 -1.09375 0.15625l2.28125 4.65625zm17.18959 -2.453125l-8.78125 0l0 -1.921875l8.78125 0l0 1.921875zm11.673965 -3.9375q0.375 -0.359375 0.78125 -0.359375q0.453125 0 0.734375 0.328125q0.296875 0.328125 0.296875 1.078125l0 1.34375q0 0.765625 -0.296875 1.09375q-0.28125 0.3125 -0.75 0.3125q-0.4375 0 -0.734375 -0.25q-0.21875 -0.1875 -0.34375 -0.75q-0.125 -0.578125 -0.59375 -0.859375q-0.828125 -0.484375 -2.125 -0.484375q-1.484375 0 -2.390625 0.875q-0.890625 0.859375 -0.890625 2.203125q0 1.234375 0.859375 1.953125q0.875 0.703125 2.875 0.703125q1.3125 0 2.140625 -0.265625q0.484375 -0.171875 0.921875 -0.5625q0.453125 -0.390625 0.8125 -0.390625q0.421875 0 0.734375 0.3125q0.3125 0.3125 0.3125 0.75q0 0.703125 -0.953125 1.328125q-1.40625 0.921875 -4.140625 0.921875q-2.453125 0 -3.8125 -1.015625q-1.84375 -1.359375 -1.84375 -3.734375q0 -2.234375 1.484375 -3.703125q1.5 -1.484375 3.921875 -1.484375q0.859375 0 1.609375 0.171875q0.75 0.15625 1.390625 0.484375zm11.40834 8.9375l0 -0.5q-0.78125 0.421875 -1.734375 0.625q-0.953125 0.21875 -1.734375 0.21875q-1.6875 0 -2.75 -0.890625q-1.0625 -0.90625 -1.0625 -1.984375q0 -1.328125 1.34375 -2.453125q1.359375 -1.140625 3.734375 -1.140625q0.953125 0 2.203125 0.203125l0 -0.5q0 -0.46875 -0.40625 -0.765625q-0.390625 -0.296875 -1.53125 -0.296875q-0.9375 0 -2.421875 0.375q-0.5625 0.125 -0.859375 0.125q-0.421875 0 -0.71875 -0.296875q-0.296875 -0.3125 -0.296875 -0.78125q0 -0.265625 0.09375 -0.453125q0.109375 -0.203125 0.296875 -0.3125q0.1875 -0.125 0.78125 -0.28125q0.765625 -0.21875 1.578125 -0.34375q0.8125 -0.140625 1.46875 -0.140625q1.953125 0 3.03125 0.859375q1.09375 0.84375 1.09375 2.3125l0 4.3125l0.359375 0q0.75 0 1.078125 0.296875q0.328125 0.296875 0.328125 0.765625q0 0.46875 -0.328125 0.765625q-0.328125 0.28125 -1.078125 0.28125l-2.46875 0zm0 -3.765625q-1.25 -0.25 -2.328125 -0.25q-1.28125 0 -2.203125 0.625q-0.5625 0.40625 -0.5625 0.8125q0 0.296875 0.265625 0.484375q0.515625 0.34375 1.40625 0.34375q0.765625 0 1.71875 -0.296875q0.953125 -0.296875 1.703125 -0.8125l0 -0.90625zm10.47084 -5.546875l0 1.3125q1.328125 -0.953125 2.09375 -1.265625q0.765625 -0.328125 1.421875 -0.328125q1.03125 0 2.0 0.765625q0.65625 0.515625 0.65625 1.046875q0 0.453125 -0.3125 0.765625q-0.3125 0.3125 -0.75 0.3125q-0.390625 0 -0.828125 -0.390625q-0.4375 -0.390625 -0.765625 -0.390625q-0.4375 0 -1.328125 0.5625q-0.875 0.546875 -2.1875 1.65625l0 3.15625l3.0 0q0.765625 0 1.078125 0.296875q0.328125 0.296875 0.328125 0.765625q0 0.46875 -0.328125 0.765625q-0.3125 0.28125 -1.078125 0.28125l-6.34375 0q-0.765625 0 -1.09375 -0.28125q-0.3125 -0.296875 -0.3125 -0.78125q0 -0.453125 0.3125 -0.75q0.328125 -0.296875 1.09375 -0.296875l1.25 0l0 -5.09375l-0.765625 0q-0.75 0 -1.078125 -0.296875q-0.328125 -0.296875 -0.328125 -0.765625q0 -0.453125 0.328125 -0.75q0.328125 -0.296875 1.078125 -0.296875l2.859375 0zm18.06459 -3.984375l0 11.1875l0.359375 0q0.75 0 1.078125 0.296875q0.328125 0.296875 0.328125 0.765625q0 0.46875 -0.328125 0.765625q-0.3125 0.28125 -1.078125 0.28125l-2.453125 0l0 -0.515625q-0.71875 0.421875 -1.515625 0.640625q-0.78125 0.21875 -1.625 0.21875q-2.359375 0 -3.8125 -1.375q-1.4375 -1.375 -1.4375 -3.40625q0 -2.140625 1.515625 -3.640625q1.515625 -1.515625 3.703125 -1.515625q0.8125 0 1.59375 0.265625q0.796875 0.25 1.578125 0.75l0 -2.625l-0.359375 0q-0.765625 0 -1.09375 -0.28125q-0.3125 -0.296875 -0.3125 -0.765625q0 -0.46875 0.3125 -0.75q0.328125 -0.296875 1.09375 -0.296875l2.453125 0zm-2.09375 8.921875q0 -1.3125 -0.921875 -2.203125q-0.90625 -0.90625 -2.234375 -0.90625q-1.3125 0 -2.234375 0.90625q-0.90625 0.890625 -0.90625 2.171875q0 1.15625 0.8125 1.90625q0.828125 0.734375 2.328125 0.734375q1.484375 0 2.3125 -0.734375q0.84375 -0.75 0.84375 -1.875zm23.894806 -6.796875l0 12.34375l1.28125 0q0.75 0 1.078125 0.28125q0.328125 0.296875 0.328125 0.765625q0 0.484375 -0.328125 0.765625q-0.328125 0.296875 -1.078125 0.296875l-3.375 0l0 -16.546875l3.359375 0q0.765625 0 1.078125 0.296875q0.328125 0.28125 0.328125 0.75q0 0.46875 -0.328125 0.765625q-0.3125 0.28125 -1.078125 0.28125l-1.265625 0zm11.78334 8.625l2.265625 -4.65625q-0.84375 0 -1.078125 -0.15625q-0.5 -0.3125 -0.5 -0.90625q0 -0.453125 0.3125 -0.75q0.328125 -0.296875 1.078125 -0.296875l2.890625 0q0.75 0 1.078125 0.296875q0.328125 0.296875 0.328125 0.765625q0 0.453125 -0.328125 0.75q-0.328125 0.296875 -1.078125 0.296875l-0.34375 0l-3.53125 7.203125l-2.1875 0l-3.515625 -7.203125l-0.296875 0q-0.765625 0 -1.09375 -0.296875q-0.3125 -0.296875 -0.3125 -0.765625q0 -0.453125 0.3125 -0.75q0.328125 -0.296875 1.09375 -0.296875l2.8125 0q0.75 0 1.078125 0.296875q0.328125 0.296875 0.328125 0.765625q0 0.578125 -0.5 0.890625q-0.25 0.15625 -1.09375 0.15625l2.28125 4.65625zm8.080215 0.4375l0 -8.21875q-0.65625 -0.015625 -0.984375 -0.296875q-0.3125 -0.296875 -0.3125 -0.75q0 -0.484375 0.3125 -0.765625q0.328125 -0.296875 1.09375 -0.296875l4.390625 0.015625q1.03125 0 2.0 0.375q0.984375 0.375 1.59375 0.96875q0.4375 0.4375 0.921875 1.203125q0.5 0.765625 0.734375 1.53125q0.25 0.75 0.25 1.859375l0 1.0q0 1.328125 -0.453125 2.359375q-0.453125 1.03125 -1.1875 1.6875q-0.71875 0.640625 -1.375 0.953125q-1.015625 0.484375 -2.65625 0.484375l-4.21875 0q-0.765625 0 -1.09375 -0.28125q-0.3125 -0.296875 -0.3125 -0.78125q0 -0.453125 0.3125 -0.75q0.328125 -0.296875 0.984375 -0.296875zm2.109375 0l2.234375 0q1.25 0 1.890625 -0.359375q0.828125 -0.46875 1.25 -1.1875q0.421875 -0.734375 0.421875 -1.890625l0 -1.0q0 -0.984375 -0.390625 -1.734375q-0.59375 -1.171875 -1.34375 -1.609375q-0.734375 -0.4375 -1.84375 -0.4375l-2.21875 0l0 8.21875zm17.28334 2.109375l0 -0.5q-0.78125 0.421875 -1.734375 0.625q-0.953125 0.21875 -1.734375 0.21875q-1.6875 0 -2.75 -0.890625q-1.0625 -0.90625 -1.0625 -1.984375q0 -1.328125 1.34375 -2.453125q1.359375 -1.140625 3.734375 -1.140625q0.953125 0 2.203125 0.203125l0 -0.5q0 -0.46875 -0.40625 -0.765625q-0.390625 -0.296875 -1.53125 -0.296875q-0.9375 0 -2.421875 0.375q-0.5625 0.125 -0.859375 0.125q-0.421875 0 -0.71875 -0.296875q-0.296875 -0.3125 -0.296875 -0.78125q0 -0.265625 0.09375 -0.453125q0.109375 -0.203125 0.296875 -0.3125q0.1875 -0.125 0.78125 -0.28125q0.765625 -0.21875 1.578125 -0.34375q0.8125 -0.140625 1.46875 -0.140625q1.953125 0 3.03125 0.859375q1.09375 0.84375 1.09375 2.3125l0 4.3125l0.359375 0q0.75 0 1.078125 0.296875q0.328125 0.296875 0.328125 0.765625q0 0.46875 -0.328125 0.765625q-0.328125 0.28125 -1.078125 0.28125l-2.46875 0zm0 -3.765625q-1.25 -0.25 -2.328125 -0.25q-1.28125 0 -2.203125 0.625q-0.5625 0.40625 -0.5625 0.8125q0 0.296875 0.265625 0.484375q0.515625 0.34375 1.40625 0.34375q0.765625 0 1.71875 -0.296875q0.953125 -0.296875 1.703125 -0.8125l0 -0.90625zm10.392715 -3.4375l0 4.203125q0 0.6875 0.28125 0.890625q0.421875 0.34375 1.53125 0.34375q1.609375 0 2.984375 -0.6875q0.515625 -0.265625 0.8125 -0.265625q0.40625 0 0.703125 0.3125q0.3125 0.296875 0.3125 0.75q0 0.40625 -0.328125 0.703125q-0.5 0.484375 -1.984375 0.890625q-1.484375 0.40625 -2.5 0.40625q-1.953125 0 -2.9375 -0.84375q-0.96875 -0.859375 -0.96875 -2.078125l0 -4.625l-0.765625 0q-0.765625 0 -1.09375 -0.296875q-0.3125 -0.296875 -0.3125 -0.765625q0 -0.453125 0.3125 -0.75q0.328125 -0.296875 1.09375 -0.296875l0.765625 0l0 -1.890625q0 -0.765625 0.28125 -1.078125q0.296875 -0.328125 0.765625 -0.328125q0.46875 0 0.75 0.328125q0.296875 0.3125 0.296875 1.078125l0 1.890625l3.890625 0q0.75 0 1.078125 0.296875q0.328125 0.296875 0.328125 0.765625q0 0.453125 -0.328125 0.75q-0.328125 0.296875 -1.078125 0.296875l-3.890625 0zm15.205215 7.203125l0 -0.5q-0.78125 0.421875 -1.734375 0.625q-0.953125 0.21875 -1.734375 0.21875q-1.6875 0 -2.75 -0.890625q-1.0625 -0.90625 -1.0625 -1.984375q0 -1.328125 1.34375 -2.453125q1.359375 -1.140625 3.734375 -1.140625q0.953125 0 2.203125 0.203125l0 -0.5q0 -0.46875 -0.40625 -0.765625q-0.390625 -0.296875 -1.53125 -0.296875q-0.9375 0 -2.421875 0.375q-0.5625 0.125 -0.859375 0.125q-0.421875 0 -0.71875 -0.296875q-0.296875 -0.3125 -0.296875 -0.78125q0 -0.265625 0.09375 -0.453125q0.109375 -0.203125 0.296875 -0.3125q0.1875 -0.125 0.78125 -0.28125q0.765625 -0.21875 1.578125 -0.34375q0.8125 -0.140625 1.46875 -0.140625q1.953125 0 3.03125 0.859375q1.09375 0.84375 1.09375 2.3125l0 4.3125l0.359375 0q0.75 0 1.078125 0.296875q0.328125 0.296875 0.328125 0.765625q0 0.46875 -0.328125 0.765625q-0.328125 0.28125 -1.078125 0.28125l-2.46875 0zm0 -3.765625q-1.25 -0.25 -2.328125 -0.25q-1.28125 0 -2.203125 0.625q-0.5625 0.40625 -0.5625 0.8125q0 0.296875 0.265625 0.484375q0.515625 0.34375 1.40625 0.34375q0.765625 0 1.71875 -0.296875q0.953125 -0.296875 1.703125 -0.8125l0 -0.90625zm9.87709 4.9375l0 -12.34375l-1.265625 0q-0.765625 0 -1.09375 -0.28125q-0.3125 -0.296875 -0.3125 -0.765625q0 -0.46875 0.3125 -0.75q0.328125 -0.296875 1.09375 -0.296875l3.375 0l0 16.546875l-3.359375 0q-0.765625 0 -1.09375 -0.296875q-0.3125 -0.28125 -0.3125 -0.765625q0 -0.453125 0.3125 -0.75q0.328125 -0.296875 1.09375 -0.296875l1.25 0zm18.34584 -8.078125l-8.984375 0q-0.765625 0 -1.09375 -0.296875q-0.3125 -0.296875 -0.3125 -0.765625q0 -0.453125 0.3125 -0.75q0.328125 -0.296875 1.09375 -0.296875l8.984375 0q0.75 0 1.078125 0.296875q0.328125 0.296875 0.328125 0.765625q0 0.453125 -0.328125 0.75q-0.328125 0.296875 -1.078125 0.296875zm0 3.953125l-8.984375 0q-0.765625 0 -1.09375 -0.28125q-0.3125 -0.296875 -0.3125 -0.765625q0 -0.46875 0.3125 -0.765625q0.328125 -0.296875 1.09375 -0.296875l8.984375 0q0.75 0 1.078125 0.296875q0.328125 0.296875 0.328125 0.765625q0 0.46875 -0.328125 0.765625q-0.328125 0.28125 -1.078125 0.28125zm6.0333405 -9.984375l2.484375 0l-3.15625 5.0625q-0.265625 0.421875 -0.5625 0.421875q-0.265625 0 -0.46875 -0.1875q-0.203125 -0.1875 -0.203125 -0.390625q0 -0.171875 0.078125 -0.40625l1.828125 -4.5zm4.40625 0l2.484375 0l-3.15625 5.0625q-0.265625 0.421875 -0.5625 0.421875q-0.265625 0 -0.46875 -0.1875q-0.203125 -0.1875 -0.203125 -0.390625q0 -0.171875 0.09375 -0.40625l1.8125 -4.5zm10.65834 10.390625l2.265625 -4.65625q-0.84375 0 -1.078125 -0.15625q-0.5 -0.3125 -0.5 -0.90625q0 -0.453125 0.3125 -0.75q0.328125 -0.296875 1.078125 -0.296875l2.890625 0q0.75 0 1.078125 0.296875q0.328125 0.296875 0.328125 0.765625q0 0.453125 -0.328125 0.75q-0.328125 0.296875 -1.078125 0.296875l-0.34375 0l-3.53125 7.203125l-2.1875 0l-3.515625 -7.203125l-0.296875 0q-0.765625 0 -1.09375 -0.296875q-0.3125 -0.296875 -0.3125 -0.765625q0 -0.453125 0.3125 -0.75q0.328125 -0.296875 1.09375 -0.296875l2.8125 0q0.75 0 1.078125 0.296875q0.328125 0.296875 0.328125 0.765625q0 0.578125 -0.5 0.890625q-0.25 0.15625 -1.09375 0.15625l2.28125 4.65625zm8.0802 0.4375l0 -8.21875q-0.65625 -0.015625 -0.984375 -0.296875q-0.3125 -0.296875 -0.3125 -0.75q0 -0.484375 0.3125 -0.765625q0.328125 -0.296875 1.09375 -0.296875l4.390625 0.015625q1.03125 0 2.0 0.375q0.984375 0.375 1.59375 0.96875q0.4375 0.4375 0.921875 1.203125q0.5 0.765625 0.734375 1.53125q0.25 0.75 0.25 1.859375l0 1.0q0 1.328125 -0.453125 2.359375q-0.453125 1.03125 -1.1875 1.6875q-0.71875 0.640625 -1.375 0.953125q-1.015625 0.484375 -2.65625 0.484375l-4.21875 0q-0.765625 0 -1.09375 -0.28125q-0.3125 -0.296875 -0.3125 -0.78125q0 -0.453125 0.3125 -0.75q0.328125 -0.296875 0.984375 -0.296875zm2.109375 0l2.234375 0q1.25 0 1.890625 -0.359375q0.828125 -0.46875 1.25 -1.1875q0.421875 -0.734375 0.421875 -1.890625l0 -1.0q0 -0.984375 -0.390625 -1.734375q-0.59375 -1.171875 -1.34375 -1.609375q-0.734375 -0.4375 -1.84375 -0.4375l-2.21875 0l0 8.21875zm17.283356 2.109375l0 -0.5q-0.78125 0.421875 -1.734375 0.625q-0.953125 0.21875 -1.734375 0.21875q-1.6875 0 -2.75 -0.890625q-1.0625 -0.90625 -1.0625 -1.984375q0 -1.328125 1.34375 -2.453125q1.359375 -1.140625 3.734375 -1.140625q0.953125 0 2.203125 0.203125l0 -0.5q0 -0.46875 -0.40625 -0.765625q-0.390625 -0.296875 -1.53125 -0.296875q-0.9375 0 -2.421875 0.375q-0.5625 0.125 -0.859375 0.125q-0.421875 0 -0.71875 -0.296875q-0.296875 -0.3125 -0.296875 -0.78125q0 -0.265625 0.09375 -0.453125q0.109375 -0.203125 0.296875 -0.3125q0.1875 -0.125 0.78125 -0.28125q0.765625 -0.21875 1.578125 -0.34375q0.8125 -0.140625 1.46875 -0.140625q1.953125 0 3.03125 0.859375q1.09375 0.84375 1.09375 2.3125l0 4.3125l0.359375 0q0.75 0 1.078125 0.296875q0.328125 0.296875 0.328125 0.765625q0 0.46875 -0.328125 0.765625q-0.328125 0.28125 -1.078125 0.28125l-2.46875 0zm0 -3.765625q-1.25 -0.25 -2.328125 -0.25q-1.28125 0 -2.203125 0.625q-0.5625 0.40625 -0.5625 0.8125q0 0.296875 0.265625 0.484375q0.515625 0.34375 1.40625 0.34375q0.765625 0 1.71875 -0.296875q0.953125 -0.296875 1.703125 -0.8125l0 -0.90625zm10.392731 -3.4375l0 4.203125q0 0.6875 0.28125 0.890625q0.421875 0.34375 1.53125 0.34375q1.609375 0 2.984375 -0.6875q0.515625 -0.265625 0.8125 -0.265625q0.40625 0 0.703125 0.3125q0.3125 0.296875 0.3125 0.75q0 0.40625 -0.328125 0.703125q-0.5 0.484375 -1.984375 0.890625q-1.484375 0.40625 -2.5 0.40625q-1.953125 0 -2.9375 -0.84375q-0.96875 -0.859375 -0.96875 -2.078125l0 -4.625l-0.765625 0q-0.765625 0 -1.09375 -0.296875q-0.3125 -0.296875 -0.3125 -0.765625q0 -0.453125 0.3125 -0.75q0.328125 -0.296875 1.09375 -0.296875l0.765625 0l0 -1.890625q0 -0.765625 0.28125 -1.078125q0.296875 -0.328125 0.765625 -0.328125q0.46875 0 0.75 0.328125q0.296875 0.3125 0.296875 1.078125l0 1.890625l3.890625 0q0.75 0 1.078125 0.296875q0.328125 0.296875 0.328125 0.765625q0 0.453125 -0.328125 0.75q-0.328125 0.296875 -1.078125 0.296875l-3.890625 0zm15.2052 7.203125l0 -0.5q-0.78125 0.421875 -1.734375 0.625q-0.953125 0.21875 -1.734375 0.21875q-1.6875 0 -2.75 -0.890625q-1.0625 -0.90625 -1.0625 -1.984375q0 -1.328125 1.34375 -2.453125q1.359375 -1.140625 3.734375 -1.140625q0.953125 0 2.203125 0.203125l0 -0.5q0 -0.46875 -0.40625 -0.765625q-0.390625 -0.296875 -1.53125 -0.296875q-0.9375 0 -2.421875 0.375q-0.5625 0.125 -0.859375 0.125q-0.421875 0 -0.71875 -0.296875q-0.296875 -0.3125 -0.296875 -0.78125q0 -0.265625 0.09375 -0.453125q0.109375 -0.203125 0.296875 -0.3125q0.1875 -0.125 0.78125 -0.28125q0.765625 -0.21875 1.578125 -0.34375q0.8125 -0.140625 1.46875 -0.140625q1.953125 0 3.03125 0.859375q1.09375 0.84375 1.09375 2.3125l0 4.3125l0.359375 0q0.75 0 1.078125 0.296875q0.328125 0.296875 0.328125 0.765625q0 0.46875 -0.328125 0.765625q-0.328125 0.28125 -1.078125 0.28125l-2.46875 0zm0 -3.765625q-1.25 -0.25 -2.328125 -0.25q-1.28125 0 -2.203125 0.625q-0.5625 0.40625 -0.5625 0.8125q0 0.296875 0.265625 0.484375q0.515625 0.34375 1.40625 0.34375q0.765625 0 1.71875 -0.296875q0.953125 -0.296875 1.703125 -0.8125l0 -0.90625zm8.658325 -9.171875l2.484375 0l-3.15625 5.0625q-0.265625 0.421875 -0.5625 0.421875q-0.265625 0 -0.46875 -0.1875q-0.203125 -0.1875 -0.203125 -0.390625q0 -0.171875 0.078125 -0.40625l1.828125 -4.5zm4.40625 0l2.484375 0l-3.15625 5.0625q-0.265625 0.421875 -0.5625 0.421875q-0.265625 0 -0.46875 -0.1875q-0.203125 -0.1875 -0.203125 -0.390625q0 -0.171875 0.09375 -0.40625l1.8125 -4.5zm12.86145 6.953125l-6.796875 -3.78125q-0.515625 -0.28125 -0.6875 -0.5q-0.171875 -0.234375 -0.171875 -0.578125q0 -0.453125 0.3125 -0.765625q0.328125 -0.3125 0.75 -0.3125q0.265625 0 0.828125 0.296875l10.140625 5.640625l-10.140625 5.640625q-0.5625 0.296875 -0.828125 0.296875q-0.421875 0 -0.75 -0.3125q-0.3125 -0.3125 -0.3125 -0.765625q0 -0.359375 0.171875 -0.578125q0.171875 -0.21875 0.6875 -0.515625l6.796875 -3.765625zm8.3927 0l6.796875 3.765625q0.515625 0.296875 0.6875 0.515625q0.171875 0.21875 0.171875 0.578125q0 0.4375 -0.328125 0.765625q-0.3125 0.3125 -0.734375 0.3125q-0.28125 0 -0.828125 -0.296875l-10.140625 -5.640625l10.140625 -5.640625q0.546875 -0.296875 0.8125 -0.296875q0.4375 0 0.75 0.3125q0.328125 0.3125 0.328125 0.765625q0 0.34375 -0.171875 0.578125q-0.171875 0.21875 -0.6875 0.5l-6.796875 3.78125zm19.3302 -7.03125l-6.75 14.515625q-0.25 0.546875 -0.453125 0.703125q-0.265625 0.21875 -0.640625 0.21875q-0.4375 0 -0.75 -0.3125q-0.3125 -0.296875 -0.3125 -0.6875q0 -0.28125 0.25 -0.8125l6.75 -14.515625q0.265625 -0.546875 0.453125 -0.703125q0.28125 -0.21875 0.640625 -0.21875q0.4375 0 0.734375 0.3125q0.3125 0.296875 0.3125 0.6875q0 0.265625 -0.234375 0.8125zm8.470825 10.46875l2.265625 -4.65625q-0.84375 0 -1.078125 -0.15625q-0.5 -0.3125 -0.5 -0.90625q0 -0.453125 0.3125 -0.75q0.328125 -0.296875 1.078125 -0.296875l2.890625 0q0.75 0 1.078125 0.296875q0.328125 0.296875 0.328125 0.765625q0 0.453125 -0.328125 0.75q-0.328125 0.296875 -1.078125 0.296875l-0.34375 0l-3.53125 7.203125l-2.1875 0l-3.515625 -7.203125l-0.296875 0q-0.765625 0 -1.09375 -0.296875q-0.3125 -0.296875 -0.3125 -0.765625q0 -0.453125 0.3125 -0.75q0.328125 -0.296875 1.09375 -0.296875l2.8125 0q0.75 0 1.078125 0.296875q0.328125 0.296875 0.328125 0.765625q0 0.578125 -0.5 0.890625q-0.25 0.15625 -1.09375 0.15625l2.28125 4.65625zm17.189575 -2.453125l-8.78125 0l0 -1.921875l8.78125 0l0 1.921875zm11.67395 -3.9375q0.375 -0.359375 0.78125 -0.359375q0.453125 0 0.734375 0.328125q0.296875 0.328125 0.296875 1.078125l0 1.34375q0 0.765625 -0.296875 1.09375q-0.28125 0.3125 -0.75 0.3125q-0.4375 0 -0.734375 -0.25q-0.21875 -0.1875 -0.34375 -0.75q-0.125 -0.578125 -0.59375 -0.859375q-0.828125 -0.484375 -2.125 -0.484375q-1.484375 0 -2.390625 0.875q-0.890625 0.859375 -0.890625 2.203125q0 1.234375 0.859375 1.953125q0.875 0.703125 2.875 0.703125q1.3125 0 2.140625 -0.265625q0.484375 -0.171875 0.921875 -0.5625q0.453125 -0.390625 0.8125 -0.390625q0.421875 0 0.734375 0.3125q0.3125 0.3125 0.3125 0.75q0 0.703125 -0.953125 1.328125q-1.40625 0.921875 -4.140625 0.921875q-2.453125 0 -3.8125 -1.015625q-1.84375 -1.359375 -1.84375 -3.734375q0 -2.234375 1.484375 -3.703125q1.5 -1.484375 3.921875 -1.484375q0.859375 0 1.609375 0.171875q0.75 0.15625 1.390625 0.484375zm11.408325 8.9375l0 -0.5q-0.78125 0.421875 -1.734375 0.625q-0.953125 0.21875 -1.734375 0.21875q-1.6875 0 -2.75 -0.890625q-1.0625 -0.90625 -1.0625 -1.984375q0 -1.328125 1.34375 -2.453125q1.359375 -1.140625 3.734375 -1.140625q0.953125 0 2.203125 0.203125l0 -0.5q0 -0.46875 -0.40625 -0.765625q-0.390625 -0.296875 -1.53125 -0.296875q-0.9375 0 -2.421875 0.375q-0.5625 0.125 -0.859375 0.125q-0.421875 0 -0.71875 -0.296875q-0.296875 -0.3125 -0.296875 -0.78125q0 -0.265625 0.09375 -0.453125q0.109375 -0.203125 0.296875 -0.3125q0.1875 -0.125 0.78125 -0.28125q0.765625 -0.21875 1.578125 -0.34375q0.8125 -0.140625 1.46875 -0.140625q1.953125 0 3.03125 0.859375q1.09375 0.84375 1.09375 2.3125l0 4.3125l0.359375 0q0.75 0 1.078125 0.296875q0.328125 0.296875 0.328125 0.765625q0 0.46875 -0.328125 0.765625q-0.328125 0.28125 -1.078125 0.28125l-2.46875 0zm0 -3.765625q-1.25 -0.25 -2.328125 -0.25q-1.28125 0 -2.203125 0.625q-0.5625 0.40625 -0.5625 0.8125q0 0.296875 0.265625 0.484375q0.515625 0.34375 1.40625 0.34375q0.765625 0 1.71875 -0.296875q0.953125 -0.296875 1.703125 -0.8125l0 -0.90625zm10.470825 -5.546875l0 1.3125q1.328125 -0.953125 2.09375 -1.265625q0.765625 -0.328125 1.421875 -0.328125q1.03125 0 2.0 0.765625q0.65625 0.515625 0.65625 1.046875q0 0.453125 -0.3125 0.765625q-0.3125 0.3125 -0.75 0.3125q-0.390625 0 -0.828125 -0.390625q-0.4375 -0.390625 -0.765625 -0.390625q-0.4375 0 -1.328125 0.5625q-0.875 0.546875 -2.1875 1.65625l0 3.15625l3.0 0q0.765625 0 1.078125 0.296875q0.328125 0.296875 0.328125 0.765625q0 0.46875 -0.328125 0.765625q-0.3125 0.28125 -1.078125 0.28125l-6.34375 0q-0.765625 0 -1.09375 -0.28125q-0.3125 -0.296875 -0.3125 -0.78125q0 -0.453125 0.3125 -0.75q0.328125 -0.296875 1.09375 -0.296875l1.25 0l0 -5.09375l-0.765625 0q-0.75 0 -1.078125 -0.296875q-0.328125 -0.296875 -0.328125 -0.765625q0 -0.453125 0.328125 -0.75q0.328125 -0.296875 1.078125 -0.296875l2.859375 0zm18.064575 -3.984375l0 11.1875l0.359375 0q0.75 0 1.078125 0.296875q0.328125 0.296875 0.328125 0.765625q0 0.46875 -0.328125 0.765625q-0.3125 0.28125 -1.078125 0.28125l-2.453125 0l0 -0.515625q-0.71875 0.421875 -1.515625 0.640625q-0.78125 0.21875 -1.625 0.21875q-2.359375 0 -3.8125 -1.375q-1.4375 -1.375 -1.4375 -3.40625q0 -2.140625 1.515625 -3.640625q1.515625 -1.515625 3.703125 -1.515625q0.8125 0 1.59375 0.265625q0.796875 0.25 1.578125 0.75l0 -2.625l-0.359375 0q-0.765625 0 -1.09375 -0.28125q-0.3125 -0.296875 -0.3125 -0.765625q0 -0.46875 0.3125 -0.75q0.328125 -0.296875 1.09375 -0.296875l2.453125 0zm-2.09375 8.921875q0 -1.3125 -0.921875 -2.203125q-0.90625 -0.90625 -2.234375 -0.90625q-1.3125 0 -2.234375 0.90625q-0.90625 0.890625 -0.90625 2.171875q0 1.15625 0.8125 1.90625q0.828125 0.734375 2.328125 0.734375q1.484375 0 2.3125 -0.734375q0.84375 -0.75 0.84375 -1.875zm12.283325 -1.609375l-6.796875 -3.78125q-0.515625 -0.28125 -0.6875 -0.5q-0.171875 -0.234375 -0.171875 -0.578125q0 -0.453125 0.3125 -0.765625q0.328125 -0.3125 0.75 -0.3125q0.265625 0 0.828125 0.296875l10.140625 5.640625l-10.140625 5.640625q-0.5625 0.296875 -0.828125 0.296875q-0.421875 0 -0.75 -0.3125q-0.3125 -0.3125 -0.3125 -0.765625q0 -0.359375 0.171875 -0.578125q0.171875 -0.21875 0.6875 -0.515625l6.796875 -3.765625z" fill-rule="nonzero"></path><path fill="#000000" fill-opacity="0.0" d="m626.1417 90.7979l410.11023 0l0 132.18898l-410.11023 0z" fill-rule="nonzero"></path><path fill="#ffffff" d="m640.8605 128.4999l2.046875 -4.2031326q-0.765625 0 -0.96875 -0.140625q-0.46875 -0.28125 -0.46875 -0.828125q0 -0.40625 0.28125 -0.671875q0.296875 -0.265625 0.984375 -0.265625l2.609375 0q0.6875 0 0.96875 0.265625q0.296875 0.265625 0.296875 0.6875q0 0.421875 -0.296875 0.6875q-0.28125 0.265625 -0.96875 0.265625l-0.3125 0l-3.1875 6.5156326l-1.984375 0l-3.171875 -6.5156326l-0.28125 0q-0.6875 0 -0.984375 -0.265625q-0.28125 -0.265625 -0.28125 -0.703125q0 -0.40625 0.28125 -0.671875q0.296875 -0.265625 0.984375 -0.265625l2.5625 0q0.671875 0 0.953125 0.265625q0.296875 0.265625 0.296875 0.6875q0 0.53125 -0.4375 0.8125q-0.21875 0.140625 -1.0 0.140625l2.078125 4.2031326zm6.9299316 0.40625l0 -7.4375076q-0.609375 -0.015625 -0.90625 -0.265625q-0.28125 -0.265625 -0.28125 -0.6875q0 -0.421875 0.296875 -0.6875q0.296875 -0.265625 0.984375 -0.265625l3.96875 0q0.9375 0 1.8125 0.34375q0.890625 0.34375 1.4375 0.875q0.40625 0.40625 0.84375 1.109375q0.4375 0.6875 0.65625 1.375q0.234375 0.6875 0.234375 1.671875l0 0.90625q0 1.21875 -0.421875 2.15625q-0.40625 0.9218826 -1.078125 1.5156326q-0.65625 0.578125 -1.234375 0.859375q-0.921875 0.4375 -2.40625 0.4375l-3.8125 0q-0.6875 0 -0.984375 -0.265625q-0.296875 -0.265625 -0.296875 -0.6875q0 -0.421875 0.296875 -0.6875q0.296875 -0.265625 0.890625 -0.265625zm1.890625 0l2.03125 0q1.125 0 1.703125 -0.328125q0.75 -0.421875 1.125 -1.0781326q0.390625 -0.65625 0.390625 -1.703125l0 -0.90625q0 -0.890625 -0.34375 -1.578125q-0.546875 -1.046875 -1.21875 -1.4375q-0.671875 -0.40625 -1.671875 -0.40625l-2.015625 0l0 7.4375076zm15.258118 1.90625l0 -0.453125q-0.703125 0.390625 -1.578125 0.578125q-0.859375 0.1875 -1.5625 0.1875q-1.53125 0 -2.484375 -0.8125q-0.953125 -0.8125 -0.953125 -1.796875q0 -1.1875076 1.21875 -2.2031326q1.21875 -1.03125 3.375 -1.03125q0.859375 0 1.984375 0.171875l0 -0.453125q0 -0.421875 -0.359375 -0.6875q-0.359375 -0.265625 -1.390625 -0.265625q-0.84375 0 -2.203125 0.328125q-0.5 0.125 -0.765625 0.125q-0.390625 0 -0.65625 -0.265625q-0.265625 -0.28125 -0.265625 -0.71875q0 -0.234375 0.09375 -0.40625q0.09375 -0.1875 0.265625 -0.28125q0.171875 -0.109375 0.703125 -0.265625q0.703125 -0.1875 1.421875 -0.296875q0.734375 -0.125 1.328125 -0.125q1.78125 0 2.75 0.765625q0.984375 0.765625 0.984375 2.09375l0 3.9062576l0.328125 0q0.6875 0 0.96875 0.265625q0.296875 0.265625 0.296875 0.6875q0 0.421875 -0.296875 0.6875q-0.28125 0.265625 -0.96875 0.265625l-2.234375 0zm0 -3.4062576q-1.140625 -0.21875 -2.09375 -0.21875q-1.171875 0 -2.0 0.5625q-0.515625 0.35938263 -0.515625 0.7343826q0 0.265625 0.25 0.4375q0.453125 0.296875 1.265625 0.296875q0.6875 0 1.546875 -0.265625q0.875 -0.265625 1.546875 -0.734375l0 -0.8125076zm9.023682 -3.109375l0 3.8125076q0 0.609375 0.25 0.796875q0.390625 0.3125 1.390625 0.3125q1.453125 0 2.6875 -0.625q0.46875 -0.234375 0.75 -0.234375q0.359375 0 0.625 0.28125q0.28125 0.265625 0.28125 0.671875q0 0.375 -0.296875 0.640625q-0.453125 0.4375 -1.796875 0.8125q-1.328125 0.359375 -2.25 0.359375q-1.765625 0 -2.65625 -0.765625q-0.890625 -0.765625 -0.890625 -1.890625l0 -4.1718826l-0.6875 0q-0.6875 0 -0.984375 -0.265625q-0.28125 -0.265625 -0.28125 -0.703125q0 -0.40625 0.28125 -0.671875q0.296875 -0.265625 0.984375 -0.265625l0.6875 0l0 -1.71875q0 -0.6875 0.265625 -0.96875q0.265625 -0.296875 0.6875 -0.296875q0.421875 0 0.6875 0.296875q0.265625 0.28125 0.265625 0.96875l0 1.71875l3.515625 0q0.6875 0 0.96875 0.265625q0.296875 0.265625 0.296875 0.6875q0 0.421875 -0.296875 0.6875q-0.28125 0.265625 -0.96875 0.265625l-3.515625 0zm13.367432 6.5156326l0 -0.453125q-0.703125 0.390625 -1.578125 0.578125q-0.859375 0.1875 -1.5625 0.1875q-1.53125 0 -2.484375 -0.8125q-0.953125 -0.8125 -0.953125 -1.796875q0 -1.1875076 1.21875 -2.2031326q1.21875 -1.03125 3.375 -1.03125q0.859375 0 1.984375 0.171875l0 -0.453125q0 -0.421875 -0.359375 -0.6875q-0.359375 -0.265625 -1.390625 -0.265625q-0.84375 0 -2.203125 0.328125q-0.5 0.125 -0.765625 0.125q-0.390625 0 -0.65625 -0.265625q-0.265625 -0.28125 -0.265625 -0.71875q0 -0.234375 0.09375 -0.40625q0.09375 -0.1875 0.265625 -0.28125q0.171875 -0.109375 0.703125 -0.265625q0.703125 -0.1875 1.421875 -0.296875q0.734375 -0.125 1.328125 -0.125q1.78125 0 2.75 0.765625q0.984375 0.765625 0.984375 2.09375l0 3.9062576l0.328125 0q0.6875 0 0.96875 0.265625q0.296875 0.265625 0.296875 0.6875q0 0.421875 -0.296875 0.6875q-0.28125 0.265625 -0.96875 0.265625l-2.234375 0zm0 -3.4062576q-1.140625 -0.21875 -2.09375 -0.21875q-1.171875 0 -2.0 0.5625q-0.515625 0.35938263 -0.515625 0.7343826q0 0.265625 0.25 0.4375q0.453125 0.296875 1.265625 0.296875q0.6875 0 1.546875 -0.265625q0.875 -0.265625 1.546875 -0.734375l0 -0.8125076zm24.766174 -2.84375l-8.125 0q-0.6875 0 -0.984375 -0.265625q-0.296875 -0.265625 -0.296875 -0.6875q0 -0.421875 0.296875 -0.6875q0.296875 -0.265625 0.984375 -0.265625l8.125 0q0.6875 0 0.96875 0.265625q0.296875 0.265625 0.296875 0.6875q0 0.421875 -0.296875 0.6875q-0.28125 0.265625 -0.96875 0.265625zm0 3.5781326l-8.125 0q-0.6875 0 -0.984375 -0.25000763q-0.296875 -0.265625 -0.296875 -0.703125q0 -0.421875 0.296875 -0.6875q0.296875 -0.265625 0.984375 -0.265625l8.125 0q0.6875 0 0.96875 0.265625q0.296875 0.265625 0.296875 0.6875q0 0.4375 -0.296875 0.703125q-0.28125 0.25000763 -0.96875 0.25000763zm18.703613 -1.9375076q0.328125 0.375 0.4375 0.734375q0.125 0.359375 0.125 1.1562576l0 3.03125q0 0.375 0.140625 0.53125q0.15625 0.171875 0.546875 0.203125q0.390625 0.03125 0.640625 0.296875q0.25 0.265625 0.25 0.65625q0 0.40625 -0.296875 0.6875q-0.28125 0.28125 -0.703125 0.28125q-0.625 0 -1.203125 -0.328125q-0.578125 -0.328125 -1.0 -1.078125q-0.265625 -0.484375 -0.265625 -1.109375l0 -3.3593826q0 -0.390625 -0.140625 -0.53125q-0.125 -0.15625 -0.5625 -0.203125q-0.421875 -0.0625 -0.65625 -0.3125q-0.21875 -0.25 -0.21875 -0.65625q0 -0.421875 0.21875 -0.671875q0.234375 -0.25 0.671875 -0.296875q0.4375 -0.046875 0.53125 -0.171875q0.15625 -0.1875 0.15625 -0.578125l0 -3.171875q0 -1.015625 0.734375 -1.765625q0.75 -0.75 1.71875 -0.75q0.4375 0 0.71875 0.28125q0.296875 0.28125 0.296875 0.6875q0 0.375 -0.25 0.65625q-0.25 0.265625 -0.65625 0.296875q-0.390625 0.03125 -0.5 0.171875q-0.171875 0.1875 -0.171875 0.5625l0 3.03125q0 0.640625 -0.125 1.0q-0.125 0.34375 -0.4375 0.71875z" fill-rule="nonzero"></path><path fill="#ffffff" d="m661.31415 144.39052l0 0.640625q0.515625 -0.453125 1.140625 -0.671875q0.625 -0.21875 1.359375 -0.21875q1.6875 0 2.671875 1.046875q0.78125 0.828125 0.78125 2.1875l0 3.53125q0.59375 0 0.875 0.265625q0.296875 0.265625 0.296875 0.6875q0 0.421875 -0.296875 0.6875q-0.28125 0.265625 -0.96875 0.265625l-1.71875 0q-0.6875 0 -0.984375 -0.265625q-0.28125 -0.265625 -0.28125 -0.6875q0 -0.421875 0.28125 -0.6875q0.296875 -0.265625 0.890625 -0.265625l0 -3.59375q0 -0.609375 -0.328125 -0.90625q-0.4375 -0.359375 -1.3125 -0.359375q-0.65625 0 -1.15625 0.25q-0.5 0.25 -1.25 1.078125l0 3.53125q0.734375 0 0.9375 0.140625q0.453125 0.28125 0.453125 0.8125q0 0.421875 -0.296875 0.6875q-0.28125 0.265625 -0.96875 0.265625l-2.15625 0q-0.6875 0 -0.984375 -0.265625q-0.296875 -0.265625 -0.296875 -0.6875q0 -0.515625 0.453125 -0.8125q0.21875 -0.140625 0.953125 -0.140625l0 -4.609375q-0.609375 0 -0.890625 -0.265625q-0.28125 -0.28125 -0.28125 -0.703125q0 -0.40625 0.28125 -0.671875q0.296875 -0.265625 0.984375 -0.265625l1.8125 0zm14.820557 8.421875l0 -0.453125q-0.703125 0.390625 -1.578125 0.578125q-0.859375 0.1875 -1.5625 0.1875q-1.53125 0 -2.484375 -0.8125q-0.953125 -0.8125 -0.953125 -1.796875q0 -1.1875 1.21875 -2.203125q1.21875 -1.03125 3.375 -1.03125q0.859375 0 1.984375 0.171875l0 -0.453125q0 -0.421875 -0.359375 -0.6875q-0.359375 -0.265625 -1.390625 -0.265625q-0.84375 0 -2.203125 0.328125q-0.5 0.125 -0.765625 0.125q-0.390625 0 -0.65625 -0.265625q-0.265625 -0.28125 -0.265625 -0.71875q0 -0.234375 0.09375 -0.40625q0.09375 -0.1875 0.265625 -0.28125q0.171875 -0.109375 0.703125 -0.265625q0.703125 -0.1875 1.421875 -0.296875q0.734375 -0.125 1.328125 -0.125q1.78125 0 2.75 0.765625q0.984375 0.765625 0.984375 2.09375l0 3.90625l0.328125 0q0.6875 0 0.96875 0.265625q0.296875 0.265625 0.296875 0.6875q0 0.421875 -0.296875 0.6875q-0.28125 0.265625 -0.96875 0.265625l-2.234375 0zm0 -3.40625q-1.140625 -0.21875 -2.09375 -0.21875q-1.171875 0 -2.0 0.5625q-0.515625 0.359375 -0.515625 0.734375q0 0.265625 0.25 0.4375q0.453125 0.296875 1.265625 0.296875q0.6875 0 1.546875 -0.265625q0.875 -0.265625 1.546875 -0.734375l0 -0.8125zm6.5549316 -5.015625l0 0.53125q0.46875 -0.453125 0.84375 -0.625q0.375 -0.171875 0.859375 -0.171875q0.421875 0 0.828125 0.203125q0.40625 0.203125 0.796875 0.609375q0.5 -0.40625 1.0 -0.59375q0.5 -0.203125 1.03125 -0.203125q1.0625 0 1.71875 0.5625q0.875 0.75 0.875 1.953125l0 4.25q0.59375 0 0.875 0.28125q0.296875 0.265625 0.296875 0.671875q0 0.421875 -0.296875 0.6875q-0.28125 0.265625 -0.96875 0.265625l-1.8125 0l0 -6.0q0 -0.4375 -0.15625 -0.59375q-0.15625 -0.171875 -0.484375 -0.171875q-0.3125 0 -0.578125 0.15625q-0.34375 0.234375 -0.84375 0.875l0 3.828125q0.59375 0 0.875 0.28125q0.296875 0.265625 0.296875 0.671875q0 0.421875 -0.296875 0.6875q-0.28125 0.265625 -0.96875 0.265625l-1.796875 0l0 -6.0q0 -0.421875 -0.171875 -0.59375q-0.15625 -0.171875 -0.484375 -0.171875q-0.328125 0 -0.65625 0.203125q-0.328125 0.203125 -0.78125 0.828125l0 3.828125q0.59375 0 0.875 0.28125q0.296875 0.265625 0.296875 0.671875q0 0.421875 -0.296875 0.6875q-0.28125 0.265625 -0.96875 0.265625l-1.71875 0q-0.6875 0 -0.96875 -0.265625q-0.296875 -0.265625 -0.296875 -0.6875q0 -0.421875 0.296875 -0.6875q0.28125 -0.265625 0.875 -0.265625l0 -4.609375q-0.59375 0 -0.875 -0.265625q-0.296875 -0.28125 -0.296875 -0.703125q0 -0.40625 0.296875 -0.671875q0.28125 -0.265625 0.96875 -0.265625l1.8125 0zm18.898682 5.171875l-7.796875 0q0.296875 0.75 1.046875 1.203125q0.765625 0.453125 2.046875 0.453125q1.0625 0 2.8125 -0.453125q0.734375 -0.1875 1.0 -0.1875q0.390625 0 0.640625 0.265625q0.265625 0.265625 0.265625 0.671875q0 0.375 -0.28125 0.640625q-0.375 0.34375 -1.8125 0.65625q-1.4375 0.3125 -2.765625 0.3125q-2.28125 0 -3.65625 -1.28125q-1.359375 -1.296875 -1.359375 -3.1875q0 -2.0 1.484375 -3.25q1.484375 -1.265625 3.40625 -1.265625q1.15625 0 2.125 0.40625q0.96875 0.40625 1.453125 0.875q0.65625 0.6875 1.09375 1.703125q0.296875 0.703125 0.296875 1.640625l0 0.796875zm-2.09375 -1.90625q-0.4375 -0.8125 -1.15625 -1.203125q-0.703125 -0.40625 -1.671875 -0.40625q-0.96875 0 -1.671875 0.40625q-0.703125 0.390625 -1.140625 1.203125l5.640625 0zm9.961243 -2.0q0 0.546875 -0.390625 0.90625q-0.375 0.359375 -1.046875 0.359375q-0.671875 0 -1.046875 -0.359375q-0.375 -0.359375 -0.375 -0.90625q0 -0.53125 0.375 -0.890625q0.375 -0.375 1.046875 -0.375q0.671875 0 1.046875 0.375q0.390625 0.359375 0.390625 0.890625zm0.015625 6.234375q0 0.53125 -0.390625 0.890625q-0.375 0.359375 -1.046875 0.359375q-0.65625 0 -1.046875 -0.359375q-0.375 -0.359375 -0.375 -0.890625q0 -0.546875 0.375 -0.90625q0.390625 -0.359375 1.046875 -0.359375q0.671875 0 1.046875 0.359375q0.390625 0.359375 0.390625 0.90625zm19.969238 -10.703125l2.546875 0l1.296875 4.71875q0.078125 0.25 0.078125 0.390625q0 0.1875 -0.171875 0.34375q-0.171875 0.15625 -0.40625 0.15625q-0.375 0 -0.625 -0.453125l-2.71875 -5.15625zm15.148682 0.859375q0.171875 -0.234375 0.375 -0.359375q0.21875 -0.125 0.453125 -0.125q0.421875 0 0.6875 0.296875q0.265625 0.28125 0.265625 0.96875l0 1.609375q0 0.6875 -0.265625 0.984375q-0.265625 0.296875 -0.6875 0.296875q-0.375 0 -0.609375 -0.21875q-0.234375 -0.21875 -0.34375 -0.796875q-0.0625 -0.390625 -0.265625 -0.609375q-0.375 -0.40625 -1.0625 -0.65625q-0.671875 -0.25 -1.359375 -0.25q-0.859375 0 -1.578125 0.375q-0.703125 0.359375 -1.25 1.203125q-0.546875 0.828125 -0.546875 1.984375l0 1.234375q0 1.375 0.984375 2.296875q1.0 0.90625 2.78125 0.90625q1.046875 0 1.78125 -0.28125q0.4375 -0.171875 0.921875 -0.65625q0.296875 -0.296875 0.453125 -0.390625q0.171875 -0.09375 0.390625 -0.09375q0.375 0 0.65625 0.296875q0.296875 0.28125 0.296875 0.671875q0 0.390625 -0.390625 0.828125q-0.5625 0.65625 -1.453125 1.03125q-1.203125 0.5 -2.65625 0.5q-1.6875 0 -3.03125 -0.703125q-1.09375 -0.546875 -1.875 -1.75q-0.765625 -1.203125 -0.765625 -2.625l0 -1.296875q0 -1.484375 0.6875 -2.765625q0.6875 -1.28125 1.90625 -1.96875q1.234375 -0.703125 2.609375 -0.703125q0.828125 0 1.546875 0.1875q0.71875 0.1875 1.34375 0.578125zm6.2424927 -1.265625l0 4.046875q0.59375 -0.34375 1.203125 -0.515625q0.609375 -0.171875 1.234375 -0.171875q0.984375 0 1.75 0.34375q0.765625 0.328125 1.265625 1.046875q0.515625 0.71875 0.515625 1.8125l0 3.5625q0.71875 0 0.953125 0.140625q0.4375 0.296875 0.4375 0.8125q0 0.421875 -0.296875 0.6875q-0.28125 0.265625 -0.96875 0.265625l-2.171875 0q-0.671875 0 -0.96875 -0.265625q-0.28125 -0.265625 -0.28125 -0.6875q0 -0.515625 0.4375 -0.8125q0.234375 -0.140625 0.953125 -0.140625l0 -3.4375q0 -0.734375 -0.34375 -1.03125q-0.4375 -0.390625 -1.28125 -0.390625q-0.640625 0 -1.125 0.25q-0.484375 0.234375 -1.3125 1.046875l0 3.5625q0.734375 0 0.953125 0.140625q0.453125 0.296875 0.453125 0.8125q0 0.421875 -0.296875 0.6875q-0.28125 0.265625 -0.96875 0.265625l-2.171875 0q-0.6875 0 -0.984375 -0.265625q-0.28125 -0.265625 -0.28125 -0.6875q0 -0.515625 0.453125 -0.8125q0.21875 -0.140625 0.953125 -0.140625l0 -8.21875l-0.328125 0q-0.6875 0 -0.984375 -0.265625q-0.296875 -0.265625 -0.296875 -0.703125q0 -0.40625 0.296875 -0.671875q0.296875 -0.265625 0.984375 -0.265625l2.21875 0zm12.773682 3.609375l0 1.1875q1.1875 -0.859375 1.875 -1.140625q0.703125 -0.296875 1.296875 -0.296875q0.9375 0 1.796875 0.6875q0.59375 0.453125 0.59375 0.9375q0 0.40625 -0.28125 0.703125q-0.28125 0.28125 -0.671875 0.28125q-0.359375 0 -0.75 -0.34375q-0.390625 -0.359375 -0.6875 -0.359375q-0.40625 0 -1.203125 0.5q-0.78125 0.5 -1.96875 1.5l0 2.859375l2.703125 0q0.6875 0 0.96875 0.265625q0.296875 0.265625 0.296875 0.6875q0 0.421875 -0.296875 0.6875q-0.28125 0.265625 -0.96875 0.265625l-5.75 0q-0.671875 0 -0.96875 -0.265625q-0.296875 -0.265625 -0.296875 -0.6875q0 -0.421875 0.296875 -0.6875q0.296875 -0.265625 0.96875 -0.265625l1.140625 0l0 -4.609375l-0.6875 0q-0.6875 0 -0.984375 -0.265625q-0.28125 -0.265625 -0.28125 -0.703125q0 -0.40625 0.28125 -0.671875q0.296875 -0.265625 0.984375 -0.265625l2.59375 0zm12.273682 -3.609375l0 2.015625l-2.265625 0l0 -2.015625l2.265625 0zm0.25 3.609375l0 6.515625l2.28125 0q0.6875 0 0.984375 0.265625q0.296875 0.265625 0.296875 0.6875q0 0.421875 -0.296875 0.6875q-0.296875 0.265625 -0.984375 0.265625l-6.46875 0q-0.6875 0 -0.984375 -0.265625q-0.28125 -0.265625 -0.28125 -0.6875q0 -0.421875 0.28125 -0.6875q0.296875 -0.265625 0.984375 -0.265625l2.28125 0l0 -4.609375l-1.53125 0q-0.671875 0 -0.96875 -0.265625q-0.296875 -0.265625 -0.296875 -0.703125q0 -0.40625 0.296875 -0.671875q0.296875 -0.265625 0.96875 -0.265625l3.4375 0zm12.304932 2.21875q-0.453125 -0.28125 -0.96875 -0.421875q-0.515625 -0.140625 -1.0625 -0.140625q-1.109375 0 -1.75 0.359375q-0.296875 0.15625 -0.296875 0.34375q0 0.203125 0.390625 0.40625q0.296875 0.15625 1.328125 0.296875q1.890625 0.25 2.640625 0.515625q0.96875 0.34375 1.5 1.03125q0.53125 0.671875 0.53125 1.421875q0 1.015625 -0.90625 1.703125q-1.28125 1.0 -3.34375 1.0q-0.828125 0 -1.53125 -0.15625q-0.703125 -0.140625 -1.28125 -0.421875q-0.140625 0.125 -0.296875 0.1875q-0.15625 0.0625 -0.328125 0.0625q-0.4375 0 -0.703125 -0.28125q-0.265625 -0.296875 -0.265625 -0.984375l0 -0.640625q0 -0.6875 0.265625 -0.96875q0.265625 -0.296875 0.6875 -0.296875q0.34375 0 0.5625 0.1875q0.234375 0.1875 0.375 0.65625q0.4375 0.375 1.046875 0.5625q0.609375 0.1875 1.40625 0.1875q1.3125 0 2.03125 -0.40625q0.34375 -0.203125 0.34375 -0.4375q0 -0.359375 -0.484375 -0.609375q-0.5 -0.234375 -2.03125 -0.40625q-2.296875 -0.234375 -3.0625 -0.921875q-0.78125 -0.6875 -0.78125 -1.671875q0 -1.015625 0.875 -1.703125q1.15625 -0.921875 3.0625 -0.921875q0.65625 0 1.265625 0.125q0.609375 0.125 1.15625 0.375q0.171875 -0.125 0.328125 -0.1875q0.15625 -0.0625 0.28125 -0.0625q0.390625 0 0.65625 0.296875q0.265625 0.28125 0.265625 0.96875l0 0.46875q0 0.625 -0.15625 0.84375q-0.296875 0.421875 -0.8125 0.421875q-0.34375 0 -0.609375 -0.203125q-0.25 -0.21875 -0.328125 -0.578125zm8.679993 -0.3125l0 3.8125q0 0.609375 0.25 0.796875q0.390625 0.3125 1.390625 0.3125q1.453125 0 2.6875 -0.625q0.46875 -0.234375 0.75 -0.234375q0.359375 0 0.625 0.28125q0.28125 0.265625 0.28125 0.671875q0 0.375 -0.296875 0.640625q-0.453125 0.4375 -1.796875 0.8125q-1.328125 0.359375 -2.25 0.359375q-1.765625 0 -2.65625 -0.765625q-0.890625 -0.765625 -0.890625 -1.890625l0 -4.171875l-0.6875 0q-0.6875 0 -0.984375 -0.265625q-0.28125 -0.265625 -0.28125 -0.703125q0 -0.40625 0.28125 -0.671875q0.296875 -0.265625 0.984375 -0.265625l0.6875 0l0 -1.71875q0 -0.6875 0.265625 -0.96875q0.265625 -0.296875 0.6875 -0.296875q0.421875 0 0.6875 0.296875q0.265625 0.28125 0.265625 0.96875l0 1.71875l3.515625 0q0.6875 0 0.96875 0.265625q0.296875 0.265625 0.296875 0.6875q0 0.421875 -0.296875 0.6875q-0.28125 0.265625 -0.96875 0.265625l-3.515625 0zm16.601807 2.46875q0 1.09375 -0.609375 2.125q-0.609375 1.015625 -1.8125 1.625q-1.203125 0.609375 -2.5 0.609375q-1.296875 0 -2.484375 -0.59375q-1.1875 -0.609375 -1.8125 -1.640625q-0.625 -1.03125 -0.625 -2.15625q0 -1.140625 0.625 -2.234375q0.640625 -1.09375 1.8125 -1.71875q1.1875 -0.640625 2.484375 -0.640625q1.296875 0 2.5 0.640625q1.203125 0.640625 1.8125 1.734375q0.609375 1.09375 0.609375 2.25zm-1.90625 0q0 -0.921875 -0.65625 -1.6875q-0.890625 -1.03125 -2.359375 -1.03125q-1.296875 0 -2.15625 0.828125q-0.859375 0.8125 -0.859375 1.90625q0 0.890625 0.859375 1.671875q0.875 0.765625 2.15625 0.765625q1.28125 0 2.140625 -0.765625q0.875 -0.78125 0.875 -1.6875zm5.8049316 3.0l0 3.109375l1.140625 0q0.6875 0 0.96875 0.265625q0.296875 0.265625 0.296875 0.703125q0 0.40625 -0.296875 0.671875q-0.28125 0.265625 -0.96875 0.265625l-3.375 0q-0.6875 0 -0.984375 -0.265625q-0.28125 -0.265625 -0.28125 -0.671875q0 -0.4375 0.296875 -0.703125q0.296875 -0.265625 0.96875 -0.265625l0.328125 0l0 -8.578125l-0.328125 0q-0.6875 0 -0.984375 -0.265625q-0.28125 -0.265625 -0.28125 -0.703125q0 -0.40625 0.28125 -0.671875q0.296875 -0.265625 0.984375 -0.265625l2.234375 0l0 0.640625q0.671875 -0.453125 1.375 -0.671875q0.71875 -0.21875 1.46875 -0.21875q1.953125 0 3.3125 1.328125q1.375 1.3125 1.375 3.015625q0 1.890625 -1.609375 3.109375q-1.359375 1.03125 -3.0625 1.03125q-0.734375 0 -1.453125 -0.21875q-0.703125 -0.21875 -1.40625 -0.640625zm5.640625 -3.265625q0 -0.40625 -0.328125 -1.015625q-0.3125 -0.625 -0.96875 -1.03125q-0.640625 -0.40625 -1.53125 -0.40625q-1.421875 0 -2.25 1.0625q-0.5625 0.734375 -0.5625 1.40625q0 0.765625 0.8125 1.484375q0.8125 0.71875 2.0 0.71875q1.203125 0 2.015625 -0.71875q0.8125 -0.71875 0.8125 -1.5zm5.9455566 -7.71875l0 4.046875q0.59375 -0.34375 1.203125 -0.515625q0.609375 -0.171875 1.234375 -0.171875q0.984375 0 1.75 0.34375q0.765625 0.328125 1.265625 1.046875q0.515625 0.71875 0.515625 1.8125l0 3.5625q0.71875 0 0.953125 0.140625q0.4375 0.296875 0.4375 0.8125q0 0.421875 -0.296875 0.6875q-0.28125 0.265625 -0.96875 0.265625l-2.171875 0q-0.671875 0 -0.96875 -0.265625q-0.28125 -0.265625 -0.28125 -0.6875q0 -0.515625 0.4375 -0.8125q0.234375 -0.140625 0.953125 -0.140625l0 -3.4375q0 -0.734375 -0.34375 -1.03125q-0.4375 -0.390625 -1.28125 -0.390625q-0.640625 0 -1.125 0.25q-0.484375 0.234375 -1.3125 1.046875l0 3.5625q0.734375 0 0.953125 0.140625q0.453125 0.296875 0.453125 0.8125q0 0.421875 -0.296875 0.6875q-0.28125 0.265625 -0.96875 0.265625l-2.171875 0q-0.6875 0 -0.984375 -0.265625q-0.28125 -0.265625 -0.28125 -0.6875q0 -0.515625 0.453125 -0.8125q0.21875 -0.140625 0.953125 -0.140625l0 -8.21875l-0.328125 0q-0.6875 0 -0.984375 -0.265625q-0.296875 -0.265625 -0.296875 -0.703125q0 -0.40625 0.296875 -0.671875q0.296875 -0.265625 0.984375 -0.265625l2.21875 0zm20.4693 10.125l0 -7.4375l-0.296875 0q-0.6875 0 -0.984375 -0.265625q-0.28125 -0.265625 -0.28125 -0.6875q0 -0.421875 0.28125 -0.6875q0.296875 -0.265625 0.984375 -0.265625l4.78125 0q1.703125 0 2.734375 0.953125q1.046875 0.9375 1.046875 2.25q0 0.625 -0.25 1.171875q-0.234375 0.546875 -0.734375 1.015625q0.90625 0.53125 1.359375 1.25q0.453125 0.71875 0.453125 1.625q0 0.734375 -0.328125 1.34375q-0.25 0.484375 -0.59375 0.765625q-0.46875 0.390625 -1.15625 0.640625q-0.6875 0.234375 -1.71875 0.234375l-5.59375 0q-0.6875 0 -0.984375 -0.265625q-0.28125 -0.265625 -0.28125 -0.6875q0 -0.421875 0.296875 -0.6875q0.296875 -0.265625 0.96875 -0.265625l0.296875 0zm1.90625 -4.671875l2.09375 0q1.125 0 1.859375 -0.5625q0.5 -0.390625 0.5 -0.953125q0 -0.5 -0.46875 -0.875q-0.46875 -0.375 -1.5 -0.375l-2.484375 0l0 2.765625zm0 4.671875l3.28125 0q1.171875 0 1.640625 -0.34375q0.359375 -0.25 0.359375 -0.734375q0 -0.578125 -0.71875 -1.125q-0.703125 -0.5625 -2.046875 -0.5625l-2.515625 0l0 2.765625zm17.211182 -6.515625l0 6.515625q0.609375 0 0.890625 0.28125q0.296875 0.265625 0.296875 0.671875q0 0.421875 -0.296875 0.6875q-0.296875 0.265625 -0.96875 0.265625l-1.8125 0l0 -0.4375q-0.828125 0.375 -1.578125 0.5625q-0.734375 0.1875 -1.390625 0.1875q-0.9375 0 -1.625 -0.390625q-0.6875 -0.40625 -1.09375 -1.09375q-0.28125 -0.5 -0.28125 -1.265625l0 -4.078125l-0.328125 0q-0.6875 0 -0.984375 -0.265625q-0.28125 -0.265625 -0.28125 -0.703125q0 -0.40625 0.28125 -0.671875q0.296875 -0.265625 0.984375 -0.265625l2.234375 0l0 5.65625q0 0.609375 0.28125 0.890625q0.296875 0.28125 0.90625 0.28125q0.5625 0 1.21875 -0.21875q0.671875 -0.234375 1.65625 -0.828125l0 -3.875l-0.6875 0q-0.6875 0 -0.984375 -0.265625q-0.296875 -0.265625 -0.296875 -0.703125q0 -0.40625 0.296875 -0.671875q0.296875 -0.265625 0.984375 -0.265625l2.578125 0zm6.7736816 0l0 1.1875q1.1875 -0.859375 1.875 -1.140625q0.703125 -0.296875 1.296875 -0.296875q0.9375 0 1.796875 0.6875q0.59375 0.453125 0.59375 0.9375q0 0.40625 -0.28125 0.703125q-0.28125 0.28125 -0.671875 0.28125q-0.359375 0 -0.75 -0.34375q-0.390625 -0.359375 -0.6875 -0.359375q-0.40625 0 -1.203125 0.5q-0.78125 0.5 -1.96875 1.5l0 2.859375l2.703125 0q0.6875 0 0.96875 0.265625q0.296875 0.265625 0.296875 0.6875q0 0.421875 -0.296875 0.6875q-0.28125 0.265625 -0.96875 0.265625l-5.75 0q-0.671875 0 -0.96875 -0.265625q-0.296875 -0.265625 -0.296875 -0.6875q0 -0.421875 0.296875 -0.6875q0.296875 -0.265625 0.96875 -0.265625l1.140625 0l0 -4.609375l-0.6875 0q-0.6875 0 -0.984375 -0.265625q-0.28125 -0.265625 -0.28125 -0.703125q0 -0.40625 0.28125 -0.671875q0.296875 -0.265625 0.984375 -0.265625l2.59375 0zm13.679993 0.5625l0 -0.5625l2.21875 0q0.6875 0 0.984375 0.265625q0.296875 0.265625 0.296875 0.6875q0 0.421875 -0.296875 0.6875q-0.296875 0.265625 -0.984375 0.265625l-0.328125 0l0 6.921875q0 1.0 -0.421875 1.734375q-0.421875 0.75 -1.296875 1.28125q-0.859375 0.546875 -1.953125 0.546875l-2.15625 0q-0.6875 0 -0.984375 -0.265625q-0.28125 -0.265625 -0.28125 -0.671875q0 -0.4375 0.28125 -0.703125q0.296875 -0.265625 0.984375 -0.265625l2.09375 0q0.875 0 1.359375 -0.46875q0.484375 -0.46875 0.484375 -1.1875l0 -0.9375q-0.640625 0.40625 -1.296875 0.609375q-0.640625 0.203125 -1.328125 0.203125q-1.9375 0 -3.25 -1.28125q-1.3125 -1.296875 -1.3125 -3.203125q0 -1.90625 1.3125 -3.203125q1.3125 -1.296875 3.25 -1.296875q0.71875 0 1.375 0.21875q0.65625 0.203125 1.25 0.625zm-0.015625 3.640625q0 -1.046875 -0.78125 -1.8125q-0.765625 -0.765625 -1.84375 -0.765625q-1.09375 0 -1.875 0.765625q-0.765625 0.765625 -0.765625 1.8125q0 1.0625 0.765625 1.828125q0.78125 0.765625 1.875 0.765625q1.078125 0 1.84375 -0.765625q0.78125 -0.765625 0.78125 -1.828125zm13.476807 -7.8125l0 10.125l0.328125 0q0.671875 0 0.96875 0.265625q0.296875 0.265625 0.296875 0.6875q0 0.421875 -0.296875 0.6875q-0.28125 0.265625 -0.96875 0.265625l-2.21875 0l0 -0.46875q-0.65625 0.390625 -1.375 0.578125q-0.703125 0.203125 -1.46875 0.203125q-2.140625 0 -3.453125 -1.234375q-1.296875 -1.25 -1.296875 -3.09375q0 -1.9375 1.375 -3.296875q1.375 -1.359375 3.34375 -1.359375q0.75 0 1.453125 0.234375q0.71875 0.21875 1.421875 0.671875l0 -2.359375l-0.328125 0q-0.6875 0 -0.984375 -0.265625q-0.296875 -0.265625 -0.296875 -0.6875q0 -0.421875 0.296875 -0.6875q0.296875 -0.265625 0.984375 -0.265625l2.21875 0zm-1.890625 8.0625q0 -1.171875 -0.828125 -1.984375q-0.828125 -0.8125 -2.03125 -0.8125q-1.1875 0 -2.015625 0.8125q-0.8125 0.8125 -0.8125 1.96875q0 1.046875 0.734375 1.71875q0.75 0.671875 2.09375 0.671875q1.34375 0 2.09375 -0.671875q0.765625 -0.671875 0.765625 -1.703125zm13.664307 -0.078125q0 1.09375 -0.609375 2.125q-0.609375 1.015625 -1.8125 1.625q-1.203125 0.609375 -2.5 0.609375q-1.296875 0 -2.484375 -0.59375q-1.1875 -0.609375 -1.8125 -1.640625q-0.625 -1.03125 -0.625 -2.15625q0 -1.140625 0.625 -2.234375q0.640625 -1.09375 1.8125 -1.71875q1.1875 -0.640625 2.484375 -0.640625q1.296875 0 2.5 0.640625q1.203125 0.640625 1.8125 1.734375q0.609375 1.09375 0.609375 2.25zm-1.90625 0q0 -0.921875 -0.65625 -1.6875q-0.890625 -1.03125 -2.359375 -1.03125q-1.296875 0 -2.15625 0.828125q-0.859375 0.8125 -0.859375 1.90625q0 0.890625 0.859375 1.671875q0.875 0.765625 2.15625 0.765625q1.28125 0 2.140625 -0.765625q0.875 -0.78125 0.875 -1.6875zm7.7736816 -4.375l0 1.1875q1.1875 -0.859375 1.875 -1.140625q0.703125 -0.296875 1.296875 -0.296875q0.9375 0 1.796875 0.6875q0.59375 0.453125 0.59375 0.9375q0 0.40625 -0.28125 0.703125q-0.28125 0.28125 -0.671875 0.28125q-0.359375 0 -0.75 -0.34375q-0.390625 -0.359375 -0.6875 -0.359375q-0.40625 0 -1.203125 0.5q-0.78125 0.5 -1.96875 1.5l0 2.859375l2.703125 0q0.6875 0 0.96875 0.265625q0.296875 0.265625 0.296875 0.6875q0 0.421875 -0.296875 0.6875q-0.28125 0.265625 -0.96875 0.265625l-5.75 0q-0.671875 0 -0.96875 -0.265625q-0.296875 -0.265625 -0.296875 -0.6875q0 -0.421875 0.296875 -0.6875q0.296875 -0.265625 0.96875 -0.265625l1.140625 0l0 -4.609375l-0.6875 0q-0.6875 0 -0.984375 -0.265625q-0.28125 -0.265625 -0.28125 -0.703125q0 -0.40625 0.28125 -0.671875q0.296875 -0.265625 0.984375 -0.265625l2.59375 0zm11.570557 1.90625l0 4.609375l2.703125 0q0.6875 0 0.984375 0.265625q0.296875 0.265625 0.296875 0.6875q0 0.421875 -0.296875 0.6875q-0.296875 0.265625 -0.984375 0.265625l-5.734375 0q-0.6875 0 -0.984375 -0.265625q-0.296875 -0.265625 -0.296875 -0.6875q0 -0.421875 0.296875 -0.6875q0.296875 -0.265625 0.984375 -0.265625l1.125 0l0 -4.609375l-0.90625 0q-0.6875 0 -0.984375 -0.265625q-0.28125 -0.265625 -0.28125 -0.703125q0 -0.40625 0.28125 -0.671875q0.296875 -0.265625 0.984375 -0.265625l0.90625 0l0 -0.71875q0 -1.25 0.9375 -2.0625q0.9375 -0.828125 2.703125 -0.828125q0.78125 0 1.8125 0.140625q1.046875 0.140625 1.328125 0.40625q0.296875 0.265625 0.296875 0.671875q0 0.4375 -0.265625 0.71875q-0.25 0.265625 -0.625 0.265625q-0.1875 0 -0.53125 -0.078125q-1.1875 -0.21875 -2.09375 -0.21875q-0.9375 0 -1.296875 0.28125q-0.359375 0.28125 -0.359375 0.703125l0 0.71875l2.9375 0q0.6875 0 0.96875 0.265625q0.296875 0.265625 0.296875 0.6875q0 0.421875 -0.296875 0.6875q-0.28125 0.265625 -0.96875 0.265625l-2.9375 0zm9.633057 -5.109375l2.546875 0l-2.734375 5.15625q-0.25 0.453125 -0.609375 0.453125q-0.234375 0 -0.40625 -0.15625q-0.171875 -0.15625 -0.171875 -0.34375q0 -0.140625 0.0625 -0.390625l1.3125 -4.71875zm12.320557 9.0625l2.546875 0l-2.734375 5.15625q-0.25 0.453125 -0.609375 0.453125q-0.234375 0 -0.40625 -0.15625q-0.171875 -0.15625 -0.171875 -0.34375q0 -0.140625 0.0625 -0.390625l1.3125 -4.71875z" fill-rule="nonzero"></path><path fill="#ffffff" d="m668.00165 171.5624l-7.796875 0q0.296875 0.75 1.046875 1.203125q0.765625 0.453125 2.046875 0.453125q1.0625 0 2.8125 -0.453125q0.734375 -0.1875 1.0 -0.1875q0.390625 0 0.640625 0.265625q0.265625 0.265625 0.265625 0.671875q0 0.375 -0.28125 0.640625q-0.375 0.34375 -1.8125 0.65625q-1.4375 0.3125 -2.765625 0.3125q-2.28125 0 -3.65625 -1.28125q-1.359375 -1.296875 -1.359375 -3.1875q0 -2.0 1.484375 -3.25q1.484375 -1.265625 3.40625 -1.265625q1.15625 0 2.125 0.40625q0.96875 0.40625 1.453125 0.875q0.65625 0.6875 1.09375 1.703125q0.296875 0.703125 0.296875 1.640625l0 0.796875zm-2.09375 -1.90625q-0.4375 -0.8125 -1.15625 -1.203125q-0.703125 -0.40625 -1.671875 -0.40625q-0.96875 0 -1.671875 0.40625q-0.703125 0.390625 -1.140625 1.203125l5.640625 0zm5.5861816 -3.265625l0 0.53125q0.46875 -0.453125 0.84375 -0.625q0.375 -0.171875 0.859375 -0.171875q0.421875 0 0.828125 0.203125q0.40625 0.203125 0.796875 0.609375q0.5 -0.40625 1.0 -0.59375q0.5 -0.203125 1.03125 -0.203125q1.0625 0 1.71875 0.5625q0.875 0.75 0.875 1.953125l0 4.25q0.59375 0 0.875 0.28125q0.296875 0.265625 0.296875 0.671875q0 0.421875 -0.296875 0.6875q-0.28125 0.265625 -0.96875 0.265625l-1.8125 0l0 -6.0q0 -0.4375 -0.15625 -0.59375q-0.15625 -0.171875 -0.484375 -0.171875q-0.3125 0 -0.578125 0.15625q-0.34375 0.234375 -0.84375 0.875l0 3.828125q0.59375 0 0.875 0.28125q0.296875 0.265625 0.296875 0.671875q0 0.421875 -0.296875 0.6875q-0.28125 0.265625 -0.96875 0.265625l-1.796875 0l0 -6.0q0 -0.421875 -0.171875 -0.59375q-0.15625 -0.171875 -0.484375 -0.171875q-0.328125 0 -0.65625 0.203125q-0.328125 0.203125 -0.78125 0.828125l0 3.828125q0.59375 0 0.875 0.28125q0.296875 0.265625 0.296875 0.671875q0 0.421875 -0.296875 0.6875q-0.28125 0.265625 -0.96875 0.265625l-1.71875 0q-0.6875 0 -0.96875 -0.265625q-0.296875 -0.265625 -0.296875 -0.6875q0 -0.421875 0.296875 -0.6875q0.28125 -0.265625 0.875 -0.265625l0 -4.609375q-0.59375 0 -0.875 -0.265625q-0.296875 -0.28125 -0.296875 -0.703125q0 -0.40625 0.296875 -0.671875q0.28125 -0.265625 0.96875 -0.265625l1.8125 0zm15.836182 8.421875l0 -0.453125q-0.703125 0.390625 -1.578125 0.578125q-0.859375 0.1875 -1.5625 0.1875q-1.53125 0 -2.484375 -0.8125q-0.953125 -0.8125 -0.953125 -1.796875q0 -1.1875 1.21875 -2.203125q1.21875 -1.03125 3.375 -1.03125q0.859375 0 1.984375 0.171875l0 -0.453125q0 -0.421875 -0.359375 -0.6875q-0.359375 -0.265625 -1.390625 -0.265625q-0.84375 0 -2.203125 0.328125q-0.5 0.125 -0.765625 0.125q-0.390625 0 -0.65625 -0.265625q-0.265625 -0.28125 -0.265625 -0.71875q0 -0.234375 0.09375 -0.40625q0.09375 -0.1875 0.265625 -0.28125q0.171875 -0.109375 0.703125 -0.265625q0.703125 -0.1875 1.421875 -0.296875q0.734375 -0.125 1.328125 -0.125q1.78125 0 2.75 0.765625q0.984375 0.765625 0.984375 2.09375l0 3.90625l0.328125 0q0.6875 0 0.96875 0.265625q0.296875 0.265625 0.296875 0.6875q0 0.421875 -0.296875 0.6875q-0.28125 0.265625 -0.96875 0.265625l-2.234375 0zm0 -3.40625q-1.140625 -0.21875 -2.09375 -0.21875q-1.171875 0 -2.0 0.5625q-0.515625 0.359375 -0.515625 0.734375q0 0.265625 0.25 0.4375q0.453125 0.296875 1.265625 0.296875q0.6875 0 1.546875 -0.265625q0.875 -0.265625 1.546875 -0.734375l0 -0.8125zm10.179932 -8.625l0 2.015625l-2.265625 0l0 -2.015625l2.265625 0zm0.25 3.609375l0 6.515625l2.28125 0q0.6875 0 0.984375 0.265625q0.296875 0.265625 0.296875 0.6875q0 0.421875 -0.296875 0.6875q-0.296875 0.265625 -0.984375 0.265625l-6.46875 0q-0.6875 0 -0.984375 -0.265625q-0.28125 -0.265625 -0.28125 -0.6875q0 -0.421875 0.28125 -0.6875q0.296875 -0.265625 0.984375 -0.265625l2.28125 0l0 -4.609375l-1.53125 0q-0.671875 0 -0.96875 -0.265625q-0.296875 -0.265625 -0.296875 -0.703125q0 -0.40625 0.296875 -0.671875q0.296875 -0.265625 0.96875 -0.265625l3.4375 0zm11.211243 -3.609375l0 10.125l2.28125 0q0.6875 0 0.96875 0.265625q0.296875 0.265625 0.296875 0.6875q0 0.421875 -0.296875 0.6875q-0.28125 0.265625 -0.96875 0.265625l-6.46875 0q-0.6875 0 -0.984375 -0.265625q-0.28125 -0.265625 -0.28125 -0.6875q0 -0.421875 0.28125 -0.6875q0.296875 -0.265625 0.984375 -0.265625l2.28125 0l0 -8.21875l-1.53125 0q-0.671875 0 -0.96875 -0.265625q-0.296875 -0.265625 -0.296875 -0.703125q0 -0.40625 0.28125 -0.671875q0.296875 -0.265625 0.984375 -0.265625l3.4375 0zm11.679932 4.875q0 0.546875 -0.390625 0.90625q-0.375 0.359375 -1.046875 0.359375q-0.671875 0 -1.046875 -0.359375q-0.375 -0.359375 -0.375 -0.90625q0 -0.53125 0.375 -0.890625q0.375 -0.375 1.046875 -0.375q0.671875 0 1.046875 0.375q0.390625 0.359375 0.390625 0.890625zm0.015625 6.234375q0 0.53125 -0.390625 0.890625q-0.375 0.359375 -1.046875 0.359375q-0.65625 0 -1.046875 -0.359375q-0.375 -0.359375 -0.375 -0.890625q0 -0.546875 0.375 -0.90625q0.390625 -0.359375 1.046875 -0.359375q0.671875 0 1.046875 0.359375q0.390625 0.359375 0.390625 0.90625zm19.969238 -10.703125l2.546875 0l1.296875 4.71875q0.078125 0.25 0.078125 0.390625q0 0.1875 -0.171875 0.34375q-0.171875 0.15625 -0.40625 0.15625q-0.375 0 -0.625 -0.453125l-2.71875 -5.15625zm13.617493 10.671875q0 0.53125 -0.390625 0.90625q-0.375 0.359375 -1.046875 0.359375q-0.65625 0 -1.046875 -0.359375q-0.375 -0.375 -0.375 -0.90625q0 -0.546875 0.375 -0.90625q0.390625 -0.359375 1.046875 -0.359375q0.671875 0 1.046875 0.359375q0.390625 0.359375 0.390625 0.90625zm11.195557 0q0 0.53125 -0.390625 0.90625q-0.375 0.359375 -1.046875 0.359375q-0.65625 0 -1.046875 -0.359375q-0.375 -0.375 -0.375 -0.90625q0 -0.546875 0.375 -0.90625q0.390625 -0.359375 1.046875 -0.359375q0.671875 0 1.046875 0.359375q0.390625 0.359375 0.390625 0.90625zm11.195557 0q0 0.53125 -0.390625 0.90625q-0.375 0.359375 -1.046875 0.359375q-0.65625 0 -1.046875 -0.359375q-0.375 -0.375 -0.375 -0.90625q0 -0.546875 0.375 -0.90625q0.390625 -0.359375 1.046875 -0.359375q0.671875 0 1.046875 0.359375q0.390625 0.359375 0.390625 0.90625zm8.164307 -10.671875l2.546875 0l-2.734375 5.15625q-0.25 0.453125 -0.609375 0.453125q-0.234375 0 -0.40625 -0.15625q-0.171875 -0.15625 -0.171875 -0.34375q0 -0.140625 0.0625 -0.390625l1.3125 -4.71875z" fill-rule="nonzero"></path><path fill="#ffffff" d="m640.40735 192.20302q-0.328125 -0.375 -0.453125 -0.734375q-0.125 -0.359375 -0.125 -0.984375l0 -3.03125q0 -0.375 -0.140625 -0.53125q-0.140625 -0.171875 -0.53125 -0.203125q-0.390625 -0.03125 -0.640625 -0.296875q-0.25 -0.28125 -0.25 -0.65625q0 -0.40625 0.28125 -0.6875q0.28125 -0.28125 0.71875 -0.28125q0.625 0 1.203125 0.328125q0.578125 0.328125 1.0 1.078125q0.265625 0.484375 0.265625 1.109375l0 3.171875q0 0.40625 0.125 0.5625q0.140625 0.140625 0.5625 0.1875q0.421875 0.046875 0.65625 0.296875q0.234375 0.25 0.234375 0.671875q0 0.40625 -0.234375 0.65625q-0.234375 0.25 -0.671875 0.3125q-0.421875 0.046875 -0.515625 0.15625q-0.15625 0.1875 -0.15625 0.578125l0 3.359375q0 1.015625 -0.75 1.765625q-0.734375 0.75 -1.703125 0.75q-0.453125 0 -0.734375 -0.28125q-0.28125 -0.28125 -0.28125 -0.6875q0 -0.375 0.25 -0.65625q0.25 -0.265625 0.640625 -0.296875q0.40625 -0.03125 0.515625 -0.171875q0.15625 -0.1875 0.15625 -0.5625l0 -3.03125q0 -0.796875 0.109375 -1.140625q0.125 -0.359375 0.46875 -0.75z" fill-rule="nonzero"></path><path fill="#000000" fill-opacity="0.0" d="m1004.7743 525.36743l205.25989 0l0 72.22052l-205.25989 0z" fill-rule="nonzero"></path><path fill="#ffffff" d="m1052.8024 549.79956l16.328125 0l0 4.953125l-10.453125 0l0 5.25l8.890625 0l0 4.921875l-8.890625 0l0 6.0l10.84375 0l0 4.953125l-16.71875 0l0 -26.078125zm19.326294 6.234375l5.921875 0l2.546875 9.359375q0.40625 1.484375 0.78125 3.03125q0.390625 1.53125 0.78125 3.09375l0.171875 0q0.359375 -1.5625 0.734375 -3.09375q0.375 -1.546875 0.78125 -3.03125l2.59375 -9.359375l5.640625 0l-6.484375 19.84375l-6.796875 0l-6.671875 -19.84375zm21.873047 9.921875q0 -2.390625 0.796875 -4.328125q0.8125 -1.953125 2.109375 -3.28125q1.296875 -1.34375 2.96875 -2.0625q1.6875 -0.71875 3.484375 -0.71875q2.125 0 3.703125 0.71875q1.578125 0.71875 2.640625 2.0q1.0625 1.28125 1.578125 3.015625q0.515625 1.734375 0.515625 3.78125q0 0.796875 -0.078125 1.453125q-0.078125 0.65625 -0.15625 1.03125l-11.875 0q0.390625 2.265625 1.765625 3.296875q1.390625 1.015625 3.390625 1.015625q2.125 0 4.28125 -1.3125l1.953125 3.546875q-1.515625 1.046875 -3.375 1.65625q-1.859375 0.59375 -3.65625 0.59375q-2.125 0 -3.96875 -0.703125q-1.828125 -0.703125 -3.203125 -2.03125q-1.359375 -1.34375 -2.125 -3.265625q-0.75 -1.921875 -0.75 -4.40625zm12.796875 -2.03125q0 -1.734375 -0.765625 -2.8125q-0.75 -1.078125 -2.546875 -1.078125q-1.40625 0 -2.46875 0.953125q-1.046875 0.9375 -1.375 2.9375l7.15625 0zm9.079346 -7.890625l4.8125 0l0.390625 2.53125l0.15625 0q1.28125 -1.203125 2.796875 -2.09375q1.53125 -0.90625 3.5625 -0.90625q3.25 0 4.703125 2.125q1.46875 2.109375 1.46875 5.875l0 12.3125l-5.890625 0l0 -11.5625q0 -2.15625 -0.578125 -2.953125q-0.578125 -0.796875 -1.859375 -0.796875q-1.109375 0 -1.921875 0.5q-0.796875 0.5 -1.75 1.40625l0 13.40625l-5.890625 0l0 -19.84375zm23.692505 4.609375l-2.71875 0l0 -4.359375l3.03125 -0.25l0.6875 -5.28125l4.875 0l0 5.28125l4.765625 0l0 4.609375l-4.765625 0l0 7.953125q0 1.6875 0.703125 2.421875q0.703125 0.734375 1.859375 0.734375q0.46875 0 0.96875 -0.109375q0.5 -0.125 0.90625 -0.28125l0.921875 4.28125q-0.796875 0.234375 -1.875 0.46875q-1.078125 0.25 -2.53125 0.25q-1.828125 0 -3.140625 -0.5625q-1.296875 -0.5625 -2.125 -1.5625q-0.8125 -1.0 -1.1875 -2.421875q-0.375 -1.421875 -0.375 -3.140625l0 -8.03125zm15.960571 -6.25l-0.203125 -5.3125l5.921875 0l-0.203125 5.3125l-0.84375 12.25l-3.84375 0l-0.828125 -12.25zm-0.8125 18.28125q0 -1.59375 1.015625 -2.65625q1.03125 -1.0625 2.546875 -1.0625q1.515625 0 2.53125 1.0625q1.03125 1.0625 1.03125 2.65625q0 1.5625 -1.03125 2.625q-1.015625 1.0625 -2.53125 1.0625q-1.515625 0 -2.546875 -1.0625q-1.015625 -1.0625 -1.015625 -2.625z" fill-rule="nonzero"></path><path fill="#000000" fill-opacity="0.0" d="m612.1732 457.71127l332.4095 0l0 77.29135l-332.4095 0z" fill-rule="nonzero"></path><path fill="#ffffff" d="m640.5908 499.77194q0 1.390625 -0.765625 2.6875q-0.765625 1.28125 -2.28125 2.0625q-1.515625 0.765625 -3.171875 0.765625q-1.640625 0 -3.140625 -0.75q-1.5 -0.765625 -2.28125 -2.0625q-0.78125 -1.3125 -0.78125 -2.71875q0 -1.453125 0.796875 -2.828125q0.796875 -1.390625 2.28125 -2.1875q1.5 -0.796875 3.125 -0.796875q1.640625 0 3.15625 0.8125q1.515625 0.8125 2.28125 2.1875q0.78125 1.375 0.78125 2.828125zm-2.390625 0.015625q0 -1.15625 -0.84375 -2.140625q-1.125 -1.3125 -2.984375 -1.3125q-1.625 0 -2.71875 1.046875q-1.09375 1.046875 -1.09375 2.421875q0 1.125 1.09375 2.109375q1.109375 0.96875 2.71875 0.96875q1.625 0 2.71875 -0.96875q1.109375 -0.984375 1.109375 -2.125zm11.761719 -10.09375l0 12.796875l2.875 0q0.875 0 1.234375 0.34375q0.375 0.328125 0.375 0.859375q0 0.53125 -0.375 0.875q-0.359375 0.328125 -1.234375 0.328125l-8.15625 0q-0.875 0 -1.25 -0.328125q-0.359375 -0.34375 -0.359375 -0.875q0 -0.53125 0.359375 -0.859375q0.375 -0.34375 1.25 -0.34375l2.875 0l0 -10.390625l-1.9375 0q-0.84375 0 -1.21875 -0.328125q-0.375 -0.34375 -0.375 -0.875q0 -0.53125 0.359375 -0.859375q0.375 -0.34375 1.234375 -0.34375l4.34375 0zm18.714844 0l0 12.796875l0.40625 0q0.859375 0 1.234375 0.34375q0.375 0.328125 0.375 0.859375q0 0.53125 -0.375 0.875q-0.359375 0.328125 -1.234375 0.328125l-2.8125 0l0 -0.59375q-0.8125 0.484375 -1.71875 0.734375q-0.890625 0.25 -1.859375 0.25q-2.703125 0 -4.359375 -1.5625q-1.640625 -1.578125 -1.640625 -3.90625q0 -2.4375 1.734375 -4.15625q1.734375 -1.71875 4.21875 -1.71875q0.9375 0 1.84375 0.28125q0.90625 0.28125 1.78125 0.859375l0 -2.984375l-0.40625 0q-0.875 0 -1.25 -0.328125q-0.359375 -0.34375 -0.359375 -0.875q0 -0.53125 0.359375 -0.859375q0.375 -0.34375 1.25 -0.34375l2.8125 0zm-2.40625 10.203125q0 -1.5 -1.046875 -2.53125q-1.03125 -1.03125 -2.546875 -1.03125q-1.5 0 -2.546875 1.03125q-1.046875 1.03125 -1.046875 2.484375q0 1.328125 0.9375 2.1875q0.9375 0.84375 2.65625 0.84375q1.703125 0 2.640625 -0.84375q0.953125 -0.859375 0.953125 -2.140625zm11.292969 1.5l3.46875 -8.296875l-0.546875 0q-0.859375 0 -1.234375 -0.328125q-0.375 -0.34375 -0.375 -0.890625q0 -0.53125 0.375 -0.859375q0.375 -0.34375 1.234375 -0.34375l3.21875 0.015625q0.875 0 1.234375 0.328125q0.375 0.328125 0.375 0.859375q0 0.65625 -0.5625 1.03125q-0.265625 0.1875 -1.09375 0.1875l-4.9375 11.796875l-2.3125 0l-4.921875 -11.796875q-0.84375 0 -1.109375 -0.1875q-0.5625 -0.375 -0.5625 -1.03125q0 -0.53125 0.375 -0.859375q0.359375 -0.34375 1.234375 -0.34375l3.234375 0.015625q0.859375 0 1.21875 0.328125q0.375 0.328125 0.375 0.859375q0 0.546875 -0.359375 0.890625q-0.359375 0.328125 -1.234375 0.328125l-0.5625 0l3.46875 8.296875zm9.027344 1.09375l0 -9.390625q-0.765625 -0.015625 -1.125 -0.34375q-0.359375 -0.34375 -0.359375 -0.875q0 -0.53125 0.359375 -0.859375q0.375 -0.34375 1.25 -0.34375l5.015625 0.015625q1.171875 0 2.296875 0.4375q1.125 0.421875 1.796875 1.09375q0.515625 0.5 1.0625 1.390625q0.5625 0.875 0.84375 1.75q0.28125 0.859375 0.28125 2.109375l0 1.15625q0 1.515625 -0.515625 2.703125q-0.515625 1.171875 -1.359375 1.921875q-0.828125 0.734375 -1.5625 1.09375q-1.171875 0.546875 -3.03125 0.546875l-4.828125 0q-0.875 0 -1.25 -0.328125q-0.359375 -0.34375 -0.359375 -0.875q0 -0.53125 0.359375 -0.875q0.375 -0.34375 1.125 -0.328125zm2.40625 0l2.546875 0q1.4375 0 2.15625 -0.40625q0.953125 -0.546875 1.4375 -1.375q0.484375 -0.828125 0.484375 -2.15625l0 -1.140625q0 -1.125 -0.4375 -1.984375q-0.6875 -1.34375 -1.53125 -1.828125q-0.84375 -0.5 -2.125 -0.5l-2.53125 0l0 9.390625zm19.527344 2.40625l0 -0.5625q-0.890625 0.484375 -1.984375 0.71875q-1.09375 0.25 -1.984375 0.25q-1.9375 0 -3.140625 -1.03125q-1.203125 -1.03125 -1.203125 -2.265625q0 -1.515625 1.53125 -2.8125q1.546875 -1.296875 4.265625 -1.296875q1.09375 0 2.515625 0.234375l0 -0.578125q0 -0.53125 -0.46875 -0.875q-0.453125 -0.34375 -1.75 -0.34375q-1.0625 0 -2.765625 0.421875q-0.640625 0.15625 -0.984375 0.15625q-0.484375 0 -0.828125 -0.34375q-0.328125 -0.34375 -0.328125 -0.890625q0 -0.296875 0.109375 -0.515625q0.125 -0.234375 0.328125 -0.359375q0.21875 -0.140625 0.890625 -0.328125q0.890625 -0.25 1.8125 -0.390625q0.9375 -0.140625 1.6875 -0.140625q2.234375 0 3.46875 0.96875q1.234375 0.953125 1.234375 2.640625l0 4.9375l0.40625 0q0.875 0 1.234375 0.34375q0.375 0.328125 0.375 0.859375q0 0.53125 -0.375 0.875q-0.359375 0.328125 -1.234375 0.328125l-2.8125 0zm0 -4.296875q-1.4375 -0.28125 -2.65625 -0.28125q-1.46875 0 -2.515625 0.703125q-0.65625 0.46875 -0.65625 0.9375q0 0.328125 0.3125 0.546875q0.59375 0.390625 1.609375 0.390625q0.859375 0 1.953125 -0.34375q1.109375 -0.34375 1.953125 -0.921875l0 -1.03125zm11.652344 -3.9375l0 4.8125q0 0.765625 0.3125 1.015625q0.5 0.390625 1.765625 0.390625q1.84375 0 3.390625 -0.78125q0.609375 -0.3125 0.9375 -0.3125q0.46875 0 0.8125 0.359375q0.359375 0.34375 0.359375 0.84375q0 0.46875 -0.375 0.8125q-0.578125 0.546875 -2.28125 1.015625q-1.6875 0.46875 -2.84375 0.46875q-2.234375 0 -3.359375 -0.96875q-1.125 -0.96875 -1.125 -2.375l0 -5.28125l-0.859375 0q-0.875 0 -1.25 -0.328125q-0.359375 -0.34375 -0.359375 -0.890625q0 -0.515625 0.359375 -0.84375q0.375 -0.34375 1.25 -0.34375l0.859375 0l0 -2.171875q0 -0.859375 0.328125 -1.234375q0.34375 -0.375 0.890625 -0.375q0.515625 0 0.84375 0.375q0.34375 0.375 0.34375 1.234375l0 2.171875l4.4375 0q0.875 0 1.234375 0.34375q0.375 0.328125 0.375 0.859375q0 0.53125 -0.375 0.875q-0.359375 0.328125 -1.234375 0.328125l-4.4375 0zm17.152344 8.234375l0 -0.5625q-0.890625 0.484375 -1.984375 0.71875q-1.09375 0.25 -1.984375 0.25q-1.9375 0 -3.140625 -1.03125q-1.203125 -1.03125 -1.203125 -2.265625q0 -1.515625 1.53125 -2.8125q1.546875 -1.296875 4.265625 -1.296875q1.09375 0 2.515625 0.234375l0 -0.578125q0 -0.53125 -0.46875 -0.875q-0.453125 -0.34375 -1.75 -0.34375q-1.0625 0 -2.765625 0.421875q-0.640625 0.15625 -0.984375 0.15625q-0.484375 0 -0.828125 -0.34375q-0.328125 -0.34375 -0.328125 -0.890625q0 -0.296875 0.109375 -0.515625q0.125 -0.234375 0.328125 -0.359375q0.21875 -0.140625 0.890625 -0.328125q0.890625 -0.25 1.8125 -0.390625q0.9375 -0.140625 1.6875 -0.140625q2.234375 0 3.46875 0.96875q1.234375 0.953125 1.234375 2.640625l0 4.9375l0.40625 0q0.875 0 1.234375 0.34375q0.375 0.328125 0.375 0.859375q0 0.53125 -0.375 0.875q-0.359375 0.328125 -1.234375 0.328125l-2.8125 0zm0 -4.296875q-1.4375 -0.28125 -2.65625 -0.28125q-1.46875 0 -2.515625 0.703125q-0.65625 0.46875 -0.65625 0.9375q0 0.328125 0.3125 0.546875q0.59375 0.390625 1.609375 0.390625q0.859375 0 1.953125 -0.34375q1.109375 -0.34375 1.953125 -0.921875l0 -1.03125zm31.804688 -3.609375l-10.265625 0q-0.875 0 -1.25 -0.328125q-0.359375 -0.328125 -0.359375 -0.875q0 -0.53125 0.359375 -0.859375q0.375 -0.328125 1.25 -0.328125l10.265625 0q0.859375 0 1.21875 0.328125q0.375 0.328125 0.375 0.875q0 0.53125 -0.375 0.859375q-0.359375 0.328125 -1.21875 0.328125zm0 4.53125l-10.265625 0q-0.875 0 -1.25 -0.328125q-0.359375 -0.328125 -0.359375 -0.875q0 -0.53125 0.359375 -0.859375q0.375 -0.34375 1.25 -0.34375l10.265625 0q0.859375 0 1.21875 0.34375q0.375 0.328125 0.375 0.859375q0 0.546875 -0.375 0.875q-0.359375 0.328125 -1.21875 0.328125zm14.402344 -4.53125l-10.265625 0q-0.875 0 -1.25 -0.328125q-0.359375 -0.328125 -0.359375 -0.875q0 -0.53125 0.359375 -0.859375q0.375 -0.328125 1.25 -0.328125l10.265625 0q0.859375 0 1.21875 0.328125q0.375 0.328125 0.375 0.875q0 0.53125 -0.375 0.859375q-0.359375 0.328125 -1.21875 0.328125zm0 4.53125l-10.265625 0q-0.875 0 -1.25 -0.328125q-0.359375 -0.328125 -0.359375 -0.875q0 -0.53125 0.359375 -0.859375q0.375 -0.34375 1.25 -0.34375l10.265625 0q0.859375 0 1.21875 0.34375q0.375 0.328125 0.375 0.859375q0 0.546875 -0.375 0.875q-0.359375 0.328125 -1.21875 0.328125zm14.402344 -4.53125l-10.265625 0q-0.875 0 -1.25 -0.328125q-0.359375 -0.328125 -0.359375 -0.875q0 -0.53125 0.359375 -0.859375q0.375 -0.328125 1.25 -0.328125l10.265625 0q0.859375 0 1.21875 0.328125q0.375 0.328125 0.375 0.875q0 0.53125 -0.375 0.859375q-0.359375 0.328125 -1.21875 0.328125zm0 4.53125l-10.265625 0q-0.875 0 -1.25 -0.328125q-0.359375 -0.328125 -0.359375 -0.875q0 -0.53125 0.359375 -0.859375q0.375 -0.34375 1.25 -0.34375l10.265625 0q0.859375 0 1.21875 0.34375q0.375 0.328125 0.375 0.859375q0 0.546875 -0.375 0.875q-0.359375 0.328125 -1.21875 0.328125zm21.210938 -7.265625l0 0.8125q0.65625 -0.5625 1.453125 -0.84375q0.796875 -0.28125 1.71875 -0.28125q2.125 0 3.375 1.3125q0.984375 1.0625 0.984375 2.765625l0 4.46875q0.765625 0 1.125 0.34375q0.359375 0.328125 0.359375 0.859375q0 0.53125 -0.375 0.875q-0.359375 0.328125 -1.234375 0.328125l-2.15625 0q-0.875 0 -1.25 -0.328125q-0.359375 -0.34375 -0.359375 -0.875q0 -0.53125 0.359375 -0.859375q0.359375 -0.34375 1.125 -0.34375l0 -4.53125q0 -0.78125 -0.421875 -1.15625q-0.546875 -0.46875 -1.65625 -0.46875q-0.828125 0 -1.453125 0.328125q-0.625 0.328125 -1.59375 1.359375l0 4.46875q0.9375 0 1.203125 0.171875q0.578125 0.359375 0.578125 1.03125q0 0.53125 -0.375 0.875q-0.375 0.328125 -1.234375 0.328125l-2.734375 0q-0.859375 0 -1.234375 -0.328125q-0.375 -0.34375 -0.375 -0.875q0 -0.65625 0.5625 -1.03125q0.28125 -0.171875 1.21875 -0.171875l0 -5.828125q-0.765625 0 -1.140625 -0.34375q-0.359375 -0.34375 -0.359375 -0.875q0 -0.515625 0.375 -0.84375q0.375 -0.34375 1.234375 -0.34375l2.28125 0zm22.871094 6.53125l-9.859375 0q0.375 0.9375 1.328125 1.515625q0.953125 0.578125 2.59375 0.578125q1.328125 0 3.546875 -0.578125q0.90625 -0.234375 1.265625 -0.234375q0.484375 0 0.8125 0.34375q0.328125 0.34375 0.328125 0.859375q0 0.46875 -0.359375 0.796875q-0.46875 0.421875 -2.28125 0.828125q-1.8125 0.390625 -3.5 0.390625q-2.875 0 -4.609375 -1.625q-1.71875 -1.640625 -1.71875 -4.015625q0 -2.53125 1.859375 -4.109375q1.875 -1.59375 4.3125 -1.59375q1.46875 0 2.6875 0.515625q1.21875 0.515625 1.828125 1.109375q0.84375 0.859375 1.390625 2.140625q0.375 0.890625 0.375 2.0625l0 1.015625zm-2.65625 -2.390625q-0.5625 -1.03125 -1.453125 -1.546875q-0.890625 -0.515625 -2.109375 -0.515625q-1.21875 0 -2.109375 0.515625q-0.890625 0.515625 -1.453125 1.546875l7.125 0zm11.042969 2.0625l-1.65625 4.4375l-2.265625 0l-2.015625 -8.234375q-0.65625 -0.046875 -1.0 -0.375q-0.328125 -0.328125 -0.328125 -0.84375q0 -0.515625 0.359375 -0.84375q0.375 -0.34375 1.25 -0.34375l2.234375 0q0.875 0 1.234375 0.34375q0.375 0.328125 0.375 0.859375q0 0.546875 -0.421875 0.921875q-0.3125 0.28125 -1.25 0.28125l0.921875 3.796875l1.484375 -3.890625l2.140625 0l1.5 3.890625l0.9375 -3.796875q-0.890625 0 -1.171875 -0.1875q-0.5625 -0.359375 -0.5625 -1.03125q0 -0.515625 0.359375 -0.84375q0.375 -0.34375 1.234375 -0.34375l2.265625 0q0.875 0 1.234375 0.34375q0.375 0.328125 0.375 0.859375q0 0.484375 -0.328125 0.828125q-0.3125 0.328125 -0.953125 0.375l-1.96875 8.234375l-2.21875 0l-1.765625 -4.4375zm14.386719 0.9375l3.46875 -8.296875l-0.546875 0q-0.859375 0 -1.234375 -0.328125q-0.375 -0.34375 -0.375 -0.890625q0 -0.53125 0.375 -0.859375q0.375 -0.34375 1.234375 -0.34375l3.21875 0.015625q0.875 0 1.234375 0.328125q0.375 0.328125 0.375 0.859375q0 0.65625 -0.5625 1.03125q-0.265625 0.1875 -1.09375 0.1875l-4.9375 11.796875l-2.3125 0l-4.921875 -11.796875q-0.84375 0 -1.109375 -0.1875q-0.5625 -0.375 -0.5625 -1.03125q0 -0.53125 0.375 -0.859375q0.359375 -0.34375 1.234375 -0.34375l3.234375 0.015625q0.859375 0 1.21875 0.328125q0.375 0.328125 0.375 0.859375q0 0.546875 -0.359375 0.890625q-0.359375 0.328125 -1.234375 0.328125l-0.5625 0l3.46875 8.296875zm9.027344 1.09375l0 -9.390625q-0.765625 -0.015625 -1.125 -0.34375q-0.359375 -0.34375 -0.359375 -0.875q0 -0.53125 0.359375 -0.859375q0.375 -0.34375 1.25 -0.34375l5.015625 0.015625q1.171875 0 2.296875 0.4375q1.125 0.421875 1.796875 1.09375q0.515625 0.5 1.0625 1.390625q0.5625 0.875 0.84375 1.75q0.28125 0.859375 0.28125 2.109375l0 1.15625q0 1.515625 -0.515625 2.703125q-0.515625 1.171875 -1.359375 1.921875q-0.828125 0.734375 -1.5625 1.09375q-1.171875 0.546875 -3.03125 0.546875l-4.828125 0q-0.875 0 -1.25 -0.328125q-0.359375 -0.34375 -0.359375 -0.875q0 -0.53125 0.359375 -0.875q0.375 -0.34375 1.125 -0.328125zm2.40625 0l2.546875 0q1.4375 0 2.15625 -0.40625q0.953125 -0.546875 1.4375 -1.375q0.484375 -0.828125 0.484375 -2.15625l0 -1.140625q0 -1.125 -0.4375 -1.984375q-0.6875 -1.34375 -1.53125 -1.828125q-0.84375 -0.5 -2.125 -0.5l-2.53125 0l0 9.390625zm19.527344 2.40625l0 -0.5625q-0.890625 0.484375 -1.984375 0.71875q-1.09375 0.25 -1.984375 0.25q-1.9375 0 -3.140625 -1.03125q-1.203125 -1.03125 -1.203125 -2.265625q0 -1.515625 1.53125 -2.8125q1.546875 -1.296875 4.265625 -1.296875q1.09375 0 2.515625 0.234375l0 -0.578125q0 -0.53125 -0.46875 -0.875q-0.453125 -0.34375 -1.75 -0.34375q-1.0625 0 -2.765625 0.421875q-0.640625 0.15625 -0.984375 0.15625q-0.484375 0 -0.828125 -0.34375q-0.328125 -0.34375 -0.328125 -0.890625q0 -0.296875 0.109375 -0.515625q0.125 -0.234375 0.328125 -0.359375q0.21875 -0.140625 0.890625 -0.328125q0.890625 -0.25 1.8125 -0.390625q0.9375 -0.140625 1.6875 -0.140625q2.234375 0 3.46875 0.96875q1.234375 0.953125 1.234375 2.640625l0 4.9375l0.40625 0q0.875 0 1.234375 0.34375q0.375 0.328125 0.375 0.859375q0 0.53125 -0.375 0.875q-0.359375 0.328125 -1.234375 0.328125l-2.8125 0zm0 -4.296875q-1.4375 -0.28125 -2.65625 -0.28125q-1.46875 0 -2.515625 0.703125q-0.65625 0.46875 -0.65625 0.9375q0 0.328125 0.3125 0.546875q0.59375 0.390625 1.609375 0.390625q0.859375 0 1.953125 -0.34375q1.109375 -0.34375 1.953125 -0.921875l0 -1.03125zm11.652344 -3.9375l0 4.8125q0 0.765625 0.3125 1.015625q0.5 0.390625 1.765625 0.390625q1.84375 0 3.390625 -0.78125q0.609375 -0.3125 0.9375 -0.3125q0.46875 0 0.8125 0.359375q0.359375 0.34375 0.359375 0.84375q0 0.46875 -0.375 0.8125q-0.578125 0.546875 -2.28125 1.015625q-1.6875 0.46875 -2.84375 0.46875q-2.234375 0 -3.359375 -0.96875q-1.125 -0.96875 -1.125 -2.375l0 -5.28125l-0.859375 0q-0.875 0 -1.25 -0.328125q-0.359375 -0.34375 -0.359375 -0.890625q0 -0.515625 0.359375 -0.84375q0.375 -0.34375 1.25 -0.34375l0.859375 0l0 -2.171875q0 -0.859375 0.328125 -1.234375q0.34375 -0.375 0.890625 -0.375q0.515625 0 0.84375 0.375q0.34375 0.375 0.34375 1.234375l0 2.171875l4.4375 0q0.875 0 1.234375 0.34375q0.375 0.328125 0.375 0.859375q0 0.53125 -0.375 0.875q-0.359375 0.328125 -1.234375 0.328125l-4.4375 0zm17.152344 8.234375l0 -0.5625q-0.890625 0.484375 -1.984375 0.71875q-1.09375 0.25 -1.984375 0.25q-1.9375 0 -3.140625 -1.03125q-1.203125 -1.03125 -1.203125 -2.265625q0 -1.515625 1.53125 -2.8125q1.546875 -1.296875 4.265625 -1.296875q1.09375 0 2.515625 0.234375l0 -0.578125q0 -0.53125 -0.46875 -0.875q-0.453125 -0.34375 -1.75 -0.34375q-1.0625 0 -2.765625 0.421875q-0.640625 0.15625 -0.984375 0.15625q-0.484375 0 -0.828125 -0.34375q-0.328125 -0.34375 -0.328125 -0.890625q0 -0.296875 0.109375 -0.515625q0.125 -0.234375 0.328125 -0.359375q0.21875 -0.140625 0.890625 -0.328125q0.890625 -0.25 1.8125 -0.390625q0.9375 -0.140625 1.6875 -0.140625q2.234375 0 3.46875 0.96875q1.234375 0.953125 1.234375 2.640625l0 4.9375l0.40625 0q0.875 0 1.234375 0.34375q0.375 0.328125 0.375 0.859375q0 0.53125 -0.375 0.875q-0.359375 0.328125 -1.234375 0.328125l-2.8125 0zm0 -4.296875q-1.4375 -0.28125 -2.65625 -0.28125q-1.46875 0 -2.515625 0.703125q-0.65625 0.46875 -0.65625 0.9375q0 0.328125 0.3125 0.546875q0.59375 0.390625 1.609375 0.390625q0.859375 0 1.953125 -0.34375q1.109375 -0.34375 1.953125 -0.921875l0 -1.03125z" fill-rule="nonzero"></path></g></svg>

