<?xml version="1.0" standalone="yes"?>

<svg version="1.1" viewBox="0.0 0.0 960.0 720.0" fill="none" stroke="none" stroke-linecap="square" stroke-miterlimit="10" xmlns="http://www.w3.org/2000/svg" xmlns:xlink="http://www.w3.org/1999/xlink"><clipPath id="p.0"><path d="m0 0l960.0 0l0 720.0l-960.0 0l0 -720.0z" clip-rule="nonzero"></path></clipPath><g clip-path="url(#p.0)"><path fill="#000000" fill-opacity="0.0" d="m0 0l960.0 0l0 720.0l-960.0 0z" fill-rule="nonzero"></path><path fill="#ffffff" d="m342.8058 127.88189l72.89761 0l0 0l109.346466 0l255.14172 0l0 163.60892l0 0l0 70.1181l0 46.745422l-255.14172 0l-173.64508 68.78024l64.298615 -68.78024l-72.89761 0l0 -46.745422l0 -70.1181l0 0z" fill-rule="nonzero"></path><path stroke="#000000" stroke-width="4.0" stroke-linejoin="round" stroke-linecap="butt" d="m342.8058 127.88189l72.89761 0l0 0l109.346466 0l255.14172 0l0 163.60892l0 0l0 70.1181l0 46.745422l-255.14172 0l-173.64508 68.78024l64.298615 -68.78024l-72.89761 0l0 -46.745422l0 -70.1181l0 0z" fill-rule="nonzero"></path><path fill="#000000" fill-opacity="0.0" d="m342.8058 127.88189l437.3858 0l0 280.47244l-437.3858 0z" fill-rule="nonzero"></path><path fill="#000000" d="m380.24487 210.82375l9.421875 0l0 41.734375l-9.421875 0l0 -41.734375zm19.779602 17.34375l-4.34375 0l0 -6.96875l4.859375 -0.390625l1.09375 -8.4375l7.796875 0l0 8.4375l7.625 0l0 7.359375l-7.625 0l0 12.75q0 2.6875 1.125 3.875q1.125 1.171875 2.96875 1.171875q0.78125 0 1.578125 -0.1875q0.796875 -0.1875 1.4375 -0.453125l1.46875 6.84375q-1.28125 0.390625 -3.015625 0.765625q-1.71875 0.390625 -4.015625 0.390625q-2.953125 0 -5.03125 -0.890625q-2.078125 -0.90625 -3.390625 -2.5q-1.3125 -1.59375 -1.921875 -3.859375q-0.609375 -2.28125 -0.609375 -5.03125l0 -12.875zm23.621338 -2.234375q2.875 -1.46875 4.3125 -3.359375q1.4375 -1.890625 1.4375 -4.765625q-0.1875 0.0625 -0.5625 0.0625q-2.046875 0 -3.5 -1.25q-1.4375 -1.25 -1.4375 -3.421875q0 -2.4375 1.375 -3.84375q1.375 -1.40625 3.5625 -1.40625q2.9375 0 4.46875 2.1875q1.546875 2.171875 1.546875 6.203125q0 4.53125 -2.28125 8.0q-2.265625 3.453125 -6.875 5.6875l-2.046875 -4.09375zm20.215576 17.09375q2.1875 1.65625 4.171875 2.5q1.984375 0.828125 4.03125 0.828125q2.109375 0 3.0625 -0.703125q0.96875 -0.703125 0.96875 -1.984375q0 -0.765625 -0.546875 -1.375q-0.546875 -0.609375 -1.484375 -1.125q-0.921875 -0.515625 -2.078125 -0.921875q-1.140625 -0.421875 -2.359375 -0.9375q-1.46875 -0.578125 -2.953125 -1.34375q-1.46875 -0.765625 -2.6875 -1.875q-1.203125 -1.125 -1.984375 -2.625q-0.765625 -1.515625 -0.765625 -3.5q0 -2.171875 0.859375 -4.03125q0.875 -1.859375 2.46875 -3.140625q1.609375 -1.28125 3.84375 -2.015625q2.25 -0.734375 5.0 -0.734375q3.640625 0 6.390625 1.25q2.75 1.25 4.796875 2.78125l-4.21875 5.640625q-1.71875 -1.28125 -3.390625 -1.984375q-1.65625 -0.703125 -3.328125 -0.703125q-3.578125 0 -3.578125 2.484375q0 0.78125 0.5 1.328125q0.515625 0.53125 1.375 0.984375q0.875 0.453125 1.984375 0.875q1.125 0.40625 2.34375 0.84375q1.53125 0.578125 3.03125 1.328125q1.515625 0.734375 2.765625 1.828125q1.25 1.078125 2.015625 2.65625q0.765625 1.5625 0.765625 3.734375q0 2.171875 -0.84375 4.03125q-0.828125 1.859375 -2.5 3.234375q-1.65625 1.375 -4.09375 2.171875q-2.421875 0.796875 -5.625 0.796875q-3.125 0 -6.421875 -1.203125q-3.296875 -1.21875 -5.734375 -3.203125l4.21875 -5.890625zm39.94519 -22.21875l9.40625 0l0 18.5q0 3.453125 0.953125 4.734375q0.96875 1.28125 3.015625 1.28125q1.796875 0 3.0 -0.828125q1.21875 -0.828125 2.625 -2.6875l0 -21.0l9.40625 0l0 31.75l-7.671875 0l-0.703125 -4.421875l-0.1875 0q-2.0625 2.4375 -4.40625 3.8125q-2.328125 1.375 -5.578125 1.375q-5.1875 0 -7.53125 -3.390625q-2.328125 -3.390625 -2.328125 -9.40625l0 -19.71875zm38.07068 22.21875q2.1875 1.65625 4.171875 2.5q1.984375 0.828125 4.03125 0.828125q2.109375 0 3.0625 -0.703125q0.96875 -0.703125 0.96875 -1.984375q0 -0.765625 -0.546875 -1.375q-0.546875 -0.609375 -1.484375 -1.125q-0.921875 -0.515625 -2.078125 -0.921875q-1.140625 -0.421875 -2.359375 -0.9375q-1.46875 -0.578125 -2.953125 -1.34375q-1.46875 -0.765625 -2.6875 -1.875q-1.203125 -1.125 -1.984375 -2.625q-0.765625 -1.515625 -0.765625 -3.5q0 -2.171875 0.859375 -4.03125q0.875 -1.859375 2.46875 -3.140625q1.609375 -1.28125 3.84375 -2.015625q2.25 -0.734375 5.0 -0.734375q3.640625 0 6.390625 1.25q2.75 1.25 4.796875 2.78125l-4.21875 5.640625q-1.71875 -1.28125 -3.390625 -1.984375q-1.65625 -0.703125 -3.328125 -0.703125q-3.578125 0 -3.578125 2.484375q0 0.78125 0.5 1.328125q0.515625 0.53125 1.375 0.984375q0.875 0.453125 1.984375 0.875q1.125 0.40625 2.34375 0.84375q1.53125 0.578125 3.03125 1.328125q1.515625 0.734375 2.765625 1.828125q1.25 1.078125 2.015625 2.65625q0.765625 1.5625 0.765625 3.734375q0 2.171875 -0.84375 4.03125q-0.828125 1.859375 -2.5 3.234375q-1.65625 1.375 -4.09375 2.171875q-2.421875 0.796875 -5.625 0.796875q-3.125 0 -6.421875 -1.203125q-3.296875 -1.21875 -5.734375 -3.203125l4.21875 -5.890625zm26.63324 -22.21875l9.40625 0l0 18.5q0 3.453125 0.953125 4.734375q0.96875 1.28125 3.015625 1.28125q1.796875 0 3.0 -0.828125q1.21875 -0.828125 2.625 -2.6875l0 -21.0l9.40625 0l0 31.75l-7.671875 0l-0.703125 -4.421875l-0.1875 0q-2.0625 2.4375 -4.40625 3.8125q-2.328125 1.375 -5.578125 1.375q-5.1875 0 -7.53125 -3.390625q-2.328125 -3.390625 -2.328125 -9.40625l0 -19.71875zm35.523804 22.921875q0 -5.0 4.21875 -7.8125q4.21875 -2.8125 13.625 -3.78125q-0.125 -2.109375 -1.28125 -3.359375q-1.140625 -1.25 -3.703125 -1.25q-2.046875 0 -4.09375 0.78125q-2.046875 0.765625 -4.359375 2.109375l-3.328125 -6.21875q3.078125 -1.84375 6.4375 -3.0q3.359375 -1.15625 7.125 -1.15625q6.15625 0 9.375 3.5q3.234375 3.484375 3.234375 10.84375l0 18.171875l-7.671875 0l-0.703125 -3.265625l-0.1875 0q-2.0625 1.796875 -4.328125 2.921875q-2.265625 1.109375 -4.953125 1.109375q-2.1875 0 -3.921875 -0.734375q-1.71875 -0.734375 -2.9375 -2.046875q-1.203125 -1.3125 -1.875 -3.03125q-0.671875 -1.734375 -0.671875 -3.78125zm8.953125 -0.703125q0 1.53125 0.984375 2.265625q1.0 0.734375 2.65625 0.734375q1.671875 0 2.8125 -0.703125q1.15625 -0.703125 2.4375 -1.984375l0 -5.5625q-5.046875 0.703125 -6.96875 2.046875q-1.921875 1.34375 -1.921875 3.203125zm26.363464 -35.328125l9.40625 0l0 35.390625q0 1.46875 0.546875 2.046875q0.546875 0.578125 1.125 0.578125q0.3125 0 0.53125 0q0.234375 0 0.625 -0.125l1.140625 6.96875q-0.765625 0.3125 -1.953125 0.53125q-1.171875 0.234375 -2.78125 0.234375q-2.421875 0 -4.09375 -0.765625q-1.65625 -0.765625 -2.65625 -2.140625q-0.984375 -1.375 -1.4375 -3.328125q-0.453125 -1.953125 -0.453125 -4.390625l0 -35.0zm18.303955 0l9.40625 0l0 35.390625q0 1.46875 0.546875 2.046875q0.546875 0.578125 1.125 0.578125q0.3125 0 0.53125 0q0.234375 0 0.625 -0.125l1.140625 6.96875q-0.765625 0.3125 -1.953125 0.53125q-1.171875 0.234375 -2.78125 0.234375q-2.421875 0 -4.09375 -0.765625q-1.65625 -0.765625 -2.65625 -2.140625q-0.984375 -1.375 -1.4375 -3.328125q-0.453125 -1.953125 -0.453125 -4.390625l0 -35.0zm19.00708 49.468735q0.453125 0.125 1.03125 0.25q0.578125 0.125 1.078125 0.125q2.375 0 3.65625 -1.15625q1.28125 -1.1406097 1.921875 -2.9999847l0.4375 -1.65625l-12.21875 -30.921875l9.46875 0l4.546875 13.640625q0.703125 2.171875 1.28125 4.421875q0.578125 2.234375 1.21875 4.59375l0.25 0q0.515625 -2.234375 1.0625 -4.5q0.546875 -2.28125 1.125 -4.515625l3.828125 -13.640625l9.03125 0l-11.015625 32.0625q-1.140625 3.015625 -2.390625 5.2812347q-1.25 2.28125 -2.890625 3.78125q-1.625 1.5 -3.703125 2.265625q-2.078125 0.78125 -4.890625 0.78125q-1.484375 0 -2.515625 -0.171875q-1.015625 -0.15625 -1.96875 -0.46875l1.65625 -7.171875l0 0zm33.39081 -9.73436q0 -2.5625 1.625 -4.25q1.640625 -1.703125 4.0625 -1.703125q2.4375 0 4.0625 1.703125q1.640625 1.6875 1.640625 4.25q0 2.5 -1.640625 4.203125q-1.625 1.6875 -4.0625 1.6875q-2.421875 0 -4.0625 -1.6875q-1.625 -1.703125 -1.625 -4.203125zm21.0 0q0 -2.5625 1.625 -4.25q1.640625 -1.703125 4.0625 -1.703125q2.4375 0 4.0625 1.703125q1.640625 1.6875 1.640625 4.25q0 2.5 -1.640625 4.203125q-1.625 1.6875 -4.0625 1.6875q-2.421875 0 -4.0625 -1.6875q-1.625 -1.703125 -1.625 -4.203125zm21.0 0q0 -2.5625 1.625 -4.25q1.640625 -1.703125 4.0625 -1.703125q2.4375 0 4.0625 1.703125q1.640625 1.6875 1.640625 4.25q0 2.5 -1.640625 4.203125q-1.625 1.6875 -4.0625 1.6875q-2.421875 0 -4.0625 -1.6875q-1.625 -1.703125 -1.625 -4.203125z" fill-rule="nonzero"></path><path fill="#000000" d="m428.85654 297.8081l9.46875 0l4.109375 14.984375q0.625 2.359375 1.234375 4.828125q0.609375 2.46875 1.25 4.96875l0.265625 0q0.5625 -2.5 1.171875 -4.96875q0.609375 -2.46875 1.25 -4.828125l4.171875 -14.984375l9.015625 0l-10.359375 31.75l-10.890625 0l-10.6875 -31.75zm35.003204 15.875q0 -3.84375 1.28125 -6.9375q1.28125 -3.109375 3.359375 -5.25q2.09375 -2.140625 4.78125 -3.296875q2.6875 -1.15625 5.5625 -1.15625q3.390625 0 5.921875 1.15625q2.53125 1.15625 4.21875 3.203125q1.703125 2.046875 2.53125 4.828125q0.828125 2.78125 0.828125 6.046875q0 1.28125 -0.125 2.34375q-0.125 1.046875 -0.25 1.625l-19.015625 0q0.640625 3.65625 2.84375 5.28125q2.21875 1.625 5.40625 1.625q3.40625 0 6.859375 -2.109375l3.125 5.703125q-2.421875 1.65625 -5.40625 2.625q-2.96875 0.953125 -5.84375 0.953125q-3.40625 0 -6.34375 -1.109375q-2.9375 -1.125 -5.125 -3.265625q-2.171875 -2.15625 -3.390625 -5.21875q-1.21875 -3.078125 -1.21875 -7.046875zm20.484375 -3.265625q0 -2.75 -1.21875 -4.46875q-1.203125 -1.734375 -4.09375 -1.734375q-2.234375 0 -3.9375 1.5q-1.6875 1.5 -2.203125 4.703125l11.453125 0zm14.526947 -12.609375l7.6875 0l0.640625 5.578125l0.25 0q1.734375 -3.265625 4.15625 -4.796875q2.4374695 -1.546875 4.8749695 -1.546875q1.34375 0 2.203125 0.171875q0.859375 0.15625 1.5625 0.46875l-1.53125 8.125q-0.890625 -0.25 -1.671875 -0.375q-0.765625 -0.125 -1.78125 -0.125q-1.796875 0 -3.7499695 1.28125q-1.953125 1.265625 -3.234375 4.53125l0 18.4375l-9.40625 0l0 -31.75zm26.17508 36.359375q0.453125 0.125 1.03125 0.25q0.578125 0.125 1.078125 0.125q2.375 0 3.65625 -1.15625q1.28125 -1.140625 1.921875 -3.0l0.4375 -1.65625l-12.21875 -30.921875l9.46875 0l4.546875 13.640625q0.703125 2.171875 1.28125 4.421875q0.578125 2.234375 1.21875 4.59375l0.25 0q0.515625 -2.234375 1.0625 -4.5q0.546875 -2.28125 1.125 -4.515625l3.828125 -13.640625l9.03125 0l-11.015625 32.0625q-1.140625 3.015625 -2.390625 5.28125q-1.25 2.28125 -2.890625 3.78125q-1.625 1.5 -3.703125 2.265625q-2.078125 0.78125 -4.890625 0.78125q-1.484375 0 -2.515625 -0.171875q-1.015625 -0.15625 -1.96875 -0.46875l1.65625 -7.171875l0 0zm63.874695 -42.171875q-1.796875 -0.640625 -3.265625 -0.640625q-1.71875 0 -2.6875 1.0625q-0.953125 1.046875 -0.953125 3.484375l0 1.90625l5.6875 0l0 7.359375l-5.6875 0l0 24.390625l-9.40625 0l0 -24.390625l-4.234375 0l0 -6.96875l4.234375 -0.328125l0 -1.71875q0 -2.5 0.59375 -4.734375q0.609375 -2.25 2.015625 -3.90625q1.421875 -1.671875 3.65625 -2.625q2.234375 -0.953125 5.4375 -0.953125q1.984375 0 3.609375 0.390625q1.640625 0.375 2.734375 0.75l-1.734375 6.921875zm2.7614136 28.734375q0 -5.0 4.21875 -7.8125q4.21875 -2.8125 13.625 -3.78125q-0.125 -2.109375 -1.28125 -3.359375q-1.140625 -1.25 -3.703125 -1.25q-2.046875 0 -4.09375 0.78125q-2.046875 0.765625 -4.359375 2.109375l-3.328125 -6.21875q3.078125 -1.84375 6.4375 -3.0q3.359375 -1.15625 7.125 -1.15625q6.15625 0 9.375 3.5q3.234375 3.484375 3.234375 10.84375l0 18.171875l-7.671875 0l-0.703125 -3.265625l-0.1875 0q-2.0625 1.796875 -4.328125 2.921875q-2.265625 1.109375 -4.953125 1.109375q-2.1875 0 -3.921875 -0.734375q-1.71875 -0.734375 -2.9375 -2.046875q-1.203125 -1.3125 -1.875 -3.03125q-0.671875 -1.734375 -0.671875 -3.78125zm8.953125 -0.703125q0 1.53125 0.984375 2.265625q1.0 0.734375 2.65625 0.734375q1.671875 0 2.8125 -0.703125q1.15625 -0.703125 2.4375 -1.984375l0 -5.5625q-5.046875 0.703125 -6.96875 2.046875q-1.921875 1.34375 -1.921875 3.203125zm27.769714 0q2.1875 1.65625 4.171875 2.5q1.984375 0.828125 4.03125 0.828125q2.109375 0 3.0625 -0.703125q0.96875 -0.703125 0.96875 -1.984375q0 -0.765625 -0.546875 -1.375q-0.546875 -0.609375 -1.484375 -1.125q-0.921875 -0.515625 -2.078125 -0.921875q-1.140625 -0.421875 -2.359375 -0.9375q-1.46875 -0.578125 -2.953125 -1.34375q-1.46875 -0.765625 -2.6875 -1.875q-1.203125 -1.125 -1.984375 -2.625q-0.765625 -1.515625 -0.765625 -3.5q0 -2.171875 0.859375 -4.03125q0.875 -1.859375 2.46875 -3.140625q1.609375 -1.28125 3.84375 -2.015625q2.25 -0.734375 5.0 -0.734375q3.640625 0 6.390625 1.25q2.75 1.25 4.796875 2.78125l-4.21875 5.640625q-1.71875 -1.28125 -3.390625 -1.984375q-1.65625 -0.703125 -3.328125 -0.703125q-3.578125 0 -3.578125 2.484375q0 0.78125 0.5 1.328125q0.515625 0.53125 1.375 0.984375q0.875 0.453125 1.984375 0.875q1.125 0.40625 2.34375 0.84375q1.53125 0.578125 3.03125 1.328125q1.515625 0.734375 2.765625 1.828125q1.25 1.078125 2.015625 2.65625q0.765625 1.5625 0.765625 3.734375q0 2.171875 -0.84375 4.03125q-0.828125 1.859375 -2.5 3.234375q-1.65625 1.375 -4.09375 2.171875q-2.421875 0.796875 -5.625 0.796875q-3.125 0 -6.421875 -1.203125q-3.296875 -1.21875 -5.734375 -3.203125l4.21875 -5.890625zm28.22699 -14.859375l-4.34375 0l0 -6.96875l4.859375 -0.390625l1.09375 -8.4375l7.796875 0l0 8.4375l7.625 0l0 7.359375l-7.625 0l0 12.75q0 2.6875 1.125 3.875q1.125 1.171875 2.96875 1.171875q0.78125 0 1.578125 -0.1875q0.796875 -0.1875 1.4375 -0.453125l1.46875 6.84375q-1.28125 0.390625 -3.015625 0.765625q-1.71875 0.390625 -4.015625 0.390625q-2.953125 0 -5.03125 -0.890625q-2.078125 -0.90625 -3.390625 -2.5q-1.3125 -1.59375 -1.921875 -3.859375q-0.609375 -2.28125 -0.609375 -5.03125l0 -12.875zm22.980713 19.265625q0 -2.5625 1.625 -4.25q1.640625 -1.703125 4.0625 -1.703125q2.4375 0 4.0625 1.703125q1.640625 1.6875 1.640625 4.25q0 2.5 -1.640625 4.203125q-1.625 1.6875 -4.0625 1.6875q-2.421875 0 -4.0625 -1.6875q-1.625 -1.703125 -1.625 -4.203125z" fill-rule="nonzero"></path></g></svg>

