<?xml version="1.0" standalone="yes"?>

<svg version="1.1" viewBox="0.0 0.0 936.6456692913385 675.8083989501313" fill="none" stroke="none" stroke-linecap="square" stroke-miterlimit="10" xmlns="http://www.w3.org/2000/svg" xmlns:xlink="http://www.w3.org/1999/xlink"><clipPath id="p.0"><path d="m0 0l936.6457 0l0 675.8084l-936.6457 0l0 -675.8084z" clip-rule="nonzero"></path></clipPath><g clip-path="url(#p.0)"><path fill="#000000" fill-opacity="0.0" d="m0 0l936.6457 0l0 675.8084l-936.6457 0z" fill-rule="evenodd"></path><path fill="#000000" fill-opacity="0.0" d="m353.35434 7.5433073l253.29135 0l0 87.30709l-253.29135 0z" fill-rule="evenodd"></path><path fill="#434343" d="m422.5625 43.91685l-4.6875 0l-9.125 -14.968752l0 14.968752l-4.6875 0l0 -22.750002l4.6875 0l9.140625 15.000002l0 -15.000002l4.671875 0l0 22.750002zm3.09375 -8.609375q0 -2.515625 0.96875 -4.484377q0.96875 -1.96875 2.78125 -3.046875q1.828125 -1.078125 4.234375 -1.078125q3.421875 0 5.578125 2.09375q2.171875 2.09375 2.421875 5.687502l0.03125 1.15625q0 3.890625 -2.171875 6.25q-2.171875 2.34375 -5.828125 2.34375q-3.65625 0 -5.84375 -2.34375q-2.171875 -2.34375 -2.171875 -6.375l0 -0.203125zm4.515625 0.328125q0 2.40625 0.90625 3.6875q0.90625 1.265625 2.59375 1.265625q1.640625 0 2.5625 -1.25q0.921875 -1.265625 0.921875 -4.03125q0 -2.359375 -0.921875 -3.656252q-0.921875 -1.296875 -2.59375 -1.296875q-1.65625 0 -2.5625 1.296875q-0.90625 1.2812519 -0.90625 3.984377zm34.34375 2.3125q0 -1.328125 -0.9375 -2.03125q-0.9375 -0.71875 -3.375 -1.5q-2.4375 -0.796875 -3.859375 -1.5625q-3.875 -2.093752 -3.875 -5.640627q0 -1.84375 1.03125 -3.28125q1.046875 -1.453125 2.984375 -2.265625q1.953125 -0.8125 4.375 -0.8125q2.4375 0 4.34375 0.890625q1.90625 0.875 2.953125 2.484375q1.0625 1.609375 1.0625 3.65625l-4.6875 0q0 -1.5625 -0.984375 -2.421875q-0.984375 -0.875 -2.765625 -0.875q-1.71875 0 -2.671875 0.734375q-0.953125 0.71875 -0.953125 1.90625q0 1.109375 1.109375 1.859375q1.125 0.75 3.296875 1.40625q4.0 1.203125 5.828125 2.984377q1.828125 1.78125 1.828125 4.4375q0 2.953125 -2.234375 4.640625q-2.234375 1.671875 -6.015625 1.671875q-2.625 0 -4.78125 -0.953125q-2.15625 -0.96875 -3.296875 -2.640625q-1.125 -1.671875 -1.125 -3.875l4.703125 0q0 3.765625 4.5 3.765625q1.671875 0 2.609375 -0.671875q0.9375 -0.6875 0.9375 -1.90625zm15.359375 6.28125q-3.71875 0 -6.0625 -2.28125q-2.328125 -2.28125 -2.328125 -6.078125l0 -0.4375q0 -2.546875 0.984375 -4.546877q0.984375 -2.015625 2.78125 -3.09375q1.8125 -1.09375 4.125 -1.09375q3.46875 0 5.453125 2.1875q2.0 2.1875 2.0 6.203127l0 1.84375l-10.765625 0q0.21875 1.65625 1.3125 2.65625q1.109375 1.0 2.796875 1.0q2.609375 0 4.078125 -1.890625l2.21875 2.484375q-1.015625 1.4375 -2.75 2.25q-1.734375 0.796875 -3.84375 0.796875zm-0.515625 -13.875002q-1.34375 0 -2.1875 0.90625q-0.828125 0.9062519 -1.0625 2.593752l6.28125 0l0 -0.359375q-0.03125 -1.5000019 -0.8125 -2.312502q-0.78125 -0.828125 -2.21875 -0.828125zm19.53125 0.890625q-0.921875 -0.125 -1.625 -0.125q-2.5625 0 -3.359375 1.7343769l0 11.0625l-4.515625 0l0 -16.906252l4.265625 0l0.125 2.015625q1.359375 -2.328125 3.765625 -2.328125q0.75 0 1.40625 0.203125l-0.0625 4.34375zm8.5 7.156252l3.140625 -11.390627l4.71875 0l-5.703125 16.906252l-4.3125 0l-5.703125 -16.906252l4.71875 0l3.140625 11.390627zm14.609375 5.515625l-4.53125 0l0 -16.906252l4.53125 0l0 16.906252zm-4.796875 -21.281252q0 -1.015625 0.671875 -1.671875q0.6875 -0.65625 1.859375 -0.65625q1.15625 0 1.84375 0.65625q0.6875 0.65625 0.6875 1.671875q0 1.03125 -0.703125 1.6875q-0.6875 0.65625 -1.828125 0.65625q-1.140625 0 -1.84375 -0.65625q-0.6875 -0.65625 -0.6875 -1.6875zm15.546875 17.953127q1.25 0 2.03125 -0.6875q0.78125 -0.6875 0.8125 -1.828125l4.234375 0q-0.015625 1.71875 -0.9375 3.15625q-0.921875 1.421875 -2.53125 2.21875q-1.59375 0.78125 -3.53125 0.78125q-3.625 0 -5.71875 -2.296875q-2.09375 -2.3125 -2.09375 -6.375l0 -0.296875q0 -3.906252 2.078125 -6.234377q2.078125 -2.328125 5.703125 -2.328125q3.171875 0 5.078125 1.8125q1.921875 1.796875 1.953125 4.796877l-4.234375 0q-0.03125 -1.3125019 -0.8125 -2.125002q-0.78125 -0.828125 -2.0625 -0.828125q-1.578125 0 -2.390625 1.15625q-0.796875 1.1406269 -0.796875 3.718752l0 0.46875q0 2.609375 0.796875 3.75q0.796875 1.140625 2.421875 1.140625zm17.4375 3.640625q-3.71875 0 -6.0625 -2.28125q-2.328125 -2.28125 -2.328125 -6.078125l0 -0.4375q0 -2.546875 0.984375 -4.546877q0.984375 -2.015625 2.78125 -3.09375q1.8125 -1.09375 4.125 -1.09375q3.46875 0 5.453125 2.1875q2.0 2.1875 2.0 6.203127l0 1.84375l-10.765625 0q0.21875 1.65625 1.3125 2.65625q1.109375 1.0 2.796875 1.0q2.609375 0 4.078125 -1.890625l2.21875 2.484375q-1.015625 1.4375 -2.75 2.25q-1.734375 0.796875 -3.84375 0.796875zm-0.515625 -13.875002q-1.34375 0 -2.1875 0.90625q-0.828125 0.9062519 -1.0625 2.593752l6.28125 0l0 -0.359375q-0.03125 -1.5000019 -0.8125 -2.312502q-0.78125 -0.828125 -2.21875 -0.828125z" fill-rule="nonzero"></path><path fill="#434343" d="m447.84375 75.35435l3.0625 -16.187496l4.671875 0l-5.046875 22.749996l-4.71875 0l-3.703125 -15.21875l-3.703125 15.21875l-4.71875 0l-5.046875 -22.749996l4.671875 0l3.078125 16.156246l3.75 -16.156246l3.96875 0l3.734375 16.187496zm9.265625 -2.046875q0 -2.515625 0.96875 -4.484375q0.96875 -1.96875 2.78125 -3.046875q1.828125 -1.078125 4.234375 -1.078125q3.421875 0 5.578125 2.09375q2.171875 2.09375 2.421875 5.6875l0.03125 1.15625q0 3.890625 -2.171875 6.25q-2.171875 2.34375 -5.828125 2.34375q-3.65625 0 -5.84375 -2.34375q-2.171875 -2.34375 -2.171875 -6.375l0 -0.203125zm4.515625 0.328125q0 2.40625 0.90625 3.6875q0.90625 1.265625 2.59375 1.265625q1.640625 0 2.5625 -1.25q0.921875 -1.265625 0.921875 -4.03125q0 -2.359375 -0.921875 -3.65625q-0.921875 -1.296875 -2.59375 -1.296875q-1.65625 0 -2.5625 1.296875q-0.90625 1.28125 -0.90625 3.984375zm23.78125 -4.390625q-0.921875 -0.125 -1.625 -0.125q-2.5625 0 -3.359375 1.734375l0 11.0625l-4.515625 0l0 -16.90625l4.265625 0l0.125 2.015625q1.359375 -2.328125 3.765625 -2.328125q0.75 0 1.40625 0.203125l-0.0625 4.34375zm8.3125 5.890625l-1.625 1.625l0 5.15625l-4.515625 0l0 -23.999996l4.515625 0l0 13.296871l0.875 -1.125l4.328125 -5.078125l5.421875 0l-6.109375 7.046875l6.640625 9.859375l-5.1875 0l-4.34375 -6.78125zm18.734375 7.09375q-3.71875 0 -6.0625 -2.28125q-2.328125 -2.28125 -2.328125 -6.078125l0 -0.4375q0 -2.546875 0.984375 -4.546875q0.984375 -2.015625 2.78125 -3.09375q1.8125 -1.09375 4.125 -1.09375q3.46875 0 5.453125 2.1875q2.0 2.1875 2.0 6.203125l0 1.84375l-10.765625 0q0.21875 1.65625 1.3125 2.65625q1.109375 1.0 2.796875 1.0q2.609375 0 4.078125 -1.890625l2.21875 2.484375q-1.015625 1.4375 -2.75 2.25q-1.734375 0.796875 -3.84375 0.796875zm-0.515625 -13.875q-1.34375 0 -2.1875 0.90625q-0.828125 0.90625 -1.0625 2.59375l6.28125 0l0 -0.359375q-0.03125 -1.5 -0.8125 -2.3125q-0.78125 -0.828125 -2.21875 -0.828125zm19.53125 0.890625q-0.921875 -0.125 -1.625 -0.125q-2.5625 0 -3.359375 1.734375l0 11.0625l-4.515625 0l0 -16.90625l4.265625 0l0.125 2.015625q1.359375 -2.328125 3.765625 -2.328125q0.75 0 1.40625 0.203125l-0.0625 4.34375z" fill-rule="nonzero"></path><path fill="#6d9eeb" d="m361.43307 127.184074l0 0c0 -9.523842 7.720581 -17.244438 17.244446 -17.244438l202.64499 0c4.5734863 0 8.959656 1.8168182 12.193665 5.0507736c3.2339478 3.233963 5.0507812 7.6201553 5.0507812 12.193665l0 68.975685c0 9.523834 -7.720642 17.244446 -17.244446 17.244446l-202.64499 0c-9.523865 0 -17.244446 -7.7206116 -17.244446 -17.244446z" fill-rule="evenodd"></path><path stroke="#6d9eeb" stroke-width="1.0" stroke-linejoin="round" stroke-linecap="butt" d="m361.43307 127.184074l0 0c0 -9.523842 7.720581 -17.244438 17.244446 -17.244438l202.64499 0c4.5734863 0 8.959656 1.8168182 12.193665 5.0507736c3.2339478 3.233963 5.0507812 7.6201553 5.0507812 12.193665l0 68.975685c0 9.523834 -7.720642 17.244446 -17.244446 17.244446l-202.64499 0c-9.523865 0 -17.244446 -7.7206116 -17.244446 -17.244446z" fill-rule="evenodd"></path><path fill="#f3f3f3" d="m406.4922 173.3919l0 -22.90625l3.03125 0l0 22.90625l-3.03125 0zm8.015625 0l0 -16.59375l2.53125 0l0 2.359375q1.828125 -2.734375 5.28125 -2.734375q1.5 0 2.75 0.546875q1.265625 0.53125 1.890625 1.40625q0.625 0.875 0.875 2.078125q0.15625 0.78125 0.15625 2.734375l0 10.203125l-2.8125 0l0 -10.09375q0 -1.71875 -0.328125 -2.5625q-0.328125 -0.859375 -1.171875 -1.359375q-0.828125 -0.515625 -1.953125 -0.515625q-1.796875 0 -3.109375 1.140625q-1.296875 1.140625 -1.296875 4.328125l0 9.0625l-2.8125 0zm16.671875 -4.953125l2.78125 -0.4375q0.234375 1.671875 1.296875 2.5625q1.078125 0.890625 3.0 0.890625q1.9375 0 2.875 -0.78125q0.9375 -0.796875 0.9375 -1.859375q0 -0.953125 -0.828125 -1.5q-0.578125 -0.375 -2.875 -0.953125q-3.09375 -0.78125 -4.296875 -1.34375q-1.1875 -0.578125 -1.8125 -1.578125q-0.609375 -1.015625 -0.609375 -2.234375q0 -1.109375 0.5 -2.046875q0.515625 -0.953125 1.390625 -1.578125q0.65625 -0.484375 1.78125 -0.8125q1.140625 -0.34375 2.4375 -0.34375q1.953125 0 3.421875 0.5625q1.484375 0.5625 2.1875 1.53125q0.703125 0.953125 0.96875 2.5625l-2.75 0.375q-0.1875 -1.28125 -1.09375 -2.0q-0.890625 -0.71875 -2.53125 -0.71875q-1.9375 0 -2.765625 0.640625q-0.828125 0.640625 -0.828125 1.5q0 0.546875 0.34375 0.984375q0.34375 0.453125 1.078125 0.75q0.421875 0.15625 2.484375 0.71875q2.984375 0.796875 4.15625 1.3125q1.1875 0.5 1.859375 1.46875q0.671875 0.96875 0.671875 2.40625q0 1.40625 -0.828125 2.65625q-0.8125 1.234375 -2.359375 1.921875q-1.546875 0.671875 -3.5 0.671875q-3.234375 0 -4.9375 -1.34375q-1.6875 -1.34375 -2.15625 -3.984375zm23.265625 2.4375l0.40625 2.484375q-1.1875 0.25 -2.125 0.25q-1.53125 0 -2.375 -0.484375q-0.84375 -0.484375 -1.1875 -1.265625q-0.34375 -0.796875 -0.34375 -3.328125l0 -9.546875l-2.0625 0l0 -2.1875l2.0625 0l0 -4.109375l2.796875 -1.6875l0 5.796875l2.828125 0l0 2.1875l-2.828125 0l0 9.703125q0 1.203125 0.140625 1.546875q0.15625 0.34375 0.484375 0.546875q0.34375 0.203125 0.96875 0.203125q0.46875 0 1.234375 -0.109375zm13.578125 0.46875q-1.5625 1.328125 -3.015625 1.875q-1.4375 0.546875 -3.09375 0.546875q-2.734375 0 -4.203125 -1.328125q-1.46875 -1.34375 -1.46875 -3.421875q0 -1.21875 0.546875 -2.21875q0.5625 -1.015625 1.453125 -1.625q0.90625 -0.609375 2.03125 -0.921875q0.828125 -0.21875 2.5 -0.421875q3.40625 -0.40625 5.015625 -0.96875q0.015625 -0.578125 0.015625 -0.734375q0 -1.71875 -0.796875 -2.421875q-1.078125 -0.953125 -3.203125 -0.953125q-1.984375 0 -2.9375 0.703125q-0.9375 0.6875 -1.390625 2.453125l-2.75 -0.375q0.375 -1.765625 1.234375 -2.84375q0.859375 -1.09375 2.484375 -1.671875q1.625 -0.59375 3.765625 -0.59375q2.125 0 3.453125 0.5q1.328125 0.5 1.953125 1.265625q0.625 0.75 0.875 1.90625q0.140625 0.71875 0.140625 2.59375l0 3.75q0 3.921875 0.171875 4.96875q0.1875 1.03125 0.71875 1.984375l-2.9375 0q-0.4375 -0.875 -0.5625 -2.046875zm-0.234375 -6.28125q-1.53125 0.625 -4.59375 1.0625q-1.734375 0.25 -2.453125 0.5625q-0.71875 0.3125 -1.109375 0.921875q-0.390625 0.59375 -0.390625 1.328125q0 1.125 0.84375 1.875q0.859375 0.75 2.5 0.75q1.625 0 2.890625 -0.703125q1.265625 -0.71875 1.859375 -1.953125q0.453125 -0.953125 0.453125 -2.8125l0 -1.03125zm7.140625 8.328125l0 -22.90625l2.8125 0l0 22.90625l-2.8125 0zm7.109375 0l0 -22.90625l2.8125 0l0 22.90625l-2.8125 0zm18.0 -2.046875q-1.5625 1.328125 -3.015625 1.875q-1.4375 0.546875 -3.09375 0.546875q-2.734375 0 -4.203125 -1.328125q-1.46875 -1.34375 -1.46875 -3.421875q0 -1.21875 0.546875 -2.21875q0.5625 -1.015625 1.453125 -1.625q0.90625 -0.609375 2.03125 -0.921875q0.828125 -0.21875 2.5 -0.421875q3.40625 -0.40625 5.015625 -0.96875q0.015625 -0.578125 0.015625 -0.734375q0 -1.71875 -0.796875 -2.421875q-1.078125 -0.953125 -3.203125 -0.953125q-1.984375 0 -2.9375 0.703125q-0.9375 0.6875 -1.390625 2.453125l-2.75 -0.375q0.375 -1.765625 1.234375 -2.84375q0.859375 -1.09375 2.484375 -1.671875q1.625 -0.59375 3.765625 -0.59375q2.125 0 3.453125 0.5q1.328125 0.5 1.953125 1.265625q0.625 0.75 0.875 1.90625q0.140625 0.71875 0.140625 2.59375l0 3.75q0 3.921875 0.171875 4.96875q0.1875 1.03125 0.71875 1.984375l-2.9375 0q-0.4375 -0.875 -0.5625 -2.046875zm-0.234375 -6.28125q-1.53125 0.625 -4.59375 1.0625q-1.734375 0.25 -2.453125 0.5625q-0.71875 0.3125 -1.109375 0.921875q-0.390625 0.59375 -0.390625 1.328125q0 1.125 0.84375 1.875q0.859375 0.75 2.5 0.75q1.625 0 2.890625 -0.703125q1.265625 -0.71875 1.859375 -1.953125q0.453125 -0.953125 0.453125 -2.8125l0 -1.03125zm13.34375 5.8125l0.40625 2.484375q-1.1875 0.25 -2.125 0.25q-1.53125 0 -2.375 -0.484375q-0.84375 -0.484375 -1.1875 -1.265625q-0.34375 -0.796875 -0.34375 -3.328125l0 -9.546875l-2.0625 0l0 -2.1875l2.0625 0l0 -4.109375l2.796875 -1.6875l0 5.796875l2.828125 0l0 2.1875l-2.828125 0l0 9.703125q0 1.203125 0.140625 1.546875q0.15625 0.34375 0.484375 0.546875q0.34375 0.203125 0.96875 0.203125q0.46875 0 1.234375 -0.109375zm2.765625 -17.15625l0 -3.234375l2.8125 0l0 3.234375l-2.8125 0zm0 19.671875l0 -16.59375l2.8125 0l0 16.59375l-2.8125 0zm6.046875 -8.296875q0 -4.609375 2.5625 -6.828125q2.140625 -1.84375 5.21875 -1.84375q3.421875 0 5.59375 2.25q2.171875 2.234375 2.171875 6.1875q0 3.203125 -0.96875 5.046875q-0.953125 1.828125 -2.796875 2.84375q-1.828125 1.015625 -4.0 1.015625q-3.484375 0 -5.640625 -2.234375q-2.140625 -2.234375 -2.140625 -6.4375zm2.890625 0q0 3.1875 1.390625 4.78125q1.390625 1.578125 3.5 1.578125q2.09375 0 3.484375 -1.59375q1.390625 -1.59375 1.390625 -4.859375q0 -3.078125 -1.40625 -4.65625q-1.390625 -1.59375 -3.46875 -1.59375q-2.109375 0 -3.5 1.578125q-1.390625 1.578125 -1.390625 4.765625zm15.953125 8.296875l0 -16.59375l2.53125 0l0 2.359375q1.828125 -2.734375 5.28125 -2.734375q1.5 0 2.75 0.546875q1.265625 0.53125 1.890625 1.40625q0.625 0.875 0.875 2.078125q0.15625 0.78125 0.15625 2.734375l0 10.203125l-2.8125 0l0 -10.09375q0 -1.71875 -0.328125 -2.5625q-0.328125 -0.859375 -1.171875 -1.359375q-0.828125 -0.515625 -1.953125 -0.515625q-1.796875 0 -3.109375 1.140625q-1.296875 1.140625 -1.296875 4.328125l0 9.0625l-2.8125 0z" fill-rule="nonzero"></path><path fill="#6d9eeb" d="m189.88977 272.68277l0 0c0 -9.523865 7.7205963 -17.244446 17.24443 -17.244446l202.64497 0c4.573517 0 8.959717 1.816803 12.193665 5.0507812c3.2339783 3.2339478 5.0507812 7.6201477 5.0507812 12.193665l0 68.97568c0 9.523834 -7.7206116 17.244446 -17.244446 17.244446l-202.64497 0c-9.523834 0 -17.24443 -7.7206116 -17.24443 -17.244446z" fill-rule="evenodd"></path><path stroke="#6d9eeb" stroke-width="1.0" stroke-linejoin="round" stroke-linecap="butt" d="m189.88977 272.68277l0 0c0 -9.523865 7.7205963 -17.244446 17.24443 -17.244446l202.64497 0c4.573517 0 8.959717 1.816803 12.193665 5.0507812c3.2339783 3.2339478 5.0507812 7.6201477 5.0507812 12.193665l0 68.97568c0 9.523834 -7.7206116 17.244446 -17.244446 17.244446l-202.64497 0c-9.523834 0 -17.24443 -7.7206116 -17.24443 -17.244446z" fill-rule="evenodd"></path><path fill="#f3f3f3" d="m242.59732 318.8906l8.796875 -22.90625l3.265625 0l9.375 22.90625l-3.453125 0l-2.671875 -6.9375l-9.578125 0l-2.515625 6.9375l-3.21875 0zm6.609375 -9.40625l7.765625 0l-2.390625 -6.34375q-1.09375 -2.890625 -1.625 -4.75q-0.4375 2.203125 -1.234375 4.375l-2.515625 6.71875zm27.71875 3.328125l2.765625 0.359375q-0.453125 2.859375 -2.328125 4.484375q-1.859375 1.609375 -4.578125 1.609375q-3.40625 0 -5.484375 -2.21875q-2.0625 -2.234375 -2.0625 -6.390625q0 -2.6875 0.890625 -4.703125q0.890625 -2.015625 2.703125 -3.015625q1.828125 -1.015625 3.96875 -1.015625q2.703125 0 4.421875 1.375q1.71875 1.359375 2.203125 3.875l-2.734375 0.421875q-0.390625 -1.671875 -1.390625 -2.515625q-0.984375 -0.84375 -2.390625 -0.84375q-2.125 0 -3.453125 1.53125q-1.328125 1.515625 -1.328125 4.8125q0 3.34375 1.28125 4.859375q1.28125 1.515625 3.34375 1.515625q1.65625 0 2.765625 -1.015625q1.109375 -1.015625 1.40625 -3.125zm11.3125 3.5625l0.40625 2.484375q-1.1875 0.25 -2.125 0.25q-1.53125 0 -2.375 -0.484375q-0.84375 -0.484375 -1.1875 -1.265625q-0.34375 -0.796875 -0.34375 -3.328125l0 -9.546875l-2.0625 0l0 -2.1875l2.0625 0l0 -4.109375l2.796875 -1.6875l0 5.796875l2.828125 0l0 2.1875l-2.828125 0l0 9.703125q0 1.203125 0.140625 1.546875q0.15625 0.34375 0.484375 0.546875q0.34375 0.203125 0.96875 0.203125q0.46875 0 1.234375 -0.109375zm2.765625 -17.15625l0 -3.234375l2.8125 0l0 3.234375l-2.8125 0zm0 19.671875l0 -16.59375l2.8125 0l0 16.59375l-2.8125 0zm11.703125 0l-6.3125 -16.59375l2.96875 0l3.5625 9.9375q0.578125 1.609375 1.0625 3.34375q0.375 -1.3125 1.046875 -3.15625l3.6875 -10.125l2.890625 0l-6.28125 16.59375l-2.625 0zm22.21875 -2.046875q-1.5625 1.328125 -3.015625 1.875q-1.4375 0.546875 -3.09375 0.546875q-2.734375 0 -4.203125 -1.328125q-1.46875 -1.34375 -1.46875 -3.421875q0 -1.21875 0.546875 -2.21875q0.5625 -1.015625 1.453125 -1.625q0.90625 -0.609375 2.03125 -0.921875q0.828125 -0.21875 2.5 -0.421875q3.40625 -0.40625 5.015625 -0.96875q0.015625 -0.578125 0.015625 -0.734375q0 -1.71875 -0.796875 -2.421875q-1.078125 -0.953125 -3.203125 -0.953125q-1.984375 0 -2.9375 0.703125q-0.9375 0.6875 -1.390625 2.453125l-2.75 -0.375q0.375 -1.765625 1.234375 -2.84375q0.859375 -1.09375 2.484375 -1.671875q1.625 -0.59375 3.765625 -0.59375q2.125 0 3.453125 0.5q1.328125 0.5 1.953125 1.265625q0.625 0.75 0.875 1.90625q0.140625 0.71875 0.140625 2.59375l0 3.75q0 3.921875 0.171875 4.96875q0.1875 1.03125 0.71875 1.984375l-2.9375 0q-0.4375 -0.875 -0.5625 -2.046875zm-0.234375 -6.28125q-1.53125 0.625 -4.59375 1.0625q-1.734375 0.25 -2.453125 0.5625q-0.71875 0.3125 -1.109375 0.921875q-0.390625 0.59375 -0.390625 1.328125q0 1.125 0.84375 1.875q0.859375 0.75 2.5 0.75q1.625 0 2.890625 -0.703125q1.265625 -0.71875 1.859375 -1.953125q0.453125 -0.953125 0.453125 -2.8125l0 -1.03125zm13.34375 5.8125l0.40625 2.484375q-1.1875 0.25 -2.125 0.25q-1.53125 0 -2.375 -0.484375q-0.84375 -0.484375 -1.1875 -1.265625q-0.34375 -0.796875 -0.34375 -3.328125l0 -9.546875l-2.0625 0l0 -2.1875l2.0625 0l0 -4.109375l2.796875 -1.6875l0 5.796875l2.828125 0l0 2.1875l-2.828125 0l0 9.703125q0 1.203125 0.140625 1.546875q0.15625 0.34375 0.484375 0.546875q0.34375 0.203125 0.96875 0.203125q0.46875 0 1.234375 -0.109375zm14.109375 -2.828125l2.90625 0.359375q-0.6875 2.546875 -2.546875 3.953125q-1.859375 1.40625 -4.75 1.40625q-3.640625 0 -5.78125 -2.234375q-2.125 -2.25 -2.125 -6.296875q0 -4.1875 2.15625 -6.5q2.15625 -2.3125 5.59375 -2.3125q3.328125 0 5.4375 2.265625q2.109375 2.265625 2.109375 6.375q0 0.25 -0.015625 0.75l-12.375 0q0.15625 2.734375 1.546875 4.1875q1.390625 1.453125 3.46875 1.453125q1.546875 0 2.640625 -0.8125q1.09375 -0.8125 1.734375 -2.59375zm-9.234375 -4.546875l9.265625 0q-0.1875 -2.09375 -1.0625 -3.140625q-1.34375 -1.625 -3.484375 -1.625q-1.9375 0 -3.265625 1.296875q-1.3125 1.296875 -1.453125 3.46875zm26.4375 9.890625l0 -2.09375q-1.578125 2.46875 -4.640625 2.46875q-1.984375 0 -3.65625 -1.09375q-1.65625 -1.09375 -2.578125 -3.046875q-0.90625 -1.96875 -0.90625 -4.515625q0 -2.484375 0.828125 -4.5q0.828125 -2.03125 2.484375 -3.109375q1.65625 -1.078125 3.703125 -1.078125q1.5 0 2.671875 0.640625q1.171875 0.625 1.90625 1.640625l0 -8.21875l2.796875 0l0 22.90625l-2.609375 0zm-8.890625 -8.28125q0 3.1875 1.34375 4.765625q1.34375 1.578125 3.171875 1.578125q1.84375 0 3.125 -1.5q1.296875 -1.515625 1.296875 -4.609375q0 -3.40625 -1.3125 -5.0q-1.3125 -1.59375 -3.234375 -1.59375q-1.875 0 -3.140625 1.53125q-1.25 1.53125 -1.25 4.828125z" fill-rule="nonzero"></path><path fill="#6d9eeb" d="m189.88977 418.18146l0 0c0 -9.523865 7.7205963 -17.244446 17.24443 -17.244446l202.64497 0c4.573517 0 8.959717 1.816803 12.193665 5.0507812c3.2339783 3.2339478 5.0507812 7.6201477 5.0507812 12.193665l0 68.97568c0 9.523834 -7.7206116 17.244446 -17.244446 17.244446l-202.64497 0c-9.523834 0 -17.24443 -7.7206116 -17.24443 -17.244446z" fill-rule="evenodd"></path><path stroke="#6d9eeb" stroke-width="1.0" stroke-linejoin="round" stroke-linecap="butt" d="m189.88977 418.18146l0 0c0 -9.523865 7.7205963 -17.244446 17.24443 -17.244446l202.64497 0c4.573517 0 8.959717 1.816803 12.193665 5.0507812c3.2339783 3.2339478 5.0507812 7.6201477 5.0507812 12.193665l0 68.97568c0 9.523834 -7.7206116 17.244446 -17.244446 17.244446l-202.64497 0c-9.523834 0 -17.24443 -7.7206116 -17.24443 -17.244446z" fill-rule="evenodd"></path><path fill="#f3f3f3" d="m285.6442 464.38928l0 -22.90625l3.03125 0l0 22.90625l-3.03125 0zm18.78125 0l0 -2.09375q-1.578125 2.46875 -4.640625 2.46875q-1.984375 0 -3.65625 -1.09375q-1.65625 -1.09375 -2.578125 -3.046875q-0.90625 -1.96875 -0.90625 -4.515625q0 -2.484375 0.828125 -4.5q0.828125 -2.03125 2.484375 -3.109375q1.65625 -1.078125 3.703125 -1.078125q1.5 0 2.671875 0.640625q1.171875 0.625 1.90625 1.640625l0 -8.21875l2.796875 0l0 22.90625l-2.609375 0zm-8.890625 -8.28125q0 3.1875 1.34375 4.765625q1.34375 1.578125 3.171875 1.578125q1.84375 0 3.125 -1.5q1.296875 -1.515625 1.296875 -4.609375q0 -3.40625 -1.3125 -5.0q-1.3125 -1.59375 -3.234375 -1.59375q-1.875 0 -3.140625 1.53125q-1.25 1.53125 -1.25 4.828125zm15.859375 8.28125l0 -22.90625l2.8125 0l0 22.90625l-2.8125 0zm18.53125 -5.34375l2.90625 0.359375q-0.6875 2.546875 -2.546875 3.953125q-1.859375 1.40625 -4.75 1.40625q-3.640625 0 -5.78125 -2.234375q-2.125 -2.25 -2.125 -6.296875q0 -4.1875 2.15625 -6.5q2.15625 -2.3125 5.59375 -2.3125q3.328125 0 5.4375 2.265625q2.109375 2.265625 2.109375 6.375q0 0.25 -0.015625 0.75l-12.375 0q0.15625 2.734375 1.546875 4.1875q1.390625 1.453125 3.46875 1.453125q1.546875 0 2.640625 -0.8125q1.09375 -0.8125 1.734375 -2.59375zm-9.234375 -4.546875l9.265625 0q-0.1875 -2.09375 -1.0625 -3.140625q-1.34375 -1.625 -3.484375 -1.625q-1.9375 0 -3.265625 1.296875q-1.3125 1.296875 -1.453125 3.46875z" fill-rule="nonzero"></path><path fill="#e06666" d="m536.79004 272.68277l0 0c0 -9.523865 7.720581 -17.244446 17.244446 -17.244446l202.64496 0c4.5734863 0 8.959717 1.816803 12.193665 5.0507812c3.2339478 3.2339478 5.0507812 7.6201477 5.0507812 12.193665l0 68.97568c0 9.523834 -7.720581 17.244446 -17.244446 17.244446l-202.64496 0c-9.523865 0 -17.244446 -7.7206116 -17.244446 -17.244446z" fill-rule="evenodd"></path><path stroke="#e06666" stroke-width="1.0" stroke-linejoin="round" stroke-linecap="butt" d="m536.79004 272.68277l0 0c0 -9.523865 7.720581 -17.244446 17.244446 -17.244446l202.64496 0c4.5734863 0 8.959717 1.816803 12.193665 5.0507812c3.2339478 3.2339478 5.0507812 7.6201477 5.0507812 12.193665l0 68.97568c0 9.523834 -7.720581 17.244446 -17.244446 17.244446l-202.64496 0c-9.523865 0 -17.244446 -7.7206116 -17.244446 -17.244446z" fill-rule="evenodd"></path><path fill="#f3f3f3" d="m622.3335 318.8906l0 -22.90625l16.5625 0l0 2.703125l-13.53125 0l0 7.015625l12.671875 0l0 2.6875l-12.671875 0l0 7.796875l14.0625 0l0 2.703125l-17.09375 0zm20.890625 0l0 -16.59375l2.53125 0l0 2.515625q0.96875 -1.765625 1.78125 -2.328125q0.828125 -0.5625 1.8125 -0.5625q1.421875 0 2.890625 0.90625l-0.96875 2.609375q-1.03125 -0.609375 -2.0625 -0.609375q-0.921875 0 -1.65625 0.5625q-0.734375 0.546875 -1.046875 1.53125q-0.46875 1.5 -0.46875 3.28125l0 8.6875l-2.8125 0zm10.65625 0l0 -16.59375l2.53125 0l0 2.515625q0.96875 -1.765625 1.78125 -2.328125q0.828125 -0.5625 1.8125 -0.5625q1.421875 0 2.890625 0.90625l-0.96875 2.609375q-1.03125 -0.609375 -2.0625 -0.609375q-0.921875 0 -1.65625 0.5625q-0.734375 0.546875 -1.046875 1.53125q-0.46875 1.5 -0.46875 3.28125l0 8.6875l-2.8125 0zm9.640625 -8.296875q0 -4.609375 2.5625 -6.828125q2.140625 -1.84375 5.21875 -1.84375q3.421875 0 5.59375 2.25q2.171875 2.234375 2.171875 6.1875q0 3.203125 -0.96875 5.046875q-0.953125 1.828125 -2.796875 2.84375q-1.828125 1.015625 -4.0 1.015625q-3.484375 0 -5.640625 -2.234375q-2.140625 -2.234375 -2.140625 -6.4375zm2.890625 0q0 3.1875 1.390625 4.78125q1.390625 1.578125 3.5 1.578125q2.09375 0 3.484375 -1.59375q1.390625 -1.59375 1.390625 -4.859375q0 -3.078125 -1.40625 -4.65625q-1.390625 -1.59375 -3.46875 -1.59375q-2.109375 0 -3.5 1.578125q-1.390625 1.578125 -1.390625 4.765625zm15.921875 8.296875l0 -16.59375l2.53125 0l0 2.515625q0.96875 -1.765625 1.78125 -2.328125q0.828125 -0.5625 1.8125 -0.5625q1.421875 0 2.890625 0.90625l-0.96875 2.609375q-1.03125 -0.609375 -2.0625 -0.609375q-0.921875 0 -1.65625 0.5625q-0.734375 0.546875 -1.046875 1.53125q-0.46875 1.5 -0.46875 3.28125l0 8.6875l-2.8125 0z" fill-rule="nonzero"></path><path fill="#000000" fill-opacity="0.0" d="m480.0 213.4042l-171.55905 42.04724" fill-rule="evenodd"></path><path stroke="#666666" stroke-width="3.0" stroke-linejoin="round" stroke-linecap="butt" d="m480.0 213.4042l-154.07648 37.762436" fill-rule="evenodd"></path><path fill="#666666" stroke="#666666" stroke-width="3.0" stroke-linecap="butt" d="m324.74396 246.3539l-12.0433655 8.053558l14.402496 1.5719604z" fill-rule="evenodd"></path><path fill="#000000" fill-opacity="0.0" d="m480.0 213.4042l175.37006 42.04724" fill-rule="evenodd"></path><path stroke="#666666" stroke-width="3.0" stroke-linejoin="round" stroke-linecap="butt" d="m480.0 213.4042l157.86621 37.85045" fill-rule="evenodd"></path><path fill="#666666" stroke="#666666" stroke-width="3.0" stroke-linecap="butt" d="m636.7108 256.07327l14.394409 -1.6443787l-12.08374 -7.992874z" fill-rule="evenodd"></path><path fill="#000000" fill-opacity="0.0" d="m308.4567 358.9029l0 42.04724" fill-rule="evenodd"></path><path stroke="#666666" stroke-width="3.0" stroke-linejoin="round" stroke-linecap="butt" d="m308.4567 358.9029l0 24.047241" fill-rule="evenodd"></path><path fill="#666666" stroke="#666666" stroke-width="3.0" stroke-linecap="butt" d="m303.5015 382.95013l4.9552 13.614288l4.9552 -13.614288z" fill-rule="evenodd"></path></g></svg>

