<?xml version="1.0" standalone="yes"?>

<svg version="1.1" viewBox="0.0 0.0 774.0262467191601 100.0" fill="none" stroke="none" stroke-linecap="square" stroke-miterlimit="10" xmlns="http://www.w3.org/2000/svg" xmlns:xlink="http://www.w3.org/1999/xlink"><clipPath id="p.0"><path d="m0 0l774.02625 0l0 100.0l-774.02625 0l0 -100.0z" clip-rule="nonzero"></path></clipPath><g clip-path="url(#p.0)"><path fill="#000000" fill-opacity="0.0" d="m0 0l774.02625 0l0 100.0l-774.02625 0z" fill-rule="nonzero"></path><path fill="#ffffff" d="m0 0l774.04724 0l0 100.0l-774.04724 0z" fill-rule="nonzero"></path><path fill="#000000" d="m67.46112 78.799995l-6.53125 0l0 -57.265625l7.03125 0l0 20.421875q4.453125 -5.578125 11.375 -5.578125q3.828125 0 7.234375 1.546875q3.421875 1.53125 5.625 4.328125q2.21875 2.796875 3.46875 6.75q1.25 3.9375 1.25 8.421875q0 10.671875 -5.28125 16.5q-5.265625 5.8125 -12.65625 5.8125q-7.34375 0 -11.515625 -6.140625l0 5.203125zm-0.078125 -21.0625q0 7.46875 2.03125 10.78125q3.3125 5.4375 8.984375 5.4375q4.609375 0 7.96875 -4.0q3.359375 -4.015625 3.359375 -11.9375q0 -8.125 -3.234375 -11.984375q-3.21875 -3.875 -7.78125 -3.875q-4.609375 0 -7.96875 4.0q-3.359375 4.0 -3.359375 11.578125zm37.929688 21.0625l0 -57.265625l7.03125 0l0 57.265625l-7.03125 0zm15.3046875 -20.75q0 -11.515625 6.40625 -17.0625q5.359375 -4.609375 13.046875 -4.609375q8.5625 0 13.984375 5.609375q5.4375 5.59375 5.4375 15.484375q0 8.0 -2.40625 12.59375q-2.40625 4.59375 -7.0 7.140625q-4.578125 2.53125 -10.015625 2.53125q-8.703125 0 -14.078125 -5.578125q-5.375 -5.59375 -5.375 -16.109375zm7.234375 0q0 7.96875 3.46875 11.9375q3.484375 3.96875 8.75 3.96875q5.234375 0 8.703125 -3.984375q3.484375 -3.984375 3.484375 -12.15625q0 -7.6875 -3.5 -11.65625q-3.484375 -3.96875 -8.6875 -3.96875q-5.265625 0 -8.75 3.953125q-3.46875 3.9375 -3.46875 11.90625zm38.585938 24.1875l6.84375 1.015625q0.421875 3.171875 2.375 4.609375q2.625 1.953125 7.15625 1.953125q4.875 0 7.53125 -1.953125q2.65625 -1.953125 3.59375 -5.46875q0.546875 -2.140625 0.515625 -9.03125q-4.609375 5.4375 -11.484375 5.4375q-8.5625 0 -13.25 -6.171875q-4.6875 -6.171875 -4.6875 -14.8125q0 -5.9375 2.140625 -10.953125q2.15625 -5.015625 6.234375 -7.75q4.09375 -2.734375 9.59375 -2.734375q7.34375 0 12.109375 5.9375l0 -5.0l6.484375 0l0 35.859375q0 9.6875 -1.96875 13.734375q-1.96875 4.046875 -6.25 6.390625q-4.28125 2.34375 -10.53125 2.34375q-7.421875 0 -12.0 -3.34375q-4.5625 -3.34375 -4.40625 -10.0625zm5.828125 -24.921875q0 8.15625 3.234375 11.90625q3.25 3.75 8.125 3.75q4.84375 0 8.125 -3.71875q3.28125 -3.734375 3.28125 -11.703125q0 -7.625 -3.375 -11.484375q-3.375 -3.875 -8.140625 -3.875q-4.6875 0 -7.96875 3.8125q-3.28125 3.8125 -3.28125 11.3125zm41.945312 21.484375l0 -8.015625l8.015625 0l0 8.015625l-8.015625 0zm35.585938 -6.296875l1.015625 6.21875q-2.96875 0.625 -5.3125 0.625q-3.828125 0 -5.9375 -1.203125q-2.109375 -1.21875 -2.96875 -3.1875q-0.859375 -1.984375 -0.859375 -8.3125l0 -23.859375l-5.15625 0l0 -5.46875l5.15625 0l0 -10.28125l7.0 -4.21875l0 14.5l7.0625 0l0 5.46875l-7.0625 0l0 24.25q0 3.015625 0.359375 3.875q0.375 0.859375 1.21875 1.375q0.84375 0.5 2.40625 0.5q1.171875 0 3.078125 -0.28125zm6.8828125 6.296875l0 -57.265625l7.03125 0l0 20.546875q4.921875 -5.703125 12.421875 -5.703125q4.609375 0 8.0 1.8125q3.40625 1.8125 4.859375 5.015625q1.46875 3.203125 1.46875 9.296875l0 26.296875l-7.03125 0l0 -26.296875q0 -5.265625 -2.28125 -7.671875q-2.28125 -2.40625 -6.46875 -2.40625q-3.125 0 -5.875 1.625q-2.75 1.625 -3.921875 4.40625q-1.171875 2.765625 -1.171875 7.640625l0 22.703125l-7.03125 0zm41.867188 -20.75q0 -11.515625 6.40625 -17.0625q5.359375 -4.609375 13.046875 -4.609375q8.5625 0 13.984375 5.609375q5.4375 5.59375 5.4375 15.484375q0 8.0 -2.40625 12.59375q-2.40625 4.59375 -7.0 7.140625q-4.578125 2.53125 -10.015625 2.53125q-8.703125 0 -14.078125 -5.578125q-5.375 -5.59375 -5.375 -16.109375zm7.234375 0q0 7.96875 3.46875 11.9375q3.484375 3.96875 8.75 3.96875q5.234375 0 8.703125 -3.984375q3.484375 -3.984375 3.484375 -12.15625q0 -7.6875 -3.5 -11.65625q-3.484375 -3.96875 -8.6875 -3.96875q-5.265625 0 -8.75 3.953125q-3.46875 3.9375 -3.46875 11.90625zm67.07031 20.75l0 -6.09375q-4.84375 7.03125 -13.171875 7.03125q-3.671875 0 -6.859375 -1.40625q-3.171875 -1.40625 -4.71875 -3.53125q-1.546875 -2.140625 -2.171875 -5.21875q-0.421875 -2.078125 -0.421875 -6.5625l0 -25.703125l7.03125 0l0 23.0q0 5.515625 0.421875 7.421875q0.671875 2.78125 2.8125 4.359375q2.15625 1.578125 5.3125 1.578125q3.171875 0 5.9375 -1.609375q2.78125 -1.625 3.921875 -4.421875q1.15625 -2.796875 1.15625 -8.109375l0 -22.21875l7.03125 0l0 41.484375l-6.28125 0zm16.007812 3.4375l6.84375 1.015625q0.421875 3.171875 2.375 4.609375q2.625 1.953125 7.15625 1.953125q4.875 0 7.53125 -1.953125q2.65625 -1.953125 3.59375 -5.46875q0.546875 -2.140625 0.515625 -9.03125q-4.609375 5.4375 -11.484375 5.4375q-8.5625 0 -13.25 -6.171875q-4.6875 -6.171875 -4.6875 -14.8125q0 -5.9375 2.140625 -10.953125q2.15625 -5.015625 6.234375 -7.75q4.09375 -2.734375 9.59375 -2.734375q7.34375 0 12.109375 5.9375l0 -5.0l6.484375 0l0 35.859375q0 9.6875 -1.96875 13.734375q-1.96875 4.046875 -6.25 6.390625q-4.28125 2.34375 -10.53125 2.34375q-7.421875 0 -12.0 -3.34375q-4.5625 -3.34375 -4.40625 -10.0625zm5.828125 -24.921875q0 8.15625 3.234375 11.90625q3.25 3.75 8.125 3.75q4.84375 0 8.125 -3.71875q3.28125 -3.734375 3.28125 -11.703125q0 -7.625 -3.375 -11.484375q-3.375 -3.875 -8.140625 -3.875q-4.6875 0 -7.96875 3.8125q-3.28125 3.8125 -3.28125 11.3125zm39.960938 21.484375l0 -57.265625l7.03125 0l0 20.546875q4.921875 -5.703125 12.421875 -5.703125q4.609375 0 8.0 1.8125q3.40625 1.8125 4.859375 5.015625q1.46875 3.203125 1.46875 9.296875l0 26.296875l-7.03125 0l0 -26.296875q0 -5.265625 -2.28125 -7.671875q-2.28125 -2.40625 -6.46875 -2.40625q-3.125 0 -5.875 1.625q-2.75 1.625 -3.921875 4.40625q-1.171875 2.765625 -1.171875 7.640625l0 22.703125l-7.03125 0zm59.835938 -6.296875l1.015625 6.21875q-2.96875 0.625 -5.3125 0.625q-3.828125 0 -5.9375 -1.203125q-2.109375 -1.21875 -2.96875 -3.1875q-0.859375 -1.984375 -0.859375 -8.3125l0 -23.859375l-5.15625 0l0 -5.46875l5.15625 0l0 -10.28125l7.0 -4.21875l0 14.5l7.0625 0l0 5.46875l-7.0625 0l0 24.25q0 3.015625 0.359375 3.875q0.375 0.859375 1.21875 1.375q0.84375 0.5 2.40625 0.5q1.171875 0 3.078125 -0.28125zm6.8046875 6.296875l0 -41.484375l6.328125 0l0 6.28125q2.421875 -4.40625 4.46875 -5.8125q2.046875 -1.40625 4.515625 -1.40625q3.546875 0 7.21875 2.265625l-2.421875 6.515625q-2.578125 -1.515625 -5.15625 -1.515625q-2.296875 0 -4.140625 1.390625q-1.828125 1.375 -2.609375 3.84375q-1.171875 3.75 -1.171875 8.203125l0 21.71875l-7.03125 0zm53.78125 -5.125q-3.90625 3.328125 -7.515625 4.703125q-3.609375 1.359375 -7.75 1.359375q-6.84375 0 -10.515625 -3.34375q-3.671875 -3.34375 -3.671875 -8.53125q0 -3.046875 1.390625 -5.5625q1.390625 -2.53125 3.625 -4.046875q2.25 -1.53125 5.0625 -2.3125q2.078125 -0.546875 6.25 -1.046875q8.515625 -1.015625 12.546875 -2.421875q0.03125 -1.453125 0.03125 -1.84375q0 -4.296875 -1.984375 -6.046875q-2.703125 -2.390625 -8.015625 -2.390625q-4.953125 0 -7.328125 1.75q-2.359375 1.734375 -3.484375 6.140625l-6.875 -0.9375q0.9375 -4.40625 3.078125 -7.125q2.15625 -2.71875 6.21875 -4.171875q4.0625 -1.46875 9.40625 -1.46875q5.3125 0 8.625 1.25q3.328125 1.25 4.890625 3.140625q1.5625 1.890625 2.1875 4.78125q0.359375 1.796875 0.359375 6.484375l0 9.375q0 9.8125 0.4375 12.40625q0.453125 2.59375 1.78125 4.984375l-7.34375 0q-1.09375 -2.1875 -1.40625 -5.125zm-0.578125 -15.703125q-3.828125 1.5625 -11.484375 2.65625q-4.34375 0.625 -6.140625 1.40625q-1.796875 0.78125 -2.78125 2.296875q-0.96875 1.5 -0.96875 3.328125q0 2.8125 2.125 4.6875q2.140625 1.875 6.234375 1.875q4.0625 0 7.21875 -1.765625q3.171875 -1.78125 4.65625 -4.875q1.140625 -2.375 1.140625 -7.03125l0 -2.578125zm18.007812 20.828125l0 -41.484375l6.28125 0l0 5.8125q1.953125 -3.046875 5.1875 -4.890625q3.25 -1.859375 7.390625 -1.859375q4.609375 0 7.5625 1.921875q2.953125 1.90625 4.15625 5.34375q4.921875 -7.265625 12.8125 -7.265625q6.171875 0 9.484375 3.421875q3.328125 3.40625 3.328125 10.515625l0 28.484375l-6.984375 0l0 -26.140625q0 -4.21875 -0.6875 -6.0625q-0.6875 -1.859375 -2.484375 -2.984375q-1.796875 -1.140625 -4.21875 -1.140625q-4.375 0 -7.265625 2.90625q-2.890625 2.90625 -2.890625 9.3125l0 24.109375l-7.03125 0l0 -26.953125q0 -4.6875 -1.71875 -7.03125q-1.71875 -2.34375 -5.625 -2.34375q-2.96875 0 -5.484375 1.5625q-2.515625 1.5625 -3.65625 4.578125q-1.125 3.0 -1.125 8.65625l0 21.53125l-7.03125 0zm68.625 0l0 -8.015625l8.015625 0l0 8.015625l-8.015625 0zm20.273438 -49.1875l0 -8.078125l7.03125 0l0 8.078125l-7.03125 0zm0 49.1875l0 -41.484375l7.03125 0l0 41.484375l-7.03125 0zm15.1171875 -20.75q0 -11.515625 6.40625 -17.0625q5.359375 -4.609375 13.046875 -4.609375q8.5625 0 13.984375 5.609375q5.4375 5.59375 5.4375 15.484375q0 8.0 -2.40625 12.59375q-2.40625 4.59375 -7.0 7.140625q-4.578125 2.53125 -10.015625 2.53125q-8.703125 0 -14.078125 -5.578125q-5.375 -5.59375 -5.375 -16.109375zm7.234375 0q0 7.96875 3.46875 11.9375q3.484375 3.96875 8.75 3.96875q5.234375 0 8.703125 -3.984375q3.484375 -3.984375 3.484375 -12.15625q0 -7.6875 -3.5 -11.65625q-3.484375 -3.96875 -8.6875 -3.96875q-5.265625 0 -8.75 3.953125q-3.46875 3.9375 -3.46875 11.90625z" fill-rule="nonzero"></path></g></svg>

