<?xml version="1.0" standalone="yes"?>

<svg version="1.1" viewBox="0.0 0.0 960.0 720.0" fill="none" stroke="none" stroke-linecap="square" stroke-miterlimit="10" xmlns="http://www.w3.org/2000/svg" xmlns:xlink="http://www.w3.org/1999/xlink"><clipPath id="p.0"><path d="m0 0l960.0 0l0 720.0l-960.0 0l0 -720.0z" clip-rule="nonzero"></path></clipPath><g clip-path="url(#p.0)"><path fill="#000000" fill-opacity="0.0" d="m0 0l960.0 0l0 720.0l-960.0 0z" fill-rule="nonzero"></path><path fill="#ffffff" d="m942.4724 701.76117l-154.15747 0l0 0l-231.2362 0l-539.55115 0l0 -337.37796l0 0l0 -144.59056l0 -96.3937l539.55115 0l369.29968 -107.30354l-138.06348 107.30354l154.15747 0l0 96.3937l0 144.59056l0 0z" fill-rule="nonzero"></path><path stroke="#000000" stroke-width="2.0" stroke-linejoin="round" stroke-linecap="butt" d="m942.4724 701.76117l-154.15747 0l0 0l-231.2362 0l-539.55115 0l0 -337.37796l0 0l0 -144.59056l0 -96.3937l539.55115 0l369.29968 -107.30354l-138.06348 107.30354l154.15747 0l0 96.3937l0 144.59056l0 0z" fill-rule="nonzero"></path><path fill="#000000" fill-opacity="0.0" d="m17.52756 376.5328l924.9448 0l0 72.09448l-924.9448 0z" fill-rule="nonzero"></path><path fill="#000000" d="m381.34375 404.89755l0 -12.8125l12.8125 0l0 12.8125l-12.8125 0zm0 53.5625l0 -12.8125l12.8125 0l0 12.8125l-12.8125 0zm53.9375 26.9375q-9.3125 -11.75 -15.75 -27.5q-6.4375 -15.75 -6.4375 -32.625q0 -14.875 4.8125 -28.5q5.625 -15.8125 17.375 -31.5l8.0625 0q-7.5625 13.0 -10.0 18.5625q-3.8125 8.625 -6.0 18.0q-2.6875 11.6875 -2.6875 23.5q0 30.0625 18.6875 60.0625l-8.0625 0zm59.875 -26.9375l0 -12.8125l12.8125 0l0 12.8125l-12.8125 0zm35.5625 0l0 -12.8125l12.8125 0l0 12.8125l-12.8125 0zm35.5625 0l0 -12.8125l12.8125 0l0 12.8125l-12.8125 0z" fill-rule="nonzero"></path></g></svg>

