<?xml version="1.0" standalone="yes"?>

<svg version="1.1" viewBox="0.0 0.0 960.0 720.0" fill="none" stroke="none" stroke-linecap="square" stroke-miterlimit="10" xmlns="http://www.w3.org/2000/svg" xmlns:xlink="http://www.w3.org/1999/xlink"><clipPath id="p.0"><path d="m0 0l960.0 0l0 720.0l-960.0 0l0 -720.0z" clip-rule="nonzero"></path></clipPath><g clip-path="url(#p.0)"><path fill="#000000" fill-opacity="0.0" d="m0 0l960.0 0l0 720.0l-960.0 0z" fill-rule="nonzero"></path><path fill="#ffffff" d="m17.167978 18.24147l154.51443 0l0 0l231.77165 0l540.80054 0l0 319.2257l0 0l0 136.811l0 91.20734l-540.80054 0l-301.5133 138.41992l69.74164 -138.41992l-154.51443 0l0 -91.20734l0 -136.811l0 0z" fill-rule="nonzero"></path><path stroke="#000000" stroke-width="2.0" stroke-linejoin="round" stroke-linecap="butt" d="m17.167978 18.24147l154.51443 0l0 0l231.77165 0l540.80054 0l0 319.2257l0 0l0 136.811l0 91.20734l-540.80054 0l-301.5133 138.41992l69.74164 -138.41992l-154.51443 0l0 -91.20734l0 -136.811l0 0z" fill-rule="nonzero"></path><path fill="#000000" d="m131.92223 252.58537l7.578125 1.90625q-2.375 9.343735 -8.578125 14.249985q-6.1875076 4.90625 -15.125008 4.90625q-9.265625 0 -15.0625 -3.765625q-5.796875 -3.78125 -8.828125 -10.921875q-3.03125 -7.1562347 -3.03125 -15.35936q0 -8.953125 3.421875 -15.609375q3.421875 -6.65625 9.71875 -10.109375q6.3125 -3.46875 13.890625 -3.46875q8.59375 0 14.453133 4.375q5.859375 4.375 8.171875 12.3125l-7.46875 1.75q-1.984375 -6.25 -5.7812576 -9.09375q-3.78125 -2.859375 -9.53125 -2.859375q-6.59375 0 -11.03125 3.171875q-4.4375 3.15625 -6.234375 8.5q-1.796875 5.328125 -1.796875 10.984375q0 7.3125 2.125 12.76561q2.140625 5.4375 6.625 8.140625q4.5 2.6875 9.734375 2.6875q6.359375 0 10.765625 -3.671875q4.4218826 -3.671875 5.9843826 -10.89061zm13.3984375 -0.671875q0 -11.515625 6.40625 -17.0625q5.359375 -4.609375 13.046875 -4.609375q8.5625 0 13.984375 5.609375q5.4375 5.59375 5.4375 15.484375q0 7.9999847 -2.40625 12.593735q-2.40625 4.59375 -7.0 7.140625q-4.578125 2.53125 -10.015625 2.53125q-8.703125 0 -14.078125 -5.578125q-5.375 -5.59375 -5.375 -16.10936zm7.234375 0q0 7.9687347 3.46875 11.937485q3.484375 3.96875 8.75 3.96875q5.234375 0 8.703125 -3.984375q3.484375 -3.984375 3.484375 -12.156235q0 -7.6875 -3.5 -11.65625q-3.484375 -3.96875 -8.6875 -3.96875q-5.265625 0 -8.75 3.953125q-3.46875 3.9375 -3.46875 11.90625zm67.07031 20.749985l0 -6.09375q-4.84375 7.03125 -13.171875 7.03125q-3.671875 0 -6.859375 -1.40625q-3.171875 -1.40625 -4.71875 -3.53125q-1.546875 -2.140625 -2.171875 -5.21875q-0.421875 -2.078125 -0.421875 -6.5625l0 -25.70311l7.03125 0l0 23.0q0 5.5156097 0.421875 7.4218597q0.671875 2.78125 2.8125 4.359375q2.15625 1.578125 5.3125 1.578125q3.171875 0 5.9375 -1.609375q2.78125 -1.625 3.921875 -4.421875q1.15625 -2.796875 1.15625 -8.10936l0 -22.21875l7.03125 0l0 41.48436l-6.28125 0zm17.148438 0l0 -57.26561l7.03125 0l0 57.26561l-7.03125 0zm44.835922 0l0 -5.234375q-3.9375 6.171875 -11.59375 6.171875q-4.96875 0 -9.125 -2.734375q-4.15625 -2.734375 -6.4531097 -7.640625q-2.28125 -4.90625 -2.28125 -11.26561q0 -6.21875 2.0625 -11.265625q2.0781097 -5.0625 6.2187347 -7.75q4.140625 -2.703125 9.265625 -2.703125q3.75 0 6.671875 1.578125q2.9375 1.578125 4.765625 4.125l0 -20.546875l7.0 0l0 57.26561l-6.53125 0zm-22.21875 -20.70311q0 7.9687347 3.359375 11.92186q3.359375 3.9375 7.921875 3.9375q4.609375 0 7.828125 -3.765625q3.234375 -3.78125 3.234375 -11.51561q0 -8.515625 -3.28125 -12.5q-3.28125 -3.984375 -8.09375 -3.984375q-4.6875 0 -7.828125 3.828125q-3.140625 3.828125 -3.140625 12.078125zm61.71875 36.687485l-0.78125 -6.609375q2.296875 0.625 4.015625 0.625q2.34375 0 3.75 -0.78125q1.40625 -0.78125 2.3125 -2.1875q0.65625 -1.046875 2.140625 -5.234375q0.203125 -0.578125 0.625 -1.71875l-15.734375 -41.562485l7.578125 0l8.625 24.015625q1.6875 4.5781097 3.015625 9.60936q1.203125 -4.84375 2.890625 -9.45311l8.859375 -24.171875l7.03125 0l-15.78125 42.187485q-2.53125 6.84375 -3.9375 9.421875q-1.875 3.46875 -4.296875 5.09375q-2.421875 1.625 -5.78125 1.625q-2.03125 0 -4.53125 -0.859375zm37.6875 -36.73436q0 -11.515625 6.40625 -17.0625q5.359375 -4.609375 13.046875 -4.609375q8.5625 0 13.984375 5.609375q5.4375 5.59375 5.4375 15.484375q0 7.9999847 -2.40625 12.593735q-2.40625 4.59375 -7.0 7.140625q-4.578125 2.53125 -10.015625 2.53125q-8.703125 0 -14.078125 -5.578125q-5.375 -5.59375 -5.375 -16.10936zm7.234375 0q0 7.9687347 3.46875 11.937485q3.484375 3.96875 8.75 3.96875q5.234375 0 8.703125 -3.984375q3.484375 -3.984375 3.484375 -12.156235q0 -7.6875 -3.5 -11.65625q-3.484375 -3.96875 -8.6875 -3.96875q-5.265625 0 -8.75 3.953125q-3.46875 3.9375 -3.46875 11.90625zm67.07031 20.749985l0 -6.09375q-4.84375 7.03125 -13.171875 7.03125q-3.671875 0 -6.859375 -1.40625q-3.171875 -1.40625 -4.71875 -3.53125q-1.546875 -2.140625 -2.171875 -5.21875q-0.421875 -2.078125 -0.421875 -6.5625l0 -25.70311l7.03125 0l0 23.0q0 5.5156097 0.421875 7.4218597q0.671875 2.78125 2.8125 4.359375q2.15625 1.578125 5.3125 1.578125q3.171875 0 5.9375 -1.609375q2.78125 -1.625 3.921875 -4.421875q1.15625 -2.796875 1.15625 -8.10936l0 -22.21875l7.03125 0l0 41.48436l-6.28125 0zm39.53125 15.90625l0 -57.39061l6.40625 0l0 5.390625q2.265625 -3.171875 5.109375 -4.75q2.859375 -1.578125 6.921875 -1.578125q5.3125 0 9.375 2.734375q4.0625 2.734375 6.125 7.71875q2.078125 4.96875 2.078125 10.90625q0 6.3749847 -2.296875 11.468735q-2.28125 5.09375 -6.640625 7.8125q-4.34375 2.71875 -9.15625 2.71875q-3.515625 0 -6.3125 -1.484375q-2.78125 -1.484375 -4.578125 -3.75l0 20.203125l-7.03125 0zm6.359375 -36.42186q0 8.01561 3.234375 11.843735q3.25 3.828125 7.859375 3.828125q4.6875 0 8.03125 -3.96875q3.34375 -3.96875 3.34375 -12.281235q0 -7.9375 -3.265625 -11.875q-3.265625 -3.953125 -7.796875 -3.953125q-4.484375 0 -7.953125 4.203125q-3.453125 4.203125 -3.453125 12.203125zm37.976593 20.51561l0 -57.26561l7.03125 0l0 57.26561l-7.03125 0zm46.320312 -13.359375l7.265625 0.890625q-1.71875 6.375 -6.375 9.890625q-4.640625 3.515625 -11.859375 3.515625q-9.109375 0 -14.4375 -5.609375q-5.328125 -5.609375 -5.328125 -15.718735q0 -10.46875 5.390625 -16.25q5.390625 -5.78125 13.984375 -5.78125q8.3125 0 13.578125 5.671875q5.28125 5.65625 5.28125 15.921875q0 0.625 -0.03125 1.875l-30.9375 0q0.390625 6.8437347 3.859375 10.48436q3.484375 3.625 8.671875 3.625q3.875 0 6.609375 -2.03125q2.734375 -2.03125 4.328125 -6.484375zm-23.078125 -11.374985l23.15625 0q-0.46875 -5.234375 -2.65625 -7.84375q-3.359375 -4.0625 -8.703125 -4.0625q-4.84375 0 -8.15625 3.25q-3.296875 3.234375 -3.640625 8.65625zm66.24219 19.60936q-3.90625 3.328125 -7.515625 4.703125q-3.609375 1.359375 -7.75 1.359375q-6.84375 0 -10.515625 -3.34375q-3.671875 -3.34375 -3.671875 -8.53125q0 -3.046875 1.390625 -5.5625q1.390625 -2.5312347 3.625 -4.0468597q2.25 -1.53125 5.0625 -2.3125q2.078125 -0.546875 6.25 -1.046875q8.515625 -1.015625 12.546875 -2.421875q0.03125 -1.453125 0.03125 -1.84375q0 -4.296875 -1.984375 -6.046875q-2.703125 -2.390625 -8.015625 -2.390625q-4.953125 0 -7.328125 1.75q-2.359375 1.734375 -3.484375 6.140625l-6.875 -0.9375q0.9375 -4.40625 3.078125 -7.125q2.15625 -2.71875 6.21875 -4.171875q4.0625 -1.46875 9.40625 -1.46875q5.3125 0 8.625 1.25q3.328125 1.25 4.890625 3.140625q1.5625 1.890625 2.1875 4.78125q0.359375 1.796875 0.359375 6.484375l0 9.375q0 9.812485 0.4375 12.406235q0.453125 2.59375 1.78125 4.984375l-7.34375 0q-1.09375 -2.1875 -1.40625 -5.125zm-0.578125 -15.70311q-3.828125 1.5625 -11.484375 2.65625q-4.34375 0.625 -6.140625 1.40625q-1.796875 0.78123474 -2.78125 2.2968597q-0.96875 1.5 -0.96875 3.328125q0 2.8125 2.125 4.6875q2.140625 1.875 6.234375 1.875q4.0625 0 7.21875 -1.765625q3.171875 -1.78125 4.65625 -4.875q1.140625 -2.375 1.140625 -7.0312347l0 -2.578125zm15.1953125 8.437485l6.953125 -1.09375q0.578125 4.1875 3.25 6.421875q2.6875 2.21875 7.484375 2.21875q4.84375 0 7.1875 -1.96875q2.34375 -1.984375 2.34375 -4.640625q0 -2.375 -2.0625 -3.75q-1.453125 -0.9375 -7.1875 -2.3749847q-7.734375 -1.953125 -10.734375 -3.375q-2.984375 -1.4375 -4.53125 -3.953125q-1.53125 -2.515625 -1.53125 -5.5625q0 -2.78125 1.265625 -5.140625q1.265625 -2.359375 3.453125 -3.921875q1.640625 -1.21875 4.46875 -2.046875q2.84375 -0.84375 6.078125 -0.84375q4.890625 0 8.578125 1.40625q3.6875 1.40625 5.4375 3.8125q1.765625 2.390625 2.4375 6.421875l-6.875 0.9375q-0.46875 -3.203125 -2.71875 -5.0q-2.25 -1.796875 -6.34375 -1.796875q-4.84375 0 -6.921875 1.609375q-2.0625 1.59375 -2.0625 3.734375q0 1.375 0.859375 2.46875q0.859375 1.125 2.6875 1.875q1.0625 0.390625 6.21875 1.796875q7.453125 1.984375 10.40625 3.265625q2.953125 1.265625 4.625 3.6875q1.6875 2.4218597 1.6875 6.0156097q0 3.515625 -2.0625 6.625q-2.046875 3.09375 -5.921875 4.796875q-3.859375 1.703125 -8.734375 1.703125q-8.09375 0 -12.328125 -3.359375q-4.234375 -3.359375 -5.40625 -9.96875zm71.203125 -0.96875l7.265625 0.890625q-1.71875 6.375 -6.375 9.890625q-4.640625 3.515625 -11.859375 3.515625q-9.109375 0 -14.4375 -5.609375q-5.328125 -5.609375 -5.328125 -15.718735q0 -10.46875 5.390625 -16.25q5.390625 -5.78125 13.984375 -5.78125q8.3125 0 13.578125 5.671875q5.28125 5.65625 5.28125 15.921875q0 0.625 -0.03125 1.875l-30.9375 0q0.390625 6.8437347 3.859375 10.48436q3.484375 3.625 8.671875 3.625q3.875 0 6.609375 -2.03125q2.734375 -2.03125 4.328125 -6.484375zm-23.078125 -11.374985l23.15625 0q-0.46875 -5.234375 -2.65625 -7.84375q-3.359375 -4.0625 -8.703125 -4.0625q-4.84375 0 -8.15625 3.25q-3.296875 3.234375 -3.640625 8.65625zm58.59375 12.343735l6.953125 -1.09375q0.578125 4.1875 3.25 6.421875q2.6875 2.21875 7.484375 2.21875q4.84375 0 7.1875 -1.96875q2.34375 -1.984375 2.34375 -4.640625q0 -2.375 -2.0625 -3.75q-1.453125 -0.9375 -7.1875 -2.3749847q-7.734375 -1.953125 -10.734375 -3.375q-2.984375 -1.4375 -4.53125 -3.953125q-1.53125 -2.515625 -1.53125 -5.5625q0 -2.78125 1.265625 -5.140625q1.265625 -2.359375 3.453125 -3.921875q1.640625 -1.21875 4.46875 -2.046875q2.84375 -0.84375 6.078125 -0.84375q4.890625 0 8.578125 1.40625q3.6875 1.40625 5.4375 3.8125q1.765625 2.390625 2.4375 6.421875l-6.875 0.9375q-0.46875 -3.203125 -2.71875 -5.0q-2.25 -1.796875 -6.34375 -1.796875q-4.84375 0 -6.921875 1.609375q-2.0625 1.59375 -2.0625 3.734375q0 1.375 0.859375 2.46875q0.859375 1.125 2.6875 1.875q1.0625 0.390625 6.21875 1.796875q7.453125 1.984375 10.40625 3.265625q2.953125 1.265625 4.625 3.6875q1.6875 2.4218597 1.6875 6.0156097q0 3.515625 -2.0625 6.625q-2.046875 3.09375 -5.921875 4.796875q-3.859375 1.703125 -8.734375 1.703125q-8.09375 0 -12.328125 -3.359375q-4.234375 -3.359375 -5.40625 -9.96875zm58.15625 6.09375l1.015625 6.21875q-2.96875 0.625 -5.3125 0.625q-3.828125 0 -5.9375 -1.203125q-2.109375 -1.21875 -2.96875 -3.1875q-0.859375 -1.984375 -0.859375 -8.3125l0 -23.85936l-5.15625 0l0 -5.46875l5.15625 0l0 -10.28125l7.0 -4.21875l0 14.5l7.0625 0l0 5.46875l-7.0625 0l0 24.249985q0 3.015625 0.359375 3.875q0.375 0.859375 1.21875 1.375q0.84375 0.5 2.40625 0.5q1.171875 0 3.078125 -0.28125zm4.2578125 -14.45311q0 -11.515625 6.40625 -17.0625q5.359375 -4.609375 13.046875 -4.609375q8.5625 0 13.984375 5.609375q5.4375 5.59375 5.4375 15.484375q0 7.9999847 -2.40625 12.593735q-2.40625 4.59375 -7.0 7.140625q-4.578125 2.53125 -10.015625 2.53125q-8.703125 0 -14.078125 -5.578125q-5.375 -5.59375 -5.375 -16.10936zm7.234375 0q0 7.9687347 3.46875 11.937485q3.484375 3.96875 8.75 3.96875q5.234375 0 8.703125 -3.984375q3.484375 -3.984375 3.484375 -12.156235q0 -7.6875 -3.5 -11.65625q-3.484375 -3.96875 -8.6875 -3.96875q-5.265625 0 -8.75 3.953125q-3.46875 3.9375 -3.46875 11.90625zm39.882812 36.656235l0 -57.39061l6.40625 0l0 5.390625q2.265625 -3.171875 5.109375 -4.75q2.859375 -1.578125 6.921875 -1.578125q5.3125 0 9.375 2.734375q4.0625 2.734375 6.125 7.71875q2.078125 4.96875 2.078125 10.90625q0 6.3749847 -2.296875 11.468735q-2.28125 5.09375 -6.640625 7.8125q-4.34375 2.71875 -9.15625 2.71875q-3.515625 0 -6.3125 -1.484375q-2.78125 -1.484375 -4.578125 -3.75l0 20.203125l-7.03125 0zm6.359375 -36.42186q0 8.01561 3.234375 11.843735q3.25 3.828125 7.859375 3.828125q4.6875 0 8.03125 -3.96875q3.34375 -3.96875 3.34375 -12.281235q0 -7.9375 -3.265625 -11.875q-3.265625 -3.953125 -7.796875 -3.953125q-4.484375 0 -7.953125 4.203125q-3.453125 4.203125 -3.453125 12.203125z" fill-rule="nonzero"></path><path fill="#000000" d="m361.6683 368.66348l0 -5.234375q-3.9375 6.171875 -11.59375 6.171875q-4.96875 0 -9.125 -2.734375q-4.15625 -2.734375 -6.453125 -7.640625q-2.28125 -4.90625 -2.28125 -11.265625q0 -6.21875 2.0625 -11.265625q2.078125 -5.0625 6.21875 -7.75q4.140625 -2.703125 9.265625 -2.703125q3.75 0 6.671875 1.578125q2.9375 1.578125 4.765625 4.125l0 -20.546875l7.0 0l0 57.265625l-6.53125 0zm-22.21875 -20.703125q0 7.96875 3.359375 11.921875q3.359375 3.9375 7.921875 3.9375q4.609375 0 7.828125 -3.765625q3.234375 -3.78125 3.234375 -11.515625q0 -8.515625 -3.28125 -12.5q-3.28125 -3.984375 -8.09375 -3.984375q-4.6875 0 -7.828125 3.828125q-3.140625 3.828125 -3.140625 12.078125zm37.179688 -0.046875q0 -11.515625 6.40625 -17.0625q5.359375 -4.609375 13.046875 -4.609375q8.5625 0 13.984375 5.609375q5.4375 5.59375 5.4375 15.484375q0 8.0 -2.40625 12.59375q-2.40625 4.59375 -7.0 7.140625q-4.578125 2.53125 -10.015625 2.53125q-8.703125 0 -14.078125 -5.578125q-5.375 -5.59375 -5.375 -16.109375zm7.234375 0q0 7.96875 3.46875 11.9375q3.484375 3.96875 8.75 3.96875q5.234375 0 8.703125 -3.984375q3.484375 -3.984375 3.484375 -12.15625q0 -7.6875 -3.5 -11.65625q-3.484375 -3.96875 -8.6875 -3.96875q-5.265625 0 -8.75 3.953125q-3.46875 3.9375 -3.46875 11.90625zm39.914062 -28.4375l0 -8.078125l7.03125 0l0 8.078125l-7.03125 0zm0 49.1875l0 -41.484375l7.03125 0l0 41.484375l-7.03125 0zm17.742188 0l0 -41.484375l6.328125 0l0 5.890625q4.5625 -6.828125 13.203125 -6.828125q3.75 0 6.890625 1.34375q3.140625 1.34375 4.703125 3.53125q1.5625 2.1875 2.1875 5.203125q0.390625 1.953125 0.390625 6.828125l0 25.515625l-7.03125 0l0 -25.234375q0 -4.296875 -0.828125 -6.421875q-0.8125 -2.140625 -2.90625 -3.40625q-2.078125 -1.265625 -4.890625 -1.265625q-4.5 0 -7.765625 2.859375q-3.25 2.84375 -3.25 10.8125l0 22.65625l-7.03125 0zm43.195312 3.4375l6.84375 1.015625q0.421875 3.171875 2.375 4.609375q2.625 1.953125 7.15625 1.953125q4.875 0 7.53125 -1.953125q2.65625 -1.953125 3.5937805 -5.46875q0.546875 -2.140625 0.515625 -9.03125q-4.6094055 5.4375 -11.4844055 5.4375q-8.5625 0 -13.25 -6.171875q-4.6875 -6.171875 -4.6875 -14.8125q0 -5.9375 2.140625 -10.953125q2.15625 -5.015625 6.234375 -7.75q4.09375 -2.734375 9.59375 -2.734375q7.34375 0 12.1094055 5.9375l0 -5.0l6.484375 0l0 35.859375q0 9.6875 -1.96875 13.734375q-1.96875 4.046875 -6.2500305 6.390625q-4.28125 2.34375 -10.53125 2.34375q-7.421875 0 -12.0 -3.34375q-4.5625 -3.34375 -4.40625 -10.0625zm5.828125 -24.921875q0 8.15625 3.234375 11.90625q3.25 3.75 8.125 3.75q4.84375 0 8.125 -3.71875q3.2812805 -3.734375 3.2812805 -11.703125q0 -7.625 -3.3750305 -11.484375q-3.375 -3.875 -8.140625 -3.875q-4.6875 0 -7.96875 3.8125q-3.28125 3.8125 -3.28125 11.3125zm62.21878 -27.703125l0 -8.078125l7.03125 0l0 8.078125l-7.03125 0zm0 49.1875l0 -41.484375l7.03125 0l0 41.484375l-7.03125 0zm33.085938 -6.296875l1.015625 6.21875q-2.96875 0.625 -5.3125 0.625q-3.828125 0 -5.9375 -1.203125q-2.109375 -1.21875 -2.96875 -3.1875q-0.859375 -1.984375 -0.859375 -8.3125l0 -23.859375l-5.15625 0l0 -5.46875l5.15625 0l0 -10.28125l7.0 -4.21875l0 14.5l7.0625 0l0 5.46875l-7.0625 0l0 24.25q0 3.015625 0.359375 3.875q0.375 0.859375 1.21875 1.375q0.84375 0.5 2.40625 0.5q1.171875 0 3.078125 -0.28125zm20.039062 -7.8125q-0.03125 -1.40625 -0.03125 -2.109375q0 -4.140625 1.171875 -7.140625q0.859375 -2.265625 2.765625 -4.578125q1.40625 -1.671875 5.0625 -4.890625q3.65625 -3.234375 4.75 -5.140625q1.09375 -1.921875 1.09375 -4.1875q0 -4.09375 -3.203125 -7.203125q-3.203125 -3.109375 -7.859375 -3.109375q-4.484375 0 -7.5 2.8125q-3.0 2.8125 -3.9375 8.796875l-7.234375 -0.859375q0.984375 -8.015625 5.796875 -12.265625q4.828125 -4.265625 12.765625 -4.265625q8.390625 0 13.390625 4.578125q5.0 4.5625 5.0 11.046875q0 3.75 -1.765625 6.921875q-1.75 3.15625 -6.859375 7.6875q-3.4375 3.046875 -4.5 4.5q-1.046875 1.4375 -1.5625 3.3125q-0.5 1.875 -0.578125 6.09375l-6.765625 0zm-0.421875 14.109375l0 -8.015625l8.0 0l0 8.015625l-8.0 0z" fill-rule="nonzero"></path></g></svg>

