<svg xmlns="http://www.w3.org/2000/svg" viewBox="0 0 274.62 295.23"><defs><style>.cls-1{fill:#1de9b6;}.cls-2{fill:#00bfa5;}.cls-3,.cls-4{fill:#fff;}.cls-3{opacity:0.7;}</style></defs><title>Asset 4</title><g id="Layer_2" data-name="Layer 2"><g id="Layer_1-2" data-name="Layer 1"><polygon class="cls-1" points="137.01 0 137.01 0 137.01 0 0 49.1 20.61 230.37 137.01 295.23 137.01 295.23 137.01 295.23 253.4 230.37 274.62 49.1 137.01 0"/><polygon class="cls-2" points="137.01 0 137.01 32.74 137.01 32.74 137.01 181.87 137.01 181.87 137.01 295.23 137.01 295.23 253.4 230.37 274.62 49.1 137.01 0"/><path class="cls-3" d="M196.18,113.68l-61.35-19a4.73,4.73,0,0,0-5.89,3.11l-.24.78a4.73,4.73,0,0,0,3.11,5.89l11.74,3.63L131.71,146.4a50.35,50.35,0,1,0,2.79,100.67A48.34,48.34,0,0,0,152.9,243h0c.83-.36,1.66-.74,2.49-1.15a50.35,50.35,0,0,0,7.9-85.34l11.93-38.58,17.93,5.54a4.73,4.73,0,0,0,5.89-3.11l.24-.78A4.73,4.73,0,0,0,196.18,113.68Z"/><circle class="cls-4" cx="140.25" cy="61.17" r="13.02"/><circle class="cls-4" cx="200.78" cy="88.11" r="6.29"/><circle class="cls-4" cx="75.72" cy="110.64" r="8.17"/><path class="cls-4" d="M174.93,210.5a43.64,43.64,0,1,1-83.39-25.78"/></g></g></svg>