<?xml version="1.0" standalone="yes"?>

<svg version="1.1" viewBox="0.0 0.0 498.16010498687666 345.1994750656168" fill="none" stroke="none" stroke-linecap="square" stroke-miterlimit="10" xmlns="http://www.w3.org/2000/svg" xmlns:xlink="http://www.w3.org/1999/xlink"><clipPath id="p.0"><path d="m0 0l498.1601 0l0 345.19946l-498.1601 0l0 -345.19946z" clip-rule="nonzero"></path></clipPath><g clip-path="url(#p.0)"><path fill="#000000" fill-opacity="0.0" d="m0 0l498.1601 0l0 345.19946l-498.1601 0z" fill-rule="evenodd"></path><path fill="#ffffff" d="m249.08005 335.89108l0 0c-108.63919 0 -196.70865 -73.10803 -196.70865 -163.29135l0 0c0 -90.18331 88.069466 -163.29134 196.70865 -163.29134l0 0c108.63919 0 196.70868 73.10802 196.70868 163.29134l0 0c0 43.307556 -20.72461 84.84134 -57.614655 115.46442l57.614655 0l0 47.826935z" fill-rule="evenodd"></path><path stroke="#000000" stroke-width="8.0" stroke-linejoin="round" stroke-linecap="butt" d="m249.08005 335.89108l0 0c-108.63919 0 -196.70865 -73.10803 -196.70865 -163.29135l0 0c0 -90.18331 88.069466 -163.29134 196.70865 -163.29134l0 0c108.63919 0 196.70868 73.10802 196.70868 163.29134l0 0c0 43.307556 -20.72461 84.84134 -57.614655 115.46442l57.614655 0l0 47.826935z" fill-rule="evenodd"></path><path fill="#000000" fill-opacity="0.0" d="m21.440945 79.843834l455.27557 0l0 185.51181l-455.27557 0z" fill-rule="evenodd"></path><path fill="#000000" d="m105.074844 152.72661l5.4375 0q0.765625 3.0 5.015625 3.0q3.0 0 4.21875 -1.9375q1.234375 -1.953125 1.234375 -5.90625l0 -21.546867l6.09375 0l0 21.359367q0 6.84375 -2.90625 10.15625q-2.90625 3.296875 -9.328125 3.296875q-4.265625 0 -6.890625 -2.21875q-2.625 -2.234375 -2.875 -6.203125zm44.507812 7.984375l0 -2.125q-1.25 1.0625 -3.4375 1.8125q-2.171875 0.75 -4.0 0.75q-8.734375 0 -8.734375 -9.28125l0 -16.296875l5.859375 0l0 15.84375q0 4.828125 4.328125 4.828125q2.0 0 3.703125 -1.03125q1.71875 -1.03125 2.28125 -2.390625l0 -17.25l5.859375 0l0 25.140625l-5.859375 0zm10.640625 -1.65625l2.078125 -4.65625q2.625 2.078125 5.9375 2.078125q3.421875 0 3.421875 -2.4375q0 -1.421875 -1.03125 -2.328125q-1.03125 -0.921875 -4.015625 -2.171875q-6.484375 -2.6875 -6.484375 -7.546875q0 -3.25 2.484375 -5.0625q2.484375 -1.828125 6.34375 -1.828125q3.921875 0 7.359375 1.765625l-1.6875 4.546875q-1.921875 -1.640625 -5.34375 -1.640625q-3.0625 0 -3.0625 2.4375q0 0.953125 1.0 1.734375q1.015625 0.765625 4.3125 2.078125q3.3125 1.296875 4.765625 3.15625q1.453125 1.84375 1.453125 4.46875q0 3.484375 -2.59375 5.5q-2.59375 2.0 -7.046875 2.0q-2.5 0 -4.015625 -0.421875q-1.515625 -0.40625 -3.875 -1.671875zm23.109375 -18.765625l-2.90625 0l0 -4.71875l2.90625 0l0 -5.109375l5.859375 -2.15625l0 7.265625l6.890625 0l0 4.71875l-6.890625 0l0 10.984375q0 2.703125 0.84375 3.8125q0.84375 1.109375 2.953125 1.109375q2.109375 0 3.9375 -1.140625l0 5.390625q-2.046875 0.703125 -5.8125 0.703125q-3.75 0 -5.765625 -2.125q-2.015625 -2.125 -2.015625 -6.03125l0 -12.703125zm48.648438 20.390625l-7.375 -11.375l-2.8125 2.984375l0 8.390625l-5.859375 0l0 -34.453117l5.859375 -1.40625l0 20.390617l8.359375 -9.640625l7.0625 0l-8.484375 9.515625l10.21875 15.59375l-6.96875 0zm14.84375 -34.828117q1.40625 0 2.390625 1.0q1.0 0.984375 1.0 2.3906174q0 1.40625 -1.0 2.40625q-0.984375 1.0 -2.390625 1.0q-1.40625 0 -2.40625 -1.0q-1.0 -1.0 -1.0 -2.40625q0 -1.4062424 1.0 -2.3906174q1.0 -1.0 2.40625 -1.0zm-3.03125 34.828117l0 -20.296875l-3.203125 0l0 -4.8125l9.140625 0l0 25.109375l-5.9375 0zm28.898422 0l0 -1.53125q-0.71875 0.796875 -2.453125 1.40625q-1.734375 0.59375 -3.59375 0.59375q-5.25 0 -8.265625 -3.328125q-2.9999847 -3.328125 -2.9999847 -9.28125q0 -5.953125 3.4531097 -9.6875q3.453125 -3.75 8.65625 -3.75q2.859375 0 5.203125 1.171875l0 -10.046867l5.8594055 -1.40625l0 35.859367l-5.8594055 0zm0 -19.109375q-1.875 -1.5 -3.90625 -1.5q-3.515625 0 -5.421875 2.15625q-1.890625 2.140625 -1.890625 6.140625q0 7.828125 7.546875 7.828125q0.84375 0 2.0625 -0.5q1.234375 -0.5 1.609375 -1.015625l0 -13.109375zm27.867218 19.109375l0 -1.53125q-0.71875 0.796875 -2.453125 1.40625q-1.734375 0.59375 -3.59375 0.59375q-5.25 0 -8.265625 -3.328125q-3.0 -3.328125 -3.0 -9.28125q0 -5.953125 3.453125 -9.6875q3.453125 -3.75 8.65625 -3.75q2.859375 0 5.203125 1.171875l0 -10.046867l5.859375 -1.40625l0 35.859367l-5.859375 0zm0 -19.109375q-1.875 -1.5 -3.90625 -1.5q-3.515625 0 -5.421875 2.15625q-1.890625 2.140625 -1.890625 6.140625q0 7.828125 7.546875 7.828125q0.84375 0 2.0625 -0.5q1.234375 -0.5 1.609375 -1.015625l0 -13.109375zm16.320312 -15.718742q1.40625 0 2.390625 1.0q1.0 0.984375 1.0 2.3906174q0 1.40625 -1.0 2.40625q-0.984375 1.0 -2.390625 1.0q-1.40625 0 -2.40625 -1.0q-1.0 -1.0 -1.0 -2.40625q0 -1.4062424 1.0 -2.3906174q1.0 -1.0 2.40625 -1.0zm-3.03125 34.828117l0 -20.296875l-3.203125 0l0 -4.8125l9.140625 0l0 25.109375l-5.9375 0zm28.898438 0l0 -14.515625q0 -3.203125 -1.234375 -4.671875q-1.21875 -1.484375 -4.015625 -1.484375q-1.28125 0 -2.75 0.734375q-1.46875 0.71875 -2.28125 1.796875l0 18.140625l-5.859375 0l0 -25.109375l4.21875 0l1.078125 2.34375q2.390625 -2.8125 7.046875 -2.8125q4.484375 0 7.0625 2.6875q2.59375 2.6875 2.59375 7.484375l0 15.40625l-5.859375 0zm10.3203125 6.453125l3.703125 -4.578125q3.0625 2.8125 6.84375 2.8125q2.53125 0 4.171875 -0.75q1.640625 -0.75 1.640625 -2.0625q0 -2.234375 -3.640625 -2.234375q-0.984375 0 -2.9375 0.25q-1.9375 0.234375 -2.921875 0.234375q-6.046875 0 -6.046875 -4.34375q0 -1.25 1.0 -2.4375q1.015625 -1.203125 2.359375 -1.765625q-4.296875 -2.78125 -4.296875 -7.890625q0 -4.03125 2.953125 -6.671875q2.953125 -2.640625 7.265625 -2.640625q3.375 0 5.65625 1.265625l2.296875 -2.671875l4.046875 3.6875l-2.78125 2.03125q1.453125 2.203125 1.453125 5.203125q0 4.296875 -2.625 6.859375q-2.609375 2.5625 -6.59375 2.5625q-0.625 0 -1.6875 -0.109375l-0.953125 -0.140625q-0.171875 0 -1.265625 0.5q-1.078125 0.5 -1.078125 1.046875q0 0.9375 1.609375 0.9375q0.734375 0 2.4375 -0.34375q1.71875 -0.359375 2.9375 -0.359375q8.546875 0 8.546875 6.875q0 3.796875 -3.421875 5.953125q-3.421875 2.171875 -8.25 2.171875q-5.765625 0 -10.421875 -3.390625zm5.859375 -22.75q0 2.234375 1.21875 3.578125q1.234375 1.34375 3.328125 1.34375q2.078125 0 3.203125 -1.3125q1.125 -1.3125 1.125 -3.609375q0 -1.890625 -1.203125 -3.203125q-1.203125 -1.3125 -3.125 -1.3125q-2.015625 0 -3.28125 1.265625q-1.265625 1.265625 -1.265625 3.25zm22.03125 25.0625l-2.0 -2.546875q4.296875 -3.21875 4.296875 -5.046875q0 -0.703125 -0.5 -1.390625q-2.21875 -1.078125 -2.21875 -3.015625q0 -1.40625 1.171875 -2.328125q1.171875 -0.9375 2.90625 -0.9375q1.609375 0 2.8125 1.234375q1.21875 1.234375 1.21875 2.84375q0 2.984375 -1.40625 5.4375q-1.390625 2.453125 -6.28125 5.75z" fill-rule="nonzero"></path><path fill="#000000" d="m142.31703 218.03911l0 10.484375l-5.859375 0l0 -34.953125l5.859375 0l0 1.6875q2.203125 -2.15625 5.40625 -2.15625q12.0 0 12.0 13.21875q0 6.171875 -3.3125 9.5q-3.3125 3.328125 -9.0625 3.328125q-2.765625 0 -5.03125 -1.109375zm0 -18.328125l0 13.203125q1.59375 1.28125 3.71875 1.28125q4.0625 0 5.828125 -1.921875q1.765625 -1.9375 1.765625 -6.109375q0 -4.453125 -1.765625 -6.265625q-1.75 -1.828125 -5.796875 -1.828125q-2.109375 0 -3.75 1.640625zm23.570312 -15.484375l5.859375 -1.40625l0 28.21875q0 4.640625 2.765625 5.53125q-1.359375 2.578125 -4.640625 2.578125q-3.984375 0 -3.984375 -5.53125l0 -29.390625zm35.5625 23.6875l-17.9375 0q0.171875 3.0 2.0625 4.671875q1.90625 1.65625 5.109375 1.65625q4.015625 0 6.09375 -2.078125l2.28125 4.46875q-3.09375 2.515625 -9.234375 2.515625q-5.75 0 -9.09375 -3.359375q-3.328125 -3.375 -3.328125 -9.390625q0 -5.9375 3.65625 -9.609375q3.671875 -3.6875 8.8125 -3.6875q5.453125 0 8.75 3.265625q3.3125 3.25 3.3125 8.296875q0 1.078125 -0.484375 3.25zm-17.71875 -4.40625l12.328125 0q-0.609375 -5.5 -6.09375 -5.5q-5.015625 0 -6.234375 5.5zm36.867188 12.65625q-0.796875 1.3125 -2.78125 2.15625q-1.984375 0.828125 -4.140625 0.828125q-4.046875 0 -6.375 -2.03125q-2.3125 -2.03125 -2.3125 -5.75q0 -4.359375 3.265625 -6.8125q3.265625 -2.46875 9.296875 -2.46875q1.03125 0 2.4375 0.34375q0 -4.421875 -5.609375 -4.421875q-3.296875 0 -5.53125 1.09375l-1.265625 -4.546875q3.03125 -1.453125 7.203125 -1.453125q5.734375 0 8.40625 2.625q2.671875 2.609375 2.671875 9.890625l0 5.375q0 5.015625 2.015625 6.296875q-0.71875 1.265625 -1.609375 1.5625q-0.890625 0.296875 -2.046875 0.296875q-1.265625 0 -2.28125 -0.9375q-1.0 -0.9375 -1.34375 -2.046875zm-0.5625 -9.296875q-1.5 -0.3125 -2.25 -0.3125q-6.9375 0 -6.9375 4.546875q0 3.375 3.90625 3.375q5.28125 0 5.28125 -5.265625l0 -2.34375zm10.6171875 10.1875l2.078125 -4.65625q2.625 2.078125 5.9375 2.078125q3.421875 0 3.421875 -2.4375q0 -1.421875 -1.03125 -2.328125q-1.03125 -0.921875 -4.015625 -2.171875q-6.484375 -2.6875 -6.484375 -7.546875q0 -3.25 2.484375 -5.0625q2.484375 -1.828125 6.34375 -1.828125q3.921875 0 7.359375 1.765625l-1.6875 4.546875q-1.921875 -1.640625 -5.34375 -1.640625q-3.0625 0 -3.0625 2.4375q0 0.953125 1.0 1.734375q1.015625 0.765625 4.3125 2.078125q3.3125 1.296875 4.765625 3.15625q1.453125 1.84375 1.453125 4.46875q0 3.484375 -2.59375 5.5q-2.59375 2.0 -7.046875 2.0q-2.5 0 -4.015625 -0.421875q-1.515625 -0.40625 -3.875 -1.671875zm44.624985 -9.140625l-17.9375 0q0.171875 3.0 2.0625 4.671875q1.90625 1.65625 5.109375 1.65625q4.015625 0 6.09375 -2.078125l2.28125 4.46875q-3.09375 2.515625 -9.234375 2.515625q-5.75 0 -9.093735 -3.359375q-3.328125 -3.375 -3.328125 -9.390625q0 -5.9375 3.65625 -9.609375q3.6718597 -3.6875 8.812485 -3.6875q5.453125 0 8.75 3.265625q3.3125 3.25 3.3125 8.296875q0 1.078125 -0.484375 3.25zm-17.71875 -4.40625l12.328125 0q-0.609375 -5.5 -6.09375 -5.5q-5.015625 0 -6.234375 5.5zm53.50003 15.171875l0 -1.53125q-0.71875 0.796875 -2.453125 1.40625q-1.734375 0.59375 -3.59375 0.59375q-5.25 0 -8.265625 -3.328125q-3.0 -3.328125 -3.0 -9.28125q0 -5.953125 3.453125 -9.6875q3.453125 -3.75 8.65625 -3.75q2.859375 0 5.203125 1.171875l0 -10.046875l5.859375 -1.40625l0 35.859375l-5.859375 0zm0 -19.109375q-1.875 -1.5 -3.90625 -1.5q-3.515625 0 -5.421875 2.15625q-1.890625 2.140625 -1.890625 6.140625q0 7.828125 7.546875 7.828125q0.84375 0 2.0625 -0.5q1.234375 -0.5 1.609375 -1.015625l0 -13.109375zm10.0859375 6.5q0 -5.75 3.3125 -9.359375q3.3125 -3.609375 8.75 -3.609375q5.71875 0 8.875 3.46875q3.171875 3.46875 3.171875 9.5q0 6.0 -3.21875 9.546875q-3.21875 3.53125 -8.828125 3.53125q-5.71875 0 -8.890625 -3.578125q-3.171875 -3.578125 -3.171875 -9.5zm6.09375 0q0 8.296875 5.96875 8.296875q2.75 0 4.34375 -2.15625q1.609375 -2.15625 1.609375 -6.140625q0 -8.1875 -5.953125 -8.1875q-2.734375 0 -4.359375 2.15625q-1.609375 2.15625 -1.609375 6.03125zm23.617188 9.53125q0 -1.75 1.234375 -2.984375q1.234375 -1.234375 2.984375 -1.234375q1.765625 0 2.984375 1.234375q1.234375 1.234375 1.234375 2.984375q0 1.765625 -1.234375 3.015625q-1.21875 1.234375 -2.984375 1.234375q-1.75 0 -2.984375 -1.234375q-1.234375 -1.25 -1.234375 -3.015625z" fill-rule="nonzero"></path></g></svg>

