<svg version="1.1" viewBox="0.0 0.0 960.0 720.0" fill="none" stroke="none" stroke-linecap="square" stroke-miterlimit="10" xmlns:xlink="http://www.w3.org/1999/xlink" xmlns="http://www.w3.org/2000/svg"><clipPath id="p.0"><path d="m0 0l960.0 0l0 720.0l-960.0 0l0 -720.0z" clip-rule="nonzero"/></clipPath><g clip-path="url(#p.0)"><path fill="#000000" fill-opacity="0.0" d="m0 0l960.0 0l0 720.0l-960.0 0z" fill-rule="evenodd"/><path fill="#e06666" d="m39.244095 87.772224l0 0c0 -15.809288 12.81596 -28.625244 28.625244 -28.625244l824.26135 0c7.591858 0 14.872803 3.0158653 20.241089 8.38414c5.368286 5.3682785 8.384155 12.649216 8.384155 20.241104l0 114.49755c0 15.80928 -12.815979 28.625244 -28.625244 28.625244l-824.26135 0l0 0c-15.809284 0 -28.625244 -12.815964 -28.625244 -28.625244z" fill-rule="evenodd"/><path stroke="#000000" stroke-width="1.0" stroke-linejoin="round" stroke-linecap="butt" d="m39.244095 87.772224l0 0c0 -15.809288 12.81596 -28.625244 28.625244 -28.625244l824.26135 0c7.591858 0 14.872803 3.0158653 20.241089 8.38414c5.368286 5.3682785 8.384155 12.649216 8.384155 20.241104l0 114.49755c0 15.80928 -12.815979 28.625244 -28.625244 28.625244l-824.26135 0l0 0c-15.809284 0 -28.625244 -12.815964 -28.625244 -28.625244z" fill-rule="evenodd"/><path fill="#000000" d="m292.80078 136.601l0 -34.359383l11.125 0q6.328125 0 8.25 0.515625q2.953125 0.765625 4.9375 3.359375q2.0 2.59375 2.0 6.6875q0 3.171875 -1.15625 5.328125q-1.140625 2.15625 -2.90625 3.390625q-1.765625 1.21875 -3.59375 1.625q-2.484375 0.484375 -7.203125 0.484375l-4.515625 0l0 12.968758l-6.9375 0zm6.9375 -28.546883l0 9.75l3.796875 0q4.09375 0 5.46875 -0.53125q1.390625 -0.546875 2.171875 -1.6875q0.796875 -1.15625 0.796875 -2.6875q0 -1.875 -1.109375 -3.09375q-1.09375 -1.21875 -2.78125 -1.515625q-1.25 -0.234375 -5.0 -0.234375l-3.34375 0zm25.03125 28.546883l0 -34.359383l6.578125 0l0 34.359383l-6.578125 0zm18.257812 -17.296883l-5.984375 -1.078125q1.015625 -3.609375 3.46875 -5.34375q2.46875 -1.734375 7.3125 -1.734375q4.40625 0 6.5625 1.046875q2.15625 1.03125 3.03125 2.640625q0.890625 1.609375 0.890625 5.890625l-0.078125 7.6875076q0 3.28125 0.3125 4.84375q0.328125 1.5625 1.1875 3.34375l-6.515625 0q-0.25 -0.65625 -0.625 -1.953125q-0.171875 -0.578125 -0.234375 -0.765625q-1.6875 1.640625 -3.609375 2.46875q-1.921875 0.8125 -4.109375 0.8125q-3.84375 0 -6.0625 -2.078125q-2.203125 -2.09375 -2.203125 -5.28125q0 -2.1093826 1.0 -3.7656326q1.015625 -1.65625 2.828125 -2.53125q1.8125 -0.875 5.234375 -1.53125q4.625 -0.875 6.40625 -1.625l0 -0.65625q0 -1.890625 -0.9375 -2.703125q-0.9375 -0.8125 -3.546875 -0.8125q-1.75 0 -2.734375 0.703125q-0.984375 0.6875 -1.59375 2.421875zm8.8125 5.34375q-1.265625 0.421875 -4.015625 1.015625q-2.734375 0.578125 -3.578125 1.140625q-1.296875 0.90625 -1.296875 2.3125076q0 1.390625 1.03125 2.40625q1.03125 1.0 2.625 1.0q1.78125 0 3.40625 -1.171875q1.1875 -0.890625 1.5625 -2.1875q0.265625 -0.84375 0.265625 -3.2031326l0 -1.3125zm24.367188 -12.9375l0 5.25l-4.5 0l0 10.03125q0 3.0468826 0.125 3.5468826q0.140625 0.5 0.59375 0.828125q0.453125 0.328125 1.109375 0.328125q0.921875 0 2.65625 -0.625l0.5625 5.109375q-2.296875 0.984375 -5.203125 0.984375q-1.78125 0 -3.21875 -0.59375q-1.421875 -0.609375 -2.09375 -1.546875q-0.671875 -0.953125 -0.921875 -2.578125q-0.21875 -1.140625 -0.21875 -4.6406326l0 -10.84375l-3.015625 0l0 -5.25l3.015625 0l0 -4.953125l6.609375 -3.84375l0 8.796875l4.5 0zm1.6875 0l3.65625 0l0 -1.875q0 -3.140625 0.671875 -4.6875q0.671875 -1.546875 2.453125 -2.515625q1.796875 -0.984375 4.546875 -0.984375q2.8125 0 5.5 0.84375l-0.890625 4.59375q-1.5625 -0.375 -3.015625 -0.375q-1.4375 0 -2.0625 0.671875q-0.609375 0.671875 -0.609375 2.5625l0 1.765625l4.921875 0l0 5.171875l-4.921875 0l0 19.718758l-6.59375 0l0 -19.718758l-3.65625 0l0 -5.171875zm17.34375 12.09375q0 -3.28125 1.609375 -6.34375q1.625 -3.078125 4.59375 -4.6875q2.96875 -1.625 6.625 -1.625q5.640625 0 9.25 3.671875q3.609375 3.65625 3.609375 9.265625q0 5.6406326 -3.640625 9.359383q-3.640625 3.71875 -9.171875 3.71875q-3.421875 0 -6.53125 -1.546875q-3.109375 -1.546875 -4.734375 -4.53125q-1.609375 -3.0 -1.609375 -7.2812576zm6.75 0.34375q0 3.703125 1.75 5.6718826q1.765625 1.96875 4.34375 1.96875q2.578125 0 4.328125 -1.96875q1.75 -1.9687576 1.75 -5.7187576q0 -3.65625 -1.75 -5.625q-1.75 -1.96875 -4.328125 -1.96875q-2.578125 0 -4.34375 1.96875q-1.75 1.96875 -1.75 5.671875zm30.398438 12.453133l-6.578125 0l0 -24.890633l6.109375 0l0 3.53125q1.578125 -2.5 2.828125 -3.296875q1.25 -0.796875 2.84375 -0.796875q2.25 0 4.34375 1.234375l-2.046875 5.75q-1.65625 -1.078125 -3.09375 -1.078125q-1.375 0 -2.34375 0.765625q-0.953125 0.75 -1.515625 2.75q-0.546875 1.984375 -0.546875 8.343758l0 7.6875zm11.8828125 -24.890633l6.078125 0l0 3.390625q3.25 -3.953125 7.75 -3.953125q2.390625 0 4.140625 0.984375q1.765625 0.984375 2.890625 2.96875q1.640625 -1.984375 3.53125 -2.96875q1.90625 -0.984375 4.0625 -0.984375q2.75 0 4.640625 1.109375q1.90625 1.109375 2.84375 3.265625q0.671875 1.59375 0.671875 5.15625l0 15.921883l-6.578125 0l0 -14.234383q0 -3.703125 -0.6875 -4.78125q-0.90625 -1.40625 -2.8125 -1.40625q-1.375 0 -2.59375 0.84375q-1.21875 0.84375 -1.765625 2.484375q-0.53125 1.625 -0.53125 5.140625l0 11.953133l-6.59375 0l0 -13.640633q0 -3.640625 -0.359375 -4.6875q-0.34375 -1.0625 -1.078125 -1.578125q-0.734375 -0.515625 -2.0 -0.515625q-1.53125 0 -2.75 0.828125q-1.21875 0.8125 -1.75 2.359375q-0.515625 1.546875 -0.515625 5.140625l0 12.093758l-6.59375 0l0 -24.890633zm56.34375 24.890633l0 -34.359383l6.9375 0l0 34.359383l-6.9375 0zm36.148438 0l-6.59375 0l0 -12.703133q0 -4.03125 -0.421875 -5.21875q-0.421875 -1.1875 -1.375 -1.84375q-0.9375 -0.65625 -2.28125 -0.65625q-1.703125 0 -3.0625 0.9375q-1.359375 0.9375 -1.875 2.484375q-0.5 1.546875 -0.5 5.71875l0 11.281258l-6.578125 0l0 -24.890633l6.109375 0l0 3.65625q3.265625 -4.21875 8.203125 -4.21875q2.1875 0 3.984375 0.78125q1.8125 0.78125 2.734375 2.0q0.921875 1.21875 1.28125 2.765625q0.375 1.546875 0.375 4.4375l0 15.468758zm6.5390625 -28.265633l0 -6.09375l6.578125 0l0 6.09375l-6.578125 0zm6.578125 3.375l0 24.109383q0 4.765625 -0.625 6.71875q-0.609375 1.96875 -2.390625 3.0625q-1.765625 1.109375 -4.5 1.109375q-0.984375 0 -2.125 -0.1875q-1.140625 -0.171875 -2.453125 -0.515625l1.140625 -5.625q0.46875 0.09375 0.890625 0.140625q0.40625 0.0625 0.765625 0.0625q1.0 0 1.640625 -0.4375q0.65625 -0.421875 0.859375 -1.03125q0.21875 -0.609375 0.21875 -3.671875l0 -23.734383l6.578125 0zm21.304626 16.968758l6.5625 1.09375q-1.265625 3.609375 -4.0 5.5q-2.71875 1.890625 -6.828125 1.890625q-6.484375 0 -9.609314 -4.25q-2.453125 -3.390625 -2.453125 -8.578133q0 -6.1875 3.234375 -9.6875q3.234314 -3.5 8.171814 -3.5q5.5625 0 8.765625 3.671875q3.21875 3.65625 3.078125 11.234375l-16.5 0q0.0625 2.9218826 1.578125 4.5625076q1.53125 1.625 3.8125 1.625q1.546875 0 2.59375 -0.84375q1.0625 -0.84375 1.59375 -2.71875zm0.375 -6.6562576q-0.0625 -2.859375 -1.46875 -4.34375q-1.40625 -1.5 -3.421875 -1.5q-2.15625 0 -3.5625 1.578125q-1.40625 1.5625 -1.390625 4.265625l9.84375 0zm33.617188 -2.953125l-6.5 1.171875q-0.328125 -1.953125 -1.484375 -2.9375q-1.15625 -0.984375 -3.015625 -0.984375q-2.453125 0 -3.921875 1.703125q-1.46875 1.703125 -1.46875 5.6875q0 4.4218826 1.484375 6.2500076q1.5 1.828125 4.0 1.828125q1.875 0 3.0625 -1.0625q1.203125 -1.0625 1.703125 -3.6718826l6.46875 1.1093826q-1.015625 4.453125 -3.875 6.734375q-2.859375 2.265625 -7.65625 2.265625q-5.46875 0 -8.71875 -3.4375q-3.234375 -3.453125 -3.234375 -9.546883q0 -6.171875 3.25 -9.59375q3.265625 -3.4375 8.8125 -3.4375q4.546875 0 7.234375 1.953125q2.6875 1.953125 3.859375 5.96875zm16.398438 -7.359375l0 5.25l-4.5 0l0 10.03125q0 3.0468826 0.125 3.5468826q0.140625 0.5 0.59375 0.828125q0.453125 0.328125 1.109375 0.328125q0.921875 0 2.65625 -0.625l0.5625 5.109375q-2.296875 0.984375 -5.203125 0.984375q-1.78125 0 -3.21875 -0.59375q-1.421875 -0.609375 -2.09375 -1.546875q-0.671875 -0.953125 -0.921875 -2.578125q-0.21875 -1.140625 -0.21875 -4.6406326l0 -10.84375l-3.015625 0l0 -5.25l3.015625 0l0 -4.953125l6.609375 -3.84375l0 8.796875l4.5 0zm3.046875 12.09375q0 -3.28125 1.609375 -6.34375q1.625 -3.078125 4.59375 -4.6875q2.96875 -1.625 6.625 -1.625q5.640625 0 9.25 3.671875q3.609375 3.65625 3.609375 9.265625q0 5.6406326 -3.640625 9.359383q-3.640625 3.71875 -9.171875 3.71875q-3.421875 0 -6.53125 -1.546875q-3.109375 -1.546875 -4.734375 -4.53125q-1.609375 -3.0 -1.609375 -7.2812576zm6.75 0.34375q0 3.703125 1.75 5.6718826q1.765625 1.96875 4.34375 1.96875q2.578125 0 4.328125 -1.96875q1.75 -1.9687576 1.75 -5.7187576q0 -3.65625 -1.75 -5.625q-1.75 -1.96875 -4.328125 -1.96875q-2.578125 0 -4.34375 1.96875q-1.75 1.96875 -1.75 5.671875zm30.398438 12.453133l-6.578125 0l0 -24.890633l6.109375 0l0 3.53125q1.578125 -2.5 2.828125 -3.296875q1.25 -0.796875 2.84375 -0.796875q2.25 0 4.34375 1.234375l-2.046875 5.75q-1.65625 -1.078125 -3.09375 -1.078125q-1.375 0 -2.34375 0.765625q-0.953125 0.75 -1.515625 2.75q-0.546875 1.984375 -0.546875 8.343758l0 7.6875z" fill-rule="nonzero"/><path fill="#000000" d="m347.89648 188.13911l0 3.015625l0.875 0q0.859375 0 1.234375 0.34375q0.375 0.328125 0.375 0.859375q0 0.53125 -0.375 0.875q-0.375 0.328125 -1.234375 0.328125l-3.640625 0q-0.875 0 -1.25 -0.328125q-0.359375 -0.34375 -0.359375 -0.875q0 -0.53125 0.375 -0.859375q0.375 -0.34375 1.234375 -0.34375l0.375 0l0 -9.390625l-0.375 0q-0.875 0 -1.25 -0.328125q-0.359375 -0.34375 -0.359375 -0.890625q0 -0.53125 0.359375 -0.859375q0.375 -0.34375 1.25 -0.34375l5.4375 0.015625q2.53125 0 3.9375 1.265625q1.40625 1.25 1.40625 3.0625q0 1.125 -0.65625 2.046875q-0.65625 0.90625 -1.984375 1.625q0.765625 0.671875 1.625 1.71875q0.546875 0.65625 1.453125 2.078125q0.921875 0 1.203125 0.1875q0.53125 0.359375 0.53125 1.015625q0 0.53125 -0.359375 0.875q-0.359375 0.328125 -1.234375 0.328125l-1.375 0q-2.90625 -4.515625 -4.828125 -5.421875l-2.390625 0zm0 -2.40625l1.875 0q1.046875 0 1.875 -0.3125q1.09375 -0.421875 1.46875 -0.890625q0.390625 -0.46875 0.390625 -0.9375q0 -0.671875 -0.734375 -1.25q-0.71875 -0.578125 -2.109375 -0.578125l-2.765625 0l0 3.96875zm22.917969 3.71875l-9.859375 0q0.375 0.9375 1.328125 1.515625q0.953125 0.578125 2.59375 0.578125q1.328125 0 3.546875 -0.578125q0.90625 -0.234375 1.265625 -0.234375q0.484375 0 0.8125 0.34375q0.328125 0.34375 0.328125 0.859375q0 0.46875 -0.359375 0.796875q-0.46875 0.421875 -2.28125 0.828125q-1.8125 0.390625 -3.5 0.390625q-2.875 0 -4.609375 -1.625q-1.71875 -1.640625 -1.71875 -4.015625q0 -2.53125 1.859375 -4.109375q1.875 -1.59375 4.3125 -1.59375q1.46875 0 2.6875 0.515625q1.21875 0.515625 1.828125 1.109375q0.84375 0.859375 1.390625 2.140625q0.375 0.890625 0.375 2.0625l0 1.015625zm-2.65625 -2.390625q-0.5625 -1.03125 -1.453125 -1.546875q-0.890625 -0.515625 -2.109375 -0.515625q-1.21875 0 -2.109375 0.515625q-0.890625 0.515625 -1.453125 1.546875l7.125 0zm8.589844 -4.140625l0 0.8125q0.65625 -0.5625 1.453125 -0.84375q0.796875 -0.28125 1.71875 -0.28125q2.125 0 3.375 1.3125q0.984375 1.0625 0.984375 2.765625l0 4.46875q0.765625 0 1.125 0.34375q0.359375 0.328125 0.359375 0.859375q0 0.53125 -0.375 0.875q-0.359375 0.328125 -1.234375 0.328125l-2.15625 0q-0.875 0 -1.25 -0.328125q-0.359375 -0.34375 -0.359375 -0.875q0 -0.53125 0.359375 -0.859375q0.359375 -0.34375 1.125 -0.34375l0 -4.53125q0 -0.78125 -0.421875 -1.15625q-0.546875 -0.46875 -1.65625 -0.46875q-0.828125 0 -1.453125 0.328125q-0.625 0.328125 -1.59375 1.359375l0 4.46875q0.9375 0 1.203125 0.171875q0.578125 0.359375 0.578125 1.03125q0 0.53125 -0.375 0.875q-0.375 0.328125 -1.234375 0.328125l-2.734375 0q-0.859375 0 -1.234375 -0.328125q-0.375 -0.34375 -0.375 -0.875q0 -0.65625 0.5625 -1.03125q0.28125 -0.171875 1.21875 -0.171875l0 -5.828125q-0.765625 0 -1.140625 -0.34375q-0.359375 -0.34375 -0.359375 -0.875q0 -0.515625 0.375 -0.84375q0.375 -0.34375 1.234375 -0.34375l2.28125 0zm22.355469 -4.5625l0 12.796875l0.40625 0q0.859375 0 1.234375 0.34375q0.375 0.328125 0.375 0.859375q0 0.53125 -0.375 0.875q-0.359375 0.328125 -1.234375 0.328125l-2.8125 0l0 -0.59375q-0.8125 0.484375 -1.71875 0.734375q-0.890625 0.25 -1.859375 0.25q-2.703125 0 -4.359375 -1.5625q-1.640625 -1.578125 -1.640625 -3.90625q0 -2.4375 1.734375 -4.15625q1.734375 -1.71875 4.21875 -1.71875q0.9375 0 1.84375 0.28125q0.90625 0.28125 1.78125 0.859375l0 -2.984375l-0.40625 0q-0.875 0 -1.25 -0.328125q-0.359375 -0.34375 -0.359375 -0.875q0 -0.53125 0.359375 -0.859375q0.375 -0.34375 1.25 -0.34375l2.8125 0zm-2.40625 10.203125q0 -1.5 -1.046875 -2.53125q-1.03125 -1.03125 -2.546875 -1.03125q-1.5 0 -2.546875 1.03125q-1.046875 1.03125 -1.046875 2.484375q0 1.328125 0.9375 2.1875q0.9375 0.84375 2.65625 0.84375q1.703125 0 2.640625 -0.84375q0.953125 -0.859375 0.953125 -2.140625zm17.324219 0.890625l-9.859375 0q0.375 0.9375 1.328125 1.515625q0.953125 0.578125 2.59375 0.578125q1.328125 0 3.546875 -0.578125q0.90625 -0.234375 1.265625 -0.234375q0.484375 0 0.8125 0.34375q0.328125 0.34375 0.328125 0.859375q0 0.46875 -0.359375 0.796875q-0.46875 0.421875 -2.28125 0.828125q-1.8125 0.390625 -3.5 0.390625q-2.875 0 -4.609375 -1.625q-1.71875 -1.640625 -1.71875 -4.015625q0 -2.53125 1.859375 -4.109375q1.875 -1.59375 4.3125 -1.59375q1.46875 0 2.6875 0.515625q1.21875 0.515625 1.828125 1.109375q0.84375 0.859375 1.390625 2.140625q0.375 0.890625 0.375 2.0625l0 1.015625zm-2.65625 -2.390625q-0.5625 -1.03125 -1.453125 -1.546875q-0.890625 -0.515625 -2.109375 -0.515625q-1.21875 0 -2.109375 0.515625q-0.890625 0.515625 -1.453125 1.546875l7.125 0zm10.527344 -4.140625l0 1.5q1.515625 -1.09375 2.390625 -1.453125q0.875 -0.359375 1.625 -0.359375q1.171875 0 2.28125 0.859375q0.75 0.59375 0.75 1.203125q0 0.515625 -0.359375 0.875q-0.359375 0.34375 -0.859375 0.34375q-0.453125 0 -0.953125 -0.4375q-0.484375 -0.453125 -0.859375 -0.453125q-0.515625 0 -1.515625 0.640625q-1.0 0.625 -2.5 1.890625l0 3.625l3.421875 0q0.875 0 1.234375 0.34375q0.375 0.328125 0.375 0.859375q0 0.53125 -0.375 0.875q-0.359375 0.328125 -1.234375 0.328125l-7.25 0q-0.875 0 -1.25 -0.328125q-0.359375 -0.34375 -0.359375 -0.875q0 -0.53125 0.359375 -0.859375q0.375 -0.34375 1.25 -0.34375l1.421875 0l0 -5.828125l-0.859375 0q-0.875 0 -1.25 -0.328125q-0.359375 -0.34375 -0.359375 -0.890625q0 -0.515625 0.359375 -0.84375q0.375 -0.34375 1.25 -0.34375l3.265625 0zm20.933594 6.53125l-9.859375 0q0.375 0.9375 1.328125 1.515625q0.953125 0.578125 2.59375 0.578125q1.328125 0 3.546875 -0.578125q0.90625 -0.234375 1.265625 -0.234375q0.484375 0 0.8125 0.34375q0.328125 0.34375 0.328125 0.859375q0 0.46875 -0.359375 0.796875q-0.46875 0.421875 -2.28125 0.828125q-1.8125 0.390625 -3.5 0.390625q-2.875 0 -4.609375 -1.625q-1.71875 -1.640625 -1.71875 -4.015625q0 -2.53125 1.859375 -4.109375q1.875 -1.59375 4.3125 -1.59375q1.46875 0 2.6875 0.515625q1.21875 0.515625 1.828125 1.109375q0.84375 0.859375 1.390625 2.140625q0.375 0.890625 0.375 2.0625l0 1.015625zm-2.65625 -2.390625q-0.5625 -1.03125 -1.453125 -1.546875q-0.890625 -0.515625 -2.109375 -0.515625q-1.21875 0 -2.109375 0.515625q-0.890625 0.515625 -1.453125 1.546875l7.125 0zm10.527344 -4.140625l0 1.5q1.515625 -1.09375 2.390625 -1.453125q0.875 -0.359375 1.625 -0.359375q1.171875 0 2.28125 0.859375q0.75 0.59375 0.75 1.203125q0 0.515625 -0.359375 0.875q-0.359375 0.34375 -0.859375 0.34375q-0.453125 0 -0.953125 -0.4375q-0.484375 -0.453125 -0.859375 -0.453125q-0.515625 0 -1.515625 0.640625q-1.0 0.625 -2.5 1.890625l0 3.625l3.421875 0q0.875 0 1.234375 0.34375q0.375 0.328125 0.375 0.859375q0 0.53125 -0.375 0.875q-0.359375 0.328125 -1.234375 0.328125l-7.25 0q-0.875 0 -1.25 -0.328125q-0.359375 -0.34375 -0.359375 -0.875q0 -0.53125 0.359375 -0.859375q0.375 -0.34375 1.25 -0.34375l1.421875 0l0 -5.828125l-0.859375 0q-0.875 0 -1.25 -0.328125q-0.359375 -0.34375 -0.359375 -0.890625q0 -0.515625 0.359375 -0.84375q0.375 -0.34375 1.25 -0.34375l3.265625 0zm14.339844 7.40625l3.203125 0l-3.453125 6.5156403q-0.3125 0.578125 -0.765625 0.578125q-0.296875 0 -0.515625 -0.203125q-0.21875 -0.203125 -0.21875 -0.4375q0 -0.1875 0.078125 -0.484375l1.671875 -5.9687653zm25.851562 2.625q-0.3125 0.375 -0.515625 0.484375q-0.1875 0.09375 -0.46875 0.09375q-0.546875 0 -0.890625 -0.359375q-0.328125 -0.375 -0.328125 -1.234375l0 -1.609375q0 -0.875 0.328125 -1.234375q0.34375 -0.375 0.890625 -0.375q0.421875 0 0.703125 0.234375q0.296875 0.21875 0.453125 0.734375q0.15625 0.515625 0.3125 0.703125q0.34375 0.375 1.203125 0.75q0.875 0.375 1.90625 0.375q1.609375 0 2.640625 -0.75q0.65625 -0.46875 0.65625 -1.125q0 -0.453125 -0.328125 -0.84375q-0.3125 -0.390625 -1.03125 -0.65625q-0.46875 -0.171875 -2.09375 -0.46875q-1.96875 -0.375 -2.984375 -0.890625q-1.0 -0.515625 -1.59375 -1.453125q-0.578125 -0.9375 -0.578125 -2.015625q0 -1.734375 1.4375 -3.015625q1.453125 -1.296875 3.75 -1.296875q0.9375 0 1.71875 0.203125q0.796875 0.203125 1.4375 0.625q0.46875 -0.453125 0.9375 -0.453125q0.53125 0 0.859375 0.375q0.34375 0.359375 0.34375 1.21875l0 1.796875q0 0.875 -0.34375 1.25q-0.328125 0.359375 -0.859375 0.359375q-0.4375 0 -0.765625 -0.265625q-0.265625 -0.203125 -0.390625 -0.796875q-0.125 -0.609375 -0.328125 -0.859375q-0.34375 -0.453125 -1.03125 -0.75q-0.671875 -0.3125 -1.5625 -0.3125q-1.296875 0 -2.0625 0.609375q-0.75 0.609375 -0.75 1.265625q0 0.4375 0.3125 0.859375q0.3125 0.40625 0.90625 0.640625q0.40625 0.171875 2.25 0.53125q1.84375 0.359375 2.828125 0.796875q1.0 0.4375 1.65625 1.359375q0.65625 0.921875 0.65625 2.203125q0 1.78125 -1.265625 2.84375q-1.65625 1.421875 -4.234375 1.421875q-1.0 0 -1.953125 -0.25q-0.9375 -0.234375 -1.828125 -0.71875zm20.074219 0.609375l0 -0.5625q-0.890625 0.484375 -1.984375 0.71875q-1.09375 0.25 -1.984375 0.25q-1.9375 0 -3.140625 -1.03125q-1.203125 -1.03125 -1.203125 -2.265625q0 -1.515625 1.53125 -2.8125q1.546875 -1.296875 4.265625 -1.296875q1.09375 0 2.515625 0.234375l0 -0.578125q0 -0.53125 -0.46875 -0.875q-0.453125 -0.34375 -1.75 -0.34375q-1.0625 0 -2.765625 0.421875q-0.640625 0.15625 -0.984375 0.15625q-0.484375 0 -0.828125 -0.34375q-0.328125 -0.34375 -0.328125 -0.890625q0 -0.296875 0.109375 -0.515625q0.125 -0.234375 0.328125 -0.359375q0.21875 -0.140625 0.890625 -0.328125q0.890625 -0.25 1.8125 -0.390625q0.9375 -0.140625 1.6875 -0.140625q2.234375 0 3.46875 0.96875q1.234375 0.953125 1.234375 2.640625l0 4.9375l0.40625 0q0.875 0 1.234375 0.34375q0.375 0.328125 0.375 0.859375q0 0.53125 -0.375 0.875q-0.359375 0.328125 -1.234375 0.328125l-2.8125 0zm0 -4.296875q-1.4375 -0.28125 -2.65625 -0.28125q-1.46875 0 -2.515625 0.703125q-0.65625 0.46875 -0.65625 0.9375q0 0.328125 0.3125 0.546875q0.59375 0.390625 1.609375 0.390625q0.859375 0 1.953125 -0.34375q1.109375 -0.34375 1.953125 -0.921875l0 -1.03125zm9.808594 -6.34375l0 0.8125q0.65625 -0.5625 1.453125 -0.84375q0.796875 -0.28125 1.71875 -0.28125q2.125 0 3.375 1.3125q0.984375 1.0625 0.984375 2.765625l0 4.46875q0.765625 0 1.125 0.34375q0.359375 0.328125 0.359375 0.859375q0 0.53125 -0.375 0.875q-0.359375 0.328125 -1.234375 0.328125l-2.15625 0q-0.875 0 -1.25 -0.328125q-0.359375 -0.34375 -0.359375 -0.875q0 -0.53125 0.359375 -0.859375q0.359375 -0.34375 1.125 -0.34375l0 -4.53125q0 -0.78125 -0.421875 -1.15625q-0.546875 -0.46875 -1.65625 -0.46875q-0.828125 0 -1.453125 0.328125q-0.625 0.328125 -1.59375 1.359375l0 4.46875q0.9375 0 1.203125 0.171875q0.578125 0.359375 0.578125 1.03125q0 0.53125 -0.375 0.875q-0.375 0.328125 -1.234375 0.328125l-2.734375 0q-0.859375 0 -1.234375 -0.328125q-0.375 -0.34375 -0.375 -0.875q0 -0.65625 0.5625 -1.03125q0.28125 -0.171875 1.21875 -0.171875l0 -5.828125q-0.765625 0 -1.140625 -0.34375q-0.359375 -0.34375 -0.359375 -0.875q0 -0.515625 0.375 -0.84375q0.375 -0.34375 1.234375 -0.34375l2.28125 0zm17.699219 -4.5625l0 2.546875l-2.859375 0l0 -2.546875l2.859375 0zm0.328125 4.5625l0 8.234375l2.890625 0q0.859375 0 1.21875 0.34375q0.375 0.328125 0.375 0.859375q0 0.53125 -0.375 0.875q-0.359375 0.328125 -1.21875 0.328125l-8.171875 0q-0.875 0 -1.25 -0.328125q-0.359375 -0.34375 -0.359375 -0.875q0 -0.53125 0.359375 -0.859375q0.375 -0.34375 1.25 -0.34375l2.875 0l0 -5.828125l-1.921875 0q-0.859375 0 -1.234375 -0.328125q-0.375 -0.34375 -0.375 -0.890625q0 -0.515625 0.359375 -0.84375q0.375 -0.34375 1.25 -0.34375l4.328125 0zm12.621094 2.40625l0 4.8125q0 0.765625 0.3125 1.015625q0.5 0.390625 1.765625 0.390625q1.84375 0 3.390625 -0.78125q0.609375 -0.3125 0.9375 -0.3125q0.46875 0 0.8125 0.359375q0.359375 0.34375 0.359375 0.84375q0 0.46875 -0.375 0.8125q-0.578125 0.546875 -2.28125 1.015625q-1.6875 0.46875 -2.84375 0.46875q-2.234375 0 -3.359375 -0.96875q-1.125 -0.96875 -1.125 -2.375l0 -5.28125l-0.859375 0q-0.875 0 -1.25 -0.328125q-0.359375 -0.34375 -0.359375 -0.890625q0 -0.515625 0.359375 -0.84375q0.375 -0.34375 1.25 -0.34375l0.859375 0l0 -2.171875q0 -0.859375 0.328125 -1.234375q0.34375 -0.375 0.890625 -0.375q0.515625 0 0.84375 0.375q0.34375 0.375 0.34375 1.234375l0 2.171875l4.4375 0q0.875 0 1.234375 0.34375q0.375 0.328125 0.375 0.859375q0 0.53125 -0.375 0.875q-0.359375 0.328125 -1.234375 0.328125l-4.4375 0zm15.855408 -6.96875l0 2.546875l-2.859375 0l0 -2.546875l2.859375 0zm0.328125 4.5625l0 8.234375l2.890625 0q0.859375 0 1.21875 0.34375q0.375 0.328125 0.375 0.859375q0 0.53125 -0.375 0.875q-0.359375 0.328125 -1.21875 0.328125l-8.171875 0q-0.875 0 -1.25 -0.328125q-0.359375 -0.34375 -0.359375 -0.875q0 -0.53125 0.359375 -0.859375q0.375 -0.34375 1.25 -0.34375l2.875 0l0 -5.828125l-1.921875 0q-0.859375 0 -1.234375 -0.328125q-0.375 -0.34375 -0.375 -0.890625q0 -0.515625 0.359375 -0.84375q0.375 -0.34375 1.25 -0.34375l4.328125 0zm11.917969 8.234375l4.21875 0q0.03125 -0.671875 0.359375 -1.0q0.34375 -0.328125 0.84375 -0.328125q0.53125 0 0.859375 0.375q0.34375 0.359375 0.34375 1.21875l0 2.140625l-10.453125 0l0 -2.0l6.328125 -6.234375l-3.6875 0l0 0.234375q0 0.84375 -0.328125 1.21875q-0.328125 0.375 -0.875 0.375q-0.53125 0 -0.875 -0.375q-0.328125 -0.375 -0.328125 -1.21875l0.015625 -2.640625l9.9375 0l0 1.96875l-6.359375 6.265625zm21.730469 -1.703125l-9.859375 0q0.375 0.9375 1.328125 1.515625q0.953125 0.578125 2.59375 0.578125q1.328125 0 3.546875 -0.578125q0.90625 -0.234375 1.265625 -0.234375q0.484375 0 0.8125 0.34375q0.328125 0.34375 0.328125 0.859375q0 0.46875 -0.359375 0.796875q-0.46875 0.421875 -2.28125 0.828125q-1.8125 0.390625 -3.5 0.390625q-2.875 0 -4.609375 -1.625q-1.71875 -1.640625 -1.71875 -4.015625q0 -2.53125 1.859375 -4.109375q1.875 -1.59375 4.3125 -1.59375q1.46875 0 2.6875 0.515625q1.21875 0.515625 1.828125 1.109375q0.84375 0.859375 1.390625 2.140625q0.375 0.890625 0.375 2.0625l0 1.015625zm-2.65625 -2.390625q-0.5625 -1.03125 -1.453125 -1.546875q-0.890625 -0.515625 -2.109375 -0.515625q-1.21875 0 -2.109375 0.515625q-0.890625 0.515625 -1.453125 1.546875l7.125 0zm10.527344 -4.140625l0 1.5q1.515625 -1.09375 2.390625 -1.453125q0.875 -0.359375 1.625 -0.359375q1.171875 0 2.28125 0.859375q0.75 0.59375 0.75 1.203125q0 0.515625 -0.359375 0.875q-0.359375 0.34375 -0.859375 0.34375q-0.453125 0 -0.953125 -0.4375q-0.484375 -0.453125 -0.859375 -0.453125q-0.515625 0 -1.515625 0.640625q-1.0 0.625 -2.5 1.890625l0 3.625l3.421875 0q0.875 0 1.234375 0.34375q0.375 0.328125 0.375 0.859375q0 0.53125 -0.375 0.875q-0.359375 0.328125 -1.234375 0.328125l-7.25 0q-0.875 0 -1.25 -0.328125q-0.359375 -0.34375 -0.359375 -0.875q0 -0.53125 0.359375 -0.859375q0.375 -0.34375 1.25 -0.34375l1.421875 0l0 -5.828125l-0.859375 0q-0.875 0 -1.25 -0.328125q-0.359375 -0.34375 -0.359375 -0.890625q0 -0.515625 0.359375 -0.84375q0.375 -0.34375 1.25 -0.34375l3.265625 0z" fill-rule="nonzero"/><path fill="#b6d7a8" d="m39.244095 302.75122l0 0c0 -15.809265 12.81596 -28.625244 28.625244 -28.625244l824.26135 0c7.591858 0 14.872803 3.0158691 20.241089 8.384155c5.368286 5.3682556 8.384155 12.6492 8.384155 20.241089l0 114.49756c0 15.809265 -12.815979 28.625244 -28.625244 28.625244l-824.26135 0l0 0c-15.809284 0 -28.625244 -12.815979 -28.625244 -28.625244z" fill-rule="evenodd"/><path stroke="#000000" stroke-width="1.0" stroke-linejoin="round" stroke-linecap="butt" d="m39.244095 302.75122l0 0c0 -15.809265 12.81596 -28.625244 28.625244 -28.625244l824.26135 0c7.591858 0 14.872803 3.0158691 20.241089 8.384155c5.368286 5.3682556 8.384155 12.6492 8.384155 20.241089l0 114.49756c0 15.809265 -12.815979 28.625244 -28.625244 28.625244l-824.26135 0l0 0c-15.809284 0 -28.625244 -12.815979 -28.625244 -28.625244z" fill-rule="evenodd"/><path fill="#000000" d="m306.0664 351.58l0 -34.359375l10.375 0l6.234375 23.4375l6.171875 -23.4375l10.40625 0l0 34.359375l-6.453125 0l0 -27.046875l-6.8125 27.046875l-6.6875 0l-6.796875 -27.046875l0 27.046875l-6.4375 0zm38.5 -12.796875q0 -3.28125 1.609375 -6.34375q1.625 -3.078125 4.59375 -4.6875q2.96875 -1.625 6.625 -1.625q5.640625 0 9.25 3.671875q3.609375 3.65625 3.609375 9.265625q0 5.640625 -3.640625 9.359375q-3.640625 3.71875 -9.171875 3.71875q-3.421875 0 -6.53125 -1.546875q-3.109375 -1.546875 -4.734375 -4.53125q-1.609375 -3.0 -1.609375 -7.28125zm6.75 0.34375q0 3.703125 1.75 5.671875q1.765625 1.96875 4.34375 1.96875q2.578125 0 4.328125 -1.96875q1.75 -1.96875 1.75 -5.71875q0 -3.65625 -1.75 -5.625q-1.75 -1.96875 -4.328125 -1.96875q-2.578125 0 -4.34375 1.96875q-1.75 1.96875 -1.75 5.671875zm46.929688 12.453125l-6.125 0l0 -3.65625q-1.515625 2.125 -3.59375 3.171875q-2.078125 1.046875 -4.1875 1.046875q-4.28125 0 -7.34375 -3.453125q-3.0625 -3.46875 -3.0625 -9.65625q0 -6.328125 2.96875 -9.609375q2.984375 -3.296875 7.53125 -3.296875q4.171875 0 7.21875 3.46875l0 -12.375l6.59375 0l0 34.359375zm-17.578125 -12.984375q0 3.984375 1.09375 5.765625q1.59375 2.578125 4.453125 2.578125q2.28125 0 3.875 -1.9375q1.59375 -1.9375 1.59375 -5.78125q0 -4.28125 -1.546875 -6.171875q-1.546875 -1.890625 -3.96875 -1.890625q-2.34375 0 -3.921875 1.875q-1.578125 1.859375 -1.578125 5.5625zm40.445312 12.984375l0 -3.734375q-1.359375 2.0 -3.578125 3.15625q-2.203125 1.140625 -4.671875 1.140625q-2.5 0 -4.5 -1.09375q-1.984375 -1.109375 -2.875 -3.09375q-0.890625 -2.0 -0.890625 -5.515625l0 -15.75l6.578125 0l0 11.4375q0 5.25 0.359375 6.4375q0.375 1.171875 1.328125 1.875q0.96875 0.6875 2.4375 0.6875q1.6875 0 3.015625 -0.921875q1.34375 -0.9375 1.828125 -2.296875q0.5 -1.375 0.5 -6.71875l0 -10.5l6.59375 0l0 24.890625l-6.125 0zm12.9453125 0l0 -34.359375l6.578125 0l0 34.359375l-6.578125 0zm27.742188 -7.921875l6.5625 1.09375q-1.265625 3.609375 -4.0 5.5q-2.71875 1.890625 -6.828125 1.890625q-6.484375 0 -9.609375 -4.25q-2.453125 -3.390625 -2.453125 -8.578125q0 -6.1875 3.234375 -9.6875q3.234375 -3.5 8.171875 -3.5q5.5625 0 8.765625 3.671875q3.21875 3.65625 3.078125 11.234375l-16.5 0q0.0625 2.921875 1.578125 4.5625q1.53125 1.625 3.8125 1.625q1.546875 0 2.59375 -0.84375q1.0625 -0.84375 1.59375 -2.71875zm0.375 -6.65625q-0.0625 -2.859375 -1.46875 -4.34375q-1.40625 -1.5 -3.421875 -1.5q-2.15625 0 -3.5625 1.578125q-1.40625 1.5625 -1.390625 4.265625l9.84375 0zm25.078125 14.578125l0 -34.359375l6.9375 0l0 34.359375l-6.9375 0zm36.148438 0l-6.59375 0l0 -12.703125q0 -4.03125 -0.421875 -5.21875q-0.421875 -1.1875 -1.375 -1.84375q-0.9375 -0.65625 -2.28125 -0.65625q-1.703125 0 -3.0625 0.9375q-1.359375 0.9375 -1.875 2.484375q-0.5 1.546875 -0.5 5.71875l0 11.28125l-6.578125 0l0 -24.890625l6.109375 0l0 3.65625q3.265625 -4.21875 8.203125 -4.21875q2.1875 0 3.984375 0.78125q1.8125 0.78125 2.734375 2.0q0.921875 1.21875 1.28125 2.765625q0.375 1.546875 0.375 4.4375l0 15.46875zm6.5390625 -28.265625l0 -6.09375l6.578125 0l0 6.09375l-6.578125 0zm6.578125 3.375l0 24.109375q0 4.765625 -0.625 6.71875q-0.609375 1.96875 -2.390625 3.0625q-1.765625 1.109375 -4.5 1.109375q-0.984375 0 -2.125 -0.1875q-1.140625 -0.171875 -2.453125 -0.515625l1.140625 -5.625q0.46875 0.09375 0.890625 0.140625q0.40625 0.0625 0.765625 0.0625q1.0 0 1.640625 -0.4375q0.65625 -0.421875 0.859375 -1.03125q0.21875 -0.609375 0.21875 -3.671875l0 -23.734375l6.578125 0zm21.304688 16.96875l6.562439 1.09375q-1.265625 3.609375 -4.0 5.5q-2.718689 1.890625 -6.828064 1.890625q-6.484375 0 -9.609375 -4.25q-2.453125 -3.390625 -2.453125 -8.578125q0 -6.1875 3.234375 -9.6875q3.234375 -3.5 8.171875 -3.5q5.5625 0 8.765564 3.671875q3.21875 3.65625 3.078125 11.234375l-16.499939 0q0.0625 2.921875 1.578125 4.5625q1.53125 1.625 3.8125 1.625q1.546875 0 2.59375 -0.84375q1.0625 -0.84375 1.59375 -2.71875zm0.375 -6.65625q-0.0625 -2.859375 -1.46875 -4.34375q-1.40625 -1.5 -3.421875 -1.5q-2.15625 0 -3.5625 1.578125q-1.40625 1.5625 -1.390625 4.265625l9.84375 0zm33.617126 -2.953125l-6.5 1.171875q-0.328125 -1.953125 -1.484375 -2.9375q-1.15625 -0.984375 -3.015625 -0.984375q-2.453125 0 -3.921875 1.703125q-1.46875 1.703125 -1.46875 5.6875q0 4.421875 1.484375 6.25q1.5 1.828125 4.0 1.828125q1.875 0 3.0625 -1.0625q1.203125 -1.0625 1.703125 -3.671875l6.46875 1.109375q-1.015625 4.453125 -3.875 6.734375q-2.859375 2.265625 -7.65625 2.265625q-5.46875 0 -8.71875 -3.4375q-3.234375 -3.453125 -3.234375 -9.546875q0 -6.171875 3.25 -9.59375q3.265625 -3.4375 8.8125 -3.4375q4.546875 0 7.234375 1.953125q2.6875 1.953125 3.859375 5.96875zm16.398438 -7.359375l0 5.25l-4.5 0l0 10.03125q0 3.046875 0.125 3.546875q0.140625 0.5 0.59375 0.828125q0.453125 0.328125 1.109375 0.328125q0.921875 0 2.65625 -0.625l0.5625 5.109375q-2.296875 0.984375 -5.203125 0.984375q-1.78125 0 -3.21875 -0.59375q-1.421875 -0.609375 -2.09375 -1.546875q-0.671875 -0.953125 -0.921875 -2.578125q-0.21875 -1.140625 -0.21875 -4.640625l0 -10.84375l-3.015625 0l0 -5.25l3.015625 0l0 -4.953125l6.609375 -3.84375l0 8.796875l4.5 0zm3.046875 12.09375q0 -3.28125 1.609375 -6.34375q1.625 -3.078125 4.59375 -4.6875q2.96875 -1.625 6.625 -1.625q5.640625 0 9.25 3.671875q3.609375 3.65625 3.609375 9.265625q0 5.640625 -3.640625 9.359375q-3.640625 3.71875 -9.171875 3.71875q-3.421875 0 -6.53125 -1.546875q-3.109375 -1.546875 -4.734375 -4.53125q-1.609375 -3.0 -1.609375 -7.28125zm6.75 0.34375q0 3.703125 1.75 5.671875q1.765625 1.96875 4.34375 1.96875q2.578125 0 4.328125 -1.96875q1.75 -1.96875 1.75 -5.71875q0 -3.65625 -1.75 -5.625q-1.75 -1.96875 -4.328125 -1.96875q-2.578125 0 -4.34375 1.96875q-1.75 1.96875 -1.75 5.671875zm30.398438 12.453125l-6.578125 0l0 -24.890625l6.109375 0l0 3.53125q1.578125 -2.5 2.828125 -3.296875q1.25 -0.796875 2.84375 -0.796875q2.25 0 4.34375 1.234375l-2.046875 5.75q-1.65625 -1.078125 -3.09375 -1.078125q-1.375 0 -2.34375 0.765625q-0.953125 0.75 -1.515625 2.75q-0.546875 1.984375 -0.546875 8.34375l0 7.6875z" fill-rule="nonzero"/><path fill="#000000" d="m339.4297 398.97748l0 7.15625l0.859375 0q0.875 0 1.234375 0.34375q0.375 0.328125 0.375 0.859375q0 0.53125 -0.375 0.875q-0.359375 0.328125 -1.234375 0.328125l-3.15625 0q-0.859375 0 -1.234375 -0.328125q-0.375 -0.34375 -0.375 -0.875q0 -0.53125 0.375 -0.859375q0.359375 -0.34375 1.125 -0.34375l0 -9.390625q-0.640625 -0.0625 -0.96875 -0.390625q-0.3125 -0.328125 -0.3125 -0.828125q0 -0.53125 0.359375 -0.859375q0.375 -0.34375 1.25 -0.34375l2.640625 0.015625l3.265625 7.234375l3.203125 -7.25l2.671875 0.015625q0.859375 0 1.21875 0.328125q0.375 0.328125 0.375 0.859375q0 0.5 -0.328125 0.828125q-0.328125 0.328125 -0.9375 0.390625l0 9.390625q0.75 0 1.109375 0.34375q0.375 0.34375 0.375 0.859375q0 0.53125 -0.375 0.875q-0.359375 0.328125 -1.234375 0.328125l-3.15625 0q-0.859375 0 -1.234375 -0.328125q-0.359375 -0.34375 -0.359375 -0.875q0 -0.53125 0.359375 -0.859375q0.375 -0.34375 1.234375 -0.34375l0.875 0l0 -7.15625l-2.75 6.1875l-2.09375 0l-2.78125 -6.1875zm24.386719 4.4375q0 1.390625 -0.765625 2.6875q-0.765625 1.28125 -2.28125 2.0625q-1.515625 0.765625 -3.171875 0.765625q-1.640625 0 -3.140625 -0.75q-1.5 -0.765625 -2.28125 -2.0625q-0.78125 -1.3125 -0.78125 -2.71875q0 -1.453125 0.796875 -2.828125q0.796875 -1.390625 2.28125 -2.1875q1.5 -0.796875 3.125 -0.796875q1.640625 0 3.15625 0.8125q1.515625 0.8125 2.28125 2.1875q0.78125 1.375 0.78125 2.828125zm-2.390625 0.015625q0 -1.15625 -0.84375 -2.140625q-1.125 -1.3125 -2.984375 -1.3125q-1.625 0 -2.71875 1.046875q-1.09375 1.046875 -1.09375 2.421875q0 1.125 1.09375 2.109375q1.109375 0.96875 2.71875 0.96875q1.625 0 2.71875 -0.96875q1.109375 -0.984375 1.109375 -2.125zm16.074219 -10.09375l0 12.796875l0.40625 0q0.859375 0 1.234375 0.34375q0.375 0.328125 0.375 0.859375q0 0.53125 -0.375 0.875q-0.359375 0.328125 -1.234375 0.328125l-2.8125 0l0 -0.59375q-0.8125 0.484375 -1.71875 0.734375q-0.890625 0.25 -1.859375 0.25q-2.703125 0 -4.359375 -1.5625q-1.640625 -1.578125 -1.640625 -3.90625q0 -2.4375 1.734375 -4.15625q1.734375 -1.71875 4.21875 -1.71875q0.9375 0 1.84375 0.28125q0.90625 0.28125 1.78125 0.859375l0 -2.984375l-0.40625 0q-0.875 0 -1.25 -0.328125q-0.359375 -0.34375 -0.359375 -0.875q0 -0.53125 0.359375 -0.859375q0.375 -0.34375 1.25 -0.34375l2.8125 0zm-2.40625 10.203125q0 -1.5 -1.046875 -2.53125q-1.03125 -1.03125 -2.546875 -1.03125q-1.5 0 -2.546875 1.03125q-1.046875 1.03125 -1.046875 2.484375q0 1.328125 0.9375 2.1875q0.9375 0.84375 2.65625 0.84375q1.703125 0 2.640625 -0.84375q0.953125 -0.859375 0.953125 -2.140625zm16.402344 -5.640625l0 8.234375q0.75 0 1.109375 0.34375q0.375 0.34375 0.375 0.859375q0 0.53125 -0.375 0.875q-0.359375 0.328125 -1.234375 0.328125l-2.28125 0l0 -0.546875q-1.03125 0.46875 -1.96875 0.703125q-0.9375 0.234375 -1.78125 0.234375q-1.1875 0 -2.0625 -0.5q-0.859375 -0.5 -1.359375 -1.375q-0.359375 -0.640625 -0.359375 -1.59375l0 -5.15625l-0.421875 0q-0.859375 0 -1.234375 -0.328125q-0.359375 -0.34375 -0.359375 -0.890625q0 -0.515625 0.359375 -0.84375q0.375 -0.34375 1.234375 -0.34375l2.8125 0l0 7.140625q0 0.765625 0.375 1.125q0.375 0.359375 1.125 0.359375q0.734375 0 1.5625 -0.28125q0.84375 -0.296875 2.078125 -1.046875l0 -4.890625l-0.875 0q-0.859375 0 -1.234375 -0.328125q-0.359375 -0.34375 -0.359375 -0.890625q0 -0.515625 0.359375 -0.84375q0.375 -0.34375 1.234375 -0.34375l3.28125 0zm10.496094 -4.5625l0 12.796875l2.875 0q0.875 0 1.234375 0.34375q0.375 0.328125 0.375 0.859375q0 0.53125 -0.375 0.875q-0.359375 0.328125 -1.234375 0.328125l-8.15625 0q-0.875 0 -1.25 -0.328125q-0.359375 -0.34375 -0.359375 -0.875q0 -0.53125 0.359375 -0.859375q0.375 -0.34375 1.25 -0.34375l2.875 0l0 -10.390625l-1.9375 0q-0.84375 0 -1.21875 -0.328125q-0.375 -0.34375 -0.375 -0.875q0 -0.53125 0.359375 -0.859375q0.375 -0.34375 1.234375 -0.34375l4.34375 0zm19.230469 11.09375l-9.859375 0q0.375 0.9375 1.328125 1.515625q0.953125 0.578125 2.59375 0.578125q1.328125 0 3.546875 -0.578125q0.90625 -0.234375 1.265625 -0.234375q0.484375 0 0.8125 0.34375q0.328125 0.34375 0.328125 0.859375q0 0.46875 -0.359375 0.796875q-0.46875 0.421875 -2.28125 0.828125q-1.8125 0.390625 -3.5 0.390625q-2.875 0 -4.609375 -1.625q-1.71875 -1.640625 -1.71875 -4.015625q0 -2.53125 1.859375 -4.109375q1.875 -1.59375 4.3125 -1.59375q1.46875 0 2.6875 0.515625q1.21875 0.515625 1.828125 1.109375q0.84375 0.859375 1.390625 2.140625q0.375 0.890625 0.375 2.0625l0 1.015625zm-2.65625 -2.390625q-0.5625 -1.03125 -1.453125 -1.546875q-0.890625 -0.515625 -2.109375 -0.515625q-1.21875 0 -2.109375 0.515625q-0.890625 0.515625 -1.453125 1.546875l7.125 0zm16.058594 0.78125l-10.03125 0l0 -2.1875l10.03125 0l0 2.1875zm9.386719 1.28125l-1.65625 4.4375l-2.265625 0l-2.015625 -8.234375q-0.65625 -0.046875 -1.0 -0.375q-0.328125 -0.328125 -0.328125 -0.84375q0 -0.515625 0.359375 -0.84375q0.375 -0.34375 1.25 -0.34375l2.234375 0q0.875 0 1.234375 0.34375q0.375 0.328125 0.375 0.859375q0 0.546875 -0.421875 0.921875q-0.3125 0.28125 -1.25 0.28125l0.921875 3.796875l1.484375 -3.890625l2.140625 0l1.5 3.890625l0.9375 -3.796875q-0.890625 0 -1.171875 -0.1875q-0.5625 -0.359375 -0.5625 -1.03125q0 -0.515625 0.359375 -0.84375q0.375 -0.34375 1.234375 -0.34375l2.265625 0q0.875 0 1.234375 0.34375q0.375 0.328125 0.375 0.859375q0 0.484375 -0.328125 0.828125q-0.3125 0.328125 -0.953125 0.375l-1.96875 8.234375l-2.21875 0l-1.765625 -4.4375zm15.246094 -10.765625l0 2.546875l-2.859375 0l0 -2.546875l2.859375 0zm0.328125 4.5625l0 8.234375l2.890625 0q0.859375 0 1.21875 0.34375q0.375 0.328125 0.375 0.859375q0 0.53125 -0.375 0.875q-0.359375 0.328125 -1.21875 0.328125l-8.171875 0q-0.875 0 -1.25 -0.328125q-0.359375 -0.34375 -0.359375 -0.875q0 -0.53125 0.359375 -0.859375q0.375 -0.34375 1.25 -0.34375l2.875 0l0 -5.828125l-1.921875 0q-0.859375 0 -1.234375 -0.328125q-0.375 -0.34375 -0.375 -0.890625q0 -0.515625 0.359375 -0.84375q0.375 -0.34375 1.25 -0.34375l4.328125 0zm18.730469 -4.5625l0 12.796875l0.40625 0q0.859375 0 1.234375 0.34375q0.375 0.328125 0.375 0.859375q0 0.53125 -0.375 0.875q-0.359375 0.328125 -1.234375 0.328125l-2.8125 0l0 -0.59375q-0.8125 0.484375 -1.71875 0.734375q-0.890625 0.25 -1.859375 0.25q-2.703125 0 -4.359375 -1.5625q-1.640625 -1.578125 -1.640625 -3.90625q0 -2.4375 1.734375 -4.15625q1.734375 -1.71875 4.21875 -1.71875q0.9375 0 1.84375 0.28125q0.90625 0.28125 1.78125 0.859375l0 -2.984375l-0.40625 0q-0.875 0 -1.25 -0.328125q-0.359375 -0.34375 -0.359375 -0.875q0 -0.53125 0.359375 -0.859375q0.375 -0.34375 1.25 -0.34375l2.8125 0zm-2.40625 10.203125q0 -1.5 -1.046875 -2.53125q-1.03125 -1.03125 -2.546875 -1.03125q-1.5 0 -2.546875 1.03125q-1.046875 1.03125 -1.046875 2.484375q0 1.328125 0.9375 2.1875q0.9375 0.84375 2.65625 0.84375q1.703125 0 2.640625 -0.84375q0.953125 -0.859375 0.953125 -2.140625zm17.324219 0.890625l-9.859375 0q0.375 0.9375 1.328125 1.515625q0.953125 0.578125 2.59375 0.578125q1.328125 0 3.546875 -0.578125q0.90625 -0.234375 1.265625 -0.234375q0.484375 0 0.8125 0.34375q0.328125 0.34375 0.328125 0.859375q0 0.46875 -0.359375 0.796875q-0.46875 0.421875 -2.28125 0.828125q-1.8125 0.390625 -3.5 0.390625q-2.875 0 -4.609375 -1.625q-1.71875 -1.640625 -1.71875 -4.015625q0 -2.53125 1.859375 -4.109375q1.875 -1.59375 4.3125 -1.59375q1.46875 0 2.6875 0.515625q1.21875 0.515625 1.828125 1.109375q0.84375 0.859375 1.390625 2.140625q0.375 0.890625 0.375 2.0625l0 1.015625zm-2.65625 -2.390625q-0.5625 -1.03125 -1.453125 -1.546875q-0.890625 -0.515625 -2.109375 -0.515625q-1.21875 0 -2.109375 0.515625q-0.890625 0.515625 -1.453125 1.546875l7.125 0zm21.914062 5.890625q-0.3125 0.375 -0.515625 0.484375q-0.1875 0.09375 -0.46875 0.09375q-0.546875 0 -0.890625 -0.359375q-0.328125 -0.375 -0.328125 -1.234375l0 -1.609375q0 -0.875 0.328125 -1.234375q0.34375 -0.375 0.890625 -0.375q0.421875 0 0.703125 0.234375q0.296875 0.21875 0.453125 0.734375q0.15625 0.515625 0.3125 0.703125q0.34375 0.375 1.203125 0.75q0.875 0.375 1.90625 0.375q1.609375 0 2.640625 -0.75q0.65625 -0.46875 0.65625 -1.125q0 -0.453125 -0.328125 -0.84375q-0.3125 -0.390625 -1.03125 -0.65625q-0.46875 -0.171875 -2.09375 -0.46875q-1.96875 -0.375 -2.984375 -0.890625q-1.0 -0.515625 -1.59375 -1.453125q-0.578125 -0.9375 -0.578125 -2.015625q0 -1.734375 1.4375 -3.015625q1.453125 -1.296875 3.75 -1.296875q0.9375 0 1.71875 0.203125q0.796875 0.203125 1.4375 0.625q0.46875 -0.453125 0.9375 -0.453125q0.53125 0 0.859375 0.375q0.34375 0.359375 0.34375 1.21875l0 1.796875q0 0.875 -0.34375 1.25q-0.328125 0.359375 -0.859375 0.359375q-0.4375 0 -0.765625 -0.265625q-0.265625 -0.203125 -0.390625 -0.796875q-0.125 -0.609375 -0.328125 -0.859375q-0.34375 -0.453125 -1.03125 -0.75q-0.671875 -0.3125 -1.5625 -0.3125q-1.296875 0 -2.0625 0.609375q-0.75 0.609375 -0.75 1.265625q0 0.4375 0.3125 0.859375q0.3125 0.40625 0.90625 0.640625q0.40625 0.171875 2.25 0.53125q1.84375 0.359375 2.828125 0.796875q1.0 0.4375 1.65625 1.359375q0.65625 0.921875 0.65625 2.203125q0 1.78125 -1.265625 2.84375q-1.65625 1.421875 -4.234375 1.421875q-1.0 0 -1.953125 -0.25q-0.9375 -0.234375 -1.828125 -0.71875zm23.949219 -3.5l-9.859375 0q0.375 0.9375 1.328125 1.515625q0.953125 0.578125 2.59375 0.578125q1.328125 0 3.546875 -0.578125q0.90625 -0.234375 1.265625 -0.234375q0.484375 0 0.8125 0.34375q0.328125 0.34375 0.328125 0.859375q0 0.46875 -0.359375 0.796875q-0.46875 0.421875 -2.28125 0.828125q-1.8125 0.390625 -3.5 0.390625q-2.875 0 -4.609375 -1.625q-1.71875 -1.640625 -1.71875 -4.015625q0 -2.53125 1.859375 -4.109375q1.875 -1.59375 4.3125 -1.59375q1.46875 0 2.6875 0.515625q1.21875 0.515625 1.828125 1.109375q0.84375 0.859375 1.390625 2.140625q0.375 0.890625 0.375 2.0625l0 1.015625zm-2.65625 -2.390625q-0.5625 -1.03125 -1.453125 -1.546875q-0.890625 -0.515625 -2.109375 -0.515625q-1.21875 0 -2.109375 0.515625q-0.890625 0.515625 -1.453125 1.546875l7.125 0zm10.527344 -4.140625l0 1.5q1.515625 -1.09375 2.390625 -1.453125q0.875 -0.359375 1.625 -0.359375q1.171875 0 2.28125 0.859375q0.75 0.59375 0.75 1.203125q0 0.515625 -0.359375 0.875q-0.359375 0.34375 -0.859375 0.34375q-0.453125 0 -0.953125 -0.4375q-0.484375 -0.453125 -0.859375 -0.453125q-0.515625 0 -1.515625 0.640625q-1.0 0.625 -2.5 1.890625l0 3.625l3.421875 0q0.875 0 1.234375 0.34375q0.375 0.328125 0.375 0.859375q0 0.53125 -0.375 0.875q-0.359375 0.328125 -1.234375 0.328125l-7.25 0q-0.875 0 -1.25 -0.328125q-0.359375 -0.34375 -0.359375 -0.875q0 -0.53125 0.359375 -0.859375q0.375 -0.34375 1.25 -0.34375l1.421875 0l0 -5.828125l-0.859375 0q-0.875 0 -1.25 -0.328125q-0.359375 -0.34375 -0.359375 -0.890625q0 -0.515625 0.359375 -0.84375q0.375 -0.34375 1.25 -0.34375l3.265625 0zm14.917969 7.71875l2.593689 -5.3125q-0.96875 0 -1.234375 -0.171875q-0.578125 -0.359375 -0.578125 -1.046875q0 -0.515625 0.359375 -0.84375q0.375 -0.34375 1.234375 -0.34375l3.296875 0q0.875 0 1.234375 0.34375q0.375 0.328125 0.375 0.859375q0 0.53125 -0.375 0.875q-0.359375 0.328125 -1.234375 0.328125l-0.390625 0l-4.03125 8.234375l-2.499939 0l-4.015625 -8.234375l-0.34375 0q-0.875 0 -1.25 -0.328125q-0.359375 -0.34375 -0.359375 -0.890625q0 -0.515625 0.359375 -0.84375q0.375 -0.34375 1.25 -0.34375l3.21875 0q0.859375 0 1.21875 0.34375q0.375 0.328125 0.375 0.859375q0 0.671875 -0.5625 1.015625q-0.28125 0.1875 -1.25 0.1875l2.609375 5.3125zm15.246033 -12.28125l0 2.546875l-2.859375 0l0 -2.546875l2.859375 0zm0.328125 4.5625l0 8.234375l2.890625 0q0.859375 0 1.21875 0.34375q0.375 0.328125 0.375 0.859375q0 0.53125 -0.375 0.875q-0.359375 0.328125 -1.21875 0.328125l-8.171875 0q-0.875 0 -1.25 -0.328125q-0.359375 -0.34375 -0.359375 -0.875q0 -0.53125 0.359375 -0.859375q0.375 -0.34375 1.25 -0.34375l2.875 0l0 -5.828125l-1.921875 0q-0.859375 0 -1.234375 -0.328125q-0.375 -0.34375 -0.375 -0.890625q0 -0.515625 0.359375 -0.84375q0.375 -0.34375 1.25 -0.34375l4.328125 0zm16.964844 0.4375q0.421875 -0.421875 0.890625 -0.421875q0.515625 0 0.84375 0.375q0.328125 0.375 0.328125 1.21875l0 1.546875q0 0.875 -0.328125 1.234375q-0.328125 0.359375 -0.875 0.359375q-0.484375 0 -0.828125 -0.28125q-0.25 -0.203125 -0.390625 -0.84375q-0.140625 -0.65625 -0.671875 -0.984375q-0.953125 -0.5625 -2.4375 -0.5625q-1.6875 0 -2.71875 1.0q-1.03125 1.0 -1.03125 2.515625q0 1.40625 0.984375 2.234375q0.984375 0.8125 3.28125 0.8125q1.5 0 2.4375 -0.3125q0.5625 -0.1875 1.0625 -0.640625q0.515625 -0.453125 0.921875 -0.453125q0.5 0 0.84375 0.375q0.359375 0.359375 0.359375 0.84375q0 0.796875 -1.078125 1.515625q-1.625 1.078125 -4.734375 1.078125q-2.8125 0 -4.359375 -1.171875q-2.109375 -1.5625 -2.109375 -4.265625q0 -2.5625 1.703125 -4.234375q1.71875 -1.6875 4.46875 -1.6875q1.0 0 1.84375 0.1875q0.859375 0.1875 1.59375 0.5625zm16.683594 6.09375l-9.859375 0q0.375 0.9375 1.328125 1.515625q0.953125 0.578125 2.59375 0.578125q1.328125 0 3.546875 -0.578125q0.90625 -0.234375 1.265625 -0.234375q0.484375 0 0.8125 0.34375q0.328125 0.34375 0.328125 0.859375q0 0.46875 -0.359375 0.796875q-0.46875 0.421875 -2.28125 0.828125q-1.8125 0.390625 -3.5 0.390625q-2.875 0 -4.609375 -1.625q-1.71875 -1.640625 -1.71875 -4.015625q0 -2.53125 1.859375 -4.109375q1.875 -1.59375 4.3125 -1.59375q1.46875 0 2.6875 0.515625q1.21875 0.515625 1.828125 1.109375q0.84375 0.859375 1.390625 2.140625q0.375 0.890625 0.375 2.0625l0 1.015625zm-2.65625 -2.390625q-0.5625 -1.03125 -1.453125 -1.546875q-0.890625 -0.515625 -2.109375 -0.515625q-1.21875 0 -2.109375 0.515625q-0.890625 0.515625 -1.453125 1.546875l7.125 0zm13.621094 -1.328125q-0.578125 -0.359375 -1.234375 -0.546875q-0.640625 -0.1875 -1.34375 -0.1875q-1.390625 0 -2.21875 0.46875q-0.359375 0.1875 -0.359375 0.421875q0 0.28125 0.5 0.53125q0.375 0.1875 1.671875 0.359375q2.390625 0.328125 3.328125 0.65625q1.234375 0.4375 1.890625 1.296875q0.671875 0.859375 0.671875 1.796875q0 1.296875 -1.140625 2.15625q-1.625 1.265625 -4.21875 1.265625q-1.046875 0 -1.9375 -0.1875q-0.875 -0.171875 -1.625 -0.53125q-0.171875 0.15625 -0.375 0.234375q-0.1875 0.078125 -0.40625 0.078125q-0.5625 0 -0.90625 -0.359375q-0.328125 -0.375 -0.328125 -1.25l0 -0.796875q0 -0.875 0.328125 -1.234375q0.34375 -0.375 0.890625 -0.375q0.421875 0 0.71875 0.25q0.296875 0.234375 0.453125 0.8125q0.5625 0.46875 1.328125 0.71875q0.78125 0.234375 1.78125 0.234375q1.65625 0 2.5625 -0.515625q0.4375 -0.265625 0.4375 -0.546875q0 -0.46875 -0.625 -0.765625q-0.609375 -0.3125 -2.5625 -0.515625q-2.890625 -0.3125 -3.859375 -1.171875q-0.984375 -0.859375 -0.984375 -2.109375q0 -1.296875 1.09375 -2.140625q1.484375 -1.171875 3.875 -1.171875q0.828125 0 1.59375 0.15625q0.765625 0.15625 1.46875 0.484375q0.21875 -0.171875 0.40625 -0.25q0.203125 -0.078125 0.375 -0.078125q0.484375 0 0.8125 0.375q0.328125 0.359375 0.328125 1.234375l0 0.578125q0 0.78125 -0.1875 1.0625q-0.375 0.546875 -1.015625 0.546875q-0.4375 0 -0.765625 -0.265625q-0.328125 -0.28125 -0.421875 -0.71875z" fill-rule="nonzero"/><path fill="#9fc5e8" d="m39.244095 517.7302l0 0c0 -15.809265 12.81596 -28.625244 28.625244 -28.625244l824.26135 0c7.591858 0 14.872803 3.0158691 20.241089 8.384155c5.368286 5.3682556 8.384155 12.6492 8.384155 20.241089l0 114.49756c0 15.809265 -12.815979 28.625244 -28.625244 28.625244l-824.26135 0l0 0c-15.809284 0 -28.625244 -12.815979 -28.625244 -28.625244z" fill-rule="evenodd"/><path stroke="#000000" stroke-width="1.0" stroke-linejoin="round" stroke-linecap="butt" d="m39.244095 517.7302l0 0c0 -15.809265 12.81596 -28.625244 28.625244 -28.625244l824.26135 0c7.591858 0 14.872803 3.0158691 20.241089 8.384155c5.368286 5.3682556 8.384155 12.6492 8.384155 20.241089l0 114.49756c0 15.809265 -12.815979 28.625244 -28.625244 28.625244l-824.26135 0l0 0c-15.809284 0 -28.625244 -12.815979 -28.625244 -28.625244z" fill-rule="evenodd"/><path fill="#000000" d="m278.8203 553.9184l6.71875 2.140625q-1.546875 5.625 -5.140625 8.359375q-3.59375 2.734375 -9.125 2.734375q-6.84375 0 -11.25 -4.671875q-4.40625 -4.6875 -4.40625 -12.796875q0 -8.578125 4.421875 -13.328125q4.4375 -4.75 11.65625 -4.75q6.296875 0 10.234375 3.734375q2.34375 2.203125 3.515625 6.328125l-6.859375 1.640625q-0.609375 -2.671875 -2.546875 -4.21875q-1.9375 -1.546875 -4.703125 -1.546875q-3.8125 0 -6.203125 2.75q-2.375 2.734375 -2.375 8.875q0 6.515625 2.34375 9.28125q2.34375 2.765625 6.09375 2.765625q2.765625 0 4.75 -1.75q2.0 -1.765625 2.875 -5.546875zm11.1015625 -0.15625q0 -3.28125 1.609375 -6.34375q1.625 -3.078125 4.59375 -4.6875q2.96875 -1.625 6.625 -1.625q5.640625 0 9.25 3.671875q3.609375 3.65625 3.609375 9.265625q0 5.640625 -3.640625 9.359375q-3.640625 3.71875 -9.171875 3.71875q-3.421875 0 -6.53125 -1.546875q-3.109375 -1.546875 -4.734375 -4.53125q-1.609375 -3.0 -1.609375 -7.28125zm6.75 0.34375q0 3.703125 1.75 5.671875q1.765625 1.96875 4.34375 1.96875q2.578125 0 4.328125 -1.96875q1.75 -1.96875 1.75 -5.71875q0 -3.65625 -1.75 -5.625q-1.75 -1.96875 -4.328125 -1.96875q-2.578125 0 -4.34375 1.96875q-1.75 1.96875 -1.75 5.671875zm23.601562 -12.4375l6.078125 0l0 3.390625q3.25 -3.953125 7.75 -3.953125q2.390625 0 4.140625 0.984375q1.765625 0.984375 2.890625 2.96875q1.640625 -1.984375 3.53125 -2.96875q1.90625 -0.984375 4.0625 -0.984375q2.75 0 4.640625 1.109375q1.90625 1.109375 2.84375 3.265625q0.671875 1.59375 0.671875 5.15625l0 15.921875l-6.578125 0l0 -14.234375q0 -3.703125 -0.6875 -4.78125q-0.90625 -1.40625 -2.8125 -1.40625q-1.375 0 -2.59375 0.84375q-1.21875 0.84375 -1.765625 2.484375q-0.53125 1.625 -0.53125 5.140625l0 11.953125l-6.59375 0l0 -13.640625q0 -3.640625 -0.359375 -4.6875q-0.34375 -1.0625 -1.078125 -1.578125q-0.734375 -0.515625 -2.0 -0.515625q-1.53125 0 -2.75 0.828125q-1.21875 0.8125 -1.75 2.359375q-0.515625 1.546875 -0.515625 5.140625l0 12.09375l-6.59375 0l0 -24.890625zm42.992188 0l6.140625 0l0 3.65625q1.1875 -1.875 3.21875 -3.046875q2.046875 -1.171875 4.53125 -1.171875q4.34375 0 7.359375 3.40625q3.03125 3.390625 3.03125 9.453125q0 6.234375 -3.046875 9.703125q-3.046875 3.453125 -7.390625 3.453125q-2.0625 0 -3.734375 -0.8125q-1.671875 -0.828125 -3.53125 -2.828125l0 12.546875l-6.578125 0l0 -34.359375zm6.515625 12.015625q0 4.203125 1.65625 6.203125q1.671875 2.0 4.0625 2.0q2.296875 0 3.8125 -1.828125q1.53125 -1.84375 1.53125 -6.046875q0 -3.90625 -1.578125 -5.796875q-1.5625 -1.90625 -3.890625 -1.90625q-2.40625 0 -4.0 1.859375q-1.59375 1.859375 -1.59375 5.515625zm21.460938 0.078125q0 -3.28125 1.609375 -6.34375q1.625 -3.078125 4.59375 -4.6875q2.96875 -1.625 6.625 -1.625q5.640625 0 9.25 3.671875q3.609375 3.65625 3.609375 9.265625q0 5.640625 -3.640625 9.359375q-3.640625 3.71875 -9.171875 3.71875q-3.421875 0 -6.53125 -1.546875q-3.109375 -1.546875 -4.734375 -4.53125q-1.609375 -3.0 -1.609375 -7.28125zm6.75 0.34375q0 3.703125 1.75 5.671875q1.765625 1.96875 4.34375 1.96875q2.578125 0 4.328125 -1.96875q1.75 -1.96875 1.75 -5.71875q0 -3.65625 -1.75 -5.625q-1.75 -1.96875 -4.328125 -1.96875q-2.578125 0 -4.34375 1.96875q-1.75 1.96875 -1.75 5.671875zm46.742188 12.453125l-6.59375 0l0 -12.703125q0 -4.03125 -0.421875 -5.21875q-0.421875 -1.1875 -1.375 -1.84375q-0.9375 -0.65625 -2.28125 -0.65625q-1.703125 0 -3.0625 0.9375q-1.359375 0.9375 -1.875 2.484375q-0.5 1.546875 -0.5 5.71875l0 11.28125l-6.578125 0l0 -24.890625l6.109375 0l0 3.65625q3.265625 -4.21875 8.203125 -4.21875q2.1875 0 3.984375 0.78125q1.8125 0.78125 2.734375 2.0q0.921875 1.21875 1.28125 2.765625q0.375 1.546875 0.375 4.4375l0 15.46875zm21.085938 -7.921875l6.5625 1.09375q-1.265625 3.609375 -4.0 5.5q-2.71875 1.890625 -6.828125 1.890625q-6.484375 0 -9.609375 -4.25q-2.453125 -3.390625 -2.453125 -8.578125q0 -6.1875 3.234375 -9.6875q3.234375 -3.5 8.171875 -3.5q5.5625 0 8.765625 3.671875q3.21875 3.65625 3.078125 11.234375l-16.5 0q0.0625 2.921875 1.578125 4.5625q1.53125 1.625 3.8125 1.625q1.546875 0 2.59375 -0.84375q1.0625 -0.84375 1.59375 -2.71875zm0.375 -6.65625q-0.0625 -2.859375 -1.46875 -4.34375q-1.40625 -1.5 -3.421875 -1.5q-2.15625 0 -3.5625 1.578125q-1.40625 1.5625 -1.390625 4.265625l9.84375 0zm34.554688 14.578125l-6.59375 0l0 -12.703125q0 -4.03125 -0.421875 -5.21875q-0.421875 -1.1875 -1.375 -1.84375q-0.9375 -0.65625 -2.28125 -0.65625q-1.703125 0 -3.0625 0.9375q-1.359375 0.9375 -1.875 2.484375q-0.5 1.546875 -0.5 5.71875l0 11.28125l-6.578125 0l0 -24.890625l6.109375 0l0 3.65625q3.265625 -4.21875 8.203125 -4.21875q2.1875 0 3.984375 0.78125q1.8125 0.78125 2.734375 2.0q0.921875 1.21875 1.28125 2.765625q0.375 1.546875 0.375 4.4375l0 15.46875zm18.085938 -24.890625l0 5.25l-4.5 0l0 10.03125q0 3.046875 0.125 3.546875q0.140625 0.5 0.59375 0.828125q0.453125 0.328125 1.109375 0.328125q0.921875 0 2.65625 -0.625l0.5625 5.109375q-2.296875 0.984375 -5.203125 0.984375q-1.78125 0 -3.21875 -0.59375q-1.421875 -0.609375 -2.09375 -1.546875q-0.671875 -0.953125 -0.921875 -2.578125q-0.21875 -1.140625 -0.21875 -4.640625l0 -10.84375l-3.015625 0l0 -5.25l3.015625 0l0 -4.953125l6.609375 -3.84375l0 8.796875l4.5 0zm17.742188 24.890625l0 -34.359375l6.9375 0l0 34.359375l-6.9375 0zm36.148376 0l-6.59375 0l0 -12.703125q0 -4.03125 -0.421875 -5.21875q-0.421875 -1.1875 -1.375 -1.84375q-0.9375 -0.65625 -2.28125 -0.65625q-1.703125 0 -3.062439 0.9375q-1.359375 0.9375 -1.875 2.484375q-0.5 1.546875 -0.5 5.71875l0 11.28125l-6.578125 0l0 -24.890625l6.109375 0l0 3.65625q3.265625 -4.21875 8.203064 -4.21875q2.1875 0 3.984375 0.78125q1.8125 0.78125 2.734375 2.0q0.921875 1.21875 1.28125 2.765625q0.375 1.546875 0.375 4.4375l0 15.46875zm6.5390625 -28.265625l0 -6.09375l6.578125 0l0 6.09375l-6.578125 0zm6.578125 3.375l0 24.109375q0 4.765625 -0.625 6.71875q-0.609375 1.96875 -2.390625 3.0625q-1.765625 1.109375 -4.5 1.109375q-0.984375 0 -2.125 -0.1875q-1.140625 -0.171875 -2.453125 -0.515625l1.140625 -5.625q0.46875 0.09375 0.890625 0.140625q0.40625 0.0625 0.765625 0.0625q1.0 0 1.640625 -0.4375q0.65625 -0.421875 0.859375 -1.03125q0.21875 -0.609375 0.21875 -3.671875l0 -23.734375l6.578125 0zm21.304688 16.96875l6.5625 1.09375q-1.265625 3.609375 -4.0 5.5q-2.71875 1.890625 -6.828125 1.890625q-6.484375 0 -9.609375 -4.25q-2.453125 -3.390625 -2.453125 -8.578125q0 -6.1875 3.234375 -9.6875q3.234375 -3.5 8.171875 -3.5q5.5625 0 8.765625 3.671875q3.21875 3.65625 3.078125 11.234375l-16.5 0q0.0625 2.921875 1.578125 4.5625q1.53125 1.625 3.8125 1.625q1.546875 0 2.59375 -0.84375q1.0625 -0.84375 1.59375 -2.71875zm0.375 -6.65625q-0.0625 -2.859375 -1.46875 -4.34375q-1.40625 -1.5 -3.421875 -1.5q-2.15625 0 -3.5625 1.578125q-1.40625 1.5625 -1.390625 4.265625l9.84375 0zm33.617188 -2.953125l-6.5 1.171875q-0.328125 -1.953125 -1.484375 -2.9375q-1.15625 -0.984375 -3.015625 -0.984375q-2.453125 0 -3.921875 1.703125q-1.46875 1.703125 -1.46875 5.6875q0 4.421875 1.484375 6.25q1.5 1.828125 4.0 1.828125q1.875 0 3.0625 -1.0625q1.203125 -1.0625 1.703125 -3.671875l6.46875 1.109375q-1.015625 4.453125 -3.875 6.734375q-2.859375 2.265625 -7.65625 2.265625q-5.46875 0 -8.71875 -3.4375q-3.234375 -3.453125 -3.234375 -9.546875q0 -6.171875 3.25 -9.59375q3.265625 -3.4375 8.8125 -3.4375q4.546875 0 7.234375 1.953125q2.6875 1.953125 3.859375 5.96875zm16.398438 -7.359375l0 5.25l-4.5 0l0 10.03125q0 3.046875 0.125 3.546875q0.140625 0.5 0.59375 0.828125q0.453125 0.328125 1.109375 0.328125q0.921875 0 2.65625 -0.625l0.5625 5.109375q-2.296875 0.984375 -5.203125 0.984375q-1.78125 0 -3.21875 -0.59375q-1.421875 -0.609375 -2.09375 -1.546875q-0.671875 -0.953125 -0.921875 -2.578125q-0.21875 -1.140625 -0.21875 -4.640625l0 -10.84375l-3.015625 0l0 -5.25l3.015625 0l0 -4.953125l6.609375 -3.84375l0 8.796875l4.5 0zm3.046875 12.09375q0 -3.28125 1.609375 -6.34375q1.625 -3.078125 4.59375 -4.6875q2.96875 -1.625 6.625 -1.625q5.640625 0 9.25 3.671875q3.609375 3.65625 3.609375 9.265625q0 5.640625 -3.640625 9.359375q-3.640625 3.71875 -9.171875 3.71875q-3.421875 0 -6.53125 -1.546875q-3.109375 -1.546875 -4.734375 -4.53125q-1.609375 -3.0 -1.609375 -7.28125zm6.75 0.34375q0 3.703125 1.75 5.671875q1.765625 1.96875 4.34375 1.96875q2.578125 0 4.328125 -1.96875q1.75 -1.96875 1.75 -5.71875q0 -3.65625 -1.75 -5.625q-1.75 -1.96875 -4.328125 -1.96875q-2.578125 0 -4.34375 1.96875q-1.75 1.96875 -1.75 5.671875zm30.398438 12.453125l-6.578125 0l0 -24.890625l6.109375 0l0 3.53125q1.578125 -2.5 2.828125 -3.296875q1.25 -0.796875 2.84375 -0.796875q2.25 0 4.34375 1.234375l-2.046875 5.75q-1.65625 -1.078125 -3.09375 -1.078125q-1.375 0 -2.34375 0.765625q-0.953125 0.75 -1.515625 2.75q-0.546875 1.984375 -0.546875 8.34375l0 7.6875z" fill-rule="nonzero"/><path fill="#000000" d="m275.9004 617.5815l0 3.53125l6.125 0l0 -1.296875q0 -0.875 0.328125 -1.234375q0.34375 -0.375 0.890625 -0.375q0.515625 0 0.84375 0.375q0.34375 0.359375 0.34375 1.234375l0 3.703125l-11.3125 0q-0.859375 0 -1.234375 -0.328125q-0.359375 -0.34375 -0.359375 -0.875q0 -0.53125 0.375 -0.859375q0.375 -0.34375 1.21875 -0.34375l0.375 0l0 -9.390625l-0.375 0q-0.859375 0 -1.234375 -0.328125q-0.359375 -0.34375 -0.359375 -0.890625q0 -0.53125 0.359375 -0.859375q0.375 -0.34375 1.234375 -0.34375l10.78125 0.015625l0 3.65625q0 0.859375 -0.328125 1.234375q-0.328125 0.359375 -0.859375 0.359375q-0.546875 0 -0.875 -0.359375q-0.328125 -0.375 -0.328125 -1.234375l0 -1.25l-5.609375 0l0 3.46875l2.109375 0q0 -0.9375 0.171875 -1.21875q0.375 -0.5625 1.03125 -0.5625q0.53125 0 0.859375 0.375q0.34375 0.359375 0.34375 1.21875l0 2.765625q0 0.796875 -0.1875 1.0625q-0.375 0.546875 -1.015625 0.546875q-0.65625 0 -1.03125 -0.578125q-0.171875 -0.265625 -0.171875 -1.21875l-2.109375 0zm18.074219 -9.265625l0 12.796875l2.875 0q0.875 0 1.234375 0.34375q0.375 0.328125 0.375 0.859375q0 0.53125 -0.375 0.875q-0.359375 0.328125 -1.234375 0.328125l-8.15625 0q-0.875 0 -1.25 -0.328125q-0.359375 -0.34375 -0.359375 -0.875q0 -0.53125 0.359375 -0.859375q0.375 -0.34375 1.25 -0.34375l2.875 0l0 -10.390625l-1.9375 0q-0.84375 0 -1.21875 -0.328125q-0.375 -0.34375 -0.375 -0.875q0 -0.53125 0.359375 -0.859375q0.375 -0.34375 1.234375 -0.34375l4.34375 0zm19.230469 11.09375l-9.859375 0q0.375 0.9375 1.328125 1.515625q0.953125 0.578125 2.59375 0.578125q1.328125 0 3.546875 -0.578125q0.90625 -0.234375 1.265625 -0.234375q0.484375 0 0.8125 0.34375q0.328125 0.34375 0.328125 0.859375q0 0.46875 -0.359375 0.796875q-0.46875 0.421875 -2.28125 0.828125q-1.8125 0.390625 -3.5 0.390625q-2.875 0 -4.609375 -1.625q-1.71875 -1.640625 -1.71875 -4.015625q0 -2.53125 1.859375 -4.109375q1.875 -1.59375 4.3125 -1.59375q1.46875 0 2.6875 0.515625q1.21875 0.515625 1.828125 1.109375q0.84375 0.859375 1.390625 2.140625q0.375 0.890625 0.375 2.0625l0 1.015625zm-2.65625 -2.390625q-0.5625 -1.03125 -1.453125 -1.546875q-0.890625 -0.515625 -2.109375 -0.515625q-1.21875 0 -2.109375 0.515625q-0.890625 0.515625 -1.453125 1.546875l7.125 0zm7.3242188 -4.140625l0 0.671875q0.578125 -0.5625 1.046875 -0.78125q0.484375 -0.21875 1.109375 -0.21875q0.515625 0 1.03125 0.265625q0.515625 0.25 1.015625 0.765625q0.625 -0.515625 1.25 -0.765625q0.640625 -0.25 1.3125 -0.25q1.34375 0 2.171875 0.703125q1.09375 0.9375 1.09375 2.46875l0 5.375q0.75 0 1.109375 0.34375q0.375 0.34375 0.375 0.859375q0 0.53125 -0.375 0.875q-0.359375 0.328125 -1.21875 0.328125l-2.28125 0l0 -7.578125q0 -0.5625 -0.203125 -0.765625q-0.203125 -0.21875 -0.609375 -0.21875q-0.40625 0 -0.734375 0.21875q-0.4375 0.296875 -1.0625 1.09375l0 4.84375q0.75 0 1.109375 0.34375q0.375 0.34375 0.375 0.859375q0 0.53125 -0.375 0.875q-0.359375 0.328125 -1.21875 0.328125l-2.296875 0l0 -7.578125q0 -0.546875 -0.203125 -0.765625q-0.203125 -0.21875 -0.609375 -0.21875q-0.421875 0 -0.84375 0.265625q-0.40625 0.265625 -0.96875 1.046875l0 4.84375q0.75 0 1.109375 0.34375q0.375 0.34375 0.375 0.859375q0 0.53125 -0.375 0.875q-0.359375 0.328125 -1.234375 0.328125l-2.171875 0q-0.859375 0 -1.234375 -0.328125q-0.375 -0.34375 -0.375 -0.875q0 -0.53125 0.375 -0.859375q0.359375 -0.34375 1.125 -0.34375l0 -5.828125q-0.765625 0 -1.125 -0.34375q-0.375 -0.34375 -0.375 -0.875q0 -0.515625 0.375 -0.84375q0.375 -0.34375 1.234375 -0.34375l2.296875 0zm24.136719 6.53125l-9.859375 0q0.375 0.9375 1.328125 1.515625q0.953125 0.578125 2.59375 0.578125q1.328125 0 3.546875 -0.578125q0.90625 -0.234375 1.265625 -0.234375q0.484375 0 0.8125 0.34375q0.328125 0.34375 0.328125 0.859375q0 0.46875 -0.359375 0.796875q-0.46875 0.421875 -2.28125 0.828125q-1.8125 0.390625 -3.5 0.390625q-2.875 0 -4.609375 -1.625q-1.71875 -1.640625 -1.71875 -4.015625q0 -2.53125 1.859375 -4.109375q1.875 -1.59375 4.3125 -1.59375q1.46875 0 2.6875 0.515625q1.21875 0.515625 1.828125 1.109375q0.84375 0.859375 1.390625 2.140625q0.375 0.890625 0.375 2.0625l0 1.015625zm-2.65625 -2.390625q-0.5625 -1.03125 -1.453125 -1.546875q-0.890625 -0.515625 -2.109375 -0.515625q-1.21875 0 -2.109375 0.515625q-0.890625 0.515625 -1.453125 1.546875l7.125 0zm8.589844 -4.140625l0 0.8125q0.65625 -0.5625 1.453125 -0.84375q0.796875 -0.28125 1.71875 -0.28125q2.125 0 3.375 1.3125q0.984375 1.0625 0.984375 2.765625l0 4.46875q0.765625 0 1.125 0.34375q0.359375 0.328125 0.359375 0.859375q0 0.53125 -0.375 0.875q-0.359375 0.328125 -1.234375 0.328125l-2.15625 0q-0.875 0 -1.25 -0.328125q-0.359375 -0.34375 -0.359375 -0.875q0 -0.53125 0.359375 -0.859375q0.359375 -0.34375 1.125 -0.34375l0 -4.53125q0 -0.78125 -0.421875 -1.15625q-0.546875 -0.46875 -1.65625 -0.46875q-0.828125 0 -1.453125 0.328125q-0.625 0.328125 -1.59375 1.359375l0 4.46875q0.9375 0 1.203125 0.171875q0.578125 0.359375 0.578125 1.03125q0 0.53125 -0.375 0.875q-0.375 0.328125 -1.234375 0.328125l-2.734375 0q-0.859375 0 -1.234375 -0.328125q-0.375 -0.34375 -0.375 -0.875q0 -0.65625 0.5625 -1.03125q0.28125 -0.171875 1.21875 -0.171875l0 -5.828125q-0.765625 0 -1.140625 -0.34375q-0.359375 -0.34375 -0.359375 -0.875q0 -0.515625 0.375 -0.84375q0.375 -0.34375 1.234375 -0.34375l2.28125 0zm16.246094 2.40625l0 4.8125q0 0.765625 0.3125 1.015625q0.5 0.390625 1.765625 0.390625q1.84375 0 3.390625 -0.78125q0.609375 -0.3125 0.9375 -0.3125q0.46875 0 0.8125 0.359375q0.359375 0.34375 0.359375 0.84375q0 0.46875 -0.375 0.8125q-0.578125 0.546875 -2.28125 1.015625q-1.6875 0.46875 -2.84375 0.46875q-2.234375 0 -3.359375 -0.96875q-1.125 -0.96875 -1.125 -2.375l0 -5.28125l-0.859375 0q-0.875 0 -1.25 -0.328125q-0.359375 -0.34375 -0.359375 -0.890625q0 -0.515625 0.359375 -0.84375q0.375 -0.34375 1.25 -0.34375l0.859375 0l0 -2.171875q0 -0.859375 0.328125 -1.234375q0.34375 -0.375 0.890625 -0.375q0.515625 0 0.84375 0.375q0.34375 0.375 0.34375 1.234375l0 2.171875l4.4375 0q0.875 0 1.234375 0.34375q0.375 0.328125 0.375 0.859375q0 0.53125 -0.375 0.875q-0.359375 0.328125 -1.234375 0.328125l-4.4375 0zm12.511719 2.8125l0 3.015625l0.875 0q0.859375 0 1.234375 0.34375q0.375 0.328125 0.375 0.859375q0 0.53125 -0.375 0.875q-0.375 0.328125 -1.234375 0.328125l-3.640625 0q-0.875 0 -1.25 -0.328125q-0.359375 -0.34375 -0.359375 -0.875q0 -0.53125 0.375 -0.859375q0.375 -0.34375 1.234375 -0.34375l0.375 0l0 -9.390625l-0.375 0q-0.875 0 -1.25 -0.328125q-0.359375 -0.34375 -0.359375 -0.890625q0 -0.53125 0.359375 -0.859375q0.375 -0.34375 1.25 -0.34375l5.4375 0.015625q2.53125 0 3.9375 1.265625q1.40625 1.25 1.40625 3.0625q0 1.125 -0.65625 2.046875q-0.65625 0.90625 -1.984375 1.625q0.765625 0.671875 1.625 1.71875q0.546875 0.65625 1.453125 2.078125q0.921875 0 1.203125 0.1875q0.53125 0.359375 0.53125 1.015625q0 0.53125 -0.359375 0.875q-0.359375 0.328125 -1.234375 0.328125l-1.375 0q-2.90625 -4.515625 -4.828125 -5.421875l-2.390625 0zm0 -2.40625l1.875 0q1.046875 0 1.875 -0.3125q1.09375 -0.421875 1.46875 -0.890625q0.390625 -0.46875 0.390625 -0.9375q0 -0.671875 -0.734375 -1.25q-0.71875 -0.578125 -2.109375 -0.578125l-2.765625 0l0 3.96875zm22.917969 3.71875l-9.859375 0q0.375 0.9375 1.328125 1.515625q0.953125 0.578125 2.59375 0.578125q1.328125 0 3.546875 -0.578125q0.90625 -0.234375 1.265625 -0.234375q0.484375 0 0.8125 0.34375q0.328125 0.34375 0.328125 0.859375q0 0.46875 -0.359375 0.796875q-0.46875 0.421875 -2.28125 0.828125q-1.8125 0.390625 -3.5 0.390625q-2.875 0 -4.609375 -1.625q-1.71875 -1.640625 -1.71875 -4.015625q0 -2.53125 1.859375 -4.109375q1.875 -1.59375 4.3125 -1.59375q1.46875 0 2.6875 0.515625q1.21875 0.515625 1.828125 1.109375q0.84375 0.859375 1.390625 2.140625q0.375 0.890625 0.375 2.0625l0 1.015625zm-2.65625 -2.390625q-0.5625 -1.03125 -1.453125 -1.546875q-0.890625 -0.515625 -2.109375 -0.515625q-1.21875 0 -2.109375 0.515625q-0.890625 0.515625 -1.453125 1.546875l7.125 0zm11.011719 -1.734375l0 5.828125l3.421875 0q0.859375 0 1.234375 0.34375q0.375 0.328125 0.375 0.859375q0 0.53125 -0.375 0.875q-0.375 0.328125 -1.234375 0.328125l-7.25 0q-0.875 0 -1.25 -0.328125q-0.359375 -0.34375 -0.359375 -0.875q0 -0.53125 0.359375 -0.859375q0.375 -0.34375 1.25 -0.34375l1.421875 0l0 -5.828125l-1.140625 0q-0.875 0 -1.25 -0.328125q-0.359375 -0.34375 -0.359375 -0.890625q0 -0.515625 0.359375 -0.84375q0.375 -0.34375 1.25 -0.34375l1.140625 0l0 -0.921875q0 -1.5625 1.171875 -2.59375q1.1875 -1.046875 3.421875 -1.046875q1.0 0 2.296875 0.1875q1.3125 0.171875 1.671875 0.5q0.375 0.328125 0.375 0.84375q0 0.5625 -0.328125 0.90625q-0.328125 0.34375 -0.796875 0.34375q-0.234375 0 -0.671875 -0.078125q-1.484375 -0.296875 -2.640625 -0.296875q-1.1875 0 -1.640625 0.359375q-0.453125 0.359375 -0.453125 0.875l0 0.921875l3.703125 0q0.859375 0 1.234375 0.34375q0.375 0.328125 0.375 0.859375q0 0.53125 -0.375 0.875q-0.375 0.328125 -1.234375 0.328125l-3.703125 0zm13.855469 5.0l3.203125 0l-3.453125 6.515625q-0.3125 0.578125 -0.765625 0.578125q-0.296875 0 -0.515625 -0.203125q-0.21875 -0.203125 -0.21875 -0.4375q0 -0.1875 0.078125 -0.484375l1.671875 -5.96875zm33.132812 -10.359375q0.21875 -0.3125 0.484375 -0.453125q0.265625 -0.15625 0.578125 -0.15625q0.515625 0 0.84375 0.359375q0.34375 0.359375 0.34375 1.234375l0 2.03125q0 0.875 -0.34375 1.25q-0.328125 0.359375 -0.84375 0.359375q-0.484375 0 -0.78125 -0.265625q-0.296875 -0.265625 -0.4375 -1.015625q-0.078125 -0.484375 -0.328125 -0.75q-0.46875 -0.53125 -1.34375 -0.84375q-0.859375 -0.328125 -1.71875 -0.328125q-1.078125 0 -1.984375 0.46875q-0.90625 0.46875 -1.59375 1.53125q-0.6875 1.046875 -0.6875 2.5l0 1.5625q0 1.734375 1.25 2.90625q1.265625 1.15625 3.5 1.15625q1.34375 0 2.265625 -0.375q0.546875 -0.203125 1.15625 -0.828125q0.375 -0.375 0.578125 -0.484375q0.21875 -0.109375 0.484375 -0.109375q0.484375 0 0.84375 0.359375q0.359375 0.359375 0.359375 0.859375q0 0.484375 -0.484375 1.046875q-0.71875 0.828125 -1.84375 1.296875q-1.515625 0.640625 -3.34375 0.640625q-2.125 0 -3.84375 -0.890625q-1.375 -0.703125 -2.359375 -2.21875q-0.96875 -1.515625 -0.96875 -3.3125l0 -1.625q0 -1.875 0.875 -3.5q0.875 -1.625 2.421875 -2.5q1.546875 -0.875 3.28125 -0.875q1.046875 0 1.953125 0.234375q0.90625 0.234375 1.6875 0.734375zm8.152344 -1.609375l0 5.125q0.75 -0.453125 1.515625 -0.65625q0.78125 -0.21875 1.5625 -0.21875q1.234375 0 2.203125 0.421875q0.984375 0.421875 1.625 1.328125q0.640625 0.90625 0.640625 2.28125l0 4.515625q0.90625 0 1.1875 0.171875q0.5625 0.375 0.5625 1.03125q0 0.53125 -0.359375 0.875q-0.359375 0.328125 -1.234375 0.328125l-2.734375 0q-0.859375 0 -1.234375 -0.328125q-0.359375 -0.34375 -0.359375 -0.875q0 -0.65625 0.5625 -1.03125q0.28125 -0.1875 1.1875 -0.171875l0 -4.34375q0 -0.921875 -0.421875 -1.296875q-0.546875 -0.515625 -1.625 -0.515625q-0.796875 0 -1.421875 0.3125q-0.609375 0.3125 -1.65625 1.34375l0 4.5q0.9375 0 1.203125 0.171875q0.578125 0.375 0.578125 1.03125q0 0.53125 -0.375 0.875q-0.375 0.328125 -1.234375 0.328125l-2.734375 0q-0.859375 0 -1.234375 -0.328125q-0.375 -0.34375 -0.375 -0.875q0 -0.65625 0.578125 -1.03125q0.28125 -0.1875 1.203125 -0.171875l0 -10.390625l-0.421875 0q-0.859375 0 -1.234375 -0.328125q-0.359375 -0.34375 -0.359375 -0.875q0 -0.53125 0.359375 -0.859375q0.375 -0.34375 1.234375 -0.34375l2.8125 0zm19.042969 15.203125l0 -0.5625q-0.890625 0.484375 -1.984375 0.71875q-1.09375 0.25 -1.984375 0.25q-1.9375 0 -3.140625 -1.03125q-1.203125 -1.03125 -1.203125 -2.265625q0 -1.515625 1.53125 -2.8125q1.546875 -1.296875 4.265625 -1.296875q1.09375 0 2.515625 0.234375l0 -0.578125q0 -0.53125 -0.46875 -0.875q-0.453125 -0.34375 -1.75 -0.34375q-1.0625 0 -2.765625 0.421875q-0.640625 0.15625 -0.984375 0.15625q-0.484375 0 -0.828125 -0.34375q-0.328125 -0.34375 -0.328125 -0.890625q0 -0.296875 0.109375 -0.515625q0.125 -0.234375 0.328125 -0.359375q0.21875 -0.140625 0.890625 -0.328125q0.890625 -0.25 1.8125 -0.390625q0.9375 -0.140625 1.6875 -0.140625q2.234375 0 3.46875 0.96875q1.234375 0.953125 1.234375 2.640625l0 4.9375l0.40625 0q0.875 0 1.234375 0.34375q0.375 0.328125 0.375 0.859375q0 0.53125 -0.375 0.875q-0.359375 0.328125 -1.234375 0.328125l-2.8125 0zm0 -4.296875q-1.4375 -0.28125 -2.65625 -0.28125q-1.46875 0 -2.515625 0.703125q-0.65625 0.46875 -0.65625 0.9375q0 0.328125 0.3125 0.546875q0.59375 0.390625 1.609375 0.390625q0.859375 0 1.953125 -0.34375q1.109375 -0.34375 1.953125 -0.921875l0 -1.03125zm9.808594 -6.34375l0 0.8125q0.65625 -0.5625 1.453125 -0.84375q0.796875 -0.28125 1.71875 -0.28125q2.125 0 3.375 1.3125q0.984375 1.0625 0.984375 2.765625l0 4.46875q0.765625 0 1.125 0.34375q0.359375 0.328125 0.359375 0.859375q0 0.53125 -0.375 0.875q-0.359375 0.328125 -1.234375 0.328125l-2.15625 0q-0.875 0 -1.25 -0.328125q-0.359375 -0.34375 -0.359375 -0.875q0 -0.53125 0.359375 -0.859375q0.359375 -0.34375 1.125 -0.34375l0 -4.53125q0 -0.78125 -0.421875 -1.15625q-0.546875 -0.46875 -1.65625 -0.46875q-0.828125 0 -1.453125 0.328125q-0.625 0.328125 -1.59375 1.359375l0 4.46875q0.9375 0 1.203125 0.171875q0.578125 0.359375 0.578125 1.03125q0 0.53125 -0.375 0.875q-0.375 0.328125 -1.234375 0.328125l-2.734375 0q-0.859375 0 -1.234375 -0.328125q-0.375 -0.34375 -0.375 -0.875q0 -0.65625 0.5625 -1.03125q0.28125 -0.171875 1.21875 -0.171875l0 -5.828125q-0.765625 0 -1.140625 -0.34375q-0.359375 -0.34375 -0.359375 -0.875q0 -0.515625 0.375 -0.84375q0.375 -0.34375 1.234375 -0.34375l2.28125 0zm19.480469 0.71875l0 -0.71875l2.8125 0q0.875 0 1.234375 0.34375q0.375 0.328125 0.375 0.859375q0 0.53125 -0.375 0.875q-0.359375 0.328125 -1.234375 0.328125l-0.40625 0l0 8.734375q0 1.265625 -0.53125 2.203125q-0.53125 0.953125 -1.640625 1.625q-1.09375 0.6875 -2.484375 0.6875l-2.71875 0q-0.859375 0 -1.234375 -0.34375q-0.375 -0.328125 -0.375 -0.84375q0 -0.546875 0.375 -0.890625q0.375 -0.328125 1.234375 -0.328125l2.65625 0q1.09375 0 1.703125 -0.59375q0.609375 -0.59375 0.609375 -1.515625l0 -1.171875q-0.796875 0.515625 -1.625 0.765625q-0.828125 0.265625 -1.6875 0.265625q-2.453125 0 -4.109375 -1.625q-1.640625 -1.640625 -1.640625 -4.046875q0 -2.40625 1.640625 -4.046875q1.65625 -1.640625 4.109375 -1.640625q0.90625 0 1.734375 0.265625q0.828125 0.265625 1.578125 0.8125zm-0.015625 4.59375q0 -1.3125 -0.984375 -2.28125q-0.96875 -0.984375 -2.34375 -0.984375q-1.359375 0 -2.34375 0.984375q-0.984375 0.96875 -0.984375 2.28125q0 1.34375 0.984375 2.3125q0.984375 0.96875 2.34375 0.96875q1.375 0 2.34375 -0.96875q0.984375 -0.96875 0.984375 -2.3125zm17.808594 1.21875l-9.859375 0q0.375 0.9375 1.328125 1.515625q0.953125 0.578125 2.59375 0.578125q1.328125 0 3.546875 -0.578125q0.90625 -0.234375 1.265625 -0.234375q0.484375 0 0.8125 0.34375q0.328125 0.34375 0.328125 0.859375q0 0.46875 -0.359375 0.796875q-0.46875 0.421875 -2.28125 0.828125q-1.8125 0.390625 -3.5 0.390625q-2.875 0 -4.609375 -1.625q-1.71875 -1.640625 -1.71875 -4.015625q0 -2.53125 1.859375 -4.109375q1.875 -1.59375 4.3125 -1.59375q1.46875 0 2.6875 0.515625q1.21875 0.515625 1.828125 1.109375q0.84375 0.859375 1.390625 2.140625q0.375 0.890625 0.375 2.0625l0 1.015625zm-2.65625 -2.390625q-0.5625 -1.03125 -1.453125 -1.546875q-0.890625 -0.515625 -2.109375 -0.515625q-1.21875 0 -2.109375 0.515625q-0.890625 0.515625 -1.453125 1.546875l7.125 0zm5.6523438 4.09375l0 -9.390625q-0.765625 -0.015625 -1.125 -0.34375q-0.359375 -0.34375 -0.359375 -0.875q0 -0.53125 0.359375 -0.859375q0.375 -0.34375 1.25 -0.34375l5.015625 0.015625q1.171875 0 2.296875 0.4375q1.125 0.421875 1.796875 1.09375q0.515625 0.5 1.0625 1.390625q0.5625 0.875 0.84375 1.75q0.28125 0.859375 0.28125 2.109375l0 1.15625q0 1.515625 -0.515625 2.703125q-0.515625 1.171875 -1.359375 1.921875q-0.828125 0.734375 -1.5625 1.09375q-1.171875 0.546875 -3.03125 0.546875l-4.828125 0q-0.875 0 -1.25 -0.328125q-0.359375 -0.34375 -0.359375 -0.875q0 -0.53125 0.359375 -0.875q0.375 -0.34375 1.125 -0.328125zm2.40625 0l2.546875 0q1.4375 0 2.15625 -0.40625q0.953125 -0.546875 1.4375 -1.375q0.484375 -0.828125 0.484375 -2.15625l0 -1.140625q0 -1.125 -0.4375 -1.984375q-0.6875 -1.34375 -1.53125 -1.828125q-0.84375 -0.5 -2.125 -0.5l-2.53125 0l0 9.390625zm23.402344 -1.703125l-9.859375 0q0.375 0.9375 1.328125 1.515625q0.953125 0.578125 2.59375 0.578125q1.328125 0 3.546875 -0.578125q0.90625 -0.234375 1.265625 -0.234375q0.484375 0 0.8125 0.34375q0.328125 0.34375 0.328125 0.859375q0 0.46875 -0.359375 0.796875q-0.46875 0.421875 -2.28125 0.828125q-1.8125 0.390625 -3.5 0.390625q-2.875 0 -4.609375 -1.625q-1.71875 -1.640625 -1.71875 -4.015625q0 -2.53125 1.859375 -4.109375q1.875 -1.59375 4.3125 -1.59375q1.46875 0 2.6875 0.515625q1.21875 0.515625 1.828125 1.109375q0.84375 0.859375 1.390625 2.140625q0.375 0.890625 0.375 2.0625l0 1.015625zm-2.65625 -2.390625q-0.5625 -1.03125 -1.453125 -1.546875q-0.890625 -0.515625 -2.109375 -0.515625q-1.21875 0 -2.109375 0.515625q-0.890625 0.515625 -1.453125 1.546875l7.125 0zm10.433533 -1.734375l0 4.8125q0 0.765625 0.3125 1.015625q0.5 0.390625 1.765625 0.390625q1.84375 0 3.390625 -0.78125q0.609375 -0.3125 0.9375 -0.3125q0.46875 0 0.8125 0.359375q0.359375 0.34375 0.359375 0.84375q0 0.46875 -0.375 0.8125q-0.578125 0.546875 -2.28125 1.015625q-1.6875 0.46875 -2.84375 0.46875q-2.234375 0 -3.359375 -0.96875q-1.125 -0.96875 -1.125 -2.375l0 -5.28125l-0.859375 0q-0.875 0 -1.25 -0.328125q-0.359375 -0.34375 -0.359375 -0.890625q0 -0.515625 0.359375 -0.84375q0.375 -0.34375 1.25 -0.34375l0.859375 0l0 -2.171875q0 -0.859375 0.328125 -1.234375q0.34375 -0.375 0.890625 -0.375q0.515625 0 0.84375 0.375q0.34375 0.375 0.34375 1.234375l0 2.171875l4.4375 0q0.875 0 1.234375 0.34375q0.375 0.328125 0.375 0.859375q0 0.53125 -0.375 0.875q-0.359375 0.328125 -1.234375 0.328125l-4.4375 0zm21.027344 4.125l-9.859375 0q0.375 0.9375 1.328125 1.515625q0.953125 0.578125 2.59375 0.578125q1.328125 0 3.546875 -0.578125q0.90625 -0.234375 1.265625 -0.234375q0.484375 0 0.8125 0.34375q0.328125 0.34375 0.328125 0.859375q0 0.46875 -0.359375 0.796875q-0.46875 0.421875 -2.28125 0.828125q-1.8125 0.390625 -3.5 0.390625q-2.875 0 -4.609375 -1.625q-1.71875 -1.640625 -1.71875 -4.015625q0 -2.53125 1.859375 -4.109375q1.875 -1.59375 4.3125 -1.59375q1.46875 0 2.6875 0.515625q1.21875 0.515625 1.828125 1.109375q0.84375 0.859375 1.390625 2.140625q0.375 0.890625 0.375 2.0625l0 1.015625zm-2.65625 -2.390625q-0.5625 -1.03125 -1.453125 -1.546875q-0.890625 -0.515625 -2.109375 -0.515625q-1.21875 0 -2.109375 0.515625q-0.890625 0.515625 -1.453125 1.546875l7.125 0zm14.777344 -3.703125q0.421875 -0.421875 0.890625 -0.421875q0.515625 0 0.84375 0.375q0.328125 0.375 0.328125 1.21875l0 1.546875q0 0.875 -0.328125 1.234375q-0.328125 0.359375 -0.875 0.359375q-0.484375 0 -0.828125 -0.28125q-0.25 -0.203125 -0.390625 -0.84375q-0.140625 -0.65625 -0.671875 -0.984375q-0.953125 -0.5625 -2.4375 -0.5625q-1.6875 0 -2.71875 1.0q-1.03125 1.0 -1.03125 2.515625q0 1.40625 0.984375 2.234375q0.984375 0.8125 3.28125 0.8125q1.5 0 2.4375 -0.3125q0.5625 -0.1875 1.0625 -0.640625q0.515625 -0.453125 0.921875 -0.453125q0.5 0 0.84375 0.375q0.359375 0.359375 0.359375 0.84375q0 0.796875 -1.078125 1.515625q-1.625 1.078125 -4.734375 1.078125q-2.8125 0 -4.359375 -1.171875q-2.109375 -1.5625 -2.109375 -4.265625q0 -2.5625 1.703125 -4.234375q1.71875 -1.6875 4.46875 -1.6875q1.0 0 1.84375 0.1875q0.859375 0.1875 1.59375 0.5625zm10.058594 1.96875l0 4.8125q0 0.765625 0.3125 1.015625q0.5 0.390625 1.765625 0.390625q1.84375 0 3.390625 -0.78125q0.609375 -0.3125 0.9375 -0.3125q0.46875 0 0.8125 0.359375q0.359375 0.34375 0.359375 0.84375q0 0.46875 -0.375 0.8125q-0.578125 0.546875 -2.28125 1.015625q-1.6875 0.46875 -2.84375 0.46875q-2.234375 0 -3.359375 -0.96875q-1.125 -0.96875 -1.125 -2.375l0 -5.28125l-0.859375 0q-0.875 0 -1.25 -0.328125q-0.359375 -0.34375 -0.359375 -0.890625q0 -0.515625 0.359375 -0.84375q0.375 -0.34375 1.25 -0.34375l0.859375 0l0 -2.171875q0 -0.859375 0.328125 -1.234375q0.34375 -0.375 0.890625 -0.375q0.515625 0 0.84375 0.375q0.34375 0.375 0.34375 1.234375l0 2.171875l4.4375 0q0.875 0 1.234375 0.34375q0.375 0.328125 0.375 0.859375q0 0.53125 -0.375 0.875q-0.359375 0.328125 -1.234375 0.328125l-4.4375 0zm21.230469 3.109375q0 1.390625 -0.765625 2.6875q-0.765625 1.28125 -2.28125 2.0625q-1.515625 0.765625 -3.171875 0.765625q-1.640625 0 -3.140625 -0.75q-1.5 -0.765625 -2.28125 -2.0625q-0.78125 -1.3125 -0.78125 -2.71875q0 -1.453125 0.796875 -2.828125q0.796875 -1.390625 2.28125 -2.1875q1.5 -0.796875 3.125 -0.796875q1.640625 0 3.15625 0.8125q1.515625 0.8125 2.28125 2.1875q0.78125 1.375 0.78125 2.828125zm-2.390625 0.015625q0 -1.15625 -0.84375 -2.140625q-1.125 -1.3125 -2.984375 -1.3125q-1.625 0 -2.71875 1.046875q-1.09375 1.046875 -1.09375 2.421875q0 1.125 1.09375 2.109375q1.109375 0.96875 2.71875 0.96875q1.625 0 2.71875 -0.96875q1.109375 -0.984375 1.109375 -2.125zm10.058594 -5.53125l0 1.5q1.515625 -1.09375 2.390625 -1.453125q0.875 -0.359375 1.625 -0.359375q1.171875 0 2.28125 0.859375q0.75 0.59375 0.75 1.203125q0 0.515625 -0.359375 0.875q-0.359375 0.34375 -0.859375 0.34375q-0.453125 0 -0.953125 -0.4375q-0.484375 -0.453125 -0.859375 -0.453125q-0.515625 0 -1.515625 0.640625q-1.0 0.625 -2.5 1.890625l0 3.625l3.421875 0q0.875 0 1.234375 0.34375q0.375 0.328125 0.375 0.859375q0 0.53125 -0.375 0.875q-0.359375 0.328125 -1.234375 0.328125l-7.25 0q-0.875 0 -1.25 -0.328125q-0.359375 -0.34375 -0.359375 -0.875q0 -0.53125 0.359375 -0.859375q0.375 -0.34375 1.25 -0.34375l1.421875 0l0 -5.828125l-0.859375 0q-0.875 0 -1.25 -0.328125q-0.359375 -0.34375 -0.359375 -0.890625q0 -0.515625 0.359375 -0.84375q0.375 -0.34375 1.25 -0.34375l3.265625 0zm12.417969 5.21875l0 3.015625l0.875 0q0.859375 0 1.234375 0.34375q0.375 0.328125 0.375 0.859375q0 0.53125 -0.375 0.875q-0.375 0.328125 -1.234375 0.328125l-3.640625 0q-0.875 0 -1.25 -0.328125q-0.359375 -0.34375 -0.359375 -0.875q0 -0.53125 0.375 -0.859375q0.375 -0.34375 1.234375 -0.34375l0.375 0l0 -9.390625l-0.375 0q-0.875 0 -1.25 -0.328125q-0.359375 -0.34375 -0.359375 -0.890625q0 -0.53125 0.359375 -0.859375q0.375 -0.34375 1.25 -0.34375l5.4375 0.015625q2.53125 0 3.9375 1.265625q1.40625 1.25 1.40625 3.0625q0 1.125 -0.65625 2.046875q-0.65625 0.90625 -1.984375 1.625q0.765625 0.671875 1.625 1.71875q0.546875 0.65625 1.453125 2.078125q0.921875 0 1.203125 0.1875q0.53125 0.359375 0.53125 1.015625q0 0.53125 -0.359375 0.875q-0.359375 0.328125 -1.234375 0.328125l-1.375 0q-2.90625 -4.515625 -4.828125 -5.421875l-2.390625 0zm0 -2.40625l1.875 0q1.046875 0 1.875 -0.3125q1.09375 -0.421875 1.46875 -0.890625q0.390625 -0.46875 0.390625 -0.9375q0 -0.671875 -0.734375 -1.25q-0.71875 -0.578125 -2.109375 -0.578125l-2.765625 0l0 3.96875zm22.917969 3.71875l-9.859375 0q0.375 0.9375 1.328125 1.515625q0.953125 0.578125 2.59375 0.578125q1.328125 0 3.546875 -0.578125q0.90625 -0.234375 1.265625 -0.234375q0.484375 0 0.8125 0.34375q0.328125 0.34375 0.328125 0.859375q0 0.46875 -0.359375 0.796875q-0.46875 0.421875 -2.28125 0.828125q-1.8125 0.390625 -3.5 0.390625q-2.875 0 -4.609375 -1.625q-1.71875 -1.640625 -1.71875 -4.015625q0 -2.53125 1.859375 -4.109375q1.875 -1.59375 4.3125 -1.59375q1.46875 0 2.6875 0.515625q1.21875 0.515625 1.828125 1.109375q0.84375 0.859375 1.390625 2.140625q0.375 0.890625 0.375 2.0625l0 1.015625zm-2.65625 -2.390625q-0.5625 -1.03125 -1.453125 -1.546875q-0.890625 -0.515625 -2.109375 -0.515625q-1.21875 0 -2.109375 0.515625q-0.890625 0.515625 -1.453125 1.546875l7.125 0zm11.011719 -1.734375l0 5.828125l3.421875 0q0.859375 0 1.234375 0.34375q0.375 0.328125 0.375 0.859375q0 0.53125 -0.375 0.875q-0.375 0.328125 -1.234375 0.328125l-7.25 0q-0.875 0 -1.25 -0.328125q-0.359375 -0.34375 -0.359375 -0.875q0 -0.53125 0.359375 -0.859375q0.375 -0.34375 1.25 -0.34375l1.421875 0l0 -5.828125l-1.140625 0q-0.875 0 -1.25 -0.328125q-0.359375 -0.34375 -0.359375 -0.890625q0 -0.515625 0.359375 -0.84375q0.375 -0.34375 1.25 -0.34375l1.140625 0l0 -0.921875q0 -1.5625 1.171875 -2.59375q1.1875 -1.046875 3.421875 -1.046875q1.0 0 2.296875 0.1875q1.3125 0.171875 1.671875 0.5q0.375 0.328125 0.375 0.84375q0 0.5625 -0.328125 0.90625q-0.328125 0.34375 -0.796875 0.34375q-0.234375 0 -0.671875 -0.078125q-1.484375 -0.296875 -2.640625 -0.296875q-1.1875 0 -1.640625 0.359375q-0.453125 0.359375 -0.453125 0.875l0 0.921875l3.703125 0q0.859375 0 1.234375 0.34375q0.375 0.328125 0.375 0.859375q0 0.53125 -0.375 0.875q-0.375 0.328125 -1.234375 0.328125l-3.703125 0z" fill-rule="nonzero"/></g></svg>