<?xml version="1.0" standalone="yes"?>

<svg version="1.1" viewBox="0.0 0.0 1085.1312335958005 692.3280839895014" fill="none" stroke="none" stroke-linecap="square" stroke-miterlimit="10" xmlns="http://www.w3.org/2000/svg" xmlns:xlink="http://www.w3.org/1999/xlink"><clipPath id="p.0"><path d="m0 0l1085.1312 0l0 692.32806l-1085.1312 0l0 -692.32806z" clip-rule="nonzero"></path></clipPath><g clip-path="url(#p.0)"><path fill="#000000" fill-opacity="0.0" d="m0 0l1085.1312 0l0 692.32806l-1085.1312 0z" fill-rule="evenodd"></path><path fill="#000000" fill-opacity="0.0" d="m15.089239 212.03674l365.00787 0l0 178.92914l-365.00787 0z" fill-rule="evenodd"></path><path fill="#000000" d="m40.145008 233.21487q1.453125 0 2.84375 0.75q1.40625 0.75 2.1875 2.15625q0.78125 1.390625 0.78125 2.890625q0 2.421875 -1.703125 4.125q-1.703125 1.6875 -4.109375 1.6875q-2.40625 0 -4.109375 -1.6875q-1.703125 -1.703125 -1.703125 -4.125q0 -1.515625 0.78125 -2.90625q0.78125 -1.390625 2.171875 -2.140625q1.40625 -0.75 2.859375 -0.75z" fill-rule="nonzero"></path><path fill="#000000" d="m73.30799 240.43362l2.40625 -0.21875q0.171875 1.453125 0.796875 2.390625q0.625 0.921875 1.9375 1.5q1.328125 0.5625 2.96875 0.5625q1.46875 0 2.578125 -0.421875q1.125 -0.4375 1.671875 -1.1875q0.5625 -0.765625 0.5625 -1.671875q0 -0.90625 -0.53125 -1.578125q-0.53125 -0.6875 -1.75 -1.140625q-0.765625 -0.3125 -3.4375 -0.953125q-2.65625 -0.640625 -3.734375 -1.203125q-1.375 -0.71875 -2.0625 -1.796875q-0.671875 -1.078125 -0.671875 -2.40625q0 -1.46875 0.828125 -2.734375q0.828125 -1.28125 2.421875 -1.9375q1.59375 -0.65625 3.546875 -0.65625q2.15625 0 3.796875 0.703125q1.640625 0.6875 2.515625 2.03125q0.890625 1.34375 0.953125 3.046875l-2.453125 0.171875q-0.1875 -1.828125 -1.328125 -2.765625q-1.140625 -0.9375 -3.375 -0.9375q-2.3125 0 -3.375 0.859375q-1.0625 0.84375 -1.0625 2.046875q0 1.046875 0.75 1.71875q0.734375 0.671875 3.84375 1.375q3.125 0.703125 4.28125 1.234375q1.6875 0.765625 2.484375 1.96875q0.8125 1.1875 0.8125 2.75q0 1.53125 -0.890625 2.90625q-0.875 1.359375 -2.53125 2.125q-1.65625 0.75 -3.71875 0.75q-2.625 0 -4.40625 -0.765625q-1.765625 -0.765625 -2.78125 -2.296875q-1.0 -1.53125 -1.046875 -3.46875zm27.920135 1.6875l2.453125 0.3125q-0.578125 2.140625 -2.15625 3.328125q-1.5625 1.1875 -4.0 1.1875q-3.0625 0 -4.875 -1.890625q-1.796875 -1.890625 -1.796875 -5.296875q0 -3.546875 1.8125 -5.484375q1.828125 -1.953125 4.734375 -1.953125q2.8125 0 4.578125 1.90625q1.78125 1.90625 1.78125 5.375q0 0.21875 -0.015625 0.640625l-10.4375 0q0.140625 2.296875 1.3125 3.53125q1.171875 1.21875 2.921875 1.21875q1.3125 0 2.234375 -0.671875q0.921875 -0.6875 1.453125 -2.203125zm-7.78125 -3.828125l7.8125 0q-0.15625 -1.765625 -0.890625 -2.65625q-1.140625 -1.359375 -2.953125 -1.359375q-1.625 0 -2.75 1.09375q-1.109375 1.09375 -1.21875 2.921875zm12.981186 8.34375l0 -19.328125l2.359375 0l0 19.328125l-2.359375 0zm15.547165 -4.515625l2.453125 0.3125q-0.578125 2.140625 -2.15625 3.328125q-1.5625 1.1875 -4.0 1.1875q-3.0625 0 -4.875 -1.890625q-1.796875 -1.890625 -1.796875 -5.296875q0 -3.546875 1.8125 -5.484375q1.828125 -1.953125 4.734375 -1.953125q2.8125 0 4.578125 1.90625q1.78125 1.90625 1.78125 5.375q0 0.21875 -0.015625 0.640625l-10.4375 0q0.140625 2.296875 1.3125 3.53125q1.171875 1.21875 2.921875 1.21875q1.3125 0 2.234375 -0.671875q0.921875 -0.6875 1.453125 -2.203125zm-7.78125 -3.828125l7.8125 0q-0.15625 -1.765625 -0.890625 -2.65625q-1.140625 -1.359375 -2.953125 -1.359375q-1.625 0 -2.75 1.09375q-1.109375 1.09375 -1.21875 2.921875zm22.168678 3.21875l2.328125 0.296875q-0.375 2.421875 -1.953125 3.78125q-1.578125 1.359375 -3.875 1.359375q-2.875 0 -4.625 -1.875q-1.7343674 -1.875 -1.7343674 -5.390625q0 -2.265625 0.75 -3.953125q0.7499924 -1.703125 2.2812424 -2.546875q1.53125 -0.859375 3.34375 -0.859375q2.28125 0 3.71875 1.15625q1.453125 1.140625 1.875 3.265625l-2.3125 0.359375q-0.328125 -1.40625 -1.171875 -2.109375q-0.828125 -0.71875 -2.015625 -0.71875q-1.796875 0 -2.921875 1.28125q-1.109375 1.28125 -1.109375 4.0625q0 2.828125 1.078125 4.109375q1.078125 1.265625 2.8125 1.265625q1.40625 0 2.34375 -0.84375q0.9375 -0.859375 1.1875 -2.640625zm9.375 3.0l0.328125 2.09375q-1.0 0.21875 -1.78125 0.21875q-1.296875 0 -2.015625 -0.40625q-0.703125 -0.421875 -1.0 -1.078125q-0.28125 -0.671875 -0.28125 -2.796875l0 -8.0625l-1.75 0l0 -1.84375l1.75 0l0 -3.46875l2.359375 -1.421875l0 4.890625l2.390625 0l0 1.84375l-2.390625 0l0 8.1875q0 1.015625 0.125 1.3125q0.125 0.28125 0.40625 0.453125q0.28125 0.171875 0.8125 0.171875q0.390625 0 1.046875 -0.09375zm1.3278351 -4.875q0 -3.890625 2.171875 -5.765625q1.796875 -1.546875 4.40625 -1.546875q2.875 0 4.703125 1.890625q1.84375 1.890625 1.84375 5.21875q0 2.703125 -0.8125 4.265625q-0.8125 1.546875 -2.359375 2.40625q-1.546875 0.84375 -3.375 0.84375q-2.953125 0 -4.765625 -1.875q-1.8125 -1.890625 -1.8125 -5.4375zm2.4375 0q0 2.6875 1.171875 4.03125q1.1875 1.328125 2.96875 1.328125q1.765625 0 2.9375 -1.34375q1.171875 -1.34375 1.171875 -4.09375q0 -2.59375 -1.1875 -3.9375q-1.171875 -1.34375 -2.921875 -1.34375q-1.78125 0 -2.96875 1.34375q-1.171875 1.328125 -1.171875 4.015625zm13.246811 7.0l0 -14.0l2.140625 0l0 2.125q0.8125 -1.5 1.5 -1.96875q0.703125 -0.46875 1.53125 -0.46875q1.203125 0 2.4375 0.765625l-0.8125 2.203125q-0.875 -0.515625 -1.75 -0.515625q-0.765625 0 -1.390625 0.46875q-0.625 0.46875 -0.890625 1.296875q-0.390625 1.265625 -0.390625 2.765625l0 7.328125l-2.375 0z" fill-rule="nonzero"></path><path fill="#000000" d="m40.145008 270.21487q1.453125 0 2.84375 0.75q1.40625 0.75 2.1875 2.15625q0.78125 1.390625 0.78125 2.890625q0 2.421875 -1.703125 4.125q-1.703125 1.6875 -4.109375 1.6875q-2.40625 0 -4.109375 -1.6875q-1.703125 -1.703125 -1.703125 -4.125q0 -1.515625 0.78125 -2.90625q0.78125 -1.390625 2.171875 -2.140625q1.40625 -0.75 2.859375 -0.75z" fill-rule="nonzero"></path><path fill="#000000" d="m74.604866 283.63675l0 -19.328125l2.5625 0l0 19.328125l-2.5625 0zm6.671585 0l0 -14.0l2.140625 0l0 1.984375q1.53125 -2.296875 4.453125 -2.296875q1.265625 0 2.328125 0.453125q1.0625 0.453125 1.578125 1.1875q0.53125 0.734375 0.75 1.75q0.125 0.671875 0.125 2.3125l0 8.609375l-2.375 0l0 -8.515625q0 -1.453125 -0.28125 -2.171875q-0.265625 -0.71875 -0.984375 -1.140625q-0.703125 -0.4375 -1.640625 -0.4375q-1.515625 0 -2.625 0.96875q-1.09375 0.953125 -1.09375 3.65625l0 7.640625l-2.375 0zm14.824936 5.359375l0 -19.359375l2.15625 0l0 1.8125q0.765625 -1.0625 1.71875 -1.59375q0.96875 -0.53125 2.34375 -0.53125q1.796875 0 3.15625 0.921875q1.375 0.921875 2.078125 2.609375q0.703125 1.671875 0.703125 3.671875q0 2.15625 -0.78125 3.875q-0.765625 1.71875 -2.234375 2.640625q-1.46875 0.90625 -3.09375 0.90625q-1.1875 0 -2.125 -0.5q-0.9375 -0.5 -1.546875 -1.265625l0 6.8125l-2.375 0zm2.140625 -12.28125q0 2.703125 1.09375 4.0q1.109375 1.28125 2.65625 1.28125q1.578125 0 2.703125 -1.328125q1.140625 -1.34375 1.140625 -4.15625q0 -2.671875 -1.109375 -4.0q-1.09375 -1.328125 -2.625 -1.328125q-1.515625 0 -2.6875 1.421875q-1.171875 1.40625 -1.171875 4.109375zm21.856186 6.921875l0 -2.0625q-1.625 2.375 -4.4375 2.375q-1.234375 0 -2.3125 -0.46875q-1.078125 -0.484375 -1.609375 -1.1875q-0.515625 -0.71875 -0.71875 -1.765625q-0.140625 -0.703125 -0.140625 -2.21875l0 -8.671875l2.359375 0l0 7.765625q0 1.859375 0.15625 2.5q0.21875 0.9375 0.9375 1.46875q0.734375 0.53125 1.796875 0.53125q1.078125 0 2.0 -0.546875q0.9375 -0.546875 1.328125 -1.484375q0.390625 -0.9375 0.390625 -2.734375l0 -7.5l2.375 0l0 14.0l-2.125 0zm10.840553 -2.125l0.328125 2.09375q-1.0 0.21875 -1.78125 0.21875q-1.296875 0 -2.0156174 -0.40625q-0.703125 -0.421875 -1.0 -1.078125q-0.28125 -0.671875 -0.28125 -2.796875l0 -8.0625l-1.75 0l0 -1.84375l1.75 0l0 -3.46875l2.3593674 -1.421875l0 4.890625l2.390625 0l0 1.84375l-2.390625 0l0 8.1875q0 1.015625 0.125 1.3125q0.125 0.28125 0.40625 0.453125q0.28125 0.171875 0.8125 0.171875q0.390625 0 1.046875 -0.09375zm1.2653351 -2.046875l2.34375 -0.375q0.203125 1.40625 1.109375 2.15625q0.90625 0.75 2.515625 0.75q1.640625 0 2.421875 -0.65625q0.796875 -0.671875 0.796875 -1.5625q0 -0.8125 -0.6875 -1.265625q-0.5 -0.3125 -2.4375 -0.8125q-2.609375 -0.65625 -3.625 -1.125q-1.0 -0.484375 -1.53125 -1.328125q-0.515625 -0.859375 -0.515625 -1.890625q0 -0.9375 0.421875 -1.734375q0.4375 -0.796875 1.1875 -1.328125q0.546875 -0.40625 1.5 -0.6875q0.953125 -0.28125 2.046875 -0.28125q1.65625 0 2.890625 0.46875q1.25 0.46875 1.84375 1.28125q0.59375 0.8125 0.828125 2.171875l-2.328125 0.3125q-0.15625 -1.078125 -0.921875 -1.671875q-0.75 -0.609375 -2.140625 -0.609375q-1.625 0 -2.328125 0.546875q-0.703125 0.53125 -0.703125 1.25q0 0.46875 0.296875 0.828125q0.28125 0.390625 0.90625 0.640625q0.359375 0.125 2.09375 0.609375q2.515625 0.671875 3.515625 1.09375q1.0 0.421875 1.5625 1.25q0.5625 0.8125 0.5625 2.03125q0 1.1875 -0.6875 2.234375q-0.6875 1.046875 -2.0 1.625q-1.296875 0.5625 -2.953125 0.5625q-2.71875 0 -4.15625 -1.125q-1.4375 -1.140625 -1.828125 -3.359375z" fill-rule="nonzero"></path><path fill="#000000" d="m40.145008 307.21487q1.453125 0 2.84375 0.75q1.40625 0.75 2.1875 2.15625q0.78125 1.390625 0.78125 2.890625q0 2.421875 -1.703125 4.125q-1.703125 1.6875 -4.109375 1.6875q-2.40625 0 -4.109375 -1.6875q-1.703125 -1.703125 -1.703125 -4.125q0 -1.515625 0.78125 -2.90625q0.78125 -1.390625 2.171875 -2.140625q1.40625 -0.75 2.859375 -0.75z" fill-rule="nonzero"></path><path fill="#000000" d="m73.40174 311.2305q0 -4.8125 2.578125 -7.53125q2.578125 -2.734375 6.671875 -2.734375q2.671875 0 4.8125 1.28125q2.15625 1.28125 3.28125 3.578125q1.125 2.28125 1.125 5.171875q0 2.9375 -1.1875 5.265625q-1.171875 2.3125 -3.359375 3.515625q-2.171875 1.1875 -4.6875 1.1875q-2.734375 0 -4.890625 -1.3125q-2.140625 -1.328125 -3.25 -3.609375q-1.09375 -2.28125 -1.09375 -4.8125zm2.625 0.03125q0 3.5 1.875 5.515625q1.890625 2.0 4.71875 2.0q2.890625 0 4.75 -2.03125q1.875 -2.03125 1.875 -5.765625q0 -2.359375 -0.796875 -4.109375q-0.796875 -1.765625 -2.34375 -2.734375q-1.53125 -0.96875 -3.4375 -0.96875q-2.71875 0 -4.6875 1.875q-1.953125 1.859375 -1.953125 6.21875zm27.74971 9.375l0 -2.0625q-1.625 2.375 -4.4375 2.375q-1.234375 0 -2.3125 -0.46875q-1.078125 -0.484375 -1.609375 -1.1875q-0.515625 -0.71875 -0.71875 -1.765625q-0.140625 -0.703125 -0.140625 -2.21875l0 -8.671875l2.359375 0l0 7.765625q0 1.859375 0.15625 2.5q0.21875 0.9375 0.9375 1.46875q0.734375 0.53125 1.796875 0.53125q1.078125 0 2.0 -0.546875q0.9375 -0.546875 1.328125 -1.484375q0.390625 -0.9375 0.390625 -2.734375l0 -7.5l2.375 0l0 14.0l-2.125 0zm10.840561 -2.125l0.328125 2.09375q-1.0 0.21875 -1.78125 0.21875q-1.296875 0 -2.015625 -0.40625q-0.703125 -0.421875 -1.0 -1.078125q-0.28125 -0.671875 -0.28125 -2.796875l0 -8.0625l-1.75 0l0 -1.84375l1.75 0l0 -3.46875l2.359375 -1.421875l0 4.890625l2.390625 0l0 1.84375l-2.390625 0l0 8.1875q0 1.015625 0.125 1.3125q0.125 0.28125 0.40625 0.453125q0.28125 0.171875 0.8125 0.171875q0.390625 0 1.046875 -0.09375zm2.21846 7.484375l0 -19.359375l2.15625 0l0 1.8125q0.765625 -1.0625 1.71875 -1.59375q0.96875 -0.53125 2.34375 -0.53125q1.796875 0 3.15625 0.921875q1.375 0.921875 2.0781174 2.609375q0.703125 1.671875 0.703125 3.671875q0 2.15625 -0.78125 3.875q-0.7656174 1.71875 -2.2343674 2.640625q-1.46875 0.90625 -3.09375 0.90625q-1.1875 0 -2.125 -0.5q-0.9375 -0.5 -1.546875 -1.265625l0 6.8125l-2.375 0zm2.140625 -12.28125q0 2.703125 1.09375 4.0q1.109375 1.28125 2.65625 1.28125q1.578125 0 2.703125 -1.328125q1.140625 -1.34375 1.140625 -4.15625q0 -2.671875 -1.109375 -4.0q-1.09375 -1.328125 -2.625 -1.328125q-1.515625 0 -2.6875 1.421875q-1.171875 1.40625 -1.171875 4.109375zm21.856178 6.921875l0 -2.0625q-1.625 2.375 -4.4375 2.375q-1.234375 0 -2.3125 -0.46875q-1.078125 -0.484375 -1.609375 -1.1875q-0.515625 -0.71875 -0.71875 -1.765625q-0.140625 -0.703125 -0.140625 -2.21875l0 -8.671875l2.359375 0l0 7.765625q0 1.859375 0.15625 2.5q0.21875 0.9375 0.9375 1.46875q0.734375 0.53125 1.796875 0.53125q1.078125 0 2.0 -0.546875q0.9375 -0.546875 1.328125 -1.484375q0.390625 -0.9375 0.390625 -2.734375l0 -7.5l2.375 0l0 14.0l-2.125 0zm10.840561 -2.125l0.328125 2.09375q-1.0 0.21875 -1.78125 0.21875q-1.296875 0 -2.015625 -0.40625q-0.703125 -0.421875 -1.0 -1.078125q-0.28125 -0.671875 -0.28125 -2.796875l0 -8.0625l-1.75 0l0 -1.84375l1.75 0l0 -3.46875l2.359375 -1.421875l0 4.890625l2.390625 0l0 1.84375l-2.390625 0l0 8.1875q0 1.015625 0.125 1.3125q0.125 0.28125 0.40625 0.453125q0.28125 0.171875 0.8125 0.171875q0.390625 0 1.046875 -0.09375zm1.2653351 -2.046875l2.34375 -0.375q0.203125 1.40625 1.109375 2.15625q0.90625 0.75 2.515625 0.75q1.640625 0 2.421875 -0.65625q0.796875 -0.671875 0.796875 -1.5625q0 -0.8125 -0.6875 -1.265625q-0.5 -0.3125 -2.4375 -0.8125q-2.609375 -0.65625 -3.625 -1.125q-1.0 -0.484375 -1.53125 -1.328125q-0.515625 -0.859375 -0.515625 -1.890625q0 -0.9375 0.421875 -1.734375q0.4375 -0.796875 1.1875 -1.328125q0.546875 -0.40625 1.5 -0.6875q0.953125 -0.28125 2.046875 -0.28125q1.65625 0 2.890625 0.46875q1.25 0.46875 1.84375 1.28125q0.59375 0.8125 0.828125 2.171875l-2.328125 0.3125q-0.15625 -1.078125 -0.921875 -1.671875q-0.75 -0.609375 -2.140625 -0.609375q-1.625 0 -2.328125 0.546875q-0.703125 0.53125 -0.703125 1.25q0 0.46875 0.296875 0.828125q0.28125 0.390625 0.90625 0.640625q0.359375 0.125 2.09375 0.609375q2.515625 0.671875 3.515625 1.09375q1.0 0.421875 1.5625 1.25q0.5625 0.8125 0.5625 2.03125q0 1.1875 -0.6875 2.234375q-0.6875 1.046875 -2.0 1.625q-1.296875 0.5625 -2.953125 0.5625q-2.71875 0 -4.15625 -1.125q-1.4375 -1.140625 -1.828125 -3.359375z" fill-rule="nonzero"></path><path fill="#000000" d="m40.145008 344.21487q1.453125 0 2.84375 0.75q1.40625 0.75 2.1875 2.15625q0.78125 1.390625 0.78125 2.890625q0 2.421875 -1.703125 4.125q-1.703125 1.6875 -4.109375 1.6875q-2.40625 0 -4.109375 -1.6875q-1.703125 -1.703125 -1.703125 -4.125q0 -1.515625 0.78125 -2.90625q0.78125 -1.390625 2.171875 -2.140625q1.40625 -0.75 2.859375 -0.75z" fill-rule="nonzero"></path><path fill="#000000" d="m87.96424 350.8555l2.5625 0.65625q-0.8125 3.140625 -2.90625 4.796875q-2.078125 1.65625 -5.109375 1.65625q-3.125 0 -5.078125 -1.265625q-1.953125 -1.28125 -2.984375 -3.6875q-1.015625 -2.421875 -1.015625 -5.1875q0 -3.015625 1.15625 -5.265625q1.15625 -2.25 3.28125 -3.40625q2.125 -1.171875 4.6875 -1.171875q2.90625 0 4.875 1.484375q1.984375 1.46875 2.75 4.140625l-2.515625 0.59375q-0.671875 -2.109375 -1.953125 -3.0625q-1.265625 -0.96875 -3.203125 -0.96875q-2.234375 0 -3.734375 1.078125q-1.5 1.0625 -2.109375 2.859375q-0.59375 1.796875 -0.59375 3.703125q0 2.46875 0.71875 4.3125q0.71875 1.84375 2.234375 2.75q1.515625 0.90625 3.28125 0.90625q2.140625 0 3.625 -1.234375q1.5 -1.25 2.03125 -3.6875zm5.15654 6.78125l0 -19.328125l2.375 0l0 6.9375q1.65625 -1.921875 4.1875 -1.921875q1.5625 0 2.703125 0.609375q1.140625 0.609375 1.640625 1.703125q0.5 1.078125 0.5 3.125l0 8.875l-2.375 0l0 -8.875q0 -1.78125 -0.78125 -2.59375q-0.765625 -0.8125 -2.171875 -0.8125q-1.0625 0 -2.0 0.546875q-0.921875 0.546875 -1.3125 1.484375q-0.390625 0.9375 -0.390625 2.59375l0 7.65625l-2.375 0zm23.96556 -1.734375q-1.328125 1.125 -2.546875 1.59375q-1.21875 0.453125 -2.609375 0.453125q-2.3125 0 -3.5625 -1.125q-1.234375 -1.125 -1.234375 -2.875q0 -1.03125 0.46875 -1.875q0.46875 -0.859375 1.21875 -1.375q0.765625 -0.515625 1.71875 -0.78125q0.703125 -0.171875 2.109375 -0.34375q2.875 -0.34375 4.234375 -0.828125q0.015625 -0.484375 0.015625 -0.609375q0 -1.453125 -0.671875 -2.046875q-0.90625 -0.8125 -2.703125 -0.8125q-1.671875 0 -2.46875 0.59375q-0.796875 0.578125 -1.1875 2.078125l-2.3125 -0.3125q0.3125 -1.5 1.03125 -2.40625q0.734375 -0.921875 2.09375 -1.40625q1.375 -0.5 3.1875 -0.5q1.796875 0 2.90625 0.421875q1.125 0.421875 1.640625 1.0625q0.53125 0.640625 0.75 1.609375q0.125 0.609375 0.125 2.1875l0 3.171875q0 3.296875 0.140625 4.1875q0.15625 0.875 0.609375 1.671875l-2.484375 0q-0.375 -0.734375 -0.46875 -1.734375zm-0.203125 -5.296875q-1.296875 0.53125 -3.875 0.90625q-1.46875 0.203125 -2.078125 0.46875q-0.59375 0.265625 -0.9375 0.78125q-0.328125 0.5 -0.328125 1.125q0 0.9375 0.71875 1.578125q0.71875 0.625 2.109375 0.625q1.375 0 2.4375 -0.59375q1.0625 -0.609375 1.578125 -1.640625q0.375 -0.8125 0.375 -2.375l0 -0.875zm5.887436 7.03125l0 -14.0l2.140625 0l0 1.984375q1.53125 -2.296875 4.4531174 -2.296875q1.265625 0 2.328125 0.453125q1.0625 0.453125 1.578125 1.1875q0.53125 0.734375 0.75 1.75q0.125 0.671875 0.125 2.3125l0 8.609375l-2.375 0l0 -8.515625q0 -1.453125 -0.28125 -2.171875q-0.265625 -0.71875 -0.984375 -1.140625q-0.703125 -0.4375 -1.640625 -0.4375q-1.5156174 0 -2.6249924 0.96875q-1.09375 0.953125 -1.09375 3.65625l0 7.640625l-2.375 0zm14.387428 1.15625l2.3125 0.34375q0.140625 1.078125 0.796875 1.5625q0.890625 0.65625 2.421875 0.65625q1.640625 0 2.53125 -0.65625q0.90625 -0.65625 1.21875 -1.84375q0.1875 -0.734375 0.171875 -3.046875q-1.5625 1.828125 -3.875 1.828125q-2.890625 0 -4.46875 -2.078125q-1.578125 -2.09375 -1.578125 -5.0q0 -2.0 0.71875 -3.6875q0.734375 -1.703125 2.109375 -2.625q1.375 -0.921875 3.234375 -0.921875q2.46875 0 4.078125 2.0l0 -1.6875l2.1875 0l0 12.09375q0 3.28125 -0.671875 4.640625q-0.65625 1.359375 -2.109375 2.15625q-1.4375 0.796875 -3.546875 0.796875q-2.5 0 -4.046875 -1.140625q-1.53125 -1.125 -1.484375 -3.390625zm1.96875 -8.40625q0 2.75 1.09375 4.015625q1.09375 1.265625 2.734375 1.265625q1.640625 0 2.75 -1.25q1.109375 -1.265625 1.109375 -3.953125q0 -2.578125 -1.140625 -3.875q-1.140625 -1.3125 -2.75 -1.3125q-1.578125 0 -2.6875 1.296875q-1.109375 1.28125 -1.109375 3.8125zm22.87181 2.734375l2.453125 0.3125q-0.578125 2.140625 -2.15625 3.328125q-1.5625 1.1875 -4.0 1.1875q-3.0625 0 -4.875 -1.890625q-1.796875 -1.890625 -1.796875 -5.296875q0 -3.546875 1.8125 -5.484375q1.828125 -1.953125 4.734375 -1.953125q2.8125 0 4.578125 1.90625q1.78125 1.90625 1.78125 5.375q0 0.21875 -0.015625 0.640625l-10.4375 0q0.140625 2.296875 1.3125 3.53125q1.171875 1.21875 2.921875 1.21875q1.3125 0 2.234375 -0.671875q0.921875 -0.6875 1.453125 -2.203125zm-7.78125 -3.828125l7.8125 0q-0.15625 -1.765625 -0.890625 -2.65625q-1.140625 -1.359375 -2.953125 -1.359375q-1.625 0 -2.75 1.09375q-1.109375 1.09375 -1.21875 2.921875zm20.730896 8.34375l0 -19.328125l6.65625 0q2.265625 0 3.453125 0.28125q1.65625 0.375 2.828125 1.375q1.53125 1.296875 2.28125 3.3125q0.765625 2.0 0.765625 4.59375q0 2.203125 -0.515625 3.90625q-0.515625 1.6875 -1.328125 2.8125q-0.796875 1.109375 -1.75 1.75q-0.953125 0.640625 -2.3125 0.96875q-1.34375 0.328125 -3.09375 0.328125l-6.984375 0zm2.5625 -2.28125l4.125 0q1.90625 0 3.0 -0.359375q1.09375 -0.359375 1.734375 -1.0q0.90625 -0.90625 1.40625 -2.4375q0.515625 -1.546875 0.515625 -3.734375q0 -3.03125 -1.0 -4.65625q-0.984375 -1.625 -2.40625 -2.1875q-1.03125 -0.390625 -3.3125 -0.390625l-4.0625 0l0 14.765625zm25.96904 -2.234375l2.453125 0.3125q-0.578125 2.140625 -2.15625 3.328125q-1.5625 1.1875 -4.0 1.1875q-3.0625 0 -4.875 -1.890625q-1.796875 -1.890625 -1.796875 -5.296875q0 -3.546875 1.8125 -5.484375q1.828125 -1.953125 4.734375 -1.953125q2.8125 0 4.578125 1.90625q1.78125 1.90625 1.78125 5.375q0 0.21875 -0.015625 0.640625l-10.4375 0q0.140625 2.296875 1.3125 3.53125q1.171875 1.21875 2.921875 1.21875q1.3125 0 2.234375 -0.671875q0.921875 -0.6875 1.453125 -2.203125zm-7.78125 -3.828125l7.8125 0q-0.15625 -1.765625 -0.890625 -2.65625q-1.140625 -1.359375 -2.953125 -1.359375q-1.625 0 -2.75 1.09375q-1.109375 1.09375 -1.21875 2.921875zm18.21556 6.21875l0.328125 2.09375q-1.0 0.21875 -1.78125 0.21875q-1.296875 0 -2.015625 -0.40625q-0.703125 -0.421875 -1.0 -1.078125q-0.28125 -0.671875 -0.28125 -2.796875l0 -8.0625l-1.75 0l0 -1.84375l1.75 0l0 -3.46875l2.359375 -1.421875l0 4.890625l2.390625 0l0 1.84375l-2.390625 0l0 8.1875q0 1.015625 0.125 1.3125q0.125 0.28125 0.40625 0.453125q0.28125 0.171875 0.8125 0.171875q0.390625 0 1.046875 -0.09375zm11.796585 -2.390625l2.453125 0.3125q-0.578125 2.140625 -2.15625 3.328125q-1.5625 1.1875 -4.0 1.1875q-3.0625 0 -4.875 -1.890625q-1.796875 -1.890625 -1.796875 -5.296875q0 -3.546875 1.8125 -5.484375q1.828125 -1.953125 4.734375 -1.953125q2.8125 0 4.578125 1.90625q1.78125 1.90625 1.78125 5.375q0 0.21875 -0.015625 0.640625l-10.4375 0q0.140625 2.296875 1.3125 3.53125q1.171875 1.21875 2.921875 1.21875q1.3125 0 2.234375 -0.671875q0.921875 -0.6875 1.453125 -2.203125zm-7.78125 -3.828125l7.8125 0q-0.15625 -1.765625 -0.890625 -2.65625q-1.140625 -1.359375 -2.953125 -1.359375q-1.625 0 -2.75 1.09375q-1.109375 1.09375 -1.21875 2.921875zm22.168686 3.21875l2.328125 0.296875q-0.375 2.421875 -1.953125 3.78125q-1.578125 1.359375 -3.875 1.359375q-2.875 0 -4.625 -1.875q-1.734375 -1.875 -1.734375 -5.390625q0 -2.265625 0.75 -3.953125q0.75 -1.703125 2.28125 -2.546875q1.53125 -0.859375 3.34375 -0.859375q2.28125 0 3.71875 1.15625q1.453125 1.140625 1.875 3.265625l-2.3125 0.359375q-0.328125 -1.40625 -1.171875 -2.109375q-0.828125 -0.71875 -2.015625 -0.71875q-1.796875 0 -2.921875 1.28125q-1.109375 1.28125 -1.109375 4.0625q0 2.828125 1.078125 4.109375q1.078125 1.265625 2.8125 1.265625q1.40625 0 2.34375 -0.84375q0.9375 -0.859375 1.1875 -2.640625zm9.375 3.0l0.328125 2.09375q-1.0 0.21875 -1.78125 0.21875q-1.296875 0 -2.015625 -0.40625q-0.703125 -0.421875 -1.0 -1.078125q-0.28125 -0.671875 -0.28125 -2.796875l0 -8.0625l-1.75 0l0 -1.84375l1.75 0l0 -3.46875l2.359375 -1.421875l0 4.890625l2.390625 0l0 1.84375l-2.390625 0l0 8.1875q0 1.015625 0.125 1.3125q0.125 0.28125 0.40625 0.453125q0.28125 0.171875 0.8125 0.171875q0.390625 0 1.046875 -0.09375zm2.234085 -14.46875l0 -2.734375l2.375 0l0 2.734375l-2.375 0zm0 16.59375l0 -14.0l2.375 0l0 14.0l-2.375 0zm5.01593 -7.0q0 -3.890625 2.171875 -5.765625q1.796875 -1.546875 4.40625 -1.546875q2.875 0 4.703125 1.890625q1.84375 1.890625 1.84375 5.21875q0 2.703125 -0.8125 4.265625q-0.8125 1.546875 -2.359375 2.40625q-1.546875 0.84375 -3.375 0.84375q-2.953125 0 -4.765625 -1.875q-1.8125 -1.890625 -1.8125 -5.4375zm2.4375 0q0 2.6875 1.171875 4.03125q1.1875 1.328125 2.96875 1.328125q1.765625 0 2.9375 -1.34375q1.171875 -1.34375 1.171875 -4.09375q0 -2.59375 -1.1875 -3.9375q-1.171875 -1.34375 -2.921875 -1.34375q-1.78125 0 -2.96875 1.34375q-1.171875 1.328125 -1.171875 4.015625zm13.278046 7.0l0 -14.0l2.140625 0l0 1.984375q1.53125 -2.296875 4.453125 -2.296875q1.265625 0 2.328125 0.453125q1.0625 0.453125 1.578125 1.1875q0.53125 0.734375 0.75 1.75q0.125 0.671875 0.125 2.3125l0 8.609375l-2.375 0l0 -8.515625q0 -1.453125 -0.28125 -2.171875q-0.265625 -0.71875 -0.984375 -1.140625q-0.703125 -0.4375 -1.640625 -0.4375q-1.515625 0 -2.625 0.96875q-1.09375 0.953125 -1.09375 3.65625l0 7.640625l-2.375 0z" fill-rule="nonzero"></path><path fill="#000000" d="m40.145008 381.21487q1.453125 0 2.84375 0.75q1.40625 0.75 2.1875 2.15625q0.78125 1.390625 0.78125 2.890625q0 2.421875 -1.703125 4.125q-1.703125 1.6875 -4.109375 1.6875q-2.40625 0 -4.109375 -1.6875q-1.703125 -1.703125 -1.703125 -4.125q0 -1.515625 0.78125 -2.90625q0.78125 -1.390625 2.171875 -2.140625q1.40625 -0.75 2.859375 -0.75z" fill-rule="nonzero"></path><path fill="#000000" d="m74.542366 394.63675l0 -2.703125l2.703125 0l0 2.703125l-2.703125 0zm7.40596 0l0 -2.703125l2.703125 0l0 2.703125l-2.703125 0zm7.40596 0l0 -2.703125l2.703125 0l0 2.703125l-2.703125 0z" fill-rule="nonzero"></path><path fill="#000000" fill-opacity="0.0" d="m119.19423 612.81366l468.8504 0l0 272.5354l-468.8504 0z" fill-rule="evenodd"></path><path fill="#000000" d="m144.25 633.99176q1.453125 0 2.84375 0.75q1.40625 0.75 2.1875 2.15625q0.78125 1.390625 0.78125 2.890625q0 2.421875 -1.703125 4.125q-1.703125 1.6875 -4.109375 1.6875q-2.40625 0 -4.109375 -1.6875q-1.703125 -1.703125 -1.703125 -4.125q0 -1.515625 0.78125 -2.90625q0.78125 -1.390625 2.171875 -2.140625q1.40625 -0.75 2.859375 -0.75z" fill-rule="nonzero"></path><path fill="#000000" d="m187.1161 645.67926q-1.328125 1.125 -2.546875 1.59375q-1.21875 0.453125 -2.609375 0.453125q-2.3125 0 -3.5625 -1.125q-1.234375 -1.125 -1.234375 -2.875q0 -1.03125 0.46875 -1.875q0.46875 -0.859375 1.21875 -1.375q0.765625 -0.515625 1.71875 -0.78125q0.703125 -0.171875 2.109375 -0.34375q2.875 -0.34375 4.234375 -0.828125q0.015625 -0.484375 0.015625 -0.609375q0 -1.453125 -0.671875 -2.046875q-0.90625 -0.8125 -2.703125 -0.8125q-1.671875 0 -2.46875 0.59375q-0.796875 0.578125 -1.1875 2.078125l-2.3125 -0.3125q0.3125 -1.5 1.03125 -2.40625q0.734375 -0.921875 2.09375 -1.40625q1.375 -0.5 3.1875 -0.5q1.796875 0 2.90625 0.421875q1.125 0.421875 1.640625 1.0625q0.53125 0.640625 0.75 1.609375q0.125 0.609375 0.125 2.1875l0 3.171875q0 3.296875 0.140625 4.1875q0.15625 0.875 0.609375 1.671875l-2.484375 0q-0.375 -0.734375 -0.46875 -1.734375zm-0.203125 -5.296875q-1.296875 0.53125 -3.875 0.90625q-1.46875 0.203125 -2.078125 0.46875q-0.59375 0.265625 -0.9375 0.78125q-0.328125 0.5 -0.328125 1.125q0 0.9375 0.71875 1.578125q0.71875 0.625 2.109375 0.625q1.375 0 2.4375 -0.59375q1.0625 -0.609375 1.578125 -1.640625q0.375 -0.8125 0.375 -2.375l0 -0.875zm11.074936 4.90625l0.328125 2.09375q-1.0 0.21875 -1.78125 0.21875q-1.296875 0 -2.015625 -0.40625q-0.703125 -0.421875 -1.0 -1.078125q-0.28125 -0.671875 -0.28125 -2.796875l0 -8.0625l-1.75 0l0 -1.84375l1.75 0l0 -3.46875l2.359375 -1.421875l0 4.890625l2.390625 0l0 1.84375l-2.390625 0l0 8.1875q0 1.015625 0.125 1.3125q0.125 0.28125 0.40625 0.453125q0.28125 0.171875 0.8125 0.171875q0.390625 0 1.046875 -0.09375zm7.40596 0l0.328125 2.09375q-1.0 0.21875 -1.78125 0.21875q-1.296875 0 -2.015625 -0.40625q-0.703125 -0.421875 -1.0 -1.078125q-0.28125 -0.671875 -0.28125 -2.796875l0 -8.0625l-1.75 0l0 -1.84375l1.75 0l0 -3.46875l2.359375 -1.421875l0 4.890625l2.390625 0l0 1.84375l-2.390625 0l0 8.1875q0 1.015625 0.125 1.3125q0.125 0.28125 0.40625 0.453125q0.28125 0.171875 0.8125 0.171875q0.390625 0 1.046875 -0.09375zm2.234085 -14.46875l0 -2.734375l2.375 0l0 2.734375l-2.375 0zm0 16.59375l0 -14.0l2.375 0l0 14.0l-2.375 0zm8.09404 0l-2.203125 0l0 -19.328125l2.375 0l0 6.890625q1.5 -1.875 3.828125 -1.875q1.296875 0 2.453125 0.515625q1.15625 0.515625 1.890625 1.46875q0.75 0.9375 1.171875 2.265625q0.421875 1.328125 0.421875 2.84375q0 3.609375 -1.78125 5.578125q-1.78125 1.953125 -4.265625 1.953125q-2.484375 0 -3.890625 -2.0625l0 1.75zm-0.03125 -7.109375q0 2.515625 0.6875 3.640625q1.125 1.828125 3.03125 1.828125q1.5625 0 2.6875 -1.34375q1.140625 -1.359375 1.140625 -4.03125q0 -2.734375 -1.09375 -4.03125q-1.078125 -1.3125 -2.625 -1.3125q-1.5625 0 -2.703125 1.359375q-1.125 1.34375 -1.125 3.890625zm21.84056 7.109375l0 -2.0625q-1.625 2.375 -4.4375 2.375q-1.234375 0 -2.3125 -0.46875q-1.078125 -0.484375 -1.609375 -1.1875q-0.515625 -0.71875 -0.71875 -1.765625q-0.140625 -0.703125 -0.140625 -2.21875l0 -8.671875l2.359375 0l0 7.765625q0 1.859375 0.15625 2.5q0.21875 0.9375 0.9375 1.46875q0.734375 0.53125 1.796875 0.53125q1.078125 0 2.0 -0.546875q0.9375 -0.546875 1.328125 -1.484375q0.390625 -0.9375 0.390625 -2.734375l0 -7.5l2.375 0l0 14.0l-2.125 0zm10.840561 -2.125l0.328125 2.09375q-1.0 0.21875 -1.78125 0.21875q-1.296875 0 -2.015625 -0.40625q-0.703125 -0.421875 -1.0 -1.078125q-0.28125 -0.671875 -0.28125 -2.796875l0 -8.0625l-1.75 0l0 -1.84375l1.75 0l0 -3.46875l2.359375 -1.421875l0 4.890625l2.390625 0l0 1.84375l-2.390625 0l0 8.1875q0 1.015625 0.125 1.3125q0.125 0.28125 0.40625 0.453125q0.28125 0.171875 0.8125 0.171875q0.390625 0 1.046875 -0.09375zm11.796585 -2.390625l2.453125 0.3125q-0.578125 2.140625 -2.15625 3.328125q-1.5625 1.1875 -4.0 1.1875q-3.0625 0 -4.875 -1.890625q-1.796875 -1.890625 -1.796875 -5.296875q0 -3.546875 1.8125 -5.484375q1.828125 -1.953125 4.734375 -1.953125q2.8125 0 4.578125 1.90625q1.78125 1.90625 1.78125 5.375q0 0.21875 -0.015625 0.640625l-10.4375 0q0.140625 2.296875 1.3125 3.53125q1.171875 1.21875 2.921875 1.21875q1.3125 0 2.234375 -0.671875q0.921875 -0.6875 1.453125 -2.203125zm-7.78125 -3.828125l7.8125 0q-0.15625 -1.765625 -0.890625 -2.65625q-1.140625 -1.359375 -2.953125 -1.359375q-1.625 0 -2.75 1.09375q-1.109375 1.09375 -1.21875 2.921875zm27.121796 1.5625l2.5625 0.65625q-0.8125 3.140625 -2.90625 4.796875q-2.078125 1.65625 -5.109375 1.65625q-3.125 0 -5.078125 -1.265625q-1.953125 -1.28125 -2.984375 -3.6875q-1.015625 -2.421875 -1.015625 -5.1875q0 -3.015625 1.15625 -5.265625q1.15625 -2.25 3.28125 -3.40625q2.125 -1.171875 4.6875 -1.171875q2.90625 0 4.875 1.484375q1.984375 1.46875 2.75 4.140625l-2.515625 0.59375q-0.671875 -2.109375 -1.953125 -3.0625q-1.265625 -0.96875 -3.203125 -0.96875q-2.234375 0 -3.734375 1.078125q-1.5 1.0625 -2.109375 2.859375q-0.59375 1.796875 -0.59375 3.703125q0 2.46875 0.71875 4.3125q0.71875 1.84375 2.234375 2.75q1.515625 0.90625 3.28125 0.90625q2.140625 0 3.625 -1.234375q1.5 -1.25 2.03125 -3.6875zm5.156555 6.78125l0 -19.328125l2.375 0l0 6.9375q1.65625 -1.921875 4.1875 -1.921875q1.5625 0 2.703125 0.609375q1.140625 0.609375 1.640625 1.703125q0.5 1.078125 0.5 3.125l0 8.875l-2.375 0l0 -8.875q0 -1.78125 -0.78125 -2.59375q-0.765625 -0.8125 -2.171875 -0.8125q-1.0625 0 -2.0 0.546875q-0.921875 0.546875 -1.3125 1.484375q-0.390625 0.9375 -0.390625 2.59375l0 7.65625l-2.375 0zm23.965546 -1.734375q-1.328125 1.125 -2.546875 1.59375q-1.21875 0.453125 -2.609375 0.453125q-2.3125 0 -3.5625 -1.125q-1.234375 -1.125 -1.234375 -2.875q0 -1.03125 0.46875 -1.875q0.46875 -0.859375 1.21875 -1.375q0.765625 -0.515625 1.71875 -0.78125q0.703125 -0.171875 2.109375 -0.34375q2.875 -0.34375 4.234375 -0.828125q0.015625 -0.484375 0.015625 -0.609375q0 -1.453125 -0.671875 -2.046875q-0.90625 -0.8125 -2.703125 -0.8125q-1.671875 0 -2.46875 0.59375q-0.796875 0.578125 -1.1875 2.078125l-2.3125 -0.3125q0.3125 -1.5 1.03125 -2.40625q0.734375 -0.921875 2.09375 -1.40625q1.375 -0.5 3.1875 -0.5q1.796875 0 2.90625 0.421875q1.125 0.421875 1.640625 1.0625q0.53125 0.640625 0.75 1.609375q0.125 0.609375 0.125 2.1875l0 3.171875q0 3.296875 0.140625 4.1875q0.15625 0.875 0.609375 1.671875l-2.484375 0q-0.375 -0.734375 -0.46875 -1.734375zm-0.203125 -5.296875q-1.296875 0.53125 -3.875 0.90625q-1.46875 0.203125 -2.078125 0.46875q-0.59375 0.265625 -0.9375 0.78125q-0.328125 0.5 -0.328125 1.125q0 0.9375 0.71875 1.578125q0.71875 0.625 2.109375 0.625q1.375 0 2.4375 -0.59375q1.0625 -0.609375 1.578125 -1.640625q0.375 -0.8125 0.375 -2.375l0 -0.875zm5.887451 7.03125l0 -14.0l2.140625 0l0 1.984375q1.53125 -2.296875 4.453125 -2.296875q1.265625 0 2.328125 0.453125q1.0625 0.453125 1.578125 1.1875q0.53125 0.734375 0.75 1.75q0.125 0.671875 0.125 2.3125l0 8.609375l-2.375 0l0 -8.515625q0 -1.453125 -0.28125 -2.171875q-0.265625 -0.71875 -0.984375 -1.140625q-0.703125 -0.4375 -1.640625 -0.4375q-1.515625 0 -2.625 0.96875q-1.09375 0.953125 -1.09375 3.65625l0 7.640625l-2.375 0zm14.387421 1.15625l2.3125 0.34375q0.140625 1.078125 0.796875 1.5625q0.890625 0.65625 2.421875 0.65625q1.640625 0 2.53125 -0.65625q0.90625 -0.65625 1.21875 -1.84375q0.1875 -0.734375 0.171875 -3.046875q-1.5625 1.828125 -3.875 1.828125q-2.890625 0 -4.46875 -2.078125q-1.578125 -2.09375 -1.578125 -5.0q0 -2.0 0.71875 -3.6875q0.734375 -1.703125 2.109375 -2.625q1.375 -0.921875 3.234375 -0.921875q2.46875 0 4.078125 2.0l0 -1.6875l2.1875 0l0 12.09375q0 3.28125 -0.671875 4.640625q-0.65625 1.359375 -2.109375 2.15625q-1.4375 0.796875 -3.546875 0.796875q-2.5 0 -4.046875 -1.140625q-1.53125 -1.125 -1.484375 -3.390625zm1.96875 -8.40625q0 2.75 1.09375 4.015625q1.09375 1.265625 2.734375 1.265625q1.640625 0 2.75 -1.25q1.109375 -1.265625 1.109375 -3.953125q0 -2.578125 -1.140625 -3.875q-1.140625 -1.3125 -2.75 -1.3125q-1.578125 0 -2.6875 1.296875q-1.109375 1.28125 -1.109375 3.8125zm22.871826 2.734375l2.453125 0.3125q-0.578125 2.140625 -2.15625 3.328125q-1.5625 1.1875 -4.0 1.1875q-3.0625 0 -4.875 -1.890625q-1.796875 -1.890625 -1.796875 -5.296875q0 -3.546875 1.8125 -5.484375q1.828125 -1.953125 4.734375 -1.953125q2.8125 0 4.578125 1.90625q1.78125 1.90625 1.78125 5.375q0 0.21875 -0.015625 0.640625l-10.4375 0q0.140625 2.296875 1.3125 3.53125q1.171875 1.21875 2.921875 1.21875q1.3125 0 2.234375 -0.671875q0.921875 -0.6875 1.453125 -2.203125zm-7.78125 -3.828125l7.8125 0q-0.15625 -1.765625 -0.890625 -2.65625q-1.140625 -1.359375 -2.953125 -1.359375q-1.625 0 -2.75 1.09375q-1.109375 1.09375 -1.21875 2.921875zm22.10617 8.34375l0 -1.765625q-1.328125 2.078125 -3.90625 2.078125q-1.671875 0 -3.078125 -0.921875q-1.40625 -0.921875 -2.1875 -2.578125q-0.765625 -1.65625 -0.765625 -3.796875q0 -2.09375 0.703125 -3.796875q0.703125 -1.71875 2.09375 -2.625q1.390625 -0.90625 3.125 -0.90625q1.265625 0 2.25 0.53125q0.984375 0.53125 1.609375 1.390625l0 -6.9375l2.359375 0l0 19.328125l-2.203125 0zm-7.5 -6.984375q0 2.6875 1.125 4.015625q1.140625 1.328125 2.6875 1.328125q1.5625 0 2.640625 -1.265625q1.09375 -1.265625 1.09375 -3.890625q0 -2.859375 -1.109375 -4.203125q-1.109375 -1.359375 -2.734375 -1.359375q-1.578125 0 -2.640625 1.296875q-1.0625 1.296875 -1.0625 4.078125zm27.340576 0.203125l2.5625 0.65625q-0.8125 3.140625 -2.90625 4.796875q-2.078125 1.65625 -5.109375 1.65625q-3.125 0 -5.078125 -1.265625q-1.953125 -1.28125 -2.984375 -3.6875q-1.015625 -2.421875 -1.015625 -5.1875q0 -3.015625 1.15625 -5.265625q1.15625 -2.25 3.28125 -3.40625q2.125 -1.171875 4.6875 -1.171875q2.90625 0 4.875 1.484375q1.984375 1.46875 2.75 4.140625l-2.515625 0.59375q-0.671875 -2.109375 -1.953125 -3.0625q-1.265625 -0.96875 -3.203125 -0.96875q-2.234375 0 -3.734375 1.078125q-1.5 1.0625 -2.109375 2.859375q-0.59375 1.796875 -0.59375 3.703125q0 2.46875 0.71875 4.3125q0.71875 1.84375 2.234375 2.75q1.515625 0.90625 3.28125 0.90625q2.140625 0 3.625 -1.234375q1.5 -1.25 2.03125 -3.6875zm14.29715 5.046875q-1.328125 1.125 -2.546875 1.59375q-1.21875 0.453125 -2.609375 0.453125q-2.3125 0 -3.5625 -1.125q-1.234375 -1.125 -1.234375 -2.875q0 -1.03125 0.46875 -1.875q0.46875 -0.859375 1.21875 -1.375q0.765625 -0.515625 1.71875 -0.78125q0.703125 -0.171875 2.109375 -0.34375q2.875 -0.34375 4.234375 -0.828125q0.015625 -0.484375 0.015625 -0.609375q0 -1.453125 -0.671875 -2.046875q-0.90625 -0.8125 -2.703125 -0.8125q-1.671875 0 -2.46875 0.59375q-0.796875 0.578125 -1.1875 2.078125l-2.3125 -0.3125q0.3125 -1.5 1.03125 -2.40625q0.734375 -0.921875 2.09375 -1.40625q1.375 -0.5 3.1875 -0.5q1.796875 0 2.90625 0.421875q1.125 0.421875 1.640625 1.0625q0.53125 0.640625 0.75 1.609375q0.125 0.609375 0.125 2.1875l0 3.171875q0 3.296875 0.140625 4.1875q0.15625 0.875 0.609375 1.671875l-2.484375 0q-0.375 -0.734375 -0.46875 -1.734375zm-0.203125 -5.296875q-1.296875 0.53125 -3.875 0.90625q-1.46875 0.203125 -2.078125 0.46875q-0.59375 0.265625 -0.9375 0.78125q-0.328125 0.5 -0.328125 1.125q0 0.9375 0.71875 1.578125q0.71875 0.625 2.109375 0.625q1.375 0 2.4375 -0.59375q1.0625 -0.609375 1.578125 -1.640625q0.375 -0.8125 0.375 -2.375l0 -0.875zm5.8405457 7.03125l0 -19.328125l2.359375 0l0 19.328125l-2.359375 0zm5.92218 0l0 -19.328125l2.359375 0l0 19.328125l-2.359375 0zm8.156555 0l-2.203125 0l0 -19.328125l2.375 0l0 6.890625q1.5 -1.875 3.828125 -1.875q1.296875 0 2.453125 0.515625q1.15625 0.515625 1.890625 1.46875q0.75 0.9375 1.171875 2.265625q0.421875 1.328125 0.421875 2.84375q0 3.609375 -1.78125 5.578125q-1.78125 1.953125 -4.265625 1.953125q-2.484375 0 -3.890625 -2.0625l0 1.75zm-0.03125 -7.109375q0 2.515625 0.6875 3.640625q1.125 1.828125 3.03125 1.828125q1.5625 0 2.6875 -1.34375q1.140625 -1.359375 1.140625 -4.03125q0 -2.734375 -1.09375 -4.03125q-1.078125 -1.3125 -2.625 -1.3125q-1.5625 0 -2.703125 1.359375q-1.125 1.34375 -1.125 3.890625zm21.809296 5.375q-1.328125 1.125 -2.546875 1.59375q-1.21875 0.453125 -2.609375 0.453125q-2.3125 0 -3.5625 -1.125q-1.234375 -1.125 -1.234375 -2.875q0 -1.03125 0.46875 -1.875q0.46875 -0.859375 1.21875 -1.375q0.765625 -0.515625 1.71875 -0.78125q0.703125 -0.171875 2.109375 -0.34375q2.875 -0.34375 4.234375 -0.828125q0.015625 -0.484375 0.015625 -0.609375q0 -1.453125 -0.671875 -2.046875q-0.90625 -0.8125 -2.703125 -0.8125q-1.671875 0 -2.46875 0.59375q-0.796875 0.578125 -1.1875 2.078125l-2.3125 -0.3125q0.3125 -1.5 1.03125 -2.40625q0.734375 -0.921875 2.09375 -1.40625q1.375 -0.5 3.1875 -0.5q1.796875 0 2.90625 0.421875q1.125 0.421875 1.640625 1.0625q0.53125 0.640625 0.75 1.609375q0.125 0.609375 0.125 2.1875l0 3.171875q0 3.296875 0.140625 4.1875q0.15625 0.875 0.609375 1.671875l-2.484375 0q-0.375 -0.734375 -0.46875 -1.734375zm-0.203125 -5.296875q-1.296875 0.53125 -3.875 0.90625q-1.46875 0.203125 -2.078125 0.46875q-0.59375 0.265625 -0.9375 0.78125q-0.328125 0.5 -0.328125 1.125q0 0.9375 0.71875 1.578125q0.71875 0.625 2.109375 0.625q1.375 0 2.4375 -0.59375q1.0625 -0.609375 1.578125 -1.640625q0.375 -0.8125 0.375 -2.375l0 -0.875zm15.028046 1.90625l2.328125 0.296875q-0.375 2.421875 -1.953125 3.78125q-1.578125 1.359375 -3.875 1.359375q-2.875 0 -4.625 -1.875q-1.734375 -1.875 -1.734375 -5.390625q0 -2.265625 0.75 -3.953125q0.75 -1.703125 2.28125 -2.546875q1.53125 -0.859375 3.34375 -0.859375q2.28125 0 3.71875 1.15625q1.453125 1.140625 1.875 3.265625l-2.3125 0.359375q-0.328125 -1.40625 -1.171875 -2.109375q-0.828125 -0.71875 -2.015625 -0.71875q-1.796875 0 -2.921875 1.28125q-1.109375 1.28125 -1.109375 4.0625q0 2.828125 1.078125 4.109375q1.078125 1.265625 2.8125 1.265625q1.40625 0 2.34375 -0.84375q0.9375 -0.859375 1.1875 -2.640625zm4.203125 5.125l0 -19.328125l2.375 0l0 11.015625l5.609375 -5.6875l3.078125 0l-5.359375 5.1875l5.890625 8.8125l-2.921875 0l-4.625 -7.15625l-1.671875 1.609375l0 5.546875l-2.375 0zm17.84375 5.6875q-1.96875 -2.484375 -3.328125 -5.796875q-1.34375 -3.328125 -1.34375 -6.890625q0 -3.140625 1.015625 -6.015625q1.1875 -3.328125 3.65625 -6.640625l1.703125 0q-1.59375 2.734375 -2.109375 3.921875q-0.796875 1.8125 -1.265625 3.796875q-0.5625 2.453125 -0.5625 4.953125q0 6.34375 3.9375 12.671875l-1.703125 0zm5.8923645 0l-1.6875 0q3.9375 -6.328125 3.9375 -12.671875q0 -2.484375 -0.5625 -4.921875q-0.453125 -1.96875 -1.265625 -3.796875q-0.5 -1.1875 -2.109375 -3.953125l1.6875 0q2.484375 3.3125 3.671875 6.640625q1.015625 2.875 1.015625 6.015625q0 3.5625 -1.375 6.890625q-1.359375 3.3125 -3.3125 5.796875z" fill-rule="nonzero"></path><path fill="#000000" d="m144.25 670.99176q1.453125 0 2.84375 0.75q1.40625 0.75 2.1875 2.15625q0.78125 1.390625 0.78125 2.890625q0 2.421875 -1.703125 4.125q-1.703125 1.6875 -4.109375 1.6875q-2.40625 0 -4.109375 -1.6875q-1.703125 -1.703125 -1.703125 -4.125q0 -1.515625 0.78125 -2.90625q0.78125 -1.390625 2.171875 -2.140625q1.40625 -0.75 2.859375 -0.75z" fill-rule="nonzero"></path><path fill="#000000" d="m187.1161 679.28864l2.328125 0.296875q-0.375 2.421875 -1.953125 3.78125q-1.578125 1.359375 -3.875 1.359375q-2.875 0 -4.625 -1.875q-1.734375 -1.875 -1.734375 -5.390625q0 -2.265625 0.75 -3.953125q0.75 -1.703125 2.28125 -2.546875q1.53125 -0.859375 3.34375 -0.859375q2.28125 0 3.71875 1.15625q1.453125 1.140625 1.875 3.265625l-2.3125 0.359375q-0.328125 -1.40625 -1.171875 -2.109375q-0.828125 -0.71875 -2.015625 -0.71875q-1.796875 0 -2.921875 1.28125q-1.109375 1.28125 -1.109375 4.0625q0 2.828125 1.078125 4.109375q1.078125 1.265625 2.8125 1.265625q1.40625 0 2.34375 -0.84375q0.9375 -0.859375 1.1875 -2.640625zm3.296875 -1.875q0 -3.890625 2.171875 -5.765625q1.796875 -1.546875 4.40625 -1.546875q2.875 0 4.703125 1.890625q1.84375 1.890625 1.84375 5.21875q0 2.703125 -0.8125 4.265625q-0.8125 1.546875 -2.359375 2.40625q-1.546875 0.84375 -3.375 0.84375q-2.953125 0 -4.765625 -1.875q-1.8125 -1.890625 -1.8125 -5.4375zm2.4375 0q0 2.6875 1.171875 4.03125q1.1875 1.328125 2.96875 1.328125q1.765625 0 2.9375 -1.34375q1.171875 -1.34375 1.171875 -4.09375q0 -2.59375 -1.1875 -3.9375q-1.171875 -1.34375 -2.921875 -1.34375q-1.78125 0 -2.96875 1.34375q-1.171875 1.328125 -1.171875 4.015625zm13.278061 7.0l0 -14.0l2.140625 0l0 1.984375q1.53125 -2.296875 4.453125 -2.296875q1.265625 0 2.328125 0.453125q1.0625 0.453125 1.578125 1.1875q0.53125 0.734375 0.75 1.75q0.125 0.671875 0.125 2.3125l0 8.609375l-2.375 0l0 -8.515625q0 -1.453125 -0.28125 -2.171875q-0.265625 -0.71875 -0.984375 -1.140625q-0.703125 -0.4375 -1.640625 -0.4375q-1.515625 0 -2.625 0.96875q-1.09375 0.953125 -1.09375 3.65625l0 7.640625l-2.375 0zm14.824936 0l0 -14.0l2.140625 0l0 1.984375q1.53125 -2.296875 4.453125 -2.296875q1.265625 0 2.328125 0.453125q1.0625 0.453125 1.578125 1.1875q0.53125 0.734375 0.75 1.75q0.125 0.671875 0.125 2.3125l0 8.609375l-2.375 0l0 -8.515625q0 -1.453125 -0.28125 -2.171875q-0.265625 -0.71875 -0.984375 -1.140625q-0.703125 -0.4375 -1.640625 -0.4375q-1.515625 0 -2.625 0.96875q-1.09375 0.953125 -1.09375 3.65625l0 7.640625l-2.375 0zm24.40306 -4.515625l2.453125 0.3125q-0.578125 2.140625 -2.15625 3.328125q-1.5625 1.1875 -4.0 1.1875q-3.0625 0 -4.875 -1.890625q-1.796875 -1.890625 -1.796875 -5.296875q0 -3.546875 1.8125 -5.484375q1.828125 -1.953125 4.734375 -1.953125q2.8125 0 4.578125 1.90625q1.78125 1.90625 1.78125 5.375q0 0.21875 -0.015625 0.640625l-10.4375 0q0.140625 2.296875 1.3125 3.53125q1.171875 1.21875 2.921875 1.21875q1.3125 0 2.234375 -0.671875q0.921875 -0.6875 1.453125 -2.203125zm-7.78125 -3.828125l7.8125 0q-0.15625 -1.765625 -0.890625 -2.65625q-1.140625 -1.359375 -2.953125 -1.359375q-1.625 0 -2.75 1.09375q-1.109375 1.09375 -1.21875 2.921875zm22.16867 3.21875l2.328125 0.296875q-0.375 2.421875 -1.953125 3.78125q-1.578125 1.359375 -3.875 1.359375q-2.8749847 0 -4.6249847 -1.875q-1.734375 -1.875 -1.734375 -5.390625q0 -2.265625 0.75 -3.953125q0.75 -1.703125 2.28125 -2.546875q1.53125 -0.859375 3.3437347 -0.859375q2.28125 0 3.71875 1.15625q1.453125 1.140625 1.875 3.265625l-2.3125 0.359375q-0.328125 -1.40625 -1.171875 -2.109375q-0.828125 -0.71875 -2.015625 -0.71875q-1.7968597 0 -2.9218597 1.28125q-1.109375 1.28125 -1.109375 4.0625q0 2.828125 1.078125 4.109375q1.078125 1.265625 2.8124847 1.265625q1.40625 0 2.34375 -0.84375q0.9375 -0.859375 1.1875 -2.640625zm9.375 3.0l0.328125 2.09375q-1.0 0.21875 -1.78125 0.21875q-1.296875 0 -2.015625 -0.40625q-0.703125 -0.421875 -1.0 -1.078125q-0.28125 -0.671875 -0.28125 -2.796875l0 -8.0625l-1.75 0l0 -1.84375l1.75 0l0 -3.46875l2.359375 -1.421875l0 4.890625l2.390625 0l0 1.84375l-2.390625 0l0 8.1875q0 1.015625 0.125 1.3125q0.125 0.28125 0.40625 0.453125q0.28125 0.171875 0.8125 0.171875q0.390625 0 1.046875 -0.09375zm11.7966 -2.390625l2.453125 0.3125q-0.578125 2.140625 -2.15625 3.328125q-1.5625 1.1875 -4.0 1.1875q-3.0625 0 -4.875 -1.890625q-1.796875 -1.890625 -1.796875 -5.296875q0 -3.546875 1.8125 -5.484375q1.828125 -1.953125 4.734375 -1.953125q2.8125 0 4.578125 1.90625q1.78125 1.90625 1.78125 5.375q0 0.21875 -0.015625 0.640625l-10.4375 0q0.140625 2.296875 1.3125 3.53125q1.171875 1.21875 2.921875 1.21875q1.3125 0 2.234375 -0.671875q0.921875 -0.6875 1.453125 -2.203125zm-7.78125 -3.828125l7.8125 0q-0.15625 -1.765625 -0.890625 -2.65625q-1.140625 -1.359375 -2.953125 -1.359375q-1.625 0 -2.75 1.09375q-1.109375 1.09375 -1.21875 2.921875zm22.10617 8.34375l0 -1.765625q-1.328125 2.078125 -3.90625 2.078125q-1.671875 0 -3.078125 -0.921875q-1.40625 -0.921875 -2.1875 -2.578125q-0.765625 -1.65625 -0.765625 -3.796875q0 -2.09375 0.703125 -3.796875q0.703125 -1.71875 2.09375 -2.625q1.390625 -0.90625 3.125 -0.90625q1.265625 0 2.25 0.53125q0.984375 0.53125 1.609375 1.390625l0 -6.9375l2.359375 0l0 19.328125l-2.203125 0zm-7.5 -6.984375q0 2.6875 1.125 4.015625q1.140625 1.328125 2.6875 1.328125q1.5625 0 2.640625 -1.265625q1.09375 -1.265625 1.09375 -3.890625q0 -2.859375 -1.109375 -4.203125q-1.109375 -1.359375 -2.734375 -1.359375q-1.578125 0 -2.640625 1.296875q-1.0625 1.296875 -1.0625 4.078125zm27.340576 0.203125l2.5625 0.65625q-0.8125 3.140625 -2.90625 4.796875q-2.078125 1.65625 -5.109375 1.65625q-3.125 0 -5.078125 -1.265625q-1.953125 -1.28125 -2.984375 -3.6875q-1.015625 -2.421875 -1.015625 -5.1875q0 -3.015625 1.15625 -5.265625q1.15625 -2.25 3.28125 -3.40625q2.125 -1.171875 4.6875 -1.171875q2.90625 0 4.875 1.484375q1.984375 1.46875 2.75 4.140625l-2.515625 0.59375q-0.671875 -2.109375 -1.953125 -3.0625q-1.265625 -0.96875 -3.203125 -0.96875q-2.234375 0 -3.734375 1.078125q-1.5 1.0625 -2.109375 2.859375q-0.59375 1.796875 -0.59375 3.703125q0 2.46875 0.71875 4.3125q0.71875 1.84375 2.234375 2.75q1.515625 0.90625 3.28125 0.90625q2.140625 0 3.625 -1.234375q1.5 -1.25 2.03125 -3.6875zm14.29715 5.046875q-1.328125 1.125 -2.546875 1.59375q-1.21875 0.453125 -2.609375 0.453125q-2.3125 0 -3.5625 -1.125q-1.234375 -1.125 -1.234375 -2.875q0 -1.03125 0.46875 -1.875q0.46875 -0.859375 1.21875 -1.375q0.765625 -0.515625 1.71875 -0.78125q0.703125 -0.171875 2.109375 -0.34375q2.875 -0.34375 4.234375 -0.828125q0.015625 -0.484375 0.015625 -0.609375q0 -1.453125 -0.671875 -2.046875q-0.90625 -0.8125 -2.703125 -0.8125q-1.671875 0 -2.46875 0.59375q-0.796875 0.578125 -1.1875 2.078125l-2.3125 -0.3125q0.3125 -1.5 1.03125 -2.40625q0.734375 -0.921875 2.09375 -1.40625q1.375 -0.5 3.1875 -0.5q1.796875 0 2.90625 0.421875q1.125 0.421875 1.640625 1.0625q0.53125 0.640625 0.75 1.609375q0.125 0.609375 0.125 2.1875l0 3.171875q0 3.296875 0.140625 4.1875q0.15625 0.875 0.609375 1.671875l-2.484375 0q-0.375 -0.734375 -0.46875 -1.734375zm-0.203125 -5.296875q-1.296875 0.53125 -3.875 0.90625q-1.46875 0.203125 -2.078125 0.46875q-0.59375 0.265625 -0.9375 0.78125q-0.328125 0.5 -0.328125 1.125q0 0.9375 0.71875 1.578125q0.71875 0.625 2.109375 0.625q1.375 0 2.4375 -0.59375q1.0625 -0.609375 1.578125 -1.640625q0.375 -0.8125 0.375 -2.375l0 -0.875zm5.840576 7.03125l0 -19.328125l2.359375 0l0 19.328125l-2.359375 0zm5.9221497 0l0 -19.328125l2.359375 0l0 19.328125l-2.359375 0zm8.156555 0l-2.203125 0l0 -19.328125l2.375 0l0 6.890625q1.5 -1.875 3.828125 -1.875q1.296875 0 2.453125 0.515625q1.15625 0.515625 1.890625 1.46875q0.75 0.9375 1.171875 2.265625q0.421875 1.328125 0.421875 2.84375q0 3.609375 -1.78125 5.578125q-1.78125 1.953125 -4.265625 1.953125q-2.484375 0 -3.890625 -2.0625l0 1.75zm-0.03125 -7.109375q0 2.515625 0.6875 3.640625q1.125 1.828125 3.03125 1.828125q1.5625 0 2.6875 -1.34375q1.140625 -1.359375 1.140625 -4.03125q0 -2.734375 -1.09375 -4.03125q-1.078125 -1.3125 -2.625 -1.3125q-1.5625 0 -2.703125 1.359375q-1.125 1.34375 -1.125 3.890625zm21.809296 5.375q-1.328125 1.125 -2.546875 1.59375q-1.21875 0.453125 -2.609375 0.453125q-2.3125 0 -3.5625 -1.125q-1.234375 -1.125 -1.234375 -2.875q0 -1.03125 0.46875 -1.875q0.46875 -0.859375 1.21875 -1.375q0.765625 -0.515625 1.71875 -0.78125q0.703125 -0.171875 2.109375 -0.34375q2.875 -0.34375 4.234375 -0.828125q0.015625 -0.484375 0.015625 -0.609375q0 -1.453125 -0.671875 -2.046875q-0.90625 -0.8125 -2.703125 -0.8125q-1.671875 0 -2.46875 0.59375q-0.796875 0.578125 -1.1875 2.078125l-2.3125 -0.3125q0.3125 -1.5 1.03125 -2.40625q0.734375 -0.921875 2.09375 -1.40625q1.375 -0.5 3.1875 -0.5q1.796875 0 2.90625 0.421875q1.125 0.421875 1.640625 1.0625q0.53125 0.640625 0.75 1.609375q0.125 0.609375 0.125 2.1875l0 3.171875q0 3.296875 0.140625 4.1875q0.15625 0.875 0.609375 1.671875l-2.484375 0q-0.375 -0.734375 -0.46875 -1.734375zm-0.203125 -5.296875q-1.296875 0.53125 -3.875 0.90625q-1.46875 0.203125 -2.078125 0.46875q-0.59375 0.265625 -0.9375 0.78125q-0.328125 0.5 -0.328125 1.125q0 0.9375 0.71875 1.578125q0.71875 0.625 2.109375 0.625q1.375 0 2.4375 -0.59375q1.0625 -0.609375 1.578125 -1.640625q0.375 -0.8125 0.375 -2.375l0 -0.875zm15.028046 1.90625l2.328125 0.296875q-0.375 2.421875 -1.953125 3.78125q-1.578125 1.359375 -3.875 1.359375q-2.875 0 -4.625 -1.875q-1.734375 -1.875 -1.734375 -5.390625q0 -2.265625 0.75 -3.953125q0.75 -1.703125 2.28125 -2.546875q1.53125 -0.859375 3.34375 -0.859375q2.28125 0 3.71875 1.15625q1.453125 1.140625 1.875 3.265625l-2.3125 0.359375q-0.328125 -1.40625 -1.171875 -2.109375q-0.828125 -0.71875 -2.015625 -0.71875q-1.796875 0 -2.921875 1.28125q-1.109375 1.28125 -1.109375 4.0625q0 2.828125 1.078125 4.109375q1.078125 1.265625 2.8125 1.265625q1.40625 0 2.34375 -0.84375q0.9375 -0.859375 1.1875 -2.640625zm4.203125 5.125l0 -19.328125l2.375 0l0 11.015625l5.609375 -5.6875l3.078125 0l-5.359375 5.1875l5.890625 8.8125l-2.921875 0l-4.625 -7.15625l-1.671875 1.609375l0 5.546875l-2.375 0zm17.84375 5.6875q-1.96875 -2.484375 -3.328125 -5.796875q-1.34375 -3.328125 -1.34375 -6.890625q0 -3.140625 1.015625 -6.015625q1.1875 -3.328125 3.65625 -6.640625l1.703125 0q-1.59375 2.734375 -2.109375 3.921875q-0.796875 1.8125 -1.265625 3.796875q-0.5625 2.453125 -0.5625 4.953125q0 6.34375 3.9375 12.671875l-1.703125 0zm5.892395 0l-1.6875 0q3.9375 -6.328125 3.9375 -12.671875q0 -2.484375 -0.5625 -4.921875q-0.453125 -1.96875 -1.265625 -3.796875q-0.5 -1.1875 -2.109375 -3.953125l1.6875 0q2.484375 3.3125 3.671875 6.640625q1.015625 2.875 1.015625 6.015625q0 3.5625 -1.375 6.890625q-1.359375 3.3125 -3.3125 5.796875z" fill-rule="nonzero"></path><path fill="#000000" d="m144.25 707.99176q1.453125 0 2.84375 0.75q1.40625 0.75 2.1875 2.15625q0.78125 1.390625 0.78125 2.890625q0 2.421875 -1.703125 4.125q-1.703125 1.6875 -4.109375 1.6875q-2.40625 0 -4.109375 -1.6875q-1.703125 -1.703125 -1.703125 -4.125q0 -1.515625 0.78125 -2.90625q0.78125 -1.390625 2.171875 -2.140625q1.40625 -0.75 2.859375 -0.75z" fill-rule="nonzero"></path><path fill="#000000" d="m187.0536 721.41364l0 -1.765625q-1.328125 2.078125 -3.90625 2.078125q-1.671875 0 -3.078125 -0.921875q-1.40625 -0.921875 -2.1875 -2.578125q-0.765625 -1.65625 -0.765625 -3.796875q0 -2.09375 0.703125 -3.796875q0.703125 -1.71875 2.09375 -2.625q1.390625 -0.90625 3.125 -0.90625q1.265625 0 2.25 0.53125q0.984375 0.53125 1.609375 1.390625l0 -6.9375l2.359375 0l0 19.328125l-2.203125 0zm-7.5 -6.984375q0 2.6875 1.125 4.015625q1.140625 1.328125 2.6875 1.328125q1.5625 0 2.640625 -1.265625q1.09375 -1.265625 1.09375 -3.890625q0 -2.859375 -1.109375 -4.203125q-1.109375 -1.359375 -2.734375 -1.359375q-1.578125 0 -2.640625 1.296875q-1.0625 1.296875 -1.0625 4.078125zm13.262436 -9.609375l0 -2.734375l2.375 0l0 2.734375l-2.375 0zm0 16.59375l0 -14.0l2.375 0l0 14.0l-2.375 0zm4.953415 -4.171875l2.34375 -0.375q0.203125 1.40625 1.109375 2.15625q0.90625 0.75 2.515625 0.75q1.640625 0 2.421875 -0.65625q0.796875 -0.671875 0.796875 -1.5625q0 -0.8125 -0.6875 -1.265625q-0.5 -0.3125 -2.4375 -0.8125q-2.609375 -0.65625 -3.625 -1.125q-1.0 -0.484375 -1.53125 -1.328125q-0.515625 -0.859375 -0.515625 -1.890625q0 -0.9375 0.421875 -1.734375q0.4375 -0.796875 1.1875 -1.328125q0.546875 -0.40625 1.5 -0.6875q0.953125 -0.28125 2.046875 -0.28125q1.65625 0 2.890625 0.46875q1.25 0.46875 1.84375 1.28125q0.59375 0.8125 0.828125 2.171875l-2.328125 0.3125q-0.15625 -1.078125 -0.921875 -1.671875q-0.75 -0.609375 -2.140625 -0.609375q-1.625 0 -2.328125 0.546875q-0.703125 0.53125 -0.703125 1.25q0 0.46875 0.296875 0.828125q0.28125 0.390625 0.90625 0.640625q0.359375 0.125 2.09375 0.609375q2.515625 0.671875 3.515625 1.09375q1.0 0.421875 1.5625 1.25q0.5625 0.8125 0.5625 2.03125q0 1.1875 -0.6875 2.234375q-0.6875 1.046875 -2.0 1.625q-1.296875 0.5625 -2.953125 0.5625q-2.71875 0 -4.15625 -1.125q-1.4375 -1.140625 -1.828125 -3.359375zm23.421875 -0.953125l2.328125 0.296875q-0.375 2.421875 -1.953125 3.78125q-1.578125 1.359375 -3.875 1.359375q-2.875 0 -4.625 -1.875q-1.734375 -1.875 -1.734375 -5.390625q0 -2.265625 0.75 -3.953125q0.75 -1.703125 2.28125 -2.546875q1.53125 -0.859375 3.34375 -0.859375q2.28125 0 3.71875 1.15625q1.453125 1.140625 1.875 3.265625l-2.3125 0.359375q-0.328125 -1.40625 -1.171875 -2.109375q-0.828125 -0.71875 -2.015625 -0.71875q-1.796875 0 -2.921875 1.28125q-1.109375 1.28125 -1.109375 4.0625q0 2.828125 1.078125 4.109375q1.078125 1.265625 2.8125 1.265625q1.40625 0 2.34375 -0.84375q0.9375 -0.859375 1.1875 -2.640625zm3.296875 -1.875q0 -3.890625 2.171875 -5.765625q1.796875 -1.546875 4.40625 -1.546875q2.875 0 4.703125 1.890625q1.84375 1.890625 1.84375 5.21875q0 2.703125 -0.8125 4.265625q-0.8125 1.546875 -2.359375 2.40625q-1.546875 0.84375 -3.375 0.84375q-2.953125 0 -4.765625 -1.875q-1.8125 -1.890625 -1.8125 -5.4375zm2.4375 0q0 2.6875 1.171875 4.03125q1.1875 1.328125 2.96875 1.328125q1.765625 0 2.9375 -1.34375q1.171875 -1.34375 1.171875 -4.09375q0 -2.59375 -1.1875 -3.9375q-1.171875 -1.34375 -2.921875 -1.34375q-1.78125 0 -2.96875 1.34375q-1.171875 1.328125 -1.171875 4.015625zm13.278061 7.0l0 -14.0l2.140625 0l0 1.984375q1.53125 -2.296875 4.453125 -2.296875q1.265625 0 2.328125 0.453125q1.0625 0.453125 1.578125 1.1875q0.53125 0.734375 0.75 1.75q0.125 0.671875 0.125 2.3125l0 8.609375l-2.375 0l0 -8.515625q0 -1.453125 -0.28125 -2.171875q-0.265625 -0.71875 -0.984375 -1.140625q-0.703125 -0.4375 -1.640625 -0.4375q-1.515625 0 -2.625 0.96875q-1.09375 0.953125 -1.09375 3.65625l0 7.640625l-2.375 0zm14.824936 0l0 -14.0l2.1406097 0l0 1.984375q1.53125 -2.296875 4.453125 -2.296875q1.265625 0 2.328125 0.453125q1.0625 0.453125 1.578125 1.1875q0.53125 0.734375 0.75 1.75q0.125 0.671875 0.125 2.3125l0 8.609375l-2.375 0l0 -8.515625q0 -1.453125 -0.28125 -2.171875q-0.265625 -0.71875 -0.984375 -1.140625q-0.703125 -0.4375 -1.640625 -0.4375q-1.515625 0 -2.625 0.96875q-1.09375 0.953125 -1.09375 3.65625l0 7.640625l-2.3749847 0zm24.40306 -4.515625l2.453125 0.3125q-0.578125 2.140625 -2.15625 3.328125q-1.5625 1.1875 -4.0 1.1875q-3.0625 0 -4.875 -1.890625q-1.796875 -1.890625 -1.796875 -5.296875q0 -3.546875 1.8125 -5.484375q1.828125 -1.953125 4.734375 -1.953125q2.8125 0 4.578125 1.90625q1.78125 1.90625 1.78125 5.375q0 0.21875 -0.015625 0.640625l-10.4375 0q0.140625 2.296875 1.3125 3.53125q1.171875 1.21875 2.921875 1.21875q1.3125 0 2.234375 -0.671875q0.921875 -0.6875 1.453125 -2.203125zm-7.78125 -3.828125l7.8125 0q-0.15625 -1.765625 -0.890625 -2.65625q-1.140625 -1.359375 -2.953125 -1.359375q-1.625 0 -2.75 1.09375q-1.109375 1.09375 -1.21875 2.921875zm22.16867 3.21875l2.328125 0.296875q-0.375 2.421875 -1.953125 3.78125q-1.578125 1.359375 -3.875 1.359375q-2.875 0 -4.625 -1.875q-1.734375 -1.875 -1.734375 -5.390625q0 -2.265625 0.75 -3.953125q0.75 -1.703125 2.28125 -2.546875q1.53125 -0.859375 3.34375 -0.859375q2.28125 0 3.71875 1.15625q1.453125 1.140625 1.875 3.265625l-2.3125 0.359375q-0.328125 -1.40625 -1.171875 -2.109375q-0.828125 -0.71875 -2.015625 -0.71875q-1.796875 0 -2.921875 1.28125q-1.109375 1.28125 -1.109375 4.0625q0 2.828125 1.078125 4.109375q1.078125 1.265625 2.8125 1.265625q1.40625 0 2.34375 -0.84375q0.9375 -0.859375 1.1875 -2.640625zm9.375 3.0l0.328125 2.09375q-1.0 0.21875 -1.78125 0.21875q-1.296875 0 -2.015625 -0.40625q-0.703125 -0.421875 -1.0 -1.078125q-0.28125 -0.671875 -0.28125 -2.796875l0 -8.0625l-1.75 0l0 -1.84375l1.75 0l0 -3.46875l2.359375 -1.421875l0 4.890625l2.390625 0l0 1.84375l-2.390625 0l0 8.1875q0 1.015625 0.125 1.3125q0.125 0.28125 0.40625 0.453125q0.28125 0.171875 0.8125 0.171875q0.390625 0 1.046875 -0.09375zm11.7966 -2.390625l2.453125 0.3125q-0.578125 2.140625 -2.15625 3.328125q-1.5625 1.1875 -4.0 1.1875q-3.0625 0 -4.875 -1.890625q-1.796875 -1.890625 -1.796875 -5.296875q0 -3.546875 1.8125 -5.484375q1.828125 -1.953125 4.734375 -1.953125q2.8125 0 4.578125 1.90625q1.78125 1.90625 1.78125 5.375q0 0.21875 -0.015625 0.640625l-10.4375 0q0.140625 2.296875 1.3125 3.53125q1.171875 1.21875 2.921875 1.21875q1.3125 0 2.234375 -0.671875q0.921875 -0.6875 1.453125 -2.203125zm-7.78125 -3.828125l7.8125 0q-0.15625 -1.765625 -0.890625 -2.65625q-1.140625 -1.359375 -2.953125 -1.359375q-1.625 0 -2.75 1.09375q-1.109375 1.09375 -1.21875 2.921875zm22.10617 8.34375l0 -1.765625q-1.328125 2.078125 -3.90625 2.078125q-1.671875 0 -3.078125 -0.921875q-1.40625 -0.921875 -2.1875 -2.578125q-0.765625 -1.65625 -0.765625 -3.796875q0 -2.09375 0.703125 -3.796875q0.703125 -1.71875 2.09375 -2.625q1.390625 -0.90625 3.125 -0.90625q1.265625 0 2.25 0.53125q0.984375 0.53125 1.609375 1.390625l0 -6.9375l2.359375 0l0 19.328125l-2.203125 0zm-7.5 -6.984375q0 2.6875 1.125 4.015625q1.140625 1.328125 2.6875 1.328125q1.5625 0 2.640625 -1.265625q1.09375 -1.265625 1.09375 -3.890625q0 -2.859375 -1.109375 -4.203125q-1.109375 -1.359375 -2.734375 -1.359375q-1.578125 0 -2.640625 1.296875q-1.0625 1.296875 -1.0625 4.078125zm27.340576 0.203125l2.5625 0.65625q-0.8125 3.140625 -2.90625 4.796875q-2.078125 1.65625 -5.109375 1.65625q-3.125 0 -5.078125 -1.265625q-1.953125 -1.28125 -2.984375 -3.6875q-1.015625 -2.421875 -1.015625 -5.1875q0 -3.015625 1.15625 -5.265625q1.15625 -2.25 3.28125 -3.40625q2.125 -1.171875 4.6875 -1.171875q2.90625 0 4.875 1.484375q1.984375 1.46875 2.75 4.140625l-2.515625 0.59375q-0.671875 -2.109375 -1.953125 -3.0625q-1.265625 -0.96875 -3.203125 -0.96875q-2.234375 0 -3.734375 1.078125q-1.5 1.0625 -2.109375 2.859375q-0.59375 1.796875 -0.59375 3.703125q0 2.46875 0.71875 4.3125q0.71875 1.84375 2.234375 2.75q1.515625 0.90625 3.28125 0.90625q2.140625 0 3.625 -1.234375q1.5 -1.25 2.03125 -3.6875zm14.29715 5.046875q-1.328125 1.125 -2.546875 1.59375q-1.21875 0.453125 -2.609375 0.453125q-2.3125 0 -3.5625 -1.125q-1.234375 -1.125 -1.234375 -2.875q0 -1.03125 0.46875 -1.875q0.46875 -0.859375 1.21875 -1.375q0.765625 -0.515625 1.71875 -0.78125q0.703125 -0.171875 2.109375 -0.34375q2.875 -0.34375 4.234375 -0.828125q0.015625 -0.484375 0.015625 -0.609375q0 -1.453125 -0.671875 -2.046875q-0.90625 -0.8125 -2.703125 -0.8125q-1.671875 0 -2.46875 0.59375q-0.796875 0.578125 -1.1875 2.078125l-2.3125 -0.3125q0.3125 -1.5 1.03125 -2.40625q0.734375 -0.921875 2.09375 -1.40625q1.375 -0.5 3.1875 -0.5q1.796875 0 2.90625 0.421875q1.125 0.421875 1.640625 1.0625q0.53125 0.640625 0.75 1.609375q0.125 0.609375 0.125 2.1875l0 3.171875q0 3.296875 0.140625 4.1875q0.15625 0.875 0.609375 1.671875l-2.484375 0q-0.375 -0.734375 -0.46875 -1.734375zm-0.203125 -5.296875q-1.296875 0.53125 -3.875 0.90625q-1.46875 0.203125 -2.078125 0.46875q-0.59375 0.265625 -0.9375 0.78125q-0.328125 0.5 -0.328125 1.125q0 0.9375 0.71875 1.578125q0.71875 0.625 2.109375 0.625q1.375 0 2.4375 -0.59375q1.0625 -0.609375 1.578125 -1.640625q0.375 -0.8125 0.375 -2.375l0 -0.875zm5.840576 7.03125l0 -19.328125l2.359375 0l0 19.328125l-2.359375 0zm5.9221497 0l0 -19.328125l2.359375 0l0 19.328125l-2.359375 0zm8.156525 0l-2.203125 0l0 -19.328125l2.375 0l0 6.890625q1.5 -1.875 3.828125 -1.875q1.296875 0 2.453125 0.515625q1.15625 0.515625 1.890625 1.46875q0.75 0.9375 1.171875 2.265625q0.421875 1.328125 0.421875 2.84375q0 3.609375 -1.78125 5.578125q-1.78125 1.953125 -4.265625 1.953125q-2.484375 0 -3.890625 -2.0625l0 1.75zm-0.03125 -7.109375q0 2.515625 0.6875 3.640625q1.125 1.828125 3.03125 1.828125q1.5625 0 2.6875 -1.34375q1.140625 -1.359375 1.140625 -4.03125q0 -2.734375 -1.09375 -4.03125q-1.078125 -1.3125 -2.625 -1.3125q-1.5625 0 -2.703125 1.359375q-1.125 1.34375 -1.125 3.890625zm21.809326 5.375q-1.328125 1.125 -2.546875 1.59375q-1.21875 0.453125 -2.609375 0.453125q-2.3125 0 -3.5625 -1.125q-1.234375 -1.125 -1.234375 -2.875q0 -1.03125 0.46875 -1.875q0.46875 -0.859375 1.21875 -1.375q0.765625 -0.515625 1.71875 -0.78125q0.703125 -0.171875 2.109375 -0.34375q2.875 -0.34375 4.234375 -0.828125q0.015625 -0.484375 0.015625 -0.609375q0 -1.453125 -0.671875 -2.046875q-0.90625 -0.8125 -2.703125 -0.8125q-1.671875 0 -2.46875 0.59375q-0.796875 0.578125 -1.1875 2.078125l-2.3125 -0.3125q0.3125 -1.5 1.03125 -2.40625q0.734375 -0.921875 2.09375 -1.40625q1.375 -0.5 3.1875 -0.5q1.796875 0 2.90625 0.421875q1.125 0.421875 1.640625 1.0625q0.53125 0.640625 0.75 1.609375q0.125 0.609375 0.125 2.1875l0 3.171875q0 3.296875 0.140625 4.1875q0.15625 0.875 0.609375 1.671875l-2.484375 0q-0.375 -0.734375 -0.46875 -1.734375zm-0.203125 -5.296875q-1.296875 0.53125 -3.875 0.90625q-1.46875 0.203125 -2.078125 0.46875q-0.59375 0.265625 -0.9375 0.78125q-0.328125 0.5 -0.328125 1.125q0 0.9375 0.71875 1.578125q0.71875 0.625 2.109375 0.625q1.375 0 2.4375 -0.59375q1.0625 -0.609375 1.578125 -1.640625q0.375 -0.8125 0.375 -2.375l0 -0.875zm15.028076 1.90625l2.328125 0.296875q-0.375 2.421875 -1.953125 3.78125q-1.578125 1.359375 -3.875 1.359375q-2.875 0 -4.625 -1.875q-1.734375 -1.875 -1.734375 -5.390625q0 -2.265625 0.75 -3.953125q0.75 -1.703125 2.28125 -2.546875q1.53125 -0.859375 3.34375 -0.859375q2.28125 0 3.71875 1.15625q1.453125 1.140625 1.875 3.265625l-2.3125 0.359375q-0.328125 -1.40625 -1.171875 -2.109375q-0.828125 -0.71875 -2.015625 -0.71875q-1.796875 0 -2.921875 1.28125q-1.109375 1.28125 -1.109375 4.0625q0 2.828125 1.078125 4.109375q1.078125 1.265625 2.8125 1.265625q1.40625 0 2.34375 -0.84375q0.9375 -0.859375 1.1875 -2.640625zm4.203125 5.125l0 -19.328125l2.375 0l0 11.015625l5.609375 -5.6875l3.078125 0l-5.359375 5.1875l5.890625 8.8125l-2.921875 0l-4.625 -7.15625l-1.671875 1.609375l0 5.546875l-2.375 0zm17.84375 5.6875q-1.96875 -2.484375 -3.328125 -5.796875q-1.34375 -3.328125 -1.34375 -6.890625q0 -3.140625 1.015625 -6.015625q1.1875 -3.328125 3.65625 -6.640625l1.703125 0q-1.59375 2.734375 -2.109375 3.921875q-0.796875 1.8125 -1.265625 3.796875q-0.5625 2.453125 -0.5625 4.953125q0 6.34375 3.9375 12.671875l-1.703125 0zm5.8923645 0l-1.6875 0q3.9375 -6.328125 3.9375 -12.671875q0 -2.484375 -0.5625 -4.921875q-0.453125 -1.96875 -1.265625 -3.796875q-0.5 -1.1875 -2.109375 -3.953125l1.6875 0q2.484375 3.3125 3.671875 6.640625q1.015625 2.875 1.015625 6.015625q0 3.5625 -1.375 6.890625q-1.359375 3.3125 -3.3125 5.796875z" fill-rule="nonzero"></path><path fill="#000000" d="m144.25 744.99176q1.453125 0 2.84375 0.75q1.40625 0.75 2.1875 2.15625q0.78125 1.390625 0.78125 2.890625q0 2.421875 -1.703125 4.125q-1.703125 1.6875 -4.109375 1.6875q-2.40625 0 -4.109375 -1.6875q-1.703125 -1.703125 -1.703125 -4.125q0 -1.515625 0.78125 -2.90625q0.78125 -1.390625 2.171875 -2.140625q1.40625 -0.75 2.859375 -0.75z" fill-rule="nonzero"></path><path fill="#000000" d="m179.35048 758.41364l0 -2.703125l2.703125 0l0 2.703125l-2.703125 0zm9.0 0l0 -2.703125l2.703125 0l0 2.703125l-2.703125 0zm8.984375 0l0 -2.703125l2.71875 0l0 2.703125l-2.71875 0z" fill-rule="nonzero"></path><path fill="#000000" d="m144.25 781.99176q1.453125 0 2.84375 0.75q1.40625 0.75 2.1875 2.15625q0.78125 1.390625 0.78125 2.890625q0 2.421875 -1.703125 4.125q-1.703125 1.6875 -4.109375 1.6875q-2.40625 0 -4.109375 -1.6875q-1.703125 -1.703125 -1.703125 -4.125q0 -1.515625 0.78125 -2.90625q0.78125 -1.390625 2.171875 -2.140625q1.40625 -0.75 2.859375 -0.75z" fill-rule="nonzero"></path><path fill="#000000" d="m187.1161 790.28864l2.328125 0.296875q-0.375 2.421875 -1.953125 3.78125q-1.578125 1.359375 -3.875 1.359375q-2.875 0 -4.625 -1.875q-1.734375 -1.875 -1.734375 -5.390625q0 -2.265625 0.75 -3.953125q0.75 -1.703125 2.28125 -2.546875q1.53125 -0.859375 3.34375 -0.859375q2.28125 0 3.71875 1.15625q1.453125 1.140625 1.875 3.265625l-2.3125 0.359375q-0.328125 -1.40625 -1.171875 -2.109375q-0.828125 -0.71875 -2.015625 -0.71875q-1.796875 0 -2.921875 1.28125q-1.109375 1.28125 -1.109375 4.0625q0 2.828125 1.078125 4.109375q1.078125 1.265625 2.8125 1.265625q1.40625 0 2.34375 -0.84375q0.9375 -0.859375 1.1875 -2.640625zm3.296875 -1.875q0 -3.890625 2.171875 -5.765625q1.796875 -1.546875 4.40625 -1.546875q2.875 0 4.703125 1.890625q1.84375 1.890625 1.84375 5.21875q0 2.703125 -0.8125 4.265625q-0.8125 1.546875 -2.359375 2.40625q-1.546875 0.84375 -3.375 0.84375q-2.953125 0 -4.765625 -1.875q-1.8125 -1.890625 -1.8125 -5.4375zm2.4375 0q0 2.6875 1.171875 4.03125q1.1875 1.328125 2.96875 1.328125q1.765625 0 2.9375 -1.34375q1.171875 -1.34375 1.171875 -4.09375q0 -2.59375 -1.1875 -3.9375q-1.171875 -1.34375 -2.921875 -1.34375q-1.78125 0 -2.96875 1.34375q-1.171875 1.328125 -1.171875 4.015625zm13.278061 7.0l0 -14.0l2.125 0l0 1.96875q0.65625 -1.03125 1.75 -1.65625q1.09375 -0.625 2.484375 -0.625q1.5625 0 2.546875 0.640625q1.0 0.640625 1.421875 1.8125q1.65625 -2.453125 4.3125 -2.453125q2.09375 0 3.203125 1.15625q1.125 1.140625 1.125 3.546875l0 9.609375l-2.359375 0l0 -8.8125q0 -1.4375 -0.234375 -2.0625q-0.21875 -0.625 -0.828125 -1.0q-0.609375 -0.390625 -1.421875 -0.390625q-1.484375 0 -2.46875 0.984375q-0.96875 0.984375 -0.96875 3.140625l0 8.140625l-2.375 0l0 -9.09375q0 -1.578125 -0.578125 -2.375q-0.578125 -0.796875 -1.890625 -0.796875q-1.0 0 -1.859375 0.53125q-0.84375 0.53125 -1.234375 1.546875q-0.375 1.015625 -0.375 2.921875l0 7.265625l-2.375 0zm22.204865 5.359375l0 -19.359375l2.15625 0l0 1.8125q0.765625 -1.0625 1.71875 -1.59375q0.96875 -0.53125 2.34375 -0.53125q1.796875 0 3.15625 0.921875q1.375 0.921875 2.078125 2.609375q0.703125 1.671875 0.703125 3.671875q0 2.15625 -0.78125 3.875q-0.765625 1.71875 -2.234375 2.640625q-1.46875 0.90625 -3.09375 0.90625q-1.1875 0 -2.125 -0.5q-0.9375 -0.5 -1.546875 -1.265625l0 6.8125l-2.375 0zm2.140625 -12.28125q0 2.703125 1.09375 4.0q1.109375 1.28125 2.65625 1.28125q1.578125 0 2.703125 -1.328125q1.140625 -1.34375 1.140625 -4.15625q0 -2.671875 -1.109375 -4.0q-1.09375 -1.328125 -2.625 -1.328125q-1.515625 0 -2.6875 1.421875q-1.171875 1.40625 -1.171875 4.109375zm11.793686 -0.078125q0 -3.890625 2.171875 -5.765625q1.796875 -1.546875 4.40625 -1.546875q2.875 0 4.703125 1.890625q1.84375 1.890625 1.84375 5.21875q0 2.703125 -0.8125 4.265625q-0.8125 1.546875 -2.359375 2.40625q-1.546875 0.84375 -3.375 0.84375q-2.953125 0 -4.765625 -1.875q-1.8125 -1.890625 -1.8125 -5.4375zm2.4375 0q0 2.6875 1.171875 4.03125q1.1875 1.328125 2.96875 1.328125q1.765625 0 2.9375 -1.34375q1.171875 -1.34375 1.171875 -4.09375q0 -2.59375 -1.1875 -3.9375q-1.171875 -1.34375 -2.921875 -1.34375q-1.78125 0 -2.96875 1.34375q-1.171875 1.328125 -1.171875 4.015625zm13.278061 7.0l0 -14.0l2.140625 0l0 1.984375q1.53125 -2.296875 4.453125 -2.296875q1.265625 0 2.328125 0.453125q1.0625 0.453125 1.578125 1.1875q0.53125 0.734375 0.75 1.75q0.125 0.671875 0.125 2.3125l0 8.609375l-2.375 0l0 -8.515625q0 -1.453125 -0.28125 -2.171875q-0.265625 -0.71875 -0.984375 -1.140625q-0.703125 -0.4375 -1.640625 -0.4375q-1.515625 0 -2.625 0.96875q-1.09375 0.953125 -1.09375 3.65625l0 7.640625l-2.375 0zm24.403046 -4.515625l2.453125 0.3125q-0.578125 2.140625 -2.15625 3.328125q-1.5625 1.1875 -4.0 1.1875q-3.0625 0 -4.875 -1.890625q-1.796875 -1.890625 -1.796875 -5.296875q0 -3.546875 1.8125 -5.484375q1.828125 -1.953125 4.734375 -1.953125q2.8125 0 4.578125 1.90625q1.78125 1.90625 1.78125 5.375q0 0.21875 -0.015625 0.640625l-10.4375 0q0.140625 2.296875 1.3125 3.53125q1.171875 1.21875 2.921875 1.21875q1.3125 0 2.234375 -0.671875q0.921875 -0.6875 1.453125 -2.203125zm-7.78125 -3.828125l7.8125 0q-0.15625 -1.765625 -0.890625 -2.65625q-1.140625 -1.359375 -2.953125 -1.359375q-1.625 0 -2.75 1.09375q-1.109375 1.09375 -1.21875 2.921875zm13.028076 8.34375l0 -14.0l2.140625 0l0 1.984375q1.53125 -2.296875 4.453125 -2.296875q1.265625 0 2.328125 0.453125q1.0625 0.453125 1.578125 1.1875q0.53125 0.734375 0.75 1.75q0.125 0.671875 0.125 2.3125l0 8.609375l-2.375 0l0 -8.515625q0 -1.453125 -0.28125 -2.171875q-0.265625 -0.71875 -0.984375 -1.140625q-0.703125 -0.4375 -1.640625 -0.4375q-1.515625 0 -2.625 0.96875q-1.09375 0.953125 -1.09375 3.65625l0 7.640625l-2.375 0zm20.01242 -2.125l0.328125 2.09375q-1.0 0.21875 -1.78125 0.21875q-1.296875 0 -2.015625 -0.40625q-0.703125 -0.421875 -1.0 -1.078125q-0.28125 -0.671875 -0.28125 -2.796875l0 -8.0625l-1.75 0l0 -1.84375l1.75 0l0 -3.46875l2.359375 -1.421875l0 4.890625l2.390625 0l0 1.84375l-2.390625 0l0 8.1875q0 1.015625 0.125 1.3125q0.125 0.28125 0.40625 0.453125q0.28125 0.171875 0.8125 0.171875q0.390625 0 1.046875 -0.09375zm2.5622253 2.125l0 -19.328125l8.5625 0q2.59375 0 3.9375 0.53125q1.34375 0.515625 2.140625 1.828125q0.8125 1.3125 0.8125 2.921875q0 2.046875 -1.34375 3.46875q-1.328125 1.40625 -4.109375 1.78125q1.015625 0.484375 1.546875 0.96875q1.125 1.03125 2.125 2.5625l3.359375 5.265625l-3.21875 0l-2.5625 -4.015625q-1.109375 -1.75 -1.84375 -2.671875q-0.71875 -0.921875 -1.296875 -1.28125q-0.578125 -0.375 -1.15625 -0.515625q-0.4375 -0.09375 -1.4375 -0.09375l-2.953125 0l0 8.578125l-2.5625 0zm2.5625 -10.796875l5.484375 0q1.765625 0 2.75 -0.359375q0.984375 -0.359375 1.5 -1.15625q0.515625 -0.8125 0.515625 -1.734375q0 -1.375 -1.0 -2.25q-0.984375 -0.890625 -3.140625 -0.890625l-6.109375 0l0 6.390625zm25.92215 6.28125l2.453125 0.3125q-0.578125 2.140625 -2.15625 3.328125q-1.5625 1.1875 -4.0 1.1875q-3.0625 0 -4.875 -1.890625q-1.796875 -1.890625 -1.796875 -5.296875q0 -3.546875 1.8125 -5.484375q1.828125 -1.953125 4.734375 -1.953125q2.8125 0 4.578125 1.90625q1.78125 1.90625 1.78125 5.375q0 0.21875 -0.015625 0.640625l-10.4375 0q0.140625 2.296875 1.3125 3.53125q1.171875 1.21875 2.921875 1.21875q1.3125 0 2.234375 -0.671875q0.921875 -0.6875 1.453125 -2.203125zm-7.78125 -3.828125l7.8125 0q-0.15625 -1.765625 -0.890625 -2.65625q-1.140625 -1.359375 -2.953125 -1.359375q-1.625 0 -2.75 1.09375q-1.109375 1.09375 -1.21875 2.921875zm13.590576 8.34375l0 -12.15625l-2.09375 0l0 -1.84375l2.09375 0l0 -1.484375q0 -1.421875 0.25 -2.109375q0.34375 -0.921875 1.203125 -1.484375q0.875 -0.578125 2.421875 -0.578125q1.0 0 2.21875 0.234375l-0.359375 2.078125q-0.734375 -0.140625 -1.390625 -0.140625q-1.078125 0 -1.53125 0.46875q-0.453125 0.453125 -0.453125 1.71875l0 1.296875l2.734375 0l0 1.84375l-2.734375 0l0 12.15625l-2.359375 0z" fill-rule="nonzero"></path><path fill="#000000" d="m144.25 818.99176q1.453125 0 2.84375 0.75q1.40625 0.75 2.1875 2.15625q0.78125 1.390625 0.78125 2.890625q0 2.421875 -1.703125 4.125q-1.703125 1.6875 -4.109375 1.6875q-2.40625 0 -4.109375 -1.6875q-1.703125 -1.703125 -1.703125 -4.125q0 -1.515625 0.78125 -2.90625q0.78125 -1.390625 2.171875 -2.140625q1.40625 -0.75 2.859375 -0.75z" fill-rule="nonzero"></path><path fill="#000000" d="m187.0536 832.41364l0 -1.765625q-1.328125 2.078125 -3.90625 2.078125q-1.671875 0 -3.078125 -0.921875q-1.40625 -0.921875 -2.1875 -2.578125q-0.765625 -1.65625 -0.765625 -3.796875q0 -2.09375 0.703125 -3.796875q0.703125 -1.71875 2.09375 -2.625q1.390625 -0.90625 3.125 -0.90625q1.265625 0 2.25 0.53125q0.984375 0.53125 1.609375 1.390625l0 -6.9375l2.359375 0l0 19.328125l-2.203125 0zm-7.5 -6.984375q0 2.6875 1.125 4.015625q1.140625 1.328125 2.6875 1.328125q1.5625 0 2.640625 -1.265625q1.09375 -1.265625 1.09375 -3.890625q0 -2.859375 -1.109375 -4.203125q-1.109375 -1.359375 -2.734375 -1.359375q-1.578125 0 -2.640625 1.296875q-1.0625 1.296875 -1.0625 4.078125zm22.824936 2.46875l2.453125 0.3125q-0.578125 2.140625 -2.15625 3.328125q-1.5625 1.1875 -4.0 1.1875q-3.0625 0 -4.875 -1.890625q-1.796875 -1.890625 -1.796875 -5.296875q0 -3.546875 1.8125 -5.484375q1.828125 -1.953125 4.734375 -1.953125q2.8125 0 4.578125 1.90625q1.78125 1.90625 1.78125 5.375q0 0.21875 -0.015625 0.640625l-10.4375 0q0.140625 2.296875 1.3125 3.53125q1.171875 1.21875 2.921875 1.21875q1.3125 0 2.234375 -0.671875q0.921875 -0.6875 1.453125 -2.203125zm-7.78125 -3.828125l7.8125 0q-0.15625 -1.765625 -0.890625 -2.65625q-1.140625 -1.359375 -2.953125 -1.359375q-1.625 0 -2.75 1.09375q-1.109375 1.09375 -1.21875 2.921875zm18.21556 6.21875l0.328125 2.09375q-1.0 0.21875 -1.78125 0.21875q-1.296875 0 -2.015625 -0.40625q-0.703125 -0.421875 -1.0 -1.078125q-0.28125 -0.671875 -0.28125 -2.796875l0 -8.0625l-1.75 0l0 -1.84375l1.75 0l0 -3.46875l2.359375 -1.421875l0 4.890625l2.390625 0l0 1.84375l-2.390625 0l0 8.1875q0 1.015625 0.125 1.3125q0.125 0.28125 0.40625 0.453125q0.28125 0.171875 0.8125 0.171875q0.390625 0 1.046875 -0.09375zm11.359085 0.390625q-1.328125 1.125 -2.546875 1.59375q-1.21875 0.453125 -2.609375 0.453125q-2.3125 0 -3.5625 -1.125q-1.234375 -1.125 -1.234375 -2.875q0 -1.03125 0.46875 -1.875q0.46875 -0.859375 1.21875 -1.375q0.765625 -0.515625 1.71875 -0.78125q0.703125 -0.171875 2.109375 -0.34375q2.875 -0.34375 4.234375 -0.828125q0.015625 -0.484375 0.015625 -0.609375q0 -1.453125 -0.671875 -2.046875q-0.90625 -0.8125 -2.703125 -0.8125q-1.671875 0 -2.46875 0.59375q-0.796875 0.578125 -1.1875 2.078125l-2.3125 -0.3125q0.3125 -1.5 1.03125 -2.40625q0.734375 -0.921875 2.09375 -1.40625q1.375 -0.5 3.1875 -0.5q1.796875 0 2.90625 0.421875q1.125 0.421875 1.640625 1.0625q0.53125 0.640625 0.75 1.609375q0.125 0.609375 0.125 2.1875l0 3.171875q0 3.296875 0.140625 4.1875q0.15625 0.875 0.609375 1.671875l-2.484375 0q-0.375 -0.734375 -0.46875 -1.734375zm-0.203125 -5.296875q-1.296875 0.53125 -3.875 0.90625q-1.46875 0.203125 -2.078125 0.46875q-0.59375 0.265625 -0.9375 0.78125q-0.328125 0.5 -0.328125 1.125q0 0.9375 0.71875 1.578125q0.71875 0.625 2.109375 0.625q1.375 0 2.4375 -0.59375q1.0625 -0.609375 1.578125 -1.640625q0.375 -0.8125 0.375 -2.375l0 -0.875zm15.028061 1.90625l2.328125 0.296875q-0.375 2.421875 -1.953125 3.78125q-1.578125 1.359375 -3.875 1.359375q-2.875 0 -4.625 -1.875q-1.734375 -1.875 -1.734375 -5.390625q0 -2.265625 0.75 -3.953125q0.75 -1.703125 2.28125 -2.546875q1.53125 -0.859375 3.34375 -0.859375q2.28125 0 3.71875 1.15625q1.453125 1.140625 1.875 3.265625l-2.3125 0.359375q-0.328125 -1.40625 -1.171875 -2.109375q-0.828125 -0.71875 -2.015625 -0.71875q-1.796875 0 -2.921875 1.28125q-1.109375 1.28125 -1.109375 4.0625q0 2.828125 1.078125 4.109375q1.078125 1.265625 2.8125 1.265625q1.40625 0 2.34375 -0.84375q0.9375 -0.859375 1.1875 -2.640625zm4.1875 5.125l0 -19.328125l2.375 0l0 6.9375q1.65625 -1.921875 4.1875 -1.921875q1.5625 0 2.703125 0.609375q1.140625 0.609375 1.640625 1.703125q0.5 1.078125 0.5 3.125l0 8.875l-2.375 0l0 -8.875q0 -1.78125 -0.78125 -2.59375q-0.765625 -0.8125 -2.171875 -0.8125q-1.0625 0 -2.0 0.546875q-0.921875 0.546875 -1.3125 1.484375q-0.390625 0.9375 -0.390625 2.59375l0 7.65625l-2.375 0zm19.356186 5.6875q-1.96875 -2.484375 -3.328125 -5.796875q-1.34375 -3.328125 -1.34375 -6.890625q0 -3.140625 1.015625 -6.015625q1.1875 -3.328125 3.65625 -6.640625l1.703125 0q-1.59375 2.734375 -2.109375 3.921875q-0.796875 1.8125 -1.265625 3.796875q-0.5625 2.453125 -0.5625 4.953125q0 6.34375 3.9375 12.671875l-1.703125 0zm5.8923645 0l-1.6875 0q3.9375 -6.328125 3.9375 -12.671875q0 -2.484375 -0.5625 -4.921875q-0.453125 -1.96875 -1.265625 -3.796875q-0.5 -1.1875 -2.109375 -3.953125l1.6875 0q2.484375 3.3125 3.671875 6.640625q1.015625 2.875 1.015625 6.015625q0 3.5625 -1.375 6.890625q-1.359375 3.3125 -3.3125 5.796875z" fill-rule="nonzero"></path><path fill="#000000" d="m144.25 855.99176q1.453125 0 2.84375 0.75q1.40625 0.75 2.1875 2.15625q0.78125 1.390625 0.78125 2.890625q0 2.421875 -1.703125 4.125q-1.703125 1.6875 -4.109375 1.6875q-2.40625 0 -4.109375 -1.6875q-1.703125 -1.703125 -1.703125 -4.125q0 -1.515625 0.78125 -2.90625q0.78125 -1.390625 2.171875 -2.140625q1.40625 -0.75 2.859375 -0.75z" fill-rule="nonzero"></path><path fill="#000000" d="m187.0536 869.41364l0 -1.765625q-1.328125 2.078125 -3.90625 2.078125q-1.671875 0 -3.078125 -0.921875q-1.40625 -0.921875 -2.1875 -2.578125q-0.765625 -1.65625 -0.765625 -3.796875q0 -2.09375 0.703125 -3.796875q0.703125 -1.71875 2.09375 -2.625q1.390625 -0.90625 3.125 -0.90625q1.265625 0 2.25 0.53125q0.984375 0.53125 1.609375 1.390625l0 -6.9375l2.359375 0l0 19.328125l-2.203125 0zm-7.5 -6.984375q0 2.6875 1.125 4.015625q1.140625 1.328125 2.6875 1.328125q1.5625 0 2.640625 -1.265625q1.09375 -1.265625 1.09375 -3.890625q0 -2.859375 -1.109375 -4.203125q-1.109375 -1.359375 -2.734375 -1.359375q-1.578125 0 -2.640625 1.296875q-1.0625 1.296875 -1.0625 4.078125zm22.824936 2.46875l2.453125 0.3125q-0.578125 2.140625 -2.15625 3.328125q-1.5625 1.1875 -4.0 1.1875q-3.0625 0 -4.875 -1.890625q-1.796875 -1.890625 -1.796875 -5.296875q0 -3.546875 1.8125 -5.484375q1.828125 -1.953125 4.734375 -1.953125q2.8125 0 4.578125 1.90625q1.78125 1.90625 1.78125 5.375q0 0.21875 -0.015625 0.640625l-10.4375 0q0.140625 2.296875 1.3125 3.53125q1.171875 1.21875 2.921875 1.21875q1.3125 0 2.234375 -0.671875q0.921875 -0.6875 1.453125 -2.203125zm-7.78125 -3.828125l7.8125 0q-0.15625 -1.765625 -0.890625 -2.65625q-1.140625 -1.359375 -2.953125 -1.359375q-1.625 0 -2.75 1.09375q-1.109375 1.09375 -1.21875 2.921875zm18.21556 6.21875l0.328125 2.09375q-1.0 0.21875 -1.78125 0.21875q-1.296875 0 -2.015625 -0.40625q-0.703125 -0.421875 -1.0 -1.078125q-0.28125 -0.671875 -0.28125 -2.796875l0 -8.0625l-1.75 0l0 -1.84375l1.75 0l0 -3.46875l2.359375 -1.421875l0 4.890625l2.390625 0l0 1.84375l-2.390625 0l0 8.1875q0 1.015625 0.125 1.3125q0.125 0.28125 0.40625 0.453125q0.28125 0.171875 0.8125 0.171875q0.390625 0 1.046875 -0.09375zm11.796585 -2.390625l2.453125 0.3125q-0.578125 2.140625 -2.15625 3.328125q-1.5625 1.1875 -4.0 1.1875q-3.0625 0 -4.875 -1.890625q-1.796875 -1.890625 -1.796875 -5.296875q0 -3.546875 1.8125 -5.484375q1.828125 -1.953125 4.734375 -1.953125q2.8125 0 4.578125 1.90625q1.78125 1.90625 1.78125 5.375q0 0.21875 -0.015625 0.640625l-10.4375 0q0.140625 2.296875 1.3125 3.53125q1.171875 1.21875 2.921875 1.21875q1.3125 0 2.234375 -0.671875q0.921875 -0.6875 1.453125 -2.203125zm-7.78125 -3.828125l7.8125 0q-0.15625 -1.765625 -0.890625 -2.65625q-1.140625 -1.359375 -2.953125 -1.359375q-1.625 0 -2.75 1.09375q-1.109375 1.09375 -1.21875 2.921875zm22.168686 3.21875l2.328125 0.296875q-0.375 2.421875 -1.953125 3.78125q-1.578125 1.359375 -3.875 1.359375q-2.875 0 -4.625 -1.875q-1.734375 -1.875 -1.734375 -5.390625q0 -2.265625 0.75 -3.953125q0.75 -1.703125 2.28125 -2.546875q1.53125 -0.859375 3.34375 -0.859375q2.28125 0 3.71875 1.15625q1.453125 1.140625 1.875 3.265625l-2.3125 0.359375q-0.328125 -1.40625 -1.171875 -2.109375q-0.828125 -0.71875 -2.015625 -0.71875q-1.796875 0 -2.921875 1.28125q-1.109375 1.28125 -1.109375 4.0625q0 2.828125 1.078125 4.109375q1.078125 1.265625 2.8125 1.265625q1.40625 0 2.34375 -0.84375q0.9375 -0.859375 1.1875 -2.640625zm9.375 3.0l0.328125 2.09375q-1.0 0.21875 -1.78125 0.21875q-1.296875 0 -2.015625 -0.40625q-0.703125 -0.421875 -1.0 -1.078125q-0.28125 -0.671875 -0.28125 -2.796875l0 -8.0625l-1.75 0l0 -1.84375l1.75 0l0 -3.46875l2.359375 -1.421875l0 4.890625l2.390625 0l0 1.84375l-2.390625 0l0 8.1875q0 1.015625 0.125 1.3125q0.125 0.28125 0.40625 0.453125q0.28125 0.171875 0.8125 0.171875q0.390625 0 1.046875 -0.09375zm16.31221 -4.65625l2.5625 0.65625q-0.8125 3.140625 -2.90625 4.796875q-2.078125 1.65625 -5.109375 1.65625q-3.125 0 -5.078125 -1.265625q-1.953125 -1.28125 -2.984375 -3.6875q-1.015625 -2.421875 -1.015625 -5.1875q0 -3.015625 1.15625 -5.265625q1.15625 -2.25 3.28125 -3.40625q2.125 -1.171875 4.6875 -1.171875q2.90625 0 4.875 1.484375q1.984375 1.46875 2.75 4.140625l-2.515625 0.59375q-0.671875 -2.109375 -1.953125 -3.0625q-1.265625 -0.96875 -3.203125 -0.96875q-2.234375 0 -3.734375 1.078125q-1.5 1.0625 -2.109375 2.859375q-0.59375 1.796875 -0.59375 3.703125q0 2.46875 0.71875 4.3125q0.71875 1.84375 2.234375 2.75q1.515625 0.90625 3.28125 0.90625q2.140625 0 3.625 -1.234375q1.5 -1.25 2.03125 -3.6875zm5.1565247 6.78125l0 -19.328125l2.375 0l0 6.9375q1.65625 -1.921875 4.1875 -1.921875q1.5625 0 2.703125 0.609375q1.140625 0.609375 1.640625 1.703125q0.5 1.078125 0.5 3.125l0 8.875l-2.375 0l0 -8.875q0 -1.78125 -0.78125 -2.59375q-0.765625 -0.8125 -2.171875 -0.8125q-1.0625 0 -2.0 0.546875q-0.921875 0.546875 -1.3125 1.484375q-0.390625 0.9375 -0.390625 2.59375l0 7.65625l-2.375 0zm23.965576 -1.734375q-1.328125 1.125 -2.546875 1.59375q-1.21875 0.453125 -2.609375 0.453125q-2.3125 0 -3.5625 -1.125q-1.234375 -1.125 -1.234375 -2.875q0 -1.03125 0.46875 -1.875q0.46875 -0.859375 1.21875 -1.375q0.765625 -0.515625 1.71875 -0.78125q0.703125 -0.171875 2.109375 -0.34375q2.875 -0.34375 4.234375 -0.828125q0.015625 -0.484375 0.015625 -0.609375q0 -1.453125 -0.671875 -2.046875q-0.90625 -0.8125 -2.703125 -0.8125q-1.671875 0 -2.46875 0.59375q-0.796875 0.578125 -1.1875 2.078125l-2.3125 -0.3125q0.3125 -1.5 1.03125 -2.40625q0.734375 -0.921875 2.09375 -1.40625q1.375 -0.5 3.1875 -0.5q1.796875 0 2.90625 0.421875q1.125 0.421875 1.640625 1.0625q0.53125 0.640625 0.75 1.609375q0.125 0.609375 0.125 2.1875l0 3.171875q0 3.296875 0.140625 4.1875q0.15625 0.875 0.609375 1.671875l-2.484375 0q-0.375 -0.734375 -0.46875 -1.734375zm-0.203125 -5.296875q-1.296875 0.53125 -3.875 0.90625q-1.46875 0.203125 -2.078125 0.46875q-0.59375 0.265625 -0.9375 0.78125q-0.328125 0.5 -0.328125 1.125q0 0.9375 0.71875 1.578125q0.71875 0.625 2.109375 0.625q1.375 0 2.4375 -0.59375q1.0625 -0.609375 1.578125 -1.640625q0.375 -0.8125 0.375 -2.375l0 -0.875zm5.8874207 7.03125l0 -14.0l2.140625 0l0 1.984375q1.53125 -2.296875 4.453125 -2.296875q1.265625 0 2.328125 0.453125q1.0625 0.453125 1.578125 1.1875q0.53125 0.734375 0.75 1.75q0.125 0.671875 0.125 2.3125l0 8.609375l-2.375 0l0 -8.515625q0 -1.453125 -0.28125 -2.171875q-0.265625 -0.71875 -0.984375 -1.140625q-0.703125 -0.4375 -1.640625 -0.4375q-1.515625 0 -2.625 0.96875q-1.09375 0.953125 -1.09375 3.65625l0 7.640625l-2.375 0zm14.387451 1.15625l2.3125 0.34375q0.140625 1.078125 0.796875 1.5625q0.890625 0.65625 2.421875 0.65625q1.640625 0 2.53125 -0.65625q0.90625 -0.65625 1.21875 -1.84375q0.1875 -0.734375 0.171875 -3.046875q-1.5625 1.828125 -3.875 1.828125q-2.890625 0 -4.46875 -2.078125q-1.578125 -2.09375 -1.578125 -5.0q0 -2.0 0.71875 -3.6875q0.734375 -1.703125 2.109375 -2.625q1.375 -0.921875 3.234375 -0.921875q2.46875 0 4.078125 2.0l0 -1.6875l2.1875 0l0 12.09375q0 3.28125 -0.671875 4.640625q-0.65625 1.359375 -2.109375 2.15625q-1.4375 0.796875 -3.546875 0.796875q-2.5 0 -4.046875 -1.140625q-1.53125 -1.125 -1.484375 -3.390625zm1.96875 -8.40625q0 2.75 1.09375 4.015625q1.09375 1.265625 2.734375 1.265625q1.640625 0 2.75 -1.25q1.109375 -1.265625 1.109375 -3.953125q0 -2.578125 -1.140625 -3.875q-1.140625 -1.3125 -2.75 -1.3125q-1.578125 0 -2.6875 1.296875q-1.109375 1.28125 -1.109375 3.8125zm22.871796 2.734375l2.453125 0.3125q-0.578125 2.140625 -2.15625 3.328125q-1.5625 1.1875 -4.0 1.1875q-3.0625 0 -4.875 -1.890625q-1.796875 -1.890625 -1.796875 -5.296875q0 -3.546875 1.8125 -5.484375q1.828125 -1.953125 4.734375 -1.953125q2.8125 0 4.578125 1.90625q1.78125 1.90625 1.78125 5.375q0 0.21875 -0.015625 0.640625l-10.4375 0q0.140625 2.296875 1.3125 3.53125q1.171875 1.21875 2.921875 1.21875q1.3125 0 2.234375 -0.671875q0.921875 -0.6875 1.453125 -2.203125zm-7.78125 -3.828125l7.8125 0q-0.15625 -1.765625 -0.890625 -2.65625q-1.140625 -1.359375 -2.953125 -1.359375q-1.625 0 -2.75 1.09375q-1.109375 1.09375 -1.21875 2.921875zm12.074951 4.171875l2.34375 -0.375q0.203125 1.40625 1.109375 2.15625q0.90625 0.75 2.515625 0.75q1.640625 0 2.421875 -0.65625q0.796875 -0.671875 0.796875 -1.5625q0 -0.8125 -0.6875 -1.265625q-0.5 -0.3125 -2.4375 -0.8125q-2.609375 -0.65625 -3.625 -1.125q-1.0 -0.484375 -1.53125 -1.328125q-0.515625 -0.859375 -0.515625 -1.890625q0 -0.9375 0.421875 -1.734375q0.4375 -0.796875 1.1875 -1.328125q0.546875 -0.40625 1.5 -0.6875q0.953125 -0.28125 2.046875 -0.28125q1.65625 0 2.890625 0.46875q1.25 0.46875 1.84375 1.28125q0.59375 0.8125 0.828125 2.171875l-2.328125 0.3125q-0.15625 -1.078125 -0.921875 -1.671875q-0.75 -0.609375 -2.140625 -0.609375q-1.625 0 -2.328125 0.546875q-0.703125 0.53125 -0.703125 1.25q0 0.46875 0.296875 0.828125q0.28125 0.390625 0.90625 0.640625q0.359375 0.125 2.09375 0.609375q2.515625 0.671875 3.515625 1.09375q1.0 0.421875 1.5625 1.25q0.5625 0.8125 0.5625 2.03125q0 1.1875 -0.6875 2.234375q-0.6875 1.046875 -2.0 1.625q-1.296875 0.5625 -2.953125 0.5625q-2.71875 0 -4.15625 -1.125q-1.4375 -1.140625 -1.828125 -3.359375zm18.8125 9.859375q-1.96875 -2.484375 -3.328125 -5.796875q-1.34375 -3.328125 -1.34375 -6.890625q0 -3.140625 1.015625 -6.015625q1.1875 -3.328125 3.65625 -6.640625l1.703125 0q-1.59375 2.734375 -2.109375 3.921875q-0.796875 1.8125 -1.265625 3.796875q-0.5625 2.453125 -0.5625 4.953125q0 6.34375 3.9375 12.671875l-1.703125 0zm5.8923645 0l-1.6875 0q3.9375 -6.328125 3.9375 -12.671875q0 -2.484375 -0.5625 -4.921875q-0.453125 -1.96875 -1.265625 -3.796875q-0.5 -1.1875 -2.109375 -3.953125l1.6875 0q2.484375 3.3125 3.671875 6.640625q1.015625 2.875 1.015625 6.015625q0 3.5625 -1.375 6.890625q-1.359375 3.3125 -3.3125 5.796875z" fill-rule="nonzero"></path><path fill="#cfe2f3" d="m15.089239 68.86929l0 0c0 -14.501751 11.755991 -26.257744 26.257742 -26.257744l312.49237 0c6.9639893 0 13.642761 2.7664337 18.567047 7.690716c4.924286 4.924282 7.6907043 11.603039 7.6907043 18.567028l0 105.02782c0 14.501755 -11.755981 26.257751 -26.257751 26.257751l-312.49237 0c-14.501751 0 -26.257742 -11.755997 -26.257742 -26.257751z" fill-rule="evenodd"></path><path stroke="#000000" stroke-width="1.0" stroke-linejoin="round" stroke-linecap="butt" d="m15.089239 68.86929l0 0c0 -14.501751 11.755991 -26.257744 26.257742 -26.257744l312.49237 0c6.9639893 0 13.642761 2.7664337 18.567047 7.690716c4.924286 4.924282 7.6907043 11.603039 7.6907043 18.567028l0 105.02782c0 14.501755 -11.755981 26.257751 -26.257751 26.257751l-312.49237 0c-14.501751 0 -26.257742 -11.755997 -26.257742 -26.257751z" fill-rule="evenodd"></path><path fill="#000000" d="m66.57365 132.5957q-1.265625 1.46875 -2.84375 2.359375q-1.5625 0.890625 -3.140625 0.890625q-1.75 0 -3.390625 -1.015625q-1.640625 -1.015625 -2.671875 -3.125q-1.015625 -2.109375 -1.015625 -4.6406326q0 -3.09375 1.59375 -6.203125q1.59375 -3.125 3.953125 -4.6875q2.359375 -1.5625 4.59375 -1.5625q1.703125 0 3.234375 0.890625q1.546875 0.890625 2.65625 2.703125l0.671875 -3.03125l3.5 0l-2.8125 13.109383q-0.59375 2.734375 -0.59375 3.03125q0 0.515625 0.390625 0.90625q0.40625 0.375 0.984375 0.375q1.03125 0 2.703125 -1.1875q2.234375 -1.5625 3.53125 -4.1875076q1.296875 -2.625 1.296875 -5.421875q0 -3.265625 -1.671875 -6.09375q-1.671875 -2.828125 -4.984375 -4.53125q-3.296875 -1.703125 -7.3125 -1.703125q-4.5625 0 -8.34375 2.140625q-3.78125 2.140625 -5.859375 6.140625q-2.078125 3.984375 -2.078125 8.5625q0 4.7812576 2.078125 8.250008q2.078125 3.453125 6.015625 5.09375q3.9375 1.65625 8.71875 1.65625q5.125 0 8.578125 -1.71875q3.453125 -1.71875 5.171875 -4.1875l3.53125 0q-0.984375 2.0625 -3.40625 4.1875q-2.421875 2.125 -5.765625 3.359375q-3.34375 1.25 -8.046875 1.25q-4.34375 0 -8.0 -1.125q-3.65625 -1.109375 -6.234375 -3.34375q-2.578125 -2.234375 -3.890625 -5.140625q-1.640625 -3.703125 -1.640625 -7.9687576q0 -4.765625 1.953125 -9.09375q2.375 -5.28125 6.765625 -8.09375q4.390625 -2.8125 10.640625 -2.8125q4.84375 0 8.6875 1.984375q3.859375 1.96875 6.09375 5.90625q1.890625 3.375 1.890625 7.34375q0 5.65625 -3.984375 10.046883q-3.546875 3.953125 -7.765625 3.953125q-1.359375 0 -2.1875 -0.40625q-0.828125 -0.421875 -1.21875 -1.171875q-0.25 -0.5 -0.375 -1.6875zm-9.453125 -5.2968826q0 2.6875076 1.265625 4.1718826q1.28125 1.484375 2.921875 1.484375q1.09375 0 2.296875 -0.65625q1.21875 -0.65625 2.3125 -1.9375q1.109375 -1.296875 1.8125 -3.2812576q0.703125 -1.984375 0.703125 -3.96875q0 -2.65625 -1.328125 -4.125q-1.3125 -1.46875 -3.203125 -1.46875q-1.25 0 -2.359375 0.640625q-1.09375 0.625 -2.140625 2.03125q-1.03125 1.40625 -1.65625 3.421875q-0.625 2.015625 -0.625 3.6875zm50.902344 -1.5625l3.796875 0.96875q-1.203125 4.6562576 -4.296875 7.1093826q-3.09375 2.453125 -7.5625 2.453125q-4.625 0 -7.53125 -1.875q-2.90625 -1.890625 -4.421875 -5.46875q-1.5 -3.5781326 -1.5 -7.6718826q0 -4.46875 1.703125 -7.796875q1.703125 -3.34375 4.859375 -5.0625q3.15625 -1.734375 6.953125 -1.734375q4.296875 0 7.21875 2.1875q2.9375 2.1875 4.078125 6.15625l-3.71875 0.875q-1.0 -3.125 -2.90625 -4.546875q-1.890625 -1.421875 -4.75 -1.421875q-3.3125 0 -5.53125 1.578125q-2.203125 1.578125 -3.109375 4.25q-0.890625 2.65625 -0.890625 5.5q0 3.640625 1.0625 6.375q1.0625 2.7187576 3.296875 4.0781326q2.25 1.34375 4.875 1.34375q3.1875 0 5.390625 -1.828125q2.203125 -1.84375 2.984375 -5.4687576zm6.6992188 -0.328125q0 -5.765625 3.203125 -8.53125q2.671875 -2.3125 6.53125 -2.3125q4.2656326 0 6.9843826 2.8125q2.71875 2.796875 2.71875 7.734375q0 4.0156326 -1.203125 6.3125076q-1.203125 2.28125 -3.5 3.5625q-2.2968826 1.265625 -5.0000076 1.265625q-4.359375 0 -7.046875 -2.796875q-2.6875 -2.796875 -2.6875 -8.046883zm3.609375 0q0 3.9843826 1.734375 5.9687576q1.75 1.984375 4.390625 1.984375q2.609375 0 4.3437576 -1.984375q1.75 -2.0 1.75 -6.0781326q0 -3.859375 -1.75 -5.828125q-1.7500076 -1.984375 -4.3437576 -1.984375q-2.640625 0 -4.390625 1.96875q-1.734375 1.96875 -1.734375 5.953125zm19.949226 10.375008l0 -20.750008l3.140625 0l0 2.921875q0.984375 -1.53125 2.59375 -2.453125q1.625 -0.9375 3.703125 -0.9375q2.296875 0 3.765625 0.96875q1.484375 0.953125 2.09375 2.671875q2.453125 -3.640625 6.40625 -3.640625q3.078125 0 4.734375 1.71875q1.671875 1.703125 1.671875 5.265625l0 14.234383l-3.5 0l0 -13.062508q0 -2.109375 -0.34375 -3.03125q-0.34375 -0.9375 -1.25 -1.5q-0.890625 -0.578125 -2.09375 -0.578125q-2.1875 0 -3.640625 1.46875q-1.4375 1.453125 -1.4375 4.65625l0 12.046883l-3.515625 0l0 -13.484383q0 -2.34375 -0.859375 -3.515625q-0.859375 -1.171875 -2.8125 -1.171875q-1.484375 0 -2.75 0.78125q-1.265625 0.78125 -1.828125 2.296875q-0.5625 1.5 -0.5625 4.328125l0 10.765633l-3.515625 0zm33.320312 7.953125l0 -28.703133l3.203125 0l0 2.703125q1.125 -1.578125 2.546875 -2.375q1.4375 -0.796875 3.46875 -0.796875q2.65625 0 4.6875 1.375q2.03125 1.359375 3.0625 3.859375q1.03125 2.484375 1.03125 5.453125q0 3.1875076 -1.140625 5.7343826q-1.140625 2.546875 -3.328125 3.90625q-2.171875 1.359375 -4.5625 1.359375q-1.765625 0 -3.171875 -0.734375q-1.390625 -0.75 -2.28125 -1.890625l0 10.109375l-3.515625 0zm3.1875 -18.203133q0 4.0000076 1.609375 5.9218826q1.625 1.90625 3.9375 1.90625q2.34375 0 4.0 -1.984375q1.671875 -1.984375 1.671875 -6.1406326q0 -3.96875 -1.625 -5.9375q-1.625 -1.96875 -3.890625 -1.96875q-2.25 0 -3.984375 2.09375q-1.71875 2.09375 -1.71875 6.109375zm17.746094 -0.125q0 -5.765625 3.203125 -8.53125q2.671875 -2.3125 6.53125 -2.3125q4.265625 0 6.984375 2.8125q2.71875 2.796875 2.71875 7.734375q0 4.0156326 -1.203125 6.3125076q-1.203125 2.28125 -3.5 3.5625q-2.296875 1.265625 -5.0 1.265625q-4.359375 0 -7.046875 -2.796875q-2.6875 -2.796875 -2.6875 -8.046883zm3.609375 0q0 3.9843826 1.734375 5.9687576q1.75 1.984375 4.390625 1.984375q2.609375 0 4.34375 -1.984375q1.75 -2.0 1.75 -6.0781326q0 -3.859375 -1.75 -5.828125q-1.75 -1.984375 -4.34375 -1.984375q-2.640625 0 -4.390625 1.96875q-1.734375 1.96875 -1.734375 5.953125zm19.949219 10.375008l0 -20.750008l3.15625 0l0 2.953125q2.296875 -3.421875 6.609375 -3.421875q1.875 0 3.4375 0.6875q1.578125 0.671875 2.359375 1.765625q0.78125 1.09375 1.09375 2.59375q0.203125 0.96875 0.203125 3.421875l0 12.750008l-3.515625 0l0 -12.625008q0 -2.140625 -0.421875 -3.203125q-0.40625 -1.0625 -1.453125 -1.703125q-1.046875 -0.640625 -2.453125 -0.640625q-2.234375 0 -3.875 1.4375q-1.625 1.421875 -1.625 5.40625l0 11.328133l-3.515625 0zm36.44922 -6.6875l3.6249847 0.453125q-0.85935974 3.1875 -3.1874847 4.953125q-2.3125 1.75 -5.9375 1.75q-4.546875 0 -7.21875 -2.796875q-2.65625 -2.8125 -2.65625 -7.8750076q0 -5.234375 2.6875 -8.125q2.703125 -2.890625 7.0 -2.890625q4.15625 0 6.796875 2.84375q2.6406097 2.828125 2.6406097 7.96875q0 0.3125 -0.03125 0.9375l-15.468735 0q0.203125 3.4062576 1.9375 5.2343826q1.734375 1.8125 4.34375 1.8125q1.921875 0 3.28125 -1.015625q1.375 -1.015625 2.1875 -3.25zm-11.546875 -5.6718826l11.578125 0q-0.234375 -2.625 -1.328125 -3.9375q-1.671875 -2.03125 -4.359375 -2.03125q-2.421875 0 -4.078125 1.625q-1.640625 1.625 -1.8125 4.34375zm19.589828 12.359383l0 -20.750008l3.15625 0l0 2.953125q2.296875 -3.421875 6.609375 -3.421875q1.875 0 3.4375 0.6875q1.578125 0.671875 2.359375 1.765625q0.78125 1.09375 1.09375 2.59375q0.203125 0.96875 0.203125 3.421875l0 12.750008l-3.515625 0l0 -12.625008q0 -2.140625 -0.421875 -3.203125q-0.40625 -1.0625 -1.453125 -1.703125q-1.046875 -0.640625 -2.453125 -0.640625q-2.234375 0 -3.875 1.4375q-1.625 1.421875 -1.625 5.40625l0 11.328133l-3.515625 0zm29.917969 -3.140625l0.515625 3.09375q-1.484375 0.328125 -2.65625 0.328125q-1.921875 0 -2.984375 -0.609375q-1.046875 -0.609375 -1.484375 -1.59375q-0.421875 -0.984375 -0.421875 -4.15625l0 -11.937508l-2.578125 0l0 -2.734375l2.578125 0l0 -5.125l3.5 -2.109375l0 7.234375l3.53125 0l0 2.734375l-3.53125 0l0 12.140633q0 1.5 0.1875 1.9375q0.1875 0.421875 0.59375 0.671875q0.421875 0.25 1.203125 0.25q0.59375 0 1.546875 -0.125zm10.160156 11.5625q-2.90625 -3.671875 -4.921875 -8.59375q-2.015625 -4.921875 -2.015625 -10.203133q0 -4.640625 1.5 -8.90625q1.765625 -4.9375 5.4375 -9.84375l2.515625 0q-2.359375 4.0625 -3.125 5.796875q-1.1875 2.703125 -1.875 5.625q-0.84375 3.65625 -0.84375 7.34375q0 9.406258 5.84375 18.781258l-2.515625 0zm7.6015625 -8.421875l0 -4.0l4.0 0l0 4.0l-4.0 0zm11.113281 0l0 -4.0l4.0 0l0 4.0l-4.0 0zm11.113281 0l0 -4.0l4.0 0l0 4.0l-4.0 0zm12.410156 8.421875l-2.515625 0q5.84375 -9.375 5.84375 -18.781258q0 -3.671875 -0.84375 -7.28125q-0.65625 -2.921875 -1.859375 -5.625q-0.75 -1.75 -3.140625 -5.859375l2.515625 0q3.671875 4.90625 5.4375 9.84375q1.5 4.265625 1.5 8.90625q0 5.2812576 -2.03125 10.203133q-2.015625 4.921875 -4.90625 8.59375z" fill-rule="nonzero"></path><path fill="#cfe2f3" d="m144.06561 471.00052l0 0c0 -14.5017395 11.755997 -26.257751 26.257751 -26.257751l312.49237 0c6.9639893 0 13.642761 2.766449 18.567047 7.690735c4.924286 4.924286 7.6907043 11.603027 7.6907043 18.567017l0 105.0278c0 14.50177 -11.755981 26.257751 -26.257751 26.257751l-312.49237 0c-14.501755 0 -26.257751 -11.755981 -26.257751 -26.257751z" fill-rule="evenodd"></path><path stroke="#000000" stroke-width="1.0" stroke-linejoin="round" stroke-linecap="butt" d="m144.06561 471.00052l0 0c0 -14.5017395 11.755997 -26.257751 26.257751 -26.257751l312.49237 0c6.9639893 0 13.642761 2.766449 18.567047 7.690735c4.924286 4.924286 7.6907043 11.603027 7.6907043 18.567017l0 105.0278c0 14.50177 -11.755981 26.257751 -26.257751 26.257751l-312.49237 0c-14.501755 0 -26.257751 -11.755981 -26.257751 -26.257751z" fill-rule="evenodd"></path><path fill="#000000" d="m230.68088 537.9144l0 -28.640625l3.890625 0l15.03125 22.484375l0 -22.484375l3.640625 0l0 28.640625l-3.890625 0l-15.03125 -22.5l0 22.5l-3.640625 0zm27.839844 1.71875l3.40625 0.515625q0.21875 1.578125 1.203125 2.296875q1.296875 0.984375 3.5625 0.984375q2.453125 0 3.78125 -0.984375q1.328125 -0.96875 1.796875 -2.734375q0.265625 -1.078125 0.25 -4.515625q-2.3125 2.71875 -5.75 2.71875q-4.265625 0 -6.609375 -3.078125q-2.34375 -3.09375 -2.34375 -7.40625q0 -2.96875 1.0625 -5.484375q1.078125 -2.515625 3.109375 -3.875q2.046875 -1.375 4.8125 -1.375q3.671875 0 6.046875 2.96875l0 -2.5l3.25 0l0 17.9375q0 4.84375 -1.0 6.859375q-0.984375 2.03125 -3.125 3.203125q-2.125 1.171875 -5.25 1.171875q-3.71875 0 -6.0 -1.671875q-2.28125 -1.671875 -2.203125 -5.03125zm2.90625 -12.46875q0 4.09375 1.609375 5.96875q1.625 1.875 4.078125 1.875q2.421875 0 4.0625 -1.859375q1.640625 -1.875 1.640625 -5.859375q0 -3.8125 -1.703125 -5.734375q-1.6875 -1.9375 -4.0625 -1.9375q-2.34375 0 -3.984375 1.90625q-1.640625 1.890625 -1.640625 5.640625zm20.511719 10.75l0 -28.640625l20.703125 0l0 3.390625l-16.921875 0l0 8.765625l15.84375 0l0 3.359375l-15.84375 0l0 9.75l17.578125 0l0 3.375l-21.359375 0zm26.070312 0l0 -28.640625l3.515625 0l0 28.640625l-3.515625 0zm23.167969 -6.6875l3.625 0.453125q-0.859375 3.1875 -3.1875 4.953125q-2.3125 1.75 -5.9375 1.75q-4.546875 0 -7.21875 -2.796875q-2.65625 -2.8125 -2.65625 -7.875q0 -5.234375 2.6875 -8.125q2.703125 -2.890625 7.0 -2.890625q4.15625 0 6.796875 2.84375q2.640625 2.828125 2.640625 7.96875q0 0.3125 -0.03125 0.9375l-15.46875 0q0.203125 3.40625 1.9375 5.234375q1.734375 1.8125 4.34375 1.8125q1.921875 0 3.28125 -1.015625q1.375 -1.015625 2.1875 -3.25zm-11.546875 -5.671875l11.578125 0q-0.234375 -2.625 -1.328125 -3.9375q-1.671875 -2.03125 -4.359375 -2.03125q-2.421875 0 -4.078125 1.625q-1.640625 1.625 -1.8125 4.34375zm19.589844 12.359375l0 -20.75l3.140625 0l0 2.921875q0.984375 -1.53125 2.59375 -2.453125q1.625 -0.9375 3.703125 -0.9375q2.296875 0 3.765625 0.96875q1.484375 0.953125 2.09375 2.671875q2.453125 -3.640625 6.40625 -3.640625q3.078125 0 4.734375 1.71875q1.671875 1.703125 1.671875 5.265625l0 14.234375l-3.5 0l0 -13.0625q0 -2.109375 -0.34375 -3.03125q-0.34375 -0.9375 -1.25 -1.5q-0.890625 -0.578125 -2.09375 -0.578125q-2.1875 0 -3.640625 1.46875q-1.4375 1.453125 -1.4375 4.65625l0 12.046875l-3.515625 0l0 -13.484375q0 -2.34375 -0.859375 -3.515625q-0.859375 -1.171875 -2.8125 -1.171875q-1.484375 0 -2.75 0.78125q-1.265625 0.78125 -1.828125 2.296875q-0.5625 1.5 -0.5625 4.328125l0 10.765625l-3.515625 0zm47.523438 -6.6875l3.625 0.453125q-0.859375 3.1875 -3.1875 4.953125q-2.3125 1.75 -5.9375 1.75q-4.546875 0 -7.21875 -2.796875q-2.65625 -2.8125 -2.65625 -7.875q0 -5.234375 2.6875 -8.125q2.703125 -2.890625 7.0 -2.890625q4.15625 0 6.796875 2.84375q2.640625 2.828125 2.640625 7.96875q0 0.3125 -0.03125 0.9375l-15.46875 0q0.203125 3.40625 1.9375 5.234375q1.734375 1.8125 4.34375 1.8125q1.921875 0 3.28125 -1.015625q1.375 -1.015625 2.1875 -3.25zm-11.546875 -5.671875l11.578125 0q-0.234375 -2.625 -1.328125 -3.9375q-1.671875 -2.03125 -4.359375 -2.03125q-2.421875 0 -4.078125 1.625q-1.640625 1.625 -1.8125 4.34375zm19.589844 12.359375l0 -20.75l3.15625 0l0 2.953125q2.296875 -3.421875 6.609375 -3.421875q1.875 0 3.4375 0.6875q1.578125 0.671875 2.359375 1.765625q0.78125 1.09375 1.09375 2.59375q0.203125 0.96875 0.203125 3.421875l0 12.75l-3.515625 0l0 -12.625q0 -2.140625 -0.421875 -3.203125q-0.40625 -1.0625 -1.453125 -1.703125q-1.046875 -0.640625 -2.453125 -0.640625q-2.234375 0 -3.875 1.4375q-1.625 1.421875 -1.625 5.40625l0 11.328125l-3.515625 0zm29.917969 -3.140625l0.515625 3.09375q-1.484375 0.328125 -2.65625 0.328125q-1.921875 0 -2.984375 -0.609375q-1.046875 -0.609375 -1.484375 -1.59375q-0.421875 -0.984375 -0.421875 -4.15625l0 -11.9375l-2.578125 0l0 -2.734375l2.578125 0l0 -5.125l3.5 -2.109375l0 7.234375l3.53125 0l0 2.734375l-3.53125 0l0 12.140625q0 1.5 0.1875 1.9375q0.1875 0.421875 0.59375 0.671875q0.421875 0.25 1.203125 0.25q0.59375 0 1.546875 -0.125z" fill-rule="nonzero"></path></g></svg>

