<?xml version="1.0" standalone="yes"?>

<svg version="1.1" viewBox="0.0 0.0 498.16010498687666 345.1994750656168" fill="none" stroke="none" stroke-linecap="square" stroke-miterlimit="10" xmlns="http://www.w3.org/2000/svg" xmlns:xlink="http://www.w3.org/1999/xlink"><clipPath id="p.0"><path d="m0 0l498.1601 0l0 345.19946l-498.1601 0l0 -345.19946z" clip-rule="nonzero"></path></clipPath><g clip-path="url(#p.0)"><path fill="#000000" fill-opacity="0.0" d="m0 0l498.1601 0l0 345.19946l-498.1601 0z" fill-rule="evenodd"></path><path fill="#ffffff" d="m249.08005 335.89108l0 0c108.63919 0 196.70868 -73.10803 196.70868 -163.29135l0 0c0 -90.18331 -88.06949 -163.29134 -196.70868 -163.29134l0 0c-108.63919 0 -196.70865 73.10802 -196.70865 163.29134l0 0c0 43.307556 20.724602 84.84134 57.61463 115.46442l-57.61463 0l0 47.826935z" fill-rule="evenodd"></path><path stroke="#000000" stroke-width="8.0" stroke-linejoin="round" stroke-linecap="butt" d="m249.08005 335.89108l0 0c108.63919 0 196.70868 -73.10803 196.70868 -163.29135l0 0c0 -90.18331 -88.06949 -163.29134 -196.70868 -163.29134l0 0c-108.63919 0 -196.70865 73.10802 -196.70865 163.29134l0 0c0 43.307556 20.724602 84.84134 57.61463 115.46442l-57.61463 0l0 47.826935z" fill-rule="evenodd"></path><path fill="#000000" fill-opacity="0.0" d="m21.440945 79.843834l455.27557 0l0 185.51181l-455.27557 0z" fill-rule="evenodd"></path><path fill="#000000" d="m165.16078 131.8457q0 -1.75 1.234375 -2.984375q1.234375 -1.234375 2.984375 -1.234375q1.765625 0 2.984375 1.234375q1.234375 1.234375 1.234375 2.984375q0 1.765625 -1.234375 3.015625q-1.21875 1.234375 -2.984375 1.234375q-1.75 0 -2.984375 -1.234375q-1.234375 -1.25 -1.234375 -3.015625zm17.625 0q0 -1.75 1.234375 -2.984375q1.234375 -1.234375 2.984375 -1.234375q1.765625 0 2.984375 1.234375q1.234375 1.234375 1.234375 2.984375q0 1.765625 -1.234375 3.015625q-1.21875 1.234375 -2.984375 1.234375q-1.75 0 -2.984375 -1.234375q-1.234375 -1.25 -1.234375 -3.015625zm17.625 0q0 -1.75 1.234375 -2.984375q1.234375 -1.234375 2.984375 -1.234375q1.765625 0 2.984375 1.234375q1.234375 1.234375 1.234375 2.984375q0 1.765625 -1.234375 3.015625q-1.21875 1.234375 -2.984375 1.234375q-1.75 0 -2.984375 -1.234375q-1.234375 -1.25 -1.234375 -3.015625zm15.421875 1.171875l2.25 -5.453125q3.609375 2.53125 7.109375 2.53125q5.359375 0 5.359375 -3.75q0 -1.765625 -1.265625 -3.359375q-1.265625 -1.59375 -5.21875 -3.5625q-3.9375 -1.984375 -5.3125 -3.265625q-1.375 -1.28125 -2.109375 -3.03125q-0.734375 -1.765625 -0.734375 -3.890625q0 -3.984375 2.90625 -6.609375q2.921875 -2.625 7.5 -2.625q5.953125 0 8.734375 2.21875l-1.84375 5.25q-3.21875 -2.296875 -6.78125 -2.296875q-2.109375 0 -3.265625 1.125q-1.15625 1.109375 -1.15625 2.890625q0 2.953125 6.53125 6.140625q3.453125 1.6875 4.96875 3.109375q1.53125 1.40625 2.328125 3.296875q0.796875 1.890625 0.796875 4.203125q0 4.171875 -3.296875 6.875q-3.296875 2.703125 -8.828125 2.703125q-4.796875 0 -8.671875 -2.5zm40.335922 -17.734375q-1.5624847 -1.03125 -3.4374847 -1.03125q-2.046875 0 -3.625 1.859375q-1.578125 1.84375 -1.578125 4.515625l0 14.296875l-5.859375 0l0 -25.109375l5.859375 0l0 2.296875q2.453125 -2.765625 6.53125 -2.765625q2.9999847 0 4.5937347 0.921875l-2.484375 5.015625zm4.4609375 18.015625l2.078125 -4.65625q2.625 2.078125 5.9375 2.078125q3.421875 0 3.421875 -2.4375q0 -1.421875 -1.03125 -2.328125q-1.03125 -0.921875 -4.015625 -2.171875q-6.484375 -2.6875 -6.484375 -7.546875q0 -3.25 2.484375 -5.0625q2.484375 -1.828125 6.34375 -1.828125q3.921875 0 7.359375 1.765625l-1.6875 4.546875q-1.921875 -1.640625 -5.34375 -1.640625q-3.0625 0 -3.0625 2.4375q0 0.953125 1.0 1.734375q1.015625 0.765625 4.3125 2.078125q3.3125 1.296875 4.765625 3.15625q1.4531555 1.84375 1.4531555 4.46875q0 3.484375 -2.5937805 5.5q-2.59375 2.0 -7.046875 2.0q-2.5 0 -4.015625 -0.421875q-1.515625 -0.40625 -3.875 -1.671875zm23.21878 -32.828125l5.859375 -1.40625l0 28.21875q0 4.640625 2.765625 5.53125q-1.359375 2.578125 -4.640625 2.578125q-3.984375 0 -3.984375 -5.53125l0 -29.390625zm24.265625 38.484375q-0.9375 2.515625 -4.03125 4.15625q-3.078125 1.65625 -7.171875 1.65625l0 -5.171875q6.765625 0 6.765625 -3.40625q0 -2.25 -1.875 -6.890625l-7.84375 -19.484375l6.0625 0l6.84375 17.34375l6.171875 -17.34375l6.0625 0l-10.984375 29.140625zm15.4140625 -7.109375q0 -1.75 1.234375 -2.984375q1.234375 -1.234375 2.984375 -1.234375q1.765625 0 2.984375 1.234375q1.234375 1.234375 1.234375 2.984375q0 1.765625 -1.234375 3.015625q-1.21875 1.234375 -2.984375 1.234375q-1.75 0 -2.984375 -1.234375q-1.234375 -1.25 -1.234375 -3.015625z" fill-rule="nonzero"></path><path fill="#000000" d="m110.44203 192.92383l-7.625 0l0 -34.3125q7.296875 -0.265625 9.171875 -0.265625q7.5 0 11.890625 4.40625q4.390625 4.390625 4.390625 11.65625q0 18.515625 -17.828125 18.515625zm-1.53125 -29.0l0 23.4375q1.484375 0.140625 3.1875 0.140625q4.625 0 7.234375 -3.34375q2.609375 -3.359375 2.609375 -9.375q0 -11.015625 -10.234375 -11.015625q-0.984375 0 -2.796875 0.15625zm22.765625 16.390625q0 -5.75 3.3125 -9.359375q3.3125 -3.609375 8.75 -3.609375q5.71875 0 8.875 3.46875q3.171875 3.46875 3.171875 9.5q0 6.0 -3.21875 9.546875q-3.21875 3.53125 -8.828125 3.53125q-5.71875 0 -8.890625 -3.578125q-3.171875 -3.578125 -3.171875 -9.5zm6.09375 0q0 8.296875 5.96875 8.296875q2.75 0 4.34375 -2.15625q1.609375 -2.15625 1.609375 -6.140625q0 -8.1875 -5.953125 -8.1875q-2.734375 0 -4.359375 2.15625q-1.609375 2.15625 -1.609375 6.03125zm38.851562 12.609375l0 -14.515625q0 -3.203125 -1.234375 -4.671875q-1.21875 -1.484375 -4.015625 -1.484375q-1.28125 0 -2.75 0.734375q-1.46875 0.71875 -2.28125 1.796875l0 18.140625l-5.859375 0l0 -25.109375l4.21875 0l1.078125 2.34375q2.390625 -2.8125 7.046875 -2.8125q4.484375 0 7.0625 2.6875q2.59375 2.6875 2.59375 7.484375l0 15.40625l-5.859375 0zm15.1640625 -20.296875l-1.9375 -2.609375q2.171875 -1.65625 2.65625 -2.453125q0.5 -0.796875 0.5 -1.6875q0 -0.9375 -1.15625 -2.078125q-1.140625 -1.15625 -1.140625 -2.46875q0 -3.796875 3.75 -3.796875q1.90625 0 2.9375 1.21875q1.046875 1.21875 1.046875 3.28125q0 6.46875 -6.65625 10.59375zm15.546875 -0.09375l-2.90625 0l0 -4.71875l2.90625 0l0 -5.109375l5.859375 -2.15625l0 7.265625l6.890625 0l0 4.71875l-6.890625 0l0 10.984375q0 2.703125 0.84375 3.8125q0.84375 1.109375 2.953125 1.109375q2.109375 0 3.9375 -1.140625l0 5.390625q-2.046875 0.703125 -5.8125 0.703125q-3.75 0 -5.765625 -2.125q-2.015625 -2.125 -2.015625 -6.03125l0 -12.703125zm33.492188 0l-2.90625 0l0 -4.71875l2.90625 0l0 -5.109375l5.859375 -2.15625l0 7.265625l6.890625 0l0 4.71875l-6.890625 0l0 10.984375q0 2.703125 0.84375 3.8125q0.84375 1.109375 2.953125 1.109375q2.109375 0 3.9375 -1.140625l0 5.390625q-2.046875 0.703125 -5.8125 0.703125q-3.75 0 -5.765625 -2.125q-2.015625 -2.125 -2.015625 -6.03125l0 -12.703125zm32.64061 0.75q-1.5625 -1.03125 -3.4375 -1.03125q-2.046875 0 -3.625 1.859375q-1.578125 1.84375 -1.578125 4.515625l0 14.296875l-5.859375 0l0 -25.109375l5.859375 0l0 2.296875q2.453125 -2.765625 6.53125 -2.765625q3.0 0 4.59375 0.921875l-2.484375 5.015625zm17.117218 23.671875q-0.9375 2.515625 -4.03125 4.15625q-3.078125 1.65625 -7.171875 1.65625l0 -5.171875q6.765625 0 6.765625 -3.40625q0 -2.25 -1.875 -6.890625l-7.8437805 -19.484375l6.0625305 0l6.84375 17.34375l6.171875 -17.34375l6.0625 0l-10.984375 29.140625zm29.859375 -24.421875l-2.90625 0l0 -4.71875l2.90625 0l0 -5.109375l5.859375 -2.15625l0 7.265625l6.890625 0l0 4.71875l-6.890625 0l0 10.984375q0 2.703125 0.84375 3.8125q0.84375 1.109375 2.953125 1.109375q2.109375 0 3.9375 -1.140625l0 5.390625q-2.046875 0.703125 -5.8125 0.703125q-3.75 0 -5.765625 -2.125q-2.015625 -2.125 -2.015625 -6.03125l0 -12.703125zm34.375 20.390625l0 -15.46875q0 -2.328125 -1.453125 -3.734375q-1.453125 -1.40625 -3.796875 -1.40625q-1.453125 0 -2.9375 0.796875q-1.46875 0.78125 -2.09375 1.78125l0 18.03125l-5.953125 0l0 -34.453125l5.953125 -1.40625l0 12.34375q2.265625 -2.0625 6.25 -2.0625q4.71875 0 7.3125 2.625q2.609375 2.609375 2.609375 7.484375l0 15.46875l-5.890625 0zm16.8125 -34.828125q1.40625 0 2.390625 1.0q1.0 0.984375 1.0 2.390625q0 1.40625 -1.0 2.40625q-0.984375 1.0 -2.390625 1.0q-1.40625 0 -2.40625 -1.0q-1.0 -1.0 -1.0 -2.40625q0 -1.40625 1.0 -2.390625q1.0 -1.0 2.40625 -1.0zm-3.03125 34.828125l0 -20.296875l-3.203125 0l0 -4.8125l9.140625 0l0 25.109375l-5.9375 0zm11.2109375 -1.625l2.078125 -4.65625q2.625 2.078125 5.9375 2.078125q3.421875 0 3.421875 -2.4375q0 -1.421875 -1.03125 -2.328125q-1.03125 -0.921875 -4.015625 -2.171875q-6.484375 -2.6875 -6.484375 -7.546875q0 -3.25 2.484375 -5.0625q2.484375 -1.828125 6.34375 -1.828125q3.921875 0 7.359375 1.765625l-1.6875 4.546875q-1.921875 -1.640625 -5.34375 -1.640625q-3.0625 0 -3.0625 2.4375q0 0.953125 1.0 1.734375q1.015625 0.765625 4.3125 2.078125q3.3125 1.296875 4.765625 3.15625q1.453125 1.84375 1.453125 4.46875q0 3.484375 -2.59375 5.5q-2.59375 2.0 -7.046875 2.0q-2.5 0 -4.015625 -0.421875q-1.515625 -0.40625 -3.875 -1.671875z" fill-rule="nonzero"></path><path fill="#000000" d="m165.64906 248.4082q-0.796875 1.3125 -2.78125 2.15625q-1.984375 0.828125 -4.140625 0.828125q-4.046875 0 -6.375 -2.03125q-2.3125 -2.03125 -2.3125 -5.75q0 -4.359375 3.265625 -6.8125q3.265625 -2.46875 9.296875 -2.46875q1.03125 0 2.4375 0.34375q0 -4.421875 -5.609375 -4.421875q-3.296875 0 -5.53125 1.09375l-1.265625 -4.546875q3.03125 -1.453125 7.203125 -1.453125q5.734375 0 8.40625 2.625q2.671875 2.609375 2.671875 9.890625l0 5.375q0 5.015625 2.015625 6.296875q-0.71875 1.265625 -1.609375 1.5625q-0.890625 0.296875 -2.046875 0.296875q-1.265625 0 -2.28125 -0.9375q-1.0 -0.9375 -1.34375 -2.046875zm-0.5625 -9.296875q-1.5 -0.3125 -2.25 -0.3125q-6.9375 0 -6.9375 4.546875q0 3.375 3.90625 3.375q5.28125 0 5.28125 -5.265625l0 -2.34375zm13.0546875 -8.578125l-2.90625 0l0 -4.71875l2.90625 0l0 -5.109375l5.859375 -2.15625l0 7.265625l6.890625 0l0 4.71875l-6.890625 0l0 10.984375q0 2.703125 0.84375 3.8125q0.84375 1.109375 2.953125 1.109375q2.109375 0 3.9375 -1.140625l0 5.390625q-2.046875 0.703125 -5.8125 0.703125q-3.75 0 -5.765625 -2.125q-2.015625 -2.125 -2.015625 -6.03125l0 -12.703125zm48.835938 20.390625l0 -15.46875q0 -2.328125 -1.453125 -3.734375q-1.453125 -1.40625 -3.796875 -1.40625q-1.453125 0 -2.9375 0.796875q-1.46875 0.78125 -2.09375 1.78125l0 18.03125l-5.953125 0l0 -34.453125l5.953125 -1.40625l0 12.34375q2.265625 -2.0625 6.25 -2.0625q4.71875 0 7.3125 2.625q2.609375 2.609375 2.609375 7.484375l0 15.46875l-5.890625 0zm10.578125 -12.609375q0 -5.75 3.3125 -9.359375q3.3125 -3.609375 8.75 -3.609375q5.71875 0 8.874985 3.46875q3.171875 3.46875 3.171875 9.5q0 6.0 -3.21875 9.546875q-3.2187347 3.53125 -8.82811 3.53125q-5.71875 0 -8.890625 -3.578125q-3.171875 -3.578125 -3.171875 -9.5zm6.09375 0q0 8.296875 5.96875 8.296875q2.75 0 4.34375 -2.15625q1.609375 -2.15625 1.609375 -6.140625q0 -8.1875 -5.953125 -8.1875q-2.734375 0 -4.359375 2.15625q-1.609375 2.15625 -1.609375 6.03125zm51.773453 12.609375l0 -15.734375q0 -4.9375 -4.4375 -4.9375q-1.3125 0 -2.53125 0.78125q-1.21875 0.765625 -1.703125 1.765625l0 18.125l-5.859375 0l0 -16.640625q0 -1.859375 -1.15625 -2.9375q-1.140625 -1.09375 -3.2344055 -1.09375q-1.09375 0 -2.40625 0.828125q-1.296875 0.8125 -1.875 1.796875l0 18.046875l-5.859375 0l0 -25.109375l4.03125 0l1.1875 2.203125q2.4375 -2.671875 6.3125305 -2.671875q4.984375 0 7.515625 2.71875q1.109375 -1.234375 3.078125 -1.96875q1.96875 -0.75 3.9375 -0.75q4.1875 0 6.515625 2.40625q2.34375 2.40625 2.34375 6.59375l0 16.578125l-5.859375 0zm34.59375 -10.765625l-17.9375 0q0.171875 3.0 2.0625 4.671875q1.90625 1.65625 5.109375 1.65625q4.015625 0 6.09375 -2.078125l2.28125 4.46875q-3.09375 2.515625 -9.234375 2.515625q-5.75 0 -9.09375 -3.359375q-3.328125 -3.375 -3.328125 -9.390625q0 -5.9375 3.65625 -9.609375q3.671875 -3.6875 8.8125 -3.6875q5.453125 0 8.75 3.265625q3.3125 3.25 3.3125 8.296875q0 1.078125 -0.484375 3.25zm-17.71875 -4.40625l12.328125 0q-0.609375 -5.5 -6.09375 -5.5q-5.015625 0 -6.234375 5.5zm23.804688 12.09375q0 -1.75 1.234375 -2.984375q1.234375 -1.234375 2.984375 -1.234375q1.765625 0 2.984375 1.234375q1.234375 1.234375 1.234375 2.984375q0 1.765625 -1.234375 3.015625q-1.21875 1.234375 -2.984375 1.234375q-1.75 0 -2.984375 -1.234375q-1.234375 -1.25 -1.234375 -3.015625z" fill-rule="nonzero"></path></g></svg>

