<?xml version="1.0" standalone="yes"?>

<svg version="1.1" viewBox="0.0 0.0 936.6456692913385 675.8083989501313" fill="none" stroke="none" stroke-linecap="square" stroke-miterlimit="10" xmlns="http://www.w3.org/2000/svg" xmlns:xlink="http://www.w3.org/1999/xlink"><clipPath id="p.0"><path d="m0 0l936.6457 0l0 675.8084l-936.6457 0l0 -675.8084z" clip-rule="nonzero"></path></clipPath><g clip-path="url(#p.0)"><path fill="#000000" fill-opacity="0.0" d="m0 0l936.6457 0l0 675.8084l-936.6457 0z" fill-rule="evenodd"></path><path fill="#000000" fill-opacity="0.0" d="m353.35434 7.5433073l253.29135 0l0 87.30709l-253.29135 0z" fill-rule="evenodd"></path><path fill="#434343" d="m422.5625 43.91685l-4.6875 0l-9.125 -14.968752l0 14.968752l-4.6875 0l0 -22.750002l4.6875 0l9.140625 15.000002l0 -15.000002l4.671875 0l0 22.750002zm3.09375 -8.609375q0 -2.515625 0.96875 -4.484377q0.96875 -1.96875 2.78125 -3.046875q1.828125 -1.078125 4.234375 -1.078125q3.421875 0 5.578125 2.09375q2.171875 2.09375 2.421875 5.687502l0.03125 1.15625q0 3.890625 -2.171875 6.25q-2.171875 2.34375 -5.828125 2.34375q-3.65625 0 -5.84375 -2.34375q-2.171875 -2.34375 -2.171875 -6.375l0 -0.203125zm4.515625 0.328125q0 2.40625 0.90625 3.6875q0.90625 1.265625 2.59375 1.265625q1.640625 0 2.5625 -1.25q0.921875 -1.265625 0.921875 -4.03125q0 -2.359375 -0.921875 -3.656252q-0.921875 -1.296875 -2.59375 -1.296875q-1.65625 0 -2.5625 1.296875q-0.90625 1.2812519 -0.90625 3.984377zm34.34375 2.3125q0 -1.328125 -0.9375 -2.03125q-0.9375 -0.71875 -3.375 -1.5q-2.4375 -0.796875 -3.859375 -1.5625q-3.875 -2.093752 -3.875 -5.640627q0 -1.84375 1.03125 -3.28125q1.046875 -1.453125 2.984375 -2.265625q1.953125 -0.8125 4.375 -0.8125q2.4375 0 4.34375 0.890625q1.90625 0.875 2.953125 2.484375q1.0625 1.609375 1.0625 3.65625l-4.6875 0q0 -1.5625 -0.984375 -2.421875q-0.984375 -0.875 -2.765625 -0.875q-1.71875 0 -2.671875 0.734375q-0.953125 0.71875 -0.953125 1.90625q0 1.109375 1.109375 1.859375q1.125 0.75 3.296875 1.40625q4.0 1.203125 5.828125 2.984377q1.828125 1.78125 1.828125 4.4375q0 2.953125 -2.234375 4.640625q-2.234375 1.671875 -6.015625 1.671875q-2.625 0 -4.78125 -0.953125q-2.15625 -0.96875 -3.296875 -2.640625q-1.125 -1.671875 -1.125 -3.875l4.703125 0q0 3.765625 4.5 3.765625q1.671875 0 2.609375 -0.671875q0.9375 -0.6875 0.9375 -1.90625zm15.359375 6.28125q-3.71875 0 -6.0625 -2.28125q-2.328125 -2.28125 -2.328125 -6.078125l0 -0.4375q0 -2.546875 0.984375 -4.546877q0.984375 -2.015625 2.78125 -3.09375q1.8125 -1.09375 4.125 -1.09375q3.46875 0 5.453125 2.1875q2.0 2.1875 2.0 6.203127l0 1.84375l-10.765625 0q0.21875 1.65625 1.3125 2.65625q1.109375 1.0 2.796875 1.0q2.609375 0 4.078125 -1.890625l2.21875 2.484375q-1.015625 1.4375 -2.75 2.25q-1.734375 0.796875 -3.84375 0.796875zm-0.515625 -13.875002q-1.34375 0 -2.1875 0.90625q-0.828125 0.9062519 -1.0625 2.593752l6.28125 0l0 -0.359375q-0.03125 -1.5000019 -0.8125 -2.312502q-0.78125 -0.828125 -2.21875 -0.828125zm19.53125 0.890625q-0.921875 -0.125 -1.625 -0.125q-2.5625 0 -3.359375 1.7343769l0 11.0625l-4.515625 0l0 -16.906252l4.265625 0l0.125 2.015625q1.359375 -2.328125 3.765625 -2.328125q0.75 0 1.40625 0.203125l-0.0625 4.34375zm8.5 7.156252l3.140625 -11.390627l4.71875 0l-5.703125 16.906252l-4.3125 0l-5.703125 -16.906252l4.71875 0l3.140625 11.390627zm14.609375 5.515625l-4.53125 0l0 -16.906252l4.53125 0l0 16.906252zm-4.796875 -21.281252q0 -1.015625 0.671875 -1.671875q0.6875 -0.65625 1.859375 -0.65625q1.15625 0 1.84375 0.65625q0.6875 0.65625 0.6875 1.671875q0 1.03125 -0.703125 1.6875q-0.6875 0.65625 -1.828125 0.65625q-1.140625 0 -1.84375 -0.65625q-0.6875 -0.65625 -0.6875 -1.6875zm15.546875 17.953127q1.25 0 2.03125 -0.6875q0.78125 -0.6875 0.8125 -1.828125l4.234375 0q-0.015625 1.71875 -0.9375 3.15625q-0.921875 1.421875 -2.53125 2.21875q-1.59375 0.78125 -3.53125 0.78125q-3.625 0 -5.71875 -2.296875q-2.09375 -2.3125 -2.09375 -6.375l0 -0.296875q0 -3.906252 2.078125 -6.234377q2.078125 -2.328125 5.703125 -2.328125q3.171875 0 5.078125 1.8125q1.921875 1.796875 1.953125 4.796877l-4.234375 0q-0.03125 -1.3125019 -0.8125 -2.125002q-0.78125 -0.828125 -2.0625 -0.828125q-1.578125 0 -2.390625 1.15625q-0.796875 1.1406269 -0.796875 3.718752l0 0.46875q0 2.609375 0.796875 3.75q0.796875 1.140625 2.421875 1.140625zm17.4375 3.640625q-3.71875 0 -6.0625 -2.28125q-2.328125 -2.28125 -2.328125 -6.078125l0 -0.4375q0 -2.546875 0.984375 -4.546877q0.984375 -2.015625 2.78125 -3.09375q1.8125 -1.09375 4.125 -1.09375q3.46875 0 5.453125 2.1875q2.0 2.1875 2.0 6.203127l0 1.84375l-10.765625 0q0.21875 1.65625 1.3125 2.65625q1.109375 1.0 2.796875 1.0q2.609375 0 4.078125 -1.890625l2.21875 2.484375q-1.015625 1.4375 -2.75 2.25q-1.734375 0.796875 -3.84375 0.796875zm-0.515625 -13.875002q-1.34375 0 -2.1875 0.90625q-0.828125 0.9062519 -1.0625 2.593752l6.28125 0l0 -0.359375q-0.03125 -1.5000019 -0.8125 -2.312502q-0.78125 -0.828125 -2.21875 -0.828125z" fill-rule="nonzero"></path><path fill="#434343" d="m447.84375 75.35435l3.0625 -16.187496l4.671875 0l-5.046875 22.749996l-4.71875 0l-3.703125 -15.21875l-3.703125 15.21875l-4.71875 0l-5.046875 -22.749996l4.671875 0l3.078125 16.156246l3.75 -16.156246l3.96875 0l3.734375 16.187496zm9.265625 -2.046875q0 -2.515625 0.96875 -4.484375q0.96875 -1.96875 2.78125 -3.046875q1.828125 -1.078125 4.234375 -1.078125q3.421875 0 5.578125 2.09375q2.171875 2.09375 2.421875 5.6875l0.03125 1.15625q0 3.890625 -2.171875 6.25q-2.171875 2.34375 -5.828125 2.34375q-3.65625 0 -5.84375 -2.34375q-2.171875 -2.34375 -2.171875 -6.375l0 -0.203125zm4.515625 0.328125q0 2.40625 0.90625 3.6875q0.90625 1.265625 2.59375 1.265625q1.640625 0 2.5625 -1.25q0.921875 -1.265625 0.921875 -4.03125q0 -2.359375 -0.921875 -3.65625q-0.921875 -1.296875 -2.59375 -1.296875q-1.65625 0 -2.5625 1.296875q-0.90625 1.28125 -0.90625 3.984375zm23.78125 -4.390625q-0.921875 -0.125 -1.625 -0.125q-2.5625 0 -3.359375 1.734375l0 11.0625l-4.515625 0l0 -16.90625l4.265625 0l0.125 2.015625q1.359375 -2.328125 3.765625 -2.328125q0.75 0 1.40625 0.203125l-0.0625 4.34375zm8.3125 5.890625l-1.625 1.625l0 5.15625l-4.515625 0l0 -23.999996l4.515625 0l0 13.296871l0.875 -1.125l4.328125 -5.078125l5.421875 0l-6.109375 7.046875l6.640625 9.859375l-5.1875 0l-4.34375 -6.78125zm18.734375 7.09375q-3.71875 0 -6.0625 -2.28125q-2.328125 -2.28125 -2.328125 -6.078125l0 -0.4375q0 -2.546875 0.984375 -4.546875q0.984375 -2.015625 2.78125 -3.09375q1.8125 -1.09375 4.125 -1.09375q3.46875 0 5.453125 2.1875q2.0 2.1875 2.0 6.203125l0 1.84375l-10.765625 0q0.21875 1.65625 1.3125 2.65625q1.109375 1.0 2.796875 1.0q2.609375 0 4.078125 -1.890625l2.21875 2.484375q-1.015625 1.4375 -2.75 2.25q-1.734375 0.796875 -3.84375 0.796875zm-0.515625 -13.875q-1.34375 0 -2.1875 0.90625q-0.828125 0.90625 -1.0625 2.59375l6.28125 0l0 -0.359375q-0.03125 -1.5 -0.8125 -2.3125q-0.78125 -0.828125 -2.21875 -0.828125zm19.53125 0.890625q-0.921875 -0.125 -1.625 -0.125q-2.5625 0 -3.359375 1.734375l0 11.0625l-4.515625 0l0 -16.90625l4.265625 0l0.125 2.015625q1.359375 -2.328125 3.765625 -2.328125q0.75 0 1.40625 0.203125l-0.0625 4.34375z" fill-rule="nonzero"></path></g></svg>

