<?xml version="1.0" standalone="yes"?>

<svg version="1.1" viewBox="0.0 0.0 126.28083989501312 100.0" fill="none" stroke="none" stroke-linecap="square" stroke-miterlimit="10" xmlns="http://www.w3.org/2000/svg" xmlns:xlink="http://www.w3.org/1999/xlink"><clipPath id="p.0"><path d="m0 0l126.28084 0l0 100.0l-126.28084 0l0 -100.0z" clip-rule="nonzero"></path></clipPath><g clip-path="url(#p.0)"><path fill="#000000" fill-opacity="0.0" d="m0 0l126.28084 0l0 100.0l-126.28084 0z" fill-rule="evenodd"></path><path fill="#000000" fill-opacity="0.0" d="m0 19.585302l124.56693 0l0 25.795275l-124.56693 0z" fill-rule="evenodd"></path><path fill="#980000" d="m42.57253 26.42919q0 -0.078125 0 -0.25q0 -0.171875 0 -0.375q0 -0.203125 0 -0.375q0 -0.171875 0 -0.25q0 -1.0 0.109375 -1.78125q0.109375 -0.796875 0.28125 -1.546875q0.171875 -0.75 0.421875 -1.53125q0.265625 -0.78125 0.546875 -1.765625q0 -0.046875 0.015625 -0.171875q0.015625 -0.140625 0.015625 -0.1875q0.046875 -0.015625 -0.421875 -0.21875q-0.453125 -0.21875 -1.109375 -0.609375q-0.65625 -0.390625 -1.4375 -0.96875q-0.765625 -0.59375095 -1.40625 -1.359376q-0.640625 -0.78125 -1.03125 -1.734375q-0.390625 -0.96875 -0.296875 -2.140625q0.03125 0 0.125 0q0.109375 -0.015625 0.234375 -0.03125q0.140625 -0.015625 0.25 -0.03125l0.140625 0q0.171875 0.46875 0.453125 1.0625q0.28125 0.578125 0.6875 1.1875q0.40625 0.609375 0.890625 1.1875q0.5 0.5625 1.046875 1.03125q0.5625 0.45312595 1.15625 0.71875095q0.59375 0.265625 1.234375 0.265625q0.421875 -0.93750095 0.65625 -1.484376q0.25 -0.546875 0.390625 -0.84375q0.140625 -0.3125 0.1875 -0.46875q0.046875 -0.15625 0.0625 -0.328125q0.03125 -0.171875 0.046875 -0.421875q0.03125 -0.25 0.125 -0.765625q0 -0.09375 0.1875 -0.1875q0.1875 -0.109375 0.390625 -0.125q0.203125 -0.03125 0.375 0.046875q0.171875 0.0625 0.171875 0.265625q0 1.296875 -0.28125 2.453125q-0.28125 1.15625 -0.703125 2.265626q-0.421875 1.09375 -0.890625 2.1875q-0.46875 1.09375 -0.828125 2.25q-0.34375 1.140625 -0.5 2.390625q-0.140625 1.234375 0.0625 2.640625q-0.140625 0.265625 -0.28125 0.359375q-0.140625 0.109375 -0.375 0.109375q-0.234375 0 -0.40625 -0.109375q-0.15625 -0.09375 -0.296875 -0.359375zm5.3984375 -6.1875q0 -1.21875 0.359375 -2.328125q0.359375 -1.125 1.046875 -1.968751q0.703125 -0.84375 1.6875 -1.34375q1.0 -0.5 2.3125 -0.5q0.78125 0.09375 1.34375 0.421875q0.578125 0.328125 0.9375 0.8125q0.375 0.46875 0.53125 1.109376q0.140625 0.609375 0.140625 1.3125q0 0.84375 -0.5 1.53125q-0.484375 0.671875 -1.234375 1.125q-0.75 0.453125 -1.625 0.703125q-0.859375 0.25 -1.609375 0.25q-0.28125 0 -0.578125 0q-0.28125 0 -0.515625 -0.09375q-0.234375 -0.09375 -0.375 -0.28125q-0.140625 -0.1875 -0.140625 -0.5625q0 -0.125 0.03125 -0.203125q0.03125 -0.078125 0.1875 -0.109375q0.171875 -0.046875 0.5 -0.015625q0.328125 0.046875 0.890625 0.140625q0.328125 0 0.953125 -0.21875q0.625 -0.234375 1.265625 -0.578125q0.640625 -0.359375 1.109375 -0.8125q0.46875 -0.453125 0.46875 -0.90625q0 -0.46875 -0.15625 -0.921875q-0.140625 -0.453125 -0.453125 -0.796875q-0.296875 -0.35937595 -0.71875 -0.56250095q-0.40625 -0.21875 -0.921875 -0.171875q-0.8125 0.0625 -1.484375 0.4375q-0.671875 0.37500095 -1.140625 0.98437595q-0.46875 0.59375 -0.734375 1.328125q-0.25 0.71875 -0.25 1.515625q0 0.609375 0.015625 1.21875q0.03125 0.609375 0.1875 1.203125q0.15625 0.578125 0.484375 1.125q0.34375 0.53125 0.984375 0.9375q0.65625 0.40625 1.640625 0.6875q0.984375 0.265625 2.4375 0.328125l4.1875 -0.28125q-0.375 0.515625 -0.953125 0.84375q-0.5625 0.328125 -1.21875 0.53125q-0.640625 0.203125 -1.28125 0.296875q-0.625 0.09375 -1.1875 0.09375q-1.359375 0 -2.5625 -0.4375q-1.1875 -0.453125 -2.109375 -1.265625q-0.90625 -0.8125 -1.4375 -1.96875q-0.515625 -1.15625 -0.515625 -2.609375zm12.375 2.3125q0.015625 -0.390625 0.21875 -0.90625q0.21875 -0.515625 0.65625 -1.0q0.453125 -0.5 1.125 -0.890625q0.6875 -0.390625 1.609375 -0.546875q0.9374962 -0.171875 2.1093712 -0.03125q1.1875 0.140625 2.640625 0.703125q0 -0.015625 0 -0.234375l-0.015625 -0.203125q0 -0.609375 -0.359375 -1.234375q-0.34375 -0.640625 -0.90625 -1.140625q-0.546875 -0.515625 -1.1875 -0.828125q-0.625 -0.31250095 -1.203125 -0.31250095q-0.234375 0 -0.421875 0.07812595q-0.171875 0.0625 -0.34375 0.171875q-0.15625 0.09375 -0.3124962 0.1875q-0.140625 0.078125 -0.359375 0.078125q-0.046875 0 -0.046875 -0.03125q-0.015625 -0.015625 -0.046875 -0.046875q-0.046875 -0.046875 -0.125 -0.109375q-0.078125 -0.078125 -0.078125 -0.09375q0 -0.42187595 0.140625 -0.71875095q0.15625 -0.3125 0.421875 -0.5q0.2812462 -0.1875 0.6093712 -0.296875q0.34375 -0.109375 0.71875 -0.109375q0.9375 0.09375 1.796875 0.578125q0.859375 0.484375 1.5625 1.218751q0.71875 0.71875 1.25 1.671875q0.546875 0.9375 0.90625 1.96875q0.375 1.015625 0.484375 2.046875q0.140625 1.078125 0.03125 2.015625q-0.03125 0 -0.15625 -0.015625q-0.109375 -0.015625 -0.25 -0.015625q-0.140625 -0.015625 -0.234375 -0.046875l-0.109375 -0.015625q-0.5 -1.109375 -1.109375 -1.78125q-0.609375 -0.6875 -1.203125 -1.0625q-0.59375 -0.390625 -1.109375 -0.546875q-0.515625 -0.15625 -0.84375 -0.21875q-0.359375 0 -0.84375 0.046875q-0.46875 0.046875 -0.984375 0.171875q-0.5156212 0.109375 -1.0468712 0.3125q-0.53125 0.1875 -0.9375 0.46875q-0.40625 0.28125 -0.65625 0.671875q-0.25 0.390625 -0.25 0.90625q0 0.5625 0.4375 0.953125q0.453125 0.375 1.078125 0.625q0.640625 0.25 1.2968712 0.34375q0.65625 0.09375 1.0625 0.09375q0.65625 0 1.28125 -0.0625q0.640625 -0.078125 1.25 -0.171875q0.625 -0.09375 1.234375 -0.15625q0.609375 -0.078125 1.21875 -0.078125q0.046875 0 0.15625 0q0.125 0 0.25 0.015625q0.140625 0 0.234375 0q0.109375 0 0.15625 0q0.1875 0.078125 0.203125 0.21875q0.03125 0.140625 0.03125 0.28125q0 0.140625 -0.296875 0.3125q-0.28125 0.15625 -0.75 0.328125q-0.46875 0.15625 -1.046875 0.328125q-0.578125 0.171875 -1.109375 0.296875q-0.515625 0.109375 -0.984375 0.203125q-0.453125 0.078125 -0.640625 0.078125q-0.984375 0 -2.09375 -0.15625q-1.0937462 -0.171875 -2.0156212 -0.609375q-0.90625 -0.4375 -1.5 -1.203125q-0.59375 -0.78125 -0.59375 -2.0zm12.749996 1.71875q0 -0.1875 0.140625 -0.5625q0.15625 -0.375 0.359375 -0.765625q0.21875 -0.390625 0.4375 -0.671875q0.234375 -0.28125 0.390625 -0.28125q0.46875 0 0.8125 0.25q0.359375 0.25 0.578125 0.625q0.234375 0.375 0.34375 0.828125q0.125 0.4375 0.125 0.8125q0 0.28125 -0.171875 0.640625q-0.15625 0.34375 -0.40625 0.65625q-0.25 0.296875 -0.5625 0.515625q-0.296875 0.203125 -0.59375 0.203125q-0.359375 0 -0.625 -0.25q-0.25 -0.25 -0.453125 -0.609375q-0.1875 -0.359375 -0.28125 -0.75q-0.09375 -0.390625 -0.09375 -0.640625zm4.890625 0q0 -0.1875 0.15625 -0.5625q0.15625 -0.375 0.359375 -0.765625q0.21875 -0.390625 0.4375 -0.671875q0.21875 -0.28125 0.390625 -0.28125q0.46875 0 0.8125 0.25q0.359375 0.25 0.578125 0.625q0.21875 0.375 0.328125 0.828125q0.109375 0.4375 0.109375 0.8125q0 0.28125 -0.15625 0.640625q-0.15625 0.34375 -0.390625 0.65625q-0.234375 0.296875 -0.5625 0.5q-0.328125 0.21875 -0.609375 0.21875q-0.34375 0 -0.609375 -0.25q-0.25 -0.25 -0.453125 -0.609375q-0.203125 -0.359375 -0.296875 -0.75q-0.09375 -0.390625 -0.09375 -0.640625zm4.90625 0q0 -0.1875 0.140625 -0.5625q0.15625 -0.375 0.359375 -0.765625q0.21875 -0.390625 0.4375 -0.671875q0.234375 -0.28125 0.390625 -0.28125q0.46875 0 0.8125 0.25q0.359375 0.25 0.578125 0.625q0.234375 0.375 0.328125 0.828125q0.109375 0.4375 0.109375 0.8125q0 0.28125 -0.15625 0.640625q-0.140625 0.34375 -0.390625 0.65625q-0.25 0.296875 -0.5625 0.515625q-0.296875 0.203125 -0.59375 0.203125q-0.359375 0 -0.625 -0.25q-0.25 -0.25 -0.453125 -0.609375q-0.1875 -0.359375 -0.28125 -0.75q-0.09375 -0.390625 -0.09375 -0.640625z" fill-rule="nonzero"></path><path fill="#980000" d="m18.033466 42.491688q-1.640625 0 -3.390625 -0.21875q-1.734375 -0.234375 -3.328125 -0.484375q-0.21875 0.046875 -0.34375 -0.0625q-0.109375 -0.109375 -0.1875 -0.28125q-0.0625 -0.171875 -0.078125 -0.328125q0 -0.171875 0 -0.265625q0.34375 0 1.203125 0q0.875 0 2.0625 0.03125q1.1875 0.015625 2.578125 0.0625q1.390625 0.046875 2.796875 0.140625q1.40625 0.09375 2.71875 0.21875q1.3125 0.125 2.328125 0.328125q1.03125 0.203125 1.625 0.46875q0.59375 0.25 0.59375 0.578125q0 0.234375 -0.078125 0.46875q-0.0625 0.234375 -0.34375 0.234375q-0.859375 -0.046875 -1.703125 -0.25q-0.84375 -0.21875 -1.6875 -0.421875q-0.84375 -0.203125 -1.734375 -0.28125q-0.875 -0.078125 -1.78125 0.203125q0 1.078125 0.125 2.375q0.125 1.28125 0.296875 2.625q0.1875 1.328125 0.40625 2.671875q0.21875 1.328125 0.4375 2.5q0.046875 0.296875 0.1875 0.59375q0.15625 0.296875 0.3125 0.5625q0.171875 0.265625 0.28125 0.546875q0.125 0.28125 0.125 0.5625q0 0.1875 -0.125 0.296875q-0.109375 0.109375 -0.28125 0.15625q-0.15625 0.03125 -0.34375 0.03125q-0.1875 0 -0.296875 0q-0.46875 0 -0.75 -0.375q-0.265625 -0.390625 -0.40625 -0.890625q-0.140625 -0.5 -0.1875 -1.03125q-0.046875 -0.546875 -0.09375 -0.875q-0.1875 -1.296875 -0.328125 -2.5q-0.140625 -1.203125 -0.25 -2.40625q-0.09375 -1.21875 -0.1875 -2.4375q-0.078125 -1.234375 -0.171875 -2.546875zm14.2265625 12.609375q0.046875 -0.609375 0.09375 -1.265625q0.046875 -0.65625 0.078125 -1.3125q0.046875 -0.65625 0.046875 -1.28125q0.015625 -0.640625 0.015625 -1.15625q0 -0.75 -0.21875 -1.421875q-0.203125 -0.6875 -0.609375 -1.1875q-0.390625 -0.515625 -0.984375 -0.796875q-0.59375 -0.296875 -1.421875 -0.296875q-0.328125 0 -0.5625 0.046875q-0.234375 0.046875 -0.46875 0.15625q-0.234375 0.09375 -0.515625 0.265625q-0.28125 0.1875 -0.65625 0.4375q0 0.046875 -0.015625 0.1875q0 0.125 0 0.140625q0 0.515625 0.09375 1.375q0.109375 0.859375 0.21875 1.78125q0.125 0.921875 0.234375 1.796875q0.125 0.859375 0.125 1.40625q0 0.046875 0 0.1875q0 0.140625 -0.015625 0.3125q0 0.15625 0 0.296875q0 0.140625 0 0.203125q-0.140625 0.328125 -0.34375 0.421875q-0.203125 0.078125 -0.484375 0.078125q-0.28125 0.046875 -0.421875 -0.390625q-0.140625 -0.453125 -0.21875 -1.296875q-0.0625 -0.84375 -0.125 -2.03125q-0.046875 -1.203125 -0.15625 -2.625q-0.109375 -1.4375 -0.3125 -3.046875q-0.1875 -1.609375 -0.5625 -3.296875q-0.1875 -0.65625 -0.296875 -1.109375q-0.109375 -0.453125 -0.203125 -0.8125q-0.09375 -0.375 -0.15625 -0.75q-0.078125 -0.390625 -0.171875 -0.9375l0 -0.09375q0 -0.09375 0.125 -0.171875q0.109375 -0.078125 0.265625 -0.140625q0.15625 -0.078125 0.296875 -0.109375q0.15625 -0.046875 0.25 -0.046875q0.453125 1.171875 0.71875 1.984375q0.265625 0.8125 0.421875 1.40625q0.171875 0.578125 0.234375 0.984375q0.078125 0.390625 0.125 0.765625q0.046875 0.375 0.0625 0.78125q0.03125 0.390625 0.109375 0.953125q1.21875 -0.75 2.203125 -0.8125q1.0 -0.078125 1.765625 0.28125q0.78125 0.359375 1.359375 1.109375q0.578125 0.75 0.953125 1.6875q0.375 0.9375 0.5625 2.0q0.203125 1.046875 0.265625 2.03125q0.0625 0.984375 -0.046875 1.828125q-0.109375 0.828125 -0.328125 1.328125q-0.203125 0.5 -0.5625 0.578125q-0.34375 0.09375 -0.765625 -0.421875zm3.03125 -3.546875q0.015625 -0.390625 0.21875 -0.90625q0.21875 -0.515625 0.65625 -1.0q0.453125 -0.5 1.125 -0.890625q0.6875 -0.390625 1.609375 -0.546875q0.9375 -0.171875 2.109375 -0.03125q1.1875 0.140625 2.640625 0.703125q0 -0.015625 0 -0.234375l-0.015625 -0.203125q0 -0.609375 -0.359375 -1.234375q-0.34375 -0.640625 -0.90625 -1.140625q-0.546875 -0.515625 -1.1875 -0.828125q-0.625 -0.3125 -1.203125 -0.3125q-0.234375 0 -0.421875 0.078125q-0.171875 0.0625 -0.34375 0.171875q-0.15625 0.09375 -0.3125 0.1875q-0.140625 0.078125 -0.359375 0.078125q-0.046875 0 -0.046875 -0.03125q-0.015625 -0.015625 -0.046875 -0.046875q-0.046875 -0.046875 -0.125 -0.109375q-0.078125 -0.078125 -0.078125 -0.09375q0 -0.421875 0.140625 -0.71875q0.15625 -0.3125 0.421875 -0.5q0.28125 -0.1875 0.609375 -0.296875q0.34375 -0.109375 0.71875 -0.109375q0.9375 0.09375 1.796875 0.578125q0.859375 0.484375 1.5625 1.21875q0.71875 0.71875 1.25 1.671875q0.546875 0.9375 0.90625 1.96875q0.375 1.015625 0.484375 2.046875q0.140625 1.078125 0.03125 2.015625q-0.03125 0 -0.15625 -0.015625q-0.109375 -0.015625 -0.25 -0.015625q-0.140625 -0.015625 -0.234375 -0.046875l-0.109375 -0.015625q-0.5 -1.109375 -1.109375 -1.78125q-0.609375 -0.6875 -1.203125 -1.0625q-0.59375 -0.390625 -1.109375 -0.546875q-0.515625 -0.15625 -0.84375 -0.21875q-0.359375 0 -0.84375 0.046875q-0.46875 0.046875 -0.984375 0.171875q-0.515625 0.109375 -1.046875 0.3125q-0.53125 0.1875 -0.9375 0.46875q-0.40625 0.28125 -0.65625 0.671875q-0.25 0.390625 -0.25 0.90625q0 0.5625 0.4375 0.953125q0.453125 0.375 1.078125 0.625q0.640625 0.25 1.296875 0.34375q0.65625 0.09375 1.0625 0.09375q0.65625 0 1.28125 -0.0625q0.640625 -0.078125 1.25 -0.171875q0.625 -0.09375 1.234375 -0.15625q0.609375 -0.078125 1.21875 -0.078125q0.046875 0 0.15625 0q0.125 0 0.25 0.015625q0.140625 0 0.234375 0q0.109375 0 0.15625 0q0.1875 0.078125 0.203125 0.21875q0.03125 0.140625 0.03125 0.28125q0 0.140625 -0.296875 0.3125q-0.28125 0.15625 -0.75 0.328125q-0.46875 0.15625 -1.046875 0.328125q-0.578125 0.171875 -1.109375 0.296875q-0.515625 0.109375 -0.984375 0.203125q-0.453125 0.078125 -0.640625 0.078125q-0.984375 0 -2.09375 -0.15625q-1.09375 -0.171875 -2.015625 -0.609375q-0.90625 -0.4375 -1.5 -1.203125q-0.59375 -0.78125 -0.59375 -2.0zm14.875 -4.09375q-0.1875 0 -0.65625 0q-0.46875 0 -0.96875 -0.078125q-0.5 -0.09375 -0.921875 -0.28125q-0.40625 -0.1875 -0.40625 -0.53125q0 -0.09375 0.03125 -0.265625q0.046875 -0.1875 0.234375 -0.1875l2.40625 -0.203125q0.09375 -0.875 0.140625 -1.421875q0.046875 -0.546875 0.015625 -1.03125q-0.015625 -0.484375 -0.046875 -1.0q-0.03125 -0.53125 -0.0625 -1.375q0 -0.171875 0.0625 -0.265625q0.078125 -0.09375 0.1875 -0.140625q0.109375 -0.046875 0.234375 -0.0625q0.125 -0.03125 0.203125 -0.03125q0.140625 0 0.28125 0.09375q0.15625 0.09375 0.265625 0.234375q0.125 0.140625 0.1875 0.296875q0.078125 0.15625 0.078125 0.296875l0.1875 4.375l2.015625 0.09375q0.40625 -0.046875 0.734375 0.15625q0.34375 0.203125 0.375 0.734375q-0.28125 0.3125 -0.6875 0.375q-0.390625 0.046875 -0.828125 0.046875q-0.4375 -0.015625 -0.859375 0q-0.421875 0 -0.75 0.21875q0 0.140625 0.015625 0.78125q0.03125 0.625 0.046875 1.5q0.03125 0.859375 0.0625 1.84375q0.046875 0.984375 0.0625 1.8125q0.03125 0.828125 0.03125 1.421875q0.015625 0.578125 0.015625 0.65625q-0.53125 0.328125 -0.859375 -0.0625q-0.328125 -0.390625 -0.53125 -1.140625q-0.203125 -0.765625 -0.28125 -1.78125q-0.078125 -1.03125 -0.09375 -2.015625q-0.015625 -1.0 0 -1.84375q0.03125 -0.84375 0.078125 -1.21875zm5.15625 -8.625q0 -0.140625 0 -0.25q0 -0.109375 0.046875 -0.1875q0.046875 -0.078125 0.140625 -0.171875q0.09375 -0.09375 0.234375 -0.234375q0.265625 0.140625 0.453125 0.5q0.203125 0.34375 0.328125 0.796875q0.140625 0.453125 0.203125 1.015625q0.078125 0.546875 0.125 1.078125q0.046875 0.515625 0.046875 0.96875q0.015625 0.4375 0.015625 0.71875q0 0.328125 -0.046875 0.546875q-0.046875 0.203125 -0.421875 0.203125q-0.296875 0 -0.5 -0.34375q-0.203125 -0.359375 -0.328125 -0.875q-0.125 -0.53125 -0.1875 -1.15625q-0.0625 -0.640625 -0.09375 -1.203125q-0.015625 -0.5625 -0.015625 -0.9375l0 -0.46875zm2.3984375 13.84375q0.1875 -0.140625 0.328125 -0.171875q0.15625 -0.03125 0.34375 -0.03125q0.21875 0 0.421875 0.109375q0.21875 0.09375 0.390625 0.25q0.171875 0.15625 0.359375 0.296875q0.1875 0.140625 0.40625 0.234375q0.609375 0.25 0.96875 0.421875q0.359375 0.15625 0.65625 0.25q0.3125 0.09375 0.703125 0.125q0.40625 0.015625 1.046875 0.015625q0.484375 0 1.1874962 0.015625q0.703125 0.015625 1.328125 -0.109375q0.640625 -0.140625 1.078125 -0.46875q0.453125 -0.34375 0.453125 -1.046875q0.03125 -0.6875 -0.359375 -1.0625q-0.390625 -0.390625 -1.046875 -0.59375q-0.65625 -0.21875 -1.484375 -0.296875q-0.8124962 -0.09375 -1.6874962 -0.1875q-0.859375 -0.09375 -1.6875 -0.265625q-0.828125 -0.171875 -1.484375 -0.546875q-0.65625 -0.375 -1.0625 -1.03125q-0.390625 -0.65625 -0.421875 -1.6875q0.140625 -0.75 0.734375 -1.25q0.609375 -0.515625 1.4375 -0.78125q0.828125 -0.265625 1.765625 -0.28125q0.9375 -0.015625 1.71875 0.234375q0.7968712 0.25 1.3124962 0.796875q0.53125 0.53125 0.5625 1.328125q0.046875 0.46875 -0.078125 0.78125q-0.109375 0.296875 -0.3125 0.453125q-0.203125 0.140625 -0.421875 0.140625q-0.203125 -0.015625 -0.328125 -0.171875q-0.109375 -0.15625 -0.09375 -0.4375q0.015625 -0.296875 0.265625 -0.75q-0.09375 -0.4375 -0.546875 -0.6875q-0.4374962 -0.265625 -1.0312462 -0.375q-0.578125 -0.109375 -1.25 -0.046875q-0.65625 0.0625 -1.21875 0.25q-0.546875 0.1875 -0.890625 0.5q-0.328125 0.296875 -0.28125 0.6875q0 0.703125 0.40625 1.09375q0.40625 0.390625 1.0625 0.609375q0.65625 0.203125 1.515625 0.296875q0.859375 0.09375 1.7499962 0.171875q0.90625 0.078125 1.75 0.234375q0.84375 0.15625 1.515625 0.515625q0.6875 0.34375 1.078125 0.9375q0.40625 0.59375 0.40625 1.5625q0 0.71875 -0.375 1.25q-0.375 0.53125 -0.953125 0.890625q-0.5625 0.34375 -1.25 0.515625q-0.671875 0.15625 -1.28125 0.15625q-0.609375 0 -1.3124962 -0.015625q-0.6875 -0.015625 -1.40625 -0.078125q-0.703125 -0.078125 -1.4375 -0.21875q-0.71875 -0.15625 -1.34375 -0.46875q-0.625 -0.328125 -1.125 -0.8125q-0.484375 -0.5 -0.78125 -1.25zm36.679684 2.015625q0 -0.0625 0 -0.171875q0.015625 -0.125 0.015625 -0.234375q0 -0.125 0 -0.21875l0.03125 -0.140625q0 -0.078125 0.03125 -0.40625q0.03125 -0.328125 0.078125 -0.703125q0.046875 -0.375 0.0625 -0.703125q0.03125 -0.34375 0.03125 -0.4375q-0.046875 -0.5 -0.21875 -1.296875q-0.15625 -0.796875 -0.5 -1.5625q-0.328125 -0.78125 -0.84375 -1.34375q-0.515625 -0.5625 -1.21875 -0.5625q-0.640625 0 -1.328125 0.328125q-0.6875 0.3125 -1.296875 0.8125q-0.59375 0.5 -0.96875 1.15625q-0.390625 0.640625 -0.390625 1.34375q0 0.34375 0.109375 0.6875q0.125 0.34375 0.25 0.671875q0.125 0.328125 0.234375 0.6875q0.125 0.34375 0.125 0.71875q0 0.28125 -0.109375 0.5625q-0.09375 0.28125 -0.5 0.28125q-0.421875 0 -0.6875 -0.484375q-0.265625 -0.5 -0.5 -1.265625q-0.21875 -0.765625 -0.46875 -1.625q-0.234375 -0.875 -0.609375 -1.625q-0.359375 -0.765625 -0.890625 -1.25q-0.515625 -0.5 -1.34375 -0.5q-0.625 0 -1.125 0.265625q-0.484375 0.265625 -0.8125 0.71875q-0.3125 0.4375 -0.484375 1.0q-0.171875 0.5625 -0.171875 1.15625q0 0.9375 0.125 1.84375q0.125 0.890625 0.125 1.8125q0 0.328125 -0.078125 0.59375q-0.0625 0.265625 -0.453125 0.265625q-0.265625 0 -0.4375 -0.125q-0.171875 -0.125 -0.296875 -0.328125q-0.109375 -0.203125 -0.1875 -0.4375q-0.0625 -0.25 -0.109375 -0.4375q0.046875 -0.96875 0 -1.78125q-0.03125 -0.828125 -0.09375 -1.5625q-0.046875 -0.734375 -0.109375 -1.484375q-0.0625 -0.75 -0.0625 -1.59375q0 -0.046875 0 -0.15625q0 -0.125 0.015625 -0.25q0.015625 -0.140625 0.015625 -0.234375q0 -0.109375 0 -0.15625q0.015625 -0.046875 0.109375 -0.109375q0.09375 -0.078125 0.125 -0.125l0.109375 0q0.40625 0 0.59375 0.28125q0.1875 0.234375 0.1875 0.609375q0.375 -0.40625 0.65625 -0.625q0.296875 -0.21875 0.5625 -0.328125q0.28125 -0.125 0.5625 -0.140625q0.296875 -0.03125 0.71875 -0.03125q0.6875 0 1.234375 0.140625q0.546875 0.140625 0.984375 0.40625q0.453125 0.265625 0.828125 0.71875q0.375 0.421875 0.75 0.984375q0.03125 0 0.0625 0.015625q0.03125 0 0.0625 0q0.015625 0 0.21875 -0.21875q0.21875 -0.21875 0.5625 -0.53125q0.359375 -0.328125 0.828125 -0.703125q0.46875 -0.390625 0.984375 -0.71875q0.515625 -0.328125 1.046875 -0.546875q0.546875 -0.234375 1.0625 -0.234375q0.796875 0 1.421875 0.328125q0.625 0.328125 1.109375 0.890625q0.5 0.546875 0.84375 1.234375q0.359375 0.6875 0.59375 1.4375q0.234375 0.734375 0.328125 1.46875q0.109375 0.71875 0.109375 1.328125q0 0.234375 -0.015625 0.8125q0 0.5625 -0.109375 1.171875q-0.109375 0.59375 -0.34375 1.0625q-0.234375 0.453125 -0.65625 0.453125q-0.203125 0 -0.296875 -0.078125q-0.09375 -0.09375 -0.140625 -0.203125q-0.046875 -0.125 -0.046875 -0.265625q0 -0.140625 0 -0.3125zm2.71875 -5.453125q0 -1.21875 0.359375 -2.328125q0.359375 -1.125 1.046875 -1.96875q0.703125 -0.84375 1.6875 -1.34375q1.0 -0.5 2.3125 -0.5q0.78125 0.09375 1.34375 0.421875q0.578125 0.328125 0.9375 0.8125q0.375 0.46875 0.53125 1.109375q0.140625 0.609375 0.140625 1.3125q0 0.84375 -0.5 1.53125q-0.484375 0.671875 -1.234375 1.125q-0.75 0.453125 -1.625 0.703125q-0.859375 0.25 -1.609375 0.25q-0.28125 0 -0.578125 0q-0.28125 0 -0.515625 -0.09375q-0.234375 -0.09375 -0.375 -0.28125q-0.140625 -0.1875 -0.140625 -0.5625q0 -0.125 0.03125 -0.203125q0.03125 -0.078125 0.1875 -0.109375q0.171875 -0.046875 0.5 -0.015625q0.328125 0.046875 0.890625 0.140625q0.328125 0 0.953125 -0.21875q0.625 -0.234375 1.265625 -0.578125q0.640625 -0.359375 1.109375 -0.8125q0.46875 -0.453125 0.46875 -0.90625q0 -0.46875 -0.15625 -0.921875q-0.140625 -0.453125 -0.453125 -0.796875q-0.296875 -0.359375 -0.71875 -0.5625q-0.40625 -0.21875 -0.921875 -0.171875q-0.8125 0.0625 -1.484375 0.4375q-0.671875 0.375 -1.140625 0.984375q-0.46875 0.59375 -0.734375 1.328125q-0.25 0.71875 -0.25 1.515625q0 0.609375 0.015625 1.21875q0.03125 0.609375 0.1875 1.203125q0.15625 0.578125 0.484375 1.125q0.34375 0.53125 0.984375 0.9375q0.65625 0.40625 1.640625 0.6875q0.984375 0.265625 2.4375 0.328125l4.1875 -0.28125q-0.375 0.515625 -0.953125 0.84375q-0.5625 0.328125 -1.21875 0.53125q-0.640625 0.203125 -1.28125 0.296875q-0.625 0.09375 -1.1875 0.09375q-1.359375 0 -2.5625 -0.4375q-1.1875 -0.453125 -2.109375 -1.265625q-0.90625 -0.8125 -1.4375 -1.96875q-0.515625 -1.15625 -0.515625 -2.609375zm12.984375 4.03125q0 -0.1875 0.140625 -0.5625q0.15625 -0.375 0.359375 -0.765625q0.21875 -0.390625 0.4375 -0.671875q0.234375 -0.28125 0.390625 -0.28125q0.46875 0 0.8125 0.25q0.359375 0.25 0.578125 0.625q0.234375 0.375 0.34375 0.828125q0.125 0.4375 0.125 0.8125q0 0.28125 -0.171875 0.640625q-0.15625 0.34375 -0.40625 0.65625q-0.25 0.296875 -0.5625 0.515625q-0.296875 0.203125 -0.59375 0.203125q-0.359375 0 -0.625 -0.25q-0.25 -0.25 -0.453125 -0.609375q-0.1875 -0.359375 -0.28125 -0.75q-0.09375 -0.390625 -0.09375 -0.640625z" fill-rule="nonzero"></path><path fill="#000000" fill-opacity="0.0" d="m26.210608 26.19051c0 -8.286491 -10.312252 -17.35165 -21.889765 -19.88758" fill-rule="evenodd"></path><path stroke="#980000" stroke-width="1.0" stroke-linejoin="round" stroke-linecap="butt" d="m26.210608 26.19051c0 -4.1432457 -2.578064 -8.481159 -6.6033154 -12.100251c-2.0126266 -1.8095465 -4.3870487 -3.4393873 -6.9819107 -4.775338c-1.297431 -0.6679745 -2.64997 -1.2624769 -4.0399504 -1.7692332c-0.17374706 -0.063344955 -0.34807968 -0.12531805 -0.52296257 -0.18589258l-0.43738317 -0.14752102" fill-rule="evenodd"></path><path fill="#980000" stroke="#980000" stroke-width="1.0" stroke-linecap="butt" d="m7.625085 7.2122736l1.3826704 -0.7858753l-3.277412 0.26443243l2.6806169 1.9041133z" fill-rule="evenodd"></path></g></svg>

